<svg version="1.1" xmlns="http://www.w3.org/2000/svg" width="800" height="900"><defs><clipPath id="aUqgfEXWuBTJ"><path fill="none" stroke="none" d="M 66.5 5.5 L 795.5 5.5 L 795.5 846.5 L 66.5 846.5 L 66.5 5.5"/></clipPath><clipPath id="ekBDcUaTXTSd"><path fill="none" stroke="none" d="M 66.5 5.5 L 795.5 5.5 L 795.5 846.5 L 66.5 846.5 L 66.5 5.5"/></clipPath><clipPath id="fWvJMsNTxCmm"><path fill="none" stroke="none" d="M 66.5 5.5 L 795.5 5.5 L 795.5 846.5 L 66.5 846.5 L 66.5 5.5"/></clipPath><clipPath id="nFlbdxpyUgMF"><path fill="none" stroke="none" d="M 66.5 5.5 L 795.5 5.5 L 795.5 846.5 L 66.5 846.5 L 66.5 5.5"/></clipPath><clipPath id="VprKXGIppeaK"><path fill="none" stroke="none" d="M 66.5 5.5 L 795.5 5.5 L 795.5 846.5 L 66.5 846.5 L 66.5 5.5"/></clipPath><clipPath id="yePJlVVDrRMl"><path fill="none" stroke="none" d="M 66.5 5.5 L 795.5 5.5 L 795.5 846.5 L 66.5 846.5 L 66.5 5.5"/></clipPath><clipPath id="tdBXoqpSFNIu"><path fill="none" stroke="none" d="M 66.5 5.5 L 795.5 5.5 L 795.5 846.5 L 66.5 846.5 L 66.5 5.5"/></clipPath><clipPath id="qabeFaWUmyKT"><path fill="none" stroke="none" d="M 66.5 5.5 L 795.5 5.5 L 795.5 846.5 L 66.5 846.5 L 66.5 5.5"/></clipPath><clipPath id="ceVAsQWKlTzi"><path fill="none" stroke="none" d="M 66.5 5.5 L 795.5 5.5 L 795.5 846.5 L 66.5 846.5 L 66.5 5.5"/></clipPath><clipPath id="ThgLZHOpHsTB"><path fill="none" stroke="none" d="M 66.5 5.5 L 795.5 5.5 L 795.5 846.5 L 66.5 846.5 L 66.5 5.5"/></clipPath><clipPath id="aBJtCPRLkqbC"><path fill="none" stroke="none" d="M 66.5 5.5 L 795.5 5.5 L 795.5 846.5 L 66.5 846.5 L 66.5 5.5"/></clipPath><clipPath id="vUJNDbBSfVDG"><path fill="none" stroke="none" d="M 66.5 5.5 L 795.5 5.5 L 795.5 846.5 L 66.5 846.5 L 66.5 5.5"/></clipPath></defs><path fill="none" stroke="rgb(229,229,229)" paint-order="fill" d="M 66.5 5.5 L 795.5 5.5 L 795.5 846.5 L 66.5 846.5 L 66.5 5.5" stroke-opacity="1" stroke-linejoin="bevel" stroke-miterlimit="10" stroke-dasharray=""/><path fill="rgb(0,114,178)" stroke="none" paint-order="stroke" d="M 99.63636016845703 712.8982543945312 L 150.61538696289062 720.2904663085938 L 176.10488891601562 780.3406982421875 L 201.5944061279297 775.3986206054688 L 227.08392333984375 808.272705078125 L 252.57342529296875 653.3721313476562 L 278.06292724609375 634.6517333984375 L 303.5524597167969 631.3357543945312 L 329.0419616699219 623.476318359375 L 354.5314636230469 632.7960815429688 L 380.0209655761719 624.9229125976562 L 405.510498046875 607.1912841796875 L 431 655.5264892578125 L 456.489501953125 660.0974731445312 L 481.9790344238281 690.1693725585938 L 558.4475708007812 706.8356323242188 L 736.8741455078125 601.3157958984375 L 762.3636474609375 620.639404296875 L 762.3636474609375 408.9945068359375 L 736.8741455078125 513.0156860351562 L 558.4475708007812 504.6758117675781 L 481.9790344238281 531.9100341796875 L 456.489501953125 557.3856201171875 L 431 569.3912353515625 L 405.510498046875 569.4794311523438 L 380.0209655761719 545.0977783203125 L 354.5314636230469 582.1304321289062 L 329.0419616699219 598.6400756835938 L 303.5524597167969 612.9420776367188 L 278.06292724609375 617.2988891601562 L 252.57342529296875 643.5574951171875 L 227.08392333984375 618.3416748046875 L 201.5944061279297 560.7122192382812 L 176.10488891601562 662.0719604492188 L 150.61538696289062 638.63134765625 L 99.63636016845703 597.9497680664062 Z" fill-opacity="0.4" clip-path="url(#fWvJMsNTxCmm)"/><path fill="none" stroke="rgb(0,114,178)" paint-order="fill" d="M 99.63636016845703 655.4240112304688 L 150.61538696289062 679.4609375 L 176.10488891601562 721.206298828125 L 201.5944061279297 668.055419921875 L 227.08392333984375 713.3071899414062 L 252.57342529296875 648.4647827148438 L 278.06292724609375 625.9752807617188 L 303.5524597167969 622.138916015625 L 329.0419616699219 611.0582275390625 L 354.5314636230469 607.4632568359375 L 380.0209655761719 585.0103759765625 L 405.510498046875 588.3353881835938 L 431 612.4588623046875 L 456.489501953125 608.7415161132812 L 481.9790344238281 611.0397338867188 L 558.4475708007812 605.7557373046875 L 736.8741455078125 557.1657104492188 L 762.3636474609375 514.8169555664062" stroke-opacity="1" stroke-linejoin="bevel" stroke-miterlimit="10" stroke-width="3" stroke-dasharray="" clip-path="url(#nFlbdxpyUgMF)"/><path fill="none" stroke="rgb(0,0,0)" paint-order="fill" d="M 99.63636016845703 655.4240112304688 L 150.61538696289062 679.4609375 L 176.10488891601562 721.206298828125 L 201.5944061279297 668.055419921875 L 227.08392333984375 713.3071899414062 L 252.57342529296875 648.4647827148438 L 278.06292724609375 625.9752807617188 L 303.5524597167969 622.138916015625 L 329.0419616699219 611.0582275390625 L 354.5314636230469 607.4632568359375 L 380.0209655761719 585.0103759765625 L 405.510498046875 588.3353881835938 L 431 612.4588623046875 L 456.489501953125 608.7415161132812 L 481.9790344238281 611.0397338867188 L 558.4475708007812 605.7557373046875 L 736.8741455078125 557.1657104492188 L 762.3636474609375 514.8169555664062" stroke-opacity="1" stroke-linejoin="bevel" stroke-miterlimit="10" stroke-dasharray="" clip-path="url(#VprKXGIppeaK)"/><path fill="rgb(0,114,178)" stroke="rgb(0,0,0)" paint-order="fill" d="M 104.63636016845703 655.4240112304688 A 5 5 0 0 1 94.63636016845703 655.4240112304688 A 5 5 0 0 1 104.63636016845703 655.4240112304688" fill-opacity="1" clip-path="url(#yePJlVVDrRMl)" stroke-opacity="1" stroke-linejoin="bevel" stroke-miterlimit="10" stroke-dasharray=""/><path fill="rgb(0,114,178)" stroke="rgb(0,0,0)" paint-order="fill" d="M 155.61538696289062 679.4609375 A 5 5 0 0 1 145.61538696289062 679.4609375 A 5 5 0 0 1 155.61538696289062 679.4609375" fill-opacity="1" clip-path="url(#yePJlVVDrRMl)" stroke-opacity="1" stroke-linejoin="bevel" stroke-miterlimit="10" stroke-dasharray=""/><path fill="rgb(0,114,178)" stroke="rgb(0,0,0)" paint-order="fill" d="M 181.10488891601562 721.206298828125 A 5 5 0 0 1 171.10488891601562 721.206298828125 A 5 5 0 0 1 181.10488891601562 721.206298828125" fill-opacity="1" clip-path="url(#yePJlVVDrRMl)" stroke-opacity="1" stroke-linejoin="bevel" stroke-miterlimit="10" stroke-dasharray=""/><path fill="rgb(0,114,178)" stroke="rgb(0,0,0)" paint-order="fill" d="M 206.5944061279297 668.055419921875 A 5 5 0 0 1 196.5944061279297 668.055419921875 A 5 5 0 0 1 206.5944061279297 668.055419921875" fill-opacity="1" clip-path="url(#yePJlVVDrRMl)" stroke-opacity="1" stroke-linejoin="bevel" stroke-miterlimit="10" stroke-dasharray=""/><path fill="rgb(0,114,178)" stroke="rgb(0,0,0)" paint-order="fill" d="M 232.08392333984375 713.3071899414062 A 5 5 0 0 1 222.08392333984375 713.3071899414062 A 5 5 0 0 1 232.08392333984375 713.3071899414062" fill-opacity="1" clip-path="url(#yePJlVVDrRMl)" stroke-opacity="1" stroke-linejoin="bevel" stroke-miterlimit="10" stroke-dasharray=""/><path fill="rgb(0,114,178)" stroke="rgb(0,0,0)" paint-order="fill" d="M 257.57342529296875 648.4647827148438 A 5 5 0 0 1 247.57342529296875 648.4647827148438 A 5 5 0 0 1 257.57342529296875 648.4647827148438" fill-opacity="1" clip-path="url(#yePJlVVDrRMl)" stroke-opacity="1" stroke-linejoin="bevel" stroke-miterlimit="10" stroke-dasharray=""/><path fill="rgb(0,114,178)" stroke="rgb(0,0,0)" paint-order="fill" d="M 283.06292724609375 625.9752807617188 A 5 5 0 0 1 273.06292724609375 625.9752807617188 A 5 5 0 0 1 283.06292724609375 625.9752807617188" fill-opacity="1" clip-path="url(#yePJlVVDrRMl)" stroke-opacity="1" stroke-linejoin="bevel" stroke-miterlimit="10" stroke-dasharray=""/><path fill="rgb(0,114,178)" stroke="rgb(0,0,0)" paint-order="fill" d="M 308.5524597167969 622.138916015625 A 5 5 0 0 1 298.5524597167969 622.138916015625 A 5 5 0 0 1 308.5524597167969 622.138916015625" fill-opacity="1" clip-path="url(#yePJlVVDrRMl)" stroke-opacity="1" stroke-linejoin="bevel" stroke-miterlimit="10" stroke-dasharray=""/><path fill="rgb(0,114,178)" stroke="rgb(0,0,0)" paint-order="fill" d="M 334.0419616699219 611.0582275390625 A 5 5 0 0 1 324.0419616699219 611.0582275390625 A 5 5 0 0 1 334.0419616699219 611.0582275390625" fill-opacity="1" clip-path="url(#yePJlVVDrRMl)" stroke-opacity="1" stroke-linejoin="bevel" stroke-miterlimit="10" stroke-dasharray=""/><path fill="rgb(0,114,178)" stroke="rgb(0,0,0)" paint-order="fill" d="M 359.5314636230469 607.4632568359375 A 5 5 0 0 1 349.5314636230469 607.4632568359375 A 5 5 0 0 1 359.5314636230469 607.4632568359375" fill-opacity="1" clip-path="url(#yePJlVVDrRMl)" stroke-opacity="1" stroke-linejoin="bevel" stroke-miterlimit="10" stroke-dasharray=""/><path fill="rgb(0,114,178)" stroke="rgb(0,0,0)" paint-order="fill" d="M 385.0209655761719 585.0103759765625 A 5 5 0 0 1 375.0209655761719 585.0103759765625 A 5 5 0 0 1 385.0209655761719 585.0103759765625" fill-opacity="1" clip-path="url(#yePJlVVDrRMl)" stroke-opacity="1" stroke-linejoin="bevel" stroke-miterlimit="10" stroke-dasharray=""/><path fill="rgb(0,114,178)" stroke="rgb(0,0,0)" paint-order="fill" d="M 410.510498046875 588.3353881835938 A 5 5 0 0 1 400.510498046875 588.3353881835938 A 5 5 0 0 1 410.510498046875 588.3353881835938" fill-opacity="1" clip-path="url(#yePJlVVDrRMl)" stroke-opacity="1" stroke-linejoin="bevel" stroke-miterlimit="10" stroke-dasharray=""/><path fill="rgb(0,114,178)" stroke="rgb(0,0,0)" paint-order="fill" d="M 436 612.4588623046875 A 5 5 0 0 1 426 612.4588623046875 A 5 5 0 0 1 436 612.4588623046875" fill-opacity="1" clip-path="url(#yePJlVVDrRMl)" stroke-opacity="1" stroke-linejoin="bevel" stroke-miterlimit="10" stroke-dasharray=""/><path fill="rgb(0,114,178)" stroke="rgb(0,0,0)" paint-order="fill" d="M 461.489501953125 608.7415161132812 A 5 5 0 0 1 451.489501953125 608.7415161132812 A 5 5 0 0 1 461.489501953125 608.7415161132812" fill-opacity="1" clip-path="url(#yePJlVVDrRMl)" stroke-opacity="1" stroke-linejoin="bevel" stroke-miterlimit="10" stroke-dasharray=""/><path fill="rgb(0,114,178)" stroke="rgb(0,0,0)" paint-order="fill" d="M 486.9790344238281 611.0397338867188 A 5 5 0 0 1 476.9790344238281 611.0397338867188 A 5 5 0 0 1 486.9790344238281 611.0397338867188" fill-opacity="1" clip-path="url(#yePJlVVDrRMl)" stroke-opacity="1" stroke-linejoin="bevel" stroke-miterlimit="10" stroke-dasharray=""/><path fill="rgb(0,114,178)" stroke="rgb(0,0,0)" paint-order="fill" d="M 563.4475708007812 605.7557373046875 A 5 5 0 0 1 553.4475708007812 605.7557373046875 A 5 5 0 0 1 563.4475708007812 605.7557373046875" fill-opacity="1" clip-path="url(#yePJlVVDrRMl)" stroke-opacity="1" stroke-linejoin="bevel" stroke-miterlimit="10" stroke-dasharray=""/><path fill="rgb(0,114,178)" stroke="rgb(0,0,0)" paint-order="fill" d="M 741.8741455078125 557.1657104492188 A 5 5 0 0 1 731.8741455078125 557.1657104492188 A 5 5 0 0 1 741.8741455078125 557.1657104492188" fill-opacity="1" clip-path="url(#yePJlVVDrRMl)" stroke-opacity="1" stroke-linejoin="bevel" stroke-miterlimit="10" stroke-dasharray=""/><path fill="rgb(0,114,178)" stroke="rgb(0,0,0)" paint-order="fill" d="M 767.3636474609375 514.8169555664062 A 5 5 0 0 1 757.3636474609375 514.8169555664062 A 5 5 0 0 1 767.3636474609375 514.8169555664062" fill-opacity="1" clip-path="url(#yePJlVVDrRMl)" stroke-opacity="1" stroke-linejoin="bevel" stroke-miterlimit="10" stroke-dasharray=""/><path fill="rgb(0,158,115)" stroke="none" paint-order="stroke" d="M 252.57342529296875 584.3193359375 L 278.06292724609375 652.3989868164062 L 329.0419616699219 561.609619140625 L 354.5314636230469 615.7266845703125 L 380.0209655761719 712.3942260742188 L 405.510498046875 532.6719360351562 L 431 581.1577758789062 L 456.489501953125 617.5245361328125 L 481.9790344238281 548.7286376953125 L 507.4685363769531 527.8577270507812 L 532.9580688476562 642.02880859375 L 558.4475708007812 620.5015258789062 L 583.9370727539062 586.6983032226562 L 609.4265747070312 587.3857421875 L 634.9160766601562 709.1659545898438 L 660.4055786132812 648.6058959960938 L 685.8950805664062 645.9581909179688 L 736.8741455078125 754.9498901367188 L 762.3636474609375 805.8117065429688 L 762.3636474609375 223.7887420654297 L 736.8741455078125 43.727272033691406 L 685.8950805664062 347.1455078125 L 660.4055786132812 266.213134765625 L 634.9160766601562 313.3431091308594 L 609.4265747070312 452.3377380371094 L 583.9370727539062 425.2051086425781 L 558.4475708007812 441.7214660644531 L 532.9580688476562 300.33306884765625 L 507.4685363769531 225.50482177734375 L 481.9790344238281 382.1387939453125 L 456.489501953125 323.57220458984375 L 431 446.8262023925781 L 405.510498046875 469.0807189941406 L 380.0209655761719 483.9089660644531 L 354.5314636230469 465.8997802734375 L 329.0419616699219 521.674072265625 L 278.06292724609375 506.62823486328125 L 252.57342529296875 558.5149536132812 Z" fill-opacity="0.4" clip-path="url(#tdBXoqpSFNIu)"/><path fill="none" stroke="rgb(0,158,115)" paint-order="fill" d="M 252.57342529296875 571.4171752929688 L 278.06292724609375 579.5136108398438 L 329.0419616699219 541.641845703125 L 354.5314636230469 540.813232421875 L 380.0209655761719 598.151611328125 L 405.510498046875 500.8763427734375 L 431 513.9920043945312 L 456.489501953125 470.5483703613281 L 481.9790344238281 465.4337158203125 L 507.4685363769531 376.6812744140625 L 532.9580688476562 471.1809387207031 L 558.4475708007812 531.1114501953125 L 583.9370727539062 505.95172119140625 L 609.4265747070312 519.8617553710938 L 634.9160766601562 511.2545471191406 L 660.4055786132812 457.4095153808594 L 685.8950805664062 496.5518493652344 L 736.8741455078125 399.3385925292969 L 762.3636474609375 514.8002319335938" stroke-opacity="1" stroke-linejoin="bevel" stroke-miterlimit="10" stroke-width="3" stroke-dasharray="" clip-path="url(#qabeFaWUmyKT)"/><path fill="none" stroke="rgb(0,0,0)" paint-order="fill" d="M 252.57342529296875 571.4171752929688 L 278.06292724609375 579.5136108398438 L 329.0419616699219 541.641845703125 L 354.5314636230469 540.813232421875 L 380.0209655761719 598.151611328125 L 405.510498046875 500.8763427734375 L 431 513.9920043945312 L 456.489501953125 470.5483703613281 L 481.9790344238281 465.4337158203125 L 507.4685363769531 376.6812744140625 L 532.9580688476562 471.1809387207031 L 558.4475708007812 531.1114501953125 L 583.9370727539062 505.95172119140625 L 609.4265747070312 519.8617553710938 L 634.9160766601562 511.2545471191406 L 660.4055786132812 457.4095153808594 L 685.8950805664062 496.5518493652344 L 736.8741455078125 399.3385925292969 L 762.3636474609375 514.8002319335938" stroke-opacity="1" stroke-linejoin="bevel" stroke-miterlimit="10" stroke-dasharray="" clip-path="url(#ceVAsQWKlTzi)"/><path fill="rgb(0,158,115)" stroke="rgb(0,0,0)" paint-order="fill" d="M 247.57342529296875 574.3039266389169 L 257.57342529296875 574.3039266389169 L 252.57342529296875 565.6436726010725 Z" fill-opacity="1" clip-path="url(#ThgLZHOpHsTB)" stroke-opacity="1" stroke-linejoin="bevel" stroke-miterlimit="10" stroke-dasharray=""/><path fill="rgb(0,158,115)" stroke="rgb(0,0,0)" paint-order="fill" d="M 273.06292724609375 582.4003621857919 L 283.06292724609375 582.4003621857919 L 278.06292724609375 573.7401081479475 Z" fill-opacity="1" clip-path="url(#ThgLZHOpHsTB)" stroke-opacity="1" stroke-linejoin="bevel" stroke-miterlimit="10" stroke-dasharray=""/><path fill="rgb(0,158,115)" stroke="rgb(0,0,0)" paint-order="fill" d="M 324.0419616699219 544.5285970490731 L 334.0419616699219 544.5285970490731 L 329.0419616699219 535.8683430112287 Z" fill-opacity="1" clip-path="url(#ThgLZHOpHsTB)" stroke-opacity="1" stroke-linejoin="bevel" stroke-miterlimit="10" stroke-dasharray=""/><path fill="rgb(0,158,115)" stroke="rgb(0,0,0)" paint-order="fill" d="M 349.5314636230469 543.6999837678231 L 359.5314636230469 543.6999837678231 L 354.5314636230469 535.0397297299787 Z" fill-opacity="1" clip-path="url(#ThgLZHOpHsTB)" stroke-opacity="1" stroke-linejoin="bevel" stroke-miterlimit="10" stroke-dasharray=""/><path fill="rgb(0,158,115)" stroke="rgb(0,0,0)" paint-order="fill" d="M 375.0209655761719 601.0383626740731 L 385.0209655761719 601.0383626740731 L 380.0209655761719 592.3781086362287 Z" fill-opacity="1" clip-path="url(#ThgLZHOpHsTB)" stroke-opacity="1" stroke-linejoin="bevel" stroke-miterlimit="10" stroke-dasharray=""/><path fill="rgb(0,158,115)" stroke="rgb(0,0,0)" paint-order="fill" d="M 400.510498046875 503.76309411938564 L 410.510498046875 503.76309411938564 L 405.510498046875 495.1028400815412 Z" fill-opacity="1" clip-path="url(#ThgLZHOpHsTB)" stroke-opacity="1" stroke-linejoin="bevel" stroke-miterlimit="10" stroke-dasharray=""/><path fill="rgb(0,158,115)" stroke="rgb(0,0,0)" paint-order="fill" d="M 426 516.8787557404794 L 436 516.8787557404794 L 431 508.21850170263497 Z" fill-opacity="1" clip-path="url(#ThgLZHOpHsTB)" stroke-opacity="1" stroke-linejoin="bevel" stroke-miterlimit="10" stroke-dasharray=""/><path fill="rgb(0,158,115)" stroke="rgb(0,0,0)" paint-order="fill" d="M 451.489501953125 473.43512170727627 L 461.489501953125 473.43512170727627 L 456.489501953125 464.77486766943184 Z" fill-opacity="1" clip-path="url(#ThgLZHOpHsTB)" stroke-opacity="1" stroke-linejoin="bevel" stroke-miterlimit="10" stroke-dasharray=""/><path fill="rgb(0,158,115)" stroke="rgb(0,0,0)" paint-order="fill" d="M 476.9790344238281 468.32046716626064 L 486.9790344238281 468.32046716626064 L 481.9790344238281 459.6602131284162 Z" fill-opacity="1" clip-path="url(#ThgLZHOpHsTB)" stroke-opacity="1" stroke-linejoin="bevel" stroke-miterlimit="10" stroke-dasharray=""/><path fill="rgb(0,158,115)" stroke="rgb(0,0,0)" paint-order="fill" d="M 502.4685363769531 379.56802576001064 L 512.4685363769531 379.56802576001064 L 507.4685363769531 370.9077717221662 Z" fill-opacity="1" clip-path="url(#ThgLZHOpHsTB)" stroke-opacity="1" stroke-linejoin="bevel" stroke-miterlimit="10" stroke-dasharray=""/><path fill="rgb(0,158,115)" stroke="rgb(0,0,0)" paint-order="fill" d="M 527.9580688476562 474.06769006665127 L 537.9580688476562 474.06769006665127 L 532.9580688476562 465.40743602880684 Z" fill-opacity="1" clip-path="url(#ThgLZHOpHsTB)" stroke-opacity="1" stroke-linejoin="bevel" stroke-miterlimit="10" stroke-dasharray=""/><path fill="rgb(0,158,115)" stroke="rgb(0,0,0)" paint-order="fill" d="M 553.4475708007812 533.9982015412606 L 563.4475708007812 533.9982015412606 L 558.4475708007812 525.3379475034162 Z" fill-opacity="1" clip-path="url(#ThgLZHOpHsTB)" stroke-opacity="1" stroke-linejoin="bevel" stroke-miterlimit="10" stroke-dasharray=""/><path fill="rgb(0,158,115)" stroke="rgb(0,0,0)" paint-order="fill" d="M 578.9370727539062 508.8384725373544 L 588.9370727539062 508.8384725373544 L 583.9370727539062 500.17821849950997 Z" fill-opacity="1" clip-path="url(#ThgLZHOpHsTB)" stroke-opacity="1" stroke-linejoin="bevel" stroke-miterlimit="10" stroke-dasharray=""/><path fill="rgb(0,158,115)" stroke="rgb(0,0,0)" paint-order="fill" d="M 604.4265747070312 522.7485067170419 L 614.4265747070312 522.7485067170419 L 609.4265747070312 514.0882526791975 Z" fill-opacity="1" clip-path="url(#ThgLZHOpHsTB)" stroke-opacity="1" stroke-linejoin="bevel" stroke-miterlimit="10" stroke-dasharray=""/><path fill="rgb(0,158,115)" stroke="rgb(0,0,0)" paint-order="fill" d="M 629.9160766601562 514.1412984650888 L 639.9160766601562 514.1412984650888 L 634.9160766601562 505.48104442724434 Z" fill-opacity="1" clip-path="url(#ThgLZHOpHsTB)" stroke-opacity="1" stroke-linejoin="bevel" stroke-miterlimit="10" stroke-dasharray=""/><path fill="rgb(0,158,115)" stroke="rgb(0,0,0)" paint-order="fill" d="M 655.4055786132812 460.2962667268075 L 665.4055786132812 460.2962667268075 L 660.4055786132812 451.6360126889631 Z" fill-opacity="1" clip-path="url(#ThgLZHOpHsTB)" stroke-opacity="1" stroke-linejoin="bevel" stroke-miterlimit="10" stroke-dasharray=""/><path fill="rgb(0,158,115)" stroke="rgb(0,0,0)" paint-order="fill" d="M 680.8950805664062 499.4386007111825 L 690.8950805664062 499.4386007111825 L 685.8950805664062 490.7783466733381 Z" fill-opacity="1" clip-path="url(#ThgLZHOpHsTB)" stroke-opacity="1" stroke-linejoin="bevel" stroke-miterlimit="10" stroke-dasharray=""/><path fill="rgb(0,158,115)" stroke="rgb(0,0,0)" paint-order="fill" d="M 731.8741455078125 402.225343875245 L 741.8741455078125 402.225343875245 L 736.8741455078125 393.5650898374006 Z" fill-opacity="1" clip-path="url(#ThgLZHOpHsTB)" stroke-opacity="1" stroke-linejoin="bevel" stroke-miterlimit="10" stroke-dasharray=""/><path fill="rgb(0,158,115)" stroke="rgb(0,0,0)" paint-order="fill" d="M 757.3636474609375 517.6869832795419 L 767.3636474609375 517.6869832795419 L 762.3636474609375 509.02672924169747 Z" fill-opacity="1" clip-path="url(#ThgLZHOpHsTB)" stroke-opacity="1" stroke-linejoin="bevel" stroke-miterlimit="10" stroke-dasharray=""/><path fill="none" stroke="rgb(0,0,0)" paint-order="fill" d="M 66.5 846.5 L 795.5 846.5" stroke-opacity="1" stroke-linejoin="bevel" stroke-miterlimit="10" stroke-dasharray=""/><path fill="none" stroke="rgb(0,0,0)" paint-order="fill" d="M 184.5 852.5 L 184.5 844.5 M 312.5 852.5 L 312.5 844.5 M 439.5 852.5 L 439.5 844.5 M 567.5 852.5 L 567.5 844.5 M 694.5 852.5 L 694.5 844.5" stroke-opacity="1" stroke-linejoin="bevel" stroke-miterlimit="10" stroke-dasharray=""/><path fill="none" stroke="rgb(0,0,0)" paint-order="fill" d="M 159.5 850.5 L 159.5 846.5 M 133.5 850.5 L 133.5 846.5 M 108.5 850.5 L 108.5 846.5 M 82.5 850.5 L 82.5 846.5 M 184.5 850.5 L 184.5 846.5 M 210.5 850.5 L 210.5 846.5 M 235.5 850.5 L 235.5 846.5 M 261.5 850.5 L 261.5 846.5 M 286.5 850.5 L 286.5 846.5 M 312.5 850.5 L 312.5 846.5 M 337.5 850.5 L 337.5 846.5 M 363.5 850.5 L 363.5 846.5 M 388.5 850.5 L 388.5 846.5 M 414.5 850.5 L 414.5 846.5 M 439.5 850.5 L 439.5 846.5 M 465.5 850.5 L 465.5 846.5 M 490.5 850.5 L 490.5 846.5 M 516.5 850.5 L 516.5 846.5 M 541.5 850.5 L 541.5 846.5 M 567.5 850.5 L 567.5 846.5 M 592.5 850.5 L 592.5 846.5 M 618.5 850.5 L 618.5 846.5 M 643.5 850.5 L 643.5 846.5 M 669.5 850.5 L 669.5 846.5 M 694.5 850.5 L 694.5 846.5 M 720.5 850.5 L 720.5 846.5 M 745.5 850.5 L 745.5 846.5 M 771.5 850.5 L 771.5 846.5" stroke-opacity="1" stroke-linejoin="bevel" stroke-miterlimit="10" stroke-dasharray=""/><text fill="rgb(68,68,68)" stroke="none" font-family="helvetica" font-size="14px" font-style="normal" font-weight="normal" text-decoration="normal" x="176.48799848556519" y="868" text-anchor="start" dominant-baseline="alphabetic" transform="matrix(1, 0, 0, 1, 0.5, 0.5)" fill-opacity="1">20</text><text fill="rgb(68,68,68)" stroke="none" font-family="helvetica" font-size="14px" font-style="normal" font-weight="normal" text-decoration="normal" x="303.9355387687683" y="868" text-anchor="start" dominant-baseline="alphabetic" transform="matrix(1, 0, 0, 1, 0.5, 0.5)" fill-opacity="1">25</text><text fill="rgb(68,68,68)" stroke="none" font-family="helvetica" font-size="14px" font-style="normal" font-weight="normal" text-decoration="normal" x="431.38310956954956" y="868" text-anchor="start" dominant-baseline="alphabetic" transform="matrix(1, 0, 0, 1, 0.5, 0.5)" fill-opacity="1">30</text><text fill="rgb(68,68,68)" stroke="none" font-family="helvetica" font-size="14px" font-style="normal" font-weight="normal" text-decoration="normal" x="558.8306803703308" y="868" text-anchor="start" dominant-baseline="alphabetic" transform="matrix(1, 0, 0, 1, 0.5, 0.5)" fill-opacity="1">35</text><text fill="rgb(68,68,68)" stroke="none" font-family="helvetica" font-size="14px" font-style="normal" font-weight="normal" text-decoration="normal" x="686.2781901359558" y="868" text-anchor="start" dominant-baseline="alphabetic" transform="matrix(1, 0, 0, 1, 0.5, 0.5)" fill-opacity="1">40</text><text fill="rgb(68,68,68)" stroke="none" font-family="helvetica" font-size="18px" font-style="italic" font-weight="normal" text-decoration="normal" x="284.8249969482422" y="893" text-anchor="start" dominant-baseline="alphabetic" transform="matrix(1, 0, 0, 1, 0.5, 0.5)" fill-opacity="1">Sum of allele lengths (repeat copies)</text><path fill="none" stroke="rgb(0,0,0)" paint-order="fill" d="M 66.5 846.5 L 66.5 5.5" stroke-opacity="1" stroke-linejoin="bevel" stroke-miterlimit="10" stroke-dasharray=""/><path fill="none" stroke="rgb(0,0,0)" paint-order="fill" d="M 60.5 785.5 L 68.5 785.5 M 60.5 654.5 L 68.5 654.5 M 60.5 523.5 L 68.5 523.5 M 60.5 392.5 L 68.5 392.5 M 60.5 261.5 L 68.5 261.5 M 60.5 130.5 L 68.5 130.5" stroke-opacity="1" stroke-linejoin="bevel" stroke-miterlimit="10" stroke-dasharray=""/><path fill="none" stroke="rgb(0,0,0)" paint-order="fill" d="M 62.5 811.5 L 66.5 811.5 M 62.5 837.5 L 66.5 837.5 M 62.5 785.5 L 66.5 785.5 M 62.5 758.5 L 66.5 758.5 M 62.5 732.5 L 66.5 732.5 M 62.5 706.5 L 66.5 706.5 M 62.5 680.5 L 66.5 680.5 M 62.5 654.5 L 66.5 654.5 M 62.5 627.5 L 66.5 627.5 M 62.5 601.5 L 66.5 601.5 M 62.5 575.5 L 66.5 575.5 M 62.5 549.5 L 66.5 549.5 M 62.5 523.5 L 66.5 523.5 M 62.5 496.5 L 66.5 496.5 M 62.5 470.5 L 66.5 470.5 M 62.5 444.5 L 66.5 444.5 M 62.5 418.5 L 66.5 418.5 M 62.5 392.5 L 66.5 392.5 M 62.5 365.5 L 66.5 365.5 M 62.5 339.5 L 66.5 339.5 M 62.5 313.5 L 66.5 313.5 M 62.5 287.5 L 66.5 287.5 M 62.5 261.5 L 66.5 261.5 M 62.5 234.5 L 66.5 234.5 M 62.5 208.5 L 66.5 208.5 M 62.5 182.5 L 66.5 182.5 M 62.5 156.5 L 66.5 156.5 M 62.5 130.5 L 66.5 130.5 M 62.5 103.5 L 66.5 103.5 M 62.5 77.5 L 66.5 77.5 M 62.5 51.5 L 66.5 51.5 M 62.5 25.5 L 66.5 25.5" stroke-opacity="1" stroke-linejoin="bevel" stroke-miterlimit="10" stroke-dasharray=""/><text fill="rgb(68,68,68)" stroke="none" font-family="helvetica" font-size="14px" font-style="normal" font-weight="normal" text-decoration="normal" x="31.649999618530273" y="790.00439453125" text-anchor="start" dominant-baseline="alphabetic" transform="matrix(1, 0, 0, 1, 0.5, 0.5)" fill-opacity="1">240</text><text fill="rgb(68,68,68)" stroke="none" font-family="helvetica" font-size="14px" font-style="normal" font-weight="normal" text-decoration="normal" x="31.649999618530273" y="659.041015625" text-anchor="start" dominant-baseline="alphabetic" transform="matrix(1, 0, 0, 1, 0.5, 0.5)" fill-opacity="1">250</text><text fill="rgb(68,68,68)" stroke="none" font-family="helvetica" font-size="14px" font-style="normal" font-weight="normal" text-decoration="normal" x="31.649999618530273" y="528.07763671875" text-anchor="start" dominant-baseline="alphabetic" transform="matrix(1, 0, 0, 1, 0.5, 0.5)" fill-opacity="1">260</text><text fill="rgb(68,68,68)" stroke="none" font-family="helvetica" font-size="14px" font-style="normal" font-weight="normal" text-decoration="normal" x="31.649999618530273" y="397.1142578125" text-anchor="start" dominant-baseline="alphabetic" transform="matrix(1, 0, 0, 1, 0.5, 0.5)" fill-opacity="1">270</text><text fill="rgb(68,68,68)" stroke="none" font-family="helvetica" font-size="14px" font-style="normal" font-weight="normal" text-decoration="normal" x="31.649999618530273" y="266.15087890625" text-anchor="start" dominant-baseline="alphabetic" transform="matrix(1, 0, 0, 1, 0.5, 0.5)" fill-opacity="1">280</text><text fill="rgb(68,68,68)" stroke="none" font-family="helvetica" font-size="14px" font-style="normal" font-weight="normal" text-decoration="normal" x="31.649999618530273" y="135.1875" text-anchor="start" dominant-baseline="alphabetic" transform="matrix(1, 0, 0, 1, 0.5, 0.5)" fill-opacity="1">290</text><text fill="rgb(68,68,68)" stroke="none" font-family="helvetica" font-size="18px" font-style="italic" font-weight="normal" text-decoration="normal" x="-110.15000343322754" y="421.5" text-anchor="start" dominant-baseline="alphabetic" transform="matrix(6.123233995736766e-17, -1, 1, 6.123233995736766e-17, -401.3500003814697, 449.6499996185303)" fill-opacity="1">Mean platelet count (10^9 cells/L)</text><path fill="rgb(255,255,255)" stroke="rgb(229,229,229)" paint-order="fill" d="M 531.4499969482422 15.5 L 785.5 15.5 L 785.5 124.5 L 531.4499969482422 124.5 L 531.4499969482422 15.5" fill-opacity="0.9490196078431372" clip-path="url(#aBJtCPRLkqbC)" stroke-opacity="0.5019607843137255" stroke-linejoin="bevel" stroke-miterlimit="10" stroke-dasharray=""/><g clip-path="url(#aBJtCPRLkqbC)"><text fill="rgb(68,68,68)" stroke="none" font-family="helvetica" font-size="10px" font-style="normal" font-weight="normal" text-decoration="normal" x="565.9499969482422" y="35" text-anchor="start" dominant-baseline="central" transform="matrix(1, 0, 0, 1, 0.5, 0.5)" fill-opacity="1">homozygous perfect mean</text></g><path fill="rgb(0,114,178)" stroke="rgb(0,0,0)" paint-order="fill" d="M 555.4499969482422 35.5 A 4 4 0 0 1 547.4499969482422 35.5 A 4 4 0 0 1 555.4499969482422 35.5" fill-opacity="1" clip-path="url(#aBJtCPRLkqbC)" stroke-opacity="1" stroke-linejoin="bevel" stroke-miterlimit="10" stroke-dasharray=""/><g clip-path="url(#aBJtCPRLkqbC)"><text fill="rgb(68,68,68)" stroke="none" font-family="helvetica" font-size="10px" font-style="normal" font-weight="normal" text-decoration="normal" x="565.9499969482422" y="58" text-anchor="start" dominant-baseline="central" transform="matrix(1, 0, 0, 1, 0.5, 0.5)" fill-opacity="1">homozygous perfect 0.95 confidence interval</text></g><path fill="rgb(0,114,178)" stroke="none" paint-order="stroke" d="M 543.4499969482422 50.5 L 559.4499969482422 50.5 L 559.4499969482422 66.5 L 543.4499969482422 66.5 L 543.4499969482422 50.5" fill-opacity="0.4" clip-path="url(#aBJtCPRLkqbC)"/><g clip-path="url(#aBJtCPRLkqbC)"><text fill="rgb(68,68,68)" stroke="none" font-family="helvetica" font-size="10px" font-style="normal" font-weight="normal" text-decoration="normal" x="565.9499969482422" y="81" text-anchor="start" dominant-baseline="central" transform="matrix(1, 0, 0, 1, 0.5, 0.5)" fill-opacity="1">homozygous imperfect mean</text></g><path fill="rgb(0,158,115)" stroke="rgb(0,0,0)" paint-order="fill" d="M 547.4499969482422 83.8094010767585 L 555.4499969482422 83.8094010767585 L 551.4499969482422 76.88119784648299 Z" fill-opacity="1" clip-path="url(#aBJtCPRLkqbC)" stroke-opacity="1" stroke-linejoin="bevel" stroke-miterlimit="10" stroke-dasharray=""/><g clip-path="url(#aBJtCPRLkqbC)"><text fill="rgb(68,68,68)" stroke="none" font-family="helvetica" font-size="10px" font-style="normal" font-weight="normal" text-decoration="normal" x="565.9499969482422" y="104" text-anchor="start" dominant-baseline="central" transform="matrix(1, 0, 0, 1, 0.5, 0.5)" fill-opacity="1">homozygous imperfect 0.95 confidence interval</text></g><path fill="rgb(0,158,115)" stroke="none" paint-order="stroke" d="M 543.4499969482422 96.5 L 559.4499969482422 96.5 L 559.4499969482422 112.5 L 543.4499969482422 112.5 L 543.4499969482422 96.5" fill-opacity="0.4" clip-path="url(#aBJtCPRLkqbC)"/></svg>