<svg version="1.1" xmlns="http://www.w3.org/2000/svg" width="600" height="600"><defs><clipPath id="cmNsnuiTTKla"><path fill="none" stroke="none" d="M 73.5 5.5 L 595.5 5.5 L 595.5 546.5 L 73.5 546.5 L 73.5 5.5"/></clipPath><clipPath id="AQbicOJcxNJG"><path fill="none" stroke="none" d="M 73.5 5.5 L 595.5 5.5 L 595.5 546.5 L 73.5 546.5 L 73.5 5.5"/></clipPath><clipPath id="kWFyfGvnfXbI"><path fill="none" stroke="none" d="M 73.5 5.5 L 595.5 5.5 L 595.5 546.5 L 73.5 546.5 L 73.5 5.5"/></clipPath><clipPath id="IrFZMmJXknhw"><path fill="none" stroke="none" d="M 73.5 5.5 L 595.5 5.5 L 595.5 546.5 L 73.5 546.5 L 73.5 5.5"/></clipPath></defs><path fill="none" stroke="rgb(229,229,229)" paint-order="fill" d="M 73.5 5.5 L 595.5 5.5 L 595.5 546.5 L 73.5 546.5 L 73.5 5.5" stroke-opacity="1" stroke-linejoin="bevel" stroke-miterlimit="10" stroke-dasharray=""/><path fill="rgb(134,204,195)" stroke="rgb(134,204,195)" paint-order="fill" d="M 97.2272720336914 30.090909957885742 L 140.36776733398438 30.090909957885742 L 140.36776733398438 521.9091186523438 L 97.2272720336914 521.9091186523438 L 97.2272720336914 30.090909957885742" fill-opacity="1" clip-path="url(#kWFyfGvnfXbI)" stroke-opacity="1" stroke-linejoin="bevel" stroke-miterlimit="10" stroke-dasharray=""/><path fill="rgb(134,204,195)" stroke="rgb(134,204,195)" paint-order="fill" d="M 140.36776733398438 347.3388671875 L 183.50827026367188 347.3388671875 L 183.50827026367188 521.9091186523438 L 140.36776733398438 521.9091186523438 L 140.36776733398438 347.3388671875" fill-opacity="1" clip-path="url(#kWFyfGvnfXbI)" stroke-opacity="1" stroke-linejoin="bevel" stroke-miterlimit="10" stroke-dasharray=""/><path fill="rgb(134,204,195)" stroke="rgb(134,204,195)" paint-order="fill" d="M 269.78924560546875 509.6629943847656 L 312.92974853515625 509.6629943847656 L 312.92974853515625 521.9091186523438 L 269.78924560546875 521.9091186523438 L 269.78924560546875 509.6629943847656" fill-opacity="1" clip-path="url(#kWFyfGvnfXbI)" stroke-opacity="1" stroke-linejoin="bevel" stroke-miterlimit="10" stroke-dasharray=""/><path fill="rgb(134,204,195)" stroke="rgb(134,204,195)" paint-order="fill" d="M 183.50827026367188 460.1758117675781 L 226.6487579345703 460.1758117675781 L 226.6487579345703 521.9091186523438 L 183.50827026367188 521.9091186523438 L 183.50827026367188 460.1758117675781" fill-opacity="1" clip-path="url(#kWFyfGvnfXbI)" stroke-opacity="1" stroke-linejoin="bevel" stroke-miterlimit="10" stroke-dasharray=""/><path fill="rgb(134,204,195)" stroke="rgb(134,204,195)" paint-order="fill" d="M 312.92974853515625 517.1492919921875 L 356.07025146484375 517.1492919921875 L 356.07025146484375 521.9091186523438 L 312.92974853515625 521.9091186523438 L 312.92974853515625 517.1492919921875" fill-opacity="1" clip-path="url(#kWFyfGvnfXbI)" stroke-opacity="1" stroke-linejoin="bevel" stroke-miterlimit="10" stroke-dasharray=""/><path fill="rgb(134,204,195)" stroke="rgb(134,204,195)" paint-order="fill" d="M 226.6487579345703 495.59564208984375 L 269.78924560546875 495.59564208984375 L 269.78924560546875 521.9091186523438 L 226.6487579345703 521.9091186523438 L 226.6487579345703 495.59564208984375" fill-opacity="1" clip-path="url(#kWFyfGvnfXbI)" stroke-opacity="1" stroke-linejoin="bevel" stroke-miterlimit="10" stroke-dasharray=""/><path fill="rgb(134,204,195)" stroke="rgb(134,204,195)" paint-order="fill" d="M 356.07025146484375 520.3676147460938 L 399.21075439453125 520.3676147460938 L 399.21075439453125 521.9091186523438 L 356.07025146484375 521.9091186523438 L 356.07025146484375 520.3676147460938" fill-opacity="1" clip-path="url(#kWFyfGvnfXbI)" stroke-opacity="1" stroke-linejoin="bevel" stroke-miterlimit="10" stroke-dasharray=""/><path fill="rgb(134,204,195)" stroke="rgb(134,204,195)" paint-order="fill" d="M 399.21075439453125 521.473876953125 L 442.3512268066406 521.473876953125 L 442.3512268066406 521.9091186523438 L 399.21075439453125 521.9091186523438 L 399.21075439453125 521.473876953125" fill-opacity="1" clip-path="url(#kWFyfGvnfXbI)" stroke-opacity="1" stroke-linejoin="bevel" stroke-miterlimit="10" stroke-dasharray=""/><path fill="rgb(134,204,195)" stroke="rgb(134,204,195)" paint-order="fill" d="M 442.3512268066406 521.8212890625 L 485.4917297363281 521.8212890625 L 485.4917297363281 521.9091186523438 L 442.3512268066406 521.9091186523438 L 442.3512268066406 521.8212890625" fill-opacity="1" clip-path="url(#kWFyfGvnfXbI)" stroke-opacity="1" stroke-linejoin="bevel" stroke-miterlimit="10" stroke-dasharray=""/><path fill="rgb(134,204,195)" stroke="rgb(134,204,195)" paint-order="fill" d="M 528.6322021484375 521.9072875976562 L 571.772705078125 521.9072875976562 L 571.772705078125 521.9091186523438 L 528.6322021484375 521.9091186523438 L 528.6322021484375 521.9072875976562" fill-opacity="1" clip-path="url(#kWFyfGvnfXbI)" stroke-opacity="1" stroke-linejoin="bevel" stroke-miterlimit="10" stroke-dasharray=""/><path fill="rgb(134,204,195)" stroke="rgb(134,204,195)" paint-order="fill" d="M 485.4917297363281 521.9036254882812 L 528.6322021484375 521.9036254882812 L 528.6322021484375 521.9091186523438 L 485.4917297363281 521.9091186523438 L 485.4917297363281 521.9036254882812" fill-opacity="1" clip-path="url(#kWFyfGvnfXbI)" stroke-opacity="1" stroke-linejoin="bevel" stroke-miterlimit="10" stroke-dasharray=""/><path fill="none" stroke="rgb(0,0,0)" paint-order="fill" d="M 73.5 546.5 L 595.5 546.5" stroke-opacity="1" stroke-linejoin="bevel" stroke-miterlimit="10" stroke-dasharray=""/><path fill="none" stroke="rgb(0,0,0)" paint-order="fill" d="M 118.5 552.5 L 118.5 544.5 M 248.5 552.5 L 248.5 544.5 M 463.5 552.5 L 463.5 544.5" stroke-opacity="1" stroke-linejoin="bevel" stroke-miterlimit="10" stroke-dasharray=""/><path fill="none" stroke="rgb(0,0,0)" paint-order="fill" d="M 161.5 550.5 L 161.5 546.5 M 205.5 550.5 L 205.5 546.5 M 291.5 550.5 L 291.5 546.5 M 334.5 550.5 L 334.5 546.5 M 377.5 550.5 L 377.5 546.5 M 420.5 550.5 L 420.5 546.5 M 507.5 550.5 L 507.5 546.5 M 550.5 550.5 L 550.5 546.5" stroke-opacity="1" stroke-linejoin="bevel" stroke-miterlimit="10" stroke-dasharray=""/><text fill="rgb(68,68,68)" stroke="none" font-family="helvetica" font-size="14px" font-style="normal" font-weight="normal" text-decoration="normal" x="114.40585684776306" y="568" text-anchor="start" dominant-baseline="alphabetic" transform="matrix(1, 0, 0, 1, 0.5, 0.5)" fill-opacity="1">2</text><text fill="rgb(68,68,68)" stroke="none" font-family="helvetica" font-size="14px" font-style="normal" font-weight="normal" text-decoration="normal" x="243.82734274864197" y="568" text-anchor="start" dominant-baseline="alphabetic" transform="matrix(1, 0, 0, 1, 0.5, 0.5)" fill-opacity="1">5</text><text fill="rgb(68,68,68)" stroke="none" font-family="helvetica" font-size="14px" font-style="normal" font-weight="normal" text-decoration="normal" x="455.6381449699402" y="568" text-anchor="start" dominant-baseline="alphabetic" transform="matrix(1, 0, 0, 1, 0.5, 0.5)" fill-opacity="1">10</text><text fill="rgb(68,68,68)" stroke="none" font-family="helvetica" font-size="18px" font-style="italic" font-weight="normal" text-decoration="normal" x="227.01667022705078" y="593" text-anchor="start" dominant-baseline="alphabetic" transform="matrix(1, 0, 0, 1, 0.5, 0.5)" fill-opacity="1">Number of common alleles</text><path fill="none" stroke="rgb(0,0,0)" paint-order="fill" d="M 73.5 546.5 L 73.5 5.5" stroke-opacity="1" stroke-linejoin="bevel" stroke-miterlimit="10" stroke-dasharray=""/><path fill="none" stroke="rgb(0,0,0)" paint-order="fill" d="M 67.5 521.5 L 75.5 521.5 M 67.5 430.5 L 75.5 430.5 M 67.5 339.5 L 75.5 339.5 M 67.5 247.5 L 75.5 247.5 M 67.5 156.5 L 75.5 156.5 M 67.5 64.5 L 75.5 64.5" stroke-opacity="1" stroke-linejoin="bevel" stroke-miterlimit="10" stroke-dasharray=""/><path fill="none" stroke="rgb(0,0,0)" paint-order="fill" d="M 69.5 540.5 L 73.5 540.5 M 69.5 521.5 L 73.5 521.5 M 69.5 503.5 L 73.5 503.5 M 69.5 485.5 L 73.5 485.5 M 69.5 467.5 L 73.5 467.5 M 69.5 448.5 L 73.5 448.5 M 69.5 430.5 L 73.5 430.5 M 69.5 412.5 L 73.5 412.5 M 69.5 393.5 L 73.5 393.5 M 69.5 375.5 L 73.5 375.5 M 69.5 357.5 L 73.5 357.5 M 69.5 339.5 L 73.5 339.5 M 69.5 320.5 L 73.5 320.5 M 69.5 302.5 L 73.5 302.5 M 69.5 284.5 L 73.5 284.5 M 69.5 265.5 L 73.5 265.5 M 69.5 247.5 L 73.5 247.5 M 69.5 229.5 L 73.5 229.5 M 69.5 211.5 L 73.5 211.5 M 69.5 192.5 L 73.5 192.5 M 69.5 174.5 L 73.5 174.5 M 69.5 156.5 L 73.5 156.5 M 69.5 137.5 L 73.5 137.5 M 69.5 119.5 L 73.5 119.5 M 69.5 101.5 L 73.5 101.5 M 69.5 83.5 L 73.5 83.5 M 69.5 64.5 L 73.5 64.5 M 69.5 46.5 L 73.5 46.5 M 69.5 28.5 L 73.5 28.5 M 69.5 9.5 L 73.5 9.5" stroke-opacity="1" stroke-linejoin="bevel" stroke-miterlimit="10" stroke-dasharray=""/><text fill="rgb(68,68,68)" stroke="none" font-family="helvetica" font-size="14px" font-style="normal" font-weight="normal" text-decoration="normal" x="47.21666622161865" y="526.9091186523438" text-anchor="start" dominant-baseline="alphabetic" transform="matrix(1, 0, 0, 1, 0.5, 0.5)" fill-opacity="1">0k</text><text fill="rgb(68,68,68)" stroke="none" font-family="helvetica" font-size="14px" font-style="normal" font-weight="normal" text-decoration="normal" x="39.433332443237305" y="435.4794616699219" text-anchor="start" dominant-baseline="alphabetic" transform="matrix(1, 0, 0, 1, 0.5, 0.5)" fill-opacity="1">50k</text><text fill="rgb(68,68,68)" stroke="none" font-family="helvetica" font-size="14px" font-style="normal" font-weight="normal" text-decoration="normal" x="31.649999618530273" y="344.04986572265625" text-anchor="start" dominant-baseline="alphabetic" transform="matrix(1, 0, 0, 1, 0.5, 0.5)" fill-opacity="1">100k</text><text fill="rgb(68,68,68)" stroke="none" font-family="helvetica" font-size="14px" font-style="normal" font-weight="normal" text-decoration="normal" x="31.649999618530273" y="252.62025451660156" text-anchor="start" dominant-baseline="alphabetic" transform="matrix(1, 0, 0, 1, 0.5, 0.5)" fill-opacity="1">150k</text><text fill="rgb(68,68,68)" stroke="none" font-family="helvetica" font-size="14px" font-style="normal" font-weight="normal" text-decoration="normal" x="31.649999618530273" y="161.1906280517578" text-anchor="start" dominant-baseline="alphabetic" transform="matrix(1, 0, 0, 1, 0.5, 0.5)" fill-opacity="1">200k</text><text fill="rgb(68,68,68)" stroke="none" font-family="helvetica" font-size="14px" font-style="normal" font-weight="normal" text-decoration="normal" x="31.649999618530273" y="69.76101684570312" text-anchor="start" dominant-baseline="alphabetic" transform="matrix(1, 0, 0, 1, 0.5, 0.5)" fill-opacity="1">250k</text><text fill="rgb(68,68,68)" stroke="none" font-family="helvetica" font-size="18px" font-style="italic" font-weight="normal" text-decoration="normal" x="-54.25833320617676" y="271.5" text-anchor="start" dominant-baseline="alphabetic" transform="matrix(6.123233995736766e-17, -1, 1, 6.123233995736766e-17, -251.35000038146973, 299.6499996185303)" fill-opacity="1">Number of STR loci</text></svg>