<svg version="1.1" xmlns="http://www.w3.org/2000/svg" width="600" height="600"><defs><clipPath id="eLSnMLqQHZHU"><path fill="none" stroke="none" d="M 73.5 5.5 L 595.5 5.5 L 595.5 546.5 L 73.5 546.5 L 73.5 5.5"/></clipPath><clipPath id="HvHDOCknoLXy"><path fill="none" stroke="none" d="M 73.5 5.5 L 595.5 5.5 L 595.5 546.5 L 73.5 546.5 L 73.5 5.5"/></clipPath><clipPath id="pfQrHkIoKgHH"><path fill="none" stroke="none" d="M 73.5 5.5 L 595.5 5.5 L 595.5 546.5 L 73.5 546.5 L 73.5 5.5"/></clipPath><clipPath id="xcmgVtVIFRDT"><path fill="none" stroke="none" d="M 73.5 5.5 L 595.5 5.5 L 595.5 546.5 L 73.5 546.5 L 73.5 5.5"/></clipPath></defs><path fill="none" stroke="rgb(229,229,229)" paint-order="fill" d="M 73.5 5.5 L 595.5 5.5 L 595.5 546.5 L 73.5 546.5 L 73.5 5.5" stroke-opacity="1" stroke-linejoin="bevel" stroke-miterlimit="10" stroke-dasharray=""/><path fill="rgb(134,204,195)" stroke="rgb(134,204,195)" paint-order="fill" d="M 111.18449401855469 99.18653106689453 L 125.14170837402344 99.18653106689453 L 125.14170837402344 521.9091186523438 L 111.18449401855469 521.9091186523438 L 111.18449401855469 99.18653106689453" fill-opacity="1" clip-path="url(#pfQrHkIoKgHH)" stroke-opacity="1" stroke-linejoin="bevel" stroke-miterlimit="10" stroke-dasharray=""/><path fill="rgb(134,204,195)" stroke="rgb(134,204,195)" paint-order="fill" d="M 97.2272720336914 30.090909957885742 L 111.18449401855469 30.090909957885742 L 111.18449401855469 521.9091186523438 L 97.2272720336914 521.9091186523438 L 97.2272720336914 30.090909957885742" fill-opacity="1" clip-path="url(#pfQrHkIoKgHH)" stroke-opacity="1" stroke-linejoin="bevel" stroke-miterlimit="10" stroke-dasharray=""/><path fill="rgb(134,204,195)" stroke="rgb(134,204,195)" paint-order="fill" d="M 125.14170837402344 309.0158386230469 L 139.09893798828125 309.0158386230469 L 139.09893798828125 521.9091186523438 L 125.14170837402344 521.9091186523438 L 125.14170837402344 309.0158386230469" fill-opacity="1" clip-path="url(#pfQrHkIoKgHH)" stroke-opacity="1" stroke-linejoin="bevel" stroke-miterlimit="10" stroke-dasharray=""/><path fill="rgb(134,204,195)" stroke="rgb(134,204,195)" paint-order="fill" d="M 139.09893798828125 417.9266662597656 L 153.05615234375 417.9266662597656 L 153.05615234375 521.9091186523438 L 139.09893798828125 521.9091186523438 L 139.09893798828125 417.9266662597656" fill-opacity="1" clip-path="url(#pfQrHkIoKgHH)" stroke-opacity="1" stroke-linejoin="bevel" stroke-miterlimit="10" stroke-dasharray=""/><path fill="rgb(134,204,195)" stroke="rgb(134,204,195)" paint-order="fill" d="M 194.9278106689453 498.66534423828125 L 208.88502502441406 498.66534423828125 L 208.88502502441406 521.9091186523438 L 194.9278106689453 521.9091186523438 L 194.9278106689453 498.66534423828125" fill-opacity="1" clip-path="url(#pfQrHkIoKgHH)" stroke-opacity="1" stroke-linejoin="bevel" stroke-miterlimit="10" stroke-dasharray=""/><path fill="rgb(134,204,195)" stroke="rgb(134,204,195)" paint-order="fill" d="M 222.8422393798828 507.3128967285156 L 236.79946899414062 507.3128967285156 L 236.79946899414062 521.9091186523438 L 222.8422393798828 521.9091186523438 L 222.8422393798828 507.3128967285156" fill-opacity="1" clip-path="url(#pfQrHkIoKgHH)" stroke-opacity="1" stroke-linejoin="bevel" stroke-miterlimit="10" stroke-dasharray=""/><path fill="rgb(134,204,195)" stroke="rgb(134,204,195)" paint-order="fill" d="M 167.01336669921875 481.6961975097656 L 180.9705810546875 481.6961975097656 L 180.9705810546875 521.9091186523438 L 167.01336669921875 521.9091186523438 L 167.01336669921875 481.6961975097656" fill-opacity="1" clip-path="url(#pfQrHkIoKgHH)" stroke-opacity="1" stroke-linejoin="bevel" stroke-miterlimit="10" stroke-dasharray=""/><path fill="rgb(134,204,195)" stroke="rgb(134,204,195)" paint-order="fill" d="M 278.6711120605469 518.2095336914062 L 292.62835693359375 518.2095336914062 L 292.62835693359375 521.9091186523438 L 278.6711120605469 521.9091186523438 L 278.6711120605469 518.2095336914062" fill-opacity="1" clip-path="url(#pfQrHkIoKgHH)" stroke-opacity="1" stroke-linejoin="bevel" stroke-miterlimit="10" stroke-dasharray=""/><path fill="rgb(134,204,195)" stroke="rgb(134,204,195)" paint-order="fill" d="M 153.05615234375 460.9851379394531 L 167.01336669921875 460.9851379394531 L 167.01336669921875 521.9091186523438 L 153.05615234375 521.9091186523438 L 153.05615234375 460.9851379394531" fill-opacity="1" clip-path="url(#pfQrHkIoKgHH)" stroke-opacity="1" stroke-linejoin="bevel" stroke-miterlimit="10" stroke-dasharray=""/><path fill="rgb(134,204,195)" stroke="rgb(134,204,195)" paint-order="fill" d="M 236.79946899414062 511.2895202636719 L 250.75668334960938 511.2895202636719 L 250.75668334960938 521.9091186523438 L 236.79946899414062 521.9091186523438 L 236.79946899414062 511.2895202636719" fill-opacity="1" clip-path="url(#pfQrHkIoKgHH)" stroke-opacity="1" stroke-linejoin="bevel" stroke-miterlimit="10" stroke-dasharray=""/><path fill="rgb(134,204,195)" stroke="rgb(134,204,195)" paint-order="fill" d="M 306.5855712890625 520.4129638671875 L 320.54278564453125 520.4129638671875 L 320.54278564453125 521.9091186523438 L 306.5855712890625 521.9091186523438 L 306.5855712890625 520.4129638671875" fill-opacity="1" clip-path="url(#pfQrHkIoKgHH)" stroke-opacity="1" stroke-linejoin="bevel" stroke-miterlimit="10" stroke-dasharray=""/><path fill="rgb(134,204,195)" stroke="rgb(134,204,195)" paint-order="fill" d="M 180.9705810546875 491.9637451171875 L 194.9278106689453 491.9637451171875 L 194.9278106689453 521.9091186523438 L 180.9705810546875 521.9091186523438 L 180.9705810546875 491.9637451171875" fill-opacity="1" clip-path="url(#pfQrHkIoKgHH)" stroke-opacity="1" stroke-linejoin="bevel" stroke-miterlimit="10" stroke-dasharray=""/><path fill="rgb(134,204,195)" stroke="rgb(134,204,195)" paint-order="fill" d="M 292.62835693359375 519.4188232421875 L 306.5855712890625 519.4188232421875 L 306.5855712890625 521.9091186523438 L 292.62835693359375 521.9091186523438 L 292.62835693359375 519.4188232421875" fill-opacity="1" clip-path="url(#pfQrHkIoKgHH)" stroke-opacity="1" stroke-linejoin="bevel" stroke-miterlimit="10" stroke-dasharray=""/><path fill="rgb(134,204,195)" stroke="rgb(134,204,195)" paint-order="fill" d="M 208.88502502441406 503.1341552734375 L 222.8422393798828 503.1341552734375 L 222.8422393798828 521.9091186523438 L 208.88502502441406 521.9091186523438 L 208.88502502441406 503.1341552734375" fill-opacity="1" clip-path="url(#pfQrHkIoKgHH)" stroke-opacity="1" stroke-linejoin="bevel" stroke-miterlimit="10" stroke-dasharray=""/><path fill="rgb(134,204,195)" stroke="rgb(134,204,195)" paint-order="fill" d="M 250.75668334960938 514.1090087890625 L 264.7138977050781 514.1090087890625 L 264.7138977050781 521.9091186523438 L 250.75668334960938 521.9091186523438 L 250.75668334960938 514.1090087890625" fill-opacity="1" clip-path="url(#pfQrHkIoKgHH)" stroke-opacity="1" stroke-linejoin="bevel" stroke-miterlimit="10" stroke-dasharray=""/><path fill="rgb(134,204,195)" stroke="rgb(134,204,195)" paint-order="fill" d="M 264.7138977050781 516.4819946289062 L 278.6711120605469 516.4819946289062 L 278.6711120605469 521.9091186523438 L 264.7138977050781 521.9091186523438 L 264.7138977050781 516.4819946289062" fill-opacity="1" clip-path="url(#pfQrHkIoKgHH)" stroke-opacity="1" stroke-linejoin="bevel" stroke-miterlimit="10" stroke-dasharray=""/><path fill="rgb(134,204,195)" stroke="rgb(134,204,195)" paint-order="fill" d="M 348.45721435546875 521.6320190429688 L 362.4144287109375 521.6320190429688 L 362.4144287109375 521.9091186523438 L 348.45721435546875 521.9091186523438 L 348.45721435546875 521.6320190429688" fill-opacity="1" clip-path="url(#pfQrHkIoKgHH)" stroke-opacity="1" stroke-linejoin="bevel" stroke-miterlimit="10" stroke-dasharray=""/><path fill="rgb(134,204,195)" stroke="rgb(134,204,195)" paint-order="fill" d="M 362.4144287109375 521.7396240234375 L 376.37164306640625 521.7396240234375 L 376.37164306640625 521.9091186523438 L 362.4144287109375 521.9091186523438 L 362.4144287109375 521.7396240234375" fill-opacity="1" clip-path="url(#pfQrHkIoKgHH)" stroke-opacity="1" stroke-linejoin="bevel" stroke-miterlimit="10" stroke-dasharray=""/><path fill="rgb(134,204,195)" stroke="rgb(134,204,195)" paint-order="fill" d="M 334.5 521.3582153320312 L 348.45721435546875 521.3582153320312 L 348.45721435546875 521.9091186523438 L 334.5 521.9091186523438 L 334.5 521.3582153320312" fill-opacity="1" clip-path="url(#pfQrHkIoKgHH)" stroke-opacity="1" stroke-linejoin="bevel" stroke-miterlimit="10" stroke-dasharray=""/><path fill="rgb(134,204,195)" stroke="rgb(134,204,195)" paint-order="fill" d="M 376.37164306640625 521.801513671875 L 390.3288879394531 521.801513671875 L 390.3288879394531 521.9091186523438 L 376.37164306640625 521.9091186523438 L 376.37164306640625 521.801513671875" fill-opacity="1" clip-path="url(#pfQrHkIoKgHH)" stroke-opacity="1" stroke-linejoin="bevel" stroke-miterlimit="10" stroke-dasharray=""/><path fill="rgb(134,204,195)" stroke="rgb(134,204,195)" paint-order="fill" d="M 320.54278564453125 520.9409790039062 L 334.5 520.9409790039062 L 334.5 521.9091186523438 L 320.54278564453125 521.9091186523438 L 320.54278564453125 520.9409790039062" fill-opacity="1" clip-path="url(#pfQrHkIoKgHH)" stroke-opacity="1" stroke-linejoin="bevel" stroke-miterlimit="10" stroke-dasharray=""/><path fill="rgb(134,204,195)" stroke="rgb(134,204,195)" paint-order="fill" d="M 418.2433166503906 521.8895263671875 L 432.2005310058594 521.8895263671875 L 432.2005310058594 521.9091186523438 L 418.2433166503906 521.9091186523438 L 418.2433166503906 521.8895263671875" fill-opacity="1" clip-path="url(#pfQrHkIoKgHH)" stroke-opacity="1" stroke-linejoin="bevel" stroke-miterlimit="10" stroke-dasharray=""/><path fill="rgb(134,204,195)" stroke="rgb(134,204,195)" paint-order="fill" d="M 390.3288879394531 521.86669921875 L 404.2861022949219 521.86669921875 L 404.2861022949219 521.9091186523438 L 390.3288879394531 521.9091186523438 L 390.3288879394531 521.86669921875" fill-opacity="1" clip-path="url(#pfQrHkIoKgHH)" stroke-opacity="1" stroke-linejoin="bevel" stroke-miterlimit="10" stroke-dasharray=""/><path fill="rgb(134,204,195)" stroke="rgb(134,204,195)" paint-order="fill" d="M 446.1577453613281 521.902587890625 L 460.1149597167969 521.902587890625 L 460.1149597167969 521.9091186523438 L 446.1577453613281 521.9091186523438 L 446.1577453613281 521.902587890625" fill-opacity="1" clip-path="url(#pfQrHkIoKgHH)" stroke-opacity="1" stroke-linejoin="bevel" stroke-miterlimit="10" stroke-dasharray=""/><path fill="rgb(134,204,195)" stroke="rgb(134,204,195)" paint-order="fill" d="M 404.2861022949219 521.8829956054688 L 418.2433166503906 521.8829956054688 L 418.2433166503906 521.9091186523438 L 404.2861022949219 521.9091186523438 L 404.2861022949219 521.8829956054688" fill-opacity="1" clip-path="url(#pfQrHkIoKgHH)" stroke-opacity="1" stroke-linejoin="bevel" stroke-miterlimit="10" stroke-dasharray=""/><path fill="rgb(134,204,195)" stroke="rgb(134,204,195)" paint-order="fill" d="M 501.98663330078125 521.9058227539062 L 515.94384765625 521.9058227539062 L 515.94384765625 521.9091186523438 L 501.98663330078125 521.9091186523438 L 501.98663330078125 521.9058227539062" fill-opacity="1" clip-path="url(#pfQrHkIoKgHH)" stroke-opacity="1" stroke-linejoin="bevel" stroke-miterlimit="10" stroke-dasharray=""/><path fill="rgb(134,204,195)" stroke="rgb(134,204,195)" paint-order="fill" d="M 432.2005310058594 521.902587890625 L 446.1577453613281 521.902587890625 L 446.1577453613281 521.9091186523438 L 432.2005310058594 521.9091186523438 L 432.2005310058594 521.902587890625" fill-opacity="1" clip-path="url(#pfQrHkIoKgHH)" stroke-opacity="1" stroke-linejoin="bevel" stroke-miterlimit="10" stroke-dasharray=""/><path fill="rgb(134,204,195)" stroke="rgb(134,204,195)" paint-order="fill" d="M 557.8154907226562 521.9058227539062 L 571.772705078125 521.9058227539062 L 571.772705078125 521.9091186523438 L 557.8154907226562 521.9091186523438 L 557.8154907226562 521.9058227539062" fill-opacity="1" clip-path="url(#pfQrHkIoKgHH)" stroke-opacity="1" stroke-linejoin="bevel" stroke-miterlimit="10" stroke-dasharray=""/><path fill="rgb(134,204,195)" stroke="rgb(134,204,195)" paint-order="fill" d="M 488.0294189453125 521.902587890625 L 501.98663330078125 521.902587890625 L 501.98663330078125 521.9091186523438 L 488.0294189453125 521.9091186523438 L 488.0294189453125 521.902587890625" fill-opacity="1" clip-path="url(#pfQrHkIoKgHH)" stroke-opacity="1" stroke-linejoin="bevel" stroke-miterlimit="10" stroke-dasharray=""/><path fill="none" stroke="rgb(0,0,0)" paint-order="fill" d="M 73.5 546.5 L 595.5 546.5" stroke-opacity="1" stroke-linejoin="bevel" stroke-miterlimit="10" stroke-dasharray=""/><path fill="none" stroke="rgb(0,0,0)" paint-order="fill" d="M 104.5 552.5 L 104.5 544.5 M 146.5 552.5 L 146.5 544.5 M 215.5 552.5 L 215.5 544.5 M 285.5 552.5 L 285.5 544.5 M 355.5 552.5 L 355.5 544.5 M 425.5 552.5 L 425.5 544.5 M 495.5 552.5 L 495.5 544.5 M 564.5 552.5 L 564.5 544.5" stroke-opacity="1" stroke-linejoin="bevel" stroke-miterlimit="10" stroke-dasharray=""/><path fill="none" stroke="rgb(0,0,0)" paint-order="fill" d="M 118.5 550.5 L 118.5 546.5 M 132.5 550.5 L 132.5 546.5 M 160.5 550.5 L 160.5 546.5 M 173.5 550.5 L 173.5 546.5 M 187.5 550.5 L 187.5 546.5 M 201.5 550.5 L 201.5 546.5 M 229.5 550.5 L 229.5 546.5 M 243.5 550.5 L 243.5 546.5 M 257.5 550.5 L 257.5 546.5 M 271.5 550.5 L 271.5 546.5 M 299.5 550.5 L 299.5 546.5 M 313.5 550.5 L 313.5 546.5 M 327.5 550.5 L 327.5 546.5 M 341.5 550.5 L 341.5 546.5 M 369.5 550.5 L 369.5 546.5 M 383.5 550.5 L 383.5 546.5 M 397.5 550.5 L 397.5 546.5 M 411.5 550.5 L 411.5 546.5 M 439.5 550.5 L 439.5 546.5 M 453.5 550.5 L 453.5 546.5 M 467.5 550.5 L 467.5 546.5 M 481.5 550.5 L 481.5 546.5 M 508.5 550.5 L 508.5 546.5 M 522.5 550.5 L 522.5 546.5 M 536.5 550.5 L 536.5 546.5 M 550.5 550.5 L 550.5 546.5" stroke-opacity="1" stroke-linejoin="bevel" stroke-miterlimit="10" stroke-dasharray=""/><text fill="rgb(68,68,68)" stroke="none" font-family="helvetica" font-size="14px" font-style="normal" font-weight="normal" text-decoration="normal" x="99.81421256065369" y="568" text-anchor="start" dominant-baseline="alphabetic" transform="matrix(1, 0, 0, 1, 0.5, 0.5)" fill-opacity="1">2</text><text fill="rgb(68,68,68)" stroke="none" font-family="helvetica" font-size="14px" font-style="normal" font-weight="normal" text-decoration="normal" x="141.68587851524353" y="568" text-anchor="start" dominant-baseline="alphabetic" transform="matrix(1, 0, 0, 1, 0.5, 0.5)" fill-opacity="1">5</text><text fill="rgb(68,68,68)" stroke="none" font-family="helvetica" font-size="14px" font-style="normal" font-weight="normal" text-decoration="normal" x="207.58029890060425" y="568" text-anchor="start" dominant-baseline="alphabetic" transform="matrix(1, 0, 0, 1, 0.5, 0.5)" fill-opacity="1">10</text><text fill="rgb(68,68,68)" stroke="none" font-family="helvetica" font-size="14px" font-style="normal" font-weight="normal" text-decoration="normal" x="277.36638593673706" y="568" text-anchor="start" dominant-baseline="alphabetic" transform="matrix(1, 0, 0, 1, 0.5, 0.5)" fill-opacity="1">15</text><text fill="rgb(68,68,68)" stroke="none" font-family="helvetica" font-size="14px" font-style="normal" font-weight="normal" text-decoration="normal" x="347.15248823165894" y="568" text-anchor="start" dominant-baseline="alphabetic" transform="matrix(1, 0, 0, 1, 0.5, 0.5)" fill-opacity="1">20</text><text fill="rgb(68,68,68)" stroke="none" font-family="helvetica" font-size="14px" font-style="normal" font-weight="normal" text-decoration="normal" x="416.9385905265808" y="568" text-anchor="start" dominant-baseline="alphabetic" transform="matrix(1, 0, 0, 1, 0.5, 0.5)" fill-opacity="1">25</text><text fill="rgb(68,68,68)" stroke="none" font-family="helvetica" font-size="14px" font-style="normal" font-weight="normal" text-decoration="normal" x="486.7246928215027" y="568" text-anchor="start" dominant-baseline="alphabetic" transform="matrix(1, 0, 0, 1, 0.5, 0.5)" fill-opacity="1">30</text><text fill="rgb(68,68,68)" stroke="none" font-family="helvetica" font-size="14px" font-style="normal" font-weight="normal" text-decoration="normal" x="556.5107951164246" y="568" text-anchor="start" dominant-baseline="alphabetic" transform="matrix(1, 0, 0, 1, 0.5, 0.5)" fill-opacity="1">35</text><text fill="rgb(68,68,68)" stroke="none" font-family="helvetica" font-size="18px" font-style="italic" font-weight="normal" text-decoration="normal" x="227.01667022705078" y="593" text-anchor="start" dominant-baseline="alphabetic" transform="matrix(1, 0, 0, 1, 0.5, 0.5)" fill-opacity="1">Number of common alleles</text><path fill="none" stroke="rgb(0,0,0)" paint-order="fill" d="M 73.5 546.5 L 73.5 5.5" stroke-opacity="1" stroke-linejoin="bevel" stroke-miterlimit="10" stroke-dasharray=""/><path fill="none" stroke="rgb(0,0,0)" paint-order="fill" d="M 67.5 521.5 L 75.5 521.5 M 67.5 456.5 L 75.5 456.5 M 67.5 391.5 L 75.5 391.5 M 67.5 326.5 L 75.5 326.5 M 67.5 261.5 L 75.5 261.5 M 67.5 195.5 L 75.5 195.5 M 67.5 130.5 L 75.5 130.5 M 67.5 65.5 L 75.5 65.5" stroke-opacity="1" stroke-linejoin="bevel" stroke-miterlimit="10" stroke-dasharray=""/><path fill="none" stroke="rgb(0,0,0)" paint-order="fill" d="M 69.5 534.5 L 73.5 534.5 M 69.5 521.5 L 73.5 521.5 M 69.5 508.5 L 73.5 508.5 M 69.5 495.5 L 73.5 495.5 M 69.5 482.5 L 73.5 482.5 M 69.5 469.5 L 73.5 469.5 M 69.5 456.5 L 73.5 456.5 M 69.5 443.5 L 73.5 443.5 M 69.5 430.5 L 73.5 430.5 M 69.5 417.5 L 73.5 417.5 M 69.5 404.5 L 73.5 404.5 M 69.5 391.5 L 73.5 391.5 M 69.5 378.5 L 73.5 378.5 M 69.5 365.5 L 73.5 365.5 M 69.5 352.5 L 73.5 352.5 M 69.5 339.5 L 73.5 339.5 M 69.5 326.5 L 73.5 326.5 M 69.5 313.5 L 73.5 313.5 M 69.5 300.5 L 73.5 300.5 M 69.5 287.5 L 73.5 287.5 M 69.5 274.5 L 73.5 274.5 M 69.5 261.5 L 73.5 261.5 M 69.5 248.5 L 73.5 248.5 M 69.5 235.5 L 73.5 235.5 M 69.5 222.5 L 73.5 222.5 M 69.5 208.5 L 73.5 208.5 M 69.5 195.5 L 73.5 195.5 M 69.5 182.5 L 73.5 182.5 M 69.5 169.5 L 73.5 169.5 M 69.5 156.5 L 73.5 156.5 M 69.5 143.5 L 73.5 143.5 M 69.5 130.5 L 73.5 130.5 M 69.5 117.5 L 73.5 117.5 M 69.5 104.5 L 73.5 104.5 M 69.5 91.5 L 73.5 91.5 M 69.5 78.5 L 73.5 78.5 M 69.5 65.5 L 73.5 65.5 M 69.5 52.5 L 73.5 52.5 M 69.5 39.5 L 73.5 39.5 M 69.5 26.5 L 73.5 26.5 M 69.5 13.5 L 73.5 13.5" stroke-opacity="1" stroke-linejoin="bevel" stroke-miterlimit="10" stroke-dasharray=""/><text fill="rgb(68,68,68)" stroke="none" font-family="helvetica" font-size="14px" font-style="normal" font-weight="normal" text-decoration="normal" x="47.21666622161865" y="526.9091186523438" text-anchor="start" dominant-baseline="alphabetic" transform="matrix(1, 0, 0, 1, 0.5, 0.5)" fill-opacity="1">0k</text><text fill="rgb(68,68,68)" stroke="none" font-family="helvetica" font-size="14px" font-style="normal" font-weight="normal" text-decoration="normal" x="39.433332443237305" y="461.7183837890625" text-anchor="start" dominant-baseline="alphabetic" transform="matrix(1, 0, 0, 1, 0.5, 0.5)" fill-opacity="1">20k</text><text fill="rgb(68,68,68)" stroke="none" font-family="helvetica" font-size="14px" font-style="normal" font-weight="normal" text-decoration="normal" x="39.433332443237305" y="396.5277099609375" text-anchor="start" dominant-baseline="alphabetic" transform="matrix(1, 0, 0, 1, 0.5, 0.5)" fill-opacity="1">40k</text><text fill="rgb(68,68,68)" stroke="none" font-family="helvetica" font-size="14px" font-style="normal" font-weight="normal" text-decoration="normal" x="39.433332443237305" y="331.3370056152344" text-anchor="start" dominant-baseline="alphabetic" transform="matrix(1, 0, 0, 1, 0.5, 0.5)" fill-opacity="1">60k</text><text fill="rgb(68,68,68)" stroke="none" font-family="helvetica" font-size="14px" font-style="normal" font-weight="normal" text-decoration="normal" x="39.433332443237305" y="266.14630126953125" text-anchor="start" dominant-baseline="alphabetic" transform="matrix(1, 0, 0, 1, 0.5, 0.5)" fill-opacity="1">80k</text><text fill="rgb(68,68,68)" stroke="none" font-family="helvetica" font-size="14px" font-style="normal" font-weight="normal" text-decoration="normal" x="31.649999618530273" y="200.95559692382812" text-anchor="start" dominant-baseline="alphabetic" transform="matrix(1, 0, 0, 1, 0.5, 0.5)" fill-opacity="1">100k</text><text fill="rgb(68,68,68)" stroke="none" font-family="helvetica" font-size="14px" font-style="normal" font-weight="normal" text-decoration="normal" x="31.649999618530273" y="135.76490783691406" text-anchor="start" dominant-baseline="alphabetic" transform="matrix(1, 0, 0, 1, 0.5, 0.5)" fill-opacity="1">120k</text><text fill="rgb(68,68,68)" stroke="none" font-family="helvetica" font-size="14px" font-style="normal" font-weight="normal" text-decoration="normal" x="31.649999618530273" y="70.57420349121094" text-anchor="start" dominant-baseline="alphabetic" transform="matrix(1, 0, 0, 1, 0.5, 0.5)" fill-opacity="1">140k</text><text fill="rgb(68,68,68)" stroke="none" font-family="helvetica" font-size="18px" font-style="italic" font-weight="normal" text-decoration="normal" x="-54.25833320617676" y="271.5" text-anchor="start" dominant-baseline="alphabetic" transform="matrix(6.123233995736766e-17, -1, 1, 6.123233995736766e-17, -251.35000038146973, 299.6499996185303)" fill-opacity="1">Number of STR loci</text></svg>