<svg version="1.1" xmlns="http://www.w3.org/2000/svg" width="600" height="600"><defs><clipPath id="UBvazyoJAIDb"><path fill="none" stroke="none" d="M 73.5 5.5 L 595.5 5.5 L 595.5 546.5 L 73.5 546.5 L 73.5 5.5"/></clipPath><clipPath id="ULfFnyKRftqf"><path fill="none" stroke="none" d="M 73.5 5.5 L 595.5 5.5 L 595.5 546.5 L 73.5 546.5 L 73.5 5.5"/></clipPath><clipPath id="zFdSRDmbPUTD"><path fill="none" stroke="none" d="M 73.5 5.5 L 595.5 5.5 L 595.5 546.5 L 73.5 546.5 L 73.5 5.5"/></clipPath><clipPath id="dExZaanraEiF"><path fill="none" stroke="none" d="M 73.5 5.5 L 595.5 5.5 L 595.5 546.5 L 73.5 546.5 L 73.5 5.5"/></clipPath></defs><path fill="none" stroke="rgb(229,229,229)" paint-order="fill" d="M 73.5 5.5 L 595.5 5.5 L 595.5 546.5 L 73.5 546.5 L 73.5 5.5" stroke-opacity="1" stroke-linejoin="bevel" stroke-miterlimit="10" stroke-dasharray=""/><path fill="rgb(134,204,195)" stroke="rgb(134,204,195)" paint-order="fill" d="M 109.7153091430664 30.090909957885742 L 122.2033462524414 30.090909957885742 L 122.2033462524414 521.9091186523438 L 109.7153091430664 521.9091186523438 L 109.7153091430664 30.090909957885742" fill-opacity="1" clip-path="url(#zFdSRDmbPUTD)" stroke-opacity="1" stroke-linejoin="bevel" stroke-miterlimit="10" stroke-dasharray=""/><path fill="rgb(134,204,195)" stroke="rgb(134,204,195)" paint-order="fill" d="M 97.2272720336914 133.00823974609375 L 109.7153091430664 133.00823974609375 L 109.7153091430664 521.9091186523438 L 97.2272720336914 521.9091186523438 L 97.2272720336914 133.00823974609375" fill-opacity="1" clip-path="url(#zFdSRDmbPUTD)" stroke-opacity="1" stroke-linejoin="bevel" stroke-miterlimit="10" stroke-dasharray=""/><path fill="rgb(134,204,195)" stroke="rgb(134,204,195)" paint-order="fill" d="M 122.2033462524414 210.5125274658203 L 134.69139099121094 210.5125274658203 L 134.69139099121094 521.9091186523438 L 122.2033462524414 521.9091186523438 L 122.2033462524414 210.5125274658203" fill-opacity="1" clip-path="url(#zFdSRDmbPUTD)" stroke-opacity="1" stroke-linejoin="bevel" stroke-miterlimit="10" stroke-dasharray=""/><path fill="rgb(134,204,195)" stroke="rgb(134,204,195)" paint-order="fill" d="M 147.17942810058594 430.2826232910156 L 159.66746520996094 430.2826232910156 L 159.66746520996094 521.9091186523438 L 147.17942810058594 521.9091186523438 L 147.17942810058594 430.2826232910156" fill-opacity="1" clip-path="url(#zFdSRDmbPUTD)" stroke-opacity="1" stroke-linejoin="bevel" stroke-miterlimit="10" stroke-dasharray=""/><path fill="rgb(134,204,195)" stroke="rgb(134,204,195)" paint-order="fill" d="M 134.69139099121094 361.146484375 L 147.17942810058594 361.146484375 L 147.17942810058594 521.9091186523438 L 134.69139099121094 521.9091186523438 L 134.69139099121094 361.146484375" fill-opacity="1" clip-path="url(#zFdSRDmbPUTD)" stroke-opacity="1" stroke-linejoin="bevel" stroke-miterlimit="10" stroke-dasharray=""/><path fill="rgb(134,204,195)" stroke="rgb(134,204,195)" paint-order="fill" d="M 209.61961364746094 499.5674133300781 L 222.10765075683594 499.5674133300781 L 222.10765075683594 521.9091186523438 L 209.61961364746094 521.9091186523438 L 209.61961364746094 499.5674133300781" fill-opacity="1" clip-path="url(#zFdSRDmbPUTD)" stroke-opacity="1" stroke-linejoin="bevel" stroke-miterlimit="10" stroke-dasharray=""/><path fill="rgb(134,204,195)" stroke="rgb(134,204,195)" paint-order="fill" d="M 222.10765075683594 503.3932800292969 L 234.59568786621094 503.3932800292969 L 234.59568786621094 521.9091186523438 L 222.10765075683594 521.9091186523438 L 222.10765075683594 503.3932800292969" fill-opacity="1" clip-path="url(#zFdSRDmbPUTD)" stroke-opacity="1" stroke-linejoin="bevel" stroke-miterlimit="10" stroke-dasharray=""/><path fill="rgb(134,204,195)" stroke="rgb(134,204,195)" paint-order="fill" d="M 184.64353942871094 489.5759582519531 L 197.13157653808594 489.5759582519531 L 197.13157653808594 521.9091186523438 L 184.64353942871094 521.9091186523438 L 184.64353942871094 489.5759582519531" fill-opacity="1" clip-path="url(#zFdSRDmbPUTD)" stroke-opacity="1" stroke-linejoin="bevel" stroke-miterlimit="10" stroke-dasharray=""/><path fill="rgb(134,204,195)" stroke="rgb(134,204,195)" paint-order="fill" d="M 159.66746520996094 461.7660217285156 L 172.15550231933594 461.7660217285156 L 172.15550231933594 521.9091186523438 L 159.66746520996094 521.9091186523438 L 159.66746520996094 461.7660217285156" fill-opacity="1" clip-path="url(#zFdSRDmbPUTD)" stroke-opacity="1" stroke-linejoin="bevel" stroke-miterlimit="10" stroke-dasharray=""/><path fill="rgb(134,204,195)" stroke="rgb(134,204,195)" paint-order="fill" d="M 259.57177734375 513.742919921875 L 272.059814453125 513.742919921875 L 272.059814453125 521.9091186523438 L 259.57177734375 521.9091186523438 L 259.57177734375 513.742919921875" fill-opacity="1" clip-path="url(#zFdSRDmbPUTD)" stroke-opacity="1" stroke-linejoin="bevel" stroke-miterlimit="10" stroke-dasharray=""/><path fill="rgb(134,204,195)" stroke="rgb(134,204,195)" paint-order="fill" d="M 272.059814453125 515.8120727539062 L 284.5478515625 515.8120727539062 L 284.5478515625 521.9091186523438 L 272.059814453125 521.9091186523438 L 272.059814453125 515.8120727539062" fill-opacity="1" clip-path="url(#zFdSRDmbPUTD)" stroke-opacity="1" stroke-linejoin="bevel" stroke-miterlimit="10" stroke-dasharray=""/><path fill="rgb(134,204,195)" stroke="rgb(134,204,195)" paint-order="fill" d="M 172.15550231933594 479.439697265625 L 184.64353942871094 479.439697265625 L 184.64353942871094 521.9091186523438 L 172.15550231933594 521.9091186523438 L 172.15550231933594 479.439697265625" fill-opacity="1" clip-path="url(#zFdSRDmbPUTD)" stroke-opacity="1" stroke-linejoin="bevel" stroke-miterlimit="10" stroke-dasharray=""/><path fill="rgb(134,204,195)" stroke="rgb(134,204,195)" paint-order="fill" d="M 234.59568786621094 507.5468444824219 L 247.08372497558594 507.5468444824219 L 247.08372497558594 521.9091186523438 L 234.59568786621094 521.9091186523438 L 234.59568786621094 507.5468444824219" fill-opacity="1" clip-path="url(#zFdSRDmbPUTD)" stroke-opacity="1" stroke-linejoin="bevel" stroke-miterlimit="10" stroke-dasharray=""/><path fill="rgb(134,204,195)" stroke="rgb(134,204,195)" paint-order="fill" d="M 297.035888671875 519.054931640625 L 309.52392578125 519.054931640625 L 309.52392578125 521.9091186523438 L 297.035888671875 521.9091186523438 L 297.035888671875 519.054931640625" fill-opacity="1" clip-path="url(#zFdSRDmbPUTD)" stroke-opacity="1" stroke-linejoin="bevel" stroke-miterlimit="10" stroke-dasharray=""/><path fill="rgb(134,204,195)" stroke="rgb(134,204,195)" paint-order="fill" d="M 322.011962890625 520.7849731445312 L 334.5 520.7849731445312 L 334.5 521.9091186523438 L 322.011962890625 521.9091186523438 L 322.011962890625 520.7849731445312" fill-opacity="1" clip-path="url(#zFdSRDmbPUTD)" stroke-opacity="1" stroke-linejoin="bevel" stroke-miterlimit="10" stroke-dasharray=""/><path fill="rgb(134,204,195)" stroke="rgb(134,204,195)" paint-order="fill" d="M 197.13157653808594 494.98321533203125 L 209.61961364746094 494.98321533203125 L 209.61961364746094 521.9091186523438 L 197.13157653808594 521.9091186523438 L 197.13157653808594 494.98321533203125" fill-opacity="1" clip-path="url(#zFdSRDmbPUTD)" stroke-opacity="1" stroke-linejoin="bevel" stroke-miterlimit="10" stroke-dasharray=""/><path fill="rgb(134,204,195)" stroke="rgb(134,204,195)" paint-order="fill" d="M 247.08372497558594 511.0183410644531 L 259.57177734375 511.0183410644531 L 259.57177734375 521.9091186523438 L 247.08372497558594 521.9091186523438 L 247.08372497558594 511.0183410644531" fill-opacity="1" clip-path="url(#zFdSRDmbPUTD)" stroke-opacity="1" stroke-linejoin="bevel" stroke-miterlimit="10" stroke-dasharray=""/><path fill="rgb(134,204,195)" stroke="rgb(134,204,195)" paint-order="fill" d="M 309.52392578125 520.0457153320312 L 322.011962890625 520.0457153320312 L 322.011962890625 521.9091186523438 L 309.52392578125 521.9091186523438 L 309.52392578125 520.0457153320312" fill-opacity="1" clip-path="url(#zFdSRDmbPUTD)" stroke-opacity="1" stroke-linejoin="bevel" stroke-miterlimit="10" stroke-dasharray=""/><path fill="rgb(134,204,195)" stroke="rgb(134,204,195)" paint-order="fill" d="M 284.5478515625 517.8050537109375 L 297.035888671875 517.8050537109375 L 297.035888671875 521.9091186523438 L 284.5478515625 521.9091186523438 L 284.5478515625 517.8050537109375" fill-opacity="1" clip-path="url(#zFdSRDmbPUTD)" stroke-opacity="1" stroke-linejoin="bevel" stroke-miterlimit="10" stroke-dasharray=""/><path fill="rgb(134,204,195)" stroke="rgb(134,204,195)" paint-order="fill" d="M 346.988037109375 521.4327392578125 L 359.47607421875 521.4327392578125 L 359.47607421875 521.9091186523438 L 346.988037109375 521.9091186523438 L 346.988037109375 521.4327392578125" fill-opacity="1" clip-path="url(#zFdSRDmbPUTD)" stroke-opacity="1" stroke-linejoin="bevel" stroke-miterlimit="10" stroke-dasharray=""/><path fill="rgb(134,204,195)" stroke="rgb(134,204,195)" paint-order="fill" d="M 359.47607421875 521.6880493164062 L 371.964111328125 521.6880493164062 L 371.964111328125 521.9091186523438 L 359.47607421875 521.9091186523438 L 359.47607421875 521.6880493164062" fill-opacity="1" clip-path="url(#zFdSRDmbPUTD)" stroke-opacity="1" stroke-linejoin="bevel" stroke-miterlimit="10" stroke-dasharray=""/><path fill="rgb(134,204,195)" stroke="rgb(134,204,195)" paint-order="fill" d="M 396.940185546875 521.84814453125 L 409.42822265625 521.84814453125 L 409.42822265625 521.9091186523438 L 396.940185546875 521.9091186523438 L 396.940185546875 521.84814453125" fill-opacity="1" clip-path="url(#zFdSRDmbPUTD)" stroke-opacity="1" stroke-linejoin="bevel" stroke-miterlimit="10" stroke-dasharray=""/><path fill="rgb(134,204,195)" stroke="rgb(134,204,195)" paint-order="fill" d="M 371.964111328125 521.7528686523438 L 384.4521484375 521.7528686523438 L 384.4521484375 521.9091186523438 L 371.964111328125 521.9091186523438 L 371.964111328125 521.7528686523438" fill-opacity="1" clip-path="url(#zFdSRDmbPUTD)" stroke-opacity="1" stroke-linejoin="bevel" stroke-miterlimit="10" stroke-dasharray=""/><path fill="rgb(134,204,195)" stroke="rgb(134,204,195)" paint-order="fill" d="M 334.5 521.2612915039062 L 346.988037109375 521.2612915039062 L 346.988037109375 521.9091186523438 L 334.5 521.9091186523438 L 334.5 521.2612915039062" fill-opacity="1" clip-path="url(#zFdSRDmbPUTD)" stroke-opacity="1" stroke-linejoin="bevel" stroke-miterlimit="10" stroke-dasharray=""/><path fill="rgb(134,204,195)" stroke="rgb(134,204,195)" paint-order="fill" d="M 384.4521484375 521.7719116210938 L 396.940185546875 521.7719116210938 L 396.940185546875 521.9091186523438 L 384.4521484375 521.9091186523438 L 384.4521484375 521.7719116210938" fill-opacity="1" clip-path="url(#zFdSRDmbPUTD)" stroke-opacity="1" stroke-linejoin="bevel" stroke-miterlimit="10" stroke-dasharray=""/><path fill="rgb(134,204,195)" stroke="rgb(134,204,195)" paint-order="fill" d="M 471.868408203125 521.8976440429688 L 484.3564453125 521.8976440429688 L 484.3564453125 521.9091186523438 L 471.868408203125 521.9091186523438 L 471.868408203125 521.8976440429688" fill-opacity="1" clip-path="url(#zFdSRDmbPUTD)" stroke-opacity="1" stroke-linejoin="bevel" stroke-miterlimit="10" stroke-dasharray=""/><path fill="rgb(134,204,195)" stroke="rgb(134,204,195)" paint-order="fill" d="M 434.404296875 521.9052734375 L 446.892333984375 521.9052734375 L 446.892333984375 521.9091186523438 L 434.404296875 521.9091186523438 L 434.404296875 521.9052734375" fill-opacity="1" clip-path="url(#zFdSRDmbPUTD)" stroke-opacity="1" stroke-linejoin="bevel" stroke-miterlimit="10" stroke-dasharray=""/><path fill="rgb(134,204,195)" stroke="rgb(134,204,195)" paint-order="fill" d="M 409.42822265625 521.8824462890625 L 421.916259765625 521.8824462890625 L 421.916259765625 521.9091186523438 L 409.42822265625 521.9091186523438 L 409.42822265625 521.8824462890625" fill-opacity="1" clip-path="url(#zFdSRDmbPUTD)" stroke-opacity="1" stroke-linejoin="bevel" stroke-miterlimit="10" stroke-dasharray=""/><path fill="rgb(134,204,195)" stroke="rgb(134,204,195)" paint-order="fill" d="M 484.3564453125 521.9052734375 L 496.844482421875 521.9052734375 L 496.844482421875 521.9091186523438 L 484.3564453125 521.9091186523438 L 484.3564453125 521.9052734375" fill-opacity="1" clip-path="url(#zFdSRDmbPUTD)" stroke-opacity="1" stroke-linejoin="bevel" stroke-miterlimit="10" stroke-dasharray=""/><path fill="rgb(134,204,195)" stroke="rgb(134,204,195)" paint-order="fill" d="M 421.916259765625 521.88623046875 L 434.404296875 521.88623046875 L 434.404296875 521.9091186523438 L 421.916259765625 521.9091186523438 L 421.916259765625 521.88623046875" fill-opacity="1" clip-path="url(#zFdSRDmbPUTD)" stroke-opacity="1" stroke-linejoin="bevel" stroke-miterlimit="10" stroke-dasharray=""/><path fill="rgb(134,204,195)" stroke="rgb(134,204,195)" paint-order="fill" d="M 446.892333984375 521.9014892578125 L 459.38037109375 521.9014892578125 L 459.38037109375 521.9091186523438 L 446.892333984375 521.9091186523438 L 446.892333984375 521.9014892578125" fill-opacity="1" clip-path="url(#zFdSRDmbPUTD)" stroke-opacity="1" stroke-linejoin="bevel" stroke-miterlimit="10" stroke-dasharray=""/><path fill="rgb(134,204,195)" stroke="rgb(134,204,195)" paint-order="fill" d="M 559.28466796875 521.9052734375 L 571.772705078125 521.9052734375 L 571.772705078125 521.9091186523438 L 559.28466796875 521.9091186523438 L 559.28466796875 521.9052734375" fill-opacity="1" clip-path="url(#zFdSRDmbPUTD)" stroke-opacity="1" stroke-linejoin="bevel" stroke-miterlimit="10" stroke-dasharray=""/><path fill="rgb(134,204,195)" stroke="rgb(134,204,195)" paint-order="fill" d="M 459.38037109375 521.8976440429688 L 471.868408203125 521.8976440429688 L 471.868408203125 521.9091186523438 L 459.38037109375 521.9091186523438 L 459.38037109375 521.8976440429688" fill-opacity="1" clip-path="url(#zFdSRDmbPUTD)" stroke-opacity="1" stroke-linejoin="bevel" stroke-miterlimit="10" stroke-dasharray=""/><path fill="rgb(134,204,195)" stroke="rgb(134,204,195)" paint-order="fill" d="M 509.3325500488281 521.9052734375 L 521.820556640625 521.9052734375 L 521.820556640625 521.9091186523438 L 509.3325500488281 521.9091186523438 L 509.3325500488281 521.9052734375" fill-opacity="1" clip-path="url(#zFdSRDmbPUTD)" stroke-opacity="1" stroke-linejoin="bevel" stroke-miterlimit="10" stroke-dasharray=""/><path fill="none" stroke="rgb(0,0,0)" paint-order="fill" d="M 73.5 546.5 L 595.5 546.5" stroke-opacity="1" stroke-linejoin="bevel" stroke-miterlimit="10" stroke-dasharray=""/><path fill="none" stroke="rgb(0,0,0)" paint-order="fill" d="M 103.5 552.5 L 103.5 544.5 M 140.5 552.5 L 140.5 544.5 M 203.5 552.5 L 203.5 544.5 M 265.5 552.5 L 265.5 544.5 M 328.5 552.5 L 328.5 544.5 M 390.5 552.5 L 390.5 544.5 M 453.5 552.5 L 453.5 544.5 M 515.5 552.5 L 515.5 544.5" stroke-opacity="1" stroke-linejoin="bevel" stroke-miterlimit="10" stroke-dasharray=""/><path fill="none" stroke="rgb(0,0,0)" paint-order="fill" d="M 115.5 550.5 L 115.5 546.5 M 128.5 550.5 L 128.5 546.5 M 153.5 550.5 L 153.5 546.5 M 165.5 550.5 L 165.5 546.5 M 178.5 550.5 L 178.5 546.5 M 190.5 550.5 L 190.5 546.5 M 215.5 550.5 L 215.5 546.5 M 228.5 550.5 L 228.5 546.5 M 240.5 550.5 L 240.5 546.5 M 253.5 550.5 L 253.5 546.5 M 278.5 550.5 L 278.5 546.5 M 290.5 550.5 L 290.5 546.5 M 303.5 550.5 L 303.5 546.5 M 315.5 550.5 L 315.5 546.5 M 340.5 550.5 L 340.5 546.5 M 353.5 550.5 L 353.5 546.5 M 365.5 550.5 L 365.5 546.5 M 378.5 550.5 L 378.5 546.5 M 403.5 550.5 L 403.5 546.5 M 415.5 550.5 L 415.5 546.5 M 428.5 550.5 L 428.5 546.5 M 440.5 550.5 L 440.5 546.5 M 465.5 550.5 L 465.5 546.5 M 478.5 550.5 L 478.5 546.5 M 490.5 550.5 L 490.5 546.5 M 503.5 550.5 L 503.5 546.5 M 528.5 550.5 L 528.5 546.5 M 540.5 550.5 L 540.5 546.5 M 553.5 550.5 L 553.5 546.5 M 565.5 550.5 L 565.5 546.5" stroke-opacity="1" stroke-linejoin="bevel" stroke-miterlimit="10" stroke-dasharray=""/><text fill="rgb(68,68,68)" stroke="none" font-family="helvetica" font-size="14px" font-style="normal" font-weight="normal" text-decoration="normal" x="99.07962393760681" y="568" text-anchor="start" dominant-baseline="alphabetic" transform="matrix(1, 0, 0, 1, 0.5, 0.5)" fill-opacity="1">2</text><text fill="rgb(68,68,68)" stroke="none" font-family="helvetica" font-size="14px" font-style="normal" font-weight="normal" text-decoration="normal" x="136.54374289512634" y="568" text-anchor="start" dominant-baseline="alphabetic" transform="matrix(1, 0, 0, 1, 0.5, 0.5)" fill-opacity="1">5</text><text fill="rgb(68,68,68)" stroke="none" font-family="helvetica" font-size="14px" font-style="normal" font-weight="normal" text-decoration="normal" x="195.09226179122925" y="568" text-anchor="start" dominant-baseline="alphabetic" transform="matrix(1, 0, 0, 1, 0.5, 0.5)" fill-opacity="1">10</text><text fill="rgb(68,68,68)" stroke="none" font-family="helvetica" font-size="14px" font-style="normal" font-weight="normal" text-decoration="normal" x="257.5324625968933" y="568" text-anchor="start" dominant-baseline="alphabetic" transform="matrix(1, 0, 0, 1, 0.5, 0.5)" fill-opacity="1">15</text><text fill="rgb(68,68,68)" stroke="none" font-family="helvetica" font-size="14px" font-style="normal" font-weight="normal" text-decoration="normal" x="319.9726481437683" y="568" text-anchor="start" dominant-baseline="alphabetic" transform="matrix(1, 0, 0, 1, 0.5, 0.5)" fill-opacity="1">20</text><text fill="rgb(68,68,68)" stroke="none" font-family="helvetica" font-size="14px" font-style="normal" font-weight="normal" text-decoration="normal" x="382.4128336906433" y="568" text-anchor="start" dominant-baseline="alphabetic" transform="matrix(1, 0, 0, 1, 0.5, 0.5)" fill-opacity="1">25</text><text fill="rgb(68,68,68)" stroke="none" font-family="helvetica" font-size="14px" font-style="normal" font-weight="normal" text-decoration="normal" x="444.8530192375183" y="568" text-anchor="start" dominant-baseline="alphabetic" transform="matrix(1, 0, 0, 1, 0.5, 0.5)" fill-opacity="1">30</text><text fill="rgb(68,68,68)" stroke="none" font-family="helvetica" font-size="14px" font-style="normal" font-weight="normal" text-decoration="normal" x="507.2932047843933" y="568" text-anchor="start" dominant-baseline="alphabetic" transform="matrix(1, 0, 0, 1, 0.5, 0.5)" fill-opacity="1">35</text><text fill="rgb(68,68,68)" stroke="none" font-family="helvetica" font-size="18px" font-style="italic" font-weight="normal" text-decoration="normal" x="227.01667022705078" y="593" text-anchor="start" dominant-baseline="alphabetic" transform="matrix(1, 0, 0, 1, 0.5, 0.5)" fill-opacity="1">Number of common alleles</text><path fill="none" stroke="rgb(0,0,0)" paint-order="fill" d="M 73.5 546.5 L 73.5 5.5" stroke-opacity="1" stroke-linejoin="bevel" stroke-miterlimit="10" stroke-dasharray=""/><path fill="none" stroke="rgb(0,0,0)" paint-order="fill" d="M 67.5 521.5 L 75.5 521.5 M 67.5 445.5 L 75.5 445.5 M 67.5 369.5 L 75.5 369.5 M 67.5 293.5 L 75.5 293.5 M 67.5 217.5 L 75.5 217.5 M 67.5 140.5 L 75.5 140.5 M 67.5 64.5 L 75.5 64.5" stroke-opacity="1" stroke-linejoin="bevel" stroke-miterlimit="10" stroke-dasharray=""/><path fill="none" stroke="rgb(0,0,0)" paint-order="fill" d="M 69.5 537.5 L 73.5 537.5 M 69.5 521.5 L 73.5 521.5 M 69.5 506.5 L 73.5 506.5 M 69.5 491.5 L 73.5 491.5 M 69.5 476.5 L 73.5 476.5 M 69.5 460.5 L 73.5 460.5 M 69.5 445.5 L 73.5 445.5 M 69.5 430.5 L 73.5 430.5 M 69.5 415.5 L 73.5 415.5 M 69.5 399.5 L 73.5 399.5 M 69.5 384.5 L 73.5 384.5 M 69.5 369.5 L 73.5 369.5 M 69.5 354.5 L 73.5 354.5 M 69.5 338.5 L 73.5 338.5 M 69.5 323.5 L 73.5 323.5 M 69.5 308.5 L 73.5 308.5 M 69.5 293.5 L 73.5 293.5 M 69.5 278.5 L 73.5 278.5 M 69.5 262.5 L 73.5 262.5 M 69.5 247.5 L 73.5 247.5 M 69.5 232.5 L 73.5 232.5 M 69.5 217.5 L 73.5 217.5 M 69.5 201.5 L 73.5 201.5 M 69.5 186.5 L 73.5 186.5 M 69.5 171.5 L 73.5 171.5 M 69.5 156.5 L 73.5 156.5 M 69.5 140.5 L 73.5 140.5 M 69.5 125.5 L 73.5 125.5 M 69.5 110.5 L 73.5 110.5 M 69.5 95.5 L 73.5 95.5 M 69.5 79.5 L 73.5 79.5 M 69.5 64.5 L 73.5 64.5 M 69.5 49.5 L 73.5 49.5 M 69.5 34.5 L 73.5 34.5 M 69.5 18.5 L 73.5 18.5" stroke-opacity="1" stroke-linejoin="bevel" stroke-miterlimit="10" stroke-dasharray=""/><text fill="rgb(68,68,68)" stroke="none" font-family="helvetica" font-size="14px" font-style="normal" font-weight="normal" text-decoration="normal" x="47.21666622161865" y="526.9091186523438" text-anchor="start" dominant-baseline="alphabetic" transform="matrix(1, 0, 0, 1, 0.5, 0.5)" fill-opacity="1">0k</text><text fill="rgb(68,68,68)" stroke="none" font-family="helvetica" font-size="14px" font-style="normal" font-weight="normal" text-decoration="normal" x="39.433332443237305" y="450.6966247558594" text-anchor="start" dominant-baseline="alphabetic" transform="matrix(1, 0, 0, 1, 0.5, 0.5)" fill-opacity="1">20k</text><text fill="rgb(68,68,68)" stroke="none" font-family="helvetica" font-size="14px" font-style="normal" font-weight="normal" text-decoration="normal" x="39.433332443237305" y="374.484130859375" text-anchor="start" dominant-baseline="alphabetic" transform="matrix(1, 0, 0, 1, 0.5, 0.5)" fill-opacity="1">40k</text><text fill="rgb(68,68,68)" stroke="none" font-family="helvetica" font-size="14px" font-style="normal" font-weight="normal" text-decoration="normal" x="39.433332443237305" y="298.27166748046875" text-anchor="start" dominant-baseline="alphabetic" transform="matrix(1, 0, 0, 1, 0.5, 0.5)" fill-opacity="1">60k</text><text fill="rgb(68,68,68)" stroke="none" font-family="helvetica" font-size="14px" font-style="normal" font-weight="normal" text-decoration="normal" x="39.433332443237305" y="222.05917358398438" text-anchor="start" dominant-baseline="alphabetic" transform="matrix(1, 0, 0, 1, 0.5, 0.5)" fill-opacity="1">80k</text><text fill="rgb(68,68,68)" stroke="none" font-family="helvetica" font-size="14px" font-style="normal" font-weight="normal" text-decoration="normal" x="31.649999618530273" y="145.84669494628906" text-anchor="start" dominant-baseline="alphabetic" transform="matrix(1, 0, 0, 1, 0.5, 0.5)" fill-opacity="1">100k</text><text fill="rgb(68,68,68)" stroke="none" font-family="helvetica" font-size="14px" font-style="normal" font-weight="normal" text-decoration="normal" x="31.649999618530273" y="69.63421630859375" text-anchor="start" dominant-baseline="alphabetic" transform="matrix(1, 0, 0, 1, 0.5, 0.5)" fill-opacity="1">120k</text><text fill="rgb(68,68,68)" stroke="none" font-family="helvetica" font-size="18px" font-style="italic" font-weight="normal" text-decoration="normal" x="-54.25833320617676" y="271.5" text-anchor="start" dominant-baseline="alphabetic" transform="matrix(6.123233995736766e-17, -1, 1, 6.123233995736766e-17, -251.35000038146973, 299.6499996185303)" fill-opacity="1">Number of STR loci</text></svg>