<svg version="1.1" xmlns="http://www.w3.org/2000/svg" width="600" height="600"><defs><clipPath id="BbKgAWTFGdpU"><path fill="none" stroke="none" d="M 73.5 5.5 L 595.5 5.5 L 595.5 546.5 L 73.5 546.5 L 73.5 5.5"/></clipPath><clipPath id="IZvgLSUzMilA"><path fill="none" stroke="none" d="M 73.5 5.5 L 595.5 5.5 L 595.5 546.5 L 73.5 546.5 L 73.5 5.5"/></clipPath><clipPath id="mWrShOQpIgtx"><path fill="none" stroke="none" d="M 73.5 5.5 L 595.5 5.5 L 595.5 546.5 L 73.5 546.5 L 73.5 5.5"/></clipPath><clipPath id="RNcJvHnTBKVk"><path fill="none" stroke="none" d="M 73.5 5.5 L 595.5 5.5 L 595.5 546.5 L 73.5 546.5 L 73.5 5.5"/></clipPath></defs><path fill="none" stroke="rgb(229,229,229)" paint-order="fill" d="M 73.5 5.5 L 595.5 5.5 L 595.5 546.5 L 73.5 546.5 L 73.5 5.5" stroke-opacity="1" stroke-linejoin="bevel" stroke-miterlimit="10" stroke-dasharray=""/><path fill="rgb(134,204,195)" stroke="rgb(134,204,195)" paint-order="fill" d="M 97.2272720336914 30.090909957885742 L 118.79752349853516 30.090909957885742 L 118.79752349853516 521.9091186523438 L 97.2272720336914 521.9091186523438 L 97.2272720336914 30.090909957885742" fill-opacity="1" clip-path="url(#mWrShOQpIgtx)" stroke-opacity="1" stroke-linejoin="bevel" stroke-miterlimit="10" stroke-dasharray=""/><path fill="rgb(134,204,195)" stroke="rgb(134,204,195)" paint-order="fill" d="M 118.79752349853516 251.31924438476562 L 140.36776733398438 251.31924438476562 L 140.36776733398438 521.9091186523438 L 118.79752349853516 521.9091186523438 L 118.79752349853516 251.31924438476562" fill-opacity="1" clip-path="url(#mWrShOQpIgtx)" stroke-opacity="1" stroke-linejoin="bevel" stroke-miterlimit="10" stroke-dasharray=""/><path fill="rgb(134,204,195)" stroke="rgb(134,204,195)" paint-order="fill" d="M 140.36776733398438 410.2916259765625 L 161.93801879882812 410.2916259765625 L 161.93801879882812 521.9091186523438 L 140.36776733398438 521.9091186523438 L 140.36776733398438 410.2916259765625" fill-opacity="1" clip-path="url(#mWrShOQpIgtx)" stroke-opacity="1" stroke-linejoin="bevel" stroke-miterlimit="10" stroke-dasharray=""/><path fill="rgb(134,204,195)" stroke="rgb(134,204,195)" paint-order="fill" d="M 161.93801879882812 468.3523254394531 L 183.50827026367188 468.3523254394531 L 183.50827026367188 521.9091186523438 L 161.93801879882812 521.9091186523438 L 161.93801879882812 468.3523254394531" fill-opacity="1" clip-path="url(#mWrShOQpIgtx)" stroke-opacity="1" stroke-linejoin="bevel" stroke-miterlimit="10" stroke-dasharray=""/><path fill="rgb(134,204,195)" stroke="rgb(134,204,195)" paint-order="fill" d="M 205.07850646972656 499.73028564453125 L 226.6487579345703 499.73028564453125 L 226.6487579345703 521.9091186523438 L 205.07850646972656 521.9091186523438 L 205.07850646972656 499.73028564453125" fill-opacity="1" clip-path="url(#mWrShOQpIgtx)" stroke-opacity="1" stroke-linejoin="bevel" stroke-miterlimit="10" stroke-dasharray=""/><path fill="rgb(134,204,195)" stroke="rgb(134,204,195)" paint-order="fill" d="M 248.21900939941406 510.96368408203125 L 269.78924560546875 510.96368408203125 L 269.78924560546875 521.9091186523438 L 248.21900939941406 521.9091186523438 L 248.21900939941406 510.96368408203125" fill-opacity="1" clip-path="url(#mWrShOQpIgtx)" stroke-opacity="1" stroke-linejoin="bevel" stroke-miterlimit="10" stroke-dasharray=""/><path fill="rgb(134,204,195)" stroke="rgb(134,204,195)" paint-order="fill" d="M 183.50827026367188 489.6050109863281 L 205.07850646972656 489.6050109863281 L 205.07850646972656 521.9091186523438 L 183.50827026367188 521.9091186523438 L 183.50827026367188 489.6050109863281" fill-opacity="1" clip-path="url(#mWrShOQpIgtx)" stroke-opacity="1" stroke-linejoin="bevel" stroke-miterlimit="10" stroke-dasharray=""/><path fill="rgb(134,204,195)" stroke="rgb(134,204,195)" paint-order="fill" d="M 291.3594970703125 517.3636474609375 L 312.92974853515625 517.3636474609375 L 312.92974853515625 521.9091186523438 L 291.3594970703125 521.9091186523438 L 291.3594970703125 517.3636474609375" fill-opacity="1" clip-path="url(#mWrShOQpIgtx)" stroke-opacity="1" stroke-linejoin="bevel" stroke-miterlimit="10" stroke-dasharray=""/><path fill="rgb(134,204,195)" stroke="rgb(134,204,195)" paint-order="fill" d="M 269.78924560546875 514.6082763671875 L 291.3594970703125 514.6082763671875 L 291.3594970703125 521.9091186523438 L 269.78924560546875 521.9091186523438 L 269.78924560546875 514.6082763671875" fill-opacity="1" clip-path="url(#mWrShOQpIgtx)" stroke-opacity="1" stroke-linejoin="bevel" stroke-miterlimit="10" stroke-dasharray=""/><path fill="rgb(134,204,195)" stroke="rgb(134,204,195)" paint-order="fill" d="M 312.92974853515625 519.28271484375 L 334.5 519.28271484375 L 334.5 521.9091186523438 L 312.92974853515625 521.9091186523438 L 312.92974853515625 519.28271484375" fill-opacity="1" clip-path="url(#mWrShOQpIgtx)" stroke-opacity="1" stroke-linejoin="bevel" stroke-miterlimit="10" stroke-dasharray=""/><path fill="rgb(134,204,195)" stroke="rgb(134,204,195)" paint-order="fill" d="M 399.21075439453125 521.7063598632812 L 420.781005859375 521.7063598632812 L 420.781005859375 521.9091186523438 L 399.21075439453125 521.9091186523438 L 399.21075439453125 521.7063598632812" fill-opacity="1" clip-path="url(#mWrShOQpIgtx)" stroke-opacity="1" stroke-linejoin="bevel" stroke-miterlimit="10" stroke-dasharray=""/><path fill="rgb(134,204,195)" stroke="rgb(134,204,195)" paint-order="fill" d="M 226.6487579345703 506.3836975097656 L 248.21900939941406 506.3836975097656 L 248.21900939941406 521.9091186523438 L 226.6487579345703 521.9091186523438 L 226.6487579345703 506.3836975097656" fill-opacity="1" clip-path="url(#mWrShOQpIgtx)" stroke-opacity="1" stroke-linejoin="bevel" stroke-miterlimit="10" stroke-dasharray=""/><path fill="rgb(134,204,195)" stroke="rgb(134,204,195)" paint-order="fill" d="M 356.07025146484375 521.0059814453125 L 377.6405029296875 521.0059814453125 L 377.6405029296875 521.9091186523438 L 356.07025146484375 521.9091186523438 L 356.07025146484375 521.0059814453125" fill-opacity="1" clip-path="url(#mWrShOQpIgtx)" stroke-opacity="1" stroke-linejoin="bevel" stroke-miterlimit="10" stroke-dasharray=""/><path fill="rgb(134,204,195)" stroke="rgb(134,204,195)" paint-order="fill" d="M 334.5 520.3102416992188 L 356.07025146484375 520.3102416992188 L 356.07025146484375 521.9091186523438 L 334.5 521.9091186523438 L 334.5 520.3102416992188" fill-opacity="1" clip-path="url(#mWrShOQpIgtx)" stroke-opacity="1" stroke-linejoin="bevel" stroke-miterlimit="10" stroke-dasharray=""/><path fill="rgb(134,204,195)" stroke="rgb(134,204,195)" paint-order="fill" d="M 377.6405029296875 521.4898071289062 L 399.21075439453125 521.4898071289062 L 399.21075439453125 521.9091186523438 L 377.6405029296875 521.9091186523438 L 377.6405029296875 521.4898071289062" fill-opacity="1" clip-path="url(#mWrShOQpIgtx)" stroke-opacity="1" stroke-linejoin="bevel" stroke-miterlimit="10" stroke-dasharray=""/><path fill="rgb(134,204,195)" stroke="rgb(134,204,195)" paint-order="fill" d="M 420.781005859375 521.7962036132812 L 442.3512268066406 521.7962036132812 L 442.3512268066406 521.9091186523438 L 420.781005859375 521.9091186523438 L 420.781005859375 521.7962036132812" fill-opacity="1" clip-path="url(#mWrShOQpIgtx)" stroke-opacity="1" stroke-linejoin="bevel" stroke-miterlimit="10" stroke-dasharray=""/><path fill="rgb(134,204,195)" stroke="rgb(134,204,195)" paint-order="fill" d="M 442.3512268066406 521.8699340820312 L 463.9214782714844 521.8699340820312 L 463.9214782714844 521.9091186523438 L 442.3512268066406 521.9091186523438 L 442.3512268066406 521.8699340820312" fill-opacity="1" clip-path="url(#mWrShOQpIgtx)" stroke-opacity="1" stroke-linejoin="bevel" stroke-miterlimit="10" stroke-dasharray=""/><path fill="rgb(134,204,195)" stroke="rgb(134,204,195)" paint-order="fill" d="M 463.9214782714844 521.8906860351562 L 485.4917297363281 521.8906860351562 L 485.4917297363281 521.9091186523438 L 463.9214782714844 521.9091186523438 L 463.9214782714844 521.8906860351562" fill-opacity="1" clip-path="url(#mWrShOQpIgtx)" stroke-opacity="1" stroke-linejoin="bevel" stroke-miterlimit="10" stroke-dasharray=""/><path fill="rgb(134,204,195)" stroke="rgb(134,204,195)" paint-order="fill" d="M 485.4917297363281 521.895263671875 L 507.0619812011719 521.895263671875 L 507.0619812011719 521.9091186523438 L 485.4917297363281 521.9091186523438 L 485.4917297363281 521.895263671875" fill-opacity="1" clip-path="url(#mWrShOQpIgtx)" stroke-opacity="1" stroke-linejoin="bevel" stroke-miterlimit="10" stroke-dasharray=""/><path fill="rgb(134,204,195)" stroke="rgb(134,204,195)" paint-order="fill" d="M 550.2024536132812 521.9067993164062 L 571.772705078125 521.9067993164062 L 571.772705078125 521.9091186523438 L 550.2024536132812 521.9091186523438 L 550.2024536132812 521.9067993164062" fill-opacity="1" clip-path="url(#mWrShOQpIgtx)" stroke-opacity="1" stroke-linejoin="bevel" stroke-miterlimit="10" stroke-dasharray=""/><path fill="rgb(134,204,195)" stroke="rgb(134,204,195)" paint-order="fill" d="M 507.0619812011719 521.9067993164062 L 528.6322021484375 521.9067993164062 L 528.6322021484375 521.9091186523438 L 507.0619812011719 521.9091186523438 L 507.0619812011719 521.9067993164062" fill-opacity="1" clip-path="url(#mWrShOQpIgtx)" stroke-opacity="1" stroke-linejoin="bevel" stroke-miterlimit="10" stroke-dasharray=""/><path fill="none" stroke="rgb(0,0,0)" paint-order="fill" d="M 73.5 546.5 L 595.5 546.5" stroke-opacity="1" stroke-linejoin="bevel" stroke-miterlimit="10" stroke-dasharray=""/><path fill="none" stroke="rgb(0,0,0)" paint-order="fill" d="M 108.5 552.5 L 108.5 544.5 M 172.5 552.5 L 172.5 544.5 M 280.5 552.5 L 280.5 544.5 M 388.5 552.5 L 388.5 544.5 M 496.5 552.5 L 496.5 544.5" stroke-opacity="1" stroke-linejoin="bevel" stroke-miterlimit="10" stroke-dasharray=""/><path fill="none" stroke="rgb(0,0,0)" paint-order="fill" d="M 129.5 550.5 L 129.5 546.5 M 151.5 550.5 L 151.5 546.5 M 194.5 550.5 L 194.5 546.5 M 215.5 550.5 L 215.5 546.5 M 237.5 550.5 L 237.5 546.5 M 259.5 550.5 L 259.5 546.5 M 302.5 550.5 L 302.5 546.5 M 323.5 550.5 L 323.5 546.5 M 345.5 550.5 L 345.5 546.5 M 366.5 550.5 L 366.5 546.5 M 409.5 550.5 L 409.5 546.5 M 431.5 550.5 L 431.5 546.5 M 453.5 550.5 L 453.5 546.5 M 474.5 550.5 L 474.5 546.5 M 517.5 550.5 L 517.5 546.5 M 539.5 550.5 L 539.5 546.5 M 560.5 550.5 L 560.5 546.5" stroke-opacity="1" stroke-linejoin="bevel" stroke-miterlimit="10" stroke-dasharray=""/><text fill="rgb(68,68,68)" stroke="none" font-family="helvetica" font-size="14px" font-style="normal" font-weight="normal" text-decoration="normal" x="103.62073111534119" y="568" text-anchor="start" dominant-baseline="alphabetic" transform="matrix(1, 0, 0, 1, 0.5, 0.5)" fill-opacity="1">2</text><text fill="rgb(68,68,68)" stroke="none" font-family="helvetica" font-size="14px" font-style="normal" font-weight="normal" text-decoration="normal" x="168.3314778804779" y="568" text-anchor="start" dominant-baseline="alphabetic" transform="matrix(1, 0, 0, 1, 0.5, 0.5)" fill-opacity="1">5</text><text fill="rgb(68,68,68)" stroke="none" font-family="helvetica" font-size="14px" font-style="normal" font-weight="normal" text-decoration="normal" x="272.29103803634644" y="568" text-anchor="start" dominant-baseline="alphabetic" transform="matrix(1, 0, 0, 1, 0.5, 0.5)" fill-opacity="1">10</text><text fill="rgb(68,68,68)" stroke="none" font-family="helvetica" font-size="14px" font-style="normal" font-weight="normal" text-decoration="normal" x="380.1422953605652" y="568" text-anchor="start" dominant-baseline="alphabetic" transform="matrix(1, 0, 0, 1, 0.5, 0.5)" fill-opacity="1">15</text><text fill="rgb(68,68,68)" stroke="none" font-family="helvetica" font-size="14px" font-style="normal" font-weight="normal" text-decoration="normal" x="487.9935221672058" y="568" text-anchor="start" dominant-baseline="alphabetic" transform="matrix(1, 0, 0, 1, 0.5, 0.5)" fill-opacity="1">20</text><text fill="rgb(68,68,68)" stroke="none" font-family="helvetica" font-size="18px" font-style="italic" font-weight="normal" text-decoration="normal" x="227.01667022705078" y="593" text-anchor="start" dominant-baseline="alphabetic" transform="matrix(1, 0, 0, 1, 0.5, 0.5)" fill-opacity="1">Number of common alleles</text><path fill="none" stroke="rgb(0,0,0)" paint-order="fill" d="M 73.5 546.5 L 73.5 5.5" stroke-opacity="1" stroke-linejoin="bevel" stroke-miterlimit="10" stroke-dasharray=""/><path fill="none" stroke="rgb(0,0,0)" paint-order="fill" d="M 67.5 521.5 L 75.5 521.5 M 67.5 406.5 L 75.5 406.5 M 67.5 291.5 L 75.5 291.5 M 67.5 176.5 L 75.5 176.5 M 67.5 61.5 L 75.5 61.5" stroke-opacity="1" stroke-linejoin="bevel" stroke-miterlimit="10" stroke-dasharray=""/><path fill="none" stroke="rgb(0,0,0)" paint-order="fill" d="M 69.5 544.5 L 73.5 544.5 M 69.5 521.5 L 73.5 521.5 M 69.5 498.5 L 73.5 498.5 M 69.5 475.5 L 73.5 475.5 M 69.5 452.5 L 73.5 452.5 M 69.5 429.5 L 73.5 429.5 M 69.5 406.5 L 73.5 406.5 M 69.5 383.5 L 73.5 383.5 M 69.5 360.5 L 73.5 360.5 M 69.5 337.5 L 73.5 337.5 M 69.5 314.5 L 73.5 314.5 M 69.5 291.5 L 73.5 291.5 M 69.5 268.5 L 73.5 268.5 M 69.5 245.5 L 73.5 245.5 M 69.5 222.5 L 73.5 222.5 M 69.5 199.5 L 73.5 199.5 M 69.5 176.5 L 73.5 176.5 M 69.5 153.5 L 73.5 153.5 M 69.5 130.5 L 73.5 130.5 M 69.5 107.5 L 73.5 107.5 M 69.5 84.5 L 73.5 84.5 M 69.5 61.5 L 73.5 61.5 M 69.5 38.5 L 73.5 38.5 M 69.5 15.5 L 73.5 15.5" stroke-opacity="1" stroke-linejoin="bevel" stroke-miterlimit="10" stroke-dasharray=""/><text fill="rgb(68,68,68)" stroke="none" font-family="helvetica" font-size="14px" font-style="normal" font-weight="normal" text-decoration="normal" x="47.21666622161865" y="526.9091186523438" text-anchor="start" dominant-baseline="alphabetic" transform="matrix(1, 0, 0, 1, 0.5, 0.5)" fill-opacity="1">0k</text><text fill="rgb(68,68,68)" stroke="none" font-family="helvetica" font-size="14px" font-style="normal" font-weight="normal" text-decoration="normal" x="39.433332443237305" y="411.7183837890625" text-anchor="start" dominant-baseline="alphabetic" transform="matrix(1, 0, 0, 1, 0.5, 0.5)" fill-opacity="1">50k</text><text fill="rgb(68,68,68)" stroke="none" font-family="helvetica" font-size="14px" font-style="normal" font-weight="normal" text-decoration="normal" x="31.649999618530273" y="296.5277099609375" text-anchor="start" dominant-baseline="alphabetic" transform="matrix(1, 0, 0, 1, 0.5, 0.5)" fill-opacity="1">100k</text><text fill="rgb(68,68,68)" stroke="none" font-family="helvetica" font-size="14px" font-style="normal" font-weight="normal" text-decoration="normal" x="31.649999618530273" y="181.33700561523438" text-anchor="start" dominant-baseline="alphabetic" transform="matrix(1, 0, 0, 1, 0.5, 0.5)" fill-opacity="1">150k</text><text fill="rgb(68,68,68)" stroke="none" font-family="helvetica" font-size="14px" font-style="normal" font-weight="normal" text-decoration="normal" x="31.649999618530273" y="66.14632034301758" text-anchor="start" dominant-baseline="alphabetic" transform="matrix(1, 0, 0, 1, 0.5, 0.5)" fill-opacity="1">200k</text><text fill="rgb(68,68,68)" stroke="none" font-family="helvetica" font-size="18px" font-style="italic" font-weight="normal" text-decoration="normal" x="-54.25833320617676" y="271.5" text-anchor="start" dominant-baseline="alphabetic" transform="matrix(6.123233995736766e-17, -1, 1, 6.123233995736766e-17, -251.35000038146973, 299.6499996185303)" fill-opacity="1">Number of STR loci</text></svg>