<svg version="1.1" xmlns="http://www.w3.org/2000/svg" width="1600" height="900"><defs><clipPath id="vcpGIysdBLtv"><path fill="none" stroke="none" d="M 91.5 5.5 L 1595.5 5.5 L 1595.5 824.5 L 91.5 824.5 L 91.5 5.5"/></clipPath><clipPath id="ivaxxdcyDTIL"><path fill="none" stroke="none" d="M 91.5 5.5 L 1595.5 5.5 L 1595.5 824.5 L 91.5 824.5 L 91.5 5.5"/></clipPath><clipPath id="VbVuWrPNFchd"><path fill="none" stroke="none" d="M 91.5 5.5 L 1595.5 5.5 L 1595.5 824.5 L 91.5 824.5 L 91.5 5.5"/></clipPath><clipPath id="CWeIyAGTwsIT"><path fill="none" stroke="none" d="M 91.5 5.5 L 1595.5 5.5 L 1595.5 824.5 L 91.5 824.5 L 91.5 5.5"/></clipPath><clipPath id="EzFihrcNNOWA"><path fill="none" stroke="none" d="M 91.5 5.5 L 1595.5 5.5 L 1595.5 824.5 L 91.5 824.5 L 91.5 5.5"/></clipPath></defs><path fill="rgb(255,255,255)" stroke="none" paint-order="stroke" d="M 0.5 0.5 L 1600.5 0.5 L 1600.5 900.5 L 0.5 900.5 L 0.5 0.5" fill-opacity="1"/><rect fill="#FFFFFF" stroke="none" x="91" y="5" width="1504" height="819" transform="matrix(1, 0, 0, 1, 0.5, 0.5)"/><path fill="rgb(255,255,255)" stroke="none" paint-order="stroke" d="M 91.5 5.5 L 1595.5 5.5 L 1595.5 824.5 L 91.5 824.5 L 91.5 5.5" fill-opacity="1"/><path fill="none" stroke="rgb(229,229,229)" paint-order="fill" d="M 91.5 5.5 L 1595.5 5.5 L 1595.5 824.5 L 91.5 824.5 L 91.5 5.5" stroke-opacity="1" stroke-linejoin="bevel" stroke-miterlimit="10" stroke-dasharray=""/><path fill="none" stroke="rgb(229,229,229)" paint-order="fill" d="M 91.5 787.5 L 1595.5 787.5 M 91.5 653.5 L 1595.5 653.5 M 91.5 519.5 L 1595.5 519.5 M 91.5 384.5 L 1595.5 384.5 M 91.5 250.5 L 1595.5 250.5 M 91.5 116.5 L 1595.5 116.5" stroke-opacity="1" stroke-linejoin="bevel" stroke-miterlimit="10" stroke-dasharray="" clip-path="url(#ivaxxdcyDTIL)"/><path fill="rgb(0,114,178)" stroke="rgb(31,119,180)" paint-order="fill" d="M 96.5810775756836 689.395263671875 L 188.04052734375 689.395263671875 L 188.04052734375 787.272705078125 L 96.5810775756836 787.272705078125 L 96.5810775756836 689.395263671875" fill-opacity="1" clip-path="url(#VbVuWrPNFchd)" stroke-opacity="1" stroke-linejoin="bevel" stroke-miterlimit="10" stroke-dasharray=""/><path fill="rgb(230,159,0)" stroke="rgb(31,119,180)" paint-order="fill" d="M 198.20269775390625 42.727272033691406 L 289.66217041015625 42.727272033691406 L 289.66217041015625 787.272705078125 L 198.20269775390625 787.272705078125 L 198.20269775390625 42.727272033691406" fill-opacity="1" clip-path="url(#VbVuWrPNFchd)" stroke-opacity="1" stroke-linejoin="bevel" stroke-miterlimit="10" stroke-dasharray=""/><path fill="rgb(240,228,66)" stroke="rgb(31,119,180)" paint-order="fill" d="M 299.8243103027344 594.2876586914062 L 391.2837829589844 594.2876586914062 L 391.2837829589844 787.272705078125 L 299.8243103027344 787.272705078125 L 299.8243103027344 594.2876586914062" fill-opacity="1" clip-path="url(#VbVuWrPNFchd)" stroke-opacity="1" stroke-linejoin="bevel" stroke-miterlimit="10" stroke-dasharray=""/><path fill="rgb(0,158,115)" stroke="rgb(31,119,180)" paint-order="fill" d="M 401.4459533691406 535.4722290039062 L 492.9054260253906 535.4722290039062 L 492.9054260253906 787.272705078125 L 401.4459533691406 787.272705078125 L 401.4459533691406 535.4722290039062" fill-opacity="1" clip-path="url(#VbVuWrPNFchd)" stroke-opacity="1" stroke-linejoin="bevel" stroke-miterlimit="10" stroke-dasharray=""/><path fill="rgb(0,114,178)" stroke="rgb(31,119,180)" paint-order="fill" d="M 645.3378295898438 186.78395080566406 L 736.7973022460938 186.78395080566406 L 736.7973022460938 787.272705078125 L 645.3378295898438 787.272705078125 L 645.3378295898438 186.78395080566406" fill-opacity="1" clip-path="url(#VbVuWrPNFchd)" stroke-opacity="1" stroke-linejoin="bevel" stroke-miterlimit="10" stroke-dasharray=""/><path fill="rgb(230,159,0)" stroke="rgb(31,119,180)" paint-order="fill" d="M 746.95947265625 663.6947631835938 L 838.4189453125 663.6947631835938 L 838.4189453125 787.272705078125 L 746.95947265625 787.272705078125 L 746.95947265625 663.6947631835938" fill-opacity="1" clip-path="url(#VbVuWrPNFchd)" stroke-opacity="1" stroke-linejoin="bevel" stroke-miterlimit="10" stroke-dasharray=""/><path fill="rgb(240,228,66)" stroke="rgb(31,119,180)" paint-order="fill" d="M 848.5810546875 79.74266052246094 L 940.04052734375 79.74266052246094 L 940.04052734375 787.272705078125 L 848.5810546875 787.272705078125 L 848.5810546875 79.74266052246094" fill-opacity="1" clip-path="url(#VbVuWrPNFchd)" stroke-opacity="1" stroke-linejoin="bevel" stroke-miterlimit="10" stroke-dasharray=""/><path fill="rgb(0,158,115)" stroke="rgb(31,119,180)" paint-order="fill" d="M 950.20263671875 374.94354248046875 L 1041.662109375 374.94354248046875 L 1041.662109375 787.272705078125 L 950.20263671875 787.272705078125 L 950.20263671875 374.94354248046875" fill-opacity="1" clip-path="url(#VbVuWrPNFchd)" stroke-opacity="1" stroke-linejoin="bevel" stroke-miterlimit="10" stroke-dasharray=""/><path fill="rgb(0,114,178)" stroke="rgb(31,119,180)" paint-order="fill" d="M 1194.0946044921875 144.55860900878906 L 1285.5540771484375 144.55860900878906 L 1285.5540771484375 787.272705078125 L 1194.0946044921875 787.272705078125 L 1194.0946044921875 144.55860900878906" fill-opacity="1" clip-path="url(#VbVuWrPNFchd)" stroke-opacity="1" stroke-linejoin="bevel" stroke-miterlimit="10" stroke-dasharray=""/><path fill="rgb(230,159,0)" stroke="rgb(31,119,180)" paint-order="fill" d="M 1295.7161865234375 314.31573486328125 L 1387.1756591796875 314.31573486328125 L 1387.1756591796875 787.272705078125 L 1295.7161865234375 787.272705078125 L 1295.7161865234375 314.31573486328125" fill-opacity="1" clip-path="url(#VbVuWrPNFchd)" stroke-opacity="1" stroke-linejoin="bevel" stroke-miterlimit="10" stroke-dasharray=""/><path fill="rgb(240,228,66)" stroke="rgb(31,119,180)" paint-order="fill" d="M 1397.337890625 346.70751953125 L 1488.79736328125 346.70751953125 L 1488.79736328125 787.272705078125 L 1397.337890625 787.272705078125 L 1397.337890625 346.70751953125" fill-opacity="1" clip-path="url(#VbVuWrPNFchd)" stroke-opacity="1" stroke-linejoin="bevel" stroke-miterlimit="10" stroke-dasharray=""/><path fill="rgb(0,158,115)" stroke="rgb(31,119,180)" paint-order="fill" d="M 1498.95947265625 110.32213592529297 L 1590.4189453125 110.32213592529297 L 1590.4189453125 787.272705078125 L 1498.95947265625 787.272705078125 L 1498.95947265625 110.32213592529297" fill-opacity="1" clip-path="url(#VbVuWrPNFchd)" stroke-opacity="1" stroke-linejoin="bevel" stroke-miterlimit="10" stroke-dasharray=""/><path fill="none" stroke="rgb(0,0,0)" paint-order="fill" d="M 91.5 824.5 L 1595.5 824.5" stroke-opacity="1" stroke-linejoin="bevel" stroke-miterlimit="10" stroke-dasharray=""/><path fill="none" stroke="rgb(0,0,0)" paint-order="fill" d="" stroke-opacity="1" stroke-linejoin="bevel" stroke-miterlimit="10" stroke-dasharray=""/><text fill="rgb(128,128,128)" stroke="none" font-family="helvetica" font-size="24px" font-style="normal" font-weight="bold" text-decoration="normal" x="287.5682554244995" y="853" text-anchor="start" dominant-baseline="alphabetic" transform="matrix(1, 0, 0, 1, 0.5, 0.5)" fill-opacity="1">5</text><text fill="rgb(128,128,128)" stroke="none" font-family="helvetica" font-size="24px" font-style="normal" font-weight="bold" text-decoration="normal" x="836.3249998092651" y="853" text-anchor="start" dominant-baseline="alphabetic" transform="matrix(1, 0, 0, 1, 0.5, 0.5)" fill-opacity="1">6</text><text fill="rgb(128,128,128)" stroke="none" font-family="helvetica" font-size="24px" font-style="normal" font-weight="bold" text-decoration="normal" x="1385.0817136764526" y="853" text-anchor="start" dominant-baseline="alphabetic" transform="matrix(1, 0, 0, 1, 0.5, 0.5)" fill-opacity="1">7</text><text fill="rgb(68,68,68)" stroke="none" font-family="helvetica" font-size="30px" font-style="italic" font-weight="normal" text-decoration="normal" x="755.5999984741211" y="890" text-anchor="start" dominant-baseline="alphabetic" transform="matrix(1, 0, 0, 1, 0.5, 0.5)" fill-opacity="1">length alleles</text><path fill="none" stroke="rgb(211,211,211)" paint-order="fill" d="M 569.5 844.5 L 569.5 827.5 M 1117.5 844.5 L 1117.5 827.5" stroke-opacity="1" stroke-linejoin="bevel" stroke-miterlimit="10" stroke-width="2" stroke-dasharray=""/><path fill="none" stroke="rgb(0,0,0)" paint-order="fill" d="M 91.5 824.5 L 91.5 5.5" stroke-opacity="1" stroke-linejoin="bevel" stroke-miterlimit="10" stroke-dasharray=""/><path fill="none" stroke="rgb(0,0,0)" paint-order="fill" d="M 85.5 787.5 L 93.5 787.5 M 85.5 653.5 L 93.5 653.5 M 85.5 519.5 L 93.5 519.5 M 85.5 384.5 L 93.5 384.5 M 85.5 250.5 L 93.5 250.5 M 85.5 116.5 L 93.5 116.5" stroke-opacity="1" stroke-linejoin="bevel" stroke-miterlimit="10" stroke-dasharray=""/><path fill="none" stroke="rgb(0,0,0)" paint-order="fill" d="M 87.5 814.5 L 91.5 814.5 M 87.5 787.5 L 91.5 787.5 M 87.5 760.5 L 91.5 760.5 M 87.5 733.5 L 91.5 733.5 M 87.5 706.5 L 91.5 706.5 M 87.5 679.5 L 91.5 679.5 M 87.5 653.5 L 91.5 653.5 M 87.5 626.5 L 91.5 626.5 M 87.5 599.5 L 91.5 599.5 M 87.5 572.5 L 91.5 572.5 M 87.5 545.5 L 91.5 545.5 M 87.5 519.5 L 91.5 519.5 M 87.5 492.5 L 91.5 492.5 M 87.5 465.5 L 91.5 465.5 M 87.5 438.5 L 91.5 438.5 M 87.5 411.5 L 91.5 411.5 M 87.5 384.5 L 91.5 384.5 M 87.5 358.5 L 91.5 358.5 M 87.5 331.5 L 91.5 331.5 M 87.5 304.5 L 91.5 304.5 M 87.5 277.5 L 91.5 277.5 M 87.5 250.5 L 91.5 250.5 M 87.5 224.5 L 91.5 224.5 M 87.5 197.5 L 91.5 197.5 M 87.5 170.5 L 91.5 170.5 M 87.5 143.5 L 91.5 143.5 M 87.5 116.5 L 91.5 116.5 M 87.5 89.5 L 91.5 89.5 M 87.5 63.5 L 91.5 63.5 M 87.5 36.5 L 91.5 36.5 M 87.5 9.5 L 91.5 9.5" stroke-opacity="1" stroke-linejoin="bevel" stroke-miterlimit="10" stroke-dasharray=""/><text fill="rgb(68,68,68)" stroke="none" font-family="helvetica" font-size="24px" font-style="normal" font-weight="normal" text-decoration="normal" x="66.64999961853027" y="795.772705078125" text-anchor="start" dominant-baseline="alphabetic" transform="matrix(1, 0, 0, 1, 0.5, 0.5)" fill-opacity="1">0</text><text fill="rgb(68,68,68)" stroke="none" font-family="helvetica" font-size="24px" font-style="normal" font-weight="normal" text-decoration="normal" x="46.63333511352539" y="661.6646728515625" text-anchor="start" dominant-baseline="alphabetic" transform="matrix(1, 0, 0, 1, 0.5, 0.5)" fill-opacity="1">0.1</text><text fill="rgb(68,68,68)" stroke="none" font-family="helvetica" font-size="24px" font-style="normal" font-weight="normal" text-decoration="normal" x="46.63333511352539" y="527.556640625" text-anchor="start" dominant-baseline="alphabetic" transform="matrix(1, 0, 0, 1, 0.5, 0.5)" fill-opacity="1">0.2</text><text fill="rgb(68,68,68)" stroke="none" font-family="helvetica" font-size="24px" font-style="normal" font-weight="normal" text-decoration="normal" x="46.63333511352539" y="393.4486083984375" text-anchor="start" dominant-baseline="alphabetic" transform="matrix(1, 0, 0, 1, 0.5, 0.5)" fill-opacity="1">0.3</text><text fill="rgb(68,68,68)" stroke="none" font-family="helvetica" font-size="24px" font-style="normal" font-weight="normal" text-decoration="normal" x="46.63333511352539" y="259.34059143066406" text-anchor="start" dominant-baseline="alphabetic" transform="matrix(1, 0, 0, 1, 0.5, 0.5)" fill-opacity="1">0.4</text><text fill="rgb(68,68,68)" stroke="none" font-family="helvetica" font-size="24px" font-style="normal" font-weight="normal" text-decoration="normal" x="46.63333511352539" y="125.23255157470703" text-anchor="start" dominant-baseline="alphabetic" transform="matrix(1, 0, 0, 1, 0.5, 0.5)" fill-opacity="1">0.5</text><text fill="rgb(68,68,68)" stroke="none" font-family="helvetica" font-size="30px" font-style="italic" font-weight="normal" text-decoration="normal" x="-65.95000076293945" y="407.5" text-anchor="start" dominant-baseline="alphabetic" transform="matrix(6.123233995736766e-17, -1, 1, 6.123233995736766e-17, -375.3666648864746, 453.6333351135254)" fill-opacity="1">allele frequency</text><path fill="rgb(255,255,255)" stroke="rgb(229,229,229)" paint-order="fill" d="M 1372.7833404541016 15.5 L 1585.5 15.5 L 1585.5 188.5 L 1372.7833404541016 188.5 L 1372.7833404541016 15.5" fill-opacity="0.9490196078431372" clip-path="url(#CWeIyAGTwsIT)" stroke-opacity="0.5019607843137255" stroke-linejoin="bevel" stroke-miterlimit="10" stroke-dasharray=""/><g clip-path="url(#CWeIyAGTwsIT)"><text fill="rgb(68,68,68)" stroke="none" font-family="helvetica" font-size="30px" font-style="normal" font-weight="normal" text-decoration="normal" x="1407.2833404541016" y="43" text-anchor="start" dominant-baseline="central" transform="matrix(1, 0, 0, 1, 0.5, 0.5)" fill-opacity="1">White British</text></g><path fill="rgb(0,114,178)" stroke="rgb(31,119,180)" paint-order="fill" d="M 1384.7833404541016 27.5 L 1400.7833404541016 27.5 L 1400.7833404541016 43.5 L 1384.7833404541016 43.5 L 1384.7833404541016 27.5" fill-opacity="1" clip-path="url(#CWeIyAGTwsIT)" stroke-opacity="1" stroke-linejoin="bevel" stroke-miterlimit="10" stroke-dasharray=""/><g clip-path="url(#CWeIyAGTwsIT)"><text fill="rgb(68,68,68)" stroke="none" font-family="helvetica" font-size="30px" font-style="normal" font-weight="normal" text-decoration="normal" x="1407.2833404541016" y="82" text-anchor="start" dominant-baseline="central" transform="matrix(1, 0, 0, 1, 0.5, 0.5)" fill-opacity="1">Black</text></g><path fill="rgb(230,159,0)" stroke="rgb(31,119,180)" paint-order="fill" d="M 1384.7833404541016 66.5 L 1400.7833404541016 66.5 L 1400.7833404541016 82.5 L 1384.7833404541016 82.5 L 1384.7833404541016 66.5" fill-opacity="1" clip-path="url(#CWeIyAGTwsIT)" stroke-opacity="1" stroke-linejoin="bevel" stroke-miterlimit="10" stroke-dasharray=""/><g clip-path="url(#CWeIyAGTwsIT)"><text fill="rgb(68,68,68)" stroke="none" font-family="helvetica" font-size="30px" font-style="normal" font-weight="normal" text-decoration="normal" x="1407.2833404541016" y="121" text-anchor="start" dominant-baseline="central" transform="matrix(1, 0, 0, 1, 0.5, 0.5)" fill-opacity="1">South Asian</text></g><path fill="rgb(240,228,66)" stroke="rgb(31,119,180)" paint-order="fill" d="M 1384.7833404541016 105.5 L 1400.7833404541016 105.5 L 1400.7833404541016 121.5 L 1384.7833404541016 121.5 L 1384.7833404541016 105.5" fill-opacity="1" clip-path="url(#CWeIyAGTwsIT)" stroke-opacity="1" stroke-linejoin="bevel" stroke-miterlimit="10" stroke-dasharray=""/><g clip-path="url(#CWeIyAGTwsIT)"><text fill="rgb(68,68,68)" stroke="none" font-family="helvetica" font-size="30px" font-style="normal" font-weight="normal" text-decoration="normal" x="1407.2833404541016" y="160" text-anchor="start" dominant-baseline="central" transform="matrix(1, 0, 0, 1, 0.5, 0.5)" fill-opacity="1">Chinese</text></g><path fill="rgb(0,158,115)" stroke="rgb(31,119,180)" paint-order="fill" d="M 1384.7833404541016 144.5 L 1400.7833404541016 144.5 L 1400.7833404541016 160.5 L 1384.7833404541016 160.5 L 1384.7833404541016 144.5" fill-opacity="1" clip-path="url(#CWeIyAGTwsIT)" stroke-opacity="1" stroke-linejoin="bevel" stroke-miterlimit="10" stroke-dasharray=""/></svg>