<svg version="1.1" xmlns="http://www.w3.org/2000/svg" width="1200" height="900"><defs><clipPath id="VamhLgkBdnVQ"><path fill="none" stroke="none" d="M 147.5 5.5 L 1195.5 5.5 L 1195.5 814.5 L 147.5 814.5 L 147.5 5.5"/></clipPath><clipPath id="DoeXuVMLCZVk"><path fill="none" stroke="none" d="M 147.5 5.5 L 1195.5 5.5 L 1195.5 814.5 L 147.5 814.5 L 147.5 5.5"/></clipPath><clipPath id="wAFFOVSBRMNR"><path fill="none" stroke="none" d="M 147.5 5.5 L 1195.5 5.5 L 1195.5 814.5 L 147.5 814.5 L 147.5 5.5"/></clipPath><clipPath id="yNHOiKmlFWFg"><path fill="none" stroke="none" d="M 147.5 5.5 L 1195.5 5.5 L 1195.5 814.5 L 147.5 814.5 L 147.5 5.5"/></clipPath></defs><path fill="none" stroke="rgb(229,229,229)" paint-order="fill" d="M 147.5 5.5 L 1195.5 5.5 L 1195.5 814.5 L 147.5 814.5 L 147.5 5.5" stroke-opacity="1" stroke-linejoin="bevel" stroke-miterlimit="10" stroke-dasharray=""/><path fill="rgb(31,119,180)" stroke="rgb(31,119,180)" paint-order="fill" d="M 195.13636779785156 42.272727966308594 L 204.66363525390625 42.272727966308594 L 204.66363525390625 777.727294921875 L 195.13636779785156 777.727294921875 L 195.13636779785156 42.272727966308594" fill-opacity="1" clip-path="url(#wAFFOVSBRMNR)" stroke-opacity="1" stroke-linejoin="bevel" stroke-miterlimit="10" stroke-dasharray=""/><path fill="rgb(31,119,180)" stroke="rgb(31,119,180)" paint-order="fill" d="M 204.66363525390625 771.0526733398438 L 214.19090270996094 771.0526733398438 L 214.19090270996094 777.727294921875 L 204.66363525390625 777.727294921875 L 204.66363525390625 771.0526733398438" fill-opacity="1" clip-path="url(#wAFFOVSBRMNR)" stroke-opacity="1" stroke-linejoin="bevel" stroke-miterlimit="10" stroke-dasharray=""/><path fill="rgb(31,119,180)" stroke="rgb(31,119,180)" paint-order="fill" d="M 214.19090270996094 775.0534057617188 L 223.7181854248047 775.0534057617188 L 223.7181854248047 777.727294921875 L 214.19090270996094 777.727294921875 L 214.19090270996094 775.0534057617188" fill-opacity="1" clip-path="url(#wAFFOVSBRMNR)" stroke-opacity="1" stroke-linejoin="bevel" stroke-miterlimit="10" stroke-dasharray=""/><path fill="rgb(31,119,180)" stroke="rgb(31,119,180)" paint-order="fill" d="M 223.7181854248047 775.9782104492188 L 233.24545288085938 775.9782104492188 L 233.24545288085938 777.727294921875 L 223.7181854248047 777.727294921875 L 223.7181854248047 775.9782104492188" fill-opacity="1" clip-path="url(#wAFFOVSBRMNR)" stroke-opacity="1" stroke-linejoin="bevel" stroke-miterlimit="10" stroke-dasharray=""/><path fill="rgb(31,119,180)" stroke="rgb(31,119,180)" paint-order="fill" d="M 233.24545288085938 776.1993408203125 L 242.77272033691406 776.1993408203125 L 242.77272033691406 777.727294921875 L 233.24545288085938 777.727294921875 L 233.24545288085938 776.1993408203125" fill-opacity="1" clip-path="url(#wAFFOVSBRMNR)" stroke-opacity="1" stroke-linejoin="bevel" stroke-miterlimit="10" stroke-dasharray=""/><path fill="rgb(31,119,180)" stroke="rgb(31,119,180)" paint-order="fill" d="M 242.77272033691406 776.581298828125 L 252.3000030517578 776.581298828125 L 252.3000030517578 777.727294921875 L 242.77272033691406 777.727294921875 L 242.77272033691406 776.581298828125" fill-opacity="1" clip-path="url(#wAFFOVSBRMNR)" stroke-opacity="1" stroke-linejoin="bevel" stroke-miterlimit="10" stroke-dasharray=""/><path fill="rgb(31,119,180)" stroke="rgb(31,119,180)" paint-order="fill" d="M 252.3000030517578 776.9431762695312 L 261.8272705078125 776.9431762695312 L 261.8272705078125 777.727294921875 L 252.3000030517578 777.727294921875 L 252.3000030517578 776.9431762695312" fill-opacity="1" clip-path="url(#wAFFOVSBRMNR)" stroke-opacity="1" stroke-linejoin="bevel" stroke-miterlimit="10" stroke-dasharray=""/><path fill="rgb(31,119,180)" stroke="rgb(31,119,180)" paint-order="fill" d="M 261.8272705078125 777.1040649414062 L 271.35455322265625 777.1040649414062 L 271.35455322265625 777.727294921875 L 261.8272705078125 777.727294921875 L 261.8272705078125 777.1040649414062" fill-opacity="1" clip-path="url(#wAFFOVSBRMNR)" stroke-opacity="1" stroke-linejoin="bevel" stroke-miterlimit="10" stroke-dasharray=""/><path fill="rgb(31,119,180)" stroke="rgb(31,119,180)" paint-order="fill" d="M 271.35455322265625 776.9633178710938 L 280.8818054199219 776.9633178710938 L 280.8818054199219 777.727294921875 L 271.35455322265625 777.727294921875 L 271.35455322265625 776.9633178710938" fill-opacity="1" clip-path="url(#wAFFOVSBRMNR)" stroke-opacity="1" stroke-linejoin="bevel" stroke-miterlimit="10" stroke-dasharray=""/><path fill="rgb(31,119,180)" stroke="rgb(31,119,180)" paint-order="fill" d="M 280.8818054199219 777.0236206054688 L 290.4090881347656 777.0236206054688 L 290.4090881347656 777.727294921875 L 280.8818054199219 777.727294921875 L 280.8818054199219 777.0236206054688" fill-opacity="1" clip-path="url(#wAFFOVSBRMNR)" stroke-opacity="1" stroke-linejoin="bevel" stroke-miterlimit="10" stroke-dasharray=""/><path fill="rgb(31,119,180)" stroke="rgb(31,119,180)" paint-order="fill" d="M 290.4090881347656 777.1643676757812 L 299.9363708496094 777.1643676757812 L 299.9363708496094 777.727294921875 L 290.4090881347656 777.727294921875 L 290.4090881347656 777.1643676757812" fill-opacity="1" clip-path="url(#wAFFOVSBRMNR)" stroke-opacity="1" stroke-linejoin="bevel" stroke-miterlimit="10" stroke-dasharray=""/><path fill="rgb(31,119,180)" stroke="rgb(31,119,180)" paint-order="fill" d="M 299.9363708496094 776.9633178710938 L 309.463623046875 776.9633178710938 L 309.463623046875 777.727294921875 L 299.9363708496094 777.727294921875 L 299.9363708496094 776.9633178710938" fill-opacity="1" clip-path="url(#wAFFOVSBRMNR)" stroke-opacity="1" stroke-linejoin="bevel" stroke-miterlimit="10" stroke-dasharray=""/><path fill="rgb(31,119,180)" stroke="rgb(31,119,180)" paint-order="fill" d="M 309.463623046875 777.2447509765625 L 318.99090576171875 777.2447509765625 L 318.99090576171875 777.727294921875 L 309.463623046875 777.727294921875 L 309.463623046875 777.2447509765625" fill-opacity="1" clip-path="url(#wAFFOVSBRMNR)" stroke-opacity="1" stroke-linejoin="bevel" stroke-miterlimit="10" stroke-dasharray=""/><path fill="rgb(31,119,180)" stroke="rgb(31,119,180)" paint-order="fill" d="M 318.99090576171875 777.1643676757812 L 328.5181884765625 777.1643676757812 L 328.5181884765625 777.727294921875 L 318.99090576171875 777.727294921875 L 318.99090576171875 777.1643676757812" fill-opacity="1" clip-path="url(#wAFFOVSBRMNR)" stroke-opacity="1" stroke-linejoin="bevel" stroke-miterlimit="10" stroke-dasharray=""/><path fill="rgb(31,119,180)" stroke="rgb(31,119,180)" paint-order="fill" d="M 328.5181884765625 777.1844482421875 L 338.0454406738281 777.1844482421875 L 338.0454406738281 777.727294921875 L 328.5181884765625 777.727294921875 L 328.5181884765625 777.1844482421875" fill-opacity="1" clip-path="url(#wAFFOVSBRMNR)" stroke-opacity="1" stroke-linejoin="bevel" stroke-miterlimit="10" stroke-dasharray=""/><path fill="rgb(31,119,180)" stroke="rgb(31,119,180)" paint-order="fill" d="M 338.0454406738281 777.1643676757812 L 347.5727233886719 777.1643676757812 L 347.5727233886719 777.727294921875 L 338.0454406738281 777.727294921875 L 338.0454406738281 777.1643676757812" fill-opacity="1" clip-path="url(#wAFFOVSBRMNR)" stroke-opacity="1" stroke-linejoin="bevel" stroke-miterlimit="10" stroke-dasharray=""/><path fill="rgb(31,119,180)" stroke="rgb(31,119,180)" paint-order="fill" d="M 347.5727233886719 777.3251953125 L 357.1000061035156 777.3251953125 L 357.1000061035156 777.727294921875 L 347.5727233886719 777.727294921875 L 347.5727233886719 777.3251953125" fill-opacity="1" clip-path="url(#wAFFOVSBRMNR)" stroke-opacity="1" stroke-linejoin="bevel" stroke-miterlimit="10" stroke-dasharray=""/><path fill="rgb(31,119,180)" stroke="rgb(31,119,180)" paint-order="fill" d="M 357.1000061035156 777.1442260742188 L 366.62725830078125 777.1442260742188 L 366.62725830078125 777.727294921875 L 357.1000061035156 777.727294921875 L 357.1000061035156 777.1442260742188" fill-opacity="1" clip-path="url(#wAFFOVSBRMNR)" stroke-opacity="1" stroke-linejoin="bevel" stroke-miterlimit="10" stroke-dasharray=""/><path fill="rgb(31,119,180)" stroke="rgb(31,119,180)" paint-order="fill" d="M 366.62725830078125 777.043701171875 L 376.154541015625 777.043701171875 L 376.154541015625 777.727294921875 L 366.62725830078125 777.727294921875 L 366.62725830078125 777.043701171875" fill-opacity="1" clip-path="url(#wAFFOVSBRMNR)" stroke-opacity="1" stroke-linejoin="bevel" stroke-miterlimit="10" stroke-dasharray=""/><path fill="rgb(31,119,180)" stroke="rgb(31,119,180)" paint-order="fill" d="M 376.154541015625 777.2849731445312 L 385.68182373046875 777.2849731445312 L 385.68182373046875 777.727294921875 L 376.154541015625 777.727294921875 L 376.154541015625 777.2849731445312" fill-opacity="1" clip-path="url(#wAFFOVSBRMNR)" stroke-opacity="1" stroke-linejoin="bevel" stroke-miterlimit="10" stroke-dasharray=""/><path fill="rgb(31,119,180)" stroke="rgb(31,119,180)" paint-order="fill" d="M 385.68182373046875 777.1844482421875 L 395.2090759277344 777.1844482421875 L 395.2090759277344 777.727294921875 L 385.68182373046875 777.727294921875 L 385.68182373046875 777.1844482421875" fill-opacity="1" clip-path="url(#wAFFOVSBRMNR)" stroke-opacity="1" stroke-linejoin="bevel" stroke-miterlimit="10" stroke-dasharray=""/><path fill="rgb(31,119,180)" stroke="rgb(31,119,180)" paint-order="fill" d="M 395.2090759277344 777.0236206054688 L 404.7363586425781 777.0236206054688 L 404.7363586425781 777.727294921875 L 395.2090759277344 777.727294921875 L 395.2090759277344 777.0236206054688" fill-opacity="1" clip-path="url(#wAFFOVSBRMNR)" stroke-opacity="1" stroke-linejoin="bevel" stroke-miterlimit="10" stroke-dasharray=""/><path fill="rgb(31,119,180)" stroke="rgb(31,119,180)" paint-order="fill" d="M 404.7363586425781 777.1241455078125 L 414.2636413574219 777.1241455078125 L 414.2636413574219 777.727294921875 L 404.7363586425781 777.727294921875 L 404.7363586425781 777.1241455078125" fill-opacity="1" clip-path="url(#wAFFOVSBRMNR)" stroke-opacity="1" stroke-linejoin="bevel" stroke-miterlimit="10" stroke-dasharray=""/><path fill="rgb(31,119,180)" stroke="rgb(31,119,180)" paint-order="fill" d="M 414.2636413574219 777.1844482421875 L 423.7909240722656 777.1844482421875 L 423.7909240722656 777.727294921875 L 414.2636413574219 777.727294921875 L 414.2636413574219 777.1844482421875" fill-opacity="1" clip-path="url(#wAFFOVSBRMNR)" stroke-opacity="1" stroke-linejoin="bevel" stroke-miterlimit="10" stroke-dasharray=""/><path fill="rgb(31,119,180)" stroke="rgb(31,119,180)" paint-order="fill" d="M 423.7909240722656 777.1844482421875 L 433.31817626953125 777.1844482421875 L 433.31817626953125 777.727294921875 L 423.7909240722656 777.727294921875 L 423.7909240722656 777.1844482421875" fill-opacity="1" clip-path="url(#wAFFOVSBRMNR)" stroke-opacity="1" stroke-linejoin="bevel" stroke-miterlimit="10" stroke-dasharray=""/><path fill="rgb(31,119,180)" stroke="rgb(31,119,180)" paint-order="fill" d="M 433.31817626953125 776.9633178710938 L 442.845458984375 776.9633178710938 L 442.845458984375 777.727294921875 L 433.31817626953125 777.727294921875 L 433.31817626953125 776.9633178710938" fill-opacity="1" clip-path="url(#wAFFOVSBRMNR)" stroke-opacity="1" stroke-linejoin="bevel" stroke-miterlimit="10" stroke-dasharray=""/><path fill="rgb(31,119,180)" stroke="rgb(31,119,180)" paint-order="fill" d="M 442.845458984375 776.9030151367188 L 452.37274169921875 776.9030151367188 L 452.37274169921875 777.727294921875 L 442.845458984375 777.727294921875 L 442.845458984375 776.9030151367188" fill-opacity="1" clip-path="url(#wAFFOVSBRMNR)" stroke-opacity="1" stroke-linejoin="bevel" stroke-miterlimit="10" stroke-dasharray=""/><path fill="rgb(31,119,180)" stroke="rgb(31,119,180)" paint-order="fill" d="M 452.37274169921875 776.9431762695312 L 461.8999938964844 776.9431762695312 L 461.8999938964844 777.727294921875 L 452.37274169921875 777.727294921875 L 452.37274169921875 776.9431762695312" fill-opacity="1" clip-path="url(#wAFFOVSBRMNR)" stroke-opacity="1" stroke-linejoin="bevel" stroke-miterlimit="10" stroke-dasharray=""/><path fill="rgb(31,119,180)" stroke="rgb(31,119,180)" paint-order="fill" d="M 461.8999938964844 776.9633178710938 L 471.4272766113281 776.9633178710938 L 471.4272766113281 777.727294921875 L 461.8999938964844 777.727294921875 L 461.8999938964844 776.9633178710938" fill-opacity="1" clip-path="url(#wAFFOVSBRMNR)" stroke-opacity="1" stroke-linejoin="bevel" stroke-miterlimit="10" stroke-dasharray=""/><path fill="rgb(31,119,180)" stroke="rgb(31,119,180)" paint-order="fill" d="M 471.4272766113281 777.1442260742188 L 480.9545593261719 777.1442260742188 L 480.9545593261719 777.727294921875 L 471.4272766113281 777.727294921875 L 471.4272766113281 777.1442260742188" fill-opacity="1" clip-path="url(#wAFFOVSBRMNR)" stroke-opacity="1" stroke-linejoin="bevel" stroke-miterlimit="10" stroke-dasharray=""/><path fill="rgb(31,119,180)" stroke="rgb(31,119,180)" paint-order="fill" d="M 480.9545593261719 776.6818237304688 L 490.4818115234375 776.6818237304688 L 490.4818115234375 777.727294921875 L 480.9545593261719 777.727294921875 L 480.9545593261719 776.6818237304688" fill-opacity="1" clip-path="url(#wAFFOVSBRMNR)" stroke-opacity="1" stroke-linejoin="bevel" stroke-miterlimit="10" stroke-dasharray=""/><path fill="rgb(31,119,180)" stroke="rgb(31,119,180)" paint-order="fill" d="M 490.4818115234375 776.9633178710938 L 500.00909423828125 776.9633178710938 L 500.00909423828125 777.727294921875 L 490.4818115234375 777.727294921875 L 490.4818115234375 776.9633178710938" fill-opacity="1" clip-path="url(#wAFFOVSBRMNR)" stroke-opacity="1" stroke-linejoin="bevel" stroke-miterlimit="10" stroke-dasharray=""/><path fill="rgb(31,119,180)" stroke="rgb(31,119,180)" paint-order="fill" d="M 500.00909423828125 776.9030151367188 L 509.536376953125 776.9030151367188 L 509.536376953125 777.727294921875 L 500.00909423828125 777.727294921875 L 500.00909423828125 776.9030151367188" fill-opacity="1" clip-path="url(#wAFFOVSBRMNR)" stroke-opacity="1" stroke-linejoin="bevel" stroke-miterlimit="10" stroke-dasharray=""/><path fill="rgb(31,119,180)" stroke="rgb(31,119,180)" paint-order="fill" d="M 509.536376953125 776.7421875 L 519.0636596679688 776.7421875 L 519.0636596679688 777.727294921875 L 509.536376953125 777.727294921875 L 509.536376953125 776.7421875" fill-opacity="1" clip-path="url(#wAFFOVSBRMNR)" stroke-opacity="1" stroke-linejoin="bevel" stroke-miterlimit="10" stroke-dasharray=""/><path fill="rgb(31,119,180)" stroke="rgb(31,119,180)" paint-order="fill" d="M 519.0636596679688 776.400390625 L 528.5908813476562 776.400390625 L 528.5908813476562 777.727294921875 L 519.0636596679688 777.727294921875 L 519.0636596679688 776.400390625" fill-opacity="1" clip-path="url(#wAFFOVSBRMNR)" stroke-opacity="1" stroke-linejoin="bevel" stroke-miterlimit="10" stroke-dasharray=""/><path fill="rgb(31,119,180)" stroke="rgb(31,119,180)" paint-order="fill" d="M 528.5908813476562 776.7019653320312 L 538.1181640625 776.7019653320312 L 538.1181640625 777.727294921875 L 528.5908813476562 777.727294921875 L 528.5908813476562 776.7019653320312" fill-opacity="1" clip-path="url(#wAFFOVSBRMNR)" stroke-opacity="1" stroke-linejoin="bevel" stroke-miterlimit="10" stroke-dasharray=""/><path fill="rgb(31,119,180)" stroke="rgb(31,119,180)" paint-order="fill" d="M 538.1181640625 776.9030151367188 L 547.6454467773438 776.9030151367188 L 547.6454467773438 777.727294921875 L 538.1181640625 777.727294921875 L 538.1181640625 776.9030151367188" fill-opacity="1" clip-path="url(#wAFFOVSBRMNR)" stroke-opacity="1" stroke-linejoin="bevel" stroke-miterlimit="10" stroke-dasharray=""/><path fill="rgb(31,119,180)" stroke="rgb(31,119,180)" paint-order="fill" d="M 547.6454467773438 776.3199462890625 L 557.1727294921875 776.3199462890625 L 557.1727294921875 777.727294921875 L 547.6454467773438 777.727294921875 L 547.6454467773438 776.3199462890625" fill-opacity="1" clip-path="url(#wAFFOVSBRMNR)" stroke-opacity="1" stroke-linejoin="bevel" stroke-miterlimit="10" stroke-dasharray=""/><path fill="rgb(31,119,180)" stroke="rgb(31,119,180)" paint-order="fill" d="M 557.1727294921875 776.5411376953125 L 566.7000122070312 776.5411376953125 L 566.7000122070312 777.727294921875 L 557.1727294921875 777.727294921875 L 557.1727294921875 776.5411376953125" fill-opacity="1" clip-path="url(#wAFFOVSBRMNR)" stroke-opacity="1" stroke-linejoin="bevel" stroke-miterlimit="10" stroke-dasharray=""/><path fill="rgb(31,119,180)" stroke="rgb(31,119,180)" paint-order="fill" d="M 566.7000122070312 776.5612182617188 L 576.227294921875 776.5612182617188 L 576.227294921875 777.727294921875 L 566.7000122070312 777.727294921875 L 566.7000122070312 776.5612182617188" fill-opacity="1" clip-path="url(#wAFFOVSBRMNR)" stroke-opacity="1" stroke-linejoin="bevel" stroke-miterlimit="10" stroke-dasharray=""/><path fill="rgb(31,119,180)" stroke="rgb(31,119,180)" paint-order="fill" d="M 576.227294921875 776.3601684570312 L 585.7545166015625 776.3601684570312 L 585.7545166015625 777.727294921875 L 576.227294921875 777.727294921875 L 576.227294921875 776.3601684570312" fill-opacity="1" clip-path="url(#wAFFOVSBRMNR)" stroke-opacity="1" stroke-linejoin="bevel" stroke-miterlimit="10" stroke-dasharray=""/><path fill="rgb(31,119,180)" stroke="rgb(31,119,180)" paint-order="fill" d="M 585.7545166015625 776.5411376953125 L 595.2817993164062 776.5411376953125 L 595.2817993164062 777.727294921875 L 585.7545166015625 777.727294921875 L 585.7545166015625 776.5411376953125" fill-opacity="1" clip-path="url(#wAFFOVSBRMNR)" stroke-opacity="1" stroke-linejoin="bevel" stroke-miterlimit="10" stroke-dasharray=""/><path fill="rgb(31,119,180)" stroke="rgb(31,119,180)" paint-order="fill" d="M 595.2817993164062 776.3803100585938 L 604.80908203125 776.3803100585938 L 604.80908203125 777.727294921875 L 595.2817993164062 777.727294921875 L 595.2817993164062 776.3803100585938" fill-opacity="1" clip-path="url(#wAFFOVSBRMNR)" stroke-opacity="1" stroke-linejoin="bevel" stroke-miterlimit="10" stroke-dasharray=""/><path fill="rgb(31,119,180)" stroke="rgb(31,119,180)" paint-order="fill" d="M 604.80908203125 776.3803100585938 L 614.3363647460938 776.3803100585938 L 614.3363647460938 777.727294921875 L 604.80908203125 777.727294921875 L 604.80908203125 776.3803100585938" fill-opacity="1" clip-path="url(#wAFFOVSBRMNR)" stroke-opacity="1" stroke-linejoin="bevel" stroke-miterlimit="10" stroke-dasharray=""/><path fill="rgb(31,119,180)" stroke="rgb(31,119,180)" paint-order="fill" d="M 614.3363647460938 776.2395629882812 L 623.8636474609375 776.2395629882812 L 623.8636474609375 777.727294921875 L 614.3363647460938 777.727294921875 L 614.3363647460938 776.2395629882812" fill-opacity="1" clip-path="url(#wAFFOVSBRMNR)" stroke-opacity="1" stroke-linejoin="bevel" stroke-miterlimit="10" stroke-dasharray=""/><path fill="rgb(31,119,180)" stroke="rgb(31,119,180)" paint-order="fill" d="M 623.8636474609375 776.219482421875 L 633.3909301757812 776.219482421875 L 633.3909301757812 777.727294921875 L 623.8636474609375 777.727294921875 L 623.8636474609375 776.219482421875" fill-opacity="1" clip-path="url(#wAFFOVSBRMNR)" stroke-opacity="1" stroke-linejoin="bevel" stroke-miterlimit="10" stroke-dasharray=""/><path fill="rgb(31,119,180)" stroke="rgb(31,119,180)" paint-order="fill" d="M 633.3909301757812 776.1993408203125 L 642.9181518554688 776.1993408203125 L 642.9181518554688 777.727294921875 L 633.3909301757812 777.727294921875 L 633.3909301757812 776.1993408203125" fill-opacity="1" clip-path="url(#wAFFOVSBRMNR)" stroke-opacity="1" stroke-linejoin="bevel" stroke-miterlimit="10" stroke-dasharray=""/><path fill="rgb(31,119,180)" stroke="rgb(31,119,180)" paint-order="fill" d="M 642.9181518554688 775.5158081054688 L 652.4454345703125 775.5158081054688 L 652.4454345703125 777.727294921875 L 642.9181518554688 777.727294921875 L 642.9181518554688 775.5158081054688" fill-opacity="1" clip-path="url(#wAFFOVSBRMNR)" stroke-opacity="1" stroke-linejoin="bevel" stroke-miterlimit="10" stroke-dasharray=""/><path fill="rgb(31,119,180)" stroke="rgb(31,119,180)" paint-order="fill" d="M 652.4454345703125 776.219482421875 L 661.9727172851562 776.219482421875 L 661.9727172851562 777.727294921875 L 652.4454345703125 777.727294921875 L 652.4454345703125 776.219482421875" fill-opacity="1" clip-path="url(#wAFFOVSBRMNR)" stroke-opacity="1" stroke-linejoin="bevel" stroke-miterlimit="10" stroke-dasharray=""/><path fill="rgb(31,119,180)" stroke="rgb(31,119,180)" paint-order="fill" d="M 661.9727172851562 776.0988159179688 L 671.5 776.0988159179688 L 671.5 777.727294921875 L 661.9727172851562 777.727294921875 L 661.9727172851562 776.0988159179688" fill-opacity="1" clip-path="url(#wAFFOVSBRMNR)" stroke-opacity="1" stroke-linejoin="bevel" stroke-miterlimit="10" stroke-dasharray=""/><path fill="rgb(31,119,180)" stroke="rgb(31,119,180)" paint-order="fill" d="M 671.5 775.8576049804688 L 681.0272827148438 775.8576049804688 L 681.0272827148438 777.727294921875 L 671.5 777.727294921875 L 671.5 775.8576049804688" fill-opacity="1" clip-path="url(#wAFFOVSBRMNR)" stroke-opacity="1" stroke-linejoin="bevel" stroke-miterlimit="10" stroke-dasharray=""/><path fill="rgb(31,119,180)" stroke="rgb(31,119,180)" paint-order="fill" d="M 681.0272827148438 775.4755859375 L 690.5545654296875 775.4755859375 L 690.5545654296875 777.727294921875 L 681.0272827148438 777.727294921875 L 681.0272827148438 775.4755859375" fill-opacity="1" clip-path="url(#wAFFOVSBRMNR)" stroke-opacity="1" stroke-linejoin="bevel" stroke-miterlimit="10" stroke-dasharray=""/><path fill="rgb(31,119,180)" stroke="rgb(31,119,180)" paint-order="fill" d="M 690.5545654296875 775.59619140625 L 700.0818481445312 775.59619140625 L 700.0818481445312 777.727294921875 L 690.5545654296875 777.727294921875 L 690.5545654296875 775.59619140625" fill-opacity="1" clip-path="url(#wAFFOVSBRMNR)" stroke-opacity="1" stroke-linejoin="bevel" stroke-miterlimit="10" stroke-dasharray=""/><path fill="rgb(31,119,180)" stroke="rgb(31,119,180)" paint-order="fill" d="M 700.0818481445312 775.4957275390625 L 709.6090698242188 775.4957275390625 L 709.6090698242188 777.727294921875 L 700.0818481445312 777.727294921875 L 700.0818481445312 775.4957275390625" fill-opacity="1" clip-path="url(#wAFFOVSBRMNR)" stroke-opacity="1" stroke-linejoin="bevel" stroke-miterlimit="10" stroke-dasharray=""/><path fill="rgb(31,119,180)" stroke="rgb(31,119,180)" paint-order="fill" d="M 709.6090698242188 775.2745361328125 L 719.1363525390625 775.2745361328125 L 719.1363525390625 777.727294921875 L 709.6090698242188 777.727294921875 L 709.6090698242188 775.2745361328125" fill-opacity="1" clip-path="url(#wAFFOVSBRMNR)" stroke-opacity="1" stroke-linejoin="bevel" stroke-miterlimit="10" stroke-dasharray=""/><path fill="rgb(31,119,180)" stroke="rgb(31,119,180)" paint-order="fill" d="M 719.1363525390625 775.2544555664062 L 728.6636352539062 775.2544555664062 L 728.6636352539062 777.727294921875 L 719.1363525390625 777.727294921875 L 719.1363525390625 775.2544555664062" fill-opacity="1" clip-path="url(#wAFFOVSBRMNR)" stroke-opacity="1" stroke-linejoin="bevel" stroke-miterlimit="10" stroke-dasharray=""/><path fill="rgb(31,119,180)" stroke="rgb(31,119,180)" paint-order="fill" d="M 728.6636352539062 775.6565551757812 L 738.19091796875 775.6565551757812 L 738.19091796875 777.727294921875 L 728.6636352539062 777.727294921875 L 728.6636352539062 775.6565551757812" fill-opacity="1" clip-path="url(#wAFFOVSBRMNR)" stroke-opacity="1" stroke-linejoin="bevel" stroke-miterlimit="10" stroke-dasharray=""/><path fill="rgb(31,119,180)" stroke="rgb(31,119,180)" paint-order="fill" d="M 738.19091796875 775.0333251953125 L 747.7182006835938 775.0333251953125 L 747.7182006835938 777.727294921875 L 738.19091796875 777.727294921875 L 738.19091796875 775.0333251953125" fill-opacity="1" clip-path="url(#wAFFOVSBRMNR)" stroke-opacity="1" stroke-linejoin="bevel" stroke-miterlimit="10" stroke-dasharray=""/><path fill="rgb(31,119,180)" stroke="rgb(31,119,180)" paint-order="fill" d="M 747.7182006835938 775.0333251953125 L 757.2454833984375 775.0333251953125 L 757.2454833984375 777.727294921875 L 747.7182006835938 777.727294921875 L 747.7182006835938 775.0333251953125" fill-opacity="1" clip-path="url(#wAFFOVSBRMNR)" stroke-opacity="1" stroke-linejoin="bevel" stroke-miterlimit="10" stroke-dasharray=""/><path fill="rgb(31,119,180)" stroke="rgb(31,119,180)" paint-order="fill" d="M 757.2454833984375 775.2544555664062 L 766.772705078125 775.2544555664062 L 766.772705078125 777.727294921875 L 757.2454833984375 777.727294921875 L 757.2454833984375 775.2544555664062" fill-opacity="1" clip-path="url(#wAFFOVSBRMNR)" stroke-opacity="1" stroke-linejoin="bevel" stroke-miterlimit="10" stroke-dasharray=""/><path fill="rgb(31,119,180)" stroke="rgb(31,119,180)" paint-order="fill" d="M 766.772705078125 774.7116088867188 L 776.2999877929688 774.7116088867188 L 776.2999877929688 777.727294921875 L 766.772705078125 777.727294921875 L 766.772705078125 774.7116088867188" fill-opacity="1" clip-path="url(#wAFFOVSBRMNR)" stroke-opacity="1" stroke-linejoin="bevel" stroke-miterlimit="10" stroke-dasharray=""/><path fill="rgb(31,119,180)" stroke="rgb(31,119,180)" paint-order="fill" d="M 776.2999877929688 775.1941528320312 L 785.8272705078125 775.1941528320312 L 785.8272705078125 777.727294921875 L 776.2999877929688 777.727294921875 L 776.2999877929688 775.1941528320312" fill-opacity="1" clip-path="url(#wAFFOVSBRMNR)" stroke-opacity="1" stroke-linejoin="bevel" stroke-miterlimit="10" stroke-dasharray=""/><path fill="rgb(31,119,180)" stroke="rgb(31,119,180)" paint-order="fill" d="M 785.8272705078125 774.6513061523438 L 795.3545532226562 774.6513061523438 L 795.3545532226562 777.727294921875 L 785.8272705078125 777.727294921875 L 785.8272705078125 774.6513061523438" fill-opacity="1" clip-path="url(#wAFFOVSBRMNR)" stroke-opacity="1" stroke-linejoin="bevel" stroke-miterlimit="10" stroke-dasharray=""/><path fill="rgb(31,119,180)" stroke="rgb(31,119,180)" paint-order="fill" d="M 795.3545532226562 774.55078125 L 804.8818359375 774.55078125 L 804.8818359375 777.727294921875 L 795.3545532226562 777.727294921875 L 795.3545532226562 774.55078125" fill-opacity="1" clip-path="url(#wAFFOVSBRMNR)" stroke-opacity="1" stroke-linejoin="bevel" stroke-miterlimit="10" stroke-dasharray=""/><path fill="rgb(31,119,180)" stroke="rgb(31,119,180)" paint-order="fill" d="M 804.8818359375 773.9476928710938 L 814.4091186523438 773.9476928710938 L 814.4091186523438 777.727294921875 L 804.8818359375 777.727294921875 L 804.8818359375 773.9476928710938" fill-opacity="1" clip-path="url(#wAFFOVSBRMNR)" stroke-opacity="1" stroke-linejoin="bevel" stroke-miterlimit="10" stroke-dasharray=""/><path fill="rgb(31,119,180)" stroke="rgb(31,119,180)" paint-order="fill" d="M 814.4091186523438 774.0079956054688 L 823.9363403320312 774.0079956054688 L 823.9363403320312 777.727294921875 L 814.4091186523438 777.727294921875 L 814.4091186523438 774.0079956054688" fill-opacity="1" clip-path="url(#wAFFOVSBRMNR)" stroke-opacity="1" stroke-linejoin="bevel" stroke-miterlimit="10" stroke-dasharray=""/><path fill="rgb(31,119,180)" stroke="rgb(31,119,180)" paint-order="fill" d="M 823.9363403320312 774.3296508789062 L 833.463623046875 774.3296508789062 L 833.463623046875 777.727294921875 L 823.9363403320312 777.727294921875 L 823.9363403320312 774.3296508789062" fill-opacity="1" clip-path="url(#wAFFOVSBRMNR)" stroke-opacity="1" stroke-linejoin="bevel" stroke-miterlimit="10" stroke-dasharray=""/><path fill="rgb(31,119,180)" stroke="rgb(31,119,180)" paint-order="fill" d="M 833.463623046875 774.5307006835938 L 842.9909057617188 774.5307006835938 L 842.9909057617188 777.727294921875 L 833.463623046875 777.727294921875 L 833.463623046875 774.5307006835938" fill-opacity="1" clip-path="url(#wAFFOVSBRMNR)" stroke-opacity="1" stroke-linejoin="bevel" stroke-miterlimit="10" stroke-dasharray=""/><path fill="rgb(31,119,180)" stroke="rgb(31,119,180)" paint-order="fill" d="M 842.9909057617188 773.7265014648438 L 852.5181884765625 773.7265014648438 L 852.5181884765625 777.727294921875 L 842.9909057617188 777.727294921875 L 842.9909057617188 773.7265014648438" fill-opacity="1" clip-path="url(#wAFFOVSBRMNR)" stroke-opacity="1" stroke-linejoin="bevel" stroke-miterlimit="10" stroke-dasharray=""/><path fill="rgb(31,119,180)" stroke="rgb(31,119,180)" paint-order="fill" d="M 852.5181884765625 773.786865234375 L 862.0454711914062 773.786865234375 L 862.0454711914062 777.727294921875 L 852.5181884765625 777.727294921875 L 852.5181884765625 773.786865234375" fill-opacity="1" clip-path="url(#wAFFOVSBRMNR)" stroke-opacity="1" stroke-linejoin="bevel" stroke-miterlimit="10" stroke-dasharray=""/><path fill="rgb(31,119,180)" stroke="rgb(31,119,180)" paint-order="fill" d="M 862.0454711914062 773.4249877929688 L 871.57275390625 773.4249877929688 L 871.57275390625 777.727294921875 L 862.0454711914062 777.727294921875 L 862.0454711914062 773.4249877929688" fill-opacity="1" clip-path="url(#wAFFOVSBRMNR)" stroke-opacity="1" stroke-linejoin="bevel" stroke-miterlimit="10" stroke-dasharray=""/><path fill="rgb(31,119,180)" stroke="rgb(31,119,180)" paint-order="fill" d="M 871.57275390625 772.8821411132812 L 881.0999755859375 772.8821411132812 L 881.0999755859375 777.727294921875 L 871.57275390625 777.727294921875 L 871.57275390625 772.8821411132812" fill-opacity="1" clip-path="url(#wAFFOVSBRMNR)" stroke-opacity="1" stroke-linejoin="bevel" stroke-miterlimit="10" stroke-dasharray=""/><path fill="rgb(31,119,180)" stroke="rgb(31,119,180)" paint-order="fill" d="M 881.0999755859375 773.0027465820312 L 890.6272583007812 773.0027465820312 L 890.6272583007812 777.727294921875 L 881.0999755859375 777.727294921875 L 881.0999755859375 773.0027465820312" fill-opacity="1" clip-path="url(#wAFFOVSBRMNR)" stroke-opacity="1" stroke-linejoin="bevel" stroke-miterlimit="10" stroke-dasharray=""/><path fill="rgb(31,119,180)" stroke="rgb(31,119,180)" paint-order="fill" d="M 890.6272583007812 773.1837158203125 L 900.154541015625 773.1837158203125 L 900.154541015625 777.727294921875 L 890.6272583007812 777.727294921875 L 890.6272583007812 773.1837158203125" fill-opacity="1" clip-path="url(#wAFFOVSBRMNR)" stroke-opacity="1" stroke-linejoin="bevel" stroke-miterlimit="10" stroke-dasharray=""/><path fill="rgb(31,119,180)" stroke="rgb(31,119,180)" paint-order="fill" d="M 900.154541015625 772.6207885742188 L 909.6818237304688 772.6207885742188 L 909.6818237304688 777.727294921875 L 900.154541015625 777.727294921875 L 900.154541015625 772.6207885742188" fill-opacity="1" clip-path="url(#wAFFOVSBRMNR)" stroke-opacity="1" stroke-linejoin="bevel" stroke-miterlimit="10" stroke-dasharray=""/><path fill="rgb(31,119,180)" stroke="rgb(31,119,180)" paint-order="fill" d="M 909.6818237304688 772.7413940429688 L 919.2091064453125 772.7413940429688 L 919.2091064453125 777.727294921875 L 909.6818237304688 777.727294921875 L 909.6818237304688 772.7413940429688" fill-opacity="1" clip-path="url(#wAFFOVSBRMNR)" stroke-opacity="1" stroke-linejoin="bevel" stroke-miterlimit="10" stroke-dasharray=""/><path fill="rgb(31,119,180)" stroke="rgb(31,119,180)" paint-order="fill" d="M 919.2091064453125 772.58056640625 L 928.7363891601562 772.58056640625 L 928.7363891601562 777.727294921875 L 919.2091064453125 777.727294921875 L 919.2091064453125 772.58056640625" fill-opacity="1" clip-path="url(#wAFFOVSBRMNR)" stroke-opacity="1" stroke-linejoin="bevel" stroke-miterlimit="10" stroke-dasharray=""/><path fill="rgb(31,119,180)" stroke="rgb(31,119,180)" paint-order="fill" d="M 928.7363891601562 771.8970336914062 L 938.2636108398438 771.8970336914062 L 938.2636108398438 777.727294921875 L 928.7363891601562 777.727294921875 L 928.7363891601562 771.8970336914062" fill-opacity="1" clip-path="url(#wAFFOVSBRMNR)" stroke-opacity="1" stroke-linejoin="bevel" stroke-miterlimit="10" stroke-dasharray=""/><path fill="rgb(31,119,180)" stroke="rgb(31,119,180)" paint-order="fill" d="M 938.2636108398438 771.3743286132812 L 947.7908935546875 771.3743286132812 L 947.7908935546875 777.727294921875 L 938.2636108398438 777.727294921875 L 938.2636108398438 771.3743286132812" fill-opacity="1" clip-path="url(#wAFFOVSBRMNR)" stroke-opacity="1" stroke-linejoin="bevel" stroke-miterlimit="10" stroke-dasharray=""/><path fill="rgb(31,119,180)" stroke="rgb(31,119,180)" paint-order="fill" d="M 947.7908935546875 772.2388305664062 L 957.3181762695312 772.2388305664062 L 957.3181762695312 777.727294921875 L 947.7908935546875 777.727294921875 L 947.7908935546875 772.2388305664062" fill-opacity="1" clip-path="url(#wAFFOVSBRMNR)" stroke-opacity="1" stroke-linejoin="bevel" stroke-miterlimit="10" stroke-dasharray=""/><path fill="rgb(31,119,180)" stroke="rgb(31,119,180)" paint-order="fill" d="M 957.3181762695312 770.8314819335938 L 966.845458984375 770.8314819335938 L 966.845458984375 777.727294921875 L 957.3181762695312 777.727294921875 L 957.3181762695312 770.8314819335938" fill-opacity="1" clip-path="url(#wAFFOVSBRMNR)" stroke-opacity="1" stroke-linejoin="bevel" stroke-miterlimit="10" stroke-dasharray=""/><path fill="rgb(31,119,180)" stroke="rgb(31,119,180)" paint-order="fill" d="M 966.845458984375 771.4346313476562 L 976.3727416992188 771.4346313476562 L 976.3727416992188 777.727294921875 L 966.845458984375 777.727294921875 L 966.845458984375 771.4346313476562" fill-opacity="1" clip-path="url(#wAFFOVSBRMNR)" stroke-opacity="1" stroke-linejoin="bevel" stroke-miterlimit="10" stroke-dasharray=""/><path fill="rgb(31,119,180)" stroke="rgb(31,119,180)" paint-order="fill" d="M 976.3727416992188 770.4495239257812 L 985.9000244140625 770.4495239257812 L 985.9000244140625 777.727294921875 L 976.3727416992188 777.727294921875 L 976.3727416992188 770.4495239257812" fill-opacity="1" clip-path="url(#wAFFOVSBRMNR)" stroke-opacity="1" stroke-linejoin="bevel" stroke-miterlimit="10" stroke-dasharray=""/><path fill="rgb(31,119,180)" stroke="rgb(31,119,180)" paint-order="fill" d="M 985.9000244140625 770.5701293945312 L 995.42724609375 770.5701293945312 L 995.42724609375 777.727294921875 L 985.9000244140625 777.727294921875 L 985.9000244140625 770.5701293945312" fill-opacity="1" clip-path="url(#wAFFOVSBRMNR)" stroke-opacity="1" stroke-linejoin="bevel" stroke-miterlimit="10" stroke-dasharray=""/><path fill="rgb(31,119,180)" stroke="rgb(31,119,180)" paint-order="fill" d="M 995.42724609375 769.3839721679688 L 1004.9545288085938 769.3839721679688 L 1004.9545288085938 777.727294921875 L 995.42724609375 777.727294921875 L 995.42724609375 769.3839721679688" fill-opacity="1" clip-path="url(#wAFFOVSBRMNR)" stroke-opacity="1" stroke-linejoin="bevel" stroke-miterlimit="10" stroke-dasharray=""/><path fill="rgb(31,119,180)" stroke="rgb(31,119,180)" paint-order="fill" d="M 1004.9545288085938 770.02734375 L 1014.4818115234375 770.02734375 L 1014.4818115234375 777.727294921875 L 1004.9545288085938 777.727294921875 L 1004.9545288085938 770.02734375" fill-opacity="1" clip-path="url(#wAFFOVSBRMNR)" stroke-opacity="1" stroke-linejoin="bevel" stroke-miterlimit="10" stroke-dasharray=""/><path fill="rgb(31,119,180)" stroke="rgb(31,119,180)" paint-order="fill" d="M 1014.4818115234375 768.9014892578125 L 1024.0090942382812 768.9014892578125 L 1024.0090942382812 777.727294921875 L 1014.4818115234375 777.727294921875 L 1014.4818115234375 768.9014892578125" fill-opacity="1" clip-path="url(#wAFFOVSBRMNR)" stroke-opacity="1" stroke-linejoin="bevel" stroke-miterlimit="10" stroke-dasharray=""/><path fill="rgb(31,119,180)" stroke="rgb(31,119,180)" paint-order="fill" d="M 1024.0090942382812 769.6453247070312 L 1033.536376953125 769.6453247070312 L 1033.536376953125 777.727294921875 L 1024.0090942382812 777.727294921875 L 1024.0090942382812 769.6453247070312" fill-opacity="1" clip-path="url(#wAFFOVSBRMNR)" stroke-opacity="1" stroke-linejoin="bevel" stroke-miterlimit="10" stroke-dasharray=""/><path fill="rgb(31,119,180)" stroke="rgb(31,119,180)" paint-order="fill" d="M 1033.536376953125 769.0020141601562 L 1043.0635986328125 769.0020141601562 L 1043.0635986328125 777.727294921875 L 1033.536376953125 777.727294921875 L 1033.536376953125 769.0020141601562" fill-opacity="1" clip-path="url(#wAFFOVSBRMNR)" stroke-opacity="1" stroke-linejoin="bevel" stroke-miterlimit="10" stroke-dasharray=""/><path fill="rgb(31,119,180)" stroke="rgb(31,119,180)" paint-order="fill" d="M 1043.0635986328125 768.5999145507812 L 1052.5909423828125 768.5999145507812 L 1052.5909423828125 777.727294921875 L 1043.0635986328125 777.727294921875 L 1043.0635986328125 768.5999145507812" fill-opacity="1" clip-path="url(#wAFFOVSBRMNR)" stroke-opacity="1" stroke-linejoin="bevel" stroke-miterlimit="10" stroke-dasharray=""/><path fill="rgb(31,119,180)" stroke="rgb(31,119,180)" paint-order="fill" d="M 1052.5909423828125 767.313232421875 L 1062.1181640625 767.313232421875 L 1062.1181640625 777.727294921875 L 1052.5909423828125 777.727294921875 L 1052.5909423828125 767.313232421875" fill-opacity="1" clip-path="url(#wAFFOVSBRMNR)" stroke-opacity="1" stroke-linejoin="bevel" stroke-miterlimit="10" stroke-dasharray=""/><path fill="rgb(31,119,180)" stroke="rgb(31,119,180)" paint-order="fill" d="M 1062.1181640625 766.20751953125 L 1071.6455078125 766.20751953125 L 1071.6455078125 777.727294921875 L 1062.1181640625 777.727294921875 L 1062.1181640625 766.20751953125" fill-opacity="1" clip-path="url(#wAFFOVSBRMNR)" stroke-opacity="1" stroke-linejoin="bevel" stroke-miterlimit="10" stroke-dasharray=""/><path fill="rgb(31,119,180)" stroke="rgb(31,119,180)" paint-order="fill" d="M 1071.6455078125 765.2626342773438 L 1081.1727294921875 765.2626342773438 L 1081.1727294921875 777.727294921875 L 1071.6455078125 777.727294921875 L 1071.6455078125 765.2626342773438" fill-opacity="1" clip-path="url(#wAFFOVSBRMNR)" stroke-opacity="1" stroke-linejoin="bevel" stroke-miterlimit="10" stroke-dasharray=""/><path fill="rgb(31,119,180)" stroke="rgb(31,119,180)" paint-order="fill" d="M 1081.1727294921875 765.3631591796875 L 1090.699951171875 765.3631591796875 L 1090.699951171875 777.727294921875 L 1081.1727294921875 777.727294921875 L 1081.1727294921875 765.3631591796875" fill-opacity="1" clip-path="url(#wAFFOVSBRMNR)" stroke-opacity="1" stroke-linejoin="bevel" stroke-miterlimit="10" stroke-dasharray=""/><path fill="rgb(31,119,180)" stroke="rgb(31,119,180)" paint-order="fill" d="M 1090.699951171875 763.1114501953125 L 1100.227294921875 763.1114501953125 L 1100.227294921875 777.727294921875 L 1090.699951171875 777.727294921875 L 1090.699951171875 763.1114501953125" fill-opacity="1" clip-path="url(#wAFFOVSBRMNR)" stroke-opacity="1" stroke-linejoin="bevel" stroke-miterlimit="10" stroke-dasharray=""/><path fill="rgb(31,119,180)" stroke="rgb(31,119,180)" paint-order="fill" d="M 1100.227294921875 760.698974609375 L 1109.7545166015625 760.698974609375 L 1109.7545166015625 777.727294921875 L 1100.227294921875 777.727294921875 L 1100.227294921875 760.698974609375" fill-opacity="1" clip-path="url(#wAFFOVSBRMNR)" stroke-opacity="1" stroke-linejoin="bevel" stroke-miterlimit="10" stroke-dasharray=""/><path fill="rgb(31,119,180)" stroke="rgb(31,119,180)" paint-order="fill" d="M 1109.7545166015625 758.2462158203125 L 1119.2818603515625 758.2462158203125 L 1119.2818603515625 777.727294921875 L 1109.7545166015625 777.727294921875 L 1109.7545166015625 758.2462158203125" fill-opacity="1" clip-path="url(#wAFFOVSBRMNR)" stroke-opacity="1" stroke-linejoin="bevel" stroke-miterlimit="10" stroke-dasharray=""/><path fill="rgb(31,119,180)" stroke="rgb(31,119,180)" paint-order="fill" d="M 1119.2818603515625 754.908935546875 L 1128.80908203125 754.908935546875 L 1128.80908203125 777.727294921875 L 1119.2818603515625 777.727294921875 L 1119.2818603515625 754.908935546875" fill-opacity="1" clip-path="url(#wAFFOVSBRMNR)" stroke-opacity="1" stroke-linejoin="bevel" stroke-miterlimit="10" stroke-dasharray=""/><path fill="rgb(31,119,180)" stroke="rgb(31,119,180)" paint-order="fill" d="M 1128.80908203125 749.581298828125 L 1138.3363037109375 749.581298828125 L 1138.3363037109375 777.727294921875 L 1128.80908203125 777.727294921875 L 1128.80908203125 749.581298828125" fill-opacity="1" clip-path="url(#wAFFOVSBRMNR)" stroke-opacity="1" stroke-linejoin="bevel" stroke-miterlimit="10" stroke-dasharray=""/><path fill="rgb(31,119,180)" stroke="rgb(31,119,180)" paint-order="fill" d="M 1138.3363037109375 582.2131958007812 L 1147.8636474609375 582.2131958007812 L 1147.8636474609375 777.727294921875 L 1138.3363037109375 777.727294921875 L 1138.3363037109375 582.2131958007812" fill-opacity="1" clip-path="url(#wAFFOVSBRMNR)" stroke-opacity="1" stroke-linejoin="bevel" stroke-miterlimit="10" stroke-dasharray=""/><path fill="none" stroke="rgb(0,0,0)" paint-order="fill" d="M 147.5 814.5 L 1195.5 814.5" stroke-opacity="1" stroke-linejoin="bevel" stroke-miterlimit="10" stroke-dasharray=""/><path fill="none" stroke="rgb(0,0,0)" paint-order="fill" d="M 195.5 820.5 L 195.5 812.5 M 385.5 820.5 L 385.5 812.5 M 576.5 820.5 L 576.5 812.5 M 766.5 820.5 L 766.5 812.5 M 957.5 820.5 L 957.5 812.5 M 1147.5 820.5 L 1147.5 812.5" stroke-opacity="1" stroke-linejoin="bevel" stroke-miterlimit="10" stroke-dasharray=""/><path fill="none" stroke="rgb(0,0,0)" paint-order="fill" d="M 157.5 818.5 L 157.5 814.5 M 195.5 818.5 L 195.5 814.5 M 233.5 818.5 L 233.5 814.5 M 271.5 818.5 L 271.5 814.5 M 309.5 818.5 L 309.5 814.5 M 347.5 818.5 L 347.5 814.5 M 385.5 818.5 L 385.5 814.5 M 423.5 818.5 L 423.5 814.5 M 461.5 818.5 L 461.5 814.5 M 500.5 818.5 L 500.5 814.5 M 538.5 818.5 L 538.5 814.5 M 576.5 818.5 L 576.5 814.5 M 614.5 818.5 L 614.5 814.5 M 652.5 818.5 L 652.5 814.5 M 690.5 818.5 L 690.5 814.5 M 728.5 818.5 L 728.5 814.5 M 766.5 818.5 L 766.5 814.5 M 804.5 818.5 L 804.5 814.5 M 842.5 818.5 L 842.5 814.5 M 881.5 818.5 L 881.5 814.5 M 919.5 818.5 L 919.5 814.5 M 957.5 818.5 L 957.5 814.5 M 995.5 818.5 L 995.5 814.5 M 1033.5 818.5 L 1033.5 814.5 M 1071.5 818.5 L 1071.5 814.5 M 1109.5 818.5 L 1109.5 814.5 M 1147.5 818.5 L 1147.5 814.5 M 1185.5 818.5 L 1185.5 814.5" stroke-opacity="1" stroke-linejoin="bevel" stroke-miterlimit="10" stroke-dasharray=""/><text fill="rgb(68,68,68)" stroke="none" font-family="helvetica" font-size="30px" font-style="normal" font-weight="normal" text-decoration="normal" x="186.2947015762329" y="847" text-anchor="start" dominant-baseline="alphabetic" transform="matrix(1, 0, 0, 1, 0.5, 0.5)" fill-opacity="1">0</text><text fill="rgb(68,68,68)" stroke="none" font-family="helvetica" font-size="30px" font-style="normal" font-weight="normal" text-decoration="normal" x="364.331823348999" y="847" text-anchor="start" dominant-baseline="alphabetic" transform="matrix(1, 0, 0, 1, 0.5, 0.5)" fill-opacity="1">0.2</text><text fill="rgb(68,68,68)" stroke="none" font-family="helvetica" font-size="30px" font-style="normal" font-weight="normal" text-decoration="normal" x="554.8772945404053" y="847" text-anchor="start" dominant-baseline="alphabetic" transform="matrix(1, 0, 0, 1, 0.5, 0.5)" fill-opacity="1">0.4</text><text fill="rgb(68,68,68)" stroke="none" font-family="helvetica" font-size="30px" font-style="normal" font-weight="normal" text-decoration="normal" x="745.4227046966553" y="847" text-anchor="start" dominant-baseline="alphabetic" transform="matrix(1, 0, 0, 1, 0.5, 0.5)" fill-opacity="1">0.6</text><text fill="rgb(68,68,68)" stroke="none" font-family="helvetica" font-size="30px" font-style="normal" font-weight="normal" text-decoration="normal" x="935.9681758880615" y="847" text-anchor="start" dominant-baseline="alphabetic" transform="matrix(1, 0, 0, 1, 0.5, 0.5)" fill-opacity="1">0.8</text><text fill="rgb(68,68,68)" stroke="none" font-family="helvetica" font-size="30px" font-style="normal" font-weight="normal" text-decoration="normal" x="1139.0219812393188" y="847" text-anchor="start" dominant-baseline="alphabetic" transform="matrix(1, 0, 0, 1, 0.5, 0.5)" fill-opacity="1">1</text><text fill="rgb(68,68,68)" stroke="none" font-family="helvetica" font-size="36px" font-style="italic" font-weight="normal" text-decoration="normal" x="624.9833335876465" y="889" text-anchor="start" dominant-baseline="alphabetic" transform="matrix(1, 0, 0, 1, 0.5, 0.5)" fill-opacity="1">Purity</text><path fill="none" stroke="rgb(0,0,0)" paint-order="fill" d="M 147.5 814.5 L 147.5 5.5" stroke-opacity="1" stroke-linejoin="bevel" stroke-miterlimit="10" stroke-dasharray=""/><path fill="none" stroke="rgb(0,0,0)" paint-order="fill" d="M 141.5 777.5 L 149.5 777.5 M 141.5 576.5 L 149.5 576.5 M 141.5 375.5 L 149.5 375.5 M 141.5 174.5 L 149.5 174.5" stroke-opacity="1" stroke-linejoin="bevel" stroke-miterlimit="10" stroke-dasharray=""/><path fill="none" stroke="rgb(0,0,0)" paint-order="fill" d="M 143.5 777.5 L 147.5 777.5 M 143.5 737.5 L 147.5 737.5 M 143.5 697.5 L 147.5 697.5 M 143.5 657.5 L 147.5 657.5 M 143.5 616.5 L 147.5 616.5 M 143.5 576.5 L 147.5 576.5 M 143.5 536.5 L 147.5 536.5 M 143.5 496.5 L 147.5 496.5 M 143.5 456.5 L 147.5 456.5 M 143.5 415.5 L 147.5 415.5 M 143.5 375.5 L 147.5 375.5 M 143.5 335.5 L 147.5 335.5 M 143.5 295.5 L 147.5 295.5 M 143.5 255.5 L 147.5 255.5 M 143.5 214.5 L 147.5 214.5 M 143.5 174.5 L 147.5 174.5 M 143.5 134.5 L 147.5 134.5 M 143.5 94.5 L 147.5 94.5 M 143.5 53.5 L 147.5 53.5 M 143.5 13.5 L 147.5 13.5" stroke-opacity="1" stroke-linejoin="bevel" stroke-miterlimit="10" stroke-dasharray=""/><text fill="rgb(68,68,68)" stroke="none" font-family="helvetica" font-size="30px" font-style="normal" font-weight="normal" text-decoration="normal" x="119.3166675567627" y="788.227294921875" text-anchor="start" dominant-baseline="alphabetic" transform="matrix(1, 0, 0, 1, 0.5, 0.5)" fill-opacity="1">0</text><text fill="rgb(68,68,68)" stroke="none" font-family="helvetica" font-size="30px" font-style="normal" font-weight="normal" text-decoration="normal" x="52.583335876464844" y="587.1845092773438" text-anchor="start" dominant-baseline="alphabetic" transform="matrix(1, 0, 0, 1, 0.5, 0.5)" fill-opacity="1">10000</text><text fill="rgb(68,68,68)" stroke="none" font-family="helvetica" font-size="30px" font-style="normal" font-weight="normal" text-decoration="normal" x="52.583335876464844" y="386.14178466796875" text-anchor="start" dominant-baseline="alphabetic" transform="matrix(1, 0, 0, 1, 0.5, 0.5)" fill-opacity="1">20000</text><text fill="rgb(68,68,68)" stroke="none" font-family="helvetica" font-size="30px" font-style="normal" font-weight="normal" text-decoration="normal" x="52.583335876464844" y="185.09906005859375" text-anchor="start" dominant-baseline="alphabetic" transform="matrix(1, 0, 0, 1, 0.5, 0.5)" fill-opacity="1">30000</text><text fill="rgb(68,68,68)" stroke="none" font-family="helvetica" font-size="36px" font-style="italic" font-weight="normal" text-decoration="normal" x="-144.92499542236328" y="401.5" text-anchor="start" dominant-baseline="alphabetic" transform="matrix(6.123233995736766e-17, -1, 1, 6.123233995736766e-17, -364.41666412353516, 454.58333587646484)" fill-opacity="1">Number of credible sets</text></svg>