<?xml version="1.0" encoding="utf-8" standalone="no"?>
<!DOCTYPE svg PUBLIC "-//W3C//DTD SVG 1.1//EN"
  "http://www.w3.org/Graphics/SVG/1.1/DTD/svg11.dtd">
<!-- Created with matplotlib (https://matplotlib.org/) -->
<svg height="345.6pt" version="1.1" viewBox="0 0 460.8 345.6" width="460.8pt" xmlns="http://www.w3.org/2000/svg" xmlns:xlink="http://www.w3.org/1999/xlink">
 <metadata>
  <rdf:RDF xmlns:cc="http://creativecommons.org/ns#" xmlns:dc="http://purl.org/dc/elements/1.1/" xmlns:rdf="http://www.w3.org/1999/02/22-rdf-syntax-ns#">
   <cc:Work>
    <dc:type rdf:resource="http://purl.org/dc/dcmitype/StillImage"/>
    <dc:date>2021-11-03T00:02:10.050740</dc:date>
    <dc:format>image/svg+xml</dc:format>
    <dc:creator>
     <cc:Agent>
      <dc:title>Matplotlib v3.3.4, https://matplotlib.org/</dc:title>
     </cc:Agent>
    </dc:creator>
   </cc:Work>
  </rdf:RDF>
 </metadata>
 <defs>
  <style type="text/css">*{stroke-linecap:butt;stroke-linejoin:round;}</style>
 </defs>
 <g id="figure_1">
  <g id="patch_1">
   <path d="M 0 345.6 
L 460.8 345.6 
L 460.8 0 
L 0 0 
z
" style="fill:#ffffff;"/>
  </g>
  <g id="axes_1">
   <g id="patch_2">
    <path d="M 57.6 307.584 
L 414.72 307.584 
L 414.72 41.472 
L 57.6 41.472 
z
" style="fill:#ffffff;"/>
   </g>
   <g id="matplotlib.axis_1">
    <g id="xtick_1">
     <g id="line2d_1">
      <defs>
       <path d="M 0 0 
L 0 3.5 
" id="m388c277ff5" style="stroke:#000000;stroke-width:0.8;"/>
      </defs>
      <g>
       <use style="stroke:#000000;stroke-width:0.8;" x="57.6" xlink:href="#m388c277ff5" y="307.584"/>
      </g>
     </g>
     <g id="text_1">
      <!-- 0 -->
      <g transform="translate(54.41875 322.182437)scale(0.1 -0.1)">
       <defs>
        <path d="M 31.78125 66.40625 
Q 24.171875 66.40625 20.328125 58.90625 
Q 16.5 51.421875 16.5 36.375 
Q 16.5 21.390625 20.328125 13.890625 
Q 24.171875 6.390625 31.78125 6.390625 
Q 39.453125 6.390625 43.28125 13.890625 
Q 47.125 21.390625 47.125 36.375 
Q 47.125 51.421875 43.28125 58.90625 
Q 39.453125 66.40625 31.78125 66.40625 
z
M 31.78125 74.21875 
Q 44.046875 74.21875 50.515625 64.515625 
Q 56.984375 54.828125 56.984375 36.375 
Q 56.984375 17.96875 50.515625 8.265625 
Q 44.046875 -1.421875 31.78125 -1.421875 
Q 19.53125 -1.421875 13.0625 8.265625 
Q 6.59375 17.96875 6.59375 36.375 
Q 6.59375 54.828125 13.0625 64.515625 
Q 19.53125 74.21875 31.78125 74.21875 
z
" id="DejaVuSans-48"/>
       </defs>
       <use xlink:href="#DejaVuSans-48"/>
      </g>
     </g>
    </g>
    <g id="xtick_2">
     <g id="line2d_2">
      <g>
       <use style="stroke:#000000;stroke-width:0.8;" x="114.820893" xlink:href="#m388c277ff5" y="307.584"/>
      </g>
     </g>
     <g id="text_2">
      <!-- 1 -->
      <g transform="translate(111.639643 322.182437)scale(0.1 -0.1)">
       <defs>
        <path d="M 12.40625 8.296875 
L 28.515625 8.296875 
L 28.515625 63.921875 
L 10.984375 60.40625 
L 10.984375 69.390625 
L 28.421875 72.90625 
L 38.28125 72.90625 
L 38.28125 8.296875 
L 54.390625 8.296875 
L 54.390625 0 
L 12.40625 0 
z
" id="DejaVuSans-49"/>
       </defs>
       <use xlink:href="#DejaVuSans-49"/>
      </g>
     </g>
    </g>
    <g id="xtick_3">
     <g id="line2d_3">
      <g>
       <use style="stroke:#000000;stroke-width:0.8;" x="172.041786" xlink:href="#m388c277ff5" y="307.584"/>
      </g>
     </g>
     <g id="text_3">
      <!-- 2 -->
      <g transform="translate(168.860536 322.182437)scale(0.1 -0.1)">
       <defs>
        <path d="M 19.1875 8.296875 
L 53.609375 8.296875 
L 53.609375 0 
L 7.328125 0 
L 7.328125 8.296875 
Q 12.9375 14.109375 22.625 23.890625 
Q 32.328125 33.6875 34.8125 36.53125 
Q 39.546875 41.84375 41.421875 45.53125 
Q 43.3125 49.21875 43.3125 52.78125 
Q 43.3125 58.59375 39.234375 62.25 
Q 35.15625 65.921875 28.609375 65.921875 
Q 23.96875 65.921875 18.8125 64.3125 
Q 13.671875 62.703125 7.8125 59.421875 
L 7.8125 69.390625 
Q 13.765625 71.78125 18.9375 73 
Q 24.125 74.21875 28.421875 74.21875 
Q 39.75 74.21875 46.484375 68.546875 
Q 53.21875 62.890625 53.21875 53.421875 
Q 53.21875 48.921875 51.53125 44.890625 
Q 49.859375 40.875 45.40625 35.40625 
Q 44.1875 33.984375 37.640625 27.21875 
Q 31.109375 20.453125 19.1875 8.296875 
z
" id="DejaVuSans-50"/>
       </defs>
       <use xlink:href="#DejaVuSans-50"/>
      </g>
     </g>
    </g>
    <g id="xtick_4">
     <g id="line2d_4">
      <g>
       <use style="stroke:#000000;stroke-width:0.8;" x="229.262679" xlink:href="#m388c277ff5" y="307.584"/>
      </g>
     </g>
     <g id="text_4">
      <!-- 3 -->
      <g transform="translate(226.081429 322.182437)scale(0.1 -0.1)">
       <defs>
        <path d="M 40.578125 39.3125 
Q 47.65625 37.796875 51.625 33 
Q 55.609375 28.21875 55.609375 21.1875 
Q 55.609375 10.40625 48.1875 4.484375 
Q 40.765625 -1.421875 27.09375 -1.421875 
Q 22.515625 -1.421875 17.65625 -0.515625 
Q 12.796875 0.390625 7.625 2.203125 
L 7.625 11.71875 
Q 11.71875 9.328125 16.59375 8.109375 
Q 21.484375 6.890625 26.8125 6.890625 
Q 36.078125 6.890625 40.9375 10.546875 
Q 45.796875 14.203125 45.796875 21.1875 
Q 45.796875 27.640625 41.28125 31.265625 
Q 36.765625 34.90625 28.71875 34.90625 
L 20.21875 34.90625 
L 20.21875 43.015625 
L 29.109375 43.015625 
Q 36.375 43.015625 40.234375 45.921875 
Q 44.09375 48.828125 44.09375 54.296875 
Q 44.09375 59.90625 40.109375 62.90625 
Q 36.140625 65.921875 28.71875 65.921875 
Q 24.65625 65.921875 20.015625 65.03125 
Q 15.375 64.15625 9.8125 62.3125 
L 9.8125 71.09375 
Q 15.4375 72.65625 20.34375 73.4375 
Q 25.25 74.21875 29.59375 74.21875 
Q 40.828125 74.21875 47.359375 69.109375 
Q 53.90625 64.015625 53.90625 55.328125 
Q 53.90625 49.265625 50.4375 45.09375 
Q 46.96875 40.921875 40.578125 39.3125 
z
" id="DejaVuSans-51"/>
       </defs>
       <use xlink:href="#DejaVuSans-51"/>
      </g>
     </g>
    </g>
    <g id="xtick_5">
     <g id="line2d_5">
      <g>
       <use style="stroke:#000000;stroke-width:0.8;" x="286.483572" xlink:href="#m388c277ff5" y="307.584"/>
      </g>
     </g>
     <g id="text_5">
      <!-- 4 -->
      <g transform="translate(283.302322 322.182437)scale(0.1 -0.1)">
       <defs>
        <path d="M 37.796875 64.3125 
L 12.890625 25.390625 
L 37.796875 25.390625 
z
M 35.203125 72.90625 
L 47.609375 72.90625 
L 47.609375 25.390625 
L 58.015625 25.390625 
L 58.015625 17.1875 
L 47.609375 17.1875 
L 47.609375 0 
L 37.796875 0 
L 37.796875 17.1875 
L 4.890625 17.1875 
L 4.890625 26.703125 
z
" id="DejaVuSans-52"/>
       </defs>
       <use xlink:href="#DejaVuSans-52"/>
      </g>
     </g>
    </g>
    <g id="xtick_6">
     <g id="line2d_6">
      <g>
       <use style="stroke:#000000;stroke-width:0.8;" x="343.704466" xlink:href="#m388c277ff5" y="307.584"/>
      </g>
     </g>
     <g id="text_6">
      <!-- 5 -->
      <g transform="translate(340.523216 322.182437)scale(0.1 -0.1)">
       <defs>
        <path d="M 10.796875 72.90625 
L 49.515625 72.90625 
L 49.515625 64.59375 
L 19.828125 64.59375 
L 19.828125 46.734375 
Q 21.96875 47.46875 24.109375 47.828125 
Q 26.265625 48.1875 28.421875 48.1875 
Q 40.625 48.1875 47.75 41.5 
Q 54.890625 34.8125 54.890625 23.390625 
Q 54.890625 11.625 47.5625 5.09375 
Q 40.234375 -1.421875 26.90625 -1.421875 
Q 22.3125 -1.421875 17.546875 -0.640625 
Q 12.796875 0.140625 7.71875 1.703125 
L 7.71875 11.625 
Q 12.109375 9.234375 16.796875 8.0625 
Q 21.484375 6.890625 26.703125 6.890625 
Q 35.15625 6.890625 40.078125 11.328125 
Q 45.015625 15.765625 45.015625 23.390625 
Q 45.015625 31 40.078125 35.4375 
Q 35.15625 39.890625 26.703125 39.890625 
Q 22.75 39.890625 18.8125 39.015625 
Q 14.890625 38.140625 10.796875 36.28125 
z
" id="DejaVuSans-53"/>
       </defs>
       <use xlink:href="#DejaVuSans-53"/>
      </g>
     </g>
    </g>
    <g id="xtick_7">
     <g id="line2d_7">
      <g>
       <use style="stroke:#000000;stroke-width:0.8;" x="400.925359" xlink:href="#m388c277ff5" y="307.584"/>
      </g>
     </g>
     <g id="text_7">
      <!-- 6 -->
      <g transform="translate(397.744109 322.182437)scale(0.1 -0.1)">
       <defs>
        <path d="M 33.015625 40.375 
Q 26.375 40.375 22.484375 35.828125 
Q 18.609375 31.296875 18.609375 23.390625 
Q 18.609375 15.53125 22.484375 10.953125 
Q 26.375 6.390625 33.015625 6.390625 
Q 39.65625 6.390625 43.53125 10.953125 
Q 47.40625 15.53125 47.40625 23.390625 
Q 47.40625 31.296875 43.53125 35.828125 
Q 39.65625 40.375 33.015625 40.375 
z
M 52.59375 71.296875 
L 52.59375 62.3125 
Q 48.875 64.0625 45.09375 64.984375 
Q 41.3125 65.921875 37.59375 65.921875 
Q 27.828125 65.921875 22.671875 59.328125 
Q 17.53125 52.734375 16.796875 39.40625 
Q 19.671875 43.65625 24.015625 45.921875 
Q 28.375 48.1875 33.59375 48.1875 
Q 44.578125 48.1875 50.953125 41.515625 
Q 57.328125 34.859375 57.328125 23.390625 
Q 57.328125 12.15625 50.6875 5.359375 
Q 44.046875 -1.421875 33.015625 -1.421875 
Q 20.359375 -1.421875 13.671875 8.265625 
Q 6.984375 17.96875 6.984375 36.375 
Q 6.984375 53.65625 15.1875 63.9375 
Q 23.390625 74.21875 37.203125 74.21875 
Q 40.921875 74.21875 44.703125 73.484375 
Q 48.484375 72.75 52.59375 71.296875 
z
" id="DejaVuSans-54"/>
       </defs>
       <use xlink:href="#DejaVuSans-54"/>
      </g>
     </g>
    </g>
    <g id="text_8">
     <!-- distance (bp) -->
     <g transform="translate(203.134219 335.860562)scale(0.1 -0.1)">
      <defs>
       <path d="M 45.40625 46.390625 
L 45.40625 75.984375 
L 54.390625 75.984375 
L 54.390625 0 
L 45.40625 0 
L 45.40625 8.203125 
Q 42.578125 3.328125 38.25 0.953125 
Q 33.9375 -1.421875 27.875 -1.421875 
Q 17.96875 -1.421875 11.734375 6.484375 
Q 5.515625 14.40625 5.515625 27.296875 
Q 5.515625 40.1875 11.734375 48.09375 
Q 17.96875 56 27.875 56 
Q 33.9375 56 38.25 53.625 
Q 42.578125 51.265625 45.40625 46.390625 
z
M 14.796875 27.296875 
Q 14.796875 17.390625 18.875 11.75 
Q 22.953125 6.109375 30.078125 6.109375 
Q 37.203125 6.109375 41.296875 11.75 
Q 45.40625 17.390625 45.40625 27.296875 
Q 45.40625 37.203125 41.296875 42.84375 
Q 37.203125 48.484375 30.078125 48.484375 
Q 22.953125 48.484375 18.875 42.84375 
Q 14.796875 37.203125 14.796875 27.296875 
z
" id="DejaVuSans-100"/>
       <path d="M 9.421875 54.6875 
L 18.40625 54.6875 
L 18.40625 0 
L 9.421875 0 
z
M 9.421875 75.984375 
L 18.40625 75.984375 
L 18.40625 64.59375 
L 9.421875 64.59375 
z
" id="DejaVuSans-105"/>
       <path d="M 44.28125 53.078125 
L 44.28125 44.578125 
Q 40.484375 46.53125 36.375 47.5 
Q 32.28125 48.484375 27.875 48.484375 
Q 21.1875 48.484375 17.84375 46.4375 
Q 14.5 44.390625 14.5 40.28125 
Q 14.5 37.15625 16.890625 35.375 
Q 19.28125 33.59375 26.515625 31.984375 
L 29.59375 31.296875 
Q 39.15625 29.25 43.1875 25.515625 
Q 47.21875 21.78125 47.21875 15.09375 
Q 47.21875 7.46875 41.1875 3.015625 
Q 35.15625 -1.421875 24.609375 -1.421875 
Q 20.21875 -1.421875 15.453125 -0.5625 
Q 10.6875 0.296875 5.421875 2 
L 5.421875 11.28125 
Q 10.40625 8.6875 15.234375 7.390625 
Q 20.0625 6.109375 24.8125 6.109375 
Q 31.15625 6.109375 34.5625 8.28125 
Q 37.984375 10.453125 37.984375 14.40625 
Q 37.984375 18.0625 35.515625 20.015625 
Q 33.0625 21.96875 24.703125 23.78125 
L 21.578125 24.515625 
Q 13.234375 26.265625 9.515625 29.90625 
Q 5.8125 33.546875 5.8125 39.890625 
Q 5.8125 47.609375 11.28125 51.796875 
Q 16.75 56 26.8125 56 
Q 31.78125 56 36.171875 55.265625 
Q 40.578125 54.546875 44.28125 53.078125 
z
" id="DejaVuSans-115"/>
       <path d="M 18.3125 70.21875 
L 18.3125 54.6875 
L 36.8125 54.6875 
L 36.8125 47.703125 
L 18.3125 47.703125 
L 18.3125 18.015625 
Q 18.3125 11.328125 20.140625 9.421875 
Q 21.96875 7.515625 27.59375 7.515625 
L 36.8125 7.515625 
L 36.8125 0 
L 27.59375 0 
Q 17.1875 0 13.234375 3.875 
Q 9.28125 7.765625 9.28125 18.015625 
L 9.28125 47.703125 
L 2.6875 47.703125 
L 2.6875 54.6875 
L 9.28125 54.6875 
L 9.28125 70.21875 
z
" id="DejaVuSans-116"/>
       <path d="M 34.28125 27.484375 
Q 23.390625 27.484375 19.1875 25 
Q 14.984375 22.515625 14.984375 16.5 
Q 14.984375 11.71875 18.140625 8.90625 
Q 21.296875 6.109375 26.703125 6.109375 
Q 34.1875 6.109375 38.703125 11.40625 
Q 43.21875 16.703125 43.21875 25.484375 
L 43.21875 27.484375 
z
M 52.203125 31.203125 
L 52.203125 0 
L 43.21875 0 
L 43.21875 8.296875 
Q 40.140625 3.328125 35.546875 0.953125 
Q 30.953125 -1.421875 24.3125 -1.421875 
Q 15.921875 -1.421875 10.953125 3.296875 
Q 6 8.015625 6 15.921875 
Q 6 25.140625 12.171875 29.828125 
Q 18.359375 34.515625 30.609375 34.515625 
L 43.21875 34.515625 
L 43.21875 35.40625 
Q 43.21875 41.609375 39.140625 45 
Q 35.0625 48.390625 27.6875 48.390625 
Q 23 48.390625 18.546875 47.265625 
Q 14.109375 46.140625 10.015625 43.890625 
L 10.015625 52.203125 
Q 14.9375 54.109375 19.578125 55.046875 
Q 24.21875 56 28.609375 56 
Q 40.484375 56 46.34375 49.84375 
Q 52.203125 43.703125 52.203125 31.203125 
z
" id="DejaVuSans-97"/>
       <path d="M 54.890625 33.015625 
L 54.890625 0 
L 45.90625 0 
L 45.90625 32.71875 
Q 45.90625 40.484375 42.875 44.328125 
Q 39.84375 48.1875 33.796875 48.1875 
Q 26.515625 48.1875 22.3125 43.546875 
Q 18.109375 38.921875 18.109375 30.90625 
L 18.109375 0 
L 9.078125 0 
L 9.078125 54.6875 
L 18.109375 54.6875 
L 18.109375 46.1875 
Q 21.34375 51.125 25.703125 53.5625 
Q 30.078125 56 35.796875 56 
Q 45.21875 56 50.046875 50.171875 
Q 54.890625 44.34375 54.890625 33.015625 
z
" id="DejaVuSans-110"/>
       <path d="M 48.78125 52.59375 
L 48.78125 44.1875 
Q 44.96875 46.296875 41.140625 47.34375 
Q 37.3125 48.390625 33.40625 48.390625 
Q 24.65625 48.390625 19.8125 42.84375 
Q 14.984375 37.3125 14.984375 27.296875 
Q 14.984375 17.28125 19.8125 11.734375 
Q 24.65625 6.203125 33.40625 6.203125 
Q 37.3125 6.203125 41.140625 7.25 
Q 44.96875 8.296875 48.78125 10.40625 
L 48.78125 2.09375 
Q 45.015625 0.34375 40.984375 -0.53125 
Q 36.96875 -1.421875 32.421875 -1.421875 
Q 20.0625 -1.421875 12.78125 6.34375 
Q 5.515625 14.109375 5.515625 27.296875 
Q 5.515625 40.671875 12.859375 48.328125 
Q 20.21875 56 33.015625 56 
Q 37.15625 56 41.109375 55.140625 
Q 45.0625 54.296875 48.78125 52.59375 
z
" id="DejaVuSans-99"/>
       <path d="M 56.203125 29.59375 
L 56.203125 25.203125 
L 14.890625 25.203125 
Q 15.484375 15.921875 20.484375 11.0625 
Q 25.484375 6.203125 34.421875 6.203125 
Q 39.59375 6.203125 44.453125 7.46875 
Q 49.3125 8.734375 54.109375 11.28125 
L 54.109375 2.78125 
Q 49.265625 0.734375 44.1875 -0.34375 
Q 39.109375 -1.421875 33.890625 -1.421875 
Q 20.796875 -1.421875 13.15625 6.1875 
Q 5.515625 13.8125 5.515625 26.8125 
Q 5.515625 40.234375 12.765625 48.109375 
Q 20.015625 56 32.328125 56 
Q 43.359375 56 49.78125 48.890625 
Q 56.203125 41.796875 56.203125 29.59375 
z
M 47.21875 32.234375 
Q 47.125 39.59375 43.09375 43.984375 
Q 39.0625 48.390625 32.421875 48.390625 
Q 24.90625 48.390625 20.390625 44.140625 
Q 15.875 39.890625 15.1875 32.171875 
z
" id="DejaVuSans-101"/>
       <path id="DejaVuSans-32"/>
       <path d="M 31 75.875 
Q 24.46875 64.65625 21.28125 53.65625 
Q 18.109375 42.671875 18.109375 31.390625 
Q 18.109375 20.125 21.3125 9.0625 
Q 24.515625 -2 31 -13.1875 
L 23.1875 -13.1875 
Q 15.875 -1.703125 12.234375 9.375 
Q 8.59375 20.453125 8.59375 31.390625 
Q 8.59375 42.28125 12.203125 53.3125 
Q 15.828125 64.359375 23.1875 75.875 
z
" id="DejaVuSans-40"/>
       <path d="M 48.6875 27.296875 
Q 48.6875 37.203125 44.609375 42.84375 
Q 40.53125 48.484375 33.40625 48.484375 
Q 26.265625 48.484375 22.1875 42.84375 
Q 18.109375 37.203125 18.109375 27.296875 
Q 18.109375 17.390625 22.1875 11.75 
Q 26.265625 6.109375 33.40625 6.109375 
Q 40.53125 6.109375 44.609375 11.75 
Q 48.6875 17.390625 48.6875 27.296875 
z
M 18.109375 46.390625 
Q 20.953125 51.265625 25.265625 53.625 
Q 29.59375 56 35.59375 56 
Q 45.5625 56 51.78125 48.09375 
Q 58.015625 40.1875 58.015625 27.296875 
Q 58.015625 14.40625 51.78125 6.484375 
Q 45.5625 -1.421875 35.59375 -1.421875 
Q 29.59375 -1.421875 25.265625 0.953125 
Q 20.953125 3.328125 18.109375 8.203125 
L 18.109375 0 
L 9.078125 0 
L 9.078125 75.984375 
L 18.109375 75.984375 
z
" id="DejaVuSans-98"/>
       <path d="M 18.109375 8.203125 
L 18.109375 -20.796875 
L 9.078125 -20.796875 
L 9.078125 54.6875 
L 18.109375 54.6875 
L 18.109375 46.390625 
Q 20.953125 51.265625 25.265625 53.625 
Q 29.59375 56 35.59375 56 
Q 45.5625 56 51.78125 48.09375 
Q 58.015625 40.1875 58.015625 27.296875 
Q 58.015625 14.40625 51.78125 6.484375 
Q 45.5625 -1.421875 35.59375 -1.421875 
Q 29.59375 -1.421875 25.265625 0.953125 
Q 20.953125 3.328125 18.109375 8.203125 
z
M 48.6875 27.296875 
Q 48.6875 37.203125 44.609375 42.84375 
Q 40.53125 48.484375 33.40625 48.484375 
Q 26.265625 48.484375 22.1875 42.84375 
Q 18.109375 37.203125 18.109375 27.296875 
Q 18.109375 17.390625 22.1875 11.75 
Q 26.265625 6.109375 33.40625 6.109375 
Q 40.53125 6.109375 44.609375 11.75 
Q 48.6875 17.390625 48.6875 27.296875 
z
" id="DejaVuSans-112"/>
       <path d="M 8.015625 75.875 
L 15.828125 75.875 
Q 23.140625 64.359375 26.78125 53.3125 
Q 30.421875 42.28125 30.421875 31.390625 
Q 30.421875 20.453125 26.78125 9.375 
Q 23.140625 -1.703125 15.828125 -13.1875 
L 8.015625 -13.1875 
Q 14.5 -2 17.703125 9.0625 
Q 20.90625 20.125 20.90625 31.390625 
Q 20.90625 42.671875 17.703125 53.65625 
Q 14.5 64.65625 8.015625 75.875 
z
" id="DejaVuSans-41"/>
      </defs>
      <use xlink:href="#DejaVuSans-100"/>
      <use x="63.476562" xlink:href="#DejaVuSans-105"/>
      <use x="91.259766" xlink:href="#DejaVuSans-115"/>
      <use x="143.359375" xlink:href="#DejaVuSans-116"/>
      <use x="182.568359" xlink:href="#DejaVuSans-97"/>
      <use x="243.847656" xlink:href="#DejaVuSans-110"/>
      <use x="307.226562" xlink:href="#DejaVuSans-99"/>
      <use x="362.207031" xlink:href="#DejaVuSans-101"/>
      <use x="423.730469" xlink:href="#DejaVuSans-32"/>
      <use x="455.517578" xlink:href="#DejaVuSans-40"/>
      <use x="494.53125" xlink:href="#DejaVuSans-98"/>
      <use x="558.007812" xlink:href="#DejaVuSans-112"/>
      <use x="621.484375" xlink:href="#DejaVuSans-41"/>
     </g>
    </g>
    <g id="text_9">
     <!-- 1e6 -->
     <g transform="translate(395.841875 334.860562)scale(0.1 -0.1)">
      <use xlink:href="#DejaVuSans-49"/>
      <use x="63.623047" xlink:href="#DejaVuSans-101"/>
      <use x="125.146484" xlink:href="#DejaVuSans-54"/>
     </g>
    </g>
   </g>
   <g id="matplotlib.axis_2">
    <g id="ytick_1">
     <g id="line2d_8">
      <defs>
       <path d="M 0 0 
L -3.5 0 
" id="m34a6f2fb94" style="stroke:#000000;stroke-width:0.8;"/>
      </defs>
      <g>
       <use style="stroke:#000000;stroke-width:0.8;" x="57.6" xlink:href="#m34a6f2fb94" y="295.488"/>
      </g>
     </g>
     <g id="text_10">
      <!-- 0.0 -->
      <g transform="translate(34.696875 299.287219)scale(0.1 -0.1)">
       <defs>
        <path d="M 10.6875 12.40625 
L 21 12.40625 
L 21 0 
L 10.6875 0 
z
" id="DejaVuSans-46"/>
       </defs>
       <use xlink:href="#DejaVuSans-48"/>
       <use x="63.623047" xlink:href="#DejaVuSans-46"/>
       <use x="95.410156" xlink:href="#DejaVuSans-48"/>
      </g>
     </g>
    </g>
    <g id="ytick_2">
     <g id="line2d_9">
      <g>
       <use style="stroke:#000000;stroke-width:0.8;" x="57.6" xlink:href="#m34a6f2fb94" y="247.104"/>
      </g>
     </g>
     <g id="text_11">
      <!-- 0.2 -->
      <g transform="translate(34.696875 250.903219)scale(0.1 -0.1)">
       <use xlink:href="#DejaVuSans-48"/>
       <use x="63.623047" xlink:href="#DejaVuSans-46"/>
       <use x="95.410156" xlink:href="#DejaVuSans-50"/>
      </g>
     </g>
    </g>
    <g id="ytick_3">
     <g id="line2d_10">
      <g>
       <use style="stroke:#000000;stroke-width:0.8;" x="57.6" xlink:href="#m34a6f2fb94" y="198.72"/>
      </g>
     </g>
     <g id="text_12">
      <!-- 0.4 -->
      <g transform="translate(34.696875 202.519219)scale(0.1 -0.1)">
       <use xlink:href="#DejaVuSans-48"/>
       <use x="63.623047" xlink:href="#DejaVuSans-46"/>
       <use x="95.410156" xlink:href="#DejaVuSans-52"/>
      </g>
     </g>
    </g>
    <g id="ytick_4">
     <g id="line2d_11">
      <g>
       <use style="stroke:#000000;stroke-width:0.8;" x="57.6" xlink:href="#m34a6f2fb94" y="150.336"/>
      </g>
     </g>
     <g id="text_13">
      <!-- 0.6 -->
      <g transform="translate(34.696875 154.135219)scale(0.1 -0.1)">
       <use xlink:href="#DejaVuSans-48"/>
       <use x="63.623047" xlink:href="#DejaVuSans-46"/>
       <use x="95.410156" xlink:href="#DejaVuSans-54"/>
      </g>
     </g>
    </g>
    <g id="ytick_5">
     <g id="line2d_12">
      <g>
       <use style="stroke:#000000;stroke-width:0.8;" x="57.6" xlink:href="#m34a6f2fb94" y="101.952"/>
      </g>
     </g>
     <g id="text_14">
      <!-- 0.8 -->
      <g transform="translate(34.696875 105.751219)scale(0.1 -0.1)">
       <defs>
        <path d="M 31.78125 34.625 
Q 24.75 34.625 20.71875 30.859375 
Q 16.703125 27.09375 16.703125 20.515625 
Q 16.703125 13.921875 20.71875 10.15625 
Q 24.75 6.390625 31.78125 6.390625 
Q 38.8125 6.390625 42.859375 10.171875 
Q 46.921875 13.96875 46.921875 20.515625 
Q 46.921875 27.09375 42.890625 30.859375 
Q 38.875 34.625 31.78125 34.625 
z
M 21.921875 38.8125 
Q 15.578125 40.375 12.03125 44.71875 
Q 8.5 49.078125 8.5 55.328125 
Q 8.5 64.0625 14.71875 69.140625 
Q 20.953125 74.21875 31.78125 74.21875 
Q 42.671875 74.21875 48.875 69.140625 
Q 55.078125 64.0625 55.078125 55.328125 
Q 55.078125 49.078125 51.53125 44.71875 
Q 48 40.375 41.703125 38.8125 
Q 48.828125 37.15625 52.796875 32.3125 
Q 56.78125 27.484375 56.78125 20.515625 
Q 56.78125 9.90625 50.3125 4.234375 
Q 43.84375 -1.421875 31.78125 -1.421875 
Q 19.734375 -1.421875 13.25 4.234375 
Q 6.78125 9.90625 6.78125 20.515625 
Q 6.78125 27.484375 10.78125 32.3125 
Q 14.796875 37.15625 21.921875 38.8125 
z
M 18.3125 54.390625 
Q 18.3125 48.734375 21.84375 45.5625 
Q 25.390625 42.390625 31.78125 42.390625 
Q 38.140625 42.390625 41.71875 45.5625 
Q 45.3125 48.734375 45.3125 54.390625 
Q 45.3125 60.0625 41.71875 63.234375 
Q 38.140625 66.40625 31.78125 66.40625 
Q 25.390625 66.40625 21.84375 63.234375 
Q 18.3125 60.0625 18.3125 54.390625 
z
" id="DejaVuSans-56"/>
       </defs>
       <use xlink:href="#DejaVuSans-48"/>
       <use x="63.623047" xlink:href="#DejaVuSans-46"/>
       <use x="95.410156" xlink:href="#DejaVuSans-56"/>
      </g>
     </g>
    </g>
    <g id="ytick_6">
     <g id="line2d_13">
      <g>
       <use style="stroke:#000000;stroke-width:0.8;" x="57.6" xlink:href="#m34a6f2fb94" y="53.568"/>
      </g>
     </g>
     <g id="text_15">
      <!-- 1.0 -->
      <g transform="translate(34.696875 57.367219)scale(0.1 -0.1)">
       <use xlink:href="#DejaVuSans-49"/>
       <use x="63.623047" xlink:href="#DejaVuSans-46"/>
       <use x="95.410156" xlink:href="#DejaVuSans-48"/>
      </g>
     </g>
    </g>
    <g id="text_16">
     <!-- density -->
     <g transform="translate(28.617187 192.860812)rotate(-90)scale(0.1 -0.1)">
      <defs>
       <path d="M 32.171875 -5.078125 
Q 28.375 -14.84375 24.75 -17.8125 
Q 21.140625 -20.796875 15.09375 -20.796875 
L 7.90625 -20.796875 
L 7.90625 -13.28125 
L 13.1875 -13.28125 
Q 16.890625 -13.28125 18.9375 -11.515625 
Q 21 -9.765625 23.484375 -3.21875 
L 25.09375 0.875 
L 2.984375 54.6875 
L 12.5 54.6875 
L 29.59375 11.921875 
L 46.6875 54.6875 
L 56.203125 54.6875 
z
" id="DejaVuSans-121"/>
      </defs>
      <use xlink:href="#DejaVuSans-100"/>
      <use x="63.476562" xlink:href="#DejaVuSans-101"/>
      <use x="125" xlink:href="#DejaVuSans-110"/>
      <use x="188.378906" xlink:href="#DejaVuSans-115"/>
      <use x="240.478516" xlink:href="#DejaVuSans-105"/>
      <use x="268.261719" xlink:href="#DejaVuSans-116"/>
      <use x="307.470703" xlink:href="#DejaVuSans-121"/>
     </g>
    </g>
   </g>
   <g id="line2d_14">
    <path clip-path="url(#pda9ea7e744)" d="M 57.6 295.488 
L 57.600286 295.388022 
L 57.600286 295.37756 
L 57.711352 252.296553 
L 57.71181 252.188438 
L 57.71181 252.186113 
L 57.822875 226.752299 
L 57.823562 226.644184 
L 57.823562 226.641859 
L 57.934628 209.729384 
L 57.935486 209.628244 
L 57.935486 209.618944 
L 58.046552 197.201969 
L 58.047753 197.091529 
L 58.158819 187.298383 
L 58.160078 187.187943 
L 58.271144 178.993275 
L 58.272975 178.886322 
L 58.272975 178.882834 
L 58.383983 171.980899 
L 58.385872 171.873946 
L 58.385872 171.870458 
L 58.49688 165.852045 
L 58.499055 165.742767 
L 58.499055 165.741604 
L 58.61012 160.506735 
L 58.612581 160.39862 
L 58.612581 160.396295 
L 58.723647 155.635738 
L 58.726851 155.52646 
L 58.726851 155.525298 
L 58.837917 151.232078 
L 58.840778 151.125125 
L 58.840778 151.121637 
L 58.951786 147.260878 
L 58.955162 147.1516 
L 58.955162 147.150438 
L 59.066228 143.675638 
L 59.070062 143.56636 
L 59.070062 143.565197 
L 59.181128 140.315928 
L 59.185705 140.208976 
L 59.185705 140.205488 
L 59.296771 137.144549 
L 59.301063 137.034108 
L 59.412071 134.2266 
L 59.416763 134.11616 
L 59.527772 131.506282 
L 59.532235 131.395842 
L 59.643301 128.910354 
L 59.648737 128.799914 
L 59.759803 126.457418 
L 59.766612 126.346978 
L 59.877678 124.173048 
L 59.883686 124.062608 
L 59.994752 122.102584 
L 60.001218 121.992143 
L 60.112169 120.056532 
L 60.119436 119.948417 
L 60.119436 119.946092 
L 60.230502 118.225549 
L 60.23754 118.115108 
L 60.348606 116.448042 
L 60.356674 116.337601 
L 60.467625 114.775162 
L 60.474205 114.664722 
L 60.585271 113.167384 
L 60.592882 113.056944 
L 60.70389 111.599132 
L 60.71253 111.488692 
L 60.823539 110.10412 
L 60.834468 109.993679 
L 60.945534 108.655608 
L 60.955776 108.545168 
L 61.066842 107.243135 
L 61.075883 107.133858 
L 61.075883 107.132695 
L 61.186949 105.898089 
L 61.197706 105.788811 
L 61.197706 105.787649 
L 61.308658 104.694871 
L 61.319301 104.584431 
L 61.430309 103.511417 
L 61.441639 103.400976 
L 61.552705 102.334937 
L 61.565293 102.224497 
L 61.676359 101.234022 
L 61.687575 101.123582 
L 61.798411 100.14357 
L 61.813918 100.034292 
L 61.813918 100.033129 
L 61.924927 99.131007 
L 61.939804 99.020566 
L 62.05087 98.097518 
L 62.067235 97.987078 
L 62.178301 97.096581 
L 62.192549 96.98614 
L 62.303557 96.183995 
L 62.321296 96.073555 
L 62.432362 95.313261 
L 62.446095 95.203983 
L 62.446095 95.202821 
L 62.55716 94.455314 
L 62.571752 94.344874 
L 62.682589 93.626431 
L 62.699125 93.515991 
L 62.809562 92.762672 
L 62.825927 92.652231 
L 62.936935 91.996565 
L 62.955647 91.887287 
L 62.955647 91.886125 
L 63.066655 91.236271 
L 63.08508 91.125831 
L 63.195974 90.496902 
L 63.21686 90.386462 
L 63.327125 89.790085 
L 63.346523 89.679644 
L 63.457588 89.000727 
L 63.476471 88.890287 
L 63.586965 88.267171 
L 63.610425 88.156731 
L 63.721377 87.597555 
L 63.748213 87.487114 
L 63.859279 86.918637 
L 63.881538 86.808197 
L 63.992318 86.361786 
L 64.013032 86.251346 
L 64.123926 85.756108 
L 64.148988 85.646831 
L 64.148988 85.645668 
L 64.25994 85.199257 
L 64.287635 85.088817 
L 64.398643 84.615667 
L 64.428341 84.505227 
L 64.539178 84.058816 
L 64.567559 83.948375 
L 64.677824 83.474063 
L 64.717478 83.363623 
L 64.828315 82.954413 
L 64.858299 82.843973 
L 64.968735 82.487076 
L 65.00158 82.376636 
L 65.112131 82.008114 
L 65.150354 81.897674 
L 65.260562 81.522177 
L 65.295523 81.411737 
L 65.406589 81.038565 
L 65.441895 80.928125 
L 65.552274 80.564253 
L 65.58014 80.453813 
L 65.691034 80.107379 
L 65.726111 79.996939 
L 65.83689 79.640042 
L 65.878662 79.529602 
L 65.989327 79.24362 
L 66.023259 79.133179 
L 66.133581 78.780933 
L 66.17518 78.670493 
L 66.286189 78.33801 
L 66.319205 78.227569 
L 66.430271 77.922987 
L 66.473759 77.812546 
L 66.583795 77.502151 
L 66.623563 77.391711 
L 66.734629 77.089453 
L 66.779318 76.979013 
L 66.89027 76.730232 
L 66.937191 76.619791 
L 67.047627 76.339622 
L 67.094949 76.229182 
L 67.205385 75.962962 
L 67.252535 75.852522 
L 67.362685 75.579328 
L 67.414928 75.468887 
L 67.525708 75.236382 
L 67.566907 75.125941 
L 67.676599 74.879485 
L 67.725409 74.769045 
L 67.836303 74.548164 
L 67.89112 74.437724 
L 68.000756 74.18313 
L 68.058892 74.07269 
L 68.169786 73.854134 
L 68.224489 73.743694 
L 68.334125 73.529789 
L 68.391002 73.419348 
L 68.499607 73.221719 
L 68.572335 73.111278 
L 68.683401 72.918298 
L 68.746001 72.807858 
L 68.856895 72.607903 
L 68.914402 72.497463 
L 69.025467 72.311458 
L 69.095563 72.201018 
L 69.205942 71.9906 
L 69.275179 71.88016 
L 69.385902 71.680205 
L 69.454681 71.569765 
L 69.565232 71.387247 
L 69.645341 71.276807 
L 69.756235 71.107078 
L 69.841037 70.996638 
L 69.951988 70.828071 
L 70.033814 70.717631 
L 70.144823 70.526976 
L 70.21549 70.416536 
L 70.325354 70.240994 
L 70.403861 70.130553 
L 70.514698 69.966637 
L 70.587197 69.856197 
L 70.696489 69.699255 
L 70.785468 69.588815 
L 70.89619 69.413273 
L 70.974869 69.302833 
L 71.085191 69.163329 
L 71.162725 69.052889 
L 71.273447 68.900598 
L 71.356818 68.790157 
L 71.461819 68.635541 
L 71.560925 68.525101 
L 71.671133 68.368159 
L 71.781111 68.257719 
L 71.892177 68.129841 
L 71.973259 68.0194 
L 72.084267 67.898497 
L 72.170156 67.788057 
L 72.280878 67.636928 
L 72.385192 67.526488 
L 72.494713 67.404422 
L 72.596566 67.293982 
L 72.704485 67.160291 
L 72.819956 67.049851 
L 72.928962 66.917323 
L 73.013821 66.806882 
L 73.121739 66.697605 
L 73.217699 66.587164 
L 73.328078 66.473237 
L 73.434566 66.362796 
L 73.545174 66.259331 
L 73.682619 66.148891 
L 73.793513 66.041938 
L 73.932445 65.931498 
L 74.042881 65.811757 
L 74.146165 65.701317 
L 74.256201 65.578089 
L 74.405834 65.467649 
L 74.51255 65.379297 
L 74.630769 65.268856 
L 74.736914 65.183992 
L 74.887061 65.073551 
L 74.996353 64.979387 
L 75.129735 64.868946 
L 75.23834 64.789894 
L 75.350322 64.679454 
L 75.457782 64.591102 
L 75.625726 64.480662 
L 75.733301 64.391147 
L 75.896037 64.280707 
L 76.005386 64.207467 
L 76.176877 64.097027 
L 76.287657 64.016812 
L 76.461265 63.906372 
L 76.570843 63.816857 
L 76.742792 63.706417 
L 76.852713 63.63899 
L 77.047036 63.52855 
L 77.1569 63.466936 
L 77.350592 63.356496 
L 77.460914 63.273956 
L 77.664048 63.163516 
L 77.772997 63.078651 
L 77.956218 62.968211 
L 78.062706 62.899622 
L 78.264753 62.789182 
L 78.375419 62.71943 
L 78.564648 62.60899 
L 78.674112 62.559001 
L 78.839766 62.448561 
L 78.950431 62.396247 
L 79.193391 62.285806 
L 79.301081 62.23233 
L 79.544384 62.12189 
L 79.654763 62.070739 
L 79.911571 61.960298 
L 80.013653 61.897522 
L 80.267885 61.787081 
L 80.377177 61.74058 
L 80.632096 61.63014 
L 80.742647 61.584801 
L 80.967067 61.474361 
L 81.077618 61.416235 
L 81.343466 61.305794 
L 81.453731 61.245343 
L 81.72038 61.134903 
L 81.830531 61.077939 
L 82.139237 60.967498 
L 82.250074 60.92681 
L 82.512604 60.81637 
L 82.622296 60.774518 
L 82.937297 60.664078 
L 83.04081 60.610602 
L 83.383906 60.500162 
L 83.488449 60.455985 
L 83.803278 60.345545 
L 83.913714 60.299044 
L 84.202279 60.188604 
L 84.311972 60.135127 
L 84.664853 60.024687 
L 84.766935 59.989811 
L 85.157296 59.879371 
L 85.266702 59.845658 
L 85.605736 59.735217 
L 85.713025 59.696854 
L 86.067394 59.586414 
L 86.168561 59.550375 
L 86.614712 59.439935 
L 86.723775 59.412034 
L 87.145894 59.301594 
L 87.253526 59.264393 
L 87.576824 59.153953 
L 87.681138 59.112102 
L 88.071213 59.001661 
L 88.177815 58.981898 
L 88.691659 58.871458 
L 88.786016 58.852858 
L 89.328356 58.742417 
L 89.437304 58.720329 
L 89.958186 58.609889 
L 90.064331 58.581988 
L 90.529708 58.471548 
L 90.635968 58.450623 
L 91.176362 58.340182 
L 91.285883 58.314607 
L 91.83383 58.204166 
L 91.939688 58.182078 
L 92.438025 58.071638 
L 92.544857 58.053038 
L 93.106136 57.942597 
L 93.214227 57.910047 
L 93.852812 57.799606 
L 93.961932 57.771706 
L 94.665349 57.661265 
L 94.758905 57.64034 
L 95.285623 57.529899 
L 95.392798 57.510136 
L 96.199727 57.399696 
L 96.304384 57.384583 
L 97.130425 57.274143 
L 97.236226 57.25438 
L 98.070449 57.14394 
L 98.180371 57.128827 
L 98.902384 57.018387 
L 99.002292 57.005599 
L 99.944891 56.895159 
L 100.043884 56.878883 
L 100.773507 56.768443 
L 100.854074 56.75798 
L 101.663864 56.64754 
L 101.774644 56.627777 
L 102.677475 56.517337 
L 102.774293 56.503386 
L 103.717236 56.392946 
L 103.824983 56.375508 
L 104.642212 56.265068 
L 104.75179 56.24763 
L 105.760251 56.13719 
L 105.858614 56.124402 
L 106.849679 56.013961 
L 106.95405 55.995361 
L 108.304864 55.884921 
L 108.415529 55.880271 
L 109.594337 55.76983 
L 109.700081 55.753555 
L 111.113151 55.643115 
L 111.218838 55.632652 
L 112.962874 55.522212 
L 113.027876 55.519887 
L 114.674637 55.409446 
L 114.781296 55.404796 
L 116.738651 55.294356 
L 116.841363 55.288543 
L 118.584254 55.178103 
L 118.647712 55.174615 
L 120.638427 55.064175 
L 120.749264 55.054875 
L 122.55218 54.944435 
L 122.655177 54.932809 
L 124.635535 54.822369 
L 124.714958 54.813069 
L 126.572062 54.702628 
L 126.67752 54.694491 
L 129.196098 54.584051 
L 129.293259 54.575913 
L 131.734474 54.465473 
L 131.828659 54.463147 
L 134.763805 54.352707 
L 134.874585 54.343407 
L 138.473321 54.232967 
L 138.543302 54.228317 
L 143.504182 54.117876 
L 143.597223 54.115551 
L 147.943379 54.005111 
L 147.995793 54.001623 
L 156.874473 53.891183 
L 156.958416 53.888858 
L 164.245211 53.778418 
L 164.3525 53.776093 
L 173.396891 53.665652 
L 173.396891 53.66449 
L 414.72 53.573813 
L 414.72 53.57265 
M 414.72 53.568 
L 414.72 53.568 
" style="fill:none;stroke:#1f77b4;stroke-linecap:square;stroke-width:1.5;"/>
   </g>
   <g id="line2d_15">
    <path clip-path="url(#pda9ea7e744)" d="M 57.6 295.488 
L 57.600286 295.382791 
L 57.711352 236.544494 
L 57.711752 236.465587 
L 57.711752 236.439285 
L 57.822818 204.183869 
L 57.823161 204.07866 
L 57.934227 183.106941 
L 57.935028 183.001732 
L 58.046037 167.69378 
L 58.04701 167.58857 
L 58.157961 156.041851 
L 58.158819 155.936641 
L 58.269885 146.853572 
L 58.271373 146.748363 
L 58.382267 139.260969 
L 58.384498 139.155759 
L 58.495564 133.114992 
L 58.497567 133.009783 
L 58.608461 127.872063 
L 58.610349 127.766853 
L 58.721072 122.857086 
L 58.724391 122.751877 
L 58.834884 118.385691 
L 58.839405 118.280482 
L 58.950184 114.335134 
L 58.955391 114.229924 
L 59.0664 110.626506 
L 59.069547 110.521297 
L 59.180155 107.207204 
L 59.185534 107.101995 
L 59.296428 104.121065 
L 59.299632 104.015856 
L 59.410412 101.280414 
L 59.417507 101.175205 
L 59.528459 98.650182 
L 59.532464 98.544972 
L 59.642729 96.195298 
L 59.648508 96.090089 
L 59.759459 93.933298 
L 59.768329 93.828089 
L 59.87928 92.100903 
L 59.88649 91.995694 
L 59.996468 90.259741 
L 60.00694 90.154531 
L 60.116804 88.585159 
L 60.1247 88.47995 
L 60.235308 87.024555 
L 60.24309 86.919346 
L 60.35387 85.674369 
L 60.363025 85.56916 
L 60.472718 84.517067 
L 60.488511 84.411858 
L 60.5958 83.324695 
L 60.612108 83.219486 
L 60.720885 82.158625 
L 60.73519 82.053416 
L 60.845169 81.001323 
L 60.86182 80.896114 
L 60.972886 79.940463 
L 60.984158 79.835253 
L 61.094823 78.976044 
L 61.110559 78.870835 
L 61.220309 78.125602 
L 61.237761 78.020393 
L 61.348426 77.318998 
L 61.368282 77.213788 
L 61.479004 76.380882 
L 61.496743 76.275672 
L 61.60758 75.504137 
L 61.627893 75.398928 
L 61.734095 74.74137 
L 61.761561 74.636161 
L 61.871654 74.171486 
L 61.8946 74.066277 
L 62.00475 73.470091 
L 62.019627 73.364882 
L 62.130579 72.847603 
L 62.15175 72.742394 
L 62.26047 72.216347 
L 62.290912 72.111138 
L 62.39986 71.646463 
L 62.426926 71.541254 
L 62.535016 71.085347 
L 62.555158 70.980138 
L 62.665823 70.541766 
L 62.693174 70.436557 
L 62.799262 70.059557 
L 62.835941 69.954347 
L 62.946262 69.551045 
L 62.972355 69.445836 
L 63.080445 69.051301 
L 63.098756 68.946092 
L 63.205759 68.569092 
L 63.254912 68.463882 
L 63.365749 68.034278 
L 63.395847 67.929068 
L 63.506398 67.578371 
L 63.548627 67.473161 
L 63.659578 67.183836 
L 63.707586 67.078627 
L 63.817393 66.815603 
L 63.851783 66.710394 
L 63.95747 66.412301 
L 64.004162 66.307092 
L 64.113111 66.070371 
L 64.152136 65.965162 
L 64.258624 65.702138 
L 64.324771 65.596929 
L 64.428741 65.360208 
L 64.471428 65.254999 
L 64.58072 65.053348 
L 64.649614 64.948138 
L 64.758734 64.66758 
L 64.781794 64.562371 
L 64.888225 64.404557 
L 64.985215 64.299348 
L 65.092275 64.159069 
L 65.167234 64.053859 
L 65.276068 63.790836 
L 65.355205 63.685627 
L 65.465183 63.492743 
L 65.522061 63.387534 
L 65.626604 63.220953 
L 65.694696 63.115743 
L 65.804332 62.92286 
L 65.873683 62.81765 
L 65.980458 62.615999 
L 66.097589 62.51079 
L 66.203104 62.335441 
L 66.30696 62.230232 
L 66.41505 62.046115 
L 66.494244 61.940906 
L 66.595983 61.783092 
L 66.711283 61.677883 
L 66.817885 61.520069 
L 66.983368 61.41486 
L 67.091115 61.300883 
L 67.221636 61.195674 
L 67.315078 61.134302 
L 67.53143 61.029092 
L 67.618806 60.906348 
L 67.769755 60.801139 
L 67.862739 60.713464 
L 67.95063 60.608255 
L 68.016663 60.520581 
L 68.169614 60.415371 
L 68.27307 60.301395 
L 68.435749 60.196185 
L 68.52118 60.134813 
L 68.654047 60.029604 
L 68.741595 59.968232 
L 68.863532 59.863023 
L 68.966873 59.792883 
L 69.193868 59.687674 
L 69.290171 59.617534 
L 69.507725 59.512325 
L 69.61181 59.424651 
L 69.762701 59.319441 
L 69.867015 59.222999 
L 70.051495 59.11779 
L 70.153463 59.047651 
L 70.295085 58.942441 
L 70.398883 58.872302 
L 70.602075 58.767093 
L 70.707189 58.653116 
L 71.10127 58.547906 
L 71.207414 58.504069 
L 71.422451 58.39886 
L 71.525734 58.284883 
L 71.688184 58.179674 
L 71.798449 58.083232 
L 71.997349 57.978023 
L 72.107156 57.890348 
L 72.275729 57.785139 
L 72.368198 57.706232 
L 72.516686 57.601023 
L 72.624318 57.557186 
L 72.88124 57.451976 
L 72.942123 57.399372 
L 73.145944 57.294162 
L 73.221475 57.259093 
L 73.557477 57.153883 
L 73.647599 57.110046 
L 74.054154 57.004837 
L 74.15595 56.952232 
L 74.60851 56.847023 
L 74.668935 56.785651 
L 74.986454 56.680442 
L 75.091283 56.619069 
L 75.427112 56.51386 
L 75.531311 56.461256 
L 75.90113 56.356046 
L 76.004414 56.294674 
L 76.439693 56.189465 
L 76.549729 56.10179 
L 77.139962 55.996581 
L 77.204679 55.952744 
L 77.554413 55.847535 
L 77.592351 55.821232 
L 78.055096 55.716023 
L 78.156835 55.698488 
L 78.493007 55.593279 
L 78.579239 55.549442 
L 79.154481 55.444232 
L 79.22904 55.400395 
L 79.610474 55.295186 
L 79.662202 55.277651 
L 80.960773 55.172442 
L 80.963062 55.154907 
L 82.209161 55.049698 
L 82.30884 55.023395 
L 82.825144 54.918186 
L 82.904738 54.865581 
L 83.997657 54.760372 
L 84.105633 54.73407 
L 85.960506 54.62886 
L 86.022876 54.611325 
L 88.989551 54.506116 
L 88.989551 54.497349 
L 92.632576 54.392139 
L 92.725675 54.374605 
L 95.829851 54.269395 
L 95.829851 54.260628 
L 102.753178 54.155419 
L 102.851312 54.120349 
L 105.364282 54.015139 
L 105.364282 54.006372 
L 106.484381 53.901163 
L 106.573131 53.87486 
L 107.696777 53.769651 
L 107.696777 53.760884 
L 112.753788 53.655674 
L 112.753788 53.646907 
L 414.72 53.568 
L 414.72 53.568 
" style="fill:none;stroke:#ff7f0e;stroke-linecap:square;stroke-width:1.5;"/>
   </g>
   <g id="line2d_16">
    <path clip-path="url(#pda9ea7e744)" d="M 57.6 295.488 
L 57.600401 295.488 
L 57.699679 237.248 
L 57.71696 237.248 
L 57.820072 201.408 
L 57.829227 201.408 
L 57.939377 177.888 
L 57.957058 177.888 
L 58.055078 167.808 
L 58.0715 167.808 
L 58.166601 156.608 
L 58.187201 156.608 
L 58.29758 144.288 
L 58.298381 144.288 
L 58.404755 133.088 
L 58.463692 133.088 
L 58.537107 126.368 
L 58.660933 126.368 
L 58.740412 121.888 
L 58.810622 121.888 
L 58.89262 118.528 
L 59.011811 118.528 
L 59.107084 110.688 
L 59.150743 110.688 
L 59.150743 109.568 
L 59.313995 109.568 
L 59.419739 100.608 
L 59.442055 100.608 
L 59.550889 96.128 
L 59.561876 96.128 
L 59.65978 93.888 
L 59.736342 93.888 
L 59.798026 91.648 
L 59.86652 91.648 
L 59.952408 89.408 
L 60.078008 89.408 
L 60.174254 87.168 
L 60.211047 87.168 
L 60.28057 83.808 
L 60.588819 83.808 
L 60.64953 81.568 
L 60.792182 81.568 
L 60.792182 80.448 
L 60.931801 80.448 
L 60.931801 79.328 
L 61.139856 79.328 
L 61.250464 77.088 
L 61.258647 77.088 
L 61.292006 74.848 
L 61.607351 74.848 
L 61.607351 73.728 
L 62.229285 73.728 
L 62.229285 72.608 
L 62.6597 72.608 
L 62.6597 71.488 
L 63.203928 71.488 
L 63.203928 70.368 
L 63.365692 70.368 
L 63.365692 69.248 
L 64.324771 69.248 
L 64.324771 68.128 
L 65.693953 68.128 
L 65.71707 65.888 
L 66.149946 65.888 
L 66.149946 64.768 
L 67.258257 64.768 
L 67.258257 63.648 
L 67.537266 63.648 
L 67.537266 62.528 
L 67.980213 62.528 
L 67.980213 61.408 
L 69.343101 61.408 
L 69.343101 60.288 
L 70.623933 60.288 
L 70.623933 59.168 
L 76.743994 59.168 
L 76.743994 58.048 
L 77.204679 58.048 
L 77.204679 56.928 
L 77.690141 56.928 
L 77.690141 55.808 
L 104.797109 55.808 
L 104.797109 54.688 
L 111.806039 54.688 
L 111.806039 53.568 
L 414.72 53.568 
L 414.72 53.568 
" style="fill:none;stroke:#2ca02c;stroke-linecap:square;stroke-width:1.5;"/>
   </g>
   <g id="patch_3">
    <path d="M 57.6 307.584 
L 57.6 41.472 
" style="fill:none;stroke:#000000;stroke-linecap:square;stroke-linejoin:miter;stroke-width:0.8;"/>
   </g>
   <g id="patch_4">
    <path d="M 414.72 307.584 
L 414.72 41.472 
" style="fill:none;stroke:#000000;stroke-linecap:square;stroke-linejoin:miter;stroke-width:0.8;"/>
   </g>
   <g id="patch_5">
    <path d="M 57.6 307.584 
L 414.72 307.584 
" style="fill:none;stroke:#000000;stroke-linecap:square;stroke-linejoin:miter;stroke-width:0.8;"/>
   </g>
   <g id="patch_6">
    <path d="M 57.6 41.472 
L 414.72 41.472 
" style="fill:none;stroke:#000000;stroke-linecap:square;stroke-linejoin:miter;stroke-width:0.8;"/>
   </g>
   <g id="text_17">
    <!-- CDF of downstream_exon_dist from within intronic STRs -->
    <g transform="translate(68.565937 35.472)scale(0.12 -0.12)">
     <defs>
      <path d="M 64.40625 67.28125 
L 64.40625 56.890625 
Q 59.421875 61.53125 53.78125 63.8125 
Q 48.140625 66.109375 41.796875 66.109375 
Q 29.296875 66.109375 22.65625 58.46875 
Q 16.015625 50.828125 16.015625 36.375 
Q 16.015625 21.96875 22.65625 14.328125 
Q 29.296875 6.6875 41.796875 6.6875 
Q 48.140625 6.6875 53.78125 8.984375 
Q 59.421875 11.28125 64.40625 15.921875 
L 64.40625 5.609375 
Q 59.234375 2.09375 53.4375 0.328125 
Q 47.65625 -1.421875 41.21875 -1.421875 
Q 24.65625 -1.421875 15.125 8.703125 
Q 5.609375 18.84375 5.609375 36.375 
Q 5.609375 53.953125 15.125 64.078125 
Q 24.65625 74.21875 41.21875 74.21875 
Q 47.75 74.21875 53.53125 72.484375 
Q 59.328125 70.75 64.40625 67.28125 
z
" id="DejaVuSans-67"/>
      <path d="M 19.671875 64.796875 
L 19.671875 8.109375 
L 31.59375 8.109375 
Q 46.6875 8.109375 53.6875 14.9375 
Q 60.6875 21.78125 60.6875 36.53125 
Q 60.6875 51.171875 53.6875 57.984375 
Q 46.6875 64.796875 31.59375 64.796875 
z
M 9.8125 72.90625 
L 30.078125 72.90625 
Q 51.265625 72.90625 61.171875 64.09375 
Q 71.09375 55.28125 71.09375 36.53125 
Q 71.09375 17.671875 61.125 8.828125 
Q 51.171875 0 30.078125 0 
L 9.8125 0 
z
" id="DejaVuSans-68"/>
      <path d="M 9.8125 72.90625 
L 51.703125 72.90625 
L 51.703125 64.59375 
L 19.671875 64.59375 
L 19.671875 43.109375 
L 48.578125 43.109375 
L 48.578125 34.8125 
L 19.671875 34.8125 
L 19.671875 0 
L 9.8125 0 
z
" id="DejaVuSans-70"/>
      <path d="M 30.609375 48.390625 
Q 23.390625 48.390625 19.1875 42.75 
Q 14.984375 37.109375 14.984375 27.296875 
Q 14.984375 17.484375 19.15625 11.84375 
Q 23.34375 6.203125 30.609375 6.203125 
Q 37.796875 6.203125 41.984375 11.859375 
Q 46.1875 17.53125 46.1875 27.296875 
Q 46.1875 37.015625 41.984375 42.703125 
Q 37.796875 48.390625 30.609375 48.390625 
z
M 30.609375 56 
Q 42.328125 56 49.015625 48.375 
Q 55.71875 40.765625 55.71875 27.296875 
Q 55.71875 13.875 49.015625 6.21875 
Q 42.328125 -1.421875 30.609375 -1.421875 
Q 18.84375 -1.421875 12.171875 6.21875 
Q 5.515625 13.875 5.515625 27.296875 
Q 5.515625 40.765625 12.171875 48.375 
Q 18.84375 56 30.609375 56 
z
" id="DejaVuSans-111"/>
      <path d="M 37.109375 75.984375 
L 37.109375 68.5 
L 28.515625 68.5 
Q 23.6875 68.5 21.796875 66.546875 
Q 19.921875 64.59375 19.921875 59.515625 
L 19.921875 54.6875 
L 34.71875 54.6875 
L 34.71875 47.703125 
L 19.921875 47.703125 
L 19.921875 0 
L 10.890625 0 
L 10.890625 47.703125 
L 2.296875 47.703125 
L 2.296875 54.6875 
L 10.890625 54.6875 
L 10.890625 58.5 
Q 10.890625 67.625 15.140625 71.796875 
Q 19.390625 75.984375 28.609375 75.984375 
z
" id="DejaVuSans-102"/>
      <path d="M 4.203125 54.6875 
L 13.1875 54.6875 
L 24.421875 12.015625 
L 35.59375 54.6875 
L 46.1875 54.6875 
L 57.421875 12.015625 
L 68.609375 54.6875 
L 77.59375 54.6875 
L 63.28125 0 
L 52.6875 0 
L 40.921875 44.828125 
L 29.109375 0 
L 18.5 0 
z
" id="DejaVuSans-119"/>
      <path d="M 41.109375 46.296875 
Q 39.59375 47.171875 37.8125 47.578125 
Q 36.03125 48 33.890625 48 
Q 26.265625 48 22.1875 43.046875 
Q 18.109375 38.09375 18.109375 28.8125 
L 18.109375 0 
L 9.078125 0 
L 9.078125 54.6875 
L 18.109375 54.6875 
L 18.109375 46.1875 
Q 20.953125 51.171875 25.484375 53.578125 
Q 30.03125 56 36.53125 56 
Q 37.453125 56 38.578125 55.875 
Q 39.703125 55.765625 41.0625 55.515625 
z
" id="DejaVuSans-114"/>
      <path d="M 52 44.1875 
Q 55.375 50.25 60.0625 53.125 
Q 64.75 56 71.09375 56 
Q 79.640625 56 84.28125 50.015625 
Q 88.921875 44.046875 88.921875 33.015625 
L 88.921875 0 
L 79.890625 0 
L 79.890625 32.71875 
Q 79.890625 40.578125 77.09375 44.375 
Q 74.3125 48.1875 68.609375 48.1875 
Q 61.625 48.1875 57.5625 43.546875 
Q 53.515625 38.921875 53.515625 30.90625 
L 53.515625 0 
L 44.484375 0 
L 44.484375 32.71875 
Q 44.484375 40.625 41.703125 44.40625 
Q 38.921875 48.1875 33.109375 48.1875 
Q 26.21875 48.1875 22.15625 43.53125 
Q 18.109375 38.875 18.109375 30.90625 
L 18.109375 0 
L 9.078125 0 
L 9.078125 54.6875 
L 18.109375 54.6875 
L 18.109375 46.1875 
Q 21.1875 51.21875 25.484375 53.609375 
Q 29.78125 56 35.6875 56 
Q 41.65625 56 45.828125 52.96875 
Q 50 49.953125 52 44.1875 
z
" id="DejaVuSans-109"/>
      <path d="M 50.984375 -16.609375 
L 50.984375 -23.578125 
L -0.984375 -23.578125 
L -0.984375 -16.609375 
z
" id="DejaVuSans-95"/>
      <path d="M 54.890625 54.6875 
L 35.109375 28.078125 
L 55.90625 0 
L 45.3125 0 
L 29.390625 21.484375 
L 13.484375 0 
L 2.875 0 
L 24.125 28.609375 
L 4.6875 54.6875 
L 15.28125 54.6875 
L 29.78125 35.203125 
L 44.28125 54.6875 
z
" id="DejaVuSans-120"/>
      <path d="M 54.890625 33.015625 
L 54.890625 0 
L 45.90625 0 
L 45.90625 32.71875 
Q 45.90625 40.484375 42.875 44.328125 
Q 39.84375 48.1875 33.796875 48.1875 
Q 26.515625 48.1875 22.3125 43.546875 
Q 18.109375 38.921875 18.109375 30.90625 
L 18.109375 0 
L 9.078125 0 
L 9.078125 75.984375 
L 18.109375 75.984375 
L 18.109375 46.1875 
Q 21.34375 51.125 25.703125 53.5625 
Q 30.078125 56 35.796875 56 
Q 45.21875 56 50.046875 50.171875 
Q 54.890625 44.34375 54.890625 33.015625 
z
" id="DejaVuSans-104"/>
      <path d="M 53.515625 70.515625 
L 53.515625 60.890625 
Q 47.90625 63.578125 42.921875 64.890625 
Q 37.9375 66.21875 33.296875 66.21875 
Q 25.25 66.21875 20.875 63.09375 
Q 16.5 59.96875 16.5 54.203125 
Q 16.5 49.359375 19.40625 46.890625 
Q 22.3125 44.4375 30.421875 42.921875 
L 36.375 41.703125 
Q 47.40625 39.59375 52.65625 34.296875 
Q 57.90625 29 57.90625 20.125 
Q 57.90625 9.515625 50.796875 4.046875 
Q 43.703125 -1.421875 29.984375 -1.421875 
Q 24.8125 -1.421875 18.96875 -0.25 
Q 13.140625 0.921875 6.890625 3.21875 
L 6.890625 13.375 
Q 12.890625 10.015625 18.65625 8.296875 
Q 24.421875 6.59375 29.984375 6.59375 
Q 38.421875 6.59375 43.015625 9.90625 
Q 47.609375 13.234375 47.609375 19.390625 
Q 47.609375 24.75 44.3125 27.78125 
Q 41.015625 30.8125 33.5 32.328125 
L 27.484375 33.5 
Q 16.453125 35.6875 11.515625 40.375 
Q 6.59375 45.0625 6.59375 53.421875 
Q 6.59375 63.09375 13.40625 68.65625 
Q 20.21875 74.21875 32.171875 74.21875 
Q 37.3125 74.21875 42.625 73.28125 
Q 47.953125 72.359375 53.515625 70.515625 
z
" id="DejaVuSans-83"/>
      <path d="M -0.296875 72.90625 
L 61.375 72.90625 
L 61.375 64.59375 
L 35.5 64.59375 
L 35.5 0 
L 25.59375 0 
L 25.59375 64.59375 
L -0.296875 64.59375 
z
" id="DejaVuSans-84"/>
      <path d="M 44.390625 34.1875 
Q 47.5625 33.109375 50.5625 29.59375 
Q 53.5625 26.078125 56.59375 19.921875 
L 66.609375 0 
L 56 0 
L 46.6875 18.703125 
Q 43.0625 26.03125 39.671875 28.421875 
Q 36.28125 30.8125 30.421875 30.8125 
L 19.671875 30.8125 
L 19.671875 0 
L 9.8125 0 
L 9.8125 72.90625 
L 32.078125 72.90625 
Q 44.578125 72.90625 50.734375 67.671875 
Q 56.890625 62.453125 56.890625 51.90625 
Q 56.890625 45.015625 53.6875 40.46875 
Q 50.484375 35.9375 44.390625 34.1875 
z
M 19.671875 64.796875 
L 19.671875 38.921875 
L 32.078125 38.921875 
Q 39.203125 38.921875 42.84375 42.21875 
Q 46.484375 45.515625 46.484375 51.90625 
Q 46.484375 58.296875 42.84375 61.546875 
Q 39.203125 64.796875 32.078125 64.796875 
z
" id="DejaVuSans-82"/>
     </defs>
     <use xlink:href="#DejaVuSans-67"/>
     <use x="69.824219" xlink:href="#DejaVuSans-68"/>
     <use x="146.826172" xlink:href="#DejaVuSans-70"/>
     <use x="204.345703" xlink:href="#DejaVuSans-32"/>
     <use x="236.132812" xlink:href="#DejaVuSans-111"/>
     <use x="297.314453" xlink:href="#DejaVuSans-102"/>
     <use x="332.519531" xlink:href="#DejaVuSans-32"/>
     <use x="364.306641" xlink:href="#DejaVuSans-100"/>
     <use x="427.783203" xlink:href="#DejaVuSans-111"/>
     <use x="488.964844" xlink:href="#DejaVuSans-119"/>
     <use x="570.751953" xlink:href="#DejaVuSans-110"/>
     <use x="634.130859" xlink:href="#DejaVuSans-115"/>
     <use x="686.230469" xlink:href="#DejaVuSans-116"/>
     <use x="725.439453" xlink:href="#DejaVuSans-114"/>
     <use x="764.302734" xlink:href="#DejaVuSans-101"/>
     <use x="825.826172" xlink:href="#DejaVuSans-97"/>
     <use x="887.105469" xlink:href="#DejaVuSans-109"/>
     <use x="984.517578" xlink:href="#DejaVuSans-95"/>
     <use x="1034.517578" xlink:href="#DejaVuSans-101"/>
     <use x="1094.291016" xlink:href="#DejaVuSans-120"/>
     <use x="1150.345703" xlink:href="#DejaVuSans-111"/>
     <use x="1211.527344" xlink:href="#DejaVuSans-110"/>
     <use x="1274.90625" xlink:href="#DejaVuSans-95"/>
     <use x="1324.90625" xlink:href="#DejaVuSans-100"/>
     <use x="1388.382812" xlink:href="#DejaVuSans-105"/>
     <use x="1416.166016" xlink:href="#DejaVuSans-115"/>
     <use x="1468.265625" xlink:href="#DejaVuSans-116"/>
     <use x="1507.474609" xlink:href="#DejaVuSans-32"/>
     <use x="1539.261719" xlink:href="#DejaVuSans-102"/>
     <use x="1574.466797" xlink:href="#DejaVuSans-114"/>
     <use x="1613.330078" xlink:href="#DejaVuSans-111"/>
     <use x="1674.511719" xlink:href="#DejaVuSans-109"/>
     <use x="1771.923828" xlink:href="#DejaVuSans-32"/>
     <use x="1803.710938" xlink:href="#DejaVuSans-119"/>
     <use x="1885.498047" xlink:href="#DejaVuSans-105"/>
     <use x="1913.28125" xlink:href="#DejaVuSans-116"/>
     <use x="1952.490234" xlink:href="#DejaVuSans-104"/>
     <use x="2015.869141" xlink:href="#DejaVuSans-105"/>
     <use x="2043.652344" xlink:href="#DejaVuSans-110"/>
     <use x="2107.03125" xlink:href="#DejaVuSans-32"/>
     <use x="2138.818359" xlink:href="#DejaVuSans-105"/>
     <use x="2166.601562" xlink:href="#DejaVuSans-110"/>
     <use x="2229.980469" xlink:href="#DejaVuSans-116"/>
     <use x="2269.189453" xlink:href="#DejaVuSans-114"/>
     <use x="2308.052734" xlink:href="#DejaVuSans-111"/>
     <use x="2369.234375" xlink:href="#DejaVuSans-110"/>
     <use x="2432.613281" xlink:href="#DejaVuSans-105"/>
     <use x="2460.396484" xlink:href="#DejaVuSans-99"/>
     <use x="2515.376953" xlink:href="#DejaVuSans-32"/>
     <use x="2547.164062" xlink:href="#DejaVuSans-83"/>
     <use x="2610.640625" xlink:href="#DejaVuSans-84"/>
     <use x="2671.724609" xlink:href="#DejaVuSans-82"/>
     <use x="2741.207031" xlink:href="#DejaVuSans-115"/>
    </g>
   </g>
   <g id="legend_1">
    <g id="patch_7">
     <path d="M 64.6 302.584 
L 152.739062 302.584 
Q 154.739062 302.584 154.739062 300.584 
L 154.739062 256.993375 
Q 154.739062 254.993375 152.739062 254.993375 
L 64.6 254.993375 
Q 62.6 254.993375 62.6 256.993375 
L 62.6 300.584 
Q 62.6 302.584 64.6 302.584 
z
" style="fill:#ffffff;opacity:0.8;stroke:#cccccc;stroke-linejoin:miter;"/>
    </g>
    <g id="line2d_17">
     <path d="M 66.6 263.091812 
L 86.6 263.091812 
" style="fill:none;stroke:#1f77b4;stroke-linecap:square;stroke-width:1.5;"/>
    </g>
    <g id="line2d_18"/>
    <g id="text_18">
     <!-- all_STRs -->
     <g transform="translate(94.6 266.591812)scale(0.1 -0.1)">
      <defs>
       <path d="M 9.421875 75.984375 
L 18.40625 75.984375 
L 18.40625 0 
L 9.421875 0 
z
" id="DejaVuSans-108"/>
      </defs>
      <use xlink:href="#DejaVuSans-97"/>
      <use x="61.279297" xlink:href="#DejaVuSans-108"/>
      <use x="89.0625" xlink:href="#DejaVuSans-108"/>
      <use x="116.845703" xlink:href="#DejaVuSans-95"/>
      <use x="166.845703" xlink:href="#DejaVuSans-83"/>
      <use x="230.322266" xlink:href="#DejaVuSans-84"/>
      <use x="291.40625" xlink:href="#DejaVuSans-82"/>
      <use x="360.888672" xlink:href="#DejaVuSans-115"/>
     </g>
    </g>
    <g id="line2d_19">
     <path d="M 66.6 278.048062 
L 86.6 278.048062 
" style="fill:none;stroke:#ff7f0e;stroke-linecap:square;stroke-width:1.5;"/>
    </g>
    <g id="line2d_20"/>
    <g id="text_19">
     <!-- gwas_sig -->
     <g transform="translate(94.6 281.548062)scale(0.1 -0.1)">
      <defs>
       <path d="M 45.40625 27.984375 
Q 45.40625 37.75 41.375 43.109375 
Q 37.359375 48.484375 30.078125 48.484375 
Q 22.859375 48.484375 18.828125 43.109375 
Q 14.796875 37.75 14.796875 27.984375 
Q 14.796875 18.265625 18.828125 12.890625 
Q 22.859375 7.515625 30.078125 7.515625 
Q 37.359375 7.515625 41.375 12.890625 
Q 45.40625 18.265625 45.40625 27.984375 
z
M 54.390625 6.78125 
Q 54.390625 -7.171875 48.1875 -13.984375 
Q 42 -20.796875 29.203125 -20.796875 
Q 24.46875 -20.796875 20.265625 -20.09375 
Q 16.0625 -19.390625 12.109375 -17.921875 
L 12.109375 -9.1875 
Q 16.0625 -11.328125 19.921875 -12.34375 
Q 23.78125 -13.375 27.78125 -13.375 
Q 36.625 -13.375 41.015625 -8.765625 
Q 45.40625 -4.15625 45.40625 5.171875 
L 45.40625 9.625 
Q 42.625 4.78125 38.28125 2.390625 
Q 33.9375 0 27.875 0 
Q 17.828125 0 11.671875 7.65625 
Q 5.515625 15.328125 5.515625 27.984375 
Q 5.515625 40.671875 11.671875 48.328125 
Q 17.828125 56 27.875 56 
Q 33.9375 56 38.28125 53.609375 
Q 42.625 51.21875 45.40625 46.390625 
L 45.40625 54.6875 
L 54.390625 54.6875 
z
" id="DejaVuSans-103"/>
      </defs>
      <use xlink:href="#DejaVuSans-103"/>
      <use x="63.476562" xlink:href="#DejaVuSans-119"/>
      <use x="145.263672" xlink:href="#DejaVuSans-97"/>
      <use x="206.542969" xlink:href="#DejaVuSans-115"/>
      <use x="258.642578" xlink:href="#DejaVuSans-95"/>
      <use x="308.642578" xlink:href="#DejaVuSans-115"/>
      <use x="360.742188" xlink:href="#DejaVuSans-105"/>
      <use x="388.525391" xlink:href="#DejaVuSans-103"/>
     </g>
    </g>
    <g id="line2d_21">
     <path d="M 66.6 293.004312 
L 86.6 293.004312 
" style="fill:none;stroke:#2ca02c;stroke-linecap:square;stroke-width:1.5;"/>
    </g>
    <g id="line2d_22"/>
    <g id="text_20">
     <!-- FINEMAPed -->
     <g transform="translate(94.6 296.504312)scale(0.1 -0.1)">
      <defs>
       <path d="M 9.8125 72.90625 
L 19.671875 72.90625 
L 19.671875 0 
L 9.8125 0 
z
" id="DejaVuSans-73"/>
       <path d="M 9.8125 72.90625 
L 23.09375 72.90625 
L 55.421875 11.921875 
L 55.421875 72.90625 
L 64.984375 72.90625 
L 64.984375 0 
L 51.703125 0 
L 19.390625 60.984375 
L 19.390625 0 
L 9.8125 0 
z
" id="DejaVuSans-78"/>
       <path d="M 9.8125 72.90625 
L 55.90625 72.90625 
L 55.90625 64.59375 
L 19.671875 64.59375 
L 19.671875 43.015625 
L 54.390625 43.015625 
L 54.390625 34.71875 
L 19.671875 34.71875 
L 19.671875 8.296875 
L 56.78125 8.296875 
L 56.78125 0 
L 9.8125 0 
z
" id="DejaVuSans-69"/>
       <path d="M 9.8125 72.90625 
L 24.515625 72.90625 
L 43.109375 23.296875 
L 61.8125 72.90625 
L 76.515625 72.90625 
L 76.515625 0 
L 66.890625 0 
L 66.890625 64.015625 
L 48.09375 14.015625 
L 38.1875 14.015625 
L 19.390625 64.015625 
L 19.390625 0 
L 9.8125 0 
z
" id="DejaVuSans-77"/>
       <path d="M 34.1875 63.1875 
L 20.796875 26.90625 
L 47.609375 26.90625 
z
M 28.609375 72.90625 
L 39.796875 72.90625 
L 67.578125 0 
L 57.328125 0 
L 50.6875 18.703125 
L 17.828125 18.703125 
L 11.1875 0 
L 0.78125 0 
z
" id="DejaVuSans-65"/>
       <path d="M 19.671875 64.796875 
L 19.671875 37.40625 
L 32.078125 37.40625 
Q 38.96875 37.40625 42.71875 40.96875 
Q 46.484375 44.53125 46.484375 51.125 
Q 46.484375 57.671875 42.71875 61.234375 
Q 38.96875 64.796875 32.078125 64.796875 
z
M 9.8125 72.90625 
L 32.078125 72.90625 
Q 44.34375 72.90625 50.609375 67.359375 
Q 56.890625 61.8125 56.890625 51.125 
Q 56.890625 40.328125 50.609375 34.8125 
Q 44.34375 29.296875 32.078125 29.296875 
L 19.671875 29.296875 
L 19.671875 0 
L 9.8125 0 
z
" id="DejaVuSans-80"/>
      </defs>
      <use xlink:href="#DejaVuSans-70"/>
      <use x="57.519531" xlink:href="#DejaVuSans-73"/>
      <use x="87.011719" xlink:href="#DejaVuSans-78"/>
      <use x="161.816406" xlink:href="#DejaVuSans-69"/>
      <use x="225" xlink:href="#DejaVuSans-77"/>
      <use x="311.279297" xlink:href="#DejaVuSans-65"/>
      <use x="379.6875" xlink:href="#DejaVuSans-80"/>
      <use x="436.365234" xlink:href="#DejaVuSans-101"/>
      <use x="497.888672" xlink:href="#DejaVuSans-100"/>
     </g>
    </g>
   </g>
  </g>
 </g>
 <defs>
  <clipPath id="pda9ea7e744">
   <rect height="266.112" width="357.12" x="57.6" y="41.472"/>
  </clipPath>
 </defs>
</svg>
