<?xml version="1.0" encoding="utf-8" standalone="no"?>
<!DOCTYPE svg PUBLIC "-//W3C//DTD SVG 1.1//EN"
  "http://www.w3.org/Graphics/SVG/1.1/DTD/svg11.dtd">
<!-- Created with matplotlib (https://matplotlib.org/) -->
<svg height="345.6pt" version="1.1" viewBox="0 0 460.8 345.6" width="460.8pt" xmlns="http://www.w3.org/2000/svg" xmlns:xlink="http://www.w3.org/1999/xlink">
 <metadata>
  <rdf:RDF xmlns:cc="http://creativecommons.org/ns#" xmlns:dc="http://purl.org/dc/elements/1.1/" xmlns:rdf="http://www.w3.org/1999/02/22-rdf-syntax-ns#">
   <cc:Work>
    <dc:type rdf:resource="http://purl.org/dc/dcmitype/StillImage"/>
    <dc:date>2021-11-03T00:02:08.506544</dc:date>
    <dc:format>image/svg+xml</dc:format>
    <dc:creator>
     <cc:Agent>
      <dc:title>Matplotlib v3.3.4, https://matplotlib.org/</dc:title>
     </cc:Agent>
    </dc:creator>
   </cc:Work>
  </rdf:RDF>
 </metadata>
 <defs>
  <style type="text/css">*{stroke-linecap:butt;stroke-linejoin:round;}</style>
 </defs>
 <g id="figure_1">
  <g id="patch_1">
   <path d="M 0 345.6 
L 460.8 345.6 
L 460.8 0 
L 0 0 
z
" style="fill:#ffffff;"/>
  </g>
  <g id="axes_1">
   <g id="patch_2">
    <path d="M 57.6 307.584 
L 414.72 307.584 
L 414.72 41.472 
L 57.6 41.472 
z
" style="fill:#ffffff;"/>
   </g>
   <g id="matplotlib.axis_1">
    <g id="xtick_1">
     <g id="line2d_1">
      <defs>
       <path d="M 0 0 
L 0 3.5 
" id="m86c5649f39" style="stroke:#000000;stroke-width:0.8;"/>
      </defs>
      <g>
       <use style="stroke:#000000;stroke-width:0.8;" x="57.6" xlink:href="#m86c5649f39" y="307.584"/>
      </g>
     </g>
     <g id="text_1">
      <!-- 0 -->
      <g transform="translate(54.41875 322.182437)scale(0.1 -0.1)">
       <defs>
        <path d="M 31.78125 66.40625 
Q 24.171875 66.40625 20.328125 58.90625 
Q 16.5 51.421875 16.5 36.375 
Q 16.5 21.390625 20.328125 13.890625 
Q 24.171875 6.390625 31.78125 6.390625 
Q 39.453125 6.390625 43.28125 13.890625 
Q 47.125 21.390625 47.125 36.375 
Q 47.125 51.421875 43.28125 58.90625 
Q 39.453125 66.40625 31.78125 66.40625 
z
M 31.78125 74.21875 
Q 44.046875 74.21875 50.515625 64.515625 
Q 56.984375 54.828125 56.984375 36.375 
Q 56.984375 17.96875 50.515625 8.265625 
Q 44.046875 -1.421875 31.78125 -1.421875 
Q 19.53125 -1.421875 13.0625 8.265625 
Q 6.59375 17.96875 6.59375 36.375 
Q 6.59375 54.828125 13.0625 64.515625 
Q 19.53125 74.21875 31.78125 74.21875 
z
" id="DejaVuSans-48"/>
       </defs>
       <use xlink:href="#DejaVuSans-48"/>
      </g>
     </g>
    </g>
    <g id="xtick_2">
     <g id="line2d_2">
      <g>
       <use style="stroke:#000000;stroke-width:0.8;" x="105.362804" xlink:href="#m86c5649f39" y="307.584"/>
      </g>
     </g>
     <g id="text_2">
      <!-- 1 -->
      <g transform="translate(102.181554 322.182437)scale(0.1 -0.1)">
       <defs>
        <path d="M 12.40625 8.296875 
L 28.515625 8.296875 
L 28.515625 63.921875 
L 10.984375 60.40625 
L 10.984375 69.390625 
L 28.421875 72.90625 
L 38.28125 72.90625 
L 38.28125 8.296875 
L 54.390625 8.296875 
L 54.390625 0 
L 12.40625 0 
z
" id="DejaVuSans-49"/>
       </defs>
       <use xlink:href="#DejaVuSans-49"/>
      </g>
     </g>
    </g>
    <g id="xtick_3">
     <g id="line2d_3">
      <g>
       <use style="stroke:#000000;stroke-width:0.8;" x="153.125608" xlink:href="#m86c5649f39" y="307.584"/>
      </g>
     </g>
     <g id="text_3">
      <!-- 2 -->
      <g transform="translate(149.944358 322.182437)scale(0.1 -0.1)">
       <defs>
        <path d="M 19.1875 8.296875 
L 53.609375 8.296875 
L 53.609375 0 
L 7.328125 0 
L 7.328125 8.296875 
Q 12.9375 14.109375 22.625 23.890625 
Q 32.328125 33.6875 34.8125 36.53125 
Q 39.546875 41.84375 41.421875 45.53125 
Q 43.3125 49.21875 43.3125 52.78125 
Q 43.3125 58.59375 39.234375 62.25 
Q 35.15625 65.921875 28.609375 65.921875 
Q 23.96875 65.921875 18.8125 64.3125 
Q 13.671875 62.703125 7.8125 59.421875 
L 7.8125 69.390625 
Q 13.765625 71.78125 18.9375 73 
Q 24.125 74.21875 28.421875 74.21875 
Q 39.75 74.21875 46.484375 68.546875 
Q 53.21875 62.890625 53.21875 53.421875 
Q 53.21875 48.921875 51.53125 44.890625 
Q 49.859375 40.875 45.40625 35.40625 
Q 44.1875 33.984375 37.640625 27.21875 
Q 31.109375 20.453125 19.1875 8.296875 
z
" id="DejaVuSans-50"/>
       </defs>
       <use xlink:href="#DejaVuSans-50"/>
      </g>
     </g>
    </g>
    <g id="xtick_4">
     <g id="line2d_4">
      <g>
       <use style="stroke:#000000;stroke-width:0.8;" x="200.888411" xlink:href="#m86c5649f39" y="307.584"/>
      </g>
     </g>
     <g id="text_4">
      <!-- 3 -->
      <g transform="translate(197.707161 322.182437)scale(0.1 -0.1)">
       <defs>
        <path d="M 40.578125 39.3125 
Q 47.65625 37.796875 51.625 33 
Q 55.609375 28.21875 55.609375 21.1875 
Q 55.609375 10.40625 48.1875 4.484375 
Q 40.765625 -1.421875 27.09375 -1.421875 
Q 22.515625 -1.421875 17.65625 -0.515625 
Q 12.796875 0.390625 7.625 2.203125 
L 7.625 11.71875 
Q 11.71875 9.328125 16.59375 8.109375 
Q 21.484375 6.890625 26.8125 6.890625 
Q 36.078125 6.890625 40.9375 10.546875 
Q 45.796875 14.203125 45.796875 21.1875 
Q 45.796875 27.640625 41.28125 31.265625 
Q 36.765625 34.90625 28.71875 34.90625 
L 20.21875 34.90625 
L 20.21875 43.015625 
L 29.109375 43.015625 
Q 36.375 43.015625 40.234375 45.921875 
Q 44.09375 48.828125 44.09375 54.296875 
Q 44.09375 59.90625 40.109375 62.90625 
Q 36.140625 65.921875 28.71875 65.921875 
Q 24.65625 65.921875 20.015625 65.03125 
Q 15.375 64.15625 9.8125 62.3125 
L 9.8125 71.09375 
Q 15.4375 72.65625 20.34375 73.4375 
Q 25.25 74.21875 29.59375 74.21875 
Q 40.828125 74.21875 47.359375 69.109375 
Q 53.90625 64.015625 53.90625 55.328125 
Q 53.90625 49.265625 50.4375 45.09375 
Q 46.96875 40.921875 40.578125 39.3125 
z
" id="DejaVuSans-51"/>
       </defs>
       <use xlink:href="#DejaVuSans-51"/>
      </g>
     </g>
    </g>
    <g id="xtick_5">
     <g id="line2d_5">
      <g>
       <use style="stroke:#000000;stroke-width:0.8;" x="248.651215" xlink:href="#m86c5649f39" y="307.584"/>
      </g>
     </g>
     <g id="text_5">
      <!-- 4 -->
      <g transform="translate(245.469965 322.182437)scale(0.1 -0.1)">
       <defs>
        <path d="M 37.796875 64.3125 
L 12.890625 25.390625 
L 37.796875 25.390625 
z
M 35.203125 72.90625 
L 47.609375 72.90625 
L 47.609375 25.390625 
L 58.015625 25.390625 
L 58.015625 17.1875 
L 47.609375 17.1875 
L 47.609375 0 
L 37.796875 0 
L 37.796875 17.1875 
L 4.890625 17.1875 
L 4.890625 26.703125 
z
" id="DejaVuSans-52"/>
       </defs>
       <use xlink:href="#DejaVuSans-52"/>
      </g>
     </g>
    </g>
    <g id="xtick_6">
     <g id="line2d_6">
      <g>
       <use style="stroke:#000000;stroke-width:0.8;" x="296.414019" xlink:href="#m86c5649f39" y="307.584"/>
      </g>
     </g>
     <g id="text_6">
      <!-- 5 -->
      <g transform="translate(293.232769 322.182437)scale(0.1 -0.1)">
       <defs>
        <path d="M 10.796875 72.90625 
L 49.515625 72.90625 
L 49.515625 64.59375 
L 19.828125 64.59375 
L 19.828125 46.734375 
Q 21.96875 47.46875 24.109375 47.828125 
Q 26.265625 48.1875 28.421875 48.1875 
Q 40.625 48.1875 47.75 41.5 
Q 54.890625 34.8125 54.890625 23.390625 
Q 54.890625 11.625 47.5625 5.09375 
Q 40.234375 -1.421875 26.90625 -1.421875 
Q 22.3125 -1.421875 17.546875 -0.640625 
Q 12.796875 0.140625 7.71875 1.703125 
L 7.71875 11.625 
Q 12.109375 9.234375 16.796875 8.0625 
Q 21.484375 6.890625 26.703125 6.890625 
Q 35.15625 6.890625 40.078125 11.328125 
Q 45.015625 15.765625 45.015625 23.390625 
Q 45.015625 31 40.078125 35.4375 
Q 35.15625 39.890625 26.703125 39.890625 
Q 22.75 39.890625 18.8125 39.015625 
Q 14.890625 38.140625 10.796875 36.28125 
z
" id="DejaVuSans-53"/>
       </defs>
       <use xlink:href="#DejaVuSans-53"/>
      </g>
     </g>
    </g>
    <g id="xtick_7">
     <g id="line2d_7">
      <g>
       <use style="stroke:#000000;stroke-width:0.8;" x="344.176823" xlink:href="#m86c5649f39" y="307.584"/>
      </g>
     </g>
     <g id="text_7">
      <!-- 6 -->
      <g transform="translate(340.995573 322.182437)scale(0.1 -0.1)">
       <defs>
        <path d="M 33.015625 40.375 
Q 26.375 40.375 22.484375 35.828125 
Q 18.609375 31.296875 18.609375 23.390625 
Q 18.609375 15.53125 22.484375 10.953125 
Q 26.375 6.390625 33.015625 6.390625 
Q 39.65625 6.390625 43.53125 10.953125 
Q 47.40625 15.53125 47.40625 23.390625 
Q 47.40625 31.296875 43.53125 35.828125 
Q 39.65625 40.375 33.015625 40.375 
z
M 52.59375 71.296875 
L 52.59375 62.3125 
Q 48.875 64.0625 45.09375 64.984375 
Q 41.3125 65.921875 37.59375 65.921875 
Q 27.828125 65.921875 22.671875 59.328125 
Q 17.53125 52.734375 16.796875 39.40625 
Q 19.671875 43.65625 24.015625 45.921875 
Q 28.375 48.1875 33.59375 48.1875 
Q 44.578125 48.1875 50.953125 41.515625 
Q 57.328125 34.859375 57.328125 23.390625 
Q 57.328125 12.15625 50.6875 5.359375 
Q 44.046875 -1.421875 33.015625 -1.421875 
Q 20.359375 -1.421875 13.671875 8.265625 
Q 6.984375 17.96875 6.984375 36.375 
Q 6.984375 53.65625 15.1875 63.9375 
Q 23.390625 74.21875 37.203125 74.21875 
Q 40.921875 74.21875 44.703125 73.484375 
Q 48.484375 72.75 52.59375 71.296875 
z
" id="DejaVuSans-54"/>
       </defs>
       <use xlink:href="#DejaVuSans-54"/>
      </g>
     </g>
    </g>
    <g id="xtick_8">
     <g id="line2d_8">
      <g>
       <use style="stroke:#000000;stroke-width:0.8;" x="391.939626" xlink:href="#m86c5649f39" y="307.584"/>
      </g>
     </g>
     <g id="text_8">
      <!-- 7 -->
      <g transform="translate(388.758376 322.182437)scale(0.1 -0.1)">
       <defs>
        <path d="M 8.203125 72.90625 
L 55.078125 72.90625 
L 55.078125 68.703125 
L 28.609375 0 
L 18.3125 0 
L 43.21875 64.59375 
L 8.203125 64.59375 
z
" id="DejaVuSans-55"/>
       </defs>
       <use xlink:href="#DejaVuSans-55"/>
      </g>
     </g>
    </g>
    <g id="text_9">
     <!-- distance (bp) -->
     <g transform="translate(203.134219 335.860562)scale(0.1 -0.1)">
      <defs>
       <path d="M 45.40625 46.390625 
L 45.40625 75.984375 
L 54.390625 75.984375 
L 54.390625 0 
L 45.40625 0 
L 45.40625 8.203125 
Q 42.578125 3.328125 38.25 0.953125 
Q 33.9375 -1.421875 27.875 -1.421875 
Q 17.96875 -1.421875 11.734375 6.484375 
Q 5.515625 14.40625 5.515625 27.296875 
Q 5.515625 40.1875 11.734375 48.09375 
Q 17.96875 56 27.875 56 
Q 33.9375 56 38.25 53.625 
Q 42.578125 51.265625 45.40625 46.390625 
z
M 14.796875 27.296875 
Q 14.796875 17.390625 18.875 11.75 
Q 22.953125 6.109375 30.078125 6.109375 
Q 37.203125 6.109375 41.296875 11.75 
Q 45.40625 17.390625 45.40625 27.296875 
Q 45.40625 37.203125 41.296875 42.84375 
Q 37.203125 48.484375 30.078125 48.484375 
Q 22.953125 48.484375 18.875 42.84375 
Q 14.796875 37.203125 14.796875 27.296875 
z
" id="DejaVuSans-100"/>
       <path d="M 9.421875 54.6875 
L 18.40625 54.6875 
L 18.40625 0 
L 9.421875 0 
z
M 9.421875 75.984375 
L 18.40625 75.984375 
L 18.40625 64.59375 
L 9.421875 64.59375 
z
" id="DejaVuSans-105"/>
       <path d="M 44.28125 53.078125 
L 44.28125 44.578125 
Q 40.484375 46.53125 36.375 47.5 
Q 32.28125 48.484375 27.875 48.484375 
Q 21.1875 48.484375 17.84375 46.4375 
Q 14.5 44.390625 14.5 40.28125 
Q 14.5 37.15625 16.890625 35.375 
Q 19.28125 33.59375 26.515625 31.984375 
L 29.59375 31.296875 
Q 39.15625 29.25 43.1875 25.515625 
Q 47.21875 21.78125 47.21875 15.09375 
Q 47.21875 7.46875 41.1875 3.015625 
Q 35.15625 -1.421875 24.609375 -1.421875 
Q 20.21875 -1.421875 15.453125 -0.5625 
Q 10.6875 0.296875 5.421875 2 
L 5.421875 11.28125 
Q 10.40625 8.6875 15.234375 7.390625 
Q 20.0625 6.109375 24.8125 6.109375 
Q 31.15625 6.109375 34.5625 8.28125 
Q 37.984375 10.453125 37.984375 14.40625 
Q 37.984375 18.0625 35.515625 20.015625 
Q 33.0625 21.96875 24.703125 23.78125 
L 21.578125 24.515625 
Q 13.234375 26.265625 9.515625 29.90625 
Q 5.8125 33.546875 5.8125 39.890625 
Q 5.8125 47.609375 11.28125 51.796875 
Q 16.75 56 26.8125 56 
Q 31.78125 56 36.171875 55.265625 
Q 40.578125 54.546875 44.28125 53.078125 
z
" id="DejaVuSans-115"/>
       <path d="M 18.3125 70.21875 
L 18.3125 54.6875 
L 36.8125 54.6875 
L 36.8125 47.703125 
L 18.3125 47.703125 
L 18.3125 18.015625 
Q 18.3125 11.328125 20.140625 9.421875 
Q 21.96875 7.515625 27.59375 7.515625 
L 36.8125 7.515625 
L 36.8125 0 
L 27.59375 0 
Q 17.1875 0 13.234375 3.875 
Q 9.28125 7.765625 9.28125 18.015625 
L 9.28125 47.703125 
L 2.6875 47.703125 
L 2.6875 54.6875 
L 9.28125 54.6875 
L 9.28125 70.21875 
z
" id="DejaVuSans-116"/>
       <path d="M 34.28125 27.484375 
Q 23.390625 27.484375 19.1875 25 
Q 14.984375 22.515625 14.984375 16.5 
Q 14.984375 11.71875 18.140625 8.90625 
Q 21.296875 6.109375 26.703125 6.109375 
Q 34.1875 6.109375 38.703125 11.40625 
Q 43.21875 16.703125 43.21875 25.484375 
L 43.21875 27.484375 
z
M 52.203125 31.203125 
L 52.203125 0 
L 43.21875 0 
L 43.21875 8.296875 
Q 40.140625 3.328125 35.546875 0.953125 
Q 30.953125 -1.421875 24.3125 -1.421875 
Q 15.921875 -1.421875 10.953125 3.296875 
Q 6 8.015625 6 15.921875 
Q 6 25.140625 12.171875 29.828125 
Q 18.359375 34.515625 30.609375 34.515625 
L 43.21875 34.515625 
L 43.21875 35.40625 
Q 43.21875 41.609375 39.140625 45 
Q 35.0625 48.390625 27.6875 48.390625 
Q 23 48.390625 18.546875 47.265625 
Q 14.109375 46.140625 10.015625 43.890625 
L 10.015625 52.203125 
Q 14.9375 54.109375 19.578125 55.046875 
Q 24.21875 56 28.609375 56 
Q 40.484375 56 46.34375 49.84375 
Q 52.203125 43.703125 52.203125 31.203125 
z
" id="DejaVuSans-97"/>
       <path d="M 54.890625 33.015625 
L 54.890625 0 
L 45.90625 0 
L 45.90625 32.71875 
Q 45.90625 40.484375 42.875 44.328125 
Q 39.84375 48.1875 33.796875 48.1875 
Q 26.515625 48.1875 22.3125 43.546875 
Q 18.109375 38.921875 18.109375 30.90625 
L 18.109375 0 
L 9.078125 0 
L 9.078125 54.6875 
L 18.109375 54.6875 
L 18.109375 46.1875 
Q 21.34375 51.125 25.703125 53.5625 
Q 30.078125 56 35.796875 56 
Q 45.21875 56 50.046875 50.171875 
Q 54.890625 44.34375 54.890625 33.015625 
z
" id="DejaVuSans-110"/>
       <path d="M 48.78125 52.59375 
L 48.78125 44.1875 
Q 44.96875 46.296875 41.140625 47.34375 
Q 37.3125 48.390625 33.40625 48.390625 
Q 24.65625 48.390625 19.8125 42.84375 
Q 14.984375 37.3125 14.984375 27.296875 
Q 14.984375 17.28125 19.8125 11.734375 
Q 24.65625 6.203125 33.40625 6.203125 
Q 37.3125 6.203125 41.140625 7.25 
Q 44.96875 8.296875 48.78125 10.40625 
L 48.78125 2.09375 
Q 45.015625 0.34375 40.984375 -0.53125 
Q 36.96875 -1.421875 32.421875 -1.421875 
Q 20.0625 -1.421875 12.78125 6.34375 
Q 5.515625 14.109375 5.515625 27.296875 
Q 5.515625 40.671875 12.859375 48.328125 
Q 20.21875 56 33.015625 56 
Q 37.15625 56 41.109375 55.140625 
Q 45.0625 54.296875 48.78125 52.59375 
z
" id="DejaVuSans-99"/>
       <path d="M 56.203125 29.59375 
L 56.203125 25.203125 
L 14.890625 25.203125 
Q 15.484375 15.921875 20.484375 11.0625 
Q 25.484375 6.203125 34.421875 6.203125 
Q 39.59375 6.203125 44.453125 7.46875 
Q 49.3125 8.734375 54.109375 11.28125 
L 54.109375 2.78125 
Q 49.265625 0.734375 44.1875 -0.34375 
Q 39.109375 -1.421875 33.890625 -1.421875 
Q 20.796875 -1.421875 13.15625 6.1875 
Q 5.515625 13.8125 5.515625 26.8125 
Q 5.515625 40.234375 12.765625 48.109375 
Q 20.015625 56 32.328125 56 
Q 43.359375 56 49.78125 48.890625 
Q 56.203125 41.796875 56.203125 29.59375 
z
M 47.21875 32.234375 
Q 47.125 39.59375 43.09375 43.984375 
Q 39.0625 48.390625 32.421875 48.390625 
Q 24.90625 48.390625 20.390625 44.140625 
Q 15.875 39.890625 15.1875 32.171875 
z
" id="DejaVuSans-101"/>
       <path id="DejaVuSans-32"/>
       <path d="M 31 75.875 
Q 24.46875 64.65625 21.28125 53.65625 
Q 18.109375 42.671875 18.109375 31.390625 
Q 18.109375 20.125 21.3125 9.0625 
Q 24.515625 -2 31 -13.1875 
L 23.1875 -13.1875 
Q 15.875 -1.703125 12.234375 9.375 
Q 8.59375 20.453125 8.59375 31.390625 
Q 8.59375 42.28125 12.203125 53.3125 
Q 15.828125 64.359375 23.1875 75.875 
z
" id="DejaVuSans-40"/>
       <path d="M 48.6875 27.296875 
Q 48.6875 37.203125 44.609375 42.84375 
Q 40.53125 48.484375 33.40625 48.484375 
Q 26.265625 48.484375 22.1875 42.84375 
Q 18.109375 37.203125 18.109375 27.296875 
Q 18.109375 17.390625 22.1875 11.75 
Q 26.265625 6.109375 33.40625 6.109375 
Q 40.53125 6.109375 44.609375 11.75 
Q 48.6875 17.390625 48.6875 27.296875 
z
M 18.109375 46.390625 
Q 20.953125 51.265625 25.265625 53.625 
Q 29.59375 56 35.59375 56 
Q 45.5625 56 51.78125 48.09375 
Q 58.015625 40.1875 58.015625 27.296875 
Q 58.015625 14.40625 51.78125 6.484375 
Q 45.5625 -1.421875 35.59375 -1.421875 
Q 29.59375 -1.421875 25.265625 0.953125 
Q 20.953125 3.328125 18.109375 8.203125 
L 18.109375 0 
L 9.078125 0 
L 9.078125 75.984375 
L 18.109375 75.984375 
z
" id="DejaVuSans-98"/>
       <path d="M 18.109375 8.203125 
L 18.109375 -20.796875 
L 9.078125 -20.796875 
L 9.078125 54.6875 
L 18.109375 54.6875 
L 18.109375 46.390625 
Q 20.953125 51.265625 25.265625 53.625 
Q 29.59375 56 35.59375 56 
Q 45.5625 56 51.78125 48.09375 
Q 58.015625 40.1875 58.015625 27.296875 
Q 58.015625 14.40625 51.78125 6.484375 
Q 45.5625 -1.421875 35.59375 -1.421875 
Q 29.59375 -1.421875 25.265625 0.953125 
Q 20.953125 3.328125 18.109375 8.203125 
z
M 48.6875 27.296875 
Q 48.6875 37.203125 44.609375 42.84375 
Q 40.53125 48.484375 33.40625 48.484375 
Q 26.265625 48.484375 22.1875 42.84375 
Q 18.109375 37.203125 18.109375 27.296875 
Q 18.109375 17.390625 22.1875 11.75 
Q 26.265625 6.109375 33.40625 6.109375 
Q 40.53125 6.109375 44.609375 11.75 
Q 48.6875 17.390625 48.6875 27.296875 
z
" id="DejaVuSans-112"/>
       <path d="M 8.015625 75.875 
L 15.828125 75.875 
Q 23.140625 64.359375 26.78125 53.3125 
Q 30.421875 42.28125 30.421875 31.390625 
Q 30.421875 20.453125 26.78125 9.375 
Q 23.140625 -1.703125 15.828125 -13.1875 
L 8.015625 -13.1875 
Q 14.5 -2 17.703125 9.0625 
Q 20.90625 20.125 20.90625 31.390625 
Q 20.90625 42.671875 17.703125 53.65625 
Q 14.5 64.65625 8.015625 75.875 
z
" id="DejaVuSans-41"/>
      </defs>
      <use xlink:href="#DejaVuSans-100"/>
      <use x="63.476562" xlink:href="#DejaVuSans-105"/>
      <use x="91.259766" xlink:href="#DejaVuSans-115"/>
      <use x="143.359375" xlink:href="#DejaVuSans-116"/>
      <use x="182.568359" xlink:href="#DejaVuSans-97"/>
      <use x="243.847656" xlink:href="#DejaVuSans-110"/>
      <use x="307.226562" xlink:href="#DejaVuSans-99"/>
      <use x="362.207031" xlink:href="#DejaVuSans-101"/>
      <use x="423.730469" xlink:href="#DejaVuSans-32"/>
      <use x="455.517578" xlink:href="#DejaVuSans-40"/>
      <use x="494.53125" xlink:href="#DejaVuSans-98"/>
      <use x="558.007812" xlink:href="#DejaVuSans-112"/>
      <use x="621.484375" xlink:href="#DejaVuSans-41"/>
     </g>
    </g>
    <g id="text_10">
     <!-- 1e6 -->
     <g transform="translate(395.841875 334.860562)scale(0.1 -0.1)">
      <use xlink:href="#DejaVuSans-49"/>
      <use x="63.623047" xlink:href="#DejaVuSans-101"/>
      <use x="125.146484" xlink:href="#DejaVuSans-54"/>
     </g>
    </g>
   </g>
   <g id="matplotlib.axis_2">
    <g id="ytick_1">
     <g id="line2d_9">
      <defs>
       <path d="M 0 0 
L -3.5 0 
" id="mf353f127e5" style="stroke:#000000;stroke-width:0.8;"/>
      </defs>
      <g>
       <use style="stroke:#000000;stroke-width:0.8;" x="57.6" xlink:href="#mf353f127e5" y="295.488"/>
      </g>
     </g>
     <g id="text_11">
      <!-- 0.0 -->
      <g transform="translate(34.696875 299.287219)scale(0.1 -0.1)">
       <defs>
        <path d="M 10.6875 12.40625 
L 21 12.40625 
L 21 0 
L 10.6875 0 
z
" id="DejaVuSans-46"/>
       </defs>
       <use xlink:href="#DejaVuSans-48"/>
       <use x="63.623047" xlink:href="#DejaVuSans-46"/>
       <use x="95.410156" xlink:href="#DejaVuSans-48"/>
      </g>
     </g>
    </g>
    <g id="ytick_2">
     <g id="line2d_10">
      <g>
       <use style="stroke:#000000;stroke-width:0.8;" x="57.6" xlink:href="#mf353f127e5" y="247.104"/>
      </g>
     </g>
     <g id="text_12">
      <!-- 0.2 -->
      <g transform="translate(34.696875 250.903219)scale(0.1 -0.1)">
       <use xlink:href="#DejaVuSans-48"/>
       <use x="63.623047" xlink:href="#DejaVuSans-46"/>
       <use x="95.410156" xlink:href="#DejaVuSans-50"/>
      </g>
     </g>
    </g>
    <g id="ytick_3">
     <g id="line2d_11">
      <g>
       <use style="stroke:#000000;stroke-width:0.8;" x="57.6" xlink:href="#mf353f127e5" y="198.72"/>
      </g>
     </g>
     <g id="text_13">
      <!-- 0.4 -->
      <g transform="translate(34.696875 202.519219)scale(0.1 -0.1)">
       <use xlink:href="#DejaVuSans-48"/>
       <use x="63.623047" xlink:href="#DejaVuSans-46"/>
       <use x="95.410156" xlink:href="#DejaVuSans-52"/>
      </g>
     </g>
    </g>
    <g id="ytick_4">
     <g id="line2d_12">
      <g>
       <use style="stroke:#000000;stroke-width:0.8;" x="57.6" xlink:href="#mf353f127e5" y="150.336"/>
      </g>
     </g>
     <g id="text_14">
      <!-- 0.6 -->
      <g transform="translate(34.696875 154.135219)scale(0.1 -0.1)">
       <use xlink:href="#DejaVuSans-48"/>
       <use x="63.623047" xlink:href="#DejaVuSans-46"/>
       <use x="95.410156" xlink:href="#DejaVuSans-54"/>
      </g>
     </g>
    </g>
    <g id="ytick_5">
     <g id="line2d_13">
      <g>
       <use style="stroke:#000000;stroke-width:0.8;" x="57.6" xlink:href="#mf353f127e5" y="101.952"/>
      </g>
     </g>
     <g id="text_15">
      <!-- 0.8 -->
      <g transform="translate(34.696875 105.751219)scale(0.1 -0.1)">
       <defs>
        <path d="M 31.78125 34.625 
Q 24.75 34.625 20.71875 30.859375 
Q 16.703125 27.09375 16.703125 20.515625 
Q 16.703125 13.921875 20.71875 10.15625 
Q 24.75 6.390625 31.78125 6.390625 
Q 38.8125 6.390625 42.859375 10.171875 
Q 46.921875 13.96875 46.921875 20.515625 
Q 46.921875 27.09375 42.890625 30.859375 
Q 38.875 34.625 31.78125 34.625 
z
M 21.921875 38.8125 
Q 15.578125 40.375 12.03125 44.71875 
Q 8.5 49.078125 8.5 55.328125 
Q 8.5 64.0625 14.71875 69.140625 
Q 20.953125 74.21875 31.78125 74.21875 
Q 42.671875 74.21875 48.875 69.140625 
Q 55.078125 64.0625 55.078125 55.328125 
Q 55.078125 49.078125 51.53125 44.71875 
Q 48 40.375 41.703125 38.8125 
Q 48.828125 37.15625 52.796875 32.3125 
Q 56.78125 27.484375 56.78125 20.515625 
Q 56.78125 9.90625 50.3125 4.234375 
Q 43.84375 -1.421875 31.78125 -1.421875 
Q 19.734375 -1.421875 13.25 4.234375 
Q 6.78125 9.90625 6.78125 20.515625 
Q 6.78125 27.484375 10.78125 32.3125 
Q 14.796875 37.15625 21.921875 38.8125 
z
M 18.3125 54.390625 
Q 18.3125 48.734375 21.84375 45.5625 
Q 25.390625 42.390625 31.78125 42.390625 
Q 38.140625 42.390625 41.71875 45.5625 
Q 45.3125 48.734375 45.3125 54.390625 
Q 45.3125 60.0625 41.71875 63.234375 
Q 38.140625 66.40625 31.78125 66.40625 
Q 25.390625 66.40625 21.84375 63.234375 
Q 18.3125 60.0625 18.3125 54.390625 
z
" id="DejaVuSans-56"/>
       </defs>
       <use xlink:href="#DejaVuSans-48"/>
       <use x="63.623047" xlink:href="#DejaVuSans-46"/>
       <use x="95.410156" xlink:href="#DejaVuSans-56"/>
      </g>
     </g>
    </g>
    <g id="ytick_6">
     <g id="line2d_14">
      <g>
       <use style="stroke:#000000;stroke-width:0.8;" x="57.6" xlink:href="#mf353f127e5" y="53.568"/>
      </g>
     </g>
     <g id="text_16">
      <!-- 1.0 -->
      <g transform="translate(34.696875 57.367219)scale(0.1 -0.1)">
       <use xlink:href="#DejaVuSans-49"/>
       <use x="63.623047" xlink:href="#DejaVuSans-46"/>
       <use x="95.410156" xlink:href="#DejaVuSans-48"/>
      </g>
     </g>
    </g>
    <g id="text_17">
     <!-- density -->
     <g transform="translate(28.617187 192.860812)rotate(-90)scale(0.1 -0.1)">
      <defs>
       <path d="M 32.171875 -5.078125 
Q 28.375 -14.84375 24.75 -17.8125 
Q 21.140625 -20.796875 15.09375 -20.796875 
L 7.90625 -20.796875 
L 7.90625 -13.28125 
L 13.1875 -13.28125 
Q 16.890625 -13.28125 18.9375 -11.515625 
Q 21 -9.765625 23.484375 -3.21875 
L 25.09375 0.875 
L 2.984375 54.6875 
L 12.5 54.6875 
L 29.59375 11.921875 
L 46.6875 54.6875 
L 56.203125 54.6875 
z
" id="DejaVuSans-121"/>
      </defs>
      <use xlink:href="#DejaVuSans-100"/>
      <use x="63.476562" xlink:href="#DejaVuSans-101"/>
      <use x="125" xlink:href="#DejaVuSans-110"/>
      <use x="188.378906" xlink:href="#DejaVuSans-115"/>
      <use x="240.478516" xlink:href="#DejaVuSans-105"/>
      <use x="268.261719" xlink:href="#DejaVuSans-116"/>
      <use x="307.470703" xlink:href="#DejaVuSans-121"/>
     </g>
    </g>
   </g>
   <g id="line2d_15">
    <path clip-path="url(#pfc5ff7d222)" d="M 57.6 295.488 
L 57.601242 295.377398 
L 57.712338 289.462277 
L 57.714344 289.352718 
L 57.714344 289.351675 
L 57.82544 284.179465 
L 57.827829 284.071994 
L 57.827829 284.068863 
L 57.938925 279.424622 
L 57.942173 279.31402 
L 58.053269 275.074624 
L 58.055848 274.964022 
L 58.166944 271.029303 
L 58.170431 270.920788 
L 58.170431 270.918701 
L 58.281527 267.363785 
L 58.285157 267.253183 
L 58.396206 263.98938 
L 58.400075 263.878778 
L 58.511171 260.757923 
L 58.515613 260.647321 
L 58.626709 257.79045 
L 58.631342 257.679848 
L 58.742439 254.932536 
L 58.747454 254.821934 
L 58.858502 252.175833 
L 58.862753 252.066274 
L 58.862753 252.065231 
L 58.973802 249.549557 
L 58.979533 249.438955 
L 59.090534 247.032839 
L 59.096552 246.922237 
L 59.207553 244.664286 
L 59.212377 244.554728 
L 59.212377 244.553684 
L 59.323425 242.319732 
L 59.328106 242.20913 
L 59.439202 240.159863 
L 59.44565 240.049261 
L 59.556603 238.053207 
L 59.562669 237.943649 
L 59.562669 237.942605 
L 59.673765 235.994549 
L 59.679927 235.883947 
L 59.791023 234.09136 
L 59.797471 233.981801 
L 59.797471 233.980758 
L 59.90852 232.162085 
L 59.916783 232.051483 
L 60.027831 230.255765 
L 60.034613 230.14725 
L 60.034613 230.145163 
L 60.145614 228.552912 
L 60.153161 228.444396 
L 60.153161 228.44231 
L 60.264161 226.845884 
L 60.271183 226.735282 
L 60.382279 225.170159 
L 60.389921 225.059557 
L 60.501017 223.465219 
L 60.509423 223.354617 
L 60.620424 221.780103 
L 60.628353 221.669501 
L 60.739449 220.146115 
L 60.748094 220.0376 
L 60.748094 220.035513 
L 60.85919 218.568471 
L 60.867119 218.458912 
L 60.867119 218.457869 
L 60.97812 217.027347 
L 60.986526 216.917788 
L 60.986526 216.916745 
L 61.097479 215.585347 
L 61.107796 215.474745 
L 61.218892 214.195518 
L 61.227394 214.084916 
L 61.33849 212.788994 
L 61.349523 212.678392 
L 61.460572 211.449249 
L 61.470936 211.338647 
L 61.581937 210.135589 
L 61.595454 210.024987 
L 61.70655 208.836537 
L 61.719016 208.725935 
L 61.829922 207.532268 
L 61.840095 207.421666 
L 61.951144 206.299994 
L 61.962368 206.189392 
L 62.073464 205.080242 
L 62.086408 204.96964 
L 62.197456 203.837534 
L 62.207869 203.729019 
L 62.207869 203.726932 
L 62.318965 202.559351 
L 62.329186 202.449792 
L 62.329186 202.448749 
L 62.440283 201.35838 
L 62.451268 201.247778 
L 62.562316 200.247143 
L 62.574353 200.136541 
L 62.685401 199.054519 
L 62.697055 198.943917 
L 62.808008 197.915109 
L 62.818707 197.804507 
L 62.929708 196.826827 
L 62.943655 196.716225 
L 63.054703 195.687418 
L 63.064924 195.577859 
L 63.064924 195.576816 
L 63.176021 194.56992 
L 63.187436 194.459318 
L 63.298437 193.502506 
L 63.313387 193.391904 
L 63.424483 192.459091 
L 63.435946 192.348489 
L 63.547042 191.453239 
L 63.56118 191.342637 
L 63.672276 190.45156 
L 63.685745 190.340958 
L 63.796603 189.405015 
L 63.811791 189.294413 
L 63.922792 188.408553 
L 63.938793 188.297951 
L 64.049841 187.423569 
L 64.064457 187.312967 
L 64.175075 186.462584 
L 64.189739 186.353025 
L 64.189739 186.351982 
L 64.300692 185.534988 
L 64.316071 185.424385 
L 64.426929 184.599044 
L 64.441496 184.488442 
L 64.552401 183.657883 
L 64.567112 183.547281 
L 64.678209 182.740721 
L 64.691296 182.630119 
L 64.802296 181.819386 
L 64.818297 181.708784 
L 64.929393 180.921005 
L 64.945728 180.810403 
L 65.056824 180.040363 
L 65.072634 179.929761 
L 65.18373 179.101289 
L 65.201068 178.990687 
L 65.312164 178.222733 
L 65.326445 178.112131 
L 65.437542 177.32644 
L 65.455405 177.215838 
L 65.566406 176.452058 
L 65.582884 176.341456 
L 65.693932 175.612108 
L 65.712608 175.501506 
L 65.823417 174.751291 
L 65.839227 174.640689 
L 65.950323 173.917602 
L 65.967279 173.807 
L 66.078041 173.130867 
L 66.096859 173.020265 
L 66.207621 172.342045 
L 66.224721 172.231443 
L 66.33553 171.570961 
L 66.353776 171.460359 
L 66.464633 170.774835 
L 66.481207 170.664233 
L 66.592208 169.996448 
L 66.610596 169.886889 
L 66.610596 169.885846 
L 66.721645 169.186757 
L 66.741848 169.076155 
L 66.852897 168.400022 
L 66.871142 168.28942 
L 66.982239 167.626852 
L 67.001009 167.51625 
L 67.11115 166.858898 
L 67.129778 166.748296 
L 67.240444 166.086771 
L 67.259072 165.976169 
L 67.369977 165.360554 
L 67.388366 165.249952 
L 67.499271 164.630163 
L 67.521242 164.520604 
L 67.521242 164.519561 
L 67.63229 163.922727 
L 67.653067 163.812125 
L 67.76402 163.135992 
L 67.787519 163.02539 
L 67.89852 162.418123 
L 67.918342 162.307521 
L 68.02939 161.686688 
L 68.048878 161.576086 
L 68.159735 160.964645 
L 68.180846 160.854043 
L 68.291847 160.234254 
L 68.310618 160.123652 
L 68.420806 159.537253 
L 68.446312 159.426651 
L 68.55736 158.866337 
L 68.579188 158.755735 
L 68.689998 158.154728 
L 68.711873 158.044126 
L 68.822874 157.432684 
L 68.842648 157.322082 
L 68.953696 156.746117 
L 68.975571 156.635515 
L 69.086668 156.065811 
L 69.108734 155.955209 
L 69.219401 155.435588 
L 69.23841 155.327073 
L 69.23841 155.324986 
L 69.349506 154.771976 
L 69.373722 154.662417 
L 69.373722 154.661374 
L 69.484341 154.087495 
L 69.507267 153.976893 
L 69.618077 153.459359 
L 69.641767 153.348757 
L 69.752768 152.805138 
L 69.780279 152.694536 
L 69.891041 152.15822 
L 69.914445 152.047618 
L 70.025016 151.591646 
L 70.053435 151.481044 
L 70.164388 150.991682 
L 70.184878 150.88108 
L 70.295783 150.36772 
L 70.31785 150.257118 
L 70.428946 149.765669 
L 70.457317 149.655067 
L 70.568365 149.163619 
L 70.596545 149.053017 
L 70.707212 148.559481 
L 70.731858 148.448879 
L 70.842858 147.95117 
L 70.871038 147.840568 
L 70.981848 147.425289 
L 71.008022 147.314687 
L 71.119071 146.862888 
L 71.146486 146.752286 
L 71.257057 146.276489 
L 71.284282 146.165887 
L 71.394949 145.715131 
L 71.422651 145.604529 
L 71.533699 145.136036 
L 71.563694 145.026477 
L 71.563694 145.025434 
L 71.6746 144.567374 
L 71.696857 144.456772 
L 71.807428 144.04045 
L 71.83919 143.929848 
L 71.950096 143.497874 
L 71.978467 143.387272 
L 72.08942 142.958428 
L 72.121898 142.847826 
L 72.232756 142.400201 
L 72.263754 142.289599 
L 72.374564 141.865972 
L 72.404415 141.75537 
L 72.515416 141.344265 
L 72.541877 141.233663 
L 72.65283 140.821514 
L 72.680866 140.710912 
L 72.791963 140.294589 
L 72.821337 140.183987 
L 72.932147 139.737405 
L 72.966058 139.626803 
L 73.076963 139.231349 
L 73.10906 139.120747 
L 73.220156 138.729466 
L 73.251823 138.618864 
L 73.36268 138.214019 
L 73.391864 138.103417 
L 73.502769 137.705876 
L 73.539116 137.595274 
L 73.650117 137.20921 
L 73.68379 137.099651 
L 73.68379 137.098608 
L 73.7946 136.728196 
L 73.83109 136.617594 
L 73.942187 136.26805 
L 73.973519 136.158491 
L 73.973519 136.157447 
L 74.083899 135.772427 
L 74.124306 135.661825 
L 74.235307 135.304977 
L 74.26449 135.194375 
L 74.375443 134.831267 
L 74.415755 134.720665 
L 74.526803 134.375294 
L 74.564106 134.264692 
L 74.675107 133.93706 
L 74.708971 133.826458 
L 74.818682 133.470653 
L 74.850635 133.360051 
L 74.961015 133.00842 
L 74.997028 132.897818 
L 75.108124 132.532623 
L 75.145045 132.422021 
L 75.256046 132.057869 
L 75.28991 131.947267 
L 75.400958 131.559116 
L 75.436494 131.448514 
L 75.547351 131.118795 
L 75.585752 131.008193 
L 75.696371 130.66491 
L 75.730951 130.554308 
L 75.841809 130.19746 
L 75.872807 130.086858 
L 75.983617 129.759225 
L 76.017863 129.648623 
L 76.128911 129.296992 
L 76.170465 129.18639 
L 76.28094 128.854584 
L 76.32235 128.743982 
L 76.432969 128.42261 
L 76.47309 128.312008 
L 76.584186 127.996897 
L 76.625501 127.886295 
L 76.736215 127.597269 
L 76.771846 127.486667 
L 76.882942 127.162165 
L 76.922251 127.051563 
L 77.033347 126.735408 
L 77.069074 126.624806 
L 77.179979 126.293 
L 77.21241 126.182398 
L 77.322981 125.863113 
L 77.368117 125.752511 
L 77.479118 125.488527 
L 77.525113 125.377925 
L 77.634395 125.089942 
L 77.675041 124.97934 
L 77.785755 124.670489 
L 77.830461 124.559887 
L 77.941557 124.256253 
L 77.983732 124.145651 
L 78.094303 123.855582 
L 78.132799 123.74498 
L 78.243561 123.422564 
L 78.282679 123.311962 
L 78.39368 122.992677 
L 78.428547 122.882075 
L 78.539452 122.59931 
L 78.582534 122.488708 
L 78.693105 122.199682 
L 78.732987 122.08908 
L 78.843701 121.780229 
L 78.88855 121.669627 
L 78.998882 121.355559 
L 79.041773 121.244957 
L 79.152726 120.939236 
L 79.193898 120.828634 
L 79.304899 120.550042 
L 79.347742 120.43944 
L 79.458647 120.127459 
L 79.498147 120.016857 
L 79.609004 119.749743 
L 79.648839 119.639141 
L 79.759362 119.390808 
L 79.80273 119.280206 
L 79.913827 119.022482 
L 79.964312 118.91188 
L 80.075074 118.656243 
L 80.120114 118.545641 
L 80.23059 118.257659 
L 80.269755 118.147057 
L 80.380517 117.871595 
L 80.421545 117.760993 
L 80.532498 117.510574 
L 80.577348 117.399971 
L 80.688109 117.149552 
L 80.732481 117.03895 
L 80.842813 116.772879 
L 80.898839 116.662277 
L 81.009505 116.421248 
L 81.056552 116.310646 
L 81.165308 116.075878 
L 81.217799 115.965276 
L 81.3288 115.720073 
L 81.38196 115.609471 
L 81.492817 115.352791 
L 81.547362 115.242189 
L 81.657599 114.987595 
L 81.710854 114.876993 
L 81.821473 114.633878 
L 81.891111 114.523276 
L 82.00216 114.285377 
L 82.048108 114.174775 
L 82.158153 113.951484 
L 82.209164 113.840882 
L 82.319735 113.616548 
L 82.375665 113.505946 
L 82.486666 113.273264 
L 82.535766 113.162662 
L 82.644474 112.92059 
L 82.698828 112.811031 
L 82.698828 112.809988 
L 82.808682 112.574176 
L 82.869676 112.463574 
L 82.980724 112.222545 
L 83.021466 112.111943 
L 83.132419 111.861523 
L 83.179178 111.751965 
L 83.179178 111.750921 
L 83.290036 111.51824 
L 83.344677 111.407638 
L 83.455343 111.143654 
L 83.519536 111.033052 
L 83.629677 110.837933 
L 83.680545 110.727331 
L 83.791068 110.514474 
L 83.845899 110.403872 
L 83.9569 110.177451 
L 84.009917 110.066849 
L 84.120249 109.832081 
L 84.176991 109.721479 
L 84.28761 109.530534 
L 84.345833 109.419932 
L 84.456881 109.206032 
L 84.521122 109.096473 
L 84.521122 109.09543 
L 84.631789 108.908658 
L 84.689486 108.798056 
L 84.800391 108.576852 
L 84.872513 108.46625 
L 84.983132 108.241916 
L 85.051003 108.131314 
L 85.161526 107.895502 
L 85.21717 107.7849 
L 85.327979 107.605433 
L 85.391217 107.494831 
L 85.501454 107.312233 
L 85.56345 107.201631 
L 85.674307 106.996078 
L 85.73468 106.885476 
L 85.844534 106.720616 
L 85.905049 106.610014 
L 86.01457 106.396114 
L 86.072888 106.285512 
L 86.183411 106.081003 
L 86.240583 105.970401 
L 86.351154 105.800324 
L 86.41401 105.689722 
L 86.525058 105.49669 
L 86.599664 105.386088 
L 86.710521 105.198274 
L 86.768076 105.087672 
L 86.878694 104.875858 
L 86.945371 104.765256 
L 87.056133 104.582659 
L 87.105663 104.472057 
L 87.216664 104.277981 
L 87.280523 104.167379 
L 87.391619 103.991042 
L 87.465986 103.88044 
L 87.576604 103.665497 
L 87.635782 103.554895 
L 87.746497 103.37334 
L 87.804576 103.262738 
L 87.915052 103.118747 
L 87.986887 103.008145 
L 88.095977 102.813026 
L 88.177126 102.702424 
L 88.288127 102.492698 
L 88.357526 102.382096 
L 88.468575 102.228714 
L 88.536637 102.118112 
L 88.647637 101.933427 
L 88.714314 101.822825 
L 88.823834 101.648575 
L 88.899586 101.537973 
L 89.00882 101.36894 
L 89.0829 101.258338 
L 89.193471 101.07261 
L 89.255562 100.962008 
L 89.366563 100.791931 
L 89.437586 100.681329 
L 89.548157 100.503948 
L 89.63179 100.393346 
L 89.742456 100.214922 
L 89.813671 100.10432 
L 89.924146 99.963459 
L 89.993163 99.852857 
L 90.104212 99.684867 
L 90.184215 99.574265 
L 90.2934 99.396885 
L 90.376078 99.286283 
L 90.486028 99.136031 
L 90.565218 99.025429 
L 90.676076 98.877264 
L 90.747816 98.766662 
L 90.858816 98.596585 
L 90.945745 98.485983 
L 91.056841 98.317993 
L 91.131017 98.207391 
L 91.241635 98.048792 
L 91.312468 97.93819 
L 91.423421 97.782721 
L 91.514695 97.672119 
L 91.625027 97.509347 
L 91.710188 97.398745 
L 91.818944 97.245362 
L 91.91681 97.13476 
L 92.027716 96.958423 
L 92.095395 96.847821 
L 92.205871 96.66731 
L 92.277897 96.556708 
L 92.38842 96.40124 
L 92.468089 96.290638 
L 92.577895 96.11117 
L 92.66468 96.000568 
L 92.775394 95.835708 
L 92.850334 95.725106 
L 92.960141 95.55503 
L 93.039571 95.444428 
L 93.150667 95.296263 
L 93.233965 95.185661 
L 93.344536 95.015584 
L 93.413792 94.904982 
L 93.524841 94.760991 
L 93.613823 94.650389 
L 93.724919 94.504311 
L 93.808886 94.393709 
L 93.919409 94.282063 
L 94.013406 94.171461 
L 94.124455 94.022253 
L 94.198439 93.911651 
L 94.309201 93.772877 
L 94.402004 93.662275 
L 94.511859 93.498458 
L 94.592005 93.387856 
L 94.70291 93.259516 
L 94.800299 93.148914 
L 94.911347 93.005966 
L 94.986478 92.895364 
L 95.097574 92.75972 
L 95.189995 92.649118 
L 95.300805 92.49678 
L 95.400725 92.386178 
L 95.509672 92.25262 
L 95.600469 92.142018 
L 95.708699 92.015765 
L 95.796678 91.905163 
L 95.90639 91.770563 
L 95.996709 91.659961 
L 96.107566 91.526403 
L 96.190817 91.416845 
L 96.190817 91.415801 
L 96.300576 91.297896 
L 96.387552 91.187294 
L 96.49712 91.032868 
L 96.59747 90.922266 
L 96.70804 90.786622 
L 96.789476 90.67602 
L 96.90019 90.538289 
L 96.9843 90.427687 
L 97.094967 90.293087 
L 97.184522 90.182485 
L 97.294424 90.038493 
L 97.396493 89.927891 
L 97.506921 89.808942 
L 97.601205 89.69834 
L 97.711919 89.583564 
L 97.811504 89.472962 
L 97.92026 89.368621 
L 98.033076 89.258019 
L 98.142835 89.114027 
L 98.226468 89.003425 
L 98.336752 88.887606 
L 98.462464 88.777004 
L 98.573321 88.658055 
L 98.681074 88.547453 
L 98.792123 88.410766 
L 98.896914 88.300164 
L 99.006291 88.195822 
L 99.117722 88.08522 
L 99.227958 87.958967 
L 99.33361 87.848365 
L 99.443846 87.726285 
L 99.564113 87.615683 
L 99.673872 87.482126 
L 99.769015 87.371524 
L 99.879634 87.268226 
L 99.971721 87.157624 
L 100.080906 87.037631 
L 100.189806 86.927029 
L 100.300185 86.812253 
L 100.397908 86.701651 
L 100.508383 86.59418 
L 100.62053 86.483578 
L 100.731149 86.366715 
L 100.841577 86.256113 
L 100.950189 86.150728 
L 101.060187 86.040126 
L 101.170854 85.926394 
L 101.281329 85.815792 
L 101.392282 85.714581 
L 101.507008 85.603979 
L 101.61777 85.499637 
L 101.732019 85.389035 
L 101.840536 85.281563 
L 101.965579 85.170961 
L 102.076293 85.061403 
L 102.193121 84.950801 
L 102.301638 84.869414 
L 102.397784 84.758812 
L 102.508881 84.653427 
L 102.618592 84.542825 
L 102.729545 84.429093 
L 102.827411 84.318491 
L 102.937361 84.207889 
L 103.053711 84.097287 
L 103.164234 83.992945 
L 103.271557 83.882343 
L 103.378307 83.779045 
L 103.523315 83.668443 
L 103.633599 83.567232 
L 103.745173 83.45663 
L 103.855696 83.350202 
L 103.971187 83.2396 
L 104.082283 83.131084 
L 104.221034 83.020482 
L 104.331175 82.913011 
L 104.460087 82.802409 
L 104.57061 82.731456 
L 104.677312 82.620854 
L 104.787501 82.52799 
L 104.906239 82.417388 
L 105.016667 82.322438 
L 105.14362 82.211836 
L 105.254 82.108537 
L 105.397002 81.997935 
L 105.507573 81.905071 
L 105.655542 81.794469 
L 105.76597 81.71517 
L 105.891347 81.604568 
L 106.001966 81.51066 
L 106.157672 81.400058 
L 106.26853 81.297804 
L 106.391376 81.187202 
L 106.499702 81.097468 
L 106.623455 80.986866 
L 106.732736 80.86896 
L 106.880897 80.758358 
L 106.990894 80.66132 
L 107.144261 80.550718 
L 107.253876 80.452637 
L 107.381499 80.342035 
L 107.491305 80.258562 
L 107.629053 80.14796 
L 107.739624 80.044662 
L 107.864428 79.93406 
L 107.97476 79.8485 
L 108.139685 79.737898 
L 108.249492 79.661729 
L 108.377019 79.551127 
L 108.487446 79.446785 
L 108.61354 79.336183 
L 108.722296 79.240189 
L 108.849823 79.129587 
L 108.960441 79.037766 
L 109.09967 78.927164 
L 109.209954 78.825953 
L 109.337481 78.715351 
L 109.447718 78.6204 
L 109.575053 78.509798 
L 109.685624 78.420064 
L 109.807467 78.309462 
L 109.917512 78.227033 
L 110.077422 78.116431 
L 110.187563 78.023567 
L 110.351867 77.912965 
L 110.462629 77.825318 
L 110.615948 77.714716 
L 110.723032 77.641677 
L 110.881509 77.531075 
L 110.992319 77.463253 
L 111.155381 77.352651 
L 111.265952 77.265004 
L 111.408572 77.154402 
L 111.519095 77.074059 
L 111.673607 76.963457 
L 111.782507 76.88207 
L 111.962095 76.771468 
L 112.073096 76.697386 
L 112.201052 76.586784 
L 112.307468 76.506441 
L 112.460738 76.395839 
L 112.571166 76.326973 
L 112.719422 76.216371 
L 112.829897 76.138115 
L 112.965735 76.027513 
L 113.075589 75.948214 
L 113.222412 75.837612 
L 113.328063 75.752052 
L 113.470922 75.64145 
L 113.579869 75.551716 
L 113.721247 75.441114 
L 113.829907 75.376422 
L 113.967942 75.26582 
L 114.076936 75.189651 
L 114.210863 75.079049 
L 114.319094 74.989315 
L 114.48741 74.878713 
L 114.597503 74.8015 
L 114.752207 74.690898 
L 114.862921 74.608469 
L 115.030664 74.497867 
L 115.141617 74.406046 
L 115.295795 74.295444 
L 115.401447 74.214058 
L 115.560927 74.103456 
L 115.67145 74.027286 
L 115.826727 73.916684 
L 115.937059 73.832168 
L 116.121519 73.721566 
L 116.232185 73.640179 
L 116.393528 73.529577 
L 116.504624 73.466972 
L 116.675519 73.35637 
L 116.78652 73.284375 
L 116.968401 73.173773 
L 117.079067 73.09969 
L 117.248912 72.989088 
L 117.358766 72.916049 
L 117.53716 72.805447 
L 117.647731 72.738668 
L 117.850007 72.628066 
L 117.961007 72.562331 
L 118.130518 72.451729 
L 118.240659 72.392255 
L 118.426026 72.281653 
L 118.536119 72.2107 
L 118.730801 72.100098 
L 118.841849 72.020799 
L 119.008541 71.910197 
L 119.118826 71.851765 
L 119.293637 71.741163 
L 119.399814 71.676472 
L 119.573862 71.56587 
L 119.68343 71.503265 
L 119.914458 71.392663 
L 120.025555 71.332145 
L 120.240439 71.221543 
L 120.351297 71.157894 
L 120.542539 71.047292 
L 120.648907 70.969036 
L 120.86021 70.858434 
L 120.96696 70.794786 
L 121.17597 70.684184 
L 121.285012 70.626796 
L 121.514799 70.516194 
L 121.620402 70.464023 
L 121.848231 70.353421 
L 121.958038 70.300207 
L 122.191598 70.189605 
L 122.301118 70.141608 
L 122.545425 70.031006 
L 122.645106 69.972575 
L 122.839166 69.861973 
L 122.949211 69.816062 
L 123.182342 69.70546 
L 123.292578 69.657463 
L 123.504932 69.546861 
L 123.615741 69.495734 
L 123.873326 69.385132 
L 123.984375 69.336091 
L 124.212633 69.225489 
L 124.32201 69.169145 
L 124.514924 69.058543 
L 124.622151 69.015763 
L 124.839424 68.905161 
L 124.945314 68.845686 
L 125.177967 68.735084 
L 125.288586 68.68187 
L 125.511447 68.571268 
L 125.616 68.521184 
L 125.813117 68.410582 
L 125.924213 68.34902 
L 126.153952 68.238418 
L 126.265001 68.179987 
L 126.532425 68.069385 
L 126.642327 68.013041 
L 126.88907 67.902439 
L 126.999736 67.844007 
L 127.25904 67.733405 
L 127.369563 67.687495 
L 127.618885 67.576893 
L 127.728596 67.534113 
L 127.976151 67.423511 
L 128.085098 67.376557 
L 128.286418 67.265955 
L 128.395222 67.212741 
L 128.63757 67.102139 
L 128.745896 67.051012 
L 128.999326 66.94041 
L 129.107556 66.90076 
L 129.382145 66.790158 
L 129.492954 66.725466 
L 129.720066 66.614864 
L 129.831115 66.56165 
L 130.122802 66.451048 
L 130.229791 66.407225 
L 130.469799 66.296623 
L 130.579415 66.250712 
L 130.84254 66.14011 
L 130.952777 66.09107 
L 131.211126 65.980468 
L 131.321792 65.935601 
L 131.610041 65.824999 
L 131.720898 65.778045 
L 132.00074 65.667443 
L 132.108971 65.630924 
L 132.456493 65.520322 
L 132.565153 65.469194 
L 132.884352 65.358592 
L 132.985753 65.32416 
L 133.319997 65.213558 
L 133.430806 65.171821 
L 133.753683 65.061219 
L 133.860337 65.025743 
L 134.200791 64.915141 
L 134.303194 64.883838 
L 134.649236 64.773236 
L 134.757179 64.738804 
L 135.04218 64.628202 
L 135.151318 64.598986 
L 135.509157 64.488384 
L 135.618104 64.448734 
L 135.886388 64.338132 
L 135.994188 64.301613 
L 136.372279 64.191011 
L 136.482229 64.157621 
L 136.811649 64.047019 
L 136.920643 64.0105 
L 137.200104 63.899898 
L 137.310006 63.857118 
L 137.737913 63.746516 
L 137.846669 63.715213 
L 138.199922 63.604611 
L 138.308965 63.575396 
L 138.701766 63.464794 
L 138.808038 63.430361 
L 139.168457 63.319759 
L 139.278884 63.276979 
L 139.688832 63.166377 
L 139.798448 63.125684 
L 140.197793 63.015082 
L 140.308316 62.979606 
L 140.693714 62.869004 
L 140.800034 62.837701 
L 141.170434 62.727099 
L 141.276945 62.69684 
L 141.768998 62.586238 
L 141.876894 62.542415 
L 142.270077 62.431813 
L 142.379645 62.398423 
L 142.781187 62.287821 
L 142.878289 62.27217 
L 143.233979 62.161568 
L 143.344311 62.127135 
L 143.796624 62.016533 
L 143.905667 61.984187 
L 144.324738 61.873585 
L 144.430962 61.831849 
L 144.922871 61.721247 
L 145.033012 61.699335 
L 145.476586 61.588733 
L 145.586822 61.564734 
L 145.961474 61.454132 
L 146.056235 61.424917 
L 146.51791 61.314315 
L 146.623896 61.29449 
L 147.167771 61.183888 
L 147.27753 61.149455 
L 147.84242 61.038853 
L 147.950412 61.020072 
L 148.4417 60.90947 
L 148.547495 60.881298 
L 149.154178 60.770695 
L 149.263221 60.749827 
L 149.861259 60.639225 
L 149.969776 60.608966 
L 150.520099 60.498364 
L 150.630526 60.475409 
L 151.163273 60.364807 
L 151.254547 60.342895 
L 151.904408 60.232293 
L 152.013689 60.211425 
L 152.67678 60.101866 
L 152.67678 60.100823 
L 152.785584 60.070564 
L 153.314987 59.959962 
L 153.422358 59.939094 
L 154.074559 59.828492 
L 154.183315 59.799276 
L 154.725852 59.688674 
L 154.835659 59.658415 
L 155.352978 59.547813 
L 155.463788 59.526945 
L 156.086424 59.416342 
L 156.191072 59.394431 
L 156.817863 59.283829 
L 156.927049 59.264004 
L 157.530675 59.153402 
L 157.640052 59.133577 
L 158.272097 59.022975 
L 158.374214 59.004193 
L 159.051109 58.893591 
L 159.160533 58.872723 
L 159.79277 58.762121 
L 159.90186 58.741253 
L 160.481223 58.630651 
L 160.590074 58.607696 
L 161.183766 58.497094 
L 161.271124 58.483529 
L 162.040774 58.372927 
L 162.15058 58.357276 
L 162.786064 58.246674 
L 162.873375 58.23311 
L 163.444188 58.122508 
L 163.551989 58.10477 
L 164.330236 57.994168 
L 164.436508 57.975386 
L 165.190348 57.864784 
L 165.297671 57.838699 
L 165.902635 57.728097 
L 166.009242 57.704098 
L 166.838929 57.593496 
L 166.943769 57.577845 
L 167.90232 57.467243 
L 168.010121 57.457852 
L 168.770362 57.34725 
L 168.874341 57.329512 
L 169.681055 57.21891 
L 169.791769 57.207432 
L 170.801236 57.09683 
L 170.909276 57.082223 
L 171.846573 56.971621 
L 171.954947 56.9591 
L 172.900841 56.848498 
L 173.00869 56.835977 
L 174.157672 56.725375 
L 174.264517 56.712854 
L 175.348685 56.602252 
L 175.457297 56.587644 
L 176.562815 56.477042 
L 176.663786 56.468694 
L 178.041743 56.358092 
L 178.147919 56.350788 
L 179.39663 56.240186 
L 179.492108 56.224535 
L 180.984934 56.113933 
L 181.095601 56.106629 
L 182.140556 55.996027 
L 182.246684 55.982463 
L 183.875826 55.871861 
L 183.98057 55.860383 
L 185.485958 55.749781 
L 185.594666 55.744564 
L 187.174516 55.633962 
L 187.279021 55.624571 
L 188.812112 55.513969 
L 188.896126 55.505622 
L 191.117049 55.39502 
L 191.190365 55.389803 
L 193.984967 55.279201 
L 194.061196 55.275027 
L 196.852168 55.164425 
L 196.859475 55.162339 
L 199.814512 55.051736 
L 199.90722 55.046519 
L 203.781165 54.935917 
L 203.885336 54.931744 
L 206.821507 54.821142 
L 206.90385 54.813838 
L 209.875078 54.703236 
L 209.969123 54.694888 
L 213.376761 54.584286 
L 213.428201 54.580113 
L 216.725029 54.469511 
L 216.826381 54.465337 
L 224.11489 54.354735 
L 224.210081 54.350561 
L 230.853218 54.239959 
L 230.962929 54.237873 
L 240.273189 54.127271 
L 240.351138 54.12101 
L 258.727543 54.010408 
L 258.727543 54.009365 
L 277.39893 53.898763 
L 277.435087 53.896676 
L 385.006999 53.786074 
L 385.006999 53.78503 
L 400.291812 53.674428 
L 400.291812 53.673385 
L 414.72 53.569043 
L 414.72 53.568 
" style="fill:none;stroke:#1f77b4;stroke-linecap:square;stroke-width:1.5;"/>
   </g>
   <g id="line2d_16">
    <path clip-path="url(#pfc5ff7d222)" d="M 57.6 295.488 
L 57.600334 295.377822 
L 57.711431 279.449192 
L 57.712243 279.339014 
L 57.823291 266.778691 
L 57.824246 266.668513 
L 57.935104 255.194233 
L 57.937205 255.084055 
L 58.048302 244.805996 
L 58.050117 244.695818 
L 58.160974 235.440843 
L 58.163076 235.330665 
L 58.274172 227.807063 
L 58.275987 227.696885 
L 58.386606 220.613996 
L 58.389424 220.503818 
L 58.500281 214.506972 
L 58.502669 214.396794 
L 58.613766 208.683264 
L 58.616679 208.573085 
L 58.727011 203.441926 
L 58.730163 203.331748 
L 58.840257 198.153369 
L 58.842836 198.043191 
L 58.95312 193.494402 
L 58.955843 193.384224 
L 59.066891 188.977093 
L 59.069996 188.866915 
L 59.179946 184.821798 
L 59.185677 184.71162 
L 59.296774 180.87112 
L 59.300021 180.776682 
L 59.300021 180.760942 
L 59.41064 177.04636 
L 59.415321 176.936182 
L 59.526035 173.567875 
L 59.532579 173.457697 
L 59.643245 170.577322 
L 59.648212 170.467144 
L 59.759309 167.492331 
L 59.765088 167.382152 
L 59.875898 164.438818 
L 59.881438 164.32864 
L 59.992391 161.81028 
L 59.999078 161.700101 
L 60.110031 159.181741 
L 60.116574 159.071563 
L 60.227336 156.867997 
L 60.232638 156.757819 
L 60.343543 154.318157 
L 60.347125 154.207979 
L 60.457887 151.752578 
L 60.46209 151.658139 
L 60.46209 151.642399 
L 60.569843 149.533273 
L 60.576005 149.423094 
L 60.685716 147.282488 
L 60.691591 147.188049 
L 60.691591 147.17231 
L 60.802162 144.890046 
L 60.807893 144.779867 
L 60.918655 142.954056 
L 60.928638 142.843878 
L 61.036247 140.970847 
L 61.042934 140.860669 
L 61.153935 139.318173 
L 61.166066 139.207995 
L 61.275491 137.948815 
L 61.288148 137.838636 
L 61.39848 136.437798 
L 61.406313 136.32762 
L 61.516836 135.0527 
L 61.529828 134.942522 
L 61.640303 133.573163 
L 61.646799 133.462985 
L 61.75608 131.920489 
L 61.768355 131.810311 
L 61.879213 130.362254 
L 61.890103 130.252075 
L 61.999766 129.024375 
L 62.00951 128.914196 
L 62.120367 127.371701 
L 62.135078 127.261522 
L 62.245888 125.939383 
L 62.257542 125.829205 
L 62.365343 124.396887 
L 62.379194 124.286709 
L 62.488332 122.94883 
L 62.498267 122.838652 
L 62.607405 121.721129 
L 62.617196 121.610951 
L 62.728197 120.446209 
L 62.739803 120.336031 
L 62.850278 119.297208 
L 62.864512 119.187029 
L 62.972456 118.132466 
L 62.990749 118.022288 
L 63.100985 116.951984 
L 63.116795 116.841806 
L 63.22727 115.850202 
L 63.25545 115.740023 
L 63.366356 114.764159 
L 63.377293 114.65398 
L 63.487482 113.630897 
L 63.499184 113.520718 
L 63.607749 112.655032 
L 63.617731 112.544854 
L 63.728589 111.631948 
L 63.744971 111.52177 
L 63.85559 110.766262 
L 63.886206 110.656083 
L 63.997302 109.853356 
L 64.013924 109.743178 
L 64.12096 108.861751 
L 64.148615 108.751573 
L 64.257132 107.917366 
L 64.280201 107.807188 
L 64.39082 106.894282 
L 64.406629 106.784104 
L 64.516818 105.949897 
L 64.538359 105.839719 
L 64.645539 105.16291 
L 64.665169 105.052731 
L 64.775836 104.061127 
L 64.801867 103.950949 
L 64.905703 103.038043 
L 64.932546 102.927865 
L 65.042496 102.188096 
L 65.061028 102.077918 
L 65.170691 101.212232 
L 65.197725 101.102053 
L 65.308678 100.362285 
L 65.32229 100.252107 
L 65.433052 99.449379 
L 65.466295 99.339201 
L 65.57314 98.520734 
L 65.598216 98.410556 
L 65.708357 97.796705 
L 65.73071 97.686527 
L 65.840803 97.056937 
L 65.863299 96.946759 
L 65.974014 96.364388 
L 65.995555 96.254209 
L 66.099534 95.813496 
L 66.126711 95.703318 
L 66.232028 95.026509 
L 66.254286 94.916331 
L 66.360271 94.208042 
L 66.380141 94.097863 
L 66.485219 93.594191 
L 66.517363 93.484013 
L 66.627743 92.822943 
L 66.650669 92.712765 
L 66.754028 92.272052 
L 66.792572 92.161874 
L 66.903048 91.626722 
L 66.928649 91.516544 
L 67.032963 91.075831 
L 67.093287 90.965653 
L 67.202998 90.650858 
L 67.242212 90.540679 
L 67.340125 90.052747 
L 67.399112 89.942569 
L 67.508394 89.486116 
L 67.54732 89.375938 
L 67.656697 88.950964 
L 67.693379 88.840786 
L 67.79946 88.463032 
L 67.850662 88.352854 
L 67.960564 87.990839 
L 68.016781 87.880661 
L 68.124104 87.424208 
L 68.164702 87.31403 
L 68.274175 86.873317 
L 68.301447 86.763139 
L 68.410299 86.275206 
L 68.458682 86.165028 
L 68.563904 85.803014 
L 68.618353 85.692835 
L 68.726393 85.346561 
L 68.759493 85.236383 
L 68.87035 84.858628 
L 68.894327 84.74845 
L 69.003513 84.339217 
L 69.042392 84.229038 
L 69.151243 83.819805 
L 69.182958 83.709627 
L 69.289086 83.347612 
L 69.335464 83.237434 
L 69.445175 82.891159 
L 69.498622 82.780981 
L 69.607664 82.434707 
L 69.653947 82.324528 
L 69.7649 81.946774 
L 69.816579 81.836596 
L 69.923138 81.474582 
L 69.972047 81.364403 
L 70.078844 81.128307 
L 70.135443 81.018129 
L 70.245775 80.656115 
L 70.315414 80.545936 
L 70.423358 80.199662 
L 70.461663 80.089483 
L 70.566455 79.743209 
L 70.621716 79.633031 
L 70.722735 79.286756 
L 70.791895 79.176578 
L 70.900651 78.971961 
L 71.009216 78.861783 
L 71.120074 78.625686 
L 71.16903 78.515508 
L 71.270288 78.232193 
L 71.342648 78.122014 
L 71.434448 77.933137 
L 71.504564 77.822959 
L 71.59326 77.634082 
L 71.671447 77.523904 
L 71.778341 77.224848 
L 71.836468 77.11467 
L 71.938489 76.815615 
L 71.970825 76.705437 
L 72.078004 76.48508 
L 72.105038 76.374902 
L 72.214845 76.075846 
L 72.262846 75.965668 
L 72.371077 75.745312 
L 72.423712 75.635133 
L 72.53156 75.383297 
L 72.585341 75.273119 
L 72.67972 74.926845 
L 72.76149 74.816666 
L 72.865661 74.627789 
L 72.945902 74.517611 
L 73.054801 74.297254 
L 73.09411 74.187076 
L 73.204299 74.061158 
L 73.233434 73.95098 
L 73.338847 73.730623 
L 73.446695 73.620445 
L 73.549003 73.337129 
L 73.653604 73.226951 
L 73.747888 73.022334 
L 73.827986 72.912156 
L 73.929864 72.707539 
L 74.027825 72.597361 
L 74.13768 72.345525 
L 74.198864 72.235347 
L 74.306187 72.03073 
L 74.352947 71.920552 
L 74.445654 71.731675 
L 74.512522 71.621496 
L 74.61206 71.432619 
L 74.688863 71.322441 
L 74.780472 71.180783 
L 74.895007 71.070605 
L 74.983225 70.834509 
L 75.062081 70.724331 
L 75.168879 70.582673 
L 75.224761 70.472494 
L 75.332466 70.315097 
L 75.38171 70.204919 
L 75.49209 70.079001 
L 75.569465 69.968822 
L 75.653623 69.874384 
L 75.744229 69.764206 
L 75.854991 69.46515 
L 75.890575 69.354972 
L 76.000047 69.197574 
L 76.061661 69.087396 
L 76.170178 68.86704 
L 76.263411 68.756861 
L 76.372692 68.599464 
L 76.463681 68.489286 
L 76.556914 68.331888 
L 76.626647 68.22171 
L 76.723367 67.985614 
L 76.810056 67.875435 
L 76.920293 67.749517 
L 77.022171 67.639339 
L 77.108669 67.513421 
L 77.227599 67.403243 
L 77.335734 67.182886 
L 77.427534 67.072708 
L 77.522916 66.93105 
L 77.674372 66.820872 
L 77.775295 66.553296 
L 77.91973 66.443118 
L 78.026814 66.3172 
L 78.131462 66.207021 
L 78.237734 66.081103 
L 78.359577 65.970925 
L 78.461073 65.876487 
L 78.579668 65.766308 
L 78.682358 65.64039 
L 78.77817 65.530212 
L 78.888168 65.372815 
L 79.028782 65.262636 
L 79.095793 65.183938 
L 79.280014 65.073759 
L 79.380364 64.916362 
L 79.536596 64.806183 
L 79.630402 64.601567 
L 79.770013 64.491388 
L 79.869551 64.38121 
L 80.04121 64.271032 
L 80.104209 64.223813 
L 80.318234 64.113634 
L 80.413187 64.019196 
L 80.608155 63.909018 
L 80.716146 63.7831 
L 80.825762 63.672921 
L 80.93681 63.625702 
L 81.1121 63.515524 
L 81.215984 63.421085 
L 81.39562 63.310907 
L 81.496399 63.232208 
L 81.702926 63.12203 
L 81.800887 63.011852 
L 82.208304 62.901673 
L 82.301728 62.807235 
L 82.427105 62.697057 
L 82.522965 62.586878 
L 82.957416 62.4767 
L 83.047544 62.350782 
L 83.418375 62.240604 
L 83.50984 62.146165 
L 83.791689 62.035987 
L 83.871978 61.973028 
L 84.127079 61.86285 
L 84.222318 61.784151 
L 84.825658 61.673973 
L 84.825658 61.658233 
L 85.268467 61.548055 
L 85.361127 61.453616 
L 85.522183 61.343438 
L 85.620479 61.264739 
L 85.916417 61.154561 
L 86.01094 61.060122 
L 86.527351 60.949944 
L 86.568284 60.918465 
L 87.090283 60.808286 
L 87.186143 60.761067 
L 87.488004 60.650889 
L 87.592414 60.57219 
L 87.915052 60.462012 
L 87.954408 60.399053 
L 88.279482 60.288874 
L 88.354326 60.241655 
L 88.955325 60.131477 
L 89.051567 60.099997 
L 89.609437 59.989819 
L 89.650991 59.9426 
L 90.167593 59.832422 
L 90.167593 59.816682 
L 91.044041 59.706504 
L 91.130587 59.675024 
L 91.763301 59.564846 
L 91.767886 59.533366 
L 92.501666 59.423188 
L 92.605789 59.32875 
L 93.070616 59.218571 
L 93.147419 59.124133 
L 93.614539 59.013954 
L 93.679306 58.982475 
L 94.243957 58.872297 
L 94.279254 58.840817 
L 94.818114 58.730639 
L 94.916983 58.68342 
L 95.377894 58.573241 
L 95.377894 58.557502 
L 96.164356 58.447323 
L 96.24006 58.384364 
L 96.63353 58.274186 
L 96.635202 58.242707 
L 97.335023 58.132528 
L 97.419945 58.069569 
L 98.019511 57.959391 
L 98.019511 57.943651 
L 98.791836 57.833473 
L 98.869068 57.801993 
L 99.838988 57.691815 
L 99.838988 57.676075 
L 100.582511 57.565897 
L 100.68353 57.502938 
L 101.569816 57.39276 
L 101.614665 57.36128 
L 102.262425 57.251102 
L 102.372327 57.203883 
L 102.818527 57.093705 
L 102.92948 57.046485 
L 103.331786 56.936307 
L 103.373244 56.904828 
L 104.841234 56.794649 
L 104.931362 56.76317 
L 105.559587 56.652992 
L 105.5753 56.621512 
L 106.033919 56.511334 
L 106.042516 56.479854 
L 106.841874 56.369676 
L 106.841874 56.353936 
L 107.635406 56.243758 
L 107.741248 56.196539 
L 108.961444 56.08636 
L 108.961444 56.070621 
L 109.421448 55.960442 
L 109.519457 55.866004 
L 110.232508 55.755826 
L 110.245547 55.724346 
L 111.0493 55.614168 
L 111.105756 55.551209 
L 112.5064 55.441031 
L 112.608517 55.393811 
L 113.036041 55.283633 
L 113.036041 55.267893 
L 113.890231 55.157715 
L 113.890231 55.141975 
L 115.127575 55.031797 
L 115.214503 54.984578 
L 115.80017 54.874399 
L 115.80017 54.85866 
L 117.384606 54.748481 
L 117.384606 54.732742 
L 118.438397 54.622563 
L 118.438397 54.606824 
L 119.410609 54.496645 
L 119.410609 54.480906 
L 121.129592 54.370727 
L 121.212126 54.339248 
L 122.810078 54.22907 
L 122.810078 54.21333 
L 124.182017 54.103152 
L 124.281459 54.071672 
L 126.583913 53.961494 
L 126.666017 53.930014 
L 131.875267 53.819836 
L 131.875267 53.804096 
L 142.492939 53.693918 
L 142.559616 53.662439 
L 414.72 53.568 
L 414.72 53.568 
" style="fill:none;stroke:#ff7f0e;stroke-linecap:square;stroke-width:1.5;"/>
   </g>
   <g id="line2d_17">
    <path clip-path="url(#pfc5ff7d222)" d="M 57.6 295.488 
L 57.627941 295.488 
L 57.726762 280.155042 
L 57.739658 280.155042 
L 57.829882 263.118423 
L 57.856582 263.118423 
L 57.960275 254.600113 
L 58.011429 254.600113 
L 58.109486 235.859831 
L 58.13394 235.859831 
L 58.225645 227.341521 
L 58.289647 227.341521 
L 58.332968 220.526873 
L 58.402654 220.526873 
L 58.498991 215.415887 
L 58.530515 215.415887 
L 58.641277 208.601239 
L 58.702174 208.601239 
L 58.709434 205.193915 
L 58.855732 205.193915 
L 58.958088 201.786592 
L 59.000788 201.786592 
L 59.09937 198.379268 
L 59.130893 198.379268 
L 59.23836 188.157296 
L 59.355235 188.157296 
L 59.355235 186.453634 
L 59.565344 186.453634 
L 59.590228 183.04631 
L 59.68007 183.04631 
L 59.702996 179.638986 
L 59.992391 179.638986 
L 60.000033 176.231662 
L 60.276341 176.231662 
L 60.321859 172.824338 
L 60.389443 172.824338 
L 60.481673 167.713352 
L 60.568984 167.713352 
L 60.628687 162.602366 
L 60.710266 162.602366 
L 60.747234 155.787718 
L 60.830007 155.787718 
L 60.928542 152.380394 
L 60.958346 152.380394 
L 60.958346 150.676732 
L 61.124752 150.676732 
L 61.224576 147.269408 
L 61.420021 147.269408 
L 61.512729 143.862085 
L 61.566892 143.862085 
L 61.630273 140.454761 
L 61.802554 140.454761 
L 61.900563 137.047437 
L 61.960171 137.047437 
L 61.960171 135.343775 
L 62.379194 135.343775 
L 62.430396 130.232789 
L 62.527641 130.232789 
L 62.607405 123.418141 
L 62.940837 123.418141 
L 62.940837 121.714479 
L 63.107147 121.714479 
L 63.107147 120.010817 
L 63.250722 120.010817 
L 63.342904 114.899831 
L 63.433606 114.899831 
L 63.484043 109.788845 
L 63.712302 109.788845 
L 63.712302 108.085183 
L 64.145033 108.085183 
L 64.202634 102.974197 
L 64.674197 102.974197 
L 64.701421 99.566873 
L 64.814142 99.566873 
L 64.814142 97.863211 
L 65.022196 97.863211 
L 65.022196 96.159549 
L 65.404203 96.159549 
L 65.404203 94.455887 
L 66.036392 94.455887 
L 66.036392 92.752225 
L 66.587575 92.752225 
L 66.587575 91.048563 
L 67.025225 91.048563 
L 67.025225 89.344901 
L 67.657843 89.344901 
L 67.687122 85.937577 
L 68.4423 85.937577 
L 68.4423 84.233915 
L 68.98713 84.233915 
L 68.98713 82.530254 
L 72.415735 82.530254 
L 72.454901 79.12293 
L 72.71325 79.12293 
L 72.71325 77.419268 
L 73.085608 77.419268 
L 73.085608 75.715606 
L 73.853061 75.715606 
L 73.853061 74.011944 
L 74.632216 74.011944 
L 74.632216 72.308282 
L 74.953612 72.308282 
L 74.953612 70.60462 
L 76.372692 70.60462 
L 76.372692 68.900958 
L 76.581941 68.900958 
L 76.581941 67.197296 
L 83.013155 67.197296 
L 83.013155 65.493634 
L 84.940766 65.493634 
L 84.940766 63.789972 
L 85.332517 63.789972 
L 85.332517 62.08631 
L 87.954408 62.08631 
L 87.954408 60.382648 
L 112.608517 60.382648 
L 112.608517 58.678986 
L 118.353379 58.678986 
L 118.353379 56.975324 
L 120.251425 56.975324 
L 120.251425 55.271662 
L 135.917672 55.271662 
L 135.917672 53.568 
L 414.72 53.568 
L 414.72 53.568 
" style="fill:none;stroke:#2ca02c;stroke-linecap:square;stroke-width:1.5;"/>
   </g>
   <g id="patch_3">
    <path d="M 57.6 307.584 
L 57.6 41.472 
" style="fill:none;stroke:#000000;stroke-linecap:square;stroke-linejoin:miter;stroke-width:0.8;"/>
   </g>
   <g id="patch_4">
    <path d="M 414.72 307.584 
L 414.72 41.472 
" style="fill:none;stroke:#000000;stroke-linecap:square;stroke-linejoin:miter;stroke-width:0.8;"/>
   </g>
   <g id="patch_5">
    <path d="M 57.6 307.584 
L 414.72 307.584 
" style="fill:none;stroke:#000000;stroke-linecap:square;stroke-linejoin:miter;stroke-width:0.8;"/>
   </g>
   <g id="patch_6">
    <path d="M 57.6 41.472 
L 414.72 41.472 
" style="fill:none;stroke:#000000;stroke-linecap:square;stroke-linejoin:miter;stroke-width:0.8;"/>
   </g>
   <g id="text_18">
    <!-- CDF of downstream_gene_dist from within intergenic STRs -->
    <g transform="translate(60.443438 35.472)scale(0.12 -0.12)">
     <defs>
      <path d="M 64.40625 67.28125 
L 64.40625 56.890625 
Q 59.421875 61.53125 53.78125 63.8125 
Q 48.140625 66.109375 41.796875 66.109375 
Q 29.296875 66.109375 22.65625 58.46875 
Q 16.015625 50.828125 16.015625 36.375 
Q 16.015625 21.96875 22.65625 14.328125 
Q 29.296875 6.6875 41.796875 6.6875 
Q 48.140625 6.6875 53.78125 8.984375 
Q 59.421875 11.28125 64.40625 15.921875 
L 64.40625 5.609375 
Q 59.234375 2.09375 53.4375 0.328125 
Q 47.65625 -1.421875 41.21875 -1.421875 
Q 24.65625 -1.421875 15.125 8.703125 
Q 5.609375 18.84375 5.609375 36.375 
Q 5.609375 53.953125 15.125 64.078125 
Q 24.65625 74.21875 41.21875 74.21875 
Q 47.75 74.21875 53.53125 72.484375 
Q 59.328125 70.75 64.40625 67.28125 
z
" id="DejaVuSans-67"/>
      <path d="M 19.671875 64.796875 
L 19.671875 8.109375 
L 31.59375 8.109375 
Q 46.6875 8.109375 53.6875 14.9375 
Q 60.6875 21.78125 60.6875 36.53125 
Q 60.6875 51.171875 53.6875 57.984375 
Q 46.6875 64.796875 31.59375 64.796875 
z
M 9.8125 72.90625 
L 30.078125 72.90625 
Q 51.265625 72.90625 61.171875 64.09375 
Q 71.09375 55.28125 71.09375 36.53125 
Q 71.09375 17.671875 61.125 8.828125 
Q 51.171875 0 30.078125 0 
L 9.8125 0 
z
" id="DejaVuSans-68"/>
      <path d="M 9.8125 72.90625 
L 51.703125 72.90625 
L 51.703125 64.59375 
L 19.671875 64.59375 
L 19.671875 43.109375 
L 48.578125 43.109375 
L 48.578125 34.8125 
L 19.671875 34.8125 
L 19.671875 0 
L 9.8125 0 
z
" id="DejaVuSans-70"/>
      <path d="M 30.609375 48.390625 
Q 23.390625 48.390625 19.1875 42.75 
Q 14.984375 37.109375 14.984375 27.296875 
Q 14.984375 17.484375 19.15625 11.84375 
Q 23.34375 6.203125 30.609375 6.203125 
Q 37.796875 6.203125 41.984375 11.859375 
Q 46.1875 17.53125 46.1875 27.296875 
Q 46.1875 37.015625 41.984375 42.703125 
Q 37.796875 48.390625 30.609375 48.390625 
z
M 30.609375 56 
Q 42.328125 56 49.015625 48.375 
Q 55.71875 40.765625 55.71875 27.296875 
Q 55.71875 13.875 49.015625 6.21875 
Q 42.328125 -1.421875 30.609375 -1.421875 
Q 18.84375 -1.421875 12.171875 6.21875 
Q 5.515625 13.875 5.515625 27.296875 
Q 5.515625 40.765625 12.171875 48.375 
Q 18.84375 56 30.609375 56 
z
" id="DejaVuSans-111"/>
      <path d="M 37.109375 75.984375 
L 37.109375 68.5 
L 28.515625 68.5 
Q 23.6875 68.5 21.796875 66.546875 
Q 19.921875 64.59375 19.921875 59.515625 
L 19.921875 54.6875 
L 34.71875 54.6875 
L 34.71875 47.703125 
L 19.921875 47.703125 
L 19.921875 0 
L 10.890625 0 
L 10.890625 47.703125 
L 2.296875 47.703125 
L 2.296875 54.6875 
L 10.890625 54.6875 
L 10.890625 58.5 
Q 10.890625 67.625 15.140625 71.796875 
Q 19.390625 75.984375 28.609375 75.984375 
z
" id="DejaVuSans-102"/>
      <path d="M 4.203125 54.6875 
L 13.1875 54.6875 
L 24.421875 12.015625 
L 35.59375 54.6875 
L 46.1875 54.6875 
L 57.421875 12.015625 
L 68.609375 54.6875 
L 77.59375 54.6875 
L 63.28125 0 
L 52.6875 0 
L 40.921875 44.828125 
L 29.109375 0 
L 18.5 0 
z
" id="DejaVuSans-119"/>
      <path d="M 41.109375 46.296875 
Q 39.59375 47.171875 37.8125 47.578125 
Q 36.03125 48 33.890625 48 
Q 26.265625 48 22.1875 43.046875 
Q 18.109375 38.09375 18.109375 28.8125 
L 18.109375 0 
L 9.078125 0 
L 9.078125 54.6875 
L 18.109375 54.6875 
L 18.109375 46.1875 
Q 20.953125 51.171875 25.484375 53.578125 
Q 30.03125 56 36.53125 56 
Q 37.453125 56 38.578125 55.875 
Q 39.703125 55.765625 41.0625 55.515625 
z
" id="DejaVuSans-114"/>
      <path d="M 52 44.1875 
Q 55.375 50.25 60.0625 53.125 
Q 64.75 56 71.09375 56 
Q 79.640625 56 84.28125 50.015625 
Q 88.921875 44.046875 88.921875 33.015625 
L 88.921875 0 
L 79.890625 0 
L 79.890625 32.71875 
Q 79.890625 40.578125 77.09375 44.375 
Q 74.3125 48.1875 68.609375 48.1875 
Q 61.625 48.1875 57.5625 43.546875 
Q 53.515625 38.921875 53.515625 30.90625 
L 53.515625 0 
L 44.484375 0 
L 44.484375 32.71875 
Q 44.484375 40.625 41.703125 44.40625 
Q 38.921875 48.1875 33.109375 48.1875 
Q 26.21875 48.1875 22.15625 43.53125 
Q 18.109375 38.875 18.109375 30.90625 
L 18.109375 0 
L 9.078125 0 
L 9.078125 54.6875 
L 18.109375 54.6875 
L 18.109375 46.1875 
Q 21.1875 51.21875 25.484375 53.609375 
Q 29.78125 56 35.6875 56 
Q 41.65625 56 45.828125 52.96875 
Q 50 49.953125 52 44.1875 
z
" id="DejaVuSans-109"/>
      <path d="M 50.984375 -16.609375 
L 50.984375 -23.578125 
L -0.984375 -23.578125 
L -0.984375 -16.609375 
z
" id="DejaVuSans-95"/>
      <path d="M 45.40625 27.984375 
Q 45.40625 37.75 41.375 43.109375 
Q 37.359375 48.484375 30.078125 48.484375 
Q 22.859375 48.484375 18.828125 43.109375 
Q 14.796875 37.75 14.796875 27.984375 
Q 14.796875 18.265625 18.828125 12.890625 
Q 22.859375 7.515625 30.078125 7.515625 
Q 37.359375 7.515625 41.375 12.890625 
Q 45.40625 18.265625 45.40625 27.984375 
z
M 54.390625 6.78125 
Q 54.390625 -7.171875 48.1875 -13.984375 
Q 42 -20.796875 29.203125 -20.796875 
Q 24.46875 -20.796875 20.265625 -20.09375 
Q 16.0625 -19.390625 12.109375 -17.921875 
L 12.109375 -9.1875 
Q 16.0625 -11.328125 19.921875 -12.34375 
Q 23.78125 -13.375 27.78125 -13.375 
Q 36.625 -13.375 41.015625 -8.765625 
Q 45.40625 -4.15625 45.40625 5.171875 
L 45.40625 9.625 
Q 42.625 4.78125 38.28125 2.390625 
Q 33.9375 0 27.875 0 
Q 17.828125 0 11.671875 7.65625 
Q 5.515625 15.328125 5.515625 27.984375 
Q 5.515625 40.671875 11.671875 48.328125 
Q 17.828125 56 27.875 56 
Q 33.9375 56 38.28125 53.609375 
Q 42.625 51.21875 45.40625 46.390625 
L 45.40625 54.6875 
L 54.390625 54.6875 
z
" id="DejaVuSans-103"/>
      <path d="M 54.890625 33.015625 
L 54.890625 0 
L 45.90625 0 
L 45.90625 32.71875 
Q 45.90625 40.484375 42.875 44.328125 
Q 39.84375 48.1875 33.796875 48.1875 
Q 26.515625 48.1875 22.3125 43.546875 
Q 18.109375 38.921875 18.109375 30.90625 
L 18.109375 0 
L 9.078125 0 
L 9.078125 75.984375 
L 18.109375 75.984375 
L 18.109375 46.1875 
Q 21.34375 51.125 25.703125 53.5625 
Q 30.078125 56 35.796875 56 
Q 45.21875 56 50.046875 50.171875 
Q 54.890625 44.34375 54.890625 33.015625 
z
" id="DejaVuSans-104"/>
      <path d="M 53.515625 70.515625 
L 53.515625 60.890625 
Q 47.90625 63.578125 42.921875 64.890625 
Q 37.9375 66.21875 33.296875 66.21875 
Q 25.25 66.21875 20.875 63.09375 
Q 16.5 59.96875 16.5 54.203125 
Q 16.5 49.359375 19.40625 46.890625 
Q 22.3125 44.4375 30.421875 42.921875 
L 36.375 41.703125 
Q 47.40625 39.59375 52.65625 34.296875 
Q 57.90625 29 57.90625 20.125 
Q 57.90625 9.515625 50.796875 4.046875 
Q 43.703125 -1.421875 29.984375 -1.421875 
Q 24.8125 -1.421875 18.96875 -0.25 
Q 13.140625 0.921875 6.890625 3.21875 
L 6.890625 13.375 
Q 12.890625 10.015625 18.65625 8.296875 
Q 24.421875 6.59375 29.984375 6.59375 
Q 38.421875 6.59375 43.015625 9.90625 
Q 47.609375 13.234375 47.609375 19.390625 
Q 47.609375 24.75 44.3125 27.78125 
Q 41.015625 30.8125 33.5 32.328125 
L 27.484375 33.5 
Q 16.453125 35.6875 11.515625 40.375 
Q 6.59375 45.0625 6.59375 53.421875 
Q 6.59375 63.09375 13.40625 68.65625 
Q 20.21875 74.21875 32.171875 74.21875 
Q 37.3125 74.21875 42.625 73.28125 
Q 47.953125 72.359375 53.515625 70.515625 
z
" id="DejaVuSans-83"/>
      <path d="M -0.296875 72.90625 
L 61.375 72.90625 
L 61.375 64.59375 
L 35.5 64.59375 
L 35.5 0 
L 25.59375 0 
L 25.59375 64.59375 
L -0.296875 64.59375 
z
" id="DejaVuSans-84"/>
      <path d="M 44.390625 34.1875 
Q 47.5625 33.109375 50.5625 29.59375 
Q 53.5625 26.078125 56.59375 19.921875 
L 66.609375 0 
L 56 0 
L 46.6875 18.703125 
Q 43.0625 26.03125 39.671875 28.421875 
Q 36.28125 30.8125 30.421875 30.8125 
L 19.671875 30.8125 
L 19.671875 0 
L 9.8125 0 
L 9.8125 72.90625 
L 32.078125 72.90625 
Q 44.578125 72.90625 50.734375 67.671875 
Q 56.890625 62.453125 56.890625 51.90625 
Q 56.890625 45.015625 53.6875 40.46875 
Q 50.484375 35.9375 44.390625 34.1875 
z
M 19.671875 64.796875 
L 19.671875 38.921875 
L 32.078125 38.921875 
Q 39.203125 38.921875 42.84375 42.21875 
Q 46.484375 45.515625 46.484375 51.90625 
Q 46.484375 58.296875 42.84375 61.546875 
Q 39.203125 64.796875 32.078125 64.796875 
z
" id="DejaVuSans-82"/>
     </defs>
     <use xlink:href="#DejaVuSans-67"/>
     <use x="69.824219" xlink:href="#DejaVuSans-68"/>
     <use x="146.826172" xlink:href="#DejaVuSans-70"/>
     <use x="204.345703" xlink:href="#DejaVuSans-32"/>
     <use x="236.132812" xlink:href="#DejaVuSans-111"/>
     <use x="297.314453" xlink:href="#DejaVuSans-102"/>
     <use x="332.519531" xlink:href="#DejaVuSans-32"/>
     <use x="364.306641" xlink:href="#DejaVuSans-100"/>
     <use x="427.783203" xlink:href="#DejaVuSans-111"/>
     <use x="488.964844" xlink:href="#DejaVuSans-119"/>
     <use x="570.751953" xlink:href="#DejaVuSans-110"/>
     <use x="634.130859" xlink:href="#DejaVuSans-115"/>
     <use x="686.230469" xlink:href="#DejaVuSans-116"/>
     <use x="725.439453" xlink:href="#DejaVuSans-114"/>
     <use x="764.302734" xlink:href="#DejaVuSans-101"/>
     <use x="825.826172" xlink:href="#DejaVuSans-97"/>
     <use x="887.105469" xlink:href="#DejaVuSans-109"/>
     <use x="984.517578" xlink:href="#DejaVuSans-95"/>
     <use x="1034.517578" xlink:href="#DejaVuSans-103"/>
     <use x="1097.994141" xlink:href="#DejaVuSans-101"/>
     <use x="1159.517578" xlink:href="#DejaVuSans-110"/>
     <use x="1222.896484" xlink:href="#DejaVuSans-101"/>
     <use x="1284.419922" xlink:href="#DejaVuSans-95"/>
     <use x="1334.419922" xlink:href="#DejaVuSans-100"/>
     <use x="1397.896484" xlink:href="#DejaVuSans-105"/>
     <use x="1425.679688" xlink:href="#DejaVuSans-115"/>
     <use x="1477.779297" xlink:href="#DejaVuSans-116"/>
     <use x="1516.988281" xlink:href="#DejaVuSans-32"/>
     <use x="1548.775391" xlink:href="#DejaVuSans-102"/>
     <use x="1583.980469" xlink:href="#DejaVuSans-114"/>
     <use x="1622.84375" xlink:href="#DejaVuSans-111"/>
     <use x="1684.025391" xlink:href="#DejaVuSans-109"/>
     <use x="1781.4375" xlink:href="#DejaVuSans-32"/>
     <use x="1813.224609" xlink:href="#DejaVuSans-119"/>
     <use x="1895.011719" xlink:href="#DejaVuSans-105"/>
     <use x="1922.794922" xlink:href="#DejaVuSans-116"/>
     <use x="1962.003906" xlink:href="#DejaVuSans-104"/>
     <use x="2025.382812" xlink:href="#DejaVuSans-105"/>
     <use x="2053.166016" xlink:href="#DejaVuSans-110"/>
     <use x="2116.544922" xlink:href="#DejaVuSans-32"/>
     <use x="2148.332031" xlink:href="#DejaVuSans-105"/>
     <use x="2176.115234" xlink:href="#DejaVuSans-110"/>
     <use x="2239.494141" xlink:href="#DejaVuSans-116"/>
     <use x="2278.703125" xlink:href="#DejaVuSans-101"/>
     <use x="2340.226562" xlink:href="#DejaVuSans-114"/>
     <use x="2379.589844" xlink:href="#DejaVuSans-103"/>
     <use x="2443.066406" xlink:href="#DejaVuSans-101"/>
     <use x="2504.589844" xlink:href="#DejaVuSans-110"/>
     <use x="2567.96875" xlink:href="#DejaVuSans-105"/>
     <use x="2595.751953" xlink:href="#DejaVuSans-99"/>
     <use x="2650.732422" xlink:href="#DejaVuSans-32"/>
     <use x="2682.519531" xlink:href="#DejaVuSans-83"/>
     <use x="2745.996094" xlink:href="#DejaVuSans-84"/>
     <use x="2807.080078" xlink:href="#DejaVuSans-82"/>
     <use x="2876.5625" xlink:href="#DejaVuSans-115"/>
    </g>
   </g>
   <g id="legend_1">
    <g id="patch_7">
     <path d="M 64.6 302.584 
L 152.739062 302.584 
Q 154.739062 302.584 154.739062 300.584 
L 154.739062 256.993375 
Q 154.739062 254.993375 152.739062 254.993375 
L 64.6 254.993375 
Q 62.6 254.993375 62.6 256.993375 
L 62.6 300.584 
Q 62.6 302.584 64.6 302.584 
z
" style="fill:#ffffff;opacity:0.8;stroke:#cccccc;stroke-linejoin:miter;"/>
    </g>
    <g id="line2d_18">
     <path d="M 66.6 263.091812 
L 86.6 263.091812 
" style="fill:none;stroke:#1f77b4;stroke-linecap:square;stroke-width:1.5;"/>
    </g>
    <g id="line2d_19"/>
    <g id="text_19">
     <!-- all_STRs -->
     <g transform="translate(94.6 266.591812)scale(0.1 -0.1)">
      <defs>
       <path d="M 9.421875 75.984375 
L 18.40625 75.984375 
L 18.40625 0 
L 9.421875 0 
z
" id="DejaVuSans-108"/>
      </defs>
      <use xlink:href="#DejaVuSans-97"/>
      <use x="61.279297" xlink:href="#DejaVuSans-108"/>
      <use x="89.0625" xlink:href="#DejaVuSans-108"/>
      <use x="116.845703" xlink:href="#DejaVuSans-95"/>
      <use x="166.845703" xlink:href="#DejaVuSans-83"/>
      <use x="230.322266" xlink:href="#DejaVuSans-84"/>
      <use x="291.40625" xlink:href="#DejaVuSans-82"/>
      <use x="360.888672" xlink:href="#DejaVuSans-115"/>
     </g>
    </g>
    <g id="line2d_20">
     <path d="M 66.6 278.048062 
L 86.6 278.048062 
" style="fill:none;stroke:#ff7f0e;stroke-linecap:square;stroke-width:1.5;"/>
    </g>
    <g id="line2d_21"/>
    <g id="text_20">
     <!-- gwas_sig -->
     <g transform="translate(94.6 281.548062)scale(0.1 -0.1)">
      <use xlink:href="#DejaVuSans-103"/>
      <use x="63.476562" xlink:href="#DejaVuSans-119"/>
      <use x="145.263672" xlink:href="#DejaVuSans-97"/>
      <use x="206.542969" xlink:href="#DejaVuSans-115"/>
      <use x="258.642578" xlink:href="#DejaVuSans-95"/>
      <use x="308.642578" xlink:href="#DejaVuSans-115"/>
      <use x="360.742188" xlink:href="#DejaVuSans-105"/>
      <use x="388.525391" xlink:href="#DejaVuSans-103"/>
     </g>
    </g>
    <g id="line2d_22">
     <path d="M 66.6 293.004312 
L 86.6 293.004312 
" style="fill:none;stroke:#2ca02c;stroke-linecap:square;stroke-width:1.5;"/>
    </g>
    <g id="line2d_23"/>
    <g id="text_21">
     <!-- FINEMAPed -->
     <g transform="translate(94.6 296.504312)scale(0.1 -0.1)">
      <defs>
       <path d="M 9.8125 72.90625 
L 19.671875 72.90625 
L 19.671875 0 
L 9.8125 0 
z
" id="DejaVuSans-73"/>
       <path d="M 9.8125 72.90625 
L 23.09375 72.90625 
L 55.421875 11.921875 
L 55.421875 72.90625 
L 64.984375 72.90625 
L 64.984375 0 
L 51.703125 0 
L 19.390625 60.984375 
L 19.390625 0 
L 9.8125 0 
z
" id="DejaVuSans-78"/>
       <path d="M 9.8125 72.90625 
L 55.90625 72.90625 
L 55.90625 64.59375 
L 19.671875 64.59375 
L 19.671875 43.015625 
L 54.390625 43.015625 
L 54.390625 34.71875 
L 19.671875 34.71875 
L 19.671875 8.296875 
L 56.78125 8.296875 
L 56.78125 0 
L 9.8125 0 
z
" id="DejaVuSans-69"/>
       <path d="M 9.8125 72.90625 
L 24.515625 72.90625 
L 43.109375 23.296875 
L 61.8125 72.90625 
L 76.515625 72.90625 
L 76.515625 0 
L 66.890625 0 
L 66.890625 64.015625 
L 48.09375 14.015625 
L 38.1875 14.015625 
L 19.390625 64.015625 
L 19.390625 0 
L 9.8125 0 
z
" id="DejaVuSans-77"/>
       <path d="M 34.1875 63.1875 
L 20.796875 26.90625 
L 47.609375 26.90625 
z
M 28.609375 72.90625 
L 39.796875 72.90625 
L 67.578125 0 
L 57.328125 0 
L 50.6875 18.703125 
L 17.828125 18.703125 
L 11.1875 0 
L 0.78125 0 
z
" id="DejaVuSans-65"/>
       <path d="M 19.671875 64.796875 
L 19.671875 37.40625 
L 32.078125 37.40625 
Q 38.96875 37.40625 42.71875 40.96875 
Q 46.484375 44.53125 46.484375 51.125 
Q 46.484375 57.671875 42.71875 61.234375 
Q 38.96875 64.796875 32.078125 64.796875 
z
M 9.8125 72.90625 
L 32.078125 72.90625 
Q 44.34375 72.90625 50.609375 67.359375 
Q 56.890625 61.8125 56.890625 51.125 
Q 56.890625 40.328125 50.609375 34.8125 
Q 44.34375 29.296875 32.078125 29.296875 
L 19.671875 29.296875 
L 19.671875 0 
L 9.8125 0 
z
" id="DejaVuSans-80"/>
      </defs>
      <use xlink:href="#DejaVuSans-70"/>
      <use x="57.519531" xlink:href="#DejaVuSans-73"/>
      <use x="87.011719" xlink:href="#DejaVuSans-78"/>
      <use x="161.816406" xlink:href="#DejaVuSans-69"/>
      <use x="225" xlink:href="#DejaVuSans-77"/>
      <use x="311.279297" xlink:href="#DejaVuSans-65"/>
      <use x="379.6875" xlink:href="#DejaVuSans-80"/>
      <use x="436.365234" xlink:href="#DejaVuSans-101"/>
      <use x="497.888672" xlink:href="#DejaVuSans-100"/>
     </g>
    </g>
   </g>
  </g>
 </g>
 <defs>
  <clipPath id="pfc5ff7d222">
   <rect height="266.112" width="357.12" x="57.6" y="41.472"/>
  </clipPath>
 </defs>
</svg>
