<svg version="1.1" xmlns="http://www.w3.org/2000/svg" width="5000" height="3750"><defs><clipPath id="kXDoOLZOiXID"><path fill="none" stroke="none" d="M 490.5 5.5 L 4995.5 5.5 L 4995.5 3412.5 L 490.5 3412.5 L 490.5 5.5"/></clipPath><clipPath id="vTskhKTHwpsb"><path fill="none" stroke="none" d="M 490.5 5.5 L 4995.5 5.5 L 4995.5 3412.5 L 490.5 3412.5 L 490.5 5.5"/></clipPath><clipPath id="DTMvEOTLsNGf"><path fill="none" stroke="none" d="M 490.5 5.5 L 4995.5 5.5 L 4995.5 3412.5 L 490.5 3412.5 L 490.5 5.5"/></clipPath><clipPath id="VHvHmWJJvcfh"><path fill="none" stroke="none" d="M 490.5 5.5 L 4995.5 5.5 L 4995.5 3412.5 L 490.5 3412.5 L 490.5 5.5"/></clipPath></defs><path fill="none" stroke="rgb(229,229,229)" paint-order="fill" d="M 490.5 5.5 L 4995.5 5.5 L 4995.5 3412.5 L 490.5 3412.5 L 490.5 5.5" stroke-opacity="1" stroke-linejoin="bevel" stroke-miterlimit="10" stroke-dasharray=""/><path fill="rgb(31,119,180)" stroke="rgb(31,119,180)" paint-order="fill" d="M 695.272705078125 2696.247802734375 L 736.227294921875 2696.247802734375 L 736.227294921875 3257.636474609375 L 695.272705078125 3257.636474609375 L 695.272705078125 2696.247802734375" fill-opacity="1" clip-path="url(#DTMvEOTLsNGf)" stroke-opacity="1" stroke-linejoin="bevel" stroke-miterlimit="10" stroke-dasharray=""/><path fill="rgb(31,119,180)" stroke="rgb(31,119,180)" paint-order="fill" d="M 736.227294921875 2522.35302734375 L 777.1818237304688 2522.35302734375 L 777.1818237304688 3257.636474609375 L 736.227294921875 3257.636474609375 L 736.227294921875 2522.35302734375" fill-opacity="1" clip-path="url(#DTMvEOTLsNGf)" stroke-opacity="1" stroke-linejoin="bevel" stroke-miterlimit="10" stroke-dasharray=""/><path fill="rgb(31,119,180)" stroke="rgb(31,119,180)" paint-order="fill" d="M 777.1818237304688 2668.614990234375 L 818.1363525390625 2668.614990234375 L 818.1363525390625 3257.636474609375 L 777.1818237304688 3257.636474609375 L 777.1818237304688 2668.614990234375" fill-opacity="1" clip-path="url(#DTMvEOTLsNGf)" stroke-opacity="1" stroke-linejoin="bevel" stroke-miterlimit="10" stroke-dasharray=""/><path fill="rgb(31,119,180)" stroke="rgb(31,119,180)" paint-order="fill" d="M 818.1363525390625 2746.070068359375 L 859.0908813476562 2746.070068359375 L 859.0908813476562 3257.636474609375 L 818.1363525390625 3257.636474609375 L 818.1363525390625 2746.070068359375" fill-opacity="1" clip-path="url(#DTMvEOTLsNGf)" stroke-opacity="1" stroke-linejoin="bevel" stroke-miterlimit="10" stroke-dasharray=""/><path fill="rgb(31,119,180)" stroke="rgb(31,119,180)" paint-order="fill" d="M 859.0908813476562 2815.830322265625 L 900.0454711914062 2815.830322265625 L 900.0454711914062 3257.636474609375 L 859.0908813476562 3257.636474609375 L 859.0908813476562 2815.830322265625" fill-opacity="1" clip-path="url(#DTMvEOTLsNGf)" stroke-opacity="1" stroke-linejoin="bevel" stroke-miterlimit="10" stroke-dasharray=""/><path fill="rgb(31,119,180)" stroke="rgb(31,119,180)" paint-order="fill" d="M 900.0454711914062 2872.046630859375 L 941 2872.046630859375 L 941 3257.636474609375 L 900.0454711914062 3257.636474609375 L 900.0454711914062 2872.046630859375" fill-opacity="1" clip-path="url(#DTMvEOTLsNGf)" stroke-opacity="1" stroke-linejoin="bevel" stroke-miterlimit="10" stroke-dasharray=""/><path fill="rgb(31,119,180)" stroke="rgb(31,119,180)" paint-order="fill" d="M 941 2919.85986328125 L 981.9545288085938 2919.85986328125 L 981.9545288085938 3257.636474609375 L 941 3257.636474609375 L 941 2919.85986328125" fill-opacity="1" clip-path="url(#DTMvEOTLsNGf)" stroke-opacity="1" stroke-linejoin="bevel" stroke-miterlimit="10" stroke-dasharray=""/><path fill="rgb(31,119,180)" stroke="rgb(31,119,180)" paint-order="fill" d="M 981.9545288085938 2950.50244140625 L 1022.9091186523438 2950.50244140625 L 1022.9091186523438 3257.636474609375 L 981.9545288085938 3257.636474609375 L 981.9545288085938 2950.50244140625" fill-opacity="1" clip-path="url(#DTMvEOTLsNGf)" stroke-opacity="1" stroke-linejoin="bevel" stroke-miterlimit="10" stroke-dasharray=""/><path fill="rgb(31,119,180)" stroke="rgb(31,119,180)" paint-order="fill" d="M 1022.9091186523438 2975.896484375 L 1063.8636474609375 2975.896484375 L 1063.8636474609375 3257.636474609375 L 1022.9091186523438 3257.636474609375 L 1022.9091186523438 2975.896484375" fill-opacity="1" clip-path="url(#DTMvEOTLsNGf)" stroke-opacity="1" stroke-linejoin="bevel" stroke-miterlimit="10" stroke-dasharray=""/><path fill="rgb(31,119,180)" stroke="rgb(31,119,180)" paint-order="fill" d="M 1063.8636474609375 2995.029541015625 L 1104.8182373046875 2995.029541015625 L 1104.8182373046875 3257.636474609375 L 1063.8636474609375 3257.636474609375 L 1063.8636474609375 2995.029541015625" fill-opacity="1" clip-path="url(#DTMvEOTLsNGf)" stroke-opacity="1" stroke-linejoin="bevel" stroke-miterlimit="10" stroke-dasharray=""/><path fill="rgb(31,119,180)" stroke="rgb(31,119,180)" paint-order="fill" d="M 1104.8182373046875 3008.894775390625 L 1145.772705078125 3008.894775390625 L 1145.772705078125 3257.636474609375 L 1104.8182373046875 3257.636474609375 L 1104.8182373046875 3008.894775390625" fill-opacity="1" clip-path="url(#DTMvEOTLsNGf)" stroke-opacity="1" stroke-linejoin="bevel" stroke-miterlimit="10" stroke-dasharray=""/><path fill="rgb(31,119,180)" stroke="rgb(31,119,180)" paint-order="fill" d="M 1145.772705078125 3045.219970703125 L 1186.727294921875 3045.219970703125 L 1186.727294921875 3257.636474609375 L 1145.772705078125 3257.636474609375 L 1145.772705078125 3045.219970703125" fill-opacity="1" clip-path="url(#DTMvEOTLsNGf)" stroke-opacity="1" stroke-linejoin="bevel" stroke-miterlimit="10" stroke-dasharray=""/><path fill="rgb(31,119,180)" stroke="rgb(31,119,180)" paint-order="fill" d="M 1186.727294921875 3047.906494140625 L 1227.6817626953125 3047.906494140625 L 1227.6817626953125 3257.636474609375 L 1186.727294921875 3257.636474609375 L 1186.727294921875 3047.906494140625" fill-opacity="1" clip-path="url(#DTMvEOTLsNGf)" stroke-opacity="1" stroke-linejoin="bevel" stroke-miterlimit="10" stroke-dasharray=""/><path fill="rgb(31,119,180)" stroke="rgb(31,119,180)" paint-order="fill" d="M 1227.6817626953125 3056.683349609375 L 1268.6363525390625 3056.683349609375 L 1268.6363525390625 3257.636474609375 L 1227.6817626953125 3257.636474609375 L 1227.6817626953125 3056.683349609375" fill-opacity="1" clip-path="url(#DTMvEOTLsNGf)" stroke-opacity="1" stroke-linejoin="bevel" stroke-miterlimit="10" stroke-dasharray=""/><path fill="rgb(31,119,180)" stroke="rgb(31,119,180)" paint-order="fill" d="M 1268.6363525390625 3075.196044921875 L 1309.5909423828125 3075.196044921875 L 1309.5909423828125 3257.636474609375 L 1268.6363525390625 3257.636474609375 L 1268.6363525390625 3075.196044921875" fill-opacity="1" clip-path="url(#DTMvEOTLsNGf)" stroke-opacity="1" stroke-linejoin="bevel" stroke-miterlimit="10" stroke-dasharray=""/><path fill="rgb(31,119,180)" stroke="rgb(31,119,180)" paint-order="fill" d="M 1309.5909423828125 3077.134765625 L 1350.54541015625 3077.134765625 L 1350.54541015625 3257.636474609375 L 1309.5909423828125 3257.636474609375 L 1309.5909423828125 3077.134765625" fill-opacity="1" clip-path="url(#DTMvEOTLsNGf)" stroke-opacity="1" stroke-linejoin="bevel" stroke-miterlimit="10" stroke-dasharray=""/><path fill="rgb(31,119,180)" stroke="rgb(31,119,180)" paint-order="fill" d="M 1350.54541015625 3081.67578125 L 1391.5 3081.67578125 L 1391.5 3257.636474609375 L 1350.54541015625 3257.636474609375 L 1350.54541015625 3081.67578125" fill-opacity="1" clip-path="url(#DTMvEOTLsNGf)" stroke-opacity="1" stroke-linejoin="bevel" stroke-miterlimit="10" stroke-dasharray=""/><path fill="rgb(31,119,180)" stroke="rgb(31,119,180)" paint-order="fill" d="M 1391.5 3104.648681640625 L 1432.45458984375 3104.648681640625 L 1432.45458984375 3257.636474609375 L 1391.5 3257.636474609375 L 1391.5 3104.648681640625" fill-opacity="1" clip-path="url(#DTMvEOTLsNGf)" stroke-opacity="1" stroke-linejoin="bevel" stroke-miterlimit="10" stroke-dasharray=""/><path fill="rgb(31,119,180)" stroke="rgb(31,119,180)" paint-order="fill" d="M 1432.45458984375 3098.892822265625 L 1473.4090576171875 3098.892822265625 L 1473.4090576171875 3257.636474609375 L 1432.45458984375 3257.636474609375 L 1432.45458984375 3098.892822265625" fill-opacity="1" clip-path="url(#DTMvEOTLsNGf)" stroke-opacity="1" stroke-linejoin="bevel" stroke-miterlimit="10" stroke-dasharray=""/><path fill="rgb(31,119,180)" stroke="rgb(31,119,180)" paint-order="fill" d="M 1473.4090576171875 3111.5986328125 L 1514.3636474609375 3111.5986328125 L 1514.3636474609375 3257.636474609375 L 1473.4090576171875 3257.636474609375 L 1473.4090576171875 3111.5986328125" fill-opacity="1" clip-path="url(#DTMvEOTLsNGf)" stroke-opacity="1" stroke-linejoin="bevel" stroke-miterlimit="10" stroke-dasharray=""/><path fill="rgb(31,119,180)" stroke="rgb(31,119,180)" paint-order="fill" d="M 1514.3636474609375 3114.423583984375 L 1555.3182373046875 3114.423583984375 L 1555.3182373046875 3257.636474609375 L 1514.3636474609375 3257.636474609375 L 1514.3636474609375 3114.423583984375" fill-opacity="1" clip-path="url(#DTMvEOTLsNGf)" stroke-opacity="1" stroke-linejoin="bevel" stroke-miterlimit="10" stroke-dasharray=""/><path fill="rgb(31,119,180)" stroke="rgb(31,119,180)" paint-order="fill" d="M 1555.3182373046875 3131.17919921875 L 1596.272705078125 3131.17919921875 L 1596.272705078125 3257.636474609375 L 1555.3182373046875 3257.636474609375 L 1555.3182373046875 3131.17919921875" fill-opacity="1" clip-path="url(#DTMvEOTLsNGf)" stroke-opacity="1" stroke-linejoin="bevel" stroke-miterlimit="10" stroke-dasharray=""/><path fill="rgb(31,119,180)" stroke="rgb(31,119,180)" paint-order="fill" d="M 1596.272705078125 3131.62841796875 L 1637.227294921875 3131.62841796875 L 1637.227294921875 3257.636474609375 L 1596.272705078125 3257.636474609375 L 1596.272705078125 3131.62841796875" fill-opacity="1" clip-path="url(#DTMvEOTLsNGf)" stroke-opacity="1" stroke-linejoin="bevel" stroke-miterlimit="10" stroke-dasharray=""/><path fill="rgb(31,119,180)" stroke="rgb(31,119,180)" paint-order="fill" d="M 1637.227294921875 3127.052490234375 L 1678.1817626953125 3127.052490234375 L 1678.1817626953125 3257.636474609375 L 1637.227294921875 3257.636474609375 L 1637.227294921875 3127.052490234375" fill-opacity="1" clip-path="url(#DTMvEOTLsNGf)" stroke-opacity="1" stroke-linejoin="bevel" stroke-miterlimit="10" stroke-dasharray=""/><path fill="rgb(31,119,180)" stroke="rgb(31,119,180)" paint-order="fill" d="M 1678.1817626953125 3133.11376953125 L 1719.1363525390625 3133.11376953125 L 1719.1363525390625 3257.636474609375 L 1678.1817626953125 3257.636474609375 L 1678.1817626953125 3133.11376953125" fill-opacity="1" clip-path="url(#DTMvEOTLsNGf)" stroke-opacity="1" stroke-linejoin="bevel" stroke-miterlimit="10" stroke-dasharray=""/><path fill="rgb(31,119,180)" stroke="rgb(31,119,180)" paint-order="fill" d="M 1719.1363525390625 3141.31494140625 L 1760.0909423828125 3141.31494140625 L 1760.0909423828125 3257.636474609375 L 1719.1363525390625 3257.636474609375 L 1719.1363525390625 3141.31494140625" fill-opacity="1" clip-path="url(#DTMvEOTLsNGf)" stroke-opacity="1" stroke-linejoin="bevel" stroke-miterlimit="10" stroke-dasharray=""/><path fill="rgb(31,119,180)" stroke="rgb(31,119,180)" paint-order="fill" d="M 1760.0909423828125 3136.173828125 L 1801.04541015625 3136.173828125 L 1801.04541015625 3257.636474609375 L 1760.0909423828125 3257.636474609375 L 1760.0909423828125 3136.173828125" fill-opacity="1" clip-path="url(#DTMvEOTLsNGf)" stroke-opacity="1" stroke-linejoin="bevel" stroke-miterlimit="10" stroke-dasharray=""/><path fill="rgb(31,119,180)" stroke="rgb(31,119,180)" paint-order="fill" d="M 1801.04541015625 3149.309326171875 L 1842 3149.309326171875 L 1842 3257.636474609375 L 1801.04541015625 3257.636474609375 L 1801.04541015625 3149.309326171875" fill-opacity="1" clip-path="url(#DTMvEOTLsNGf)" stroke-opacity="1" stroke-linejoin="bevel" stroke-miterlimit="10" stroke-dasharray=""/><path fill="rgb(31,119,180)" stroke="rgb(31,119,180)" paint-order="fill" d="M 1842 3156.225341796875 L 1882.95458984375 3156.225341796875 L 1882.95458984375 3257.636474609375 L 1842 3257.636474609375 L 1842 3156.225341796875" fill-opacity="1" clip-path="url(#DTMvEOTLsNGf)" stroke-opacity="1" stroke-linejoin="bevel" stroke-miterlimit="10" stroke-dasharray=""/><path fill="rgb(31,119,180)" stroke="rgb(31,119,180)" paint-order="fill" d="M 1882.95458984375 3149.16015625 L 1923.9090576171875 3149.16015625 L 1923.9090576171875 3257.636474609375 L 1882.95458984375 3257.636474609375 L 1882.95458984375 3149.16015625" fill-opacity="1" clip-path="url(#DTMvEOTLsNGf)" stroke-opacity="1" stroke-linejoin="bevel" stroke-miterlimit="10" stroke-dasharray=""/><path fill="rgb(31,119,180)" stroke="rgb(31,119,180)" paint-order="fill" d="M 1923.9090576171875 3144.963623046875 L 1964.8636474609375 3144.963623046875 L 1964.8636474609375 3257.636474609375 L 1923.9090576171875 3257.636474609375 L 1923.9090576171875 3144.963623046875" fill-opacity="1" clip-path="url(#DTMvEOTLsNGf)" stroke-opacity="1" stroke-linejoin="bevel" stroke-miterlimit="10" stroke-dasharray=""/><path fill="rgb(31,119,180)" stroke="rgb(31,119,180)" paint-order="fill" d="M 1964.8636474609375 3148.642333984375 L 2005.8182373046875 3148.642333984375 L 2005.8182373046875 3257.636474609375 L 1964.8636474609375 3257.636474609375 L 1964.8636474609375 3148.642333984375" fill-opacity="1" clip-path="url(#DTMvEOTLsNGf)" stroke-opacity="1" stroke-linejoin="bevel" stroke-miterlimit="10" stroke-dasharray=""/><path fill="rgb(31,119,180)" stroke="rgb(31,119,180)" paint-order="fill" d="M 2005.8182373046875 3150.309326171875 L 2046.772705078125 3150.309326171875 L 2046.772705078125 3257.636474609375 L 2005.8182373046875 3257.636474609375 L 2005.8182373046875 3150.309326171875" fill-opacity="1" clip-path="url(#DTMvEOTLsNGf)" stroke-opacity="1" stroke-linejoin="bevel" stroke-miterlimit="10" stroke-dasharray=""/><path fill="rgb(31,119,180)" stroke="rgb(31,119,180)" paint-order="fill" d="M 2046.772705078125 3162.2333984375 L 2087.727294921875 3162.2333984375 L 2087.727294921875 3257.636474609375 L 2046.772705078125 3257.636474609375 L 2046.772705078125 3162.2333984375" fill-opacity="1" clip-path="url(#DTMvEOTLsNGf)" stroke-opacity="1" stroke-linejoin="bevel" stroke-miterlimit="10" stroke-dasharray=""/><path fill="rgb(31,119,180)" stroke="rgb(31,119,180)" paint-order="fill" d="M 2087.727294921875 3162.40478515625 L 2128.681884765625 3162.40478515625 L 2128.681884765625 3257.636474609375 L 2087.727294921875 3257.636474609375 L 2087.727294921875 3162.40478515625" fill-opacity="1" clip-path="url(#DTMvEOTLsNGf)" stroke-opacity="1" stroke-linejoin="bevel" stroke-miterlimit="10" stroke-dasharray=""/><path fill="rgb(31,119,180)" stroke="rgb(31,119,180)" paint-order="fill" d="M 2128.681884765625 3170.66943359375 L 2169.636474609375 3170.66943359375 L 2169.636474609375 3257.636474609375 L 2128.681884765625 3257.636474609375 L 2128.681884765625 3170.66943359375" fill-opacity="1" clip-path="url(#DTMvEOTLsNGf)" stroke-opacity="1" stroke-linejoin="bevel" stroke-miterlimit="10" stroke-dasharray=""/><path fill="rgb(31,119,180)" stroke="rgb(31,119,180)" paint-order="fill" d="M 2169.636474609375 3163.25927734375 L 2210.5908203125 3163.25927734375 L 2210.5908203125 3257.636474609375 L 2169.636474609375 3257.636474609375 L 2169.636474609375 3163.25927734375" fill-opacity="1" clip-path="url(#DTMvEOTLsNGf)" stroke-opacity="1" stroke-linejoin="bevel" stroke-miterlimit="10" stroke-dasharray=""/><path fill="rgb(31,119,180)" stroke="rgb(31,119,180)" paint-order="fill" d="M 2210.5908203125 3167.60009765625 L 2251.54541015625 3167.60009765625 L 2251.54541015625 3257.636474609375 L 2210.5908203125 3257.636474609375 L 2210.5908203125 3167.60009765625" fill-opacity="1" clip-path="url(#DTMvEOTLsNGf)" stroke-opacity="1" stroke-linejoin="bevel" stroke-miterlimit="10" stroke-dasharray=""/><path fill="rgb(31,119,180)" stroke="rgb(31,119,180)" paint-order="fill" d="M 2251.54541015625 3177.530029296875 L 2292.5 3177.530029296875 L 2292.5 3257.636474609375 L 2251.54541015625 3257.636474609375 L 2251.54541015625 3177.530029296875" fill-opacity="1" clip-path="url(#DTMvEOTLsNGf)" stroke-opacity="1" stroke-linejoin="bevel" stroke-miterlimit="10" stroke-dasharray=""/><path fill="rgb(31,119,180)" stroke="rgb(31,119,180)" paint-order="fill" d="M 2292.5 3171.0166015625 L 2333.45458984375 3171.0166015625 L 2333.45458984375 3257.636474609375 L 2292.5 3257.636474609375 L 2292.5 3171.0166015625" fill-opacity="1" clip-path="url(#DTMvEOTLsNGf)" stroke-opacity="1" stroke-linejoin="bevel" stroke-miterlimit="10" stroke-dasharray=""/><path fill="rgb(31,119,180)" stroke="rgb(31,119,180)" paint-order="fill" d="M 2333.45458984375 3177.52001953125 L 2374.4091796875 3177.52001953125 L 2374.4091796875 3257.636474609375 L 2333.45458984375 3257.636474609375 L 2333.45458984375 3177.52001953125" fill-opacity="1" clip-path="url(#DTMvEOTLsNGf)" stroke-opacity="1" stroke-linejoin="bevel" stroke-miterlimit="10" stroke-dasharray=""/><path fill="rgb(31,119,180)" stroke="rgb(31,119,180)" paint-order="fill" d="M 2374.4091796875 3171.278564453125 L 2415.363525390625 3171.278564453125 L 2415.363525390625 3257.636474609375 L 2374.4091796875 3257.636474609375 L 2374.4091796875 3171.278564453125" fill-opacity="1" clip-path="url(#DTMvEOTLsNGf)" stroke-opacity="1" stroke-linejoin="bevel" stroke-miterlimit="10" stroke-dasharray=""/><path fill="rgb(31,119,180)" stroke="rgb(31,119,180)" paint-order="fill" d="M 2415.363525390625 3164.80224609375 L 2456.318115234375 3164.80224609375 L 2456.318115234375 3257.636474609375 L 2415.363525390625 3257.636474609375 L 2415.363525390625 3164.80224609375" fill-opacity="1" clip-path="url(#DTMvEOTLsNGf)" stroke-opacity="1" stroke-linejoin="bevel" stroke-miterlimit="10" stroke-dasharray=""/><path fill="rgb(31,119,180)" stroke="rgb(31,119,180)" paint-order="fill" d="M 2456.318115234375 3176.708740234375 L 2497.272705078125 3176.708740234375 L 2497.272705078125 3257.636474609375 L 2456.318115234375 3257.636474609375 L 2456.318115234375 3176.708740234375" fill-opacity="1" clip-path="url(#DTMvEOTLsNGf)" stroke-opacity="1" stroke-linejoin="bevel" stroke-miterlimit="10" stroke-dasharray=""/><path fill="rgb(31,119,180)" stroke="rgb(31,119,180)" paint-order="fill" d="M 2497.272705078125 3187.694091796875 L 2538.227294921875 3187.694091796875 L 2538.227294921875 3257.636474609375 L 2497.272705078125 3257.636474609375 L 2497.272705078125 3187.694091796875" fill-opacity="1" clip-path="url(#DTMvEOTLsNGf)" stroke-opacity="1" stroke-linejoin="bevel" stroke-miterlimit="10" stroke-dasharray=""/><path fill="rgb(31,119,180)" stroke="rgb(31,119,180)" paint-order="fill" d="M 2538.227294921875 3178.49365234375 L 2579.181884765625 3178.49365234375 L 2579.181884765625 3257.636474609375 L 2538.227294921875 3257.636474609375 L 2538.227294921875 3178.49365234375" fill-opacity="1" clip-path="url(#DTMvEOTLsNGf)" stroke-opacity="1" stroke-linejoin="bevel" stroke-miterlimit="10" stroke-dasharray=""/><path fill="rgb(31,119,180)" stroke="rgb(31,119,180)" paint-order="fill" d="M 2579.181884765625 3180.875244140625 L 2620.136474609375 3180.875244140625 L 2620.136474609375 3257.636474609375 L 2579.181884765625 3257.636474609375 L 2579.181884765625 3180.875244140625" fill-opacity="1" clip-path="url(#DTMvEOTLsNGf)" stroke-opacity="1" stroke-linejoin="bevel" stroke-miterlimit="10" stroke-dasharray=""/><path fill="rgb(31,119,180)" stroke="rgb(31,119,180)" paint-order="fill" d="M 2620.136474609375 3182.275390625 L 2661.0908203125 3182.275390625 L 2661.0908203125 3257.636474609375 L 2620.136474609375 3257.636474609375 L 2620.136474609375 3182.275390625" fill-opacity="1" clip-path="url(#DTMvEOTLsNGf)" stroke-opacity="1" stroke-linejoin="bevel" stroke-miterlimit="10" stroke-dasharray=""/><path fill="rgb(31,119,180)" stroke="rgb(31,119,180)" paint-order="fill" d="M 2661.0908203125 3184.526611328125 L 2702.04541015625 3184.526611328125 L 2702.04541015625 3257.636474609375 L 2661.0908203125 3257.636474609375 L 2661.0908203125 3184.526611328125" fill-opacity="1" clip-path="url(#DTMvEOTLsNGf)" stroke-opacity="1" stroke-linejoin="bevel" stroke-miterlimit="10" stroke-dasharray=""/><path fill="rgb(31,119,180)" stroke="rgb(31,119,180)" paint-order="fill" d="M 2702.04541015625 3174.32421875 L 2743 3174.32421875 L 2743 3257.636474609375 L 2702.04541015625 3257.636474609375 L 2702.04541015625 3174.32421875" fill-opacity="1" clip-path="url(#DTMvEOTLsNGf)" stroke-opacity="1" stroke-linejoin="bevel" stroke-miterlimit="10" stroke-dasharray=""/><path fill="rgb(31,119,180)" stroke="rgb(31,119,180)" paint-order="fill" d="M 2743 3186.792724609375 L 2783.95458984375 3186.792724609375 L 2783.95458984375 3257.636474609375 L 2743 3257.636474609375 L 2743 3186.792724609375" fill-opacity="1" clip-path="url(#DTMvEOTLsNGf)" stroke-opacity="1" stroke-linejoin="bevel" stroke-miterlimit="10" stroke-dasharray=""/><path fill="rgb(31,119,180)" stroke="rgb(31,119,180)" paint-order="fill" d="M 2783.95458984375 3186.96923828125 L 2824.9091796875 3186.96923828125 L 2824.9091796875 3257.636474609375 L 2783.95458984375 3257.636474609375 L 2783.95458984375 3186.96923828125" fill-opacity="1" clip-path="url(#DTMvEOTLsNGf)" stroke-opacity="1" stroke-linejoin="bevel" stroke-miterlimit="10" stroke-dasharray=""/><path fill="rgb(31,119,180)" stroke="rgb(31,119,180)" paint-order="fill" d="M 2824.9091796875 3198.6005859375 L 2865.863525390625 3198.6005859375 L 2865.863525390625 3257.636474609375 L 2824.9091796875 3257.636474609375 L 2824.9091796875 3198.6005859375" fill-opacity="1" clip-path="url(#DTMvEOTLsNGf)" stroke-opacity="1" stroke-linejoin="bevel" stroke-miterlimit="10" stroke-dasharray=""/><path fill="rgb(31,119,180)" stroke="rgb(31,119,180)" paint-order="fill" d="M 2865.863525390625 3195.323486328125 L 2906.818115234375 3195.323486328125 L 2906.818115234375 3257.636474609375 L 2865.863525390625 3257.636474609375 L 2865.863525390625 3195.323486328125" fill-opacity="1" clip-path="url(#DTMvEOTLsNGf)" stroke-opacity="1" stroke-linejoin="bevel" stroke-miterlimit="10" stroke-dasharray=""/><path fill="rgb(31,119,180)" stroke="rgb(31,119,180)" paint-order="fill" d="M 2906.818115234375 3188.07080078125 L 2947.772705078125 3188.07080078125 L 2947.772705078125 3257.636474609375 L 2906.818115234375 3257.636474609375 L 2906.818115234375 3188.07080078125" fill-opacity="1" clip-path="url(#DTMvEOTLsNGf)" stroke-opacity="1" stroke-linejoin="bevel" stroke-miterlimit="10" stroke-dasharray=""/><path fill="rgb(31,119,180)" stroke="rgb(31,119,180)" paint-order="fill" d="M 2947.772705078125 3192.986328125 L 2988.727294921875 3192.986328125 L 2988.727294921875 3257.636474609375 L 2947.772705078125 3257.636474609375 L 2947.772705078125 3192.986328125" fill-opacity="1" clip-path="url(#DTMvEOTLsNGf)" stroke-opacity="1" stroke-linejoin="bevel" stroke-miterlimit="10" stroke-dasharray=""/><path fill="rgb(31,119,180)" stroke="rgb(31,119,180)" paint-order="fill" d="M 2988.727294921875 3188.2255859375 L 3029.681884765625 3188.2255859375 L 3029.681884765625 3257.636474609375 L 2988.727294921875 3257.636474609375 L 2988.727294921875 3188.2255859375" fill-opacity="1" clip-path="url(#DTMvEOTLsNGf)" stroke-opacity="1" stroke-linejoin="bevel" stroke-miterlimit="10" stroke-dasharray=""/><path fill="rgb(31,119,180)" stroke="rgb(31,119,180)" paint-order="fill" d="M 3029.681884765625 3186.97412109375 L 3070.636474609375 3186.97412109375 L 3070.636474609375 3257.636474609375 L 3029.681884765625 3257.636474609375 L 3029.681884765625 3186.97412109375" fill-opacity="1" clip-path="url(#DTMvEOTLsNGf)" stroke-opacity="1" stroke-linejoin="bevel" stroke-miterlimit="10" stroke-dasharray=""/><path fill="rgb(31,119,180)" stroke="rgb(31,119,180)" paint-order="fill" d="M 3070.636474609375 3183.87451171875 L 3111.5908203125 3183.87451171875 L 3111.5908203125 3257.636474609375 L 3070.636474609375 3257.636474609375 L 3070.636474609375 3183.87451171875" fill-opacity="1" clip-path="url(#DTMvEOTLsNGf)" stroke-opacity="1" stroke-linejoin="bevel" stroke-miterlimit="10" stroke-dasharray=""/><path fill="rgb(31,119,180)" stroke="rgb(31,119,180)" paint-order="fill" d="M 3111.5908203125 3198.281982421875 L 3152.54541015625 3198.281982421875 L 3152.54541015625 3257.636474609375 L 3111.5908203125 3257.636474609375 L 3111.5908203125 3198.281982421875" fill-opacity="1" clip-path="url(#DTMvEOTLsNGf)" stroke-opacity="1" stroke-linejoin="bevel" stroke-miterlimit="10" stroke-dasharray=""/><path fill="rgb(31,119,180)" stroke="rgb(31,119,180)" paint-order="fill" d="M 3152.54541015625 3202.656005859375 L 3193.5 3202.656005859375 L 3193.5 3257.636474609375 L 3152.54541015625 3257.636474609375 L 3152.54541015625 3202.656005859375" fill-opacity="1" clip-path="url(#DTMvEOTLsNGf)" stroke-opacity="1" stroke-linejoin="bevel" stroke-miterlimit="10" stroke-dasharray=""/><path fill="rgb(31,119,180)" stroke="rgb(31,119,180)" paint-order="fill" d="M 3193.5 3202.65234375 L 3234.45458984375 3202.65234375 L 3234.45458984375 3257.636474609375 L 3193.5 3257.636474609375 L 3193.5 3202.65234375" fill-opacity="1" clip-path="url(#DTMvEOTLsNGf)" stroke-opacity="1" stroke-linejoin="bevel" stroke-miterlimit="10" stroke-dasharray=""/><path fill="rgb(31,119,180)" stroke="rgb(31,119,180)" paint-order="fill" d="M 3234.45458984375 3190.33642578125 L 3275.4091796875 3190.33642578125 L 3275.4091796875 3257.636474609375 L 3234.45458984375 3257.636474609375 L 3234.45458984375 3190.33642578125" fill-opacity="1" clip-path="url(#DTMvEOTLsNGf)" stroke-opacity="1" stroke-linejoin="bevel" stroke-miterlimit="10" stroke-dasharray=""/><path fill="rgb(31,119,180)" stroke="rgb(31,119,180)" paint-order="fill" d="M 3275.4091796875 3192.823974609375 L 3316.363525390625 3192.823974609375 L 3316.363525390625 3257.636474609375 L 3275.4091796875 3257.636474609375 L 3275.4091796875 3192.823974609375" fill-opacity="1" clip-path="url(#DTMvEOTLsNGf)" stroke-opacity="1" stroke-linejoin="bevel" stroke-miterlimit="10" stroke-dasharray=""/><path fill="rgb(31,119,180)" stroke="rgb(31,119,180)" paint-order="fill" d="M 3316.363525390625 3200.012451171875 L 3357.318115234375 3200.012451171875 L 3357.318115234375 3257.636474609375 L 3316.363525390625 3257.636474609375 L 3316.363525390625 3200.012451171875" fill-opacity="1" clip-path="url(#DTMvEOTLsNGf)" stroke-opacity="1" stroke-linejoin="bevel" stroke-miterlimit="10" stroke-dasharray=""/><path fill="rgb(31,119,180)" stroke="rgb(31,119,180)" paint-order="fill" d="M 3357.318115234375 3200.682861328125 L 3398.272705078125 3200.682861328125 L 3398.272705078125 3257.636474609375 L 3357.318115234375 3257.636474609375 L 3357.318115234375 3200.682861328125" fill-opacity="1" clip-path="url(#DTMvEOTLsNGf)" stroke-opacity="1" stroke-linejoin="bevel" stroke-miterlimit="10" stroke-dasharray=""/><path fill="rgb(31,119,180)" stroke="rgb(31,119,180)" paint-order="fill" d="M 3398.272705078125 3182.355224609375 L 3439.227294921875 3182.355224609375 L 3439.227294921875 3257.636474609375 L 3398.272705078125 3257.636474609375 L 3398.272705078125 3182.355224609375" fill-opacity="1" clip-path="url(#DTMvEOTLsNGf)" stroke-opacity="1" stroke-linejoin="bevel" stroke-miterlimit="10" stroke-dasharray=""/><path fill="rgb(31,119,180)" stroke="rgb(31,119,180)" paint-order="fill" d="M 3439.227294921875 3197.9140625 L 3480.181884765625 3197.9140625 L 3480.181884765625 3257.636474609375 L 3439.227294921875 3257.636474609375 L 3439.227294921875 3197.9140625" fill-opacity="1" clip-path="url(#DTMvEOTLsNGf)" stroke-opacity="1" stroke-linejoin="bevel" stroke-miterlimit="10" stroke-dasharray=""/><path fill="rgb(31,119,180)" stroke="rgb(31,119,180)" paint-order="fill" d="M 3480.181884765625 3202.980712890625 L 3521.136474609375 3202.980712890625 L 3521.136474609375 3257.636474609375 L 3480.181884765625 3257.636474609375 L 3480.181884765625 3202.980712890625" fill-opacity="1" clip-path="url(#DTMvEOTLsNGf)" stroke-opacity="1" stroke-linejoin="bevel" stroke-miterlimit="10" stroke-dasharray=""/><path fill="rgb(31,119,180)" stroke="rgb(31,119,180)" paint-order="fill" d="M 3521.136474609375 3188.384521484375 L 3562.0908203125 3188.384521484375 L 3562.0908203125 3257.636474609375 L 3521.136474609375 3257.636474609375 L 3521.136474609375 3188.384521484375" fill-opacity="1" clip-path="url(#DTMvEOTLsNGf)" stroke-opacity="1" stroke-linejoin="bevel" stroke-miterlimit="10" stroke-dasharray=""/><path fill="rgb(31,119,180)" stroke="rgb(31,119,180)" paint-order="fill" d="M 3562.0908203125 3199.714599609375 L 3603.04541015625 3199.714599609375 L 3603.04541015625 3257.636474609375 L 3562.0908203125 3257.636474609375 L 3562.0908203125 3199.714599609375" fill-opacity="1" clip-path="url(#DTMvEOTLsNGf)" stroke-opacity="1" stroke-linejoin="bevel" stroke-miterlimit="10" stroke-dasharray=""/><path fill="rgb(31,119,180)" stroke="rgb(31,119,180)" paint-order="fill" d="M 3603.04541015625 3192.04443359375 L 3644 3192.04443359375 L 3644 3257.636474609375 L 3603.04541015625 3257.636474609375 L 3603.04541015625 3192.04443359375" fill-opacity="1" clip-path="url(#DTMvEOTLsNGf)" stroke-opacity="1" stroke-linejoin="bevel" stroke-miterlimit="10" stroke-dasharray=""/><path fill="rgb(31,119,180)" stroke="rgb(31,119,180)" paint-order="fill" d="M 3644 3195.18994140625 L 3684.95458984375 3195.18994140625 L 3684.95458984375 3257.636474609375 L 3644 3257.636474609375 L 3644 3195.18994140625" fill-opacity="1" clip-path="url(#DTMvEOTLsNGf)" stroke-opacity="1" stroke-linejoin="bevel" stroke-miterlimit="10" stroke-dasharray=""/><path fill="rgb(31,119,180)" stroke="rgb(31,119,180)" paint-order="fill" d="M 3684.95458984375 3196.646240234375 L 3725.9091796875 3196.646240234375 L 3725.9091796875 3257.636474609375 L 3684.95458984375 3257.636474609375 L 3684.95458984375 3196.646240234375" fill-opacity="1" clip-path="url(#DTMvEOTLsNGf)" stroke-opacity="1" stroke-linejoin="bevel" stroke-miterlimit="10" stroke-dasharray=""/><path fill="rgb(31,119,180)" stroke="rgb(31,119,180)" paint-order="fill" d="M 3725.9091796875 3194.03271484375 L 3766.863525390625 3194.03271484375 L 3766.863525390625 3257.636474609375 L 3725.9091796875 3257.636474609375 L 3725.9091796875 3194.03271484375" fill-opacity="1" clip-path="url(#DTMvEOTLsNGf)" stroke-opacity="1" stroke-linejoin="bevel" stroke-miterlimit="10" stroke-dasharray=""/><path fill="rgb(31,119,180)" stroke="rgb(31,119,180)" paint-order="fill" d="M 3766.863525390625 3196.842529296875 L 3807.818115234375 3196.842529296875 L 3807.818115234375 3257.636474609375 L 3766.863525390625 3257.636474609375 L 3766.863525390625 3196.842529296875" fill-opacity="1" clip-path="url(#DTMvEOTLsNGf)" stroke-opacity="1" stroke-linejoin="bevel" stroke-miterlimit="10" stroke-dasharray=""/><path fill="rgb(31,119,180)" stroke="rgb(31,119,180)" paint-order="fill" d="M 3807.818115234375 3202.735595703125 L 3848.772705078125 3202.735595703125 L 3848.772705078125 3257.636474609375 L 3807.818115234375 3257.636474609375 L 3807.818115234375 3202.735595703125" fill-opacity="1" clip-path="url(#DTMvEOTLsNGf)" stroke-opacity="1" stroke-linejoin="bevel" stroke-miterlimit="10" stroke-dasharray=""/><path fill="rgb(31,119,180)" stroke="rgb(31,119,180)" paint-order="fill" d="M 3848.772705078125 3198.265869140625 L 3889.727294921875 3198.265869140625 L 3889.727294921875 3257.636474609375 L 3848.772705078125 3257.636474609375 L 3848.772705078125 3198.265869140625" fill-opacity="1" clip-path="url(#DTMvEOTLsNGf)" stroke-opacity="1" stroke-linejoin="bevel" stroke-miterlimit="10" stroke-dasharray=""/><path fill="rgb(31,119,180)" stroke="rgb(31,119,180)" paint-order="fill" d="M 3889.727294921875 3203.18359375 L 3930.681884765625 3203.18359375 L 3930.681884765625 3257.636474609375 L 3889.727294921875 3257.636474609375 L 3889.727294921875 3203.18359375" fill-opacity="1" clip-path="url(#DTMvEOTLsNGf)" stroke-opacity="1" stroke-linejoin="bevel" stroke-miterlimit="10" stroke-dasharray=""/><path fill="rgb(31,119,180)" stroke="rgb(31,119,180)" paint-order="fill" d="M 3930.681884765625 3189.776123046875 L 3971.636474609375 3189.776123046875 L 3971.636474609375 3257.636474609375 L 3930.681884765625 3257.636474609375 L 3930.681884765625 3189.776123046875" fill-opacity="1" clip-path="url(#DTMvEOTLsNGf)" stroke-opacity="1" stroke-linejoin="bevel" stroke-miterlimit="10" stroke-dasharray=""/><path fill="rgb(31,119,180)" stroke="rgb(31,119,180)" paint-order="fill" d="M 3971.636474609375 3196.615234375 L 4012.5908203125 3196.615234375 L 4012.5908203125 3257.636474609375 L 3971.636474609375 3257.636474609375 L 3971.636474609375 3196.615234375" fill-opacity="1" clip-path="url(#DTMvEOTLsNGf)" stroke-opacity="1" stroke-linejoin="bevel" stroke-miterlimit="10" stroke-dasharray=""/><path fill="rgb(31,119,180)" stroke="rgb(31,119,180)" paint-order="fill" d="M 4012.5908203125 3190.663330078125 L 4053.54541015625 3190.663330078125 L 4053.54541015625 3257.636474609375 L 4012.5908203125 3257.636474609375 L 4012.5908203125 3190.663330078125" fill-opacity="1" clip-path="url(#DTMvEOTLsNGf)" stroke-opacity="1" stroke-linejoin="bevel" stroke-miterlimit="10" stroke-dasharray=""/><path fill="rgb(31,119,180)" stroke="rgb(31,119,180)" paint-order="fill" d="M 4053.54541015625 3197.738037109375 L 4094.5 3197.738037109375 L 4094.5 3257.636474609375 L 4053.54541015625 3257.636474609375 L 4053.54541015625 3197.738037109375" fill-opacity="1" clip-path="url(#DTMvEOTLsNGf)" stroke-opacity="1" stroke-linejoin="bevel" stroke-miterlimit="10" stroke-dasharray=""/><path fill="rgb(31,119,180)" stroke="rgb(31,119,180)" paint-order="fill" d="M 4094.5 3184.36962890625 L 4135.45458984375 3184.36962890625 L 4135.45458984375 3257.636474609375 L 4094.5 3257.636474609375 L 4094.5 3184.36962890625" fill-opacity="1" clip-path="url(#DTMvEOTLsNGf)" stroke-opacity="1" stroke-linejoin="bevel" stroke-miterlimit="10" stroke-dasharray=""/><path fill="rgb(31,119,180)" stroke="rgb(31,119,180)" paint-order="fill" d="M 4135.45458984375 3191.589111328125 L 4176.4091796875 3191.589111328125 L 4176.4091796875 3257.636474609375 L 4135.45458984375 3257.636474609375 L 4135.45458984375 3191.589111328125" fill-opacity="1" clip-path="url(#DTMvEOTLsNGf)" stroke-opacity="1" stroke-linejoin="bevel" stroke-miterlimit="10" stroke-dasharray=""/><path fill="rgb(31,119,180)" stroke="rgb(31,119,180)" paint-order="fill" d="M 4176.4091796875 3192.83984375 L 4217.36376953125 3192.83984375 L 4217.36376953125 3257.636474609375 L 4176.4091796875 3257.636474609375 L 4176.4091796875 3192.83984375" fill-opacity="1" clip-path="url(#DTMvEOTLsNGf)" stroke-opacity="1" stroke-linejoin="bevel" stroke-miterlimit="10" stroke-dasharray=""/><path fill="rgb(31,119,180)" stroke="rgb(31,119,180)" paint-order="fill" d="M 4217.36376953125 3186.56591796875 L 4258.318359375 3186.56591796875 L 4258.318359375 3257.636474609375 L 4217.36376953125 3257.636474609375 L 4217.36376953125 3186.56591796875" fill-opacity="1" clip-path="url(#DTMvEOTLsNGf)" stroke-opacity="1" stroke-linejoin="bevel" stroke-miterlimit="10" stroke-dasharray=""/><path fill="rgb(31,119,180)" stroke="rgb(31,119,180)" paint-order="fill" d="M 4258.318359375 3188.541015625 L 4299.27294921875 3188.541015625 L 4299.27294921875 3257.636474609375 L 4258.318359375 3257.636474609375 L 4258.318359375 3188.541015625" fill-opacity="1" clip-path="url(#DTMvEOTLsNGf)" stroke-opacity="1" stroke-linejoin="bevel" stroke-miterlimit="10" stroke-dasharray=""/><path fill="rgb(31,119,180)" stroke="rgb(31,119,180)" paint-order="fill" d="M 4299.27294921875 3182.76513671875 L 4340.22705078125 3182.76513671875 L 4340.22705078125 3257.636474609375 L 4299.27294921875 3257.636474609375 L 4299.27294921875 3182.76513671875" fill-opacity="1" clip-path="url(#DTMvEOTLsNGf)" stroke-opacity="1" stroke-linejoin="bevel" stroke-miterlimit="10" stroke-dasharray=""/><path fill="rgb(31,119,180)" stroke="rgb(31,119,180)" paint-order="fill" d="M 4340.22705078125 3174.048583984375 L 4381.181640625 3174.048583984375 L 4381.181640625 3257.636474609375 L 4340.22705078125 3257.636474609375 L 4340.22705078125 3174.048583984375" fill-opacity="1" clip-path="url(#DTMvEOTLsNGf)" stroke-opacity="1" stroke-linejoin="bevel" stroke-miterlimit="10" stroke-dasharray=""/><path fill="rgb(31,119,180)" stroke="rgb(31,119,180)" paint-order="fill" d="M 4381.181640625 3187.63037109375 L 4422.13623046875 3187.63037109375 L 4422.13623046875 3257.636474609375 L 4381.181640625 3257.636474609375 L 4381.181640625 3187.63037109375" fill-opacity="1" clip-path="url(#DTMvEOTLsNGf)" stroke-opacity="1" stroke-linejoin="bevel" stroke-miterlimit="10" stroke-dasharray=""/><path fill="rgb(31,119,180)" stroke="rgb(31,119,180)" paint-order="fill" d="M 4422.13623046875 3178.83935546875 L 4463.0908203125 3178.83935546875 L 4463.0908203125 3257.636474609375 L 4422.13623046875 3257.636474609375 L 4422.13623046875 3178.83935546875" fill-opacity="1" clip-path="url(#DTMvEOTLsNGf)" stroke-opacity="1" stroke-linejoin="bevel" stroke-miterlimit="10" stroke-dasharray=""/><path fill="rgb(31,119,180)" stroke="rgb(31,119,180)" paint-order="fill" d="M 4463.0908203125 3160.9697265625 L 4504.04541015625 3160.9697265625 L 4504.04541015625 3257.636474609375 L 4463.0908203125 3257.636474609375 L 4463.0908203125 3160.9697265625" fill-opacity="1" clip-path="url(#DTMvEOTLsNGf)" stroke-opacity="1" stroke-linejoin="bevel" stroke-miterlimit="10" stroke-dasharray=""/><path fill="rgb(31,119,180)" stroke="rgb(31,119,180)" paint-order="fill" d="M 4504.04541015625 3168.09521484375 L 4545 3168.09521484375 L 4545 3257.636474609375 L 4504.04541015625 3257.636474609375 L 4504.04541015625 3168.09521484375" fill-opacity="1" clip-path="url(#DTMvEOTLsNGf)" stroke-opacity="1" stroke-linejoin="bevel" stroke-miterlimit="10" stroke-dasharray=""/><path fill="rgb(31,119,180)" stroke="rgb(31,119,180)" paint-order="fill" d="M 4545 3160.380859375 L 4585.95458984375 3160.380859375 L 4585.95458984375 3257.636474609375 L 4545 3257.636474609375 L 4545 3160.380859375" fill-opacity="1" clip-path="url(#DTMvEOTLsNGf)" stroke-opacity="1" stroke-linejoin="bevel" stroke-miterlimit="10" stroke-dasharray=""/><path fill="rgb(31,119,180)" stroke="rgb(31,119,180)" paint-order="fill" d="M 4585.95458984375 3151.751953125 L 4626.9091796875 3151.751953125 L 4626.9091796875 3257.636474609375 L 4585.95458984375 3257.636474609375 L 4585.95458984375 3151.751953125" fill-opacity="1" clip-path="url(#DTMvEOTLsNGf)" stroke-opacity="1" stroke-linejoin="bevel" stroke-miterlimit="10" stroke-dasharray=""/><path fill="rgb(31,119,180)" stroke="rgb(31,119,180)" paint-order="fill" d="M 4626.9091796875 3135.23876953125 L 4667.86376953125 3135.23876953125 L 4667.86376953125 3257.636474609375 L 4626.9091796875 3257.636474609375 L 4626.9091796875 3135.23876953125" fill-opacity="1" clip-path="url(#DTMvEOTLsNGf)" stroke-opacity="1" stroke-linejoin="bevel" stroke-miterlimit="10" stroke-dasharray=""/><path fill="rgb(31,119,180)" stroke="rgb(31,119,180)" paint-order="fill" d="M 4667.86376953125 3122.3056640625 L 4708.818359375 3122.3056640625 L 4708.818359375 3257.636474609375 L 4667.86376953125 3257.636474609375 L 4667.86376953125 3122.3056640625" fill-opacity="1" clip-path="url(#DTMvEOTLsNGf)" stroke-opacity="1" stroke-linejoin="bevel" stroke-miterlimit="10" stroke-dasharray=""/><path fill="rgb(31,119,180)" stroke="rgb(31,119,180)" paint-order="fill" d="M 4708.818359375 3036.7861328125 L 4749.77294921875 3036.7861328125 L 4749.77294921875 3257.636474609375 L 4708.818359375 3257.636474609375 L 4708.818359375 3036.7861328125" fill-opacity="1" clip-path="url(#DTMvEOTLsNGf)" stroke-opacity="1" stroke-linejoin="bevel" stroke-miterlimit="10" stroke-dasharray=""/><path fill="rgb(31,119,180)" stroke="rgb(31,119,180)" paint-order="fill" d="M 4749.77294921875 160.36363220214844 L 4790.72705078125 160.36363220214844 L 4790.72705078125 3257.636474609375 L 4749.77294921875 3257.636474609375 L 4749.77294921875 160.36363220214844" fill-opacity="1" clip-path="url(#DTMvEOTLsNGf)" stroke-opacity="1" stroke-linejoin="bevel" stroke-miterlimit="10" stroke-dasharray=""/><path fill="none" stroke="rgb(0,0,0)" paint-order="fill" d="M 490.5 3412.5 L 4995.5 3412.5" stroke-opacity="1" stroke-linejoin="bevel" stroke-miterlimit="10" stroke-width="4" stroke-dasharray=""/><path fill="none" stroke="rgb(0,0,0)" paint-order="fill" d="M 695.5 3437.5 L 695.5 3404.5 M 1514.5 3437.5 L 1514.5 3404.5 M 2333.5 3437.5 L 2333.5 3404.5 M 3152.5 3437.5 L 3152.5 3404.5 M 3971.5 3437.5 L 3971.5 3404.5 M 4790.5 3437.5 L 4790.5 3404.5" stroke-opacity="1" stroke-linejoin="bevel" stroke-miterlimit="10" stroke-width="4" stroke-dasharray=""/><path fill="none" stroke="rgb(0,0,0)" paint-order="fill" d="M 531.5 3428.5 L 531.5 3412.5 M 695.5 3428.5 L 695.5 3412.5 M 859.5 3428.5 L 859.5 3412.5 M 1022.5 3428.5 L 1022.5 3412.5 M 1186.5 3428.5 L 1186.5 3412.5 M 1350.5 3428.5 L 1350.5 3412.5 M 1514.5 3428.5 L 1514.5 3412.5 M 1678.5 3428.5 L 1678.5 3412.5 M 1842.5 3428.5 L 1842.5 3412.5 M 2005.5 3428.5 L 2005.5 3412.5 M 2169.5 3428.5 L 2169.5 3412.5 M 2333.5 3428.5 L 2333.5 3412.5 M 2497.5 3428.5 L 2497.5 3412.5 M 2661.5 3428.5 L 2661.5 3412.5 M 2824.5 3428.5 L 2824.5 3412.5 M 2988.5 3428.5 L 2988.5 3412.5 M 3152.5 3428.5 L 3152.5 3412.5 M 3316.5 3428.5 L 3316.5 3412.5 M 3480.5 3428.5 L 3480.5 3412.5 M 3644.5 3428.5 L 3644.5 3412.5 M 3807.5 3428.5 L 3807.5 3412.5 M 3971.5 3428.5 L 3971.5 3412.5 M 4135.5 3428.5 L 4135.5 3412.5 M 4299.5 3428.5 L 4299.5 3412.5 M 4463.5 3428.5 L 4463.5 3412.5 M 4626.5 3428.5 L 4626.5 3412.5 M 4790.5 3428.5 L 4790.5 3412.5 M 4954.5 3428.5 L 4954.5 3412.5" stroke-opacity="1" stroke-linejoin="bevel" stroke-miterlimit="10" stroke-width="4" stroke-dasharray=""/><text fill="rgb(68,68,68)" stroke="none" font-family="helvetica" font-size="125px" font-style="normal" font-weight="normal" text-decoration="normal" x="660.022705078125" y="3548" text-anchor="start" dominant-baseline="alphabetic" transform="matrix(1, 0, 0, 1, 0.5, 0.5)" fill-opacity="1">0</text><text fill="rgb(68,68,68)" stroke="none" font-family="helvetica" font-size="125px" font-style="normal" font-weight="normal" text-decoration="normal" x="1426.9886474609375" y="3548" text-anchor="start" dominant-baseline="alphabetic" transform="matrix(1, 0, 0, 1, 0.5, 0.5)" fill-opacity="1">0.2</text><text fill="rgb(68,68,68)" stroke="none" font-family="helvetica" font-size="125px" font-style="normal" font-weight="normal" text-decoration="normal" x="2246.07958984375" y="3548" text-anchor="start" dominant-baseline="alphabetic" transform="matrix(1, 0, 0, 1, 0.5, 0.5)" fill-opacity="1">0.4</text><text fill="rgb(68,68,68)" stroke="none" font-family="helvetica" font-size="125px" font-style="normal" font-weight="normal" text-decoration="normal" x="3065.17041015625" y="3548" text-anchor="start" dominant-baseline="alphabetic" transform="matrix(1, 0, 0, 1, 0.5, 0.5)" fill-opacity="1">0.6</text><text fill="rgb(68,68,68)" stroke="none" font-family="helvetica" font-size="125px" font-style="normal" font-weight="normal" text-decoration="normal" x="3884.261474609375" y="3548" text-anchor="start" dominant-baseline="alphabetic" transform="matrix(1, 0, 0, 1, 0.5, 0.5)" fill-opacity="1">0.8</text><text fill="rgb(68,68,68)" stroke="none" font-family="helvetica" font-size="125px" font-style="normal" font-weight="normal" text-decoration="normal" x="4755.47705078125" y="3548" text-anchor="start" dominant-baseline="alphabetic" transform="matrix(1, 0, 0, 1, 0.5, 0.5)" fill-opacity="1">1</text><text fill="rgb(68,68,68)" stroke="none" font-family="helvetica" font-size="150px" font-style="italic" font-weight="normal" text-decoration="normal" x="2638.324996948242" y="3714" text-anchor="start" dominant-baseline="alphabetic" transform="matrix(1, 0, 0, 1, 0.5, 0.5)" fill-opacity="1">CP</text><path fill="none" stroke="rgb(0,0,0)" paint-order="fill" d="M 490.5 3412.5 L 490.5 5.5" stroke-opacity="1" stroke-linejoin="bevel" stroke-miterlimit="10" stroke-width="4" stroke-dasharray=""/><path fill="none" stroke="rgb(0,0,0)" paint-order="fill" d="M 465.5 3257.5 L 498.5 3257.5 M 465.5 2782.5 L 498.5 2782.5 M 465.5 2307.5 L 498.5 2307.5 M 465.5 1832.5 L 498.5 1832.5 M 465.5 1357.5 L 498.5 1357.5 M 465.5 883.5 L 498.5 883.5 M 465.5 408.5 L 498.5 408.5" stroke-opacity="1" stroke-linejoin="bevel" stroke-miterlimit="10" stroke-width="4" stroke-dasharray=""/><path fill="none" stroke="rgb(0,0,0)" paint-order="fill" d="M 474.5 3352.5 L 490.5 3352.5 M 474.5 3257.5 L 490.5 3257.5 M 474.5 3162.5 L 490.5 3162.5 M 474.5 3067.5 L 490.5 3067.5 M 474.5 2972.5 L 490.5 2972.5 M 474.5 2877.5 L 490.5 2877.5 M 474.5 2782.5 L 490.5 2782.5 M 474.5 2687.5 L 490.5 2687.5 M 474.5 2592.5 L 490.5 2592.5 M 474.5 2497.5 L 490.5 2497.5 M 474.5 2402.5 L 490.5 2402.5 M 474.5 2307.5 L 490.5 2307.5 M 474.5 2212.5 L 490.5 2212.5 M 474.5 2117.5 L 490.5 2117.5 M 474.5 2022.5 L 490.5 2022.5 M 474.5 1927.5 L 490.5 1927.5 M 474.5 1832.5 L 490.5 1832.5 M 474.5 1737.5 L 490.5 1737.5 M 474.5 1642.5 L 490.5 1642.5 M 474.5 1547.5 L 490.5 1547.5 M 474.5 1452.5 L 490.5 1452.5 M 474.5 1357.5 L 490.5 1357.5 M 474.5 1262.5 L 490.5 1262.5 M 474.5 1167.5 L 490.5 1167.5 M 474.5 1072.5 L 490.5 1072.5 M 474.5 977.5 L 490.5 977.5 M 474.5 883.5 L 490.5 883.5 M 474.5 788.5 L 490.5 788.5 M 474.5 693.5 L 490.5 693.5 M 474.5 598.5 L 490.5 598.5 M 474.5 503.5 L 490.5 503.5 M 474.5 408.5 L 490.5 408.5 M 474.5 313.5 L 490.5 313.5 M 474.5 218.5 L 490.5 218.5 M 474.5 123.5 L 490.5 123.5 M 474.5 28.5 L 490.5 28.5" stroke-opacity="1" stroke-linejoin="bevel" stroke-miterlimit="10" stroke-width="4" stroke-dasharray=""/><text fill="rgb(68,68,68)" stroke="none" font-family="helvetica" font-size="125px" font-style="normal" font-weight="normal" text-decoration="normal" x="375.5" y="3302.636474609375" text-anchor="start" dominant-baseline="alphabetic" transform="matrix(1, 0, 0, 1, 0.5, 0.5)" fill-opacity="1">0</text><text fill="rgb(68,68,68)" stroke="none" font-family="helvetica" font-size="125px" font-style="normal" font-weight="normal" text-decoration="normal" x="201.75" y="2827.70947265625" text-anchor="start" dominant-baseline="alphabetic" transform="matrix(1, 0, 0, 1, 0.5, 0.5)" fill-opacity="1">0.02</text><text fill="rgb(68,68,68)" stroke="none" font-family="helvetica" font-size="125px" font-style="normal" font-weight="normal" text-decoration="normal" x="201.75" y="2352.782470703125" text-anchor="start" dominant-baseline="alphabetic" transform="matrix(1, 0, 0, 1, 0.5, 0.5)" fill-opacity="1">0.04</text><text fill="rgb(68,68,68)" stroke="none" font-family="helvetica" font-size="125px" font-style="normal" font-weight="normal" text-decoration="normal" x="201.75" y="1877.8555908203125" text-anchor="start" dominant-baseline="alphabetic" transform="matrix(1, 0, 0, 1, 0.5, 0.5)" fill-opacity="1">0.06</text><text fill="rgb(68,68,68)" stroke="none" font-family="helvetica" font-size="125px" font-style="normal" font-weight="normal" text-decoration="normal" x="201.75" y="1402.9287109375" text-anchor="start" dominant-baseline="alphabetic" transform="matrix(1, 0, 0, 1, 0.5, 0.5)" fill-opacity="1">0.08</text><text fill="rgb(68,68,68)" stroke="none" font-family="helvetica" font-size="125px" font-style="normal" font-weight="normal" text-decoration="normal" x="271.25" y="928.0017700195312" text-anchor="start" dominant-baseline="alphabetic" transform="matrix(1, 0, 0, 1, 0.5, 0.5)" fill-opacity="1">0.1</text><text fill="rgb(68,68,68)" stroke="none" font-family="helvetica" font-size="125px" font-style="normal" font-weight="normal" text-decoration="normal" x="201.75" y="453.0748291015625" text-anchor="start" dominant-baseline="alphabetic" transform="matrix(1, 0, 0, 1, 0.5, 0.5)" fill-opacity="1">0.12</text><text fill="rgb(68,68,68)" stroke="none" font-family="helvetica" font-size="150px" font-style="italic" font-weight="normal" text-decoration="normal" x="-901.175048828125" y="1675.5" text-anchor="start" dominant-baseline="alphabetic" transform="matrix(6.123233995736766e-17, -1, 1, 6.123233995736766e-17, -1529.25, 1887.75)" fill-opacity="1">Fraction of total CP contributions</text></svg>