<svg version="1.1" xmlns="http://www.w3.org/2000/svg" width="3200" height="800"><defs><clipPath id="AUPvgTUHJVxo"><path fill="none" stroke="none" d="M 106.5 54.5 L 1580.5 54.5 L 1580.5 707.5 L 106.5 707.5 L 106.5 54.5"/></clipPath><clipPath id="QqZmhpRbPSsD"><path fill="none" stroke="none" d="M 106.5 54.5 L 1580.5 54.5 L 1580.5 707.5 L 106.5 707.5 L 106.5 54.5"/></clipPath><clipPath id="vgQgcsqoPGPE"><path fill="none" stroke="none" d="M 106.5 54.5 L 1580.5 54.5 L 1580.5 707.5 L 106.5 707.5 L 106.5 54.5"/></clipPath><clipPath id="WHbkaiaMHKNG"><path fill="none" stroke="none" d="M 106.5 54.5 L 1580.5 54.5 L 1580.5 707.5 L 106.5 707.5 L 106.5 54.5"/></clipPath><clipPath id="vXQlDqIRIhmL"><path fill="none" stroke="none" d="M 106.5 54.5 L 1580.5 54.5 L 1580.5 707.5 L 106.5 707.5 L 106.5 54.5"/></clipPath><clipPath id="qJOdhFgTIEZr"><path fill="none" stroke="none" d="M 106.5 54.5 L 1580.5 54.5 L 1580.5 707.5 L 106.5 707.5 L 106.5 54.5"/></clipPath><clipPath id="lGwTrfRtGXua"><path fill="none" stroke="none" d="M 20.5 54.5 L 1580.5 54.5 L 1580.5 707.5 L 20.5 707.5 L 20.5 54.5"/></clipPath><clipPath id="NTdCVgLAMRiF"><path fill="none" stroke="none" d="M 20.5 54.5 L 1580.5 54.5 L 1580.5 707.5 L 20.5 707.5 L 20.5 54.5"/></clipPath><clipPath id="xmcQFwGurAdH"><path fill="none" stroke="none" d="M 20.5 54.5 L 1580.5 54.5 L 1580.5 707.5 L 20.5 707.5 L 20.5 54.5"/></clipPath><clipPath id="vuVeaLXuQnOT"><path fill="none" stroke="none" d="M 20.5 54.5 L 1580.5 54.5 L 1580.5 707.5 L 20.5 707.5 L 20.5 54.5"/></clipPath><clipPath id="RgEwzHiQTbhU"><path fill="none" stroke="none" d="M 20.5 54.5 L 1580.5 54.5 L 1580.5 707.5 L 20.5 707.5 L 20.5 54.5"/></clipPath></defs><path fill="rgb(255,255,255)" stroke="none" paint-order="stroke" d="M 0.5 0.5 L 1600.5 0.5 L 1600.5 800.5 L 0.5 800.5 L 0.5 0.5" fill-opacity="1"/><rect fill="#FFFFFF" stroke="none" x="106" y="54" width="1474" height="653" transform="matrix(1, 0, 0, 1, 0.5, 0.5)"/><path fill="rgb(255,255,255)" stroke="none" paint-order="stroke" d="M 106.5 54.5 L 1580.5 54.5 L 1580.5 707.5 L 106.5 707.5 L 106.5 54.5" fill-opacity="1"/><path fill="none" stroke="rgb(229,229,229)" paint-order="fill" d="M 106.5 588.5 L 1580.5 588.5 M 106.5 470.5 L 1580.5 470.5 M 106.5 351.5 L 1580.5 351.5 M 106.5 232.5 L 1580.5 232.5 M 106.5 113.5 L 1580.5 113.5" stroke-opacity="1" stroke-linejoin="bevel" stroke-miterlimit="10" stroke-dasharray="" clip-path="url(#QqZmhpRbPSsD)"/><path fill="rgb(204,108,40)" stroke="rgb(31,119,180)" paint-order="fill" d="M 109.37890625 321.4423522949219 L 161.19921875 321.4423522949219 L 161.19921875 707.5 L 109.37890625 707.5 L 109.37890625 321.4423522949219" fill-opacity="0.7019607843137254" clip-path="url(#vgQgcsqoPGPE)" stroke-opacity="0.7019607843137254" stroke-linejoin="bevel" stroke-miterlimit="10" stroke-dasharray=""/><path fill="rgb(232,167,35)" stroke="rgb(31,119,180)" paint-order="fill" d="M 166.95703125 334.7515869140625 L 218.77734375 334.7515869140625 L 218.77734375 707.5 L 166.95703125 707.5 L 166.95703125 334.7515869140625" fill-opacity="0.7019607843137254" clip-path="url(#vgQgcsqoPGPE)" stroke-opacity="0.7019607843137254" stroke-linejoin="bevel" stroke-miterlimit="10" stroke-dasharray=""/><path fill="rgb(88,129,151)" stroke="rgb(31,119,180)" paint-order="fill" d="M 224.53515625 431.88311767578125 L 276.35546875 431.88311767578125 L 276.35546875 707.5 L 224.53515625 707.5 L 224.53515625 431.88311767578125" fill-opacity="0.7019607843137254" clip-path="url(#vgQgcsqoPGPE)" stroke-opacity="0.7019607843137254" stroke-linejoin="bevel" stroke-miterlimit="10" stroke-dasharray=""/><path fill="rgb(204,108,40)" stroke="rgb(31,119,180)" paint-order="fill" d="M 420.30078125 235.06434631347656 L 472.12109375 235.06434631347656 L 472.12109375 707.5 L 420.30078125 707.5 L 420.30078125 235.06434631347656" fill-opacity="0.7019607843137254" clip-path="url(#vgQgcsqoPGPE)" stroke-opacity="0.7019607843137254" stroke-linejoin="bevel" stroke-miterlimit="10" stroke-dasharray=""/><path fill="rgb(232,167,35)" stroke="rgb(31,119,180)" paint-order="fill" d="M 477.87890625 317.2609558105469 L 529.69921875 317.2609558105469 L 529.69921875 707.5 L 477.87890625 707.5 L 477.87890625 317.2609558105469" fill-opacity="0.7019607843137254" clip-path="url(#vgQgcsqoPGPE)" stroke-opacity="0.7019607843137254" stroke-linejoin="bevel" stroke-miterlimit="10" stroke-dasharray=""/><path fill="rgb(88,129,151)" stroke="rgb(31,119,180)" paint-order="fill" d="M 535.45703125 232.59091186523438 L 587.27734375 232.59091186523438 L 587.27734375 707.5 L 535.45703125 707.5 L 535.45703125 232.59091186523438" fill-opacity="0.7019607843137254" clip-path="url(#vgQgcsqoPGPE)" stroke-opacity="0.7019607843137254" stroke-linejoin="bevel" stroke-miterlimit="10" stroke-dasharray=""/><path fill="rgb(164,131,135)" stroke="rgb(31,119,180)" paint-order="fill" d="M 593.03515625 248.27186584472656 L 644.85546875 248.27186584472656 L 644.85546875 707.5 L 593.03515625 707.5 L 593.03515625 248.27186584472656" fill-opacity="0.7019607843137254" clip-path="url(#vgQgcsqoPGPE)" stroke-opacity="0.7019607843137254" stroke-linejoin="bevel" stroke-miterlimit="10" stroke-dasharray=""/><path fill="rgb(204,108,40)" stroke="rgb(31,119,180)" paint-order="fill" d="M 731.22265625 152.04100036621094 L 783.04296875 152.04100036621094 L 783.04296875 707.5 L 731.22265625 707.5 L 731.22265625 152.04100036621094" fill-opacity="0.7019607843137254" clip-path="url(#vgQgcsqoPGPE)" stroke-opacity="0.7019607843137254" stroke-linejoin="bevel" stroke-miterlimit="10" stroke-dasharray=""/><path fill="rgb(232,167,35)" stroke="rgb(31,119,180)" paint-order="fill" d="M 788.80078125 149.4818115234375 L 840.62109375 149.4818115234375 L 840.62109375 707.5 L 788.80078125 707.5 L 788.80078125 149.4818115234375" fill-opacity="0.7019607843137254" clip-path="url(#vgQgcsqoPGPE)" stroke-opacity="0.7019607843137254" stroke-linejoin="bevel" stroke-miterlimit="10" stroke-dasharray=""/><path fill="rgb(88,129,151)" stroke="rgb(31,119,180)" paint-order="fill" d="M 846.37890625 147.3079376220703 L 898.19921875 147.3079376220703 L 898.19921875 707.5 L 846.37890625 707.5 L 846.37890625 147.3079376220703" fill-opacity="0.7019607843137254" clip-path="url(#vgQgcsqoPGPE)" stroke-opacity="0.7019607843137254" stroke-linejoin="bevel" stroke-miterlimit="10" stroke-dasharray=""/><path fill="rgb(164,131,135)" stroke="rgb(31,119,180)" paint-order="fill" d="M 903.95703125 179.82322692871094 L 955.77734375 179.82322692871094 L 955.77734375 707.5 L 903.95703125 707.5 L 903.95703125 179.82322692871094" fill-opacity="0.7019607843137254" clip-path="url(#vgQgcsqoPGPE)" stroke-opacity="0.7019607843137254" stroke-linejoin="bevel" stroke-miterlimit="10" stroke-dasharray=""/><path fill="rgb(204,108,40)" stroke="rgb(31,119,180)" paint-order="fill" d="M 1042.14453125 120.97404479980469 L 1093.96484375 120.97404479980469 L 1093.96484375 707.5 L 1042.14453125 707.5 L 1042.14453125 120.97404479980469" fill-opacity="0.7019607843137254" clip-path="url(#vgQgcsqoPGPE)" stroke-opacity="0.7019607843137254" stroke-linejoin="bevel" stroke-miterlimit="10" stroke-dasharray=""/><path fill="rgb(232,167,35)" stroke="rgb(31,119,180)" paint-order="fill" d="M 1099.72265625 113.86363983154297 L 1151.54296875 113.86363983154297 L 1151.54296875 707.5 L 1099.72265625 707.5 L 1099.72265625 113.86363983154297" fill-opacity="0.7019607843137254" clip-path="url(#vgQgcsqoPGPE)" stroke-opacity="0.7019607843137254" stroke-linejoin="bevel" stroke-miterlimit="10" stroke-dasharray=""/><path fill="rgb(88,129,151)" stroke="rgb(31,119,180)" paint-order="fill" d="M 1157.30078125 113.86363983154297 L 1209.12109375 113.86363983154297 L 1209.12109375 707.5 L 1157.30078125 707.5 L 1157.30078125 113.86363983154297" fill-opacity="0.7019607843137254" clip-path="url(#vgQgcsqoPGPE)" stroke-opacity="0.7019607843137254" stroke-linejoin="bevel" stroke-miterlimit="10" stroke-dasharray=""/><path fill="rgb(164,131,135)" stroke="rgb(31,119,180)" paint-order="fill" d="M 1214.87890625 113.86363983154297 L 1266.69921875 113.86363983154297 L 1266.69921875 707.5 L 1214.87890625 707.5 L 1214.87890625 113.86363983154297" fill-opacity="0.7019607843137254" clip-path="url(#vgQgcsqoPGPE)" stroke-opacity="0.7019607843137254" stroke-linejoin="bevel" stroke-miterlimit="10" stroke-dasharray=""/><path fill="rgb(204,108,40)" stroke="rgb(31,119,180)" paint-order="fill" d="M 1353.06640625 114.59246826171875 L 1404.88671875 114.59246826171875 L 1404.88671875 707.5 L 1353.06640625 707.5 L 1353.06640625 114.59246826171875" fill-opacity="0.7019607843137254" clip-path="url(#vgQgcsqoPGPE)" stroke-opacity="0.7019607843137254" stroke-linejoin="bevel" stroke-miterlimit="10" stroke-dasharray=""/><path fill="rgb(232,167,35)" stroke="rgb(31,119,180)" paint-order="fill" d="M 1410.64453125 113.86363983154297 L 1462.46484375 113.86363983154297 L 1462.46484375 707.5 L 1410.64453125 707.5 L 1410.64453125 113.86363983154297" fill-opacity="0.7019607843137254" clip-path="url(#vgQgcsqoPGPE)" stroke-opacity="0.7019607843137254" stroke-linejoin="bevel" stroke-miterlimit="10" stroke-dasharray=""/><path fill="rgb(88,129,151)" stroke="rgb(31,119,180)" paint-order="fill" d="M 1468.22265625 113.86363983154297 L 1520.04296875 113.86363983154297 L 1520.04296875 707.5 L 1468.22265625 707.5 L 1468.22265625 113.86363983154297" fill-opacity="0.7019607843137254" clip-path="url(#vgQgcsqoPGPE)" stroke-opacity="0.7019607843137254" stroke-linejoin="bevel" stroke-miterlimit="10" stroke-dasharray=""/><path fill="rgb(164,131,135)" stroke="rgb(31,119,180)" paint-order="fill" d="M 1525.80078125 113.86363983154297 L 1577.62109375 113.86363983154297 L 1577.62109375 707.5 L 1525.80078125 707.5 L 1525.80078125 113.86363983154297" fill-opacity="0.7019607843137254" clip-path="url(#vgQgcsqoPGPE)" stroke-opacity="0.7019607843137254" stroke-linejoin="bevel" stroke-miterlimit="10" stroke-dasharray=""/><path fill="none" stroke="rgb(0,0,0)" paint-order="fill" d="M 106.5 707.5 L 1580.5 707.5" stroke-opacity="1" stroke-linejoin="bevel" stroke-miterlimit="10" stroke-dasharray=""/><path fill="none" stroke="rgb(0,0,0)" paint-order="fill" d="" stroke-opacity="1" stroke-linejoin="bevel" stroke-miterlimit="10" stroke-dasharray=""/><text fill="rgb(128,128,128)" stroke="none" font-family="helvetica" font-size="24px" font-style="normal" font-weight="bold" text-decoration="normal" x="176.45624923706055" y="742" text-anchor="start" dominant-baseline="alphabetic" transform="matrix(1, 0, 0, 1, 0.5, 0.5)" fill-opacity="1">[7.3, 10)</text><text fill="rgb(128,128,128)" stroke="none" font-family="helvetica" font-size="24px" font-style="normal" font-weight="bold" text-decoration="normal" x="490.7114601135254" y="742" text-anchor="start" dominant-baseline="alphabetic" transform="matrix(1, 0, 0, 1, 0.5, 0.5)" fill-opacity="1">[10, 20)</text><text fill="rgb(128,128,128)" stroke="none" font-family="helvetica" font-size="24px" font-style="normal" font-weight="bold" text-decoration="normal" x="801.6333351135254" y="742" text-anchor="start" dominant-baseline="alphabetic" transform="matrix(1, 0, 0, 1, 0.5, 0.5)" fill-opacity="1">[20, 40)</text><text fill="rgb(128,128,128)" stroke="none" font-family="helvetica" font-size="24px" font-style="normal" font-weight="bold" text-decoration="normal" x="1112.5552101135254" y="742" text-anchor="start" dominant-baseline="alphabetic" transform="matrix(1, 0, 0, 1, 0.5, 0.5)" fill-opacity="1">[40, 80)</text><text fill="rgb(128,128,128)" stroke="none" font-family="helvetica" font-size="24px" font-style="normal" font-weight="bold" text-decoration="normal" x="1422.0104179382324" y="742" text-anchor="start" dominant-baseline="alphabetic" transform="matrix(1, 0, 0, 1, 0.5, 0.5)" fill-opacity="1">[80, inf)</text><text fill="rgb(68,68,68)" stroke="none" font-family="helvetica" font-size="36px" font-style="italic" font-weight="normal" text-decoration="normal" x="700.9666595458984" y="789" text-anchor="start" dominant-baseline="alphabetic" transform="matrix(1, 0, 0, 1, 0.5, 0.5)" fill-opacity="1">Discovery p-value</text><path fill="none" stroke="rgb(211,211,211)" paint-order="fill" d="M 377.5 738.5 L 377.5 710.5 M 688.5 738.5 L 688.5 710.5 M 998.5 738.5 L 998.5 710.5 M 1309.5 738.5 L 1309.5 710.5" stroke-opacity="1" stroke-linejoin="bevel" stroke-miterlimit="10" stroke-width="2" stroke-dasharray=""/><path fill="none" stroke="rgb(0,0,0)" paint-order="fill" d="M 106.5 707.5 L 106.5 113.5" stroke-opacity="1" stroke-linejoin="bevel" stroke-miterlimit="10" stroke-dasharray=""/><path fill="none" stroke="rgb(0,0,0)" paint-order="fill" d="M 100.5 707.5 L 108.5 707.5 M 100.5 588.5 L 108.5 588.5 M 100.5 470.5 L 108.5 470.5 M 100.5 351.5 L 108.5 351.5 M 100.5 232.5 L 108.5 232.5 M 100.5 113.5 L 108.5 113.5" stroke-opacity="1" stroke-linejoin="bevel" stroke-miterlimit="10" stroke-dasharray=""/><text fill="rgb(68,68,68)" stroke="none" font-family="helvetica" font-size="30px" font-style="normal" font-weight="normal" text-decoration="normal" x="53.29999923706055" y="718" text-anchor="start" dominant-baseline="alphabetic" transform="matrix(1, 0, 0, 1, 0.5, 0.5)" fill-opacity="1">0.5</text><text fill="rgb(68,68,68)" stroke="none" font-family="helvetica" font-size="30px" font-style="normal" font-weight="normal" text-decoration="normal" x="53.29999923706055" y="599.272705078125" text-anchor="start" dominant-baseline="alphabetic" transform="matrix(1, 0, 0, 1, 0.5, 0.5)" fill-opacity="1">0.6</text><text fill="rgb(68,68,68)" stroke="none" font-family="helvetica" font-size="30px" font-style="normal" font-weight="normal" text-decoration="normal" x="53.29999923706055" y="480.5454406738281" text-anchor="start" dominant-baseline="alphabetic" transform="matrix(1, 0, 0, 1, 0.5, 0.5)" fill-opacity="1">0.7</text><text fill="rgb(68,68,68)" stroke="none" font-family="helvetica" font-size="30px" font-style="normal" font-weight="normal" text-decoration="normal" x="53.29999923706055" y="361.81817626953125" text-anchor="start" dominant-baseline="alphabetic" transform="matrix(1, 0, 0, 1, 0.5, 0.5)" fill-opacity="1">0.8</text><text fill="rgb(68,68,68)" stroke="none" font-family="helvetica" font-size="30px" font-style="normal" font-weight="normal" text-decoration="normal" x="53.29999923706055" y="243.09091186523438" text-anchor="start" dominant-baseline="alphabetic" transform="matrix(1, 0, 0, 1, 0.5, 0.5)" fill-opacity="1">0.9</text><text fill="rgb(68,68,68)" stroke="none" font-family="helvetica" font-size="30px" font-style="normal" font-weight="normal" text-decoration="normal" x="78.3166675567627" y="124.36363983154297" text-anchor="start" dominant-baseline="alphabetic" transform="matrix(1, 0, 0, 1, 0.5, 0.5)" fill-opacity="1">1</text><text fill="rgb(68,68,68)" stroke="none" font-family="helvetica" font-size="36px" font-style="italic" font-weight="normal" text-decoration="normal" x="-266.16667556762695" y="372.5" text-anchor="start" dominant-baseline="alphabetic" transform="matrix(6.123233995736766e-17, -1, 1, 6.123233995736766e-17, -334.70000076293945, 426.29999923706055)" fill-opacity="1">Percent loci with shared effect direction</text><path fill="rgb(255,255,255)" stroke="rgb(229,229,229)" paint-order="fill" d="M 116.5 64.5 L 535.5 64.5 L 535.5 209.5 L 116.5 209.5 L 116.5 64.5" fill-opacity="0.9490196078431372" clip-path="url(#WHbkaiaMHKNG)" stroke-opacity="0.5019607843137255" stroke-linejoin="bevel" stroke-miterlimit="10" stroke-dasharray=""/><g clip-path="url(#WHbkaiaMHKNG)"><text fill="rgb(68,68,68)" stroke="none" font-family="helvetica" font-size="24px" font-style="normal" font-weight="normal" text-decoration="normal" x="151" y="88.5" text-anchor="start" dominant-baseline="central" transform="matrix(1, 0, 0, 1, 0.5, 0.5)" fill-opacity="1">genome-wide significant STRs</text></g><path fill="rgb(204,108,40)" stroke="rgb(31,119,180)" paint-order="fill" d="M 128.5 76.5 L 144.5 76.5 L 144.5 92.5 L 128.5 92.5 L 128.5 76.5" fill-opacity="0.7019607843137254" clip-path="url(#WHbkaiaMHKNG)" stroke-opacity="0.7019607843137254" stroke-linejoin="bevel" stroke-miterlimit="10" stroke-dasharray=""/><g clip-path="url(#WHbkaiaMHKNG)"><text fill="rgb(68,68,68)" stroke="none" font-family="helvetica" font-size="24px" font-style="normal" font-weight="normal" text-decoration="normal" x="151" y="120.5" text-anchor="start" dominant-baseline="central" transform="matrix(1, 0, 0, 1, 0.5, 0.5)" fill-opacity="1">FINEMAP STRs with PIP &gt;= 0.8</text></g><path fill="rgb(232,167,35)" stroke="rgb(31,119,180)" paint-order="fill" d="M 128.5 108.5 L 144.5 108.5 L 144.5 124.5 L 128.5 124.5 L 128.5 108.5" fill-opacity="0.7019607843137254" clip-path="url(#WHbkaiaMHKNG)" stroke-opacity="0.7019607843137254" stroke-linejoin="bevel" stroke-miterlimit="10" stroke-dasharray=""/><g clip-path="url(#WHbkaiaMHKNG)"><text fill="rgb(68,68,68)" stroke="none" font-family="helvetica" font-size="24px" font-style="normal" font-weight="normal" text-decoration="normal" x="151" y="152.5" text-anchor="start" dominant-baseline="central" transform="matrix(1, 0, 0, 1, 0.5, 0.5)" fill-opacity="1">SuSiE STRs with max alpha &gt;= 0.8</text></g><path fill="rgb(88,129,151)" stroke="rgb(31,119,180)" paint-order="fill" d="M 128.5 140.5 L 144.5 140.5 L 144.5 156.5 L 128.5 156.5 L 128.5 140.5" fill-opacity="0.7019607843137254" clip-path="url(#WHbkaiaMHKNG)" stroke-opacity="0.7019607843137254" stroke-linejoin="bevel" stroke-miterlimit="10" stroke-dasharray=""/><g clip-path="url(#WHbkaiaMHKNG)"><text fill="rgb(68,68,68)" stroke="none" font-family="helvetica" font-size="24px" font-style="normal" font-weight="normal" text-decoration="normal" x="151" y="184.5" text-anchor="start" dominant-baseline="central" transform="matrix(1, 0, 0, 1, 0.5, 0.5)" fill-opacity="1">confidently fine-mapped STRs</text></g><path fill="rgb(164,131,135)" stroke="rgb(31,119,180)" paint-order="fill" d="M 128.5 172.5 L 144.5 172.5 L 144.5 188.5 L 128.5 188.5 L 128.5 172.5" fill-opacity="0.7019607843137254" clip-path="url(#WHbkaiaMHKNG)" stroke-opacity="0.7019607843137254" stroke-linejoin="bevel" stroke-miterlimit="10" stroke-dasharray=""/><g clip-path="url(#vXQlDqIRIhmL)"><text fill="rgb(0,0,0)" stroke="none" font-family="helvetica" font-size="20px" font-style="normal" font-weight="normal" text-decoration="normal" x="119.7890625" y="311.0060119628906" text-anchor="start" dominant-baseline="alphabetic" transform="matrix(1, 0, 0, 1, 0.5, 0.5)" fill-opacity="1">54k</text></g><g clip-path="url(#vXQlDqIRIhmL)"><text fill="rgb(0,0,0)" stroke="none" font-family="helvetica" font-size="20px" font-style="normal" font-weight="normal" text-decoration="normal" x="177.3671875" y="328.3152160644531" text-anchor="start" dominant-baseline="alphabetic" transform="matrix(1, 0, 0, 1, 0.5, 0.5)" fill-opacity="1">172</text></g><g clip-path="url(#vXQlDqIRIhmL)"><text fill="rgb(0,0,0)" stroke="none" font-family="helvetica" font-size="20px" font-style="normal" font-weight="normal" text-decoration="normal" x="234.9453125" y="425.4467468261719" text-anchor="start" dominant-baseline="alphabetic" transform="matrix(1, 0, 0, 1, 0.5, 0.5)" fill-opacity="1">56</text></g><g clip-path="url(#vXQlDqIRIhmL)"><text fill="rgb(0,0,0)" stroke="none" font-family="helvetica" font-size="20px" font-style="normal" font-weight="normal" text-decoration="normal" x="430.7109375" y="224.62799072265625" text-anchor="start" dominant-baseline="alphabetic" transform="matrix(1, 0, 0, 1, 0.5, 0.5)" fill-opacity="1">59k</text></g><g clip-path="url(#vXQlDqIRIhmL)"><text fill="rgb(0,0,0)" stroke="none" font-family="helvetica" font-size="20px" font-style="normal" font-weight="normal" text-decoration="normal" x="488.2890625" y="310.8245849609375" text-anchor="start" dominant-baseline="alphabetic" transform="matrix(1, 0, 0, 1, 0.5, 0.5)" fill-opacity="1">251</text></g><g clip-path="url(#vXQlDqIRIhmL)"><text fill="rgb(0,0,0)" stroke="none" font-family="helvetica" font-size="20px" font-style="normal" font-weight="normal" text-decoration="normal" x="545.8671875" y="226.154541015625" text-anchor="start" dominant-baseline="alphabetic" transform="matrix(1, 0, 0, 1, 0.5, 0.5)" fill-opacity="1">110</text></g><g clip-path="url(#vXQlDqIRIhmL)"><text fill="rgb(0,0,0)" stroke="none" font-family="helvetica" font-size="20px" font-style="normal" font-weight="normal" text-decoration="normal" x="603.4453125" y="241.83551025390625" text-anchor="start" dominant-baseline="alphabetic" transform="matrix(1, 0, 0, 1, 0.5, 0.5)" fill-opacity="1">53</text></g><g clip-path="url(#vXQlDqIRIhmL)"><text fill="rgb(0,0,0)" stroke="none" font-family="helvetica" font-size="20px" font-style="normal" font-weight="normal" text-decoration="normal" x="741.6328125" y="141.60464477539062" text-anchor="start" dominant-baseline="alphabetic" transform="matrix(1, 0, 0, 1, 0.5, 0.5)" fill-opacity="1">19k</text></g><g clip-path="url(#vXQlDqIRIhmL)"><text fill="rgb(0,0,0)" stroke="none" font-family="helvetica" font-size="20px" font-style="normal" font-weight="normal" text-decoration="normal" x="799.2109375" y="143.0454559326172" text-anchor="start" dominant-baseline="alphabetic" transform="matrix(1, 0, 0, 1, 0.5, 0.5)" fill-opacity="1">100</text></g><g clip-path="url(#vXQlDqIRIhmL)"><text fill="rgb(0,0,0)" stroke="none" font-family="helvetica" font-size="20px" font-style="normal" font-weight="normal" text-decoration="normal" x="856.7890625" y="140.87158203125" text-anchor="start" dominant-baseline="alphabetic" transform="matrix(1, 0, 0, 1, 0.5, 0.5)" fill-opacity="1">71</text></g><g clip-path="url(#vXQlDqIRIhmL)"><text fill="rgb(0,0,0)" stroke="none" font-family="helvetica" font-size="20px" font-style="normal" font-weight="normal" text-decoration="normal" x="914.3671875" y="173.38687133789062" text-anchor="start" dominant-baseline="alphabetic" transform="matrix(1, 0, 0, 1, 0.5, 0.5)" fill-opacity="1">36</text></g><g clip-path="url(#vXQlDqIRIhmL)"><text fill="rgb(0,0,0)" stroke="none" font-family="helvetica" font-size="20px" font-style="normal" font-weight="normal" text-decoration="normal" x="1052.5546875" y="110.53768157958984" text-anchor="start" dominant-baseline="alphabetic" transform="matrix(1, 0, 0, 1, 0.5, 0.5)" fill-opacity="1">7.2k</text></g><g clip-path="url(#vXQlDqIRIhmL)"><text fill="rgb(0,0,0)" stroke="none" font-family="helvetica" font-size="20px" font-style="normal" font-weight="normal" text-decoration="normal" x="1110.1328125" y="107.4272689819336" text-anchor="start" dominant-baseline="alphabetic" transform="matrix(1, 0, 0, 1, 0.5, 0.5)" fill-opacity="1">40</text></g><g clip-path="url(#vXQlDqIRIhmL)"><text fill="rgb(0,0,0)" stroke="none" font-family="helvetica" font-size="20px" font-style="normal" font-weight="normal" text-decoration="normal" x="1167.7109375" y="107.4272689819336" text-anchor="start" dominant-baseline="alphabetic" transform="matrix(1, 0, 0, 1, 0.5, 0.5)" fill-opacity="1">45</text></g><g clip-path="url(#vXQlDqIRIhmL)"><text fill="rgb(0,0,0)" stroke="none" font-family="helvetica" font-size="20px" font-style="normal" font-weight="normal" text-decoration="normal" x="1225.2890625" y="107.4272689819336" text-anchor="start" dominant-baseline="alphabetic" transform="matrix(1, 0, 0, 1, 0.5, 0.5)" fill-opacity="1">13</text></g><g clip-path="url(#vXQlDqIRIhmL)"><text fill="rgb(0,0,0)" stroke="none" font-family="helvetica" font-size="20px" font-style="normal" font-weight="normal" text-decoration="normal" x="1363.4765625" y="104.1561050415039" text-anchor="start" dominant-baseline="alphabetic" transform="matrix(1, 0, 0, 1, 0.5, 0.5)" fill-opacity="1">3.3k</text></g><g clip-path="url(#vXQlDqIRIhmL)"><text fill="rgb(0,0,0)" stroke="none" font-family="helvetica" font-size="20px" font-style="normal" font-weight="normal" text-decoration="normal" x="1421.0546875" y="107.4272689819336" text-anchor="start" dominant-baseline="alphabetic" transform="matrix(1, 0, 0, 1, 0.5, 0.5)" fill-opacity="1">37</text></g><g clip-path="url(#vXQlDqIRIhmL)"><text fill="rgb(0,0,0)" stroke="none" font-family="helvetica" font-size="20px" font-style="normal" font-weight="normal" text-decoration="normal" x="1478.6328125" y="107.4272689819336" text-anchor="start" dominant-baseline="alphabetic" transform="matrix(1, 0, 0, 1, 0.5, 0.5)" fill-opacity="1">47</text></g><g clip-path="url(#vXQlDqIRIhmL)"><text fill="rgb(0,0,0)" stroke="none" font-family="helvetica" font-size="20px" font-style="normal" font-weight="normal" text-decoration="normal" x="1536.2109375" y="107.4272689819336" text-anchor="start" dominant-baseline="alphabetic" transform="matrix(1, 0, 0, 1, 0.5, 0.5)" fill-opacity="1">12</text></g><text fill="rgb(68,68,68)" stroke="none" font-family="helvetica" font-size="36px" font-style="normal" font-weight="bold" text-decoration="normal" x="106" y="41" text-anchor="start" dominant-baseline="alphabetic" transform="matrix(1, 0, 0, 1, 0.5, 0.5)" fill-opacity="1">Irish</text><g transform="matrix(1, 0, 0, 1, 1600, 0)"><path fill="rgb(255,255,255)" stroke="none" paint-order="stroke" d="M 0.5 0.5 L 1600.5 0.5 L 1600.5 800.5 L 0.5 800.5 L 0.5 0.5" fill-opacity="1"/><rect fill="#FFFFFF" stroke="none" x="20" y="54" width="1560" height="653" transform="matrix(1, 0, 0, 1, 0.5, 0.5)"/><path fill="rgb(255,255,255)" stroke="none" paint-order="stroke" d="M 20.5 54.5 L 1580.5 54.5 L 1580.5 707.5 L 20.5 707.5 L 20.5 54.5" fill-opacity="1"/><path fill="none" stroke="rgb(229,229,229)" paint-order="fill" d="M 20.5 588.5 L 1580.5 588.5 M 20.5 470.5 L 1580.5 470.5 M 20.5 351.5 L 1580.5 351.5 M 20.5 232.5 L 1580.5 232.5 M 20.5 113.5 L 1580.5 113.5" stroke-opacity="1" stroke-linejoin="bevel" stroke-miterlimit="10" stroke-dasharray="" clip-path="url(#NTdCVgLAMRiF)"/><path fill="rgb(204,108,40)" stroke="rgb(31,119,180)" paint-order="fill" d="M 23.546875 303.72088623046875 L 78.390625 303.72088623046875 L 78.390625 707.5 L 23.546875 707.5 L 23.546875 303.72088623046875" fill-opacity="0.7019607843137254" clip-path="url(#xmcQFwGurAdH)" stroke-opacity="0.7019607843137254" stroke-linejoin="bevel" stroke-miterlimit="10" stroke-dasharray=""/><path fill="rgb(232,167,35)" stroke="rgb(31,119,180)" paint-order="fill" d="M 84.484375 355.4598388671875 L 139.328125 355.4598388671875 L 139.328125 707.5 L 84.484375 707.5 L 84.484375 355.4598388671875" fill-opacity="0.7019607843137254" clip-path="url(#xmcQFwGurAdH)" stroke-opacity="0.7019607843137254" stroke-linejoin="bevel" stroke-miterlimit="10" stroke-dasharray=""/><path fill="rgb(88,129,151)" stroke="rgb(31,119,180)" paint-order="fill" d="M 145.421875 410.68182373046875 L 200.265625 410.68182373046875 L 200.265625 707.5 L 145.421875 707.5 L 145.421875 410.68182373046875" fill-opacity="0.7019607843137254" clip-path="url(#xmcQFwGurAdH)" stroke-opacity="0.7019607843137254" stroke-linejoin="bevel" stroke-miterlimit="10" stroke-dasharray=""/><path fill="rgb(204,108,40)" stroke="rgb(31,119,180)" paint-order="fill" d="M 352.609375 219.73342895507812 L 407.453125 219.73342895507812 L 407.453125 707.5 L 352.609375 707.5 L 352.609375 219.73342895507812" fill-opacity="0.7019607843137254" clip-path="url(#xmcQFwGurAdH)" stroke-opacity="0.7019607843137254" stroke-linejoin="bevel" stroke-miterlimit="10" stroke-dasharray=""/><path fill="rgb(232,167,35)" stroke="rgb(31,119,180)" paint-order="fill" d="M 413.546875 251.03857421875 L 468.390625 251.03857421875 L 468.390625 707.5 L 413.546875 707.5 L 413.546875 251.03857421875" fill-opacity="0.7019607843137254" clip-path="url(#xmcQFwGurAdH)" stroke-opacity="0.7019607843137254" stroke-linejoin="bevel" stroke-miterlimit="10" stroke-dasharray=""/><path fill="rgb(88,129,151)" stroke="rgb(31,119,180)" paint-order="fill" d="M 474.484375 200.2107391357422 L 529.328125 200.2107391357422 L 529.328125 707.5 L 474.484375 707.5 L 474.484375 200.2107391357422" fill-opacity="0.7019607843137254" clip-path="url(#xmcQFwGurAdH)" stroke-opacity="0.7019607843137254" stroke-linejoin="bevel" stroke-miterlimit="10" stroke-dasharray=""/><path fill="rgb(164,131,135)" stroke="rgb(31,119,180)" paint-order="fill" d="M 535.421875 225.87049865722656 L 590.265625 225.87049865722656 L 590.265625 707.5 L 535.421875 707.5 L 535.421875 225.87049865722656" fill-opacity="0.7019607843137254" clip-path="url(#xmcQFwGurAdH)" stroke-opacity="0.7019607843137254" stroke-linejoin="bevel" stroke-miterlimit="10" stroke-dasharray=""/><path fill="rgb(204,108,40)" stroke="rgb(31,119,180)" paint-order="fill" d="M 681.671875 140.03709411621094 L 736.515625 140.03709411621094 L 736.515625 707.5 L 681.671875 707.5 L 681.671875 140.03709411621094" fill-opacity="0.7019607843137254" clip-path="url(#xmcQFwGurAdH)" stroke-opacity="0.7019607843137254" stroke-linejoin="bevel" stroke-miterlimit="10" stroke-dasharray=""/><path fill="rgb(232,167,35)" stroke="rgb(31,119,180)" paint-order="fill" d="M 742.609375 149.4818115234375 L 797.453125 149.4818115234375 L 797.453125 707.5 L 742.609375 707.5 L 742.609375 149.4818115234375" fill-opacity="0.7019607843137254" clip-path="url(#xmcQFwGurAdH)" stroke-opacity="0.7019607843137254" stroke-linejoin="bevel" stroke-miterlimit="10" stroke-dasharray=""/><path fill="rgb(88,129,151)" stroke="rgb(31,119,180)" paint-order="fill" d="M 803.546875 130.58578491210938 L 858.390625 130.58578491210938 L 858.390625 707.5 L 803.546875 707.5 L 803.546875 130.58578491210938" fill-opacity="0.7019607843137254" clip-path="url(#xmcQFwGurAdH)" stroke-opacity="0.7019607843137254" stroke-linejoin="bevel" stroke-miterlimit="10" stroke-dasharray=""/><path fill="rgb(164,131,135)" stroke="rgb(31,119,180)" paint-order="fill" d="M 864.484375 146.8434295654297 L 919.328125 146.8434295654297 L 919.328125 707.5 L 864.484375 707.5 L 864.484375 146.8434295654297" fill-opacity="0.7019607843137254" clip-path="url(#xmcQFwGurAdH)" stroke-opacity="0.7019607843137254" stroke-linejoin="bevel" stroke-miterlimit="10" stroke-dasharray=""/><path fill="rgb(204,108,40)" stroke="rgb(31,119,180)" paint-order="fill" d="M 1010.734375 115.68257904052734 L 1065.578125 115.68257904052734 L 1065.578125 707.5 L 1010.734375 707.5 L 1010.734375 115.68257904052734" fill-opacity="0.7019607843137254" clip-path="url(#xmcQFwGurAdH)" stroke-opacity="0.7019607843137254" stroke-linejoin="bevel" stroke-miterlimit="10" stroke-dasharray=""/><path fill="rgb(232,167,35)" stroke="rgb(31,119,180)" paint-order="fill" d="M 1071.671875 113.86363983154297 L 1126.515625 113.86363983154297 L 1126.515625 707.5 L 1071.671875 707.5 L 1071.671875 113.86363983154297" fill-opacity="0.7019607843137254" clip-path="url(#xmcQFwGurAdH)" stroke-opacity="0.7019607843137254" stroke-linejoin="bevel" stroke-miterlimit="10" stroke-dasharray=""/><path fill="rgb(88,129,151)" stroke="rgb(31,119,180)" paint-order="fill" d="M 1132.609375 113.86363983154297 L 1187.453125 113.86363983154297 L 1187.453125 707.5 L 1132.609375 707.5 L 1132.609375 113.86363983154297" fill-opacity="0.7019607843137254" clip-path="url(#xmcQFwGurAdH)" stroke-opacity="0.7019607843137254" stroke-linejoin="bevel" stroke-miterlimit="10" stroke-dasharray=""/><path fill="rgb(164,131,135)" stroke="rgb(31,119,180)" paint-order="fill" d="M 1193.546875 113.86363983154297 L 1248.390625 113.86363983154297 L 1248.390625 707.5 L 1193.546875 707.5 L 1193.546875 113.86363983154297" fill-opacity="0.7019607843137254" clip-path="url(#xmcQFwGurAdH)" stroke-opacity="0.7019607843137254" stroke-linejoin="bevel" stroke-miterlimit="10" stroke-dasharray=""/><path fill="rgb(204,108,40)" stroke="rgb(31,119,180)" paint-order="fill" d="M 1339.796875 113.86363983154297 L 1394.640625 113.86363983154297 L 1394.640625 707.5 L 1339.796875 707.5 L 1339.796875 113.86363983154297" fill-opacity="0.7019607843137254" clip-path="url(#xmcQFwGurAdH)" stroke-opacity="0.7019607843137254" stroke-linejoin="bevel" stroke-miterlimit="10" stroke-dasharray=""/><path fill="rgb(232,167,35)" stroke="rgb(31,119,180)" paint-order="fill" d="M 1400.734375 113.86363983154297 L 1455.578125 113.86363983154297 L 1455.578125 707.5 L 1400.734375 707.5 L 1400.734375 113.86363983154297" fill-opacity="0.7019607843137254" clip-path="url(#xmcQFwGurAdH)" stroke-opacity="0.7019607843137254" stroke-linejoin="bevel" stroke-miterlimit="10" stroke-dasharray=""/><path fill="rgb(88,129,151)" stroke="rgb(31,119,180)" paint-order="fill" d="M 1461.671875 113.86363983154297 L 1516.515625 113.86363983154297 L 1516.515625 707.5 L 1461.671875 707.5 L 1461.671875 113.86363983154297" fill-opacity="0.7019607843137254" clip-path="url(#xmcQFwGurAdH)" stroke-opacity="0.7019607843137254" stroke-linejoin="bevel" stroke-miterlimit="10" stroke-dasharray=""/><path fill="rgb(164,131,135)" stroke="rgb(31,119,180)" paint-order="fill" d="M 1522.609375 113.86363983154297 L 1577.453125 113.86363983154297 L 1577.453125 707.5 L 1522.609375 707.5 L 1522.609375 113.86363983154297" fill-opacity="0.7019607843137254" clip-path="url(#xmcQFwGurAdH)" stroke-opacity="0.7019607843137254" stroke-linejoin="bevel" stroke-miterlimit="10" stroke-dasharray=""/><path fill="none" stroke="rgb(0,0,0)" paint-order="fill" d="M 20.5 707.5 L 1580.5 707.5" stroke-opacity="1" stroke-linejoin="bevel" stroke-miterlimit="10" stroke-dasharray=""/><path fill="none" stroke="rgb(0,0,0)" paint-order="fill" d="" stroke-opacity="1" stroke-linejoin="bevel" stroke-miterlimit="10" stroke-dasharray=""/><text fill="rgb(128,128,128)" stroke="none" font-family="helvetica" font-size="24px" font-style="normal" font-weight="bold" text-decoration="normal" x="97.17499923706055" y="742" text-anchor="start" dominant-baseline="alphabetic" transform="matrix(1, 0, 0, 1, 0.5, 0.5)" fill-opacity="1">[7.3, 10)</text><text fill="rgb(128,128,128)" stroke="none" font-family="helvetica" font-size="24px" font-style="normal" font-weight="bold" text-decoration="normal" x="429.5708351135254" y="742" text-anchor="start" dominant-baseline="alphabetic" transform="matrix(1, 0, 0, 1, 0.5, 0.5)" fill-opacity="1">[10, 20)</text><text fill="rgb(128,128,128)" stroke="none" font-family="helvetica" font-size="24px" font-style="normal" font-weight="bold" text-decoration="normal" x="758.6333351135254" y="742" text-anchor="start" dominant-baseline="alphabetic" transform="matrix(1, 0, 0, 1, 0.5, 0.5)" fill-opacity="1">[20, 40)</text><text fill="rgb(128,128,128)" stroke="none" font-family="helvetica" font-size="24px" font-style="normal" font-weight="bold" text-decoration="normal" x="1087.6958351135254" y="742" text-anchor="start" dominant-baseline="alphabetic" transform="matrix(1, 0, 0, 1, 0.5, 0.5)" fill-opacity="1">[40, 80)</text><text fill="rgb(128,128,128)" stroke="none" font-family="helvetica" font-size="24px" font-style="normal" font-weight="bold" text-decoration="normal" x="1415.2916679382324" y="742" text-anchor="start" dominant-baseline="alphabetic" transform="matrix(1, 0, 0, 1, 0.5, 0.5)" fill-opacity="1">[80, inf)</text><text fill="rgb(68,68,68)" stroke="none" font-family="helvetica" font-size="36px" font-style="italic" font-weight="normal" text-decoration="normal" x="657.9666595458984" y="789" text-anchor="start" dominant-baseline="alphabetic" transform="matrix(1, 0, 0, 1, 0.5, 0.5)" fill-opacity="1">Discovery p-value</text><path fill="none" stroke="rgb(211,211,211)" paint-order="fill" d="M 306.5 738.5 L 306.5 710.5 M 635.5 738.5 L 635.5 710.5 M 965.5 738.5 L 965.5 710.5 M 1294.5 738.5 L 1294.5 710.5" stroke-opacity="1" stroke-linejoin="bevel" stroke-miterlimit="10" stroke-width="2" stroke-dasharray=""/><path fill="none" stroke="rgb(0,0,0)" paint-order="fill" d="M 20.5 707.5 L 20.5 113.5" stroke-opacity="1" stroke-linejoin="bevel" stroke-miterlimit="10" stroke-dasharray=""/><path fill="none" stroke="rgb(0,0,0)" paint-order="fill" d="M 14.5 707.5 L 22.5 707.5 M 14.5 588.5 L 22.5 588.5 M 14.5 470.5 L 22.5 470.5 M 14.5 351.5 L 22.5 351.5 M 14.5 232.5 L 22.5 232.5 M 14.5 113.5 L 22.5 113.5" stroke-opacity="1" stroke-linejoin="bevel" stroke-miterlimit="10" stroke-dasharray=""/><text fill="rgb(68,68,68)" stroke="none" font-family="helvetica" font-size="0px" font-style="normal" font-weight="normal" text-decoration="normal" x="9" y="707" text-anchor="start" dominant-baseline="alphabetic" transform="matrix(1, 0, 0, 1, 0.5, 0.5)" fill-opacity="1">0.5</text><text fill="rgb(68,68,68)" stroke="none" font-family="helvetica" font-size="0px" font-style="normal" font-weight="normal" text-decoration="normal" x="9" y="588.272705078125" text-anchor="start" dominant-baseline="alphabetic" transform="matrix(1, 0, 0, 1, 0.5, 0.5)" fill-opacity="1">0.6</text><text fill="rgb(68,68,68)" stroke="none" font-family="helvetica" font-size="0px" font-style="normal" font-weight="normal" text-decoration="normal" x="9" y="469.5454406738281" text-anchor="start" dominant-baseline="alphabetic" transform="matrix(1, 0, 0, 1, 0.5, 0.5)" fill-opacity="1">0.7</text><text fill="rgb(68,68,68)" stroke="none" font-family="helvetica" font-size="0px" font-style="normal" font-weight="normal" text-decoration="normal" x="9" y="350.81817626953125" text-anchor="start" dominant-baseline="alphabetic" transform="matrix(1, 0, 0, 1, 0.5, 0.5)" fill-opacity="1">0.8</text><text fill="rgb(68,68,68)" stroke="none" font-family="helvetica" font-size="0px" font-style="normal" font-weight="normal" text-decoration="normal" x="9" y="232.09091186523438" text-anchor="start" dominant-baseline="alphabetic" transform="matrix(1, 0, 0, 1, 0.5, 0.5)" fill-opacity="1">0.9</text><text fill="rgb(68,68,68)" stroke="none" font-family="helvetica" font-size="0px" font-style="normal" font-weight="normal" text-decoration="normal" x="9" y="113.36363983154297" text-anchor="start" dominant-baseline="alphabetic" transform="matrix(1, 0, 0, 1, 0.5, 0.5)" fill-opacity="1">1</text><g clip-path="url(#vuVeaLXuQnOT)"><text fill="rgb(0,0,0)" stroke="none" font-family="helvetica" font-size="20px" font-style="normal" font-weight="normal" text-decoration="normal" x="35.46875" y="293.2845458984375" text-anchor="start" dominant-baseline="alphabetic" transform="matrix(1, 0, 0, 1, 0.5, 0.5)" fill-opacity="1">54k</text></g><g clip-path="url(#vuVeaLXuQnOT)"><text fill="rgb(0,0,0)" stroke="none" font-family="helvetica" font-size="20px" font-style="normal" font-weight="normal" text-decoration="normal" x="96.40625" y="349.0234680175781" text-anchor="start" dominant-baseline="alphabetic" transform="matrix(1, 0, 0, 1, 0.5, 0.5)" fill-opacity="1">172</text></g><g clip-path="url(#vuVeaLXuQnOT)"><text fill="rgb(0,0,0)" stroke="none" font-family="helvetica" font-size="20px" font-style="normal" font-weight="normal" text-decoration="normal" x="157.34375" y="404.2454528808594" text-anchor="start" dominant-baseline="alphabetic" transform="matrix(1, 0, 0, 1, 0.5, 0.5)" fill-opacity="1">56</text></g><g clip-path="url(#vuVeaLXuQnOT)"><text fill="rgb(0,0,0)" stroke="none" font-family="helvetica" font-size="20px" font-style="normal" font-weight="normal" text-decoration="normal" x="364.53125" y="209.29705810546875" text-anchor="start" dominant-baseline="alphabetic" transform="matrix(1, 0, 0, 1, 0.5, 0.5)" fill-opacity="1">59k</text></g><g clip-path="url(#vuVeaLXuQnOT)"><text fill="rgb(0,0,0)" stroke="none" font-family="helvetica" font-size="20px" font-style="normal" font-weight="normal" text-decoration="normal" x="425.46875" y="244.60220336914062" text-anchor="start" dominant-baseline="alphabetic" transform="matrix(1, 0, 0, 1, 0.5, 0.5)" fill-opacity="1">251</text></g><g clip-path="url(#vuVeaLXuQnOT)"><text fill="rgb(0,0,0)" stroke="none" font-family="helvetica" font-size="20px" font-style="normal" font-weight="normal" text-decoration="normal" x="486.40625" y="193.77438354492188" text-anchor="start" dominant-baseline="alphabetic" transform="matrix(1, 0, 0, 1, 0.5, 0.5)" fill-opacity="1">110</text></g><g clip-path="url(#vuVeaLXuQnOT)"><text fill="rgb(0,0,0)" stroke="none" font-family="helvetica" font-size="20px" font-style="normal" font-weight="normal" text-decoration="normal" x="547.34375" y="219.4341278076172" text-anchor="start" dominant-baseline="alphabetic" transform="matrix(1, 0, 0, 1, 0.5, 0.5)" fill-opacity="1">53</text></g><g clip-path="url(#vuVeaLXuQnOT)"><text fill="rgb(0,0,0)" stroke="none" font-family="helvetica" font-size="20px" font-style="normal" font-weight="normal" text-decoration="normal" x="693.59375" y="129.60073852539062" text-anchor="start" dominant-baseline="alphabetic" transform="matrix(1, 0, 0, 1, 0.5, 0.5)" fill-opacity="1">19k</text></g><g clip-path="url(#vuVeaLXuQnOT)"><text fill="rgb(0,0,0)" stroke="none" font-family="helvetica" font-size="20px" font-style="normal" font-weight="normal" text-decoration="normal" x="754.53125" y="143.0454559326172" text-anchor="start" dominant-baseline="alphabetic" transform="matrix(1, 0, 0, 1, 0.5, 0.5)" fill-opacity="1">100</text></g><g clip-path="url(#vuVeaLXuQnOT)"><text fill="rgb(0,0,0)" stroke="none" font-family="helvetica" font-size="20px" font-style="normal" font-weight="normal" text-decoration="normal" x="815.46875" y="124.14942169189453" text-anchor="start" dominant-baseline="alphabetic" transform="matrix(1, 0, 0, 1, 0.5, 0.5)" fill-opacity="1">71</text></g><g clip-path="url(#vuVeaLXuQnOT)"><text fill="rgb(0,0,0)" stroke="none" font-family="helvetica" font-size="20px" font-style="normal" font-weight="normal" text-decoration="normal" x="876.40625" y="140.40707397460938" text-anchor="start" dominant-baseline="alphabetic" transform="matrix(1, 0, 0, 1, 0.5, 0.5)" fill-opacity="1">36</text></g><g clip-path="url(#vuVeaLXuQnOT)"><text fill="rgb(0,0,0)" stroke="none" font-family="helvetica" font-size="20px" font-style="normal" font-weight="normal" text-decoration="normal" x="1022.65625" y="105.2462158203125" text-anchor="start" dominant-baseline="alphabetic" transform="matrix(1, 0, 0, 1, 0.5, 0.5)" fill-opacity="1">7.2k</text></g><g clip-path="url(#vuVeaLXuQnOT)"><text fill="rgb(0,0,0)" stroke="none" font-family="helvetica" font-size="20px" font-style="normal" font-weight="normal" text-decoration="normal" x="1083.59375" y="107.4272689819336" text-anchor="start" dominant-baseline="alphabetic" transform="matrix(1, 0, 0, 1, 0.5, 0.5)" fill-opacity="1">40</text></g><g clip-path="url(#vuVeaLXuQnOT)"><text fill="rgb(0,0,0)" stroke="none" font-family="helvetica" font-size="20px" font-style="normal" font-weight="normal" text-decoration="normal" x="1144.53125" y="107.4272689819336" text-anchor="start" dominant-baseline="alphabetic" transform="matrix(1, 0, 0, 1, 0.5, 0.5)" fill-opacity="1">45</text></g><g clip-path="url(#vuVeaLXuQnOT)"><text fill="rgb(0,0,0)" stroke="none" font-family="helvetica" font-size="20px" font-style="normal" font-weight="normal" text-decoration="normal" x="1205.46875" y="107.4272689819336" text-anchor="start" dominant-baseline="alphabetic" transform="matrix(1, 0, 0, 1, 0.5, 0.5)" fill-opacity="1">13</text></g><g clip-path="url(#vuVeaLXuQnOT)"><text fill="rgb(0,0,0)" stroke="none" font-family="helvetica" font-size="20px" font-style="normal" font-weight="normal" text-decoration="normal" x="1351.71875" y="103.4272689819336" text-anchor="start" dominant-baseline="alphabetic" transform="matrix(1, 0, 0, 1, 0.5, 0.5)" fill-opacity="1">3.3k</text></g><g clip-path="url(#vuVeaLXuQnOT)"><text fill="rgb(0,0,0)" stroke="none" font-family="helvetica" font-size="20px" font-style="normal" font-weight="normal" text-decoration="normal" x="1412.65625" y="107.4272689819336" text-anchor="start" dominant-baseline="alphabetic" transform="matrix(1, 0, 0, 1, 0.5, 0.5)" fill-opacity="1">37</text></g><g clip-path="url(#vuVeaLXuQnOT)"><text fill="rgb(0,0,0)" stroke="none" font-family="helvetica" font-size="20px" font-style="normal" font-weight="normal" text-decoration="normal" x="1473.59375" y="107.4272689819336" text-anchor="start" dominant-baseline="alphabetic" transform="matrix(1, 0, 0, 1, 0.5, 0.5)" fill-opacity="1">47</text></g><g clip-path="url(#vuVeaLXuQnOT)"><text fill="rgb(0,0,0)" stroke="none" font-family="helvetica" font-size="20px" font-style="normal" font-weight="normal" text-decoration="normal" x="1534.53125" y="107.4272689819336" text-anchor="start" dominant-baseline="alphabetic" transform="matrix(1, 0, 0, 1, 0.5, 0.5)" fill-opacity="1">12</text></g><text fill="rgb(68,68,68)" stroke="none" font-family="helvetica" font-size="36px" font-style="normal" font-weight="bold" text-decoration="normal" x="20" y="41" text-anchor="start" dominant-baseline="alphabetic" transform="matrix(1, 0, 0, 1, 0.5, 0.5)" fill-opacity="1">White Other</text></g></svg>