<svg version="1.1" xmlns="http://www.w3.org/2000/svg" width="1200" height="900"><defs><clipPath id="DUnllUsrTgiD"><path fill="none" stroke="none" d="M 131.5 5.5 L 1195.5 5.5 L 1195.5 814.5 L 131.5 814.5 L 131.5 5.5"/></clipPath><clipPath id="vVWVpzNSqnAW"><path fill="none" stroke="none" d="M 131.5 5.5 L 1195.5 5.5 L 1195.5 814.5 L 131.5 814.5 L 131.5 5.5"/></clipPath><clipPath id="adbrPuPALzWo"><path fill="none" stroke="none" d="M 131.5 5.5 L 1195.5 5.5 L 1195.5 814.5 L 131.5 814.5 L 131.5 5.5"/></clipPath><clipPath id="NplXsTcfvUXs"><path fill="none" stroke="none" d="M 131.5 5.5 L 1195.5 5.5 L 1195.5 814.5 L 131.5 814.5 L 131.5 5.5"/></clipPath></defs><path fill="none" stroke="rgb(229,229,229)" paint-order="fill" d="M 131.5 5.5 L 1195.5 5.5 L 1195.5 814.5 L 131.5 814.5 L 131.5 5.5" stroke-opacity="1" stroke-linejoin="bevel" stroke-miterlimit="10" stroke-dasharray=""/><path fill="rgb(31,119,180)" stroke="rgb(31,119,180)" paint-order="fill" d="M 179.86363220214844 662.1263427734375 L 189.4405975341797 662.1263427734375 L 189.4405975341797 777.727294921875 L 179.86363220214844 777.727294921875 L 179.86363220214844 662.1263427734375" fill-opacity="1" clip-path="url(#adbrPuPALzWo)" stroke-opacity="1" stroke-linejoin="bevel" stroke-miterlimit="10" stroke-dasharray=""/><path fill="rgb(31,119,180)" stroke="rgb(31,119,180)" paint-order="fill" d="M 189.4405975341797 764.8109741210938 L 199.01754760742188 764.8109741210938 L 199.01754760742188 777.727294921875 L 189.4405975341797 777.727294921875 L 189.4405975341797 764.8109741210938" fill-opacity="1" clip-path="url(#adbrPuPALzWo)" stroke-opacity="1" stroke-linejoin="bevel" stroke-miterlimit="10" stroke-dasharray=""/><path fill="rgb(31,119,180)" stroke="rgb(31,119,180)" paint-order="fill" d="M 199.01754760742188 754.0904541015625 L 208.59451293945312 754.0904541015625 L 208.59451293945312 777.727294921875 L 199.01754760742188 777.727294921875 L 199.01754760742188 754.0904541015625" fill-opacity="1" clip-path="url(#adbrPuPALzWo)" stroke-opacity="1" stroke-linejoin="bevel" stroke-miterlimit="10" stroke-dasharray=""/><path fill="rgb(31,119,180)" stroke="rgb(31,119,180)" paint-order="fill" d="M 208.59451293945312 750.861328125 L 218.1714630126953 750.861328125 L 218.1714630126953 777.727294921875 L 208.59451293945312 777.727294921875 L 208.59451293945312 750.861328125" fill-opacity="1" clip-path="url(#adbrPuPALzWo)" stroke-opacity="1" stroke-linejoin="bevel" stroke-miterlimit="10" stroke-dasharray=""/><path fill="rgb(31,119,180)" stroke="rgb(31,119,180)" paint-order="fill" d="M 218.1714630126953 752.4113159179688 L 227.74842834472656 752.4113159179688 L 227.74842834472656 777.727294921875 L 218.1714630126953 777.727294921875 L 218.1714630126953 752.4113159179688" fill-opacity="1" clip-path="url(#adbrPuPALzWo)" stroke-opacity="1" stroke-linejoin="bevel" stroke-miterlimit="10" stroke-dasharray=""/><path fill="rgb(31,119,180)" stroke="rgb(31,119,180)" paint-order="fill" d="M 227.74842834472656 758.9986572265625 L 237.32537841796875 758.9986572265625 L 237.32537841796875 777.727294921875 L 227.74842834472656 777.727294921875 L 227.74842834472656 758.9986572265625" fill-opacity="1" clip-path="url(#adbrPuPALzWo)" stroke-opacity="1" stroke-linejoin="bevel" stroke-miterlimit="10" stroke-dasharray=""/><path fill="rgb(31,119,180)" stroke="rgb(31,119,180)" paint-order="fill" d="M 237.32537841796875 761.3235473632812 L 246.90234375 761.3235473632812 L 246.90234375 777.727294921875 L 237.32537841796875 777.727294921875 L 237.32537841796875 761.3235473632812" fill-opacity="1" clip-path="url(#adbrPuPALzWo)" stroke-opacity="1" stroke-linejoin="bevel" stroke-miterlimit="10" stroke-dasharray=""/><path fill="rgb(31,119,180)" stroke="rgb(31,119,180)" paint-order="fill" d="M 246.90234375 760.9360961914062 L 256.4792938232422 760.9360961914062 L 256.4792938232422 777.727294921875 L 246.90234375 777.727294921875 L 246.90234375 760.9360961914062" fill-opacity="1" clip-path="url(#adbrPuPALzWo)" stroke-opacity="1" stroke-linejoin="bevel" stroke-miterlimit="10" stroke-dasharray=""/><path fill="rgb(31,119,180)" stroke="rgb(31,119,180)" paint-order="fill" d="M 256.4792938232422 765.9734497070312 L 266.0562438964844 765.9734497070312 L 266.0562438964844 777.727294921875 L 256.4792938232422 777.727294921875 L 256.4792938232422 765.9734497070312" fill-opacity="1" clip-path="url(#adbrPuPALzWo)" stroke-opacity="1" stroke-linejoin="bevel" stroke-miterlimit="10" stroke-dasharray=""/><path fill="rgb(31,119,180)" stroke="rgb(31,119,180)" paint-order="fill" d="M 266.0562438964844 762.744384765625 L 275.6332092285156 762.744384765625 L 275.6332092285156 777.727294921875 L 266.0562438964844 777.727294921875 L 266.0562438964844 762.744384765625" fill-opacity="1" clip-path="url(#adbrPuPALzWo)" stroke-opacity="1" stroke-linejoin="bevel" stroke-miterlimit="10" stroke-dasharray=""/><path fill="rgb(31,119,180)" stroke="rgb(31,119,180)" paint-order="fill" d="M 275.6332092285156 766.3609008789062 L 285.2101745605469 766.3609008789062 L 285.2101745605469 777.727294921875 L 275.6332092285156 777.727294921875 L 275.6332092285156 766.3609008789062" fill-opacity="1" clip-path="url(#adbrPuPALzWo)" stroke-opacity="1" stroke-linejoin="bevel" stroke-miterlimit="10" stroke-dasharray=""/><path fill="rgb(31,119,180)" stroke="rgb(31,119,180)" paint-order="fill" d="M 285.2101745605469 766.2317504882812 L 294.7871398925781 766.2317504882812 L 294.7871398925781 777.727294921875 L 285.2101745605469 777.727294921875 L 285.2101745605469 766.2317504882812" fill-opacity="1" clip-path="url(#adbrPuPALzWo)" stroke-opacity="1" stroke-linejoin="bevel" stroke-miterlimit="10" stroke-dasharray=""/><path fill="rgb(31,119,180)" stroke="rgb(31,119,180)" paint-order="fill" d="M 294.7871398925781 766.3609008789062 L 304.36407470703125 766.3609008789062 L 304.36407470703125 777.727294921875 L 294.7871398925781 777.727294921875 L 294.7871398925781 766.3609008789062" fill-opacity="1" clip-path="url(#adbrPuPALzWo)" stroke-opacity="1" stroke-linejoin="bevel" stroke-miterlimit="10" stroke-dasharray=""/><path fill="rgb(31,119,180)" stroke="rgb(31,119,180)" paint-order="fill" d="M 304.36407470703125 768.0400390625 L 313.9410400390625 768.0400390625 L 313.9410400390625 777.727294921875 L 304.36407470703125 777.727294921875 L 304.36407470703125 768.0400390625" fill-opacity="1" clip-path="url(#adbrPuPALzWo)" stroke-opacity="1" stroke-linejoin="bevel" stroke-miterlimit="10" stroke-dasharray=""/><path fill="rgb(31,119,180)" stroke="rgb(31,119,180)" paint-order="fill" d="M 313.9410400390625 765.8442993164062 L 323.51800537109375 765.8442993164062 L 323.51800537109375 777.727294921875 L 313.9410400390625 777.727294921875 L 313.9410400390625 765.8442993164062" fill-opacity="1" clip-path="url(#adbrPuPALzWo)" stroke-opacity="1" stroke-linejoin="bevel" stroke-miterlimit="10" stroke-dasharray=""/><path fill="rgb(31,119,180)" stroke="rgb(31,119,180)" paint-order="fill" d="M 323.51800537109375 764.8109741210938 L 333.094970703125 764.8109741210938 L 333.094970703125 777.727294921875 L 323.51800537109375 777.727294921875 L 323.51800537109375 764.8109741210938" fill-opacity="1" clip-path="url(#adbrPuPALzWo)" stroke-opacity="1" stroke-linejoin="bevel" stroke-miterlimit="10" stroke-dasharray=""/><path fill="rgb(31,119,180)" stroke="rgb(31,119,180)" paint-order="fill" d="M 333.094970703125 767.6525268554688 L 342.6719055175781 767.6525268554688 L 342.6719055175781 777.727294921875 L 333.094970703125 777.727294921875 L 333.094970703125 767.6525268554688" fill-opacity="1" clip-path="url(#adbrPuPALzWo)" stroke-opacity="1" stroke-linejoin="bevel" stroke-miterlimit="10" stroke-dasharray=""/><path fill="rgb(31,119,180)" stroke="rgb(31,119,180)" paint-order="fill" d="M 342.6719055175781 767.78173828125 L 352.2488708496094 767.78173828125 L 352.2488708496094 777.727294921875 L 342.6719055175781 777.727294921875 L 342.6719055175781 767.78173828125" fill-opacity="1" clip-path="url(#adbrPuPALzWo)" stroke-opacity="1" stroke-linejoin="bevel" stroke-miterlimit="10" stroke-dasharray=""/><path fill="rgb(31,119,180)" stroke="rgb(31,119,180)" paint-order="fill" d="M 352.2488708496094 767.2650756835938 L 361.8258361816406 767.2650756835938 L 361.8258361816406 777.727294921875 L 352.2488708496094 777.727294921875 L 352.2488708496094 767.2650756835938" fill-opacity="1" clip-path="url(#adbrPuPALzWo)" stroke-opacity="1" stroke-linejoin="bevel" stroke-miterlimit="10" stroke-dasharray=""/><path fill="rgb(31,119,180)" stroke="rgb(31,119,180)" paint-order="fill" d="M 361.8258361816406 765.9734497070312 L 371.4028015136719 765.9734497070312 L 371.4028015136719 777.727294921875 L 361.8258361816406 777.727294921875 L 361.8258361816406 765.9734497070312" fill-opacity="1" clip-path="url(#adbrPuPALzWo)" stroke-opacity="1" stroke-linejoin="bevel" stroke-miterlimit="10" stroke-dasharray=""/><path fill="rgb(31,119,180)" stroke="rgb(31,119,180)" paint-order="fill" d="M 371.4028015136719 768.29833984375 L 380.979736328125 768.29833984375 L 380.979736328125 777.727294921875 L 371.4028015136719 777.727294921875 L 371.4028015136719 768.29833984375" fill-opacity="1" clip-path="url(#adbrPuPALzWo)" stroke-opacity="1" stroke-linejoin="bevel" stroke-miterlimit="10" stroke-dasharray=""/><path fill="rgb(31,119,180)" stroke="rgb(31,119,180)" paint-order="fill" d="M 380.979736328125 769.4608154296875 L 390.55670166015625 769.4608154296875 L 390.55670166015625 777.727294921875 L 380.979736328125 777.727294921875 L 380.979736328125 769.4608154296875" fill-opacity="1" clip-path="url(#adbrPuPALzWo)" stroke-opacity="1" stroke-linejoin="bevel" stroke-miterlimit="10" stroke-dasharray=""/><path fill="rgb(31,119,180)" stroke="rgb(31,119,180)" paint-order="fill" d="M 390.55670166015625 766.1026000976562 L 400.1336669921875 766.1026000976562 L 400.1336669921875 777.727294921875 L 390.55670166015625 777.727294921875 L 390.55670166015625 766.1026000976562" fill-opacity="1" clip-path="url(#adbrPuPALzWo)" stroke-opacity="1" stroke-linejoin="bevel" stroke-miterlimit="10" stroke-dasharray=""/><path fill="rgb(31,119,180)" stroke="rgb(31,119,180)" paint-order="fill" d="M 400.1336669921875 768.6858520507812 L 409.71063232421875 768.6858520507812 L 409.71063232421875 777.727294921875 L 400.1336669921875 777.727294921875 L 400.1336669921875 768.6858520507812" fill-opacity="1" clip-path="url(#adbrPuPALzWo)" stroke-opacity="1" stroke-linejoin="bevel" stroke-miterlimit="10" stroke-dasharray=""/><path fill="rgb(31,119,180)" stroke="rgb(31,119,180)" paint-order="fill" d="M 409.71063232421875 769.7191772460938 L 419.2875671386719 769.7191772460938 L 419.2875671386719 777.727294921875 L 409.71063232421875 777.727294921875 L 409.71063232421875 769.7191772460938" fill-opacity="1" clip-path="url(#adbrPuPALzWo)" stroke-opacity="1" stroke-linejoin="bevel" stroke-miterlimit="10" stroke-dasharray=""/><path fill="rgb(31,119,180)" stroke="rgb(31,119,180)" paint-order="fill" d="M 419.2875671386719 771.7857666015625 L 428.8645324707031 771.7857666015625 L 428.8645324707031 777.727294921875 L 419.2875671386719 777.727294921875 L 419.2875671386719 771.7857666015625" fill-opacity="1" clip-path="url(#adbrPuPALzWo)" stroke-opacity="1" stroke-linejoin="bevel" stroke-miterlimit="10" stroke-dasharray=""/><path fill="rgb(31,119,180)" stroke="rgb(31,119,180)" paint-order="fill" d="M 428.8645324707031 770.1066284179688 L 438.4414978027344 770.1066284179688 L 438.4414978027344 777.727294921875 L 428.8645324707031 777.727294921875 L 428.8645324707031 770.1066284179688" fill-opacity="1" clip-path="url(#adbrPuPALzWo)" stroke-opacity="1" stroke-linejoin="bevel" stroke-miterlimit="10" stroke-dasharray=""/><path fill="rgb(31,119,180)" stroke="rgb(31,119,180)" paint-order="fill" d="M 438.4414978027344 771.0108032226562 L 448.0184631347656 771.0108032226562 L 448.0184631347656 777.727294921875 L 438.4414978027344 777.727294921875 L 438.4414978027344 771.0108032226562" fill-opacity="1" clip-path="url(#adbrPuPALzWo)" stroke-opacity="1" stroke-linejoin="bevel" stroke-miterlimit="10" stroke-dasharray=""/><path fill="rgb(31,119,180)" stroke="rgb(31,119,180)" paint-order="fill" d="M 448.0184631347656 768.5567016601562 L 457.59539794921875 768.5567016601562 L 457.59539794921875 777.727294921875 L 448.0184631347656 777.727294921875 L 448.0184631347656 768.5567016601562" fill-opacity="1" clip-path="url(#adbrPuPALzWo)" stroke-opacity="1" stroke-linejoin="bevel" stroke-miterlimit="10" stroke-dasharray=""/><path fill="rgb(31,119,180)" stroke="rgb(31,119,180)" paint-order="fill" d="M 457.59539794921875 770.623291015625 L 467.17236328125 770.623291015625 L 467.17236328125 777.727294921875 L 457.59539794921875 777.727294921875 L 457.59539794921875 770.623291015625" fill-opacity="1" clip-path="url(#adbrPuPALzWo)" stroke-opacity="1" stroke-linejoin="bevel" stroke-miterlimit="10" stroke-dasharray=""/><path fill="rgb(31,119,180)" stroke="rgb(31,119,180)" paint-order="fill" d="M 467.17236328125 770.75244140625 L 476.74932861328125 770.75244140625 L 476.74932861328125 777.727294921875 L 467.17236328125 777.727294921875 L 467.17236328125 770.75244140625" fill-opacity="1" clip-path="url(#adbrPuPALzWo)" stroke-opacity="1" stroke-linejoin="bevel" stroke-miterlimit="10" stroke-dasharray=""/><path fill="rgb(31,119,180)" stroke="rgb(31,119,180)" paint-order="fill" d="M 476.74932861328125 769.8483276367188 L 486.3262939453125 769.8483276367188 L 486.3262939453125 777.727294921875 L 476.74932861328125 777.727294921875 L 476.74932861328125 769.8483276367188" fill-opacity="1" clip-path="url(#adbrPuPALzWo)" stroke-opacity="1" stroke-linejoin="bevel" stroke-miterlimit="10" stroke-dasharray=""/><path fill="rgb(31,119,180)" stroke="rgb(31,119,180)" paint-order="fill" d="M 486.3262939453125 770.494140625 L 495.9032287597656 770.494140625 L 495.9032287597656 777.727294921875 L 486.3262939453125 777.727294921875 L 486.3262939453125 770.494140625" fill-opacity="1" clip-path="url(#adbrPuPALzWo)" stroke-opacity="1" stroke-linejoin="bevel" stroke-miterlimit="10" stroke-dasharray=""/><path fill="rgb(31,119,180)" stroke="rgb(31,119,180)" paint-order="fill" d="M 495.9032287597656 771.5274658203125 L 505.4801940917969 771.5274658203125 L 505.4801940917969 777.727294921875 L 495.9032287597656 777.727294921875 L 495.9032287597656 771.5274658203125" fill-opacity="1" clip-path="url(#adbrPuPALzWo)" stroke-opacity="1" stroke-linejoin="bevel" stroke-miterlimit="10" stroke-dasharray=""/><path fill="rgb(31,119,180)" stroke="rgb(31,119,180)" paint-order="fill" d="M 505.4801940917969 771.5274658203125 L 515.05712890625 771.5274658203125 L 515.05712890625 777.727294921875 L 505.4801940917969 777.727294921875 L 505.4801940917969 771.5274658203125" fill-opacity="1" clip-path="url(#adbrPuPALzWo)" stroke-opacity="1" stroke-linejoin="bevel" stroke-miterlimit="10" stroke-dasharray=""/><path fill="rgb(31,119,180)" stroke="rgb(31,119,180)" paint-order="fill" d="M 515.05712890625 771.0108032226562 L 524.6340942382812 771.0108032226562 L 524.6340942382812 777.727294921875 L 515.05712890625 777.727294921875 L 515.05712890625 771.0108032226562" fill-opacity="1" clip-path="url(#adbrPuPALzWo)" stroke-opacity="1" stroke-linejoin="bevel" stroke-miterlimit="10" stroke-dasharray=""/><path fill="rgb(31,119,180)" stroke="rgb(31,119,180)" paint-order="fill" d="M 524.6340942382812 771.2691040039062 L 534.2110595703125 771.2691040039062 L 534.2110595703125 777.727294921875 L 524.6340942382812 777.727294921875 L 524.6340942382812 771.2691040039062" fill-opacity="1" clip-path="url(#adbrPuPALzWo)" stroke-opacity="1" stroke-linejoin="bevel" stroke-miterlimit="10" stroke-dasharray=""/><path fill="rgb(31,119,180)" stroke="rgb(31,119,180)" paint-order="fill" d="M 534.2110595703125 770.8816528320312 L 543.7880249023438 770.8816528320312 L 543.7880249023438 777.727294921875 L 534.2110595703125 777.727294921875 L 534.2110595703125 770.8816528320312" fill-opacity="1" clip-path="url(#adbrPuPALzWo)" stroke-opacity="1" stroke-linejoin="bevel" stroke-miterlimit="10" stroke-dasharray=""/><path fill="rgb(31,119,180)" stroke="rgb(31,119,180)" paint-order="fill" d="M 543.7880249023438 770.364990234375 L 553.364990234375 770.364990234375 L 553.364990234375 777.727294921875 L 543.7880249023438 777.727294921875 L 543.7880249023438 770.364990234375" fill-opacity="1" clip-path="url(#adbrPuPALzWo)" stroke-opacity="1" stroke-linejoin="bevel" stroke-miterlimit="10" stroke-dasharray=""/><path fill="rgb(31,119,180)" stroke="rgb(31,119,180)" paint-order="fill" d="M 553.364990234375 771.9149169921875 L 562.9419555664062 771.9149169921875 L 562.9419555664062 777.727294921875 L 553.364990234375 777.727294921875 L 553.364990234375 771.9149169921875" fill-opacity="1" clip-path="url(#adbrPuPALzWo)" stroke-opacity="1" stroke-linejoin="bevel" stroke-miterlimit="10" stroke-dasharray=""/><path fill="rgb(31,119,180)" stroke="rgb(31,119,180)" paint-order="fill" d="M 562.9419555664062 773.4649047851562 L 572.5189208984375 773.4649047851562 L 572.5189208984375 777.727294921875 L 562.9419555664062 777.727294921875 L 562.9419555664062 773.4649047851562" fill-opacity="1" clip-path="url(#adbrPuPALzWo)" stroke-opacity="1" stroke-linejoin="bevel" stroke-miterlimit="10" stroke-dasharray=""/><path fill="rgb(31,119,180)" stroke="rgb(31,119,180)" paint-order="fill" d="M 572.5189208984375 772.0440673828125 L 582.0958862304688 772.0440673828125 L 582.0958862304688 777.727294921875 L 572.5189208984375 777.727294921875 L 572.5189208984375 772.0440673828125" fill-opacity="1" clip-path="url(#adbrPuPALzWo)" stroke-opacity="1" stroke-linejoin="bevel" stroke-miterlimit="10" stroke-dasharray=""/><path fill="rgb(31,119,180)" stroke="rgb(31,119,180)" paint-order="fill" d="M 582.0958862304688 770.8816528320312 L 591.6727905273438 770.8816528320312 L 591.6727905273438 777.727294921875 L 582.0958862304688 777.727294921875 L 582.0958862304688 770.8816528320312" fill-opacity="1" clip-path="url(#adbrPuPALzWo)" stroke-opacity="1" stroke-linejoin="bevel" stroke-miterlimit="10" stroke-dasharray=""/><path fill="rgb(31,119,180)" stroke="rgb(31,119,180)" paint-order="fill" d="M 591.6727905273438 770.494140625 L 601.249755859375 770.494140625 L 601.249755859375 777.727294921875 L 591.6727905273438 777.727294921875 L 591.6727905273438 770.494140625" fill-opacity="1" clip-path="url(#adbrPuPALzWo)" stroke-opacity="1" stroke-linejoin="bevel" stroke-miterlimit="10" stroke-dasharray=""/><path fill="rgb(31,119,180)" stroke="rgb(31,119,180)" paint-order="fill" d="M 601.249755859375 772.0440673828125 L 610.8267211914062 772.0440673828125 L 610.8267211914062 777.727294921875 L 601.249755859375 777.727294921875 L 601.249755859375 772.0440673828125" fill-opacity="1" clip-path="url(#adbrPuPALzWo)" stroke-opacity="1" stroke-linejoin="bevel" stroke-miterlimit="10" stroke-dasharray=""/><path fill="rgb(31,119,180)" stroke="rgb(31,119,180)" paint-order="fill" d="M 610.8267211914062 772.5607299804688 L 620.4036865234375 772.5607299804688 L 620.4036865234375 777.727294921875 L 610.8267211914062 777.727294921875 L 610.8267211914062 772.5607299804688" fill-opacity="1" clip-path="url(#adbrPuPALzWo)" stroke-opacity="1" stroke-linejoin="bevel" stroke-miterlimit="10" stroke-dasharray=""/><path fill="rgb(31,119,180)" stroke="rgb(31,119,180)" paint-order="fill" d="M 620.4036865234375 773.3357543945312 L 629.9806518554688 773.3357543945312 L 629.9806518554688 777.727294921875 L 620.4036865234375 777.727294921875 L 620.4036865234375 773.3357543945312" fill-opacity="1" clip-path="url(#adbrPuPALzWo)" stroke-opacity="1" stroke-linejoin="bevel" stroke-miterlimit="10" stroke-dasharray=""/><path fill="rgb(31,119,180)" stroke="rgb(31,119,180)" paint-order="fill" d="M 629.9806518554688 770.23583984375 L 639.5576171875 770.23583984375 L 639.5576171875 777.727294921875 L 629.9806518554688 777.727294921875 L 629.9806518554688 770.23583984375" fill-opacity="1" clip-path="url(#adbrPuPALzWo)" stroke-opacity="1" stroke-linejoin="bevel" stroke-miterlimit="10" stroke-dasharray=""/><path fill="rgb(31,119,180)" stroke="rgb(31,119,180)" paint-order="fill" d="M 639.5576171875 772.0440673828125 L 649.1345825195312 772.0440673828125 L 649.1345825195312 777.727294921875 L 639.5576171875 777.727294921875 L 639.5576171875 772.0440673828125" fill-opacity="1" clip-path="url(#adbrPuPALzWo)" stroke-opacity="1" stroke-linejoin="bevel" stroke-miterlimit="10" stroke-dasharray=""/><path fill="rgb(31,119,180)" stroke="rgb(31,119,180)" paint-order="fill" d="M 649.1345825195312 772.3024291992188 L 658.7115478515625 772.3024291992188 L 658.7115478515625 777.727294921875 L 649.1345825195312 777.727294921875 L 649.1345825195312 772.3024291992188" fill-opacity="1" clip-path="url(#adbrPuPALzWo)" stroke-opacity="1" stroke-linejoin="bevel" stroke-miterlimit="10" stroke-dasharray=""/><path fill="rgb(31,119,180)" stroke="rgb(31,119,180)" paint-order="fill" d="M 658.7115478515625 771.3982543945312 L 668.2884521484375 771.3982543945312 L 668.2884521484375 777.727294921875 L 658.7115478515625 777.727294921875 L 658.7115478515625 771.3982543945312" fill-opacity="1" clip-path="url(#adbrPuPALzWo)" stroke-opacity="1" stroke-linejoin="bevel" stroke-miterlimit="10" stroke-dasharray=""/><path fill="rgb(31,119,180)" stroke="rgb(31,119,180)" paint-order="fill" d="M 668.2884521484375 772.5607299804688 L 677.8654174804688 772.5607299804688 L 677.8654174804688 777.727294921875 L 668.2884521484375 777.727294921875 L 668.2884521484375 772.5607299804688" fill-opacity="1" clip-path="url(#adbrPuPALzWo)" stroke-opacity="1" stroke-linejoin="bevel" stroke-miterlimit="10" stroke-dasharray=""/><path fill="rgb(31,119,180)" stroke="rgb(31,119,180)" paint-order="fill" d="M 677.8654174804688 773.077392578125 L 687.4423828125 773.077392578125 L 687.4423828125 777.727294921875 L 677.8654174804688 777.727294921875 L 677.8654174804688 773.077392578125" fill-opacity="1" clip-path="url(#adbrPuPALzWo)" stroke-opacity="1" stroke-linejoin="bevel" stroke-miterlimit="10" stroke-dasharray=""/><path fill="rgb(31,119,180)" stroke="rgb(31,119,180)" paint-order="fill" d="M 687.4423828125 772.819091796875 L 697.0193481445312 772.819091796875 L 697.0193481445312 777.727294921875 L 687.4423828125 777.727294921875 L 687.4423828125 772.819091796875" fill-opacity="1" clip-path="url(#adbrPuPALzWo)" stroke-opacity="1" stroke-linejoin="bevel" stroke-miterlimit="10" stroke-dasharray=""/><path fill="rgb(31,119,180)" stroke="rgb(31,119,180)" paint-order="fill" d="M 697.0193481445312 772.68994140625 L 706.5963134765625 772.68994140625 L 706.5963134765625 777.727294921875 L 697.0193481445312 777.727294921875 L 697.0193481445312 772.68994140625" fill-opacity="1" clip-path="url(#adbrPuPALzWo)" stroke-opacity="1" stroke-linejoin="bevel" stroke-miterlimit="10" stroke-dasharray=""/><path fill="rgb(31,119,180)" stroke="rgb(31,119,180)" paint-order="fill" d="M 706.5963134765625 772.819091796875 L 716.1732788085938 772.819091796875 L 716.1732788085938 777.727294921875 L 706.5963134765625 777.727294921875 L 706.5963134765625 772.819091796875" fill-opacity="1" clip-path="url(#adbrPuPALzWo)" stroke-opacity="1" stroke-linejoin="bevel" stroke-miterlimit="10" stroke-dasharray=""/><path fill="rgb(31,119,180)" stroke="rgb(31,119,180)" paint-order="fill" d="M 716.1732788085938 771.2691040039062 L 725.750244140625 771.2691040039062 L 725.750244140625 777.727294921875 L 716.1732788085938 777.727294921875 L 716.1732788085938 771.2691040039062" fill-opacity="1" clip-path="url(#adbrPuPALzWo)" stroke-opacity="1" stroke-linejoin="bevel" stroke-miterlimit="10" stroke-dasharray=""/><path fill="rgb(31,119,180)" stroke="rgb(31,119,180)" paint-order="fill" d="M 725.750244140625 772.68994140625 L 735.3272094726562 772.68994140625 L 735.3272094726562 777.727294921875 L 725.750244140625 777.727294921875 L 725.750244140625 772.68994140625" fill-opacity="1" clip-path="url(#adbrPuPALzWo)" stroke-opacity="1" stroke-linejoin="bevel" stroke-miterlimit="10" stroke-dasharray=""/><path fill="rgb(31,119,180)" stroke="rgb(31,119,180)" paint-order="fill" d="M 735.3272094726562 773.077392578125 L 744.9041137695312 773.077392578125 L 744.9041137695312 777.727294921875 L 735.3272094726562 777.727294921875 L 735.3272094726562 773.077392578125" fill-opacity="1" clip-path="url(#adbrPuPALzWo)" stroke-opacity="1" stroke-linejoin="bevel" stroke-miterlimit="10" stroke-dasharray=""/><path fill="rgb(31,119,180)" stroke="rgb(31,119,180)" paint-order="fill" d="M 744.9041137695312 772.0440673828125 L 754.4810791015625 772.0440673828125 L 754.4810791015625 777.727294921875 L 744.9041137695312 777.727294921875 L 744.9041137695312 772.0440673828125" fill-opacity="1" clip-path="url(#adbrPuPALzWo)" stroke-opacity="1" stroke-linejoin="bevel" stroke-miterlimit="10" stroke-dasharray=""/><path fill="rgb(31,119,180)" stroke="rgb(31,119,180)" paint-order="fill" d="M 754.4810791015625 772.3024291992188 L 764.0580444335938 772.3024291992188 L 764.0580444335938 777.727294921875 L 754.4810791015625 777.727294921875 L 754.4810791015625 772.3024291992188" fill-opacity="1" clip-path="url(#adbrPuPALzWo)" stroke-opacity="1" stroke-linejoin="bevel" stroke-miterlimit="10" stroke-dasharray=""/><path fill="rgb(31,119,180)" stroke="rgb(31,119,180)" paint-order="fill" d="M 764.0580444335938 772.68994140625 L 773.635009765625 772.68994140625 L 773.635009765625 777.727294921875 L 764.0580444335938 777.727294921875 L 764.0580444335938 772.68994140625" fill-opacity="1" clip-path="url(#adbrPuPALzWo)" stroke-opacity="1" stroke-linejoin="bevel" stroke-miterlimit="10" stroke-dasharray=""/><path fill="rgb(31,119,180)" stroke="rgb(31,119,180)" paint-order="fill" d="M 773.635009765625 771.9149169921875 L 783.2119750976562 771.9149169921875 L 783.2119750976562 777.727294921875 L 773.635009765625 777.727294921875 L 773.635009765625 771.9149169921875" fill-opacity="1" clip-path="url(#adbrPuPALzWo)" stroke-opacity="1" stroke-linejoin="bevel" stroke-miterlimit="10" stroke-dasharray=""/><path fill="rgb(31,119,180)" stroke="rgb(31,119,180)" paint-order="fill" d="M 783.2119750976562 772.819091796875 L 792.7889404296875 772.819091796875 L 792.7889404296875 777.727294921875 L 783.2119750976562 777.727294921875 L 783.2119750976562 772.819091796875" fill-opacity="1" clip-path="url(#adbrPuPALzWo)" stroke-opacity="1" stroke-linejoin="bevel" stroke-miterlimit="10" stroke-dasharray=""/><path fill="rgb(31,119,180)" stroke="rgb(31,119,180)" paint-order="fill" d="M 792.7889404296875 770.364990234375 L 802.3659057617188 770.364990234375 L 802.3659057617188 777.727294921875 L 792.7889404296875 777.727294921875 L 792.7889404296875 770.364990234375" fill-opacity="1" clip-path="url(#adbrPuPALzWo)" stroke-opacity="1" stroke-linejoin="bevel" stroke-miterlimit="10" stroke-dasharray=""/><path fill="rgb(31,119,180)" stroke="rgb(31,119,180)" paint-order="fill" d="M 802.3659057617188 772.4315795898438 L 811.94287109375 772.4315795898438 L 811.94287109375 777.727294921875 L 802.3659057617188 777.727294921875 L 802.3659057617188 772.4315795898438" fill-opacity="1" clip-path="url(#adbrPuPALzWo)" stroke-opacity="1" stroke-linejoin="bevel" stroke-miterlimit="10" stroke-dasharray=""/><path fill="rgb(31,119,180)" stroke="rgb(31,119,180)" paint-order="fill" d="M 811.94287109375 772.68994140625 L 821.519775390625 772.68994140625 L 821.519775390625 777.727294921875 L 811.94287109375 777.727294921875 L 811.94287109375 772.68994140625" fill-opacity="1" clip-path="url(#adbrPuPALzWo)" stroke-opacity="1" stroke-linejoin="bevel" stroke-miterlimit="10" stroke-dasharray=""/><path fill="rgb(31,119,180)" stroke="rgb(31,119,180)" paint-order="fill" d="M 821.519775390625 771.2691040039062 L 831.0967407226562 771.2691040039062 L 831.0967407226562 777.727294921875 L 821.519775390625 777.727294921875 L 821.519775390625 771.2691040039062" fill-opacity="1" clip-path="url(#adbrPuPALzWo)" stroke-opacity="1" stroke-linejoin="bevel" stroke-miterlimit="10" stroke-dasharray=""/><path fill="rgb(31,119,180)" stroke="rgb(31,119,180)" paint-order="fill" d="M 831.0967407226562 772.9482421875 L 840.6737060546875 772.9482421875 L 840.6737060546875 777.727294921875 L 831.0967407226562 777.727294921875 L 831.0967407226562 772.9482421875" fill-opacity="1" clip-path="url(#adbrPuPALzWo)" stroke-opacity="1" stroke-linejoin="bevel" stroke-miterlimit="10" stroke-dasharray=""/><path fill="rgb(31,119,180)" stroke="rgb(31,119,180)" paint-order="fill" d="M 840.6737060546875 772.1732788085938 L 850.2506713867188 772.1732788085938 L 850.2506713867188 777.727294921875 L 840.6737060546875 777.727294921875 L 840.6737060546875 772.1732788085938" fill-opacity="1" clip-path="url(#adbrPuPALzWo)" stroke-opacity="1" stroke-linejoin="bevel" stroke-miterlimit="10" stroke-dasharray=""/><path fill="rgb(31,119,180)" stroke="rgb(31,119,180)" paint-order="fill" d="M 850.2506713867188 771.7857666015625 L 859.82763671875 771.7857666015625 L 859.82763671875 777.727294921875 L 850.2506713867188 777.727294921875 L 850.2506713867188 771.7857666015625" fill-opacity="1" clip-path="url(#adbrPuPALzWo)" stroke-opacity="1" stroke-linejoin="bevel" stroke-miterlimit="10" stroke-dasharray=""/><path fill="rgb(31,119,180)" stroke="rgb(31,119,180)" paint-order="fill" d="M 859.82763671875 771.1399536132812 L 869.4046020507812 771.1399536132812 L 869.4046020507812 777.727294921875 L 859.82763671875 777.727294921875 L 859.82763671875 771.1399536132812" fill-opacity="1" clip-path="url(#adbrPuPALzWo)" stroke-opacity="1" stroke-linejoin="bevel" stroke-miterlimit="10" stroke-dasharray=""/><path fill="rgb(31,119,180)" stroke="rgb(31,119,180)" paint-order="fill" d="M 869.4046020507812 771.1399536132812 L 878.9815673828125 771.1399536132812 L 878.9815673828125 777.727294921875 L 869.4046020507812 777.727294921875 L 869.4046020507812 771.1399536132812" fill-opacity="1" clip-path="url(#adbrPuPALzWo)" stroke-opacity="1" stroke-linejoin="bevel" stroke-miterlimit="10" stroke-dasharray=""/><path fill="rgb(31,119,180)" stroke="rgb(31,119,180)" paint-order="fill" d="M 878.9815673828125 768.9442138671875 L 888.5585327148438 768.9442138671875 L 888.5585327148438 777.727294921875 L 878.9815673828125 777.727294921875 L 878.9815673828125 768.9442138671875" fill-opacity="1" clip-path="url(#adbrPuPALzWo)" stroke-opacity="1" stroke-linejoin="bevel" stroke-miterlimit="10" stroke-dasharray=""/><path fill="rgb(31,119,180)" stroke="rgb(31,119,180)" paint-order="fill" d="M 888.5585327148438 771.1399536132812 L 898.1354370117188 771.1399536132812 L 898.1354370117188 777.727294921875 L 888.5585327148438 777.727294921875 L 888.5585327148438 771.1399536132812" fill-opacity="1" clip-path="url(#adbrPuPALzWo)" stroke-opacity="1" stroke-linejoin="bevel" stroke-miterlimit="10" stroke-dasharray=""/><path fill="rgb(31,119,180)" stroke="rgb(31,119,180)" paint-order="fill" d="M 898.1354370117188 772.9482421875 L 907.71240234375 772.9482421875 L 907.71240234375 777.727294921875 L 898.1354370117188 777.727294921875 L 898.1354370117188 772.9482421875" fill-opacity="1" clip-path="url(#adbrPuPALzWo)" stroke-opacity="1" stroke-linejoin="bevel" stroke-miterlimit="10" stroke-dasharray=""/><path fill="rgb(31,119,180)" stroke="rgb(31,119,180)" paint-order="fill" d="M 907.71240234375 771.5274658203125 L 917.2893676757812 771.5274658203125 L 917.2893676757812 777.727294921875 L 907.71240234375 777.727294921875 L 907.71240234375 771.5274658203125" fill-opacity="1" clip-path="url(#adbrPuPALzWo)" stroke-opacity="1" stroke-linejoin="bevel" stroke-miterlimit="10" stroke-dasharray=""/><path fill="rgb(31,119,180)" stroke="rgb(31,119,180)" paint-order="fill" d="M 917.2893676757812 770.1066284179688 L 926.8663330078125 770.1066284179688 L 926.8663330078125 777.727294921875 L 917.2893676757812 777.727294921875 L 917.2893676757812 770.1066284179688" fill-opacity="1" clip-path="url(#adbrPuPALzWo)" stroke-opacity="1" stroke-linejoin="bevel" stroke-miterlimit="10" stroke-dasharray=""/><path fill="rgb(31,119,180)" stroke="rgb(31,119,180)" paint-order="fill" d="M 926.8663330078125 770.494140625 L 936.4432983398438 770.494140625 L 936.4432983398438 777.727294921875 L 926.8663330078125 777.727294921875 L 926.8663330078125 770.494140625" fill-opacity="1" clip-path="url(#adbrPuPALzWo)" stroke-opacity="1" stroke-linejoin="bevel" stroke-miterlimit="10" stroke-dasharray=""/><path fill="rgb(31,119,180)" stroke="rgb(31,119,180)" paint-order="fill" d="M 936.4432983398438 769.8483276367188 L 946.020263671875 769.8483276367188 L 946.020263671875 777.727294921875 L 936.4432983398438 777.727294921875 L 936.4432983398438 769.8483276367188" fill-opacity="1" clip-path="url(#adbrPuPALzWo)" stroke-opacity="1" stroke-linejoin="bevel" stroke-miterlimit="10" stroke-dasharray=""/><path fill="rgb(31,119,180)" stroke="rgb(31,119,180)" paint-order="fill" d="M 946.020263671875 769.5900268554688 L 955.5972290039062 769.5900268554688 L 955.5972290039062 777.727294921875 L 946.020263671875 777.727294921875 L 946.020263671875 769.5900268554688" fill-opacity="1" clip-path="url(#adbrPuPALzWo)" stroke-opacity="1" stroke-linejoin="bevel" stroke-miterlimit="10" stroke-dasharray=""/><path fill="rgb(31,119,180)" stroke="rgb(31,119,180)" paint-order="fill" d="M 955.5972290039062 770.494140625 L 965.1741943359375 770.494140625 L 965.1741943359375 777.727294921875 L 955.5972290039062 777.727294921875 L 955.5972290039062 770.494140625" fill-opacity="1" clip-path="url(#adbrPuPALzWo)" stroke-opacity="1" stroke-linejoin="bevel" stroke-miterlimit="10" stroke-dasharray=""/><path fill="rgb(31,119,180)" stroke="rgb(31,119,180)" paint-order="fill" d="M 965.1741943359375 769.7191772460938 L 974.7510986328125 769.7191772460938 L 974.7510986328125 777.727294921875 L 965.1741943359375 777.727294921875 L 965.1741943359375 769.7191772460938" fill-opacity="1" clip-path="url(#adbrPuPALzWo)" stroke-opacity="1" stroke-linejoin="bevel" stroke-miterlimit="10" stroke-dasharray=""/><path fill="rgb(31,119,180)" stroke="rgb(31,119,180)" paint-order="fill" d="M 974.7510986328125 768.29833984375 L 984.3280639648438 768.29833984375 L 984.3280639648438 777.727294921875 L 974.7510986328125 777.727294921875 L 974.7510986328125 768.29833984375" fill-opacity="1" clip-path="url(#adbrPuPALzWo)" stroke-opacity="1" stroke-linejoin="bevel" stroke-miterlimit="10" stroke-dasharray=""/><path fill="rgb(31,119,180)" stroke="rgb(31,119,180)" paint-order="fill" d="M 984.3280639648438 768.169189453125 L 993.905029296875 768.169189453125 L 993.905029296875 777.727294921875 L 984.3280639648438 777.727294921875 L 984.3280639648438 768.169189453125" fill-opacity="1" clip-path="url(#adbrPuPALzWo)" stroke-opacity="1" stroke-linejoin="bevel" stroke-miterlimit="10" stroke-dasharray=""/><path fill="rgb(31,119,180)" stroke="rgb(31,119,180)" paint-order="fill" d="M 993.905029296875 768.4275512695312 L 1003.4819946289062 768.4275512695312 L 1003.4819946289062 777.727294921875 L 993.905029296875 777.727294921875 L 993.905029296875 768.4275512695312" fill-opacity="1" clip-path="url(#adbrPuPALzWo)" stroke-opacity="1" stroke-linejoin="bevel" stroke-miterlimit="10" stroke-dasharray=""/><path fill="rgb(31,119,180)" stroke="rgb(31,119,180)" paint-order="fill" d="M 1003.4819946289062 765.5859375 L 1013.0589599609375 765.5859375 L 1013.0589599609375 777.727294921875 L 1003.4819946289062 777.727294921875 L 1003.4819946289062 765.5859375" fill-opacity="1" clip-path="url(#adbrPuPALzWo)" stroke-opacity="1" stroke-linejoin="bevel" stroke-miterlimit="10" stroke-dasharray=""/><path fill="rgb(31,119,180)" stroke="rgb(31,119,180)" paint-order="fill" d="M 1013.0589599609375 763.7776489257812 L 1022.6359252929688 763.7776489257812 L 1022.6359252929688 777.727294921875 L 1013.0589599609375 777.727294921875 L 1013.0589599609375 763.7776489257812" fill-opacity="1" clip-path="url(#adbrPuPALzWo)" stroke-opacity="1" stroke-linejoin="bevel" stroke-miterlimit="10" stroke-dasharray=""/><path fill="rgb(31,119,180)" stroke="rgb(31,119,180)" paint-order="fill" d="M 1022.6359252929688 763.260986328125 L 1032.212890625 763.260986328125 L 1032.212890625 777.727294921875 L 1022.6359252929688 777.727294921875 L 1022.6359252929688 763.260986328125" fill-opacity="1" clip-path="url(#adbrPuPALzWo)" stroke-opacity="1" stroke-linejoin="bevel" stroke-miterlimit="10" stroke-dasharray=""/><path fill="rgb(31,119,180)" stroke="rgb(31,119,180)" paint-order="fill" d="M 1032.212890625 760.41943359375 L 1041.789794921875 760.41943359375 L 1041.789794921875 777.727294921875 L 1032.212890625 777.727294921875 L 1032.212890625 760.41943359375" fill-opacity="1" clip-path="url(#adbrPuPALzWo)" stroke-opacity="1" stroke-linejoin="bevel" stroke-miterlimit="10" stroke-dasharray=""/><path fill="rgb(31,119,180)" stroke="rgb(31,119,180)" paint-order="fill" d="M 1041.789794921875 752.798828125 L 1051.3668212890625 752.798828125 L 1051.3668212890625 777.727294921875 L 1041.789794921875 777.727294921875 L 1041.789794921875 752.798828125" fill-opacity="1" clip-path="url(#adbrPuPALzWo)" stroke-opacity="1" stroke-linejoin="bevel" stroke-miterlimit="10" stroke-dasharray=""/><path fill="rgb(31,119,180)" stroke="rgb(31,119,180)" paint-order="fill" d="M 1051.3668212890625 722.0579833984375 L 1060.9437255859375 722.0579833984375 L 1060.9437255859375 777.727294921875 L 1051.3668212890625 777.727294921875 L 1051.3668212890625 722.0579833984375" fill-opacity="1" clip-path="url(#adbrPuPALzWo)" stroke-opacity="1" stroke-linejoin="bevel" stroke-miterlimit="10" stroke-dasharray=""/><path fill="rgb(31,119,180)" stroke="rgb(31,119,180)" paint-order="fill" d="M 1060.9437255859375 700.3585815429688 L 1070.520751953125 700.3585815429688 L 1070.520751953125 777.727294921875 L 1060.9437255859375 777.727294921875 L 1060.9437255859375 700.3585815429688" fill-opacity="1" clip-path="url(#adbrPuPALzWo)" stroke-opacity="1" stroke-linejoin="bevel" stroke-miterlimit="10" stroke-dasharray=""/><path fill="rgb(31,119,180)" stroke="rgb(31,119,180)" paint-order="fill" d="M 1070.520751953125 680.85498046875 L 1080.09765625 680.85498046875 L 1080.09765625 777.727294921875 L 1070.520751953125 777.727294921875 L 1070.520751953125 680.85498046875" fill-opacity="1" clip-path="url(#adbrPuPALzWo)" stroke-opacity="1" stroke-linejoin="bevel" stroke-miterlimit="10" stroke-dasharray=""/><path fill="rgb(31,119,180)" stroke="rgb(31,119,180)" paint-order="fill" d="M 1080.09765625 675.6884155273438 L 1089.674560546875 675.6884155273438 L 1089.674560546875 777.727294921875 L 1080.09765625 777.727294921875 L 1080.09765625 675.6884155273438" fill-opacity="1" clip-path="url(#adbrPuPALzWo)" stroke-opacity="1" stroke-linejoin="bevel" stroke-miterlimit="10" stroke-dasharray=""/><path fill="rgb(31,119,180)" stroke="rgb(31,119,180)" paint-order="fill" d="M 1089.674560546875 672.4593505859375 L 1099.2515869140625 672.4593505859375 L 1099.2515869140625 777.727294921875 L 1089.674560546875 777.727294921875 L 1089.674560546875 672.4593505859375" fill-opacity="1" clip-path="url(#adbrPuPALzWo)" stroke-opacity="1" stroke-linejoin="bevel" stroke-miterlimit="10" stroke-dasharray=""/><path fill="rgb(31,119,180)" stroke="rgb(31,119,180)" paint-order="fill" d="M 1099.2515869140625 681.242431640625 L 1108.8284912109375 681.242431640625 L 1108.8284912109375 777.727294921875 L 1099.2515869140625 777.727294921875 L 1099.2515869140625 681.242431640625" fill-opacity="1" clip-path="url(#adbrPuPALzWo)" stroke-opacity="1" stroke-linejoin="bevel" stroke-miterlimit="10" stroke-dasharray=""/><path fill="rgb(31,119,180)" stroke="rgb(31,119,180)" paint-order="fill" d="M 1108.8284912109375 676.5925903320312 L 1118.405517578125 676.5925903320312 L 1118.405517578125 777.727294921875 L 1108.8284912109375 777.727294921875 L 1108.8284912109375 676.5925903320312" fill-opacity="1" clip-path="url(#adbrPuPALzWo)" stroke-opacity="1" stroke-linejoin="bevel" stroke-miterlimit="10" stroke-dasharray=""/><path fill="rgb(31,119,180)" stroke="rgb(31,119,180)" paint-order="fill" d="M 1118.405517578125 657.4764404296875 L 1127.982421875 657.4764404296875 L 1127.982421875 777.727294921875 L 1118.405517578125 777.727294921875 L 1118.405517578125 657.4764404296875" fill-opacity="1" clip-path="url(#adbrPuPALzWo)" stroke-opacity="1" stroke-linejoin="bevel" stroke-miterlimit="10" stroke-dasharray=""/><path fill="rgb(31,119,180)" stroke="rgb(31,119,180)" paint-order="fill" d="M 1127.982421875 465.9276123046875 L 1137.5594482421875 465.9276123046875 L 1137.5594482421875 777.727294921875 L 1127.982421875 777.727294921875 L 1127.982421875 465.9276123046875" fill-opacity="1" clip-path="url(#adbrPuPALzWo)" stroke-opacity="1" stroke-linejoin="bevel" stroke-miterlimit="10" stroke-dasharray=""/><path fill="rgb(31,119,180)" stroke="rgb(31,119,180)" paint-order="fill" d="M 1137.5594482421875 42.272727966308594 L 1147.1363525390625 42.272727966308594 L 1147.1363525390625 777.727294921875 L 1137.5594482421875 777.727294921875 L 1137.5594482421875 42.272727966308594" fill-opacity="1" clip-path="url(#adbrPuPALzWo)" stroke-opacity="1" stroke-linejoin="bevel" stroke-miterlimit="10" stroke-dasharray=""/><path fill="none" stroke="rgb(0,0,0)" paint-order="fill" d="M 131.5 814.5 L 1195.5 814.5" stroke-opacity="1" stroke-linejoin="bevel" stroke-miterlimit="10" stroke-dasharray=""/><path fill="none" stroke="rgb(0,0,0)" paint-order="fill" d="M 179.5 820.5 L 179.5 812.5 M 371.5 820.5 L 371.5 812.5 M 562.5 820.5 L 562.5 812.5 M 754.5 820.5 L 754.5 812.5 M 946.5 820.5 L 946.5 812.5 M 1137.5 820.5 L 1137.5 812.5" stroke-opacity="1" stroke-linejoin="bevel" stroke-miterlimit="10" stroke-dasharray=""/><path fill="none" stroke="rgb(0,0,0)" paint-order="fill" d="M 141.5 818.5 L 141.5 814.5 M 179.5 818.5 L 179.5 814.5 M 218.5 818.5 L 218.5 814.5 M 256.5 818.5 L 256.5 814.5 M 294.5 818.5 L 294.5 814.5 M 333.5 818.5 L 333.5 814.5 M 371.5 818.5 L 371.5 814.5 M 409.5 818.5 L 409.5 814.5 M 448.5 818.5 L 448.5 814.5 M 486.5 818.5 L 486.5 814.5 M 524.5 818.5 L 524.5 814.5 M 562.5 818.5 L 562.5 814.5 M 601.5 818.5 L 601.5 814.5 M 639.5 818.5 L 639.5 814.5 M 677.5 818.5 L 677.5 814.5 M 716.5 818.5 L 716.5 814.5 M 754.5 818.5 L 754.5 814.5 M 792.5 818.5 L 792.5 814.5 M 831.5 818.5 L 831.5 814.5 M 869.5 818.5 L 869.5 814.5 M 907.5 818.5 L 907.5 814.5 M 946.5 818.5 L 946.5 814.5 M 984.5 818.5 L 984.5 814.5 M 1022.5 818.5 L 1022.5 814.5 M 1060.5 818.5 L 1060.5 814.5 M 1099.5 818.5 L 1099.5 814.5 M 1137.5 818.5 L 1137.5 814.5 M 1175.5 818.5 L 1175.5 814.5" stroke-opacity="1" stroke-linejoin="bevel" stroke-miterlimit="10" stroke-dasharray=""/><text fill="rgb(68,68,68)" stroke="none" font-family="helvetica" font-size="30px" font-style="normal" font-weight="normal" text-decoration="normal" x="171.02196598052979" y="847" text-anchor="start" dominant-baseline="alphabetic" transform="matrix(1, 0, 0, 1, 0.5, 0.5)" fill-opacity="1">0</text><text fill="rgb(68,68,68)" stroke="none" font-family="helvetica" font-size="30px" font-style="normal" font-weight="normal" text-decoration="normal" x="350.05280113220215" y="847" text-anchor="start" dominant-baseline="alphabetic" transform="matrix(1, 0, 0, 1, 0.5, 0.5)" fill-opacity="1">0.2</text><text fill="rgb(68,68,68)" stroke="none" font-family="helvetica" font-size="30px" font-style="normal" font-weight="normal" text-decoration="normal" x="541.5919551849365" y="847" text-anchor="start" dominant-baseline="alphabetic" transform="matrix(1, 0, 0, 1, 0.5, 0.5)" fill-opacity="1">0.4</text><text fill="rgb(68,68,68)" stroke="none" font-family="helvetica" font-size="30px" font-style="normal" font-weight="normal" text-decoration="normal" x="733.1310787200928" y="847" text-anchor="start" dominant-baseline="alphabetic" transform="matrix(1, 0, 0, 1, 0.5, 0.5)" fill-opacity="1">0.6</text><text fill="rgb(68,68,68)" stroke="none" font-family="helvetica" font-size="30px" font-style="normal" font-weight="normal" text-decoration="normal" x="924.6702632904053" y="847" text-anchor="start" dominant-baseline="alphabetic" transform="matrix(1, 0, 0, 1, 0.5, 0.5)" fill-opacity="1">0.8</text><text fill="rgb(68,68,68)" stroke="none" font-family="helvetica" font-size="30px" font-style="normal" font-weight="normal" text-decoration="normal" x="1128.7177820205688" y="847" text-anchor="start" dominant-baseline="alphabetic" transform="matrix(1, 0, 0, 1, 0.5, 0.5)" fill-opacity="1">1</text><text fill="rgb(68,68,68)" stroke="none" font-family="helvetica" font-size="36px" font-style="italic" font-weight="normal" text-decoration="normal" x="514.6999969482422" y="889" text-anchor="start" dominant-baseline="alphabetic" transform="matrix(1, 0, 0, 1, 0.5, 0.5)" fill-opacity="1">FINEMAP total CP</text><path fill="none" stroke="rgb(0,0,0)" paint-order="fill" d="M 131.5 814.5 L 131.5 5.5" stroke-opacity="1" stroke-linejoin="bevel" stroke-miterlimit="10" stroke-dasharray=""/><path fill="none" stroke="rgb(0,0,0)" paint-order="fill" d="M 125.5 777.5 L 133.5 777.5 M 125.5 648.5 L 133.5 648.5 M 125.5 519.5 L 133.5 519.5 M 125.5 390.5 L 133.5 390.5 M 125.5 261.5 L 133.5 261.5 M 125.5 131.5 L 133.5 131.5" stroke-opacity="1" stroke-linejoin="bevel" stroke-miterlimit="10" stroke-dasharray=""/><path fill="none" stroke="rgb(0,0,0)" paint-order="fill" d="M 127.5 803.5 L 131.5 803.5 M 127.5 777.5 L 131.5 777.5 M 127.5 751.5 L 131.5 751.5 M 127.5 726.5 L 131.5 726.5 M 127.5 700.5 L 131.5 700.5 M 127.5 674.5 L 131.5 674.5 M 127.5 648.5 L 131.5 648.5 M 127.5 622.5 L 131.5 622.5 M 127.5 596.5 L 131.5 596.5 M 127.5 571.5 L 131.5 571.5 M 127.5 545.5 L 131.5 545.5 M 127.5 519.5 L 131.5 519.5 M 127.5 493.5 L 131.5 493.5 M 127.5 467.5 L 131.5 467.5 M 127.5 441.5 L 131.5 441.5 M 127.5 416.5 L 131.5 416.5 M 127.5 390.5 L 131.5 390.5 M 127.5 364.5 L 131.5 364.5 M 127.5 338.5 L 131.5 338.5 M 127.5 312.5 L 131.5 312.5 M 127.5 286.5 L 131.5 286.5 M 127.5 261.5 L 131.5 261.5 M 127.5 235.5 L 131.5 235.5 M 127.5 209.5 L 131.5 209.5 M 127.5 183.5 L 131.5 183.5 M 127.5 157.5 L 131.5 157.5 M 127.5 131.5 L 131.5 131.5 M 127.5 106.5 L 131.5 106.5 M 127.5 80.5 L 131.5 80.5 M 127.5 54.5 L 131.5 54.5 M 127.5 28.5 L 131.5 28.5" stroke-opacity="1" stroke-linejoin="bevel" stroke-miterlimit="10" stroke-dasharray=""/><text fill="rgb(68,68,68)" stroke="none" font-family="helvetica" font-size="30px" font-style="normal" font-weight="normal" text-decoration="normal" x="103.3166675567627" y="788.227294921875" text-anchor="start" dominant-baseline="alphabetic" transform="matrix(1, 0, 0, 1, 0.5, 0.5)" fill-opacity="1">0</text><text fill="rgb(68,68,68)" stroke="none" font-family="helvetica" font-size="30px" font-style="normal" font-weight="normal" text-decoration="normal" x="53.26667022705078" y="659.064208984375" text-anchor="start" dominant-baseline="alphabetic" transform="matrix(1, 0, 0, 1, 0.5, 0.5)" fill-opacity="1">1000</text><text fill="rgb(68,68,68)" stroke="none" font-family="helvetica" font-size="30px" font-style="normal" font-weight="normal" text-decoration="normal" x="53.26667022705078" y="529.901123046875" text-anchor="start" dominant-baseline="alphabetic" transform="matrix(1, 0, 0, 1, 0.5, 0.5)" fill-opacity="1">2000</text><text fill="rgb(68,68,68)" stroke="none" font-family="helvetica" font-size="30px" font-style="normal" font-weight="normal" text-decoration="normal" x="53.26667022705078" y="400.738037109375" text-anchor="start" dominant-baseline="alphabetic" transform="matrix(1, 0, 0, 1, 0.5, 0.5)" fill-opacity="1">3000</text><text fill="rgb(68,68,68)" stroke="none" font-family="helvetica" font-size="30px" font-style="normal" font-weight="normal" text-decoration="normal" x="53.26667022705078" y="271.5749816894531" text-anchor="start" dominant-baseline="alphabetic" transform="matrix(1, 0, 0, 1, 0.5, 0.5)" fill-opacity="1">4000</text><text fill="rgb(68,68,68)" stroke="none" font-family="helvetica" font-size="30px" font-style="normal" font-weight="normal" text-decoration="normal" x="53.26667022705078" y="142.41189575195312" text-anchor="start" dominant-baseline="alphabetic" transform="matrix(1, 0, 0, 1, 0.5, 0.5)" fill-opacity="1">5000</text><text fill="rgb(68,68,68)" stroke="none" font-family="helvetica" font-size="36px" font-style="italic" font-weight="normal" text-decoration="normal" x="-99.5083236694336" y="401.5" text-anchor="start" dominant-baseline="alphabetic" transform="matrix(6.123233995736766e-17, -1, 1, 6.123233995736766e-17, -363.7333297729492, 455.2666702270508)" fill-opacity="1">Credible set count</text></svg>