<svg version="1.1" xmlns="http://www.w3.org/2000/svg" width="5000" height="3750"><defs><clipPath id="abuNpBOyTxqd"><path fill="none" stroke="none" d="M 490.5 5.5 L 4995.5 5.5 L 4995.5 3412.5 L 490.5 3412.5 L 490.5 5.5"/></clipPath><clipPath id="fGrmkVRKReXz"><path fill="none" stroke="none" d="M 490.5 5.5 L 4995.5 5.5 L 4995.5 3412.5 L 490.5 3412.5 L 490.5 5.5"/></clipPath><clipPath id="wkvBXmdmDvlV"><path fill="none" stroke="none" d="M 490.5 5.5 L 4995.5 5.5 L 4995.5 3412.5 L 490.5 3412.5 L 490.5 5.5"/></clipPath><clipPath id="tavTeZiTuPpa"><path fill="none" stroke="none" d="M 490.5 5.5 L 4995.5 5.5 L 4995.5 3412.5 L 490.5 3412.5 L 490.5 5.5"/></clipPath></defs><path fill="none" stroke="rgb(229,229,229)" paint-order="fill" d="M 490.5 5.5 L 4995.5 5.5 L 4995.5 3412.5 L 490.5 3412.5 L 490.5 5.5" stroke-opacity="1" stroke-linejoin="bevel" stroke-miterlimit="10" stroke-dasharray=""/><path fill="rgb(31,119,180)" stroke="rgb(31,119,180)" paint-order="fill" d="M 695.272705078125 2775.5478515625 L 736.227294921875 2775.5478515625 L 736.227294921875 3257.636474609375 L 695.272705078125 3257.636474609375 L 695.272705078125 2775.5478515625" fill-opacity="1" clip-path="url(#wkvBXmdmDvlV)" stroke-opacity="1" stroke-linejoin="bevel" stroke-miterlimit="10" stroke-dasharray=""/><path fill="rgb(31,119,180)" stroke="rgb(31,119,180)" paint-order="fill" d="M 736.227294921875 2519.845703125 L 777.1818237304688 2519.845703125 L 777.1818237304688 3257.636474609375 L 736.227294921875 3257.636474609375 L 736.227294921875 2519.845703125" fill-opacity="1" clip-path="url(#wkvBXmdmDvlV)" stroke-opacity="1" stroke-linejoin="bevel" stroke-miterlimit="10" stroke-dasharray=""/><path fill="rgb(31,119,180)" stroke="rgb(31,119,180)" paint-order="fill" d="M 777.1818237304688 2614.261474609375 L 818.1363525390625 2614.261474609375 L 818.1363525390625 3257.636474609375 L 777.1818237304688 3257.636474609375 L 777.1818237304688 2614.261474609375" fill-opacity="1" clip-path="url(#wkvBXmdmDvlV)" stroke-opacity="1" stroke-linejoin="bevel" stroke-miterlimit="10" stroke-dasharray=""/><path fill="rgb(31,119,180)" stroke="rgb(31,119,180)" paint-order="fill" d="M 818.1363525390625 2697.250732421875 L 859.0908813476562 2697.250732421875 L 859.0908813476562 3257.636474609375 L 818.1363525390625 3257.636474609375 L 818.1363525390625 2697.250732421875" fill-opacity="1" clip-path="url(#wkvBXmdmDvlV)" stroke-opacity="1" stroke-linejoin="bevel" stroke-miterlimit="10" stroke-dasharray=""/><path fill="rgb(31,119,180)" stroke="rgb(31,119,180)" paint-order="fill" d="M 859.0908813476562 2773.206787109375 L 900.0454711914062 2773.206787109375 L 900.0454711914062 3257.636474609375 L 859.0908813476562 3257.636474609375 L 859.0908813476562 2773.206787109375" fill-opacity="1" clip-path="url(#wkvBXmdmDvlV)" stroke-opacity="1" stroke-linejoin="bevel" stroke-miterlimit="10" stroke-dasharray=""/><path fill="rgb(31,119,180)" stroke="rgb(31,119,180)" paint-order="fill" d="M 900.0454711914062 2835.388916015625 L 941 2835.388916015625 L 941 3257.636474609375 L 900.0454711914062 3257.636474609375 L 900.0454711914062 2835.388916015625" fill-opacity="1" clip-path="url(#wkvBXmdmDvlV)" stroke-opacity="1" stroke-linejoin="bevel" stroke-miterlimit="10" stroke-dasharray=""/><path fill="rgb(31,119,180)" stroke="rgb(31,119,180)" paint-order="fill" d="M 941 2880.804443359375 L 981.9545288085938 2880.804443359375 L 981.9545288085938 3257.636474609375 L 941 3257.636474609375 L 941 2880.804443359375" fill-opacity="1" clip-path="url(#wkvBXmdmDvlV)" stroke-opacity="1" stroke-linejoin="bevel" stroke-miterlimit="10" stroke-dasharray=""/><path fill="rgb(31,119,180)" stroke="rgb(31,119,180)" paint-order="fill" d="M 981.9545288085938 2931.713623046875 L 1022.9091186523438 2931.713623046875 L 1022.9091186523438 3257.636474609375 L 981.9545288085938 3257.636474609375 L 981.9545288085938 2931.713623046875" fill-opacity="1" clip-path="url(#wkvBXmdmDvlV)" stroke-opacity="1" stroke-linejoin="bevel" stroke-miterlimit="10" stroke-dasharray=""/><path fill="rgb(31,119,180)" stroke="rgb(31,119,180)" paint-order="fill" d="M 1022.9091186523438 2960.914794921875 L 1063.8636474609375 2960.914794921875 L 1063.8636474609375 3257.636474609375 L 1022.9091186523438 3257.636474609375 L 1022.9091186523438 2960.914794921875" fill-opacity="1" clip-path="url(#wkvBXmdmDvlV)" stroke-opacity="1" stroke-linejoin="bevel" stroke-miterlimit="10" stroke-dasharray=""/><path fill="rgb(31,119,180)" stroke="rgb(31,119,180)" paint-order="fill" d="M 1063.8636474609375 2988.07568359375 L 1104.8182373046875 2988.07568359375 L 1104.8182373046875 3257.636474609375 L 1063.8636474609375 3257.636474609375 L 1063.8636474609375 2988.07568359375" fill-opacity="1" clip-path="url(#wkvBXmdmDvlV)" stroke-opacity="1" stroke-linejoin="bevel" stroke-miterlimit="10" stroke-dasharray=""/><path fill="rgb(31,119,180)" stroke="rgb(31,119,180)" paint-order="fill" d="M 1104.8182373046875 2997.88427734375 L 1145.772705078125 2997.88427734375 L 1145.772705078125 3257.636474609375 L 1104.8182373046875 3257.636474609375 L 1104.8182373046875 2997.88427734375" fill-opacity="1" clip-path="url(#wkvBXmdmDvlV)" stroke-opacity="1" stroke-linejoin="bevel" stroke-miterlimit="10" stroke-dasharray=""/><path fill="rgb(31,119,180)" stroke="rgb(31,119,180)" paint-order="fill" d="M 1145.772705078125 3017.740966796875 L 1186.727294921875 3017.740966796875 L 1186.727294921875 3257.636474609375 L 1145.772705078125 3257.636474609375 L 1145.772705078125 3017.740966796875" fill-opacity="1" clip-path="url(#wkvBXmdmDvlV)" stroke-opacity="1" stroke-linejoin="bevel" stroke-miterlimit="10" stroke-dasharray=""/><path fill="rgb(31,119,180)" stroke="rgb(31,119,180)" paint-order="fill" d="M 1186.727294921875 3034.34814453125 L 1227.6817626953125 3034.34814453125 L 1227.6817626953125 3257.636474609375 L 1186.727294921875 3257.636474609375 L 1186.727294921875 3034.34814453125" fill-opacity="1" clip-path="url(#wkvBXmdmDvlV)" stroke-opacity="1" stroke-linejoin="bevel" stroke-miterlimit="10" stroke-dasharray=""/><path fill="rgb(31,119,180)" stroke="rgb(31,119,180)" paint-order="fill" d="M 1227.6817626953125 3054.031005859375 L 1268.6363525390625 3054.031005859375 L 1268.6363525390625 3257.636474609375 L 1227.6817626953125 3257.636474609375 L 1227.6817626953125 3054.031005859375" fill-opacity="1" clip-path="url(#wkvBXmdmDvlV)" stroke-opacity="1" stroke-linejoin="bevel" stroke-miterlimit="10" stroke-dasharray=""/><path fill="rgb(31,119,180)" stroke="rgb(31,119,180)" paint-order="fill" d="M 1268.6363525390625 3070.28857421875 L 1309.5909423828125 3070.28857421875 L 1309.5909423828125 3257.636474609375 L 1268.6363525390625 3257.636474609375 L 1268.6363525390625 3070.28857421875" fill-opacity="1" clip-path="url(#wkvBXmdmDvlV)" stroke-opacity="1" stroke-linejoin="bevel" stroke-miterlimit="10" stroke-dasharray=""/><path fill="rgb(31,119,180)" stroke="rgb(31,119,180)" paint-order="fill" d="M 1309.5909423828125 3086.268310546875 L 1350.54541015625 3086.268310546875 L 1350.54541015625 3257.636474609375 L 1309.5909423828125 3257.636474609375 L 1309.5909423828125 3086.268310546875" fill-opacity="1" clip-path="url(#wkvBXmdmDvlV)" stroke-opacity="1" stroke-linejoin="bevel" stroke-miterlimit="10" stroke-dasharray=""/><path fill="rgb(31,119,180)" stroke="rgb(31,119,180)" paint-order="fill" d="M 1350.54541015625 3090.3974609375 L 1391.5 3090.3974609375 L 1391.5 3257.636474609375 L 1350.54541015625 3257.636474609375 L 1350.54541015625 3090.3974609375" fill-opacity="1" clip-path="url(#wkvBXmdmDvlV)" stroke-opacity="1" stroke-linejoin="bevel" stroke-miterlimit="10" stroke-dasharray=""/><path fill="rgb(31,119,180)" stroke="rgb(31,119,180)" paint-order="fill" d="M 1391.5 3099.55126953125 L 1432.45458984375 3099.55126953125 L 1432.45458984375 3257.636474609375 L 1391.5 3257.636474609375 L 1391.5 3099.55126953125" fill-opacity="1" clip-path="url(#wkvBXmdmDvlV)" stroke-opacity="1" stroke-linejoin="bevel" stroke-miterlimit="10" stroke-dasharray=""/><path fill="rgb(31,119,180)" stroke="rgb(31,119,180)" paint-order="fill" d="M 1432.45458984375 3100.8544921875 L 1473.4090576171875 3100.8544921875 L 1473.4090576171875 3257.636474609375 L 1432.45458984375 3257.636474609375 L 1432.45458984375 3100.8544921875" fill-opacity="1" clip-path="url(#wkvBXmdmDvlV)" stroke-opacity="1" stroke-linejoin="bevel" stroke-miterlimit="10" stroke-dasharray=""/><path fill="rgb(31,119,180)" stroke="rgb(31,119,180)" paint-order="fill" d="M 1473.4090576171875 3120.996826171875 L 1514.3636474609375 3120.996826171875 L 1514.3636474609375 3257.636474609375 L 1473.4090576171875 3257.636474609375 L 1473.4090576171875 3120.996826171875" fill-opacity="1" clip-path="url(#wkvBXmdmDvlV)" stroke-opacity="1" stroke-linejoin="bevel" stroke-miterlimit="10" stroke-dasharray=""/><path fill="rgb(31,119,180)" stroke="rgb(31,119,180)" paint-order="fill" d="M 1514.3636474609375 3119.0810546875 L 1555.3182373046875 3119.0810546875 L 1555.3182373046875 3257.636474609375 L 1514.3636474609375 3257.636474609375 L 1514.3636474609375 3119.0810546875" fill-opacity="1" clip-path="url(#wkvBXmdmDvlV)" stroke-opacity="1" stroke-linejoin="bevel" stroke-miterlimit="10" stroke-dasharray=""/><path fill="rgb(31,119,180)" stroke="rgb(31,119,180)" paint-order="fill" d="M 1555.3182373046875 3127.262939453125 L 1596.272705078125 3127.262939453125 L 1596.272705078125 3257.636474609375 L 1555.3182373046875 3257.636474609375 L 1555.3182373046875 3127.262939453125" fill-opacity="1" clip-path="url(#wkvBXmdmDvlV)" stroke-opacity="1" stroke-linejoin="bevel" stroke-miterlimit="10" stroke-dasharray=""/><path fill="rgb(31,119,180)" stroke="rgb(31,119,180)" paint-order="fill" d="M 1596.272705078125 3137.327392578125 L 1637.227294921875 3137.327392578125 L 1637.227294921875 3257.636474609375 L 1596.272705078125 3257.636474609375 L 1596.272705078125 3137.327392578125" fill-opacity="1" clip-path="url(#wkvBXmdmDvlV)" stroke-opacity="1" stroke-linejoin="bevel" stroke-miterlimit="10" stroke-dasharray=""/><path fill="rgb(31,119,180)" stroke="rgb(31,119,180)" paint-order="fill" d="M 1637.227294921875 3142.236083984375 L 1678.1817626953125 3142.236083984375 L 1678.1817626953125 3257.636474609375 L 1637.227294921875 3257.636474609375 L 1637.227294921875 3142.236083984375" fill-opacity="1" clip-path="url(#wkvBXmdmDvlV)" stroke-opacity="1" stroke-linejoin="bevel" stroke-miterlimit="10" stroke-dasharray=""/><path fill="rgb(31,119,180)" stroke="rgb(31,119,180)" paint-order="fill" d="M 1678.1817626953125 3150.556640625 L 1719.1363525390625 3150.556640625 L 1719.1363525390625 3257.636474609375 L 1678.1817626953125 3257.636474609375 L 1678.1817626953125 3150.556640625" fill-opacity="1" clip-path="url(#wkvBXmdmDvlV)" stroke-opacity="1" stroke-linejoin="bevel" stroke-miterlimit="10" stroke-dasharray=""/><path fill="rgb(31,119,180)" stroke="rgb(31,119,180)" paint-order="fill" d="M 1719.1363525390625 3151.765625 L 1760.0909423828125 3151.765625 L 1760.0909423828125 3257.636474609375 L 1719.1363525390625 3257.636474609375 L 1719.1363525390625 3151.765625" fill-opacity="1" clip-path="url(#wkvBXmdmDvlV)" stroke-opacity="1" stroke-linejoin="bevel" stroke-miterlimit="10" stroke-dasharray=""/><path fill="rgb(31,119,180)" stroke="rgb(31,119,180)" paint-order="fill" d="M 1760.0909423828125 3144.213623046875 L 1801.04541015625 3144.213623046875 L 1801.04541015625 3257.636474609375 L 1760.0909423828125 3257.636474609375 L 1760.0909423828125 3144.213623046875" fill-opacity="1" clip-path="url(#wkvBXmdmDvlV)" stroke-opacity="1" stroke-linejoin="bevel" stroke-miterlimit="10" stroke-dasharray=""/><path fill="rgb(31,119,180)" stroke="rgb(31,119,180)" paint-order="fill" d="M 1801.04541015625 3156.62890625 L 1842 3156.62890625 L 1842 3257.636474609375 L 1801.04541015625 3257.636474609375 L 1801.04541015625 3156.62890625" fill-opacity="1" clip-path="url(#wkvBXmdmDvlV)" stroke-opacity="1" stroke-linejoin="bevel" stroke-miterlimit="10" stroke-dasharray=""/><path fill="rgb(31,119,180)" stroke="rgb(31,119,180)" paint-order="fill" d="M 1842 3158.160888671875 L 1882.95458984375 3158.160888671875 L 1882.95458984375 3257.636474609375 L 1842 3257.636474609375 L 1842 3158.160888671875" fill-opacity="1" clip-path="url(#wkvBXmdmDvlV)" stroke-opacity="1" stroke-linejoin="bevel" stroke-miterlimit="10" stroke-dasharray=""/><path fill="rgb(31,119,180)" stroke="rgb(31,119,180)" paint-order="fill" d="M 1882.95458984375 3153.942138671875 L 1923.9090576171875 3153.942138671875 L 1923.9090576171875 3257.636474609375 L 1882.95458984375 3257.636474609375 L 1882.95458984375 3153.942138671875" fill-opacity="1" clip-path="url(#wkvBXmdmDvlV)" stroke-opacity="1" stroke-linejoin="bevel" stroke-miterlimit="10" stroke-dasharray=""/><path fill="rgb(31,119,180)" stroke="rgb(31,119,180)" paint-order="fill" d="M 1923.9090576171875 3161.109375 L 1964.8636474609375 3161.109375 L 1964.8636474609375 3257.636474609375 L 1923.9090576171875 3257.636474609375 L 1923.9090576171875 3161.109375" fill-opacity="1" clip-path="url(#wkvBXmdmDvlV)" stroke-opacity="1" stroke-linejoin="bevel" stroke-miterlimit="10" stroke-dasharray=""/><path fill="rgb(31,119,180)" stroke="rgb(31,119,180)" paint-order="fill" d="M 1964.8636474609375 3156.037353515625 L 2005.8182373046875 3156.037353515625 L 2005.8182373046875 3257.636474609375 L 1964.8636474609375 3257.636474609375 L 1964.8636474609375 3156.037353515625" fill-opacity="1" clip-path="url(#wkvBXmdmDvlV)" stroke-opacity="1" stroke-linejoin="bevel" stroke-miterlimit="10" stroke-dasharray=""/><path fill="rgb(31,119,180)" stroke="rgb(31,119,180)" paint-order="fill" d="M 2005.8182373046875 3157.668212890625 L 2046.772705078125 3157.668212890625 L 2046.772705078125 3257.636474609375 L 2005.8182373046875 3257.636474609375 L 2005.8182373046875 3157.668212890625" fill-opacity="1" clip-path="url(#wkvBXmdmDvlV)" stroke-opacity="1" stroke-linejoin="bevel" stroke-miterlimit="10" stroke-dasharray=""/><path fill="rgb(31,119,180)" stroke="rgb(31,119,180)" paint-order="fill" d="M 2046.772705078125 3166.71484375 L 2087.727294921875 3166.71484375 L 2087.727294921875 3257.636474609375 L 2046.772705078125 3257.636474609375 L 2046.772705078125 3166.71484375" fill-opacity="1" clip-path="url(#wkvBXmdmDvlV)" stroke-opacity="1" stroke-linejoin="bevel" stroke-miterlimit="10" stroke-dasharray=""/><path fill="rgb(31,119,180)" stroke="rgb(31,119,180)" paint-order="fill" d="M 2087.727294921875 3181.571044921875 L 2128.681884765625 3181.571044921875 L 2128.681884765625 3257.636474609375 L 2087.727294921875 3257.636474609375 L 2087.727294921875 3181.571044921875" fill-opacity="1" clip-path="url(#wkvBXmdmDvlV)" stroke-opacity="1" stroke-linejoin="bevel" stroke-miterlimit="10" stroke-dasharray=""/><path fill="rgb(31,119,180)" stroke="rgb(31,119,180)" paint-order="fill" d="M 2128.681884765625 3169.891357421875 L 2169.636474609375 3169.891357421875 L 2169.636474609375 3257.636474609375 L 2128.681884765625 3257.636474609375 L 2128.681884765625 3169.891357421875" fill-opacity="1" clip-path="url(#wkvBXmdmDvlV)" stroke-opacity="1" stroke-linejoin="bevel" stroke-miterlimit="10" stroke-dasharray=""/><path fill="rgb(31,119,180)" stroke="rgb(31,119,180)" paint-order="fill" d="M 2169.636474609375 3188.0107421875 L 2210.5908203125 3188.0107421875 L 2210.5908203125 3257.636474609375 L 2169.636474609375 3257.636474609375 L 2169.636474609375 3188.0107421875" fill-opacity="1" clip-path="url(#wkvBXmdmDvlV)" stroke-opacity="1" stroke-linejoin="bevel" stroke-miterlimit="10" stroke-dasharray=""/><path fill="rgb(31,119,180)" stroke="rgb(31,119,180)" paint-order="fill" d="M 2210.5908203125 3179.6328125 L 2251.54541015625 3179.6328125 L 2251.54541015625 3257.636474609375 L 2210.5908203125 3257.636474609375 L 2210.5908203125 3179.6328125" fill-opacity="1" clip-path="url(#wkvBXmdmDvlV)" stroke-opacity="1" stroke-linejoin="bevel" stroke-miterlimit="10" stroke-dasharray=""/><path fill="rgb(31,119,180)" stroke="rgb(31,119,180)" paint-order="fill" d="M 2251.54541015625 3186.818359375 L 2292.5 3186.818359375 L 2292.5 3257.636474609375 L 2251.54541015625 3257.636474609375 L 2251.54541015625 3186.818359375" fill-opacity="1" clip-path="url(#wkvBXmdmDvlV)" stroke-opacity="1" stroke-linejoin="bevel" stroke-miterlimit="10" stroke-dasharray=""/><path fill="rgb(31,119,180)" stroke="rgb(31,119,180)" paint-order="fill" d="M 2292.5 3174.522216796875 L 2333.45458984375 3174.522216796875 L 2333.45458984375 3257.636474609375 L 2292.5 3257.636474609375 L 2292.5 3174.522216796875" fill-opacity="1" clip-path="url(#wkvBXmdmDvlV)" stroke-opacity="1" stroke-linejoin="bevel" stroke-miterlimit="10" stroke-dasharray=""/><path fill="rgb(31,119,180)" stroke="rgb(31,119,180)" paint-order="fill" d="M 2333.45458984375 3175.700439453125 L 2374.4091796875 3175.700439453125 L 2374.4091796875 3257.636474609375 L 2333.45458984375 3257.636474609375 L 2333.45458984375 3175.700439453125" fill-opacity="1" clip-path="url(#wkvBXmdmDvlV)" stroke-opacity="1" stroke-linejoin="bevel" stroke-miterlimit="10" stroke-dasharray=""/><path fill="rgb(31,119,180)" stroke="rgb(31,119,180)" paint-order="fill" d="M 2374.4091796875 3185.193603515625 L 2415.363525390625 3185.193603515625 L 2415.363525390625 3257.636474609375 L 2374.4091796875 3257.636474609375 L 2374.4091796875 3185.193603515625" fill-opacity="1" clip-path="url(#wkvBXmdmDvlV)" stroke-opacity="1" stroke-linejoin="bevel" stroke-miterlimit="10" stroke-dasharray=""/><path fill="rgb(31,119,180)" stroke="rgb(31,119,180)" paint-order="fill" d="M 2415.363525390625 3191.254638671875 L 2456.318115234375 3191.254638671875 L 2456.318115234375 3257.636474609375 L 2415.363525390625 3257.636474609375 L 2415.363525390625 3191.254638671875" fill-opacity="1" clip-path="url(#wkvBXmdmDvlV)" stroke-opacity="1" stroke-linejoin="bevel" stroke-miterlimit="10" stroke-dasharray=""/><path fill="rgb(31,119,180)" stroke="rgb(31,119,180)" paint-order="fill" d="M 2456.318115234375 3188.717529296875 L 2497.272705078125 3188.717529296875 L 2497.272705078125 3257.636474609375 L 2456.318115234375 3257.636474609375 L 2456.318115234375 3188.717529296875" fill-opacity="1" clip-path="url(#wkvBXmdmDvlV)" stroke-opacity="1" stroke-linejoin="bevel" stroke-miterlimit="10" stroke-dasharray=""/><path fill="rgb(31,119,180)" stroke="rgb(31,119,180)" paint-order="fill" d="M 2497.272705078125 3194.846435546875 L 2538.227294921875 3194.846435546875 L 2538.227294921875 3257.636474609375 L 2497.272705078125 3257.636474609375 L 2497.272705078125 3194.846435546875" fill-opacity="1" clip-path="url(#wkvBXmdmDvlV)" stroke-opacity="1" stroke-linejoin="bevel" stroke-miterlimit="10" stroke-dasharray=""/><path fill="rgb(31,119,180)" stroke="rgb(31,119,180)" paint-order="fill" d="M 2538.227294921875 3192.4267578125 L 2579.181884765625 3192.4267578125 L 2579.181884765625 3257.636474609375 L 2538.227294921875 3257.636474609375 L 2538.227294921875 3192.4267578125" fill-opacity="1" clip-path="url(#wkvBXmdmDvlV)" stroke-opacity="1" stroke-linejoin="bevel" stroke-miterlimit="10" stroke-dasharray=""/><path fill="rgb(31,119,180)" stroke="rgb(31,119,180)" paint-order="fill" d="M 2579.181884765625 3202.302001953125 L 2620.136474609375 3202.302001953125 L 2620.136474609375 3257.636474609375 L 2579.181884765625 3257.636474609375 L 2579.181884765625 3202.302001953125" fill-opacity="1" clip-path="url(#wkvBXmdmDvlV)" stroke-opacity="1" stroke-linejoin="bevel" stroke-miterlimit="10" stroke-dasharray=""/><path fill="rgb(31,119,180)" stroke="rgb(31,119,180)" paint-order="fill" d="M 2620.136474609375 3191.189453125 L 2661.0908203125 3191.189453125 L 2661.0908203125 3257.636474609375 L 2620.136474609375 3257.636474609375 L 2620.136474609375 3191.189453125" fill-opacity="1" clip-path="url(#wkvBXmdmDvlV)" stroke-opacity="1" stroke-linejoin="bevel" stroke-miterlimit="10" stroke-dasharray=""/><path fill="rgb(31,119,180)" stroke="rgb(31,119,180)" paint-order="fill" d="M 2661.0908203125 3197.620361328125 L 2702.04541015625 3197.620361328125 L 2702.04541015625 3257.636474609375 L 2661.0908203125 3257.636474609375 L 2661.0908203125 3197.620361328125" fill-opacity="1" clip-path="url(#wkvBXmdmDvlV)" stroke-opacity="1" stroke-linejoin="bevel" stroke-miterlimit="10" stroke-dasharray=""/><path fill="rgb(31,119,180)" stroke="rgb(31,119,180)" paint-order="fill" d="M 2702.04541015625 3175.73779296875 L 2743 3175.73779296875 L 2743 3257.636474609375 L 2702.04541015625 3257.636474609375 L 2702.04541015625 3175.73779296875" fill-opacity="1" clip-path="url(#wkvBXmdmDvlV)" stroke-opacity="1" stroke-linejoin="bevel" stroke-miterlimit="10" stroke-dasharray=""/><path fill="rgb(31,119,180)" stroke="rgb(31,119,180)" paint-order="fill" d="M 2743 3194.599365234375 L 2783.95458984375 3194.599365234375 L 2783.95458984375 3257.636474609375 L 2743 3257.636474609375 L 2743 3194.599365234375" fill-opacity="1" clip-path="url(#wkvBXmdmDvlV)" stroke-opacity="1" stroke-linejoin="bevel" stroke-miterlimit="10" stroke-dasharray=""/><path fill="rgb(31,119,180)" stroke="rgb(31,119,180)" paint-order="fill" d="M 2783.95458984375 3204.0703125 L 2824.9091796875 3204.0703125 L 2824.9091796875 3257.636474609375 L 2783.95458984375 3257.636474609375 L 2783.95458984375 3204.0703125" fill-opacity="1" clip-path="url(#wkvBXmdmDvlV)" stroke-opacity="1" stroke-linejoin="bevel" stroke-miterlimit="10" stroke-dasharray=""/><path fill="rgb(31,119,180)" stroke="rgb(31,119,180)" paint-order="fill" d="M 2824.9091796875 3201.819580078125 L 2865.863525390625 3201.819580078125 L 2865.863525390625 3257.636474609375 L 2824.9091796875 3257.636474609375 L 2824.9091796875 3201.819580078125" fill-opacity="1" clip-path="url(#wkvBXmdmDvlV)" stroke-opacity="1" stroke-linejoin="bevel" stroke-miterlimit="10" stroke-dasharray=""/><path fill="rgb(31,119,180)" stroke="rgb(31,119,180)" paint-order="fill" d="M 2865.863525390625 3203.8037109375 L 2906.818115234375 3203.8037109375 L 2906.818115234375 3257.636474609375 L 2865.863525390625 3257.636474609375 L 2865.863525390625 3203.8037109375" fill-opacity="1" clip-path="url(#wkvBXmdmDvlV)" stroke-opacity="1" stroke-linejoin="bevel" stroke-miterlimit="10" stroke-dasharray=""/><path fill="rgb(31,119,180)" stroke="rgb(31,119,180)" paint-order="fill" d="M 2906.818115234375 3196.497802734375 L 2947.772705078125 3196.497802734375 L 2947.772705078125 3257.636474609375 L 2906.818115234375 3257.636474609375 L 2906.818115234375 3196.497802734375" fill-opacity="1" clip-path="url(#wkvBXmdmDvlV)" stroke-opacity="1" stroke-linejoin="bevel" stroke-miterlimit="10" stroke-dasharray=""/><path fill="rgb(31,119,180)" stroke="rgb(31,119,180)" paint-order="fill" d="M 2947.772705078125 3200.529541015625 L 2988.727294921875 3200.529541015625 L 2988.727294921875 3257.636474609375 L 2947.772705078125 3257.636474609375 L 2947.772705078125 3200.529541015625" fill-opacity="1" clip-path="url(#wkvBXmdmDvlV)" stroke-opacity="1" stroke-linejoin="bevel" stroke-miterlimit="10" stroke-dasharray=""/><path fill="rgb(31,119,180)" stroke="rgb(31,119,180)" paint-order="fill" d="M 2988.727294921875 3210.6552734375 L 3029.681884765625 3210.6552734375 L 3029.681884765625 3257.636474609375 L 2988.727294921875 3257.636474609375 L 2988.727294921875 3210.6552734375" fill-opacity="1" clip-path="url(#wkvBXmdmDvlV)" stroke-opacity="1" stroke-linejoin="bevel" stroke-miterlimit="10" stroke-dasharray=""/><path fill="rgb(31,119,180)" stroke="rgb(31,119,180)" paint-order="fill" d="M 3029.681884765625 3209.8017578125 L 3070.636474609375 3209.8017578125 L 3070.636474609375 3257.636474609375 L 3029.681884765625 3257.636474609375 L 3029.681884765625 3209.8017578125" fill-opacity="1" clip-path="url(#wkvBXmdmDvlV)" stroke-opacity="1" stroke-linejoin="bevel" stroke-miterlimit="10" stroke-dasharray=""/><path fill="rgb(31,119,180)" stroke="rgb(31,119,180)" paint-order="fill" d="M 3070.636474609375 3188.020263671875 L 3111.5908203125 3188.020263671875 L 3111.5908203125 3257.636474609375 L 3070.636474609375 3257.636474609375 L 3070.636474609375 3188.020263671875" fill-opacity="1" clip-path="url(#wkvBXmdmDvlV)" stroke-opacity="1" stroke-linejoin="bevel" stroke-miterlimit="10" stroke-dasharray=""/><path fill="rgb(31,119,180)" stroke="rgb(31,119,180)" paint-order="fill" d="M 3111.5908203125 3207.42333984375 L 3152.54541015625 3207.42333984375 L 3152.54541015625 3257.636474609375 L 3111.5908203125 3257.636474609375 L 3111.5908203125 3207.42333984375" fill-opacity="1" clip-path="url(#wkvBXmdmDvlV)" stroke-opacity="1" stroke-linejoin="bevel" stroke-miterlimit="10" stroke-dasharray=""/><path fill="rgb(31,119,180)" stroke="rgb(31,119,180)" paint-order="fill" d="M 3152.54541015625 3201.69580078125 L 3193.5 3201.69580078125 L 3193.5 3257.636474609375 L 3152.54541015625 3257.636474609375 L 3152.54541015625 3201.69580078125" fill-opacity="1" clip-path="url(#wkvBXmdmDvlV)" stroke-opacity="1" stroke-linejoin="bevel" stroke-miterlimit="10" stroke-dasharray=""/><path fill="rgb(31,119,180)" stroke="rgb(31,119,180)" paint-order="fill" d="M 3193.5 3222.767822265625 L 3234.45458984375 3222.767822265625 L 3234.45458984375 3257.636474609375 L 3193.5 3257.636474609375 L 3193.5 3222.767822265625" fill-opacity="1" clip-path="url(#wkvBXmdmDvlV)" stroke-opacity="1" stroke-linejoin="bevel" stroke-miterlimit="10" stroke-dasharray=""/><path fill="rgb(31,119,180)" stroke="rgb(31,119,180)" paint-order="fill" d="M 3234.45458984375 3206.34130859375 L 3275.4091796875 3206.34130859375 L 3275.4091796875 3257.636474609375 L 3234.45458984375 3257.636474609375 L 3234.45458984375 3206.34130859375" fill-opacity="1" clip-path="url(#wkvBXmdmDvlV)" stroke-opacity="1" stroke-linejoin="bevel" stroke-miterlimit="10" stroke-dasharray=""/><path fill="rgb(31,119,180)" stroke="rgb(31,119,180)" paint-order="fill" d="M 3275.4091796875 3219.4658203125 L 3316.363525390625 3219.4658203125 L 3316.363525390625 3257.636474609375 L 3275.4091796875 3257.636474609375 L 3275.4091796875 3219.4658203125" fill-opacity="1" clip-path="url(#wkvBXmdmDvlV)" stroke-opacity="1" stroke-linejoin="bevel" stroke-miterlimit="10" stroke-dasharray=""/><path fill="rgb(31,119,180)" stroke="rgb(31,119,180)" paint-order="fill" d="M 3316.363525390625 3208.419921875 L 3357.318115234375 3208.419921875 L 3357.318115234375 3257.636474609375 L 3316.363525390625 3257.636474609375 L 3316.363525390625 3208.419921875" fill-opacity="1" clip-path="url(#wkvBXmdmDvlV)" stroke-opacity="1" stroke-linejoin="bevel" stroke-miterlimit="10" stroke-dasharray=""/><path fill="rgb(31,119,180)" stroke="rgb(31,119,180)" paint-order="fill" d="M 3357.318115234375 3217.50830078125 L 3398.272705078125 3217.50830078125 L 3398.272705078125 3257.636474609375 L 3357.318115234375 3257.636474609375 L 3357.318115234375 3217.50830078125" fill-opacity="1" clip-path="url(#wkvBXmdmDvlV)" stroke-opacity="1" stroke-linejoin="bevel" stroke-miterlimit="10" stroke-dasharray=""/><path fill="rgb(31,119,180)" stroke="rgb(31,119,180)" paint-order="fill" d="M 3398.272705078125 3210.7666015625 L 3439.227294921875 3210.7666015625 L 3439.227294921875 3257.636474609375 L 3398.272705078125 3257.636474609375 L 3398.272705078125 3210.7666015625" fill-opacity="1" clip-path="url(#wkvBXmdmDvlV)" stroke-opacity="1" stroke-linejoin="bevel" stroke-miterlimit="10" stroke-dasharray=""/><path fill="rgb(31,119,180)" stroke="rgb(31,119,180)" paint-order="fill" d="M 3439.227294921875 3208.495361328125 L 3480.181884765625 3208.495361328125 L 3480.181884765625 3257.636474609375 L 3439.227294921875 3257.636474609375 L 3439.227294921875 3208.495361328125" fill-opacity="1" clip-path="url(#wkvBXmdmDvlV)" stroke-opacity="1" stroke-linejoin="bevel" stroke-miterlimit="10" stroke-dasharray=""/><path fill="rgb(31,119,180)" stroke="rgb(31,119,180)" paint-order="fill" d="M 3480.181884765625 3212.5263671875 L 3521.136474609375 3212.5263671875 L 3521.136474609375 3257.636474609375 L 3480.181884765625 3257.636474609375 L 3480.181884765625 3212.5263671875" fill-opacity="1" clip-path="url(#wkvBXmdmDvlV)" stroke-opacity="1" stroke-linejoin="bevel" stroke-miterlimit="10" stroke-dasharray=""/><path fill="rgb(31,119,180)" stroke="rgb(31,119,180)" paint-order="fill" d="M 3521.136474609375 3219.843017578125 L 3562.0908203125 3219.843017578125 L 3562.0908203125 3257.636474609375 L 3521.136474609375 3257.636474609375 L 3521.136474609375 3219.843017578125" fill-opacity="1" clip-path="url(#wkvBXmdmDvlV)" stroke-opacity="1" stroke-linejoin="bevel" stroke-miterlimit="10" stroke-dasharray=""/><path fill="rgb(31,119,180)" stroke="rgb(31,119,180)" paint-order="fill" d="M 3562.0908203125 3203.87548828125 L 3603.04541015625 3203.87548828125 L 3603.04541015625 3257.636474609375 L 3562.0908203125 3257.636474609375 L 3562.0908203125 3203.87548828125" fill-opacity="1" clip-path="url(#wkvBXmdmDvlV)" stroke-opacity="1" stroke-linejoin="bevel" stroke-miterlimit="10" stroke-dasharray=""/><path fill="rgb(31,119,180)" stroke="rgb(31,119,180)" paint-order="fill" d="M 3603.04541015625 3214.6337890625 L 3644 3214.6337890625 L 3644 3257.636474609375 L 3603.04541015625 3257.636474609375 L 3603.04541015625 3214.6337890625" fill-opacity="1" clip-path="url(#wkvBXmdmDvlV)" stroke-opacity="1" stroke-linejoin="bevel" stroke-miterlimit="10" stroke-dasharray=""/><path fill="rgb(31,119,180)" stroke="rgb(31,119,180)" paint-order="fill" d="M 3644 3199.81982421875 L 3684.95458984375 3199.81982421875 L 3684.95458984375 3257.636474609375 L 3644 3257.636474609375 L 3644 3199.81982421875" fill-opacity="1" clip-path="url(#wkvBXmdmDvlV)" stroke-opacity="1" stroke-linejoin="bevel" stroke-miterlimit="10" stroke-dasharray=""/><path fill="rgb(31,119,180)" stroke="rgb(31,119,180)" paint-order="fill" d="M 3684.95458984375 3224.504150390625 L 3725.9091796875 3224.504150390625 L 3725.9091796875 3257.636474609375 L 3684.95458984375 3257.636474609375 L 3684.95458984375 3224.504150390625" fill-opacity="1" clip-path="url(#wkvBXmdmDvlV)" stroke-opacity="1" stroke-linejoin="bevel" stroke-miterlimit="10" stroke-dasharray=""/><path fill="rgb(31,119,180)" stroke="rgb(31,119,180)" paint-order="fill" d="M 3725.9091796875 3212.86767578125 L 3766.863525390625 3212.86767578125 L 3766.863525390625 3257.636474609375 L 3725.9091796875 3257.636474609375 L 3725.9091796875 3212.86767578125" fill-opacity="1" clip-path="url(#wkvBXmdmDvlV)" stroke-opacity="1" stroke-linejoin="bevel" stroke-miterlimit="10" stroke-dasharray=""/><path fill="rgb(31,119,180)" stroke="rgb(31,119,180)" paint-order="fill" d="M 3766.863525390625 3213.994140625 L 3807.818115234375 3213.994140625 L 3807.818115234375 3257.636474609375 L 3766.863525390625 3257.636474609375 L 3766.863525390625 3213.994140625" fill-opacity="1" clip-path="url(#wkvBXmdmDvlV)" stroke-opacity="1" stroke-linejoin="bevel" stroke-miterlimit="10" stroke-dasharray=""/><path fill="rgb(31,119,180)" stroke="rgb(31,119,180)" paint-order="fill" d="M 3807.818115234375 3205.460205078125 L 3848.772705078125 3205.460205078125 L 3848.772705078125 3257.636474609375 L 3807.818115234375 3257.636474609375 L 3807.818115234375 3205.460205078125" fill-opacity="1" clip-path="url(#wkvBXmdmDvlV)" stroke-opacity="1" stroke-linejoin="bevel" stroke-miterlimit="10" stroke-dasharray=""/><path fill="rgb(31,119,180)" stroke="rgb(31,119,180)" paint-order="fill" d="M 3848.772705078125 3213.68896484375 L 3889.727294921875 3213.68896484375 L 3889.727294921875 3257.636474609375 L 3848.772705078125 3257.636474609375 L 3848.772705078125 3213.68896484375" fill-opacity="1" clip-path="url(#wkvBXmdmDvlV)" stroke-opacity="1" stroke-linejoin="bevel" stroke-miterlimit="10" stroke-dasharray=""/><path fill="rgb(31,119,180)" stroke="rgb(31,119,180)" paint-order="fill" d="M 3889.727294921875 3208.59228515625 L 3930.681884765625 3208.59228515625 L 3930.681884765625 3257.636474609375 L 3889.727294921875 3257.636474609375 L 3889.727294921875 3208.59228515625" fill-opacity="1" clip-path="url(#wkvBXmdmDvlV)" stroke-opacity="1" stroke-linejoin="bevel" stroke-miterlimit="10" stroke-dasharray=""/><path fill="rgb(31,119,180)" stroke="rgb(31,119,180)" paint-order="fill" d="M 3930.681884765625 3215.349609375 L 3971.636474609375 3215.349609375 L 3971.636474609375 3257.636474609375 L 3930.681884765625 3257.636474609375 L 3930.681884765625 3215.349609375" fill-opacity="1" clip-path="url(#wkvBXmdmDvlV)" stroke-opacity="1" stroke-linejoin="bevel" stroke-miterlimit="10" stroke-dasharray=""/><path fill="rgb(31,119,180)" stroke="rgb(31,119,180)" paint-order="fill" d="M 3971.636474609375 3216.7060546875 L 4012.5908203125 3216.7060546875 L 4012.5908203125 3257.636474609375 L 3971.636474609375 3257.636474609375 L 3971.636474609375 3216.7060546875" fill-opacity="1" clip-path="url(#wkvBXmdmDvlV)" stroke-opacity="1" stroke-linejoin="bevel" stroke-miterlimit="10" stroke-dasharray=""/><path fill="rgb(31,119,180)" stroke="rgb(31,119,180)" paint-order="fill" d="M 4012.5908203125 3210.502685546875 L 4053.54541015625 3210.502685546875 L 4053.54541015625 3257.636474609375 L 4012.5908203125 3257.636474609375 L 4012.5908203125 3210.502685546875" fill-opacity="1" clip-path="url(#wkvBXmdmDvlV)" stroke-opacity="1" stroke-linejoin="bevel" stroke-miterlimit="10" stroke-dasharray=""/><path fill="rgb(31,119,180)" stroke="rgb(31,119,180)" paint-order="fill" d="M 4053.54541015625 3214.733154296875 L 4094.5 3214.733154296875 L 4094.5 3257.636474609375 L 4053.54541015625 3257.636474609375 L 4053.54541015625 3214.733154296875" fill-opacity="1" clip-path="url(#wkvBXmdmDvlV)" stroke-opacity="1" stroke-linejoin="bevel" stroke-miterlimit="10" stroke-dasharray=""/><path fill="rgb(31,119,180)" stroke="rgb(31,119,180)" paint-order="fill" d="M 4094.5 3204.52685546875 L 4135.45458984375 3204.52685546875 L 4135.45458984375 3257.636474609375 L 4094.5 3257.636474609375 L 4094.5 3204.52685546875" fill-opacity="1" clip-path="url(#wkvBXmdmDvlV)" stroke-opacity="1" stroke-linejoin="bevel" stroke-miterlimit="10" stroke-dasharray=""/><path fill="rgb(31,119,180)" stroke="rgb(31,119,180)" paint-order="fill" d="M 4135.45458984375 3203.956787109375 L 4176.4091796875 3203.956787109375 L 4176.4091796875 3257.636474609375 L 4135.45458984375 3257.636474609375 L 4135.45458984375 3203.956787109375" fill-opacity="1" clip-path="url(#wkvBXmdmDvlV)" stroke-opacity="1" stroke-linejoin="bevel" stroke-miterlimit="10" stroke-dasharray=""/><path fill="rgb(31,119,180)" stroke="rgb(31,119,180)" paint-order="fill" d="M 4176.4091796875 3188.415771484375 L 4217.36376953125 3188.415771484375 L 4217.36376953125 3257.636474609375 L 4176.4091796875 3257.636474609375 L 4176.4091796875 3188.415771484375" fill-opacity="1" clip-path="url(#wkvBXmdmDvlV)" stroke-opacity="1" stroke-linejoin="bevel" stroke-miterlimit="10" stroke-dasharray=""/><path fill="rgb(31,119,180)" stroke="rgb(31,119,180)" paint-order="fill" d="M 4217.36376953125 3197.646484375 L 4258.318359375 3197.646484375 L 4258.318359375 3257.636474609375 L 4217.36376953125 3257.636474609375 L 4217.36376953125 3197.646484375" fill-opacity="1" clip-path="url(#wkvBXmdmDvlV)" stroke-opacity="1" stroke-linejoin="bevel" stroke-miterlimit="10" stroke-dasharray=""/><path fill="rgb(31,119,180)" stroke="rgb(31,119,180)" paint-order="fill" d="M 4258.318359375 3206.0771484375 L 4299.27294921875 3206.0771484375 L 4299.27294921875 3257.636474609375 L 4258.318359375 3257.636474609375 L 4258.318359375 3206.0771484375" fill-opacity="1" clip-path="url(#wkvBXmdmDvlV)" stroke-opacity="1" stroke-linejoin="bevel" stroke-miterlimit="10" stroke-dasharray=""/><path fill="rgb(31,119,180)" stroke="rgb(31,119,180)" paint-order="fill" d="M 4299.27294921875 3196.236572265625 L 4340.22705078125 3196.236572265625 L 4340.22705078125 3257.636474609375 L 4299.27294921875 3257.636474609375 L 4299.27294921875 3196.236572265625" fill-opacity="1" clip-path="url(#wkvBXmdmDvlV)" stroke-opacity="1" stroke-linejoin="bevel" stroke-miterlimit="10" stroke-dasharray=""/><path fill="rgb(31,119,180)" stroke="rgb(31,119,180)" paint-order="fill" d="M 4340.22705078125 3195.593505859375 L 4381.181640625 3195.593505859375 L 4381.181640625 3257.636474609375 L 4340.22705078125 3257.636474609375 L 4340.22705078125 3195.593505859375" fill-opacity="1" clip-path="url(#wkvBXmdmDvlV)" stroke-opacity="1" stroke-linejoin="bevel" stroke-miterlimit="10" stroke-dasharray=""/><path fill="rgb(31,119,180)" stroke="rgb(31,119,180)" paint-order="fill" d="M 4381.181640625 3163.458251953125 L 4422.13623046875 3163.458251953125 L 4422.13623046875 3257.636474609375 L 4381.181640625 3257.636474609375 L 4381.181640625 3163.458251953125" fill-opacity="1" clip-path="url(#wkvBXmdmDvlV)" stroke-opacity="1" stroke-linejoin="bevel" stroke-miterlimit="10" stroke-dasharray=""/><path fill="rgb(31,119,180)" stroke="rgb(31,119,180)" paint-order="fill" d="M 4422.13623046875 3151.89599609375 L 4463.0908203125 3151.89599609375 L 4463.0908203125 3257.636474609375 L 4422.13623046875 3257.636474609375 L 4422.13623046875 3151.89599609375" fill-opacity="1" clip-path="url(#wkvBXmdmDvlV)" stroke-opacity="1" stroke-linejoin="bevel" stroke-miterlimit="10" stroke-dasharray=""/><path fill="rgb(31,119,180)" stroke="rgb(31,119,180)" paint-order="fill" d="M 4463.0908203125 3154.966796875 L 4504.04541015625 3154.966796875 L 4504.04541015625 3257.636474609375 L 4463.0908203125 3257.636474609375 L 4463.0908203125 3154.966796875" fill-opacity="1" clip-path="url(#wkvBXmdmDvlV)" stroke-opacity="1" stroke-linejoin="bevel" stroke-miterlimit="10" stroke-dasharray=""/><path fill="rgb(31,119,180)" stroke="rgb(31,119,180)" paint-order="fill" d="M 4504.04541015625 3158.18603515625 L 4545 3158.18603515625 L 4545 3257.636474609375 L 4504.04541015625 3257.636474609375 L 4504.04541015625 3158.18603515625" fill-opacity="1" clip-path="url(#wkvBXmdmDvlV)" stroke-opacity="1" stroke-linejoin="bevel" stroke-miterlimit="10" stroke-dasharray=""/><path fill="rgb(31,119,180)" stroke="rgb(31,119,180)" paint-order="fill" d="M 4545 3146.196533203125 L 4585.95458984375 3146.196533203125 L 4585.95458984375 3257.636474609375 L 4545 3257.636474609375 L 4545 3146.196533203125" fill-opacity="1" clip-path="url(#wkvBXmdmDvlV)" stroke-opacity="1" stroke-linejoin="bevel" stroke-miterlimit="10" stroke-dasharray=""/><path fill="rgb(31,119,180)" stroke="rgb(31,119,180)" paint-order="fill" d="M 4585.95458984375 3109.64697265625 L 4626.9091796875 3109.64697265625 L 4626.9091796875 3257.636474609375 L 4585.95458984375 3257.636474609375 L 4585.95458984375 3109.64697265625" fill-opacity="1" clip-path="url(#wkvBXmdmDvlV)" stroke-opacity="1" stroke-linejoin="bevel" stroke-miterlimit="10" stroke-dasharray=""/><path fill="rgb(31,119,180)" stroke="rgb(31,119,180)" paint-order="fill" d="M 4626.9091796875 3085.787109375 L 4667.86376953125 3085.787109375 L 4667.86376953125 3257.636474609375 L 4626.9091796875 3257.636474609375 L 4626.9091796875 3085.787109375" fill-opacity="1" clip-path="url(#wkvBXmdmDvlV)" stroke-opacity="1" stroke-linejoin="bevel" stroke-miterlimit="10" stroke-dasharray=""/><path fill="rgb(31,119,180)" stroke="rgb(31,119,180)" paint-order="fill" d="M 4667.86376953125 3016.3349609375 L 4708.818359375 3016.3349609375 L 4708.818359375 3257.636474609375 L 4667.86376953125 3257.636474609375 L 4667.86376953125 3016.3349609375" fill-opacity="1" clip-path="url(#wkvBXmdmDvlV)" stroke-opacity="1" stroke-linejoin="bevel" stroke-miterlimit="10" stroke-dasharray=""/><path fill="rgb(31,119,180)" stroke="rgb(31,119,180)" paint-order="fill" d="M 4708.818359375 2943.13134765625 L 4749.77294921875 2943.13134765625 L 4749.77294921875 3257.636474609375 L 4708.818359375 3257.636474609375 L 4708.818359375 2943.13134765625" fill-opacity="1" clip-path="url(#wkvBXmdmDvlV)" stroke-opacity="1" stroke-linejoin="bevel" stroke-miterlimit="10" stroke-dasharray=""/><path fill="rgb(31,119,180)" stroke="rgb(31,119,180)" paint-order="fill" d="M 4749.77294921875 160.36363220214844 L 4790.72705078125 160.36363220214844 L 4790.72705078125 3257.636474609375 L 4749.77294921875 3257.636474609375 L 4749.77294921875 160.36363220214844" fill-opacity="1" clip-path="url(#wkvBXmdmDvlV)" stroke-opacity="1" stroke-linejoin="bevel" stroke-miterlimit="10" stroke-dasharray=""/><path fill="none" stroke="rgb(0,0,0)" paint-order="fill" d="M 490.5 3412.5 L 4995.5 3412.5" stroke-opacity="1" stroke-linejoin="bevel" stroke-miterlimit="10" stroke-width="4" stroke-dasharray=""/><path fill="none" stroke="rgb(0,0,0)" paint-order="fill" d="M 695.5 3437.5 L 695.5 3404.5 M 1514.5 3437.5 L 1514.5 3404.5 M 2333.5 3437.5 L 2333.5 3404.5 M 3152.5 3437.5 L 3152.5 3404.5 M 3971.5 3437.5 L 3971.5 3404.5 M 4790.5 3437.5 L 4790.5 3404.5" stroke-opacity="1" stroke-linejoin="bevel" stroke-miterlimit="10" stroke-width="4" stroke-dasharray=""/><path fill="none" stroke="rgb(0,0,0)" paint-order="fill" d="M 531.5 3428.5 L 531.5 3412.5 M 695.5 3428.5 L 695.5 3412.5 M 859.5 3428.5 L 859.5 3412.5 M 1022.5 3428.5 L 1022.5 3412.5 M 1186.5 3428.5 L 1186.5 3412.5 M 1350.5 3428.5 L 1350.5 3412.5 M 1514.5 3428.5 L 1514.5 3412.5 M 1678.5 3428.5 L 1678.5 3412.5 M 1842.5 3428.5 L 1842.5 3412.5 M 2005.5 3428.5 L 2005.5 3412.5 M 2169.5 3428.5 L 2169.5 3412.5 M 2333.5 3428.5 L 2333.5 3412.5 M 2497.5 3428.5 L 2497.5 3412.5 M 2661.5 3428.5 L 2661.5 3412.5 M 2824.5 3428.5 L 2824.5 3412.5 M 2988.5 3428.5 L 2988.5 3412.5 M 3152.5 3428.5 L 3152.5 3412.5 M 3316.5 3428.5 L 3316.5 3412.5 M 3480.5 3428.5 L 3480.5 3412.5 M 3644.5 3428.5 L 3644.5 3412.5 M 3807.5 3428.5 L 3807.5 3412.5 M 3971.5 3428.5 L 3971.5 3412.5 M 4135.5 3428.5 L 4135.5 3412.5 M 4299.5 3428.5 L 4299.5 3412.5 M 4463.5 3428.5 L 4463.5 3412.5 M 4626.5 3428.5 L 4626.5 3412.5 M 4790.5 3428.5 L 4790.5 3412.5 M 4954.5 3428.5 L 4954.5 3412.5" stroke-opacity="1" stroke-linejoin="bevel" stroke-miterlimit="10" stroke-width="4" stroke-dasharray=""/><text fill="rgb(68,68,68)" stroke="none" font-family="helvetica" font-size="125px" font-style="normal" font-weight="normal" text-decoration="normal" x="660.022705078125" y="3548" text-anchor="start" dominant-baseline="alphabetic" transform="matrix(1, 0, 0, 1, 0.5, 0.5)" fill-opacity="1">0</text><text fill="rgb(68,68,68)" stroke="none" font-family="helvetica" font-size="125px" font-style="normal" font-weight="normal" text-decoration="normal" x="1426.9886474609375" y="3548" text-anchor="start" dominant-baseline="alphabetic" transform="matrix(1, 0, 0, 1, 0.5, 0.5)" fill-opacity="1">0.2</text><text fill="rgb(68,68,68)" stroke="none" font-family="helvetica" font-size="125px" font-style="normal" font-weight="normal" text-decoration="normal" x="2246.07958984375" y="3548" text-anchor="start" dominant-baseline="alphabetic" transform="matrix(1, 0, 0, 1, 0.5, 0.5)" fill-opacity="1">0.4</text><text fill="rgb(68,68,68)" stroke="none" font-family="helvetica" font-size="125px" font-style="normal" font-weight="normal" text-decoration="normal" x="3065.17041015625" y="3548" text-anchor="start" dominant-baseline="alphabetic" transform="matrix(1, 0, 0, 1, 0.5, 0.5)" fill-opacity="1">0.6</text><text fill="rgb(68,68,68)" stroke="none" font-family="helvetica" font-size="125px" font-style="normal" font-weight="normal" text-decoration="normal" x="3884.261474609375" y="3548" text-anchor="start" dominant-baseline="alphabetic" transform="matrix(1, 0, 0, 1, 0.5, 0.5)" fill-opacity="1">0.8</text><text fill="rgb(68,68,68)" stroke="none" font-family="helvetica" font-size="125px" font-style="normal" font-weight="normal" text-decoration="normal" x="4755.47705078125" y="3548" text-anchor="start" dominant-baseline="alphabetic" transform="matrix(1, 0, 0, 1, 0.5, 0.5)" fill-opacity="1">1</text><text fill="rgb(68,68,68)" stroke="none" font-family="helvetica" font-size="150px" font-style="italic" font-weight="normal" text-decoration="normal" x="2638.324996948242" y="3714" text-anchor="start" dominant-baseline="alphabetic" transform="matrix(1, 0, 0, 1, 0.5, 0.5)" fill-opacity="1">CP</text><path fill="none" stroke="rgb(0,0,0)" paint-order="fill" d="M 490.5 3412.5 L 490.5 5.5" stroke-opacity="1" stroke-linejoin="bevel" stroke-miterlimit="10" stroke-width="4" stroke-dasharray=""/><path fill="none" stroke="rgb(0,0,0)" paint-order="fill" d="M 465.5 3257.5 L 498.5 3257.5 M 465.5 2797.5 L 498.5 2797.5 M 465.5 2336.5 L 498.5 2336.5 M 465.5 1875.5 L 498.5 1875.5 M 465.5 1415.5 L 498.5 1415.5 M 465.5 954.5 L 498.5 954.5 M 465.5 494.5 L 498.5 494.5 M 465.5 33.5 L 498.5 33.5" stroke-opacity="1" stroke-linejoin="bevel" stroke-miterlimit="10" stroke-width="4" stroke-dasharray=""/><path fill="none" stroke="rgb(0,0,0)" paint-order="fill" d="M 474.5 3349.5 L 490.5 3349.5 M 474.5 3257.5 L 490.5 3257.5 M 474.5 3165.5 L 490.5 3165.5 M 474.5 3073.5 L 490.5 3073.5 M 474.5 2981.5 L 490.5 2981.5 M 474.5 2889.5 L 490.5 2889.5 M 474.5 2797.5 L 490.5 2797.5 M 474.5 2704.5 L 490.5 2704.5 M 474.5 2612.5 L 490.5 2612.5 M 474.5 2520.5 L 490.5 2520.5 M 474.5 2428.5 L 490.5 2428.5 M 474.5 2336.5 L 490.5 2336.5 M 474.5 2244.5 L 490.5 2244.5 M 474.5 2152.5 L 490.5 2152.5 M 474.5 2060.5 L 490.5 2060.5 M 474.5 1967.5 L 490.5 1967.5 M 474.5 1875.5 L 490.5 1875.5 M 474.5 1783.5 L 490.5 1783.5 M 474.5 1691.5 L 490.5 1691.5 M 474.5 1599.5 L 490.5 1599.5 M 474.5 1507.5 L 490.5 1507.5 M 474.5 1415.5 L 490.5 1415.5 M 474.5 1323.5 L 490.5 1323.5 M 474.5 1230.5 L 490.5 1230.5 M 474.5 1138.5 L 490.5 1138.5 M 474.5 1046.5 L 490.5 1046.5 M 474.5 954.5 L 490.5 954.5 M 474.5 862.5 L 490.5 862.5 M 474.5 770.5 L 490.5 770.5 M 474.5 678.5 L 490.5 678.5 M 474.5 586.5 L 490.5 586.5 M 474.5 494.5 L 490.5 494.5 M 474.5 401.5 L 490.5 401.5 M 474.5 309.5 L 490.5 309.5 M 474.5 217.5 L 490.5 217.5 M 474.5 125.5 L 490.5 125.5 M 474.5 33.5 L 490.5 33.5" stroke-opacity="1" stroke-linejoin="bevel" stroke-miterlimit="10" stroke-width="4" stroke-dasharray=""/><text fill="rgb(68,68,68)" stroke="none" font-family="helvetica" font-size="125px" font-style="normal" font-weight="normal" text-decoration="normal" x="375.5" y="3302.636474609375" text-anchor="start" dominant-baseline="alphabetic" transform="matrix(1, 0, 0, 1, 0.5, 0.5)" fill-opacity="1">0</text><text fill="rgb(68,68,68)" stroke="none" font-family="helvetica" font-size="125px" font-style="normal" font-weight="normal" text-decoration="normal" x="201.75" y="2842.0341796875" text-anchor="start" dominant-baseline="alphabetic" transform="matrix(1, 0, 0, 1, 0.5, 0.5)" fill-opacity="1">0.02</text><text fill="rgb(68,68,68)" stroke="none" font-family="helvetica" font-size="125px" font-style="normal" font-weight="normal" text-decoration="normal" x="201.75" y="2381.43212890625" text-anchor="start" dominant-baseline="alphabetic" transform="matrix(1, 0, 0, 1, 0.5, 0.5)" fill-opacity="1">0.04</text><text fill="rgb(68,68,68)" stroke="none" font-family="helvetica" font-size="125px" font-style="normal" font-weight="normal" text-decoration="normal" x="201.75" y="1920.830078125" text-anchor="start" dominant-baseline="alphabetic" transform="matrix(1, 0, 0, 1, 0.5, 0.5)" fill-opacity="1">0.06</text><text fill="rgb(68,68,68)" stroke="none" font-family="helvetica" font-size="125px" font-style="normal" font-weight="normal" text-decoration="normal" x="201.75" y="1460.22802734375" text-anchor="start" dominant-baseline="alphabetic" transform="matrix(1, 0, 0, 1, 0.5, 0.5)" fill-opacity="1">0.08</text><text fill="rgb(68,68,68)" stroke="none" font-family="helvetica" font-size="125px" font-style="normal" font-weight="normal" text-decoration="normal" x="271.25" y="999.6259765625" text-anchor="start" dominant-baseline="alphabetic" transform="matrix(1, 0, 0, 1, 0.5, 0.5)" fill-opacity="1">0.1</text><text fill="rgb(68,68,68)" stroke="none" font-family="helvetica" font-size="125px" font-style="normal" font-weight="normal" text-decoration="normal" x="201.75" y="539.0238952636719" text-anchor="start" dominant-baseline="alphabetic" transform="matrix(1, 0, 0, 1, 0.5, 0.5)" fill-opacity="1">0.12</text><text fill="rgb(68,68,68)" stroke="none" font-family="helvetica" font-size="125px" font-style="normal" font-weight="normal" text-decoration="normal" x="201.75" y="91" text-anchor="start" dominant-baseline="alphabetic" transform="matrix(1, 0, 0, 1, 0.5, 0.5)" fill-opacity="1">0.14</text><text fill="rgb(68,68,68)" stroke="none" font-family="helvetica" font-size="150px" font-style="italic" font-weight="normal" text-decoration="normal" x="-901.175048828125" y="1675.5" text-anchor="start" dominant-baseline="alphabetic" transform="matrix(6.123233995736766e-17, -1, 1, 6.123233995736766e-17, -1529.25, 1887.75)" fill-opacity="1">Fraction of total CP contributions</text></svg>