<?xml version="1.0" encoding="utf-8" standalone="no"?>
<!DOCTYPE svg PUBLIC "-//W3C//DTD SVG 1.1//EN"
  "http://www.w3.org/Graphics/SVG/1.1/DTD/svg11.dtd">
<!-- Created with matplotlib (https://matplotlib.org/) -->
<svg height="345.6pt" version="1.1" viewBox="0 0 460.8 345.6" width="460.8pt" xmlns="http://www.w3.org/2000/svg" xmlns:xlink="http://www.w3.org/1999/xlink">
 <metadata>
  <rdf:RDF xmlns:cc="http://creativecommons.org/ns#" xmlns:dc="http://purl.org/dc/elements/1.1/" xmlns:rdf="http://www.w3.org/1999/02/22-rdf-syntax-ns#">
   <cc:Work>
    <dc:type rdf:resource="http://purl.org/dc/dcmitype/StillImage"/>
    <dc:date>2021-11-03T00:02:09.277193</dc:date>
    <dc:format>image/svg+xml</dc:format>
    <dc:creator>
     <cc:Agent>
      <dc:title>Matplotlib v3.3.4, https://matplotlib.org/</dc:title>
     </cc:Agent>
    </dc:creator>
   </cc:Work>
  </rdf:RDF>
 </metadata>
 <defs>
  <style type="text/css">*{stroke-linecap:butt;stroke-linejoin:round;}</style>
 </defs>
 <g id="figure_1">
  <g id="patch_1">
   <path d="M 0 345.6 
L 460.8 345.6 
L 460.8 0 
L 0 0 
z
" style="fill:#ffffff;"/>
  </g>
  <g id="axes_1">
   <g id="patch_2">
    <path d="M 57.6 307.584 
L 414.72 307.584 
L 414.72 41.472 
L 57.6 41.472 
z
" style="fill:#ffffff;"/>
   </g>
   <g id="matplotlib.axis_1">
    <g id="xtick_1">
     <g id="line2d_1">
      <defs>
       <path d="M 0 0 
L 0 3.5 
" id="m2b54a0360b" style="stroke:#000000;stroke-width:0.8;"/>
      </defs>
      <g>
       <use style="stroke:#000000;stroke-width:0.8;" x="57.6" xlink:href="#m2b54a0360b" y="307.584"/>
      </g>
     </g>
     <g id="text_1">
      <!-- 0 -->
      <g transform="translate(54.41875 322.182437)scale(0.1 -0.1)">
       <defs>
        <path d="M 31.78125 66.40625 
Q 24.171875 66.40625 20.328125 58.90625 
Q 16.5 51.421875 16.5 36.375 
Q 16.5 21.390625 20.328125 13.890625 
Q 24.171875 6.390625 31.78125 6.390625 
Q 39.453125 6.390625 43.28125 13.890625 
Q 47.125 21.390625 47.125 36.375 
Q 47.125 51.421875 43.28125 58.90625 
Q 39.453125 66.40625 31.78125 66.40625 
z
M 31.78125 74.21875 
Q 44.046875 74.21875 50.515625 64.515625 
Q 56.984375 54.828125 56.984375 36.375 
Q 56.984375 17.96875 50.515625 8.265625 
Q 44.046875 -1.421875 31.78125 -1.421875 
Q 19.53125 -1.421875 13.0625 8.265625 
Q 6.59375 17.96875 6.59375 36.375 
Q 6.59375 54.828125 13.0625 64.515625 
Q 19.53125 74.21875 31.78125 74.21875 
z
" id="DejaVuSans-48"/>
       </defs>
       <use xlink:href="#DejaVuSans-48"/>
      </g>
     </g>
    </g>
    <g id="xtick_2">
     <g id="line2d_2">
      <g>
       <use style="stroke:#000000;stroke-width:0.8;" x="131.707369" xlink:href="#m2b54a0360b" y="307.584"/>
      </g>
     </g>
     <g id="text_2">
      <!-- 1 -->
      <g transform="translate(128.526119 322.182437)scale(0.1 -0.1)">
       <defs>
        <path d="M 12.40625 8.296875 
L 28.515625 8.296875 
L 28.515625 63.921875 
L 10.984375 60.40625 
L 10.984375 69.390625 
L 28.421875 72.90625 
L 38.28125 72.90625 
L 38.28125 8.296875 
L 54.390625 8.296875 
L 54.390625 0 
L 12.40625 0 
z
" id="DejaVuSans-49"/>
       </defs>
       <use xlink:href="#DejaVuSans-49"/>
      </g>
     </g>
    </g>
    <g id="xtick_3">
     <g id="line2d_3">
      <g>
       <use style="stroke:#000000;stroke-width:0.8;" x="205.814737" xlink:href="#m2b54a0360b" y="307.584"/>
      </g>
     </g>
     <g id="text_3">
      <!-- 2 -->
      <g transform="translate(202.633487 322.182437)scale(0.1 -0.1)">
       <defs>
        <path d="M 19.1875 8.296875 
L 53.609375 8.296875 
L 53.609375 0 
L 7.328125 0 
L 7.328125 8.296875 
Q 12.9375 14.109375 22.625 23.890625 
Q 32.328125 33.6875 34.8125 36.53125 
Q 39.546875 41.84375 41.421875 45.53125 
Q 43.3125 49.21875 43.3125 52.78125 
Q 43.3125 58.59375 39.234375 62.25 
Q 35.15625 65.921875 28.609375 65.921875 
Q 23.96875 65.921875 18.8125 64.3125 
Q 13.671875 62.703125 7.8125 59.421875 
L 7.8125 69.390625 
Q 13.765625 71.78125 18.9375 73 
Q 24.125 74.21875 28.421875 74.21875 
Q 39.75 74.21875 46.484375 68.546875 
Q 53.21875 62.890625 53.21875 53.421875 
Q 53.21875 48.921875 51.53125 44.890625 
Q 49.859375 40.875 45.40625 35.40625 
Q 44.1875 33.984375 37.640625 27.21875 
Q 31.109375 20.453125 19.1875 8.296875 
z
" id="DejaVuSans-50"/>
       </defs>
       <use xlink:href="#DejaVuSans-50"/>
      </g>
     </g>
    </g>
    <g id="xtick_4">
     <g id="line2d_4">
      <g>
       <use style="stroke:#000000;stroke-width:0.8;" x="279.922106" xlink:href="#m2b54a0360b" y="307.584"/>
      </g>
     </g>
     <g id="text_4">
      <!-- 3 -->
      <g transform="translate(276.740856 322.182437)scale(0.1 -0.1)">
       <defs>
        <path d="M 40.578125 39.3125 
Q 47.65625 37.796875 51.625 33 
Q 55.609375 28.21875 55.609375 21.1875 
Q 55.609375 10.40625 48.1875 4.484375 
Q 40.765625 -1.421875 27.09375 -1.421875 
Q 22.515625 -1.421875 17.65625 -0.515625 
Q 12.796875 0.390625 7.625 2.203125 
L 7.625 11.71875 
Q 11.71875 9.328125 16.59375 8.109375 
Q 21.484375 6.890625 26.8125 6.890625 
Q 36.078125 6.890625 40.9375 10.546875 
Q 45.796875 14.203125 45.796875 21.1875 
Q 45.796875 27.640625 41.28125 31.265625 
Q 36.765625 34.90625 28.71875 34.90625 
L 20.21875 34.90625 
L 20.21875 43.015625 
L 29.109375 43.015625 
Q 36.375 43.015625 40.234375 45.921875 
Q 44.09375 48.828125 44.09375 54.296875 
Q 44.09375 59.90625 40.109375 62.90625 
Q 36.140625 65.921875 28.71875 65.921875 
Q 24.65625 65.921875 20.015625 65.03125 
Q 15.375 64.15625 9.8125 62.3125 
L 9.8125 71.09375 
Q 15.4375 72.65625 20.34375 73.4375 
Q 25.25 74.21875 29.59375 74.21875 
Q 40.828125 74.21875 47.359375 69.109375 
Q 53.90625 64.015625 53.90625 55.328125 
Q 53.90625 49.265625 50.4375 45.09375 
Q 46.96875 40.921875 40.578125 39.3125 
z
" id="DejaVuSans-51"/>
       </defs>
       <use xlink:href="#DejaVuSans-51"/>
      </g>
     </g>
    </g>
    <g id="xtick_5">
     <g id="line2d_5">
      <g>
       <use style="stroke:#000000;stroke-width:0.8;" x="354.029474" xlink:href="#m2b54a0360b" y="307.584"/>
      </g>
     </g>
     <g id="text_5">
      <!-- 4 -->
      <g transform="translate(350.848224 322.182437)scale(0.1 -0.1)">
       <defs>
        <path d="M 37.796875 64.3125 
L 12.890625 25.390625 
L 37.796875 25.390625 
z
M 35.203125 72.90625 
L 47.609375 72.90625 
L 47.609375 25.390625 
L 58.015625 25.390625 
L 58.015625 17.1875 
L 47.609375 17.1875 
L 47.609375 0 
L 37.796875 0 
L 37.796875 17.1875 
L 4.890625 17.1875 
L 4.890625 26.703125 
z
" id="DejaVuSans-52"/>
       </defs>
       <use xlink:href="#DejaVuSans-52"/>
      </g>
     </g>
    </g>
    <g id="text_6">
     <!-- distance (bp) -->
     <g transform="translate(203.134219 335.860562)scale(0.1 -0.1)">
      <defs>
       <path d="M 45.40625 46.390625 
L 45.40625 75.984375 
L 54.390625 75.984375 
L 54.390625 0 
L 45.40625 0 
L 45.40625 8.203125 
Q 42.578125 3.328125 38.25 0.953125 
Q 33.9375 -1.421875 27.875 -1.421875 
Q 17.96875 -1.421875 11.734375 6.484375 
Q 5.515625 14.40625 5.515625 27.296875 
Q 5.515625 40.1875 11.734375 48.09375 
Q 17.96875 56 27.875 56 
Q 33.9375 56 38.25 53.625 
Q 42.578125 51.265625 45.40625 46.390625 
z
M 14.796875 27.296875 
Q 14.796875 17.390625 18.875 11.75 
Q 22.953125 6.109375 30.078125 6.109375 
Q 37.203125 6.109375 41.296875 11.75 
Q 45.40625 17.390625 45.40625 27.296875 
Q 45.40625 37.203125 41.296875 42.84375 
Q 37.203125 48.484375 30.078125 48.484375 
Q 22.953125 48.484375 18.875 42.84375 
Q 14.796875 37.203125 14.796875 27.296875 
z
" id="DejaVuSans-100"/>
       <path d="M 9.421875 54.6875 
L 18.40625 54.6875 
L 18.40625 0 
L 9.421875 0 
z
M 9.421875 75.984375 
L 18.40625 75.984375 
L 18.40625 64.59375 
L 9.421875 64.59375 
z
" id="DejaVuSans-105"/>
       <path d="M 44.28125 53.078125 
L 44.28125 44.578125 
Q 40.484375 46.53125 36.375 47.5 
Q 32.28125 48.484375 27.875 48.484375 
Q 21.1875 48.484375 17.84375 46.4375 
Q 14.5 44.390625 14.5 40.28125 
Q 14.5 37.15625 16.890625 35.375 
Q 19.28125 33.59375 26.515625 31.984375 
L 29.59375 31.296875 
Q 39.15625 29.25 43.1875 25.515625 
Q 47.21875 21.78125 47.21875 15.09375 
Q 47.21875 7.46875 41.1875 3.015625 
Q 35.15625 -1.421875 24.609375 -1.421875 
Q 20.21875 -1.421875 15.453125 -0.5625 
Q 10.6875 0.296875 5.421875 2 
L 5.421875 11.28125 
Q 10.40625 8.6875 15.234375 7.390625 
Q 20.0625 6.109375 24.8125 6.109375 
Q 31.15625 6.109375 34.5625 8.28125 
Q 37.984375 10.453125 37.984375 14.40625 
Q 37.984375 18.0625 35.515625 20.015625 
Q 33.0625 21.96875 24.703125 23.78125 
L 21.578125 24.515625 
Q 13.234375 26.265625 9.515625 29.90625 
Q 5.8125 33.546875 5.8125 39.890625 
Q 5.8125 47.609375 11.28125 51.796875 
Q 16.75 56 26.8125 56 
Q 31.78125 56 36.171875 55.265625 
Q 40.578125 54.546875 44.28125 53.078125 
z
" id="DejaVuSans-115"/>
       <path d="M 18.3125 70.21875 
L 18.3125 54.6875 
L 36.8125 54.6875 
L 36.8125 47.703125 
L 18.3125 47.703125 
L 18.3125 18.015625 
Q 18.3125 11.328125 20.140625 9.421875 
Q 21.96875 7.515625 27.59375 7.515625 
L 36.8125 7.515625 
L 36.8125 0 
L 27.59375 0 
Q 17.1875 0 13.234375 3.875 
Q 9.28125 7.765625 9.28125 18.015625 
L 9.28125 47.703125 
L 2.6875 47.703125 
L 2.6875 54.6875 
L 9.28125 54.6875 
L 9.28125 70.21875 
z
" id="DejaVuSans-116"/>
       <path d="M 34.28125 27.484375 
Q 23.390625 27.484375 19.1875 25 
Q 14.984375 22.515625 14.984375 16.5 
Q 14.984375 11.71875 18.140625 8.90625 
Q 21.296875 6.109375 26.703125 6.109375 
Q 34.1875 6.109375 38.703125 11.40625 
Q 43.21875 16.703125 43.21875 25.484375 
L 43.21875 27.484375 
z
M 52.203125 31.203125 
L 52.203125 0 
L 43.21875 0 
L 43.21875 8.296875 
Q 40.140625 3.328125 35.546875 0.953125 
Q 30.953125 -1.421875 24.3125 -1.421875 
Q 15.921875 -1.421875 10.953125 3.296875 
Q 6 8.015625 6 15.921875 
Q 6 25.140625 12.171875 29.828125 
Q 18.359375 34.515625 30.609375 34.515625 
L 43.21875 34.515625 
L 43.21875 35.40625 
Q 43.21875 41.609375 39.140625 45 
Q 35.0625 48.390625 27.6875 48.390625 
Q 23 48.390625 18.546875 47.265625 
Q 14.109375 46.140625 10.015625 43.890625 
L 10.015625 52.203125 
Q 14.9375 54.109375 19.578125 55.046875 
Q 24.21875 56 28.609375 56 
Q 40.484375 56 46.34375 49.84375 
Q 52.203125 43.703125 52.203125 31.203125 
z
" id="DejaVuSans-97"/>
       <path d="M 54.890625 33.015625 
L 54.890625 0 
L 45.90625 0 
L 45.90625 32.71875 
Q 45.90625 40.484375 42.875 44.328125 
Q 39.84375 48.1875 33.796875 48.1875 
Q 26.515625 48.1875 22.3125 43.546875 
Q 18.109375 38.921875 18.109375 30.90625 
L 18.109375 0 
L 9.078125 0 
L 9.078125 54.6875 
L 18.109375 54.6875 
L 18.109375 46.1875 
Q 21.34375 51.125 25.703125 53.5625 
Q 30.078125 56 35.796875 56 
Q 45.21875 56 50.046875 50.171875 
Q 54.890625 44.34375 54.890625 33.015625 
z
" id="DejaVuSans-110"/>
       <path d="M 48.78125 52.59375 
L 48.78125 44.1875 
Q 44.96875 46.296875 41.140625 47.34375 
Q 37.3125 48.390625 33.40625 48.390625 
Q 24.65625 48.390625 19.8125 42.84375 
Q 14.984375 37.3125 14.984375 27.296875 
Q 14.984375 17.28125 19.8125 11.734375 
Q 24.65625 6.203125 33.40625 6.203125 
Q 37.3125 6.203125 41.140625 7.25 
Q 44.96875 8.296875 48.78125 10.40625 
L 48.78125 2.09375 
Q 45.015625 0.34375 40.984375 -0.53125 
Q 36.96875 -1.421875 32.421875 -1.421875 
Q 20.0625 -1.421875 12.78125 6.34375 
Q 5.515625 14.109375 5.515625 27.296875 
Q 5.515625 40.671875 12.859375 48.328125 
Q 20.21875 56 33.015625 56 
Q 37.15625 56 41.109375 55.140625 
Q 45.0625 54.296875 48.78125 52.59375 
z
" id="DejaVuSans-99"/>
       <path d="M 56.203125 29.59375 
L 56.203125 25.203125 
L 14.890625 25.203125 
Q 15.484375 15.921875 20.484375 11.0625 
Q 25.484375 6.203125 34.421875 6.203125 
Q 39.59375 6.203125 44.453125 7.46875 
Q 49.3125 8.734375 54.109375 11.28125 
L 54.109375 2.78125 
Q 49.265625 0.734375 44.1875 -0.34375 
Q 39.109375 -1.421875 33.890625 -1.421875 
Q 20.796875 -1.421875 13.15625 6.1875 
Q 5.515625 13.8125 5.515625 26.8125 
Q 5.515625 40.234375 12.765625 48.109375 
Q 20.015625 56 32.328125 56 
Q 43.359375 56 49.78125 48.890625 
Q 56.203125 41.796875 56.203125 29.59375 
z
M 47.21875 32.234375 
Q 47.125 39.59375 43.09375 43.984375 
Q 39.0625 48.390625 32.421875 48.390625 
Q 24.90625 48.390625 20.390625 44.140625 
Q 15.875 39.890625 15.1875 32.171875 
z
" id="DejaVuSans-101"/>
       <path id="DejaVuSans-32"/>
       <path d="M 31 75.875 
Q 24.46875 64.65625 21.28125 53.65625 
Q 18.109375 42.671875 18.109375 31.390625 
Q 18.109375 20.125 21.3125 9.0625 
Q 24.515625 -2 31 -13.1875 
L 23.1875 -13.1875 
Q 15.875 -1.703125 12.234375 9.375 
Q 8.59375 20.453125 8.59375 31.390625 
Q 8.59375 42.28125 12.203125 53.3125 
Q 15.828125 64.359375 23.1875 75.875 
z
" id="DejaVuSans-40"/>
       <path d="M 48.6875 27.296875 
Q 48.6875 37.203125 44.609375 42.84375 
Q 40.53125 48.484375 33.40625 48.484375 
Q 26.265625 48.484375 22.1875 42.84375 
Q 18.109375 37.203125 18.109375 27.296875 
Q 18.109375 17.390625 22.1875 11.75 
Q 26.265625 6.109375 33.40625 6.109375 
Q 40.53125 6.109375 44.609375 11.75 
Q 48.6875 17.390625 48.6875 27.296875 
z
M 18.109375 46.390625 
Q 20.953125 51.265625 25.265625 53.625 
Q 29.59375 56 35.59375 56 
Q 45.5625 56 51.78125 48.09375 
Q 58.015625 40.1875 58.015625 27.296875 
Q 58.015625 14.40625 51.78125 6.484375 
Q 45.5625 -1.421875 35.59375 -1.421875 
Q 29.59375 -1.421875 25.265625 0.953125 
Q 20.953125 3.328125 18.109375 8.203125 
L 18.109375 0 
L 9.078125 0 
L 9.078125 75.984375 
L 18.109375 75.984375 
z
" id="DejaVuSans-98"/>
       <path d="M 18.109375 8.203125 
L 18.109375 -20.796875 
L 9.078125 -20.796875 
L 9.078125 54.6875 
L 18.109375 54.6875 
L 18.109375 46.390625 
Q 20.953125 51.265625 25.265625 53.625 
Q 29.59375 56 35.59375 56 
Q 45.5625 56 51.78125 48.09375 
Q 58.015625 40.1875 58.015625 27.296875 
Q 58.015625 14.40625 51.78125 6.484375 
Q 45.5625 -1.421875 35.59375 -1.421875 
Q 29.59375 -1.421875 25.265625 0.953125 
Q 20.953125 3.328125 18.109375 8.203125 
z
M 48.6875 27.296875 
Q 48.6875 37.203125 44.609375 42.84375 
Q 40.53125 48.484375 33.40625 48.484375 
Q 26.265625 48.484375 22.1875 42.84375 
Q 18.109375 37.203125 18.109375 27.296875 
Q 18.109375 17.390625 22.1875 11.75 
Q 26.265625 6.109375 33.40625 6.109375 
Q 40.53125 6.109375 44.609375 11.75 
Q 48.6875 17.390625 48.6875 27.296875 
z
" id="DejaVuSans-112"/>
       <path d="M 8.015625 75.875 
L 15.828125 75.875 
Q 23.140625 64.359375 26.78125 53.3125 
Q 30.421875 42.28125 30.421875 31.390625 
Q 30.421875 20.453125 26.78125 9.375 
Q 23.140625 -1.703125 15.828125 -13.1875 
L 8.015625 -13.1875 
Q 14.5 -2 17.703125 9.0625 
Q 20.90625 20.125 20.90625 31.390625 
Q 20.90625 42.671875 17.703125 53.65625 
Q 14.5 64.65625 8.015625 75.875 
z
" id="DejaVuSans-41"/>
      </defs>
      <use xlink:href="#DejaVuSans-100"/>
      <use x="63.476562" xlink:href="#DejaVuSans-105"/>
      <use x="91.259766" xlink:href="#DejaVuSans-115"/>
      <use x="143.359375" xlink:href="#DejaVuSans-116"/>
      <use x="182.568359" xlink:href="#DejaVuSans-97"/>
      <use x="243.847656" xlink:href="#DejaVuSans-110"/>
      <use x="307.226562" xlink:href="#DejaVuSans-99"/>
      <use x="362.207031" xlink:href="#DejaVuSans-101"/>
      <use x="423.730469" xlink:href="#DejaVuSans-32"/>
      <use x="455.517578" xlink:href="#DejaVuSans-40"/>
      <use x="494.53125" xlink:href="#DejaVuSans-98"/>
      <use x="558.007812" xlink:href="#DejaVuSans-112"/>
      <use x="621.484375" xlink:href="#DejaVuSans-41"/>
     </g>
    </g>
    <g id="text_7">
     <!-- 1e6 -->
     <g transform="translate(395.841875 334.860562)scale(0.1 -0.1)">
      <defs>
       <path d="M 33.015625 40.375 
Q 26.375 40.375 22.484375 35.828125 
Q 18.609375 31.296875 18.609375 23.390625 
Q 18.609375 15.53125 22.484375 10.953125 
Q 26.375 6.390625 33.015625 6.390625 
Q 39.65625 6.390625 43.53125 10.953125 
Q 47.40625 15.53125 47.40625 23.390625 
Q 47.40625 31.296875 43.53125 35.828125 
Q 39.65625 40.375 33.015625 40.375 
z
M 52.59375 71.296875 
L 52.59375 62.3125 
Q 48.875 64.0625 45.09375 64.984375 
Q 41.3125 65.921875 37.59375 65.921875 
Q 27.828125 65.921875 22.671875 59.328125 
Q 17.53125 52.734375 16.796875 39.40625 
Q 19.671875 43.65625 24.015625 45.921875 
Q 28.375 48.1875 33.59375 48.1875 
Q 44.578125 48.1875 50.953125 41.515625 
Q 57.328125 34.859375 57.328125 23.390625 
Q 57.328125 12.15625 50.6875 5.359375 
Q 44.046875 -1.421875 33.015625 -1.421875 
Q 20.359375 -1.421875 13.671875 8.265625 
Q 6.984375 17.96875 6.984375 36.375 
Q 6.984375 53.65625 15.1875 63.9375 
Q 23.390625 74.21875 37.203125 74.21875 
Q 40.921875 74.21875 44.703125 73.484375 
Q 48.484375 72.75 52.59375 71.296875 
z
" id="DejaVuSans-54"/>
      </defs>
      <use xlink:href="#DejaVuSans-49"/>
      <use x="63.623047" xlink:href="#DejaVuSans-101"/>
      <use x="125.146484" xlink:href="#DejaVuSans-54"/>
     </g>
    </g>
   </g>
   <g id="matplotlib.axis_2">
    <g id="ytick_1">
     <g id="line2d_6">
      <defs>
       <path d="M 0 0 
L -3.5 0 
" id="m9a9e328dad" style="stroke:#000000;stroke-width:0.8;"/>
      </defs>
      <g>
       <use style="stroke:#000000;stroke-width:0.8;" x="57.6" xlink:href="#m9a9e328dad" y="295.488"/>
      </g>
     </g>
     <g id="text_8">
      <!-- 0.0 -->
      <g transform="translate(34.696875 299.287219)scale(0.1 -0.1)">
       <defs>
        <path d="M 10.6875 12.40625 
L 21 12.40625 
L 21 0 
L 10.6875 0 
z
" id="DejaVuSans-46"/>
       </defs>
       <use xlink:href="#DejaVuSans-48"/>
       <use x="63.623047" xlink:href="#DejaVuSans-46"/>
       <use x="95.410156" xlink:href="#DejaVuSans-48"/>
      </g>
     </g>
    </g>
    <g id="ytick_2">
     <g id="line2d_7">
      <g>
       <use style="stroke:#000000;stroke-width:0.8;" x="57.6" xlink:href="#m9a9e328dad" y="247.104"/>
      </g>
     </g>
     <g id="text_9">
      <!-- 0.2 -->
      <g transform="translate(34.696875 250.903219)scale(0.1 -0.1)">
       <use xlink:href="#DejaVuSans-48"/>
       <use x="63.623047" xlink:href="#DejaVuSans-46"/>
       <use x="95.410156" xlink:href="#DejaVuSans-50"/>
      </g>
     </g>
    </g>
    <g id="ytick_3">
     <g id="line2d_8">
      <g>
       <use style="stroke:#000000;stroke-width:0.8;" x="57.6" xlink:href="#m9a9e328dad" y="198.72"/>
      </g>
     </g>
     <g id="text_10">
      <!-- 0.4 -->
      <g transform="translate(34.696875 202.519219)scale(0.1 -0.1)">
       <use xlink:href="#DejaVuSans-48"/>
       <use x="63.623047" xlink:href="#DejaVuSans-46"/>
       <use x="95.410156" xlink:href="#DejaVuSans-52"/>
      </g>
     </g>
    </g>
    <g id="ytick_4">
     <g id="line2d_9">
      <g>
       <use style="stroke:#000000;stroke-width:0.8;" x="57.6" xlink:href="#m9a9e328dad" y="150.336"/>
      </g>
     </g>
     <g id="text_11">
      <!-- 0.6 -->
      <g transform="translate(34.696875 154.135219)scale(0.1 -0.1)">
       <use xlink:href="#DejaVuSans-48"/>
       <use x="63.623047" xlink:href="#DejaVuSans-46"/>
       <use x="95.410156" xlink:href="#DejaVuSans-54"/>
      </g>
     </g>
    </g>
    <g id="ytick_5">
     <g id="line2d_10">
      <g>
       <use style="stroke:#000000;stroke-width:0.8;" x="57.6" xlink:href="#m9a9e328dad" y="101.952"/>
      </g>
     </g>
     <g id="text_12">
      <!-- 0.8 -->
      <g transform="translate(34.696875 105.751219)scale(0.1 -0.1)">
       <defs>
        <path d="M 31.78125 34.625 
Q 24.75 34.625 20.71875 30.859375 
Q 16.703125 27.09375 16.703125 20.515625 
Q 16.703125 13.921875 20.71875 10.15625 
Q 24.75 6.390625 31.78125 6.390625 
Q 38.8125 6.390625 42.859375 10.171875 
Q 46.921875 13.96875 46.921875 20.515625 
Q 46.921875 27.09375 42.890625 30.859375 
Q 38.875 34.625 31.78125 34.625 
z
M 21.921875 38.8125 
Q 15.578125 40.375 12.03125 44.71875 
Q 8.5 49.078125 8.5 55.328125 
Q 8.5 64.0625 14.71875 69.140625 
Q 20.953125 74.21875 31.78125 74.21875 
Q 42.671875 74.21875 48.875 69.140625 
Q 55.078125 64.0625 55.078125 55.328125 
Q 55.078125 49.078125 51.53125 44.71875 
Q 48 40.375 41.703125 38.8125 
Q 48.828125 37.15625 52.796875 32.3125 
Q 56.78125 27.484375 56.78125 20.515625 
Q 56.78125 9.90625 50.3125 4.234375 
Q 43.84375 -1.421875 31.78125 -1.421875 
Q 19.734375 -1.421875 13.25 4.234375 
Q 6.78125 9.90625 6.78125 20.515625 
Q 6.78125 27.484375 10.78125 32.3125 
Q 14.796875 37.15625 21.921875 38.8125 
z
M 18.3125 54.390625 
Q 18.3125 48.734375 21.84375 45.5625 
Q 25.390625 42.390625 31.78125 42.390625 
Q 38.140625 42.390625 41.71875 45.5625 
Q 45.3125 48.734375 45.3125 54.390625 
Q 45.3125 60.0625 41.71875 63.234375 
Q 38.140625 66.40625 31.78125 66.40625 
Q 25.390625 66.40625 21.84375 63.234375 
Q 18.3125 60.0625 18.3125 54.390625 
z
" id="DejaVuSans-56"/>
       </defs>
       <use xlink:href="#DejaVuSans-48"/>
       <use x="63.623047" xlink:href="#DejaVuSans-46"/>
       <use x="95.410156" xlink:href="#DejaVuSans-56"/>
      </g>
     </g>
    </g>
    <g id="ytick_6">
     <g id="line2d_11">
      <g>
       <use style="stroke:#000000;stroke-width:0.8;" x="57.6" xlink:href="#m9a9e328dad" y="53.568"/>
      </g>
     </g>
     <g id="text_13">
      <!-- 1.0 -->
      <g transform="translate(34.696875 57.367219)scale(0.1 -0.1)">
       <use xlink:href="#DejaVuSans-49"/>
       <use x="63.623047" xlink:href="#DejaVuSans-46"/>
       <use x="95.410156" xlink:href="#DejaVuSans-48"/>
      </g>
     </g>
    </g>
    <g id="text_14">
     <!-- density -->
     <g transform="translate(28.617187 192.860812)rotate(-90)scale(0.1 -0.1)">
      <defs>
       <path d="M 32.171875 -5.078125 
Q 28.375 -14.84375 24.75 -17.8125 
Q 21.140625 -20.796875 15.09375 -20.796875 
L 7.90625 -20.796875 
L 7.90625 -13.28125 
L 13.1875 -13.28125 
Q 16.890625 -13.28125 18.9375 -11.515625 
Q 21 -9.765625 23.484375 -3.21875 
L 25.09375 0.875 
L 2.984375 54.6875 
L 12.5 54.6875 
L 29.59375 11.921875 
L 46.6875 54.6875 
L 56.203125 54.6875 
z
" id="DejaVuSans-121"/>
      </defs>
      <use xlink:href="#DejaVuSans-100"/>
      <use x="63.476562" xlink:href="#DejaVuSans-101"/>
      <use x="125" xlink:href="#DejaVuSans-110"/>
      <use x="188.378906" xlink:href="#DejaVuSans-115"/>
      <use x="240.478516" xlink:href="#DejaVuSans-105"/>
      <use x="268.261719" xlink:href="#DejaVuSans-116"/>
      <use x="307.470703" xlink:href="#DejaVuSans-121"/>
     </g>
    </g>
   </g>
   <g id="line2d_12">
    <path clip-path="url(#p011a76e595)" d="M 57.6 295.488 
L 57.600222 295.467074 
L 57.600222 295.37756 
L 57.711309 258.706739 
L 57.711754 258.605599 
L 57.711754 258.596299 
L 57.822841 234.520319 
L 57.823508 234.426154 
L 57.823508 234.409879 
L 57.934595 217.986829 
L 57.935558 217.881039 
L 57.935558 217.876389 
L 58.046645 205.710521 
L 58.047757 205.607055 
L 58.047757 205.60008 
L 58.158844 195.975501 
L 58.160622 195.867386 
L 58.160622 195.865061 
L 58.271709 187.920336 
L 58.273265 187.812221 
L 58.273265 187.809896 
L 58.384352 180.920748 
L 58.386576 180.812633 
L 58.386576 180.810308 
L 58.497663 174.718655 
L 58.499812 174.608215 
L 58.61075 169.204779 
L 58.613418 169.094339 
L 58.724505 164.346569 
L 58.727173 164.236129 
L 58.83826 159.849906 
L 58.841224 159.740629 
L 58.841224 159.739466 
L 58.952311 155.72409 
L 58.955646 155.615975 
L 58.955646 155.61365 
L 59.066733 152.094674 
L 59.070364 151.984234 
L 59.181451 148.583836 
L 59.18486 148.473396 
L 59.295947 145.405481 
L 59.300245 145.295041 
L 59.411332 142.395693 
L 59.416446 142.285253 
L 59.527533 139.67305 
L 59.532127 139.563772 
L 59.532127 139.562609 
L 59.643214 137.025971 
L 59.648772 136.91553 
L 59.759859 134.484682 
L 59.764899 134.375404 
L 59.764899 134.374242 
L 59.875911 132.166599 
L 59.881914 132.056158 
L 59.993001 130.03452 
L 59.999671 129.92408 
L 60.110684 127.94313 
L 60.116983 127.83269 
L 60.22807 125.961018 
L 60.235258 125.852903 
L 60.235258 125.850578 
L 60.346345 123.876603 
L 60.353904 123.766163 
L 60.464843 122.04562 
L 60.471809 121.935179 
L 60.582822 120.222774 
L 60.590973 120.114659 
L 60.590973 120.112334 
L 60.70169 118.546407 
L 60.709693 118.437129 
L 60.709693 118.435966 
L 60.820706 117.015356 
L 60.82908 116.908403 
L 60.82908 116.904915 
L 60.940093 115.480817 
L 60.949505 115.371539 
L 60.949505 115.370377 
L 61.060592 113.97883 
L 61.070893 113.868389 
L 61.18198 112.540781 
L 61.190576 112.430341 
L 61.301589 111.121333 
L 61.312631 111.010892 
L 61.423421 109.812325 
L 61.433648 109.701885 
L 61.544661 108.525405 
L 61.556444 108.414965 
L 61.667383 107.271036 
L 61.679685 107.162921 
L 61.679685 107.160596 
L 61.790772 106.065493 
L 61.804482 105.955053 
L 61.915124 104.849488 
L 61.927203 104.739047 
L 62.03829 103.74276 
L 62.052148 103.633482 
L 62.052148 103.63232 
L 62.162865 102.654633 
L 62.17324 102.544192 
L 62.284253 101.624632 
L 62.296999 101.515354 
L 62.296999 101.514192 
L 62.408086 100.665545 
L 62.423278 100.555105 
L 62.534365 99.701808 
L 62.550891 99.591368 
L 62.661904 98.762485 
L 62.68132 98.652045 
L 62.792185 97.905701 
L 62.808636 97.795261 
L 62.919427 96.988465 
L 62.938324 96.878025 
L 63.049411 96.138657 
L 63.068976 96.028216 
L 63.180063 95.312098 
L 63.197552 95.202821 
L 63.197552 95.201658 
L 63.308342 94.497165 
L 63.328722 94.386725 
L 63.439661 93.689208 
L 63.463079 93.57993 
L 63.463079 93.578767 
L 63.574017 92.8859 
L 63.59499 92.77546 
L 63.705854 92.08143 
L 63.727123 91.970989 
L 63.838136 91.351361 
L 63.859775 91.240921 
L 63.97064 90.635243 
L 63.991094 90.524803 
L 64.101958 89.976089 
L 64.126858 89.865649 
L 64.237797 89.278572 
L 64.260696 89.168131 
L 64.371635 88.59733 
L 64.394756 88.488052 
L 64.394756 88.486889 
L 64.505769 87.976539 
L 64.528965 87.866099 
L 64.640052 87.340636 
L 64.659394 87.231358 
L 64.659394 87.230195 
L 64.770258 86.72682 
L 64.797975 86.61638 
L 64.908024 86.161831 
L 64.937667 86.051391 
L 65.048754 85.560803 
L 65.07395 85.450363 
L 65.184815 85.01674 
L 65.210975 84.906299 
L 65.321988 84.470351 
L 65.353187 84.359911 
L 65.463903 83.907687 
L 65.489619 83.797247 
L 65.600483 83.341535 
L 65.633165 83.232257 
L 65.633165 83.231095 
L 65.744103 82.846298 
L 65.76967 82.735857 
L 65.88009 82.367336 
L 65.917589 82.258058 
L 65.917589 82.256895 
L 66.028379 81.874423 
L 66.06195 81.763983 
L 66.173037 81.378023 
L 66.208534 81.267583 
L 66.319102 80.940912 
L 66.352525 80.830472 
L 66.462871 80.488689 
L 66.491773 80.378248 
L 66.60286 80.007401 
L 66.639469 79.896961 
L 66.750407 79.590053 
L 66.784126 79.479613 
L 66.894102 79.169218 
L 66.934935 79.058778 
L 67.045725 78.74257 
L 67.09434 78.632129 
L 67.205056 78.34266 
L 67.248928 78.233382 
L 67.248928 78.232219 
L 67.360015 77.935774 
L 67.407591 77.825334 
L 67.517863 77.548652 
L 67.564032 77.438212 
L 67.674823 77.15223 
L 67.729959 77.041789 
L 67.840749 76.765108 
L 67.891587 76.654667 
L 68.0026 76.400073 
L 68.054771 76.289633 
L 68.165784 76.014114 
L 68.208914 75.903673 
L 68.319853 75.636292 
L 68.369653 75.525851 
L 68.480518 75.26312 
L 68.531059 75.15268 
L 68.641257 74.919011 
L 68.69328 74.808571 
L 68.804219 74.601641 
L 68.855501 74.492363 
L 68.855501 74.4912 
L 68.965032 74.257532 
L 69.017055 74.147092 
L 69.127623 73.932024 
L 69.195209 73.821584 
L 69.305926 73.622791 
L 69.354763 73.512351 
L 69.46585 73.293795 
L 69.529137 73.183355 
L 69.64015 72.985725 
L 69.699436 72.875285 
L 69.810375 72.683468 
L 69.869512 72.573027 
L 69.978821 72.387023 
L 70.038848 72.276582 
L 70.149712 72.108016 
L 70.21463 71.998738 
L 70.21463 71.997575 
L 70.324532 71.811571 
L 70.385448 71.702293 
L 70.385448 71.70113 
L 70.496461 71.530239 
L 70.556636 71.419798 
L 70.663425 71.275645 
L 70.728046 71.165204 
L 70.838022 71.004775 
L 70.922208 70.894335 
L 71.03322 70.755994 
L 71.102955 70.645554 
L 71.212338 70.48745 
L 71.286371 70.37701 
L 71.397236 70.194493 
L 71.467564 70.084052 
L 71.577835 69.943386 
L 71.655426 69.832946 
L 71.765031 69.685305 
L 71.844992 69.574864 
L 71.955783 69.410948 
L 72.036041 69.300508 
L 72.146832 69.165654 
L 72.24332 69.055214 
L 72.353665 68.936636 
L 72.437703 68.826196 
L 72.548049 68.69018 
L 72.654986 68.579739 
L 72.765999 68.442561 
L 72.865303 68.332121 
L 72.976019 68.204243 
L 73.065911 68.094965 
L 73.065911 68.093802 
L 73.175664 67.964762 
L 73.268447 67.854321 
L 73.379311 67.746206 
L 73.491288 67.635766 
L 73.602375 67.526488 
L 73.71272 67.416048 
L 73.823659 67.30677 
L 73.935117 67.19633 
L 74.044129 67.088215 
L 74.138838 66.977774 
L 74.248517 66.871984 
L 74.370053 66.761544 
L 74.477138 66.638316 
L 74.599267 66.527875 
L 74.709316 66.42441 
L 74.83441 66.31397 
L 74.945126 66.196555 
L 75.073776 66.086114 
L 75.184122 65.974512 
L 75.309438 65.864071 
L 75.420302 65.767581 
L 75.543172 65.657141 
L 75.652629 65.557164 
L 75.800103 65.446723 
L 75.910967 65.366509 
L 76.049548 65.256069 
L 76.153521 65.167716 
L 76.283283 65.057276 
L 76.393925 64.968924 
L 76.520056 64.858484 
L 76.621361 64.766644 
L 76.767204 64.656203 
L 76.878069 64.562039 
L 77.018798 64.451598 
L 77.128626 64.377196 
L 77.269207 64.266756 
L 77.377923 64.165616 
L 77.516504 64.055176 
L 77.6247 63.970311 
L 77.753795 63.861033 
L 77.753795 63.859871 
L 77.864882 63.775006 
L 78.0191 63.664566 
L 78.128408 63.582026 
L 78.26358 63.471586 
L 78.374593 63.391372 
L 78.534591 63.280931 
L 78.642936 63.210017 
L 78.817681 63.099577 
L 78.926989 63.0275 
L 79.085727 62.91706 
L 79.196592 62.860096 
L 79.388085 62.749656 
L 79.498653 62.660141 
L 79.678808 62.549701 
L 79.789376 62.484599 
L 79.963677 62.374159 
L 80.070392 62.317195 
L 80.242914 62.206754 
L 80.351629 62.139328 
L 80.55913 62.03005 
L 80.55913 62.028887 
L 80.668364 61.966111 
L 80.883572 61.855671 
L 80.993918 61.799869 
L 81.204086 61.689429 
L 81.313395 61.637115 
L 81.534086 61.526675 
L 81.643988 61.469711 
L 81.840224 61.359271 
L 81.946049 61.295332 
L 82.168149 61.184891 
L 82.278791 61.12444 
L 82.511118 61.013999 
L 82.621093 60.964011 
L 82.87543 60.85357 
L 82.98585 60.804744 
L 83.228996 60.694304 
L 83.339268 60.636177 
L 83.559663 60.525737 
L 83.668527 60.478074 
L 83.934869 60.367633 
L 84.037285 60.336245 
L 84.37514 60.225805 
L 84.486079 60.188604 
L 84.819711 60.078163 
L 84.913827 60.042125 
L 85.13237 59.931685 
L 85.240937 59.880534 
L 85.56486 59.770093 
L 85.664683 59.737542 
L 86.008022 59.627102 
L 86.116515 59.577113 
L 86.413982 59.466673 
L 86.523439 59.42831 
L 86.88449 59.317869 
L 86.990167 59.274856 
L 87.387234 59.164416 
L 87.49343 59.128377 
L 87.905616 59.017937 
L 88.011737 58.980736 
L 88.341293 58.870296 
L 88.450082 58.842395 
L 88.777785 58.731955 
L 88.884796 58.707542 
L 89.209535 58.597101 
L 89.317435 58.566876 
L 89.671594 58.456435 
L 89.780161 58.427372 
L 90.136988 58.316932 
L 90.235255 58.286706 
L 90.694646 58.176266 
L 90.80188 58.147202 
L 91.201467 58.036762 
L 91.311664 58.011187 
L 91.748675 57.900746 
L 91.859244 57.862383 
L 92.266982 57.751943 
L 92.373178 57.724042 
L 92.822862 57.613602 
L 92.93054 57.589188 
L 93.519175 57.478748 
L 93.624036 57.454335 
L 94.203556 57.343895 
L 94.307455 57.317157 
L 94.840731 57.206716 
L 94.945445 57.178816 
L 95.493395 57.068375 
L 95.590846 57.034662 
L 96.052757 56.924222 
L 96.162955 56.904459 
L 96.746254 56.794019 
L 96.843409 56.778906 
L 97.478509 56.668465 
L 97.585224 56.651027 
L 98.280869 56.540587 
L 98.382322 56.520824 
L 99.20447 56.410384 
L 99.298882 56.387133 
L 100.196323 56.276693 
L 100.302148 56.25228 
L 101.332537 56.14184 
L 101.437399 56.126727 
L 102.242872 56.016286 
L 102.346251 56.002336 
L 103.175809 55.891896 
L 103.284747 55.868645 
L 104.533753 55.758205 
L 104.611195 55.74658 
L 105.726437 55.636139 
L 105.834411 55.618701 
L 106.899705 55.508261 
L 107.007383 55.491986 
L 108.089721 55.381546 
L 108.187468 55.373408 
L 109.301969 55.262968 
L 109.407572 55.25018 
L 110.572243 55.139739 
L 110.661839 55.130439 
L 112.24996 55.019999 
L 112.360084 55.006049 
L 114.037356 54.895608 
L 114.103311 54.889796 
L 116.21841 54.779355 
L 116.31386 54.768893 
L 118.532561 54.658452 
L 118.626677 54.646827 
L 121.368205 54.536387 
L 121.429047 54.530574 
L 124.766472 54.420134 
L 124.826722 54.416646 
L 127.991329 54.306206 
L 128.059285 54.302718 
L 131.820827 54.192278 
L 131.900789 54.186466 
L 136.234217 54.076025 
L 136.293207 54.072538 
L 141.833548 53.962097 
L 141.934852 53.95861 
L 148.14379 53.84817 
L 148.146977 53.845844 
L 168.229555 53.735404 
L 168.332045 53.731917 
L 386.73602 53.621476 
L 386.73602 53.620314 
L 414.72 53.569163 
L 414.72 53.568 
" style="fill:none;stroke:#1f77b4;stroke-linecap:square;stroke-width:1.5;"/>
   </g>
   <g id="line2d_13">
    <path clip-path="url(#p011a76e595)" d="M 57.6 295.488 
L 57.600222 295.45293 
L 57.600222 295.382791 
L 57.711309 245.127819 
L 57.71168 245.031377 
L 57.71168 245.02261 
L 57.822767 212.863636 
L 57.823434 212.767194 
L 57.823434 212.758427 
L 57.934521 191.997126 
L 57.93541 191.900684 
L 57.93541 191.891917 
L 58.046497 176.803151 
L 58.047386 176.697942 
L 58.158399 165.335338 
L 58.160252 165.230129 
L 58.271265 156.199665 
L 58.271857 156.103223 
L 58.271857 156.094455 
L 58.382722 148.326503 
L 58.384649 148.221293 
L 58.495736 141.461596 
L 58.499812 141.356387 
L 58.610454 135.131504 
L 58.614011 135.026294 
L 58.724802 130.537365 
L 58.727988 130.432155 
L 58.838408 126.004598 
L 58.841669 125.899388 
L 58.952608 122.094319 
L 58.956017 121.98911 
L 59.066881 118.578575 
L 59.071402 118.473366 
L 59.182118 115.062831 
L 59.185675 114.957622 
L 59.296762 112.011762 
L 59.301209 111.906553 
L 59.411555 108.995762 
L 59.415482 108.890553 
L 59.526495 106.339227 
L 59.531238 106.234018 
L 59.642103 103.79667 
L 59.646253 103.69146 
L 59.757043 101.446995 
L 59.762972 101.341786 
L 59.873762 99.20253 
L 59.881988 99.097321 
L 59.992705 97.221089 
L 59.997818 97.11588 
L 60.108609 95.493903 
L 60.116167 95.388694 
L 60.226291 93.793019 
L 60.233554 93.68781 
L 60.344418 92.083368 
L 60.351681 91.978159 
L 60.461137 90.391252 
L 60.470252 90.286043 
L 60.579931 88.813113 
L 60.588972 88.707904 
L 60.699467 87.392787 
L 60.709323 87.287578 
L 60.819446 86.068904 
L 60.831822 85.963695 
L 60.941575 84.753788 
L 60.95447 84.648578 
L 61.064149 83.640323 
L 61.079489 83.535113 
L 61.186797 82.474253 
L 61.201766 82.369044 
L 61.312705 81.413393 
L 61.331158 81.308183 
L 61.442245 80.378835 
L 61.460772 80.273625 
L 61.568005 79.396881 
L 61.583123 79.291672 
L 61.693617 78.51137 
L 61.712588 78.40616 
L 61.821082 77.634626 
L 61.838052 77.529416 
L 61.947361 76.801719 
L 61.971297 76.696509 
L 62.081791 76.144161 
L 62.120994 76.038951 
L 62.23008 75.486603 
L 62.262836 75.381393 
L 62.3737 74.925486 
L 62.397637 74.820277 
L 62.508205 74.162719 
L 62.537996 74.05751 
L 62.645304 73.548998 
L 62.701329 73.443789 
L 62.807821 72.944045 
L 62.826348 72.838835 
L 62.935805 72.242649 
L 62.964781 72.13744 
L 63.071866 71.707835 
L 63.102472 71.602626 
L 63.213189 71.190556 
L 63.245499 71.085347 
L 63.355252 70.69958 
L 63.380227 70.59437 
L 63.491165 70.155998 
L 63.516955 70.050789 
L 63.627523 69.665022 
L 63.648792 69.559812 
L 63.758471 69.095138 
L 63.814125 68.989929 
L 63.923878 68.665533 
L 63.9636 68.560324 
L 64.071204 68.139487 
L 64.101958 68.034278 
L 64.211267 67.674813 
L 64.24506 67.569603 
L 64.35333 67.192603 
L 64.405057 67.087394 
L 64.514736 66.762999 
L 64.551716 66.657789 
L 64.66221 66.324627 
L 64.694298 66.219417 
L 64.804496 65.895022 
L 64.850369 65.789813 
L 64.945819 65.544324 
L 64.999398 65.439115 
L 65.10841 65.176092 
L 65.145686 65.070883 
L 65.253883 64.869231 
L 65.303313 64.764022 
L 65.413288 64.465929 
L 65.473167 64.36072 
L 65.58418 64.132766 
L 65.642873 64.027557 
L 65.751218 63.808371 
L 65.824139 63.703162 
L 65.934708 63.466441 
L 66.009111 63.361232 
L 66.11968 63.185883 
L 66.182893 63.080674 
L 66.289237 62.85272 
L 66.3546 62.747511 
L 66.45131 62.519557 
L 66.534384 62.414348 
L 66.638505 62.265301 
L 66.713724 62.160092 
L 66.82407 62.011046 
L 66.912184 61.905836 
L 67.021418 61.748022 
L 67.114052 61.642813 
L 67.220322 61.537604 
L 67.285537 61.432395 
L 67.378615 61.274581 
L 67.489925 61.169371 
L 67.595676 61.116767 
L 67.708764 61.011557 
L 67.798211 60.862511 
L 67.911818 60.757302 
L 68.016532 60.617023 
L 68.197354 60.511813 
L 68.30355 60.362767 
L 68.398185 60.257557 
L 68.508753 60.143581 
L 68.629251 60.038371 
L 68.737819 59.976999 
L 68.867803 59.87179 
L 68.975852 59.784116 
L 69.129476 59.678906 
L 69.215218 59.599999 
L 69.407379 59.49479 
L 69.489786 59.433418 
L 69.611545 59.328209 
L 69.711293 59.231767 
L 69.854691 59.126558 
L 69.963184 59.056418 
L 70.155419 58.951209 
L 70.265023 58.863534 
L 70.37989 58.758325 
L 70.480157 58.714488 
L 70.694253 58.609279 
L 70.793335 58.521604 
L 71.04567 58.416395 
L 71.155572 58.319953 
L 71.359737 58.214744 
L 71.446517 58.153372 
L 71.805493 58.048162 
L 71.907094 57.98679 
L 72.131417 57.881581 
L 72.174993 57.855279 
L 72.425772 57.750069 
L 72.523816 57.706232 
L 72.759181 57.601023 
L 72.822172 57.539651 
L 73.053906 57.434441 
L 73.138981 57.390604 
L 73.379163 57.285395 
L 73.472761 57.215255 
L 73.62683 57.110046 
L 73.711535 57.057442 
L 74.339817 56.952232 
L 74.448162 56.864558 
L 74.823294 56.759349 
L 74.917336 56.689209 
L 75.225622 56.584 
L 75.296247 56.540163 
L 75.721697 56.434953 
L 75.812182 56.391116 
L 76.246822 56.285907 
L 76.285061 56.250837 
L 76.569411 56.145628 
L 76.667011 56.084256 
L 77.190061 55.979046 
L 77.236822 55.952744 
L 77.707256 55.847535 
L 77.771433 55.83 
L 78.291963 55.72479 
L 78.367182 55.698488 
L 78.88786 55.593279 
L 78.88786 55.584511 
L 79.418914 55.479302 
L 79.467454 55.453 
L 80.007474 55.347791 
L 80.105741 55.295186 
L 80.633015 55.189977 
L 80.651542 55.172442 
L 81.406622 55.067232 
L 81.450864 55.049698 
L 82.016896 54.944488 
L 82.034607 54.926953 
L 82.621093 54.821744 
L 82.72136 54.786674 
L 84.564707 54.681465 
L 84.6732 54.66393 
L 86.01447 54.558721 
L 86.01447 54.549953 
L 86.988537 54.444744 
L 86.988537 54.435977 
L 89.621572 54.330767 
L 89.621572 54.322 
L 91.5308 54.216791 
L 91.636551 54.190488 
L 94.386453 54.085279 
L 94.386453 54.076512 
L 95.466272 53.971302 
L 95.546233 53.953767 
L 99.20447 53.848558 
L 99.250564 53.831023 
L 106.044654 53.725814 
L 106.044654 53.717046 
L 144.670748 53.611837 
L 144.670748 53.60307 
L 414.72 53.568 
L 414.72 53.568 
" style="fill:none;stroke:#ff7f0e;stroke-linecap:square;stroke-width:1.5;"/>
   </g>
   <g id="line2d_14">
    <path clip-path="url(#p011a76e595)" d="M 57.6 295.488 
L 57.600296 295.488 
L 57.711161 245.088 
L 57.714718 245.088 
L 57.824545 212.608 
L 57.832697 212.608 
L 57.935706 193.568 
L 57.945266 193.568 
L 58.033973 182.368 
L 58.066802 182.368 
L 58.153953 171.168 
L 58.183892 171.168 
L 58.283122 152.128 
L 58.297795 152.128 
L 58.403398 142.048 
L 58.420813 142.048 
L 58.509446 131.968 
L 58.535531 131.968 
L 58.641579 123.008 
L 58.651584 123.008 
L 58.705089 119.648 
L 58.769488 119.648 
L 58.8702 112.928 
L 58.989439 112.928 
L 59.000333 110.688 
L 59.139062 110.688 
L 59.206574 108.448 
L 59.334557 108.448 
L 59.411258 106.208 
L 59.54102 106.208 
L 59.593488 103.968 
L 59.668337 103.968 
L 59.670708 101.728 
L 59.822258 101.728 
L 59.873762 98.368 
L 60.007156 98.368 
L 60.101642 92.768 
L 60.139808 92.768 
L 60.248153 86.048 
L 60.275721 86.048 
L 60.275721 84.928 
L 60.547028 84.928 
L 60.655743 82.688 
L 60.703098 82.688 
L 60.783653 79.328 
L 60.835676 79.328 
L 60.835676 78.208 
L 60.971663 78.208 
L 60.971663 77.088 
L 61.166343 77.088 
L 61.2363 73.728 
L 61.344645 73.728 
L 61.344645 72.608 
L 61.741194 72.608 
L 61.741194 71.488 
L 61.945286 71.488 
L 62.023988 69.248 
L 62.222892 69.248 
L 62.262836 65.888 
L 62.821976 65.888 
L 62.821976 64.768 
L 62.951145 64.768 
L 62.97145 62.528 
L 63.270844 62.528 
L 63.270844 61.408 
L 63.992205 61.408 
L 63.996652 59.168 
L 65.916774 59.168 
L 65.916774 58.048 
L 67.359348 58.048 
L 67.359348 56.928 
L 67.745743 56.928 
L 67.745743 55.808 
L 70.37989 55.808 
L 70.37989 54.688 
L 74.936085 54.688 
L 74.936085 53.568 
L 414.72 53.568 
L 414.72 53.568 
" style="fill:none;stroke:#2ca02c;stroke-linecap:square;stroke-width:1.5;"/>
   </g>
   <g id="patch_3">
    <path d="M 57.6 307.584 
L 57.6 41.472 
" style="fill:none;stroke:#000000;stroke-linecap:square;stroke-linejoin:miter;stroke-width:0.8;"/>
   </g>
   <g id="patch_4">
    <path d="M 414.72 307.584 
L 414.72 41.472 
" style="fill:none;stroke:#000000;stroke-linecap:square;stroke-linejoin:miter;stroke-width:0.8;"/>
   </g>
   <g id="patch_5">
    <path d="M 57.6 307.584 
L 414.72 307.584 
" style="fill:none;stroke:#000000;stroke-linecap:square;stroke-linejoin:miter;stroke-width:0.8;"/>
   </g>
   <g id="patch_6">
    <path d="M 57.6 41.472 
L 414.72 41.472 
" style="fill:none;stroke:#000000;stroke-linecap:square;stroke-linejoin:miter;stroke-width:0.8;"/>
   </g>
   <g id="text_15">
    <!-- CDF of upstream_exon_dist from within intronic STRs -->
    <g transform="translate(77.144062 35.472)scale(0.12 -0.12)">
     <defs>
      <path d="M 64.40625 67.28125 
L 64.40625 56.890625 
Q 59.421875 61.53125 53.78125 63.8125 
Q 48.140625 66.109375 41.796875 66.109375 
Q 29.296875 66.109375 22.65625 58.46875 
Q 16.015625 50.828125 16.015625 36.375 
Q 16.015625 21.96875 22.65625 14.328125 
Q 29.296875 6.6875 41.796875 6.6875 
Q 48.140625 6.6875 53.78125 8.984375 
Q 59.421875 11.28125 64.40625 15.921875 
L 64.40625 5.609375 
Q 59.234375 2.09375 53.4375 0.328125 
Q 47.65625 -1.421875 41.21875 -1.421875 
Q 24.65625 -1.421875 15.125 8.703125 
Q 5.609375 18.84375 5.609375 36.375 
Q 5.609375 53.953125 15.125 64.078125 
Q 24.65625 74.21875 41.21875 74.21875 
Q 47.75 74.21875 53.53125 72.484375 
Q 59.328125 70.75 64.40625 67.28125 
z
" id="DejaVuSans-67"/>
      <path d="M 19.671875 64.796875 
L 19.671875 8.109375 
L 31.59375 8.109375 
Q 46.6875 8.109375 53.6875 14.9375 
Q 60.6875 21.78125 60.6875 36.53125 
Q 60.6875 51.171875 53.6875 57.984375 
Q 46.6875 64.796875 31.59375 64.796875 
z
M 9.8125 72.90625 
L 30.078125 72.90625 
Q 51.265625 72.90625 61.171875 64.09375 
Q 71.09375 55.28125 71.09375 36.53125 
Q 71.09375 17.671875 61.125 8.828125 
Q 51.171875 0 30.078125 0 
L 9.8125 0 
z
" id="DejaVuSans-68"/>
      <path d="M 9.8125 72.90625 
L 51.703125 72.90625 
L 51.703125 64.59375 
L 19.671875 64.59375 
L 19.671875 43.109375 
L 48.578125 43.109375 
L 48.578125 34.8125 
L 19.671875 34.8125 
L 19.671875 0 
L 9.8125 0 
z
" id="DejaVuSans-70"/>
      <path d="M 30.609375 48.390625 
Q 23.390625 48.390625 19.1875 42.75 
Q 14.984375 37.109375 14.984375 27.296875 
Q 14.984375 17.484375 19.15625 11.84375 
Q 23.34375 6.203125 30.609375 6.203125 
Q 37.796875 6.203125 41.984375 11.859375 
Q 46.1875 17.53125 46.1875 27.296875 
Q 46.1875 37.015625 41.984375 42.703125 
Q 37.796875 48.390625 30.609375 48.390625 
z
M 30.609375 56 
Q 42.328125 56 49.015625 48.375 
Q 55.71875 40.765625 55.71875 27.296875 
Q 55.71875 13.875 49.015625 6.21875 
Q 42.328125 -1.421875 30.609375 -1.421875 
Q 18.84375 -1.421875 12.171875 6.21875 
Q 5.515625 13.875 5.515625 27.296875 
Q 5.515625 40.765625 12.171875 48.375 
Q 18.84375 56 30.609375 56 
z
" id="DejaVuSans-111"/>
      <path d="M 37.109375 75.984375 
L 37.109375 68.5 
L 28.515625 68.5 
Q 23.6875 68.5 21.796875 66.546875 
Q 19.921875 64.59375 19.921875 59.515625 
L 19.921875 54.6875 
L 34.71875 54.6875 
L 34.71875 47.703125 
L 19.921875 47.703125 
L 19.921875 0 
L 10.890625 0 
L 10.890625 47.703125 
L 2.296875 47.703125 
L 2.296875 54.6875 
L 10.890625 54.6875 
L 10.890625 58.5 
Q 10.890625 67.625 15.140625 71.796875 
Q 19.390625 75.984375 28.609375 75.984375 
z
" id="DejaVuSans-102"/>
      <path d="M 8.5 21.578125 
L 8.5 54.6875 
L 17.484375 54.6875 
L 17.484375 21.921875 
Q 17.484375 14.15625 20.5 10.265625 
Q 23.53125 6.390625 29.59375 6.390625 
Q 36.859375 6.390625 41.078125 11.03125 
Q 45.3125 15.671875 45.3125 23.6875 
L 45.3125 54.6875 
L 54.296875 54.6875 
L 54.296875 0 
L 45.3125 0 
L 45.3125 8.40625 
Q 42.046875 3.421875 37.71875 1 
Q 33.40625 -1.421875 27.6875 -1.421875 
Q 18.265625 -1.421875 13.375 4.4375 
Q 8.5 10.296875 8.5 21.578125 
z
M 31.109375 56 
z
" id="DejaVuSans-117"/>
      <path d="M 41.109375 46.296875 
Q 39.59375 47.171875 37.8125 47.578125 
Q 36.03125 48 33.890625 48 
Q 26.265625 48 22.1875 43.046875 
Q 18.109375 38.09375 18.109375 28.8125 
L 18.109375 0 
L 9.078125 0 
L 9.078125 54.6875 
L 18.109375 54.6875 
L 18.109375 46.1875 
Q 20.953125 51.171875 25.484375 53.578125 
Q 30.03125 56 36.53125 56 
Q 37.453125 56 38.578125 55.875 
Q 39.703125 55.765625 41.0625 55.515625 
z
" id="DejaVuSans-114"/>
      <path d="M 52 44.1875 
Q 55.375 50.25 60.0625 53.125 
Q 64.75 56 71.09375 56 
Q 79.640625 56 84.28125 50.015625 
Q 88.921875 44.046875 88.921875 33.015625 
L 88.921875 0 
L 79.890625 0 
L 79.890625 32.71875 
Q 79.890625 40.578125 77.09375 44.375 
Q 74.3125 48.1875 68.609375 48.1875 
Q 61.625 48.1875 57.5625 43.546875 
Q 53.515625 38.921875 53.515625 30.90625 
L 53.515625 0 
L 44.484375 0 
L 44.484375 32.71875 
Q 44.484375 40.625 41.703125 44.40625 
Q 38.921875 48.1875 33.109375 48.1875 
Q 26.21875 48.1875 22.15625 43.53125 
Q 18.109375 38.875 18.109375 30.90625 
L 18.109375 0 
L 9.078125 0 
L 9.078125 54.6875 
L 18.109375 54.6875 
L 18.109375 46.1875 
Q 21.1875 51.21875 25.484375 53.609375 
Q 29.78125 56 35.6875 56 
Q 41.65625 56 45.828125 52.96875 
Q 50 49.953125 52 44.1875 
z
" id="DejaVuSans-109"/>
      <path d="M 50.984375 -16.609375 
L 50.984375 -23.578125 
L -0.984375 -23.578125 
L -0.984375 -16.609375 
z
" id="DejaVuSans-95"/>
      <path d="M 54.890625 54.6875 
L 35.109375 28.078125 
L 55.90625 0 
L 45.3125 0 
L 29.390625 21.484375 
L 13.484375 0 
L 2.875 0 
L 24.125 28.609375 
L 4.6875 54.6875 
L 15.28125 54.6875 
L 29.78125 35.203125 
L 44.28125 54.6875 
z
" id="DejaVuSans-120"/>
      <path d="M 4.203125 54.6875 
L 13.1875 54.6875 
L 24.421875 12.015625 
L 35.59375 54.6875 
L 46.1875 54.6875 
L 57.421875 12.015625 
L 68.609375 54.6875 
L 77.59375 54.6875 
L 63.28125 0 
L 52.6875 0 
L 40.921875 44.828125 
L 29.109375 0 
L 18.5 0 
z
" id="DejaVuSans-119"/>
      <path d="M 54.890625 33.015625 
L 54.890625 0 
L 45.90625 0 
L 45.90625 32.71875 
Q 45.90625 40.484375 42.875 44.328125 
Q 39.84375 48.1875 33.796875 48.1875 
Q 26.515625 48.1875 22.3125 43.546875 
Q 18.109375 38.921875 18.109375 30.90625 
L 18.109375 0 
L 9.078125 0 
L 9.078125 75.984375 
L 18.109375 75.984375 
L 18.109375 46.1875 
Q 21.34375 51.125 25.703125 53.5625 
Q 30.078125 56 35.796875 56 
Q 45.21875 56 50.046875 50.171875 
Q 54.890625 44.34375 54.890625 33.015625 
z
" id="DejaVuSans-104"/>
      <path d="M 53.515625 70.515625 
L 53.515625 60.890625 
Q 47.90625 63.578125 42.921875 64.890625 
Q 37.9375 66.21875 33.296875 66.21875 
Q 25.25 66.21875 20.875 63.09375 
Q 16.5 59.96875 16.5 54.203125 
Q 16.5 49.359375 19.40625 46.890625 
Q 22.3125 44.4375 30.421875 42.921875 
L 36.375 41.703125 
Q 47.40625 39.59375 52.65625 34.296875 
Q 57.90625 29 57.90625 20.125 
Q 57.90625 9.515625 50.796875 4.046875 
Q 43.703125 -1.421875 29.984375 -1.421875 
Q 24.8125 -1.421875 18.96875 -0.25 
Q 13.140625 0.921875 6.890625 3.21875 
L 6.890625 13.375 
Q 12.890625 10.015625 18.65625 8.296875 
Q 24.421875 6.59375 29.984375 6.59375 
Q 38.421875 6.59375 43.015625 9.90625 
Q 47.609375 13.234375 47.609375 19.390625 
Q 47.609375 24.75 44.3125 27.78125 
Q 41.015625 30.8125 33.5 32.328125 
L 27.484375 33.5 
Q 16.453125 35.6875 11.515625 40.375 
Q 6.59375 45.0625 6.59375 53.421875 
Q 6.59375 63.09375 13.40625 68.65625 
Q 20.21875 74.21875 32.171875 74.21875 
Q 37.3125 74.21875 42.625 73.28125 
Q 47.953125 72.359375 53.515625 70.515625 
z
" id="DejaVuSans-83"/>
      <path d="M -0.296875 72.90625 
L 61.375 72.90625 
L 61.375 64.59375 
L 35.5 64.59375 
L 35.5 0 
L 25.59375 0 
L 25.59375 64.59375 
L -0.296875 64.59375 
z
" id="DejaVuSans-84"/>
      <path d="M 44.390625 34.1875 
Q 47.5625 33.109375 50.5625 29.59375 
Q 53.5625 26.078125 56.59375 19.921875 
L 66.609375 0 
L 56 0 
L 46.6875 18.703125 
Q 43.0625 26.03125 39.671875 28.421875 
Q 36.28125 30.8125 30.421875 30.8125 
L 19.671875 30.8125 
L 19.671875 0 
L 9.8125 0 
L 9.8125 72.90625 
L 32.078125 72.90625 
Q 44.578125 72.90625 50.734375 67.671875 
Q 56.890625 62.453125 56.890625 51.90625 
Q 56.890625 45.015625 53.6875 40.46875 
Q 50.484375 35.9375 44.390625 34.1875 
z
M 19.671875 64.796875 
L 19.671875 38.921875 
L 32.078125 38.921875 
Q 39.203125 38.921875 42.84375 42.21875 
Q 46.484375 45.515625 46.484375 51.90625 
Q 46.484375 58.296875 42.84375 61.546875 
Q 39.203125 64.796875 32.078125 64.796875 
z
" id="DejaVuSans-82"/>
     </defs>
     <use xlink:href="#DejaVuSans-67"/>
     <use x="69.824219" xlink:href="#DejaVuSans-68"/>
     <use x="146.826172" xlink:href="#DejaVuSans-70"/>
     <use x="204.345703" xlink:href="#DejaVuSans-32"/>
     <use x="236.132812" xlink:href="#DejaVuSans-111"/>
     <use x="297.314453" xlink:href="#DejaVuSans-102"/>
     <use x="332.519531" xlink:href="#DejaVuSans-32"/>
     <use x="364.306641" xlink:href="#DejaVuSans-117"/>
     <use x="427.685547" xlink:href="#DejaVuSans-112"/>
     <use x="491.162109" xlink:href="#DejaVuSans-115"/>
     <use x="543.261719" xlink:href="#DejaVuSans-116"/>
     <use x="582.470703" xlink:href="#DejaVuSans-114"/>
     <use x="621.333984" xlink:href="#DejaVuSans-101"/>
     <use x="682.857422" xlink:href="#DejaVuSans-97"/>
     <use x="744.136719" xlink:href="#DejaVuSans-109"/>
     <use x="841.548828" xlink:href="#DejaVuSans-95"/>
     <use x="891.548828" xlink:href="#DejaVuSans-101"/>
     <use x="951.322266" xlink:href="#DejaVuSans-120"/>
     <use x="1007.376953" xlink:href="#DejaVuSans-111"/>
     <use x="1068.558594" xlink:href="#DejaVuSans-110"/>
     <use x="1131.9375" xlink:href="#DejaVuSans-95"/>
     <use x="1181.9375" xlink:href="#DejaVuSans-100"/>
     <use x="1245.414062" xlink:href="#DejaVuSans-105"/>
     <use x="1273.197266" xlink:href="#DejaVuSans-115"/>
     <use x="1325.296875" xlink:href="#DejaVuSans-116"/>
     <use x="1364.505859" xlink:href="#DejaVuSans-32"/>
     <use x="1396.292969" xlink:href="#DejaVuSans-102"/>
     <use x="1431.498047" xlink:href="#DejaVuSans-114"/>
     <use x="1470.361328" xlink:href="#DejaVuSans-111"/>
     <use x="1531.542969" xlink:href="#DejaVuSans-109"/>
     <use x="1628.955078" xlink:href="#DejaVuSans-32"/>
     <use x="1660.742188" xlink:href="#DejaVuSans-119"/>
     <use x="1742.529297" xlink:href="#DejaVuSans-105"/>
     <use x="1770.3125" xlink:href="#DejaVuSans-116"/>
     <use x="1809.521484" xlink:href="#DejaVuSans-104"/>
     <use x="1872.900391" xlink:href="#DejaVuSans-105"/>
     <use x="1900.683594" xlink:href="#DejaVuSans-110"/>
     <use x="1964.0625" xlink:href="#DejaVuSans-32"/>
     <use x="1995.849609" xlink:href="#DejaVuSans-105"/>
     <use x="2023.632812" xlink:href="#DejaVuSans-110"/>
     <use x="2087.011719" xlink:href="#DejaVuSans-116"/>
     <use x="2126.220703" xlink:href="#DejaVuSans-114"/>
     <use x="2165.083984" xlink:href="#DejaVuSans-111"/>
     <use x="2226.265625" xlink:href="#DejaVuSans-110"/>
     <use x="2289.644531" xlink:href="#DejaVuSans-105"/>
     <use x="2317.427734" xlink:href="#DejaVuSans-99"/>
     <use x="2372.408203" xlink:href="#DejaVuSans-32"/>
     <use x="2404.195312" xlink:href="#DejaVuSans-83"/>
     <use x="2467.671875" xlink:href="#DejaVuSans-84"/>
     <use x="2528.755859" xlink:href="#DejaVuSans-82"/>
     <use x="2598.238281" xlink:href="#DejaVuSans-115"/>
    </g>
   </g>
   <g id="legend_1">
    <g id="patch_7">
     <path d="M 64.6 302.584 
L 152.739062 302.584 
Q 154.739062 302.584 154.739062 300.584 
L 154.739062 256.993375 
Q 154.739062 254.993375 152.739062 254.993375 
L 64.6 254.993375 
Q 62.6 254.993375 62.6 256.993375 
L 62.6 300.584 
Q 62.6 302.584 64.6 302.584 
z
" style="fill:#ffffff;opacity:0.8;stroke:#cccccc;stroke-linejoin:miter;"/>
    </g>
    <g id="line2d_15">
     <path d="M 66.6 263.091812 
L 86.6 263.091812 
" style="fill:none;stroke:#1f77b4;stroke-linecap:square;stroke-width:1.5;"/>
    </g>
    <g id="line2d_16"/>
    <g id="text_16">
     <!-- all_STRs -->
     <g transform="translate(94.6 266.591812)scale(0.1 -0.1)">
      <defs>
       <path d="M 9.421875 75.984375 
L 18.40625 75.984375 
L 18.40625 0 
L 9.421875 0 
z
" id="DejaVuSans-108"/>
      </defs>
      <use xlink:href="#DejaVuSans-97"/>
      <use x="61.279297" xlink:href="#DejaVuSans-108"/>
      <use x="89.0625" xlink:href="#DejaVuSans-108"/>
      <use x="116.845703" xlink:href="#DejaVuSans-95"/>
      <use x="166.845703" xlink:href="#DejaVuSans-83"/>
      <use x="230.322266" xlink:href="#DejaVuSans-84"/>
      <use x="291.40625" xlink:href="#DejaVuSans-82"/>
      <use x="360.888672" xlink:href="#DejaVuSans-115"/>
     </g>
    </g>
    <g id="line2d_17">
     <path d="M 66.6 278.048062 
L 86.6 278.048062 
" style="fill:none;stroke:#ff7f0e;stroke-linecap:square;stroke-width:1.5;"/>
    </g>
    <g id="line2d_18"/>
    <g id="text_17">
     <!-- gwas_sig -->
     <g transform="translate(94.6 281.548062)scale(0.1 -0.1)">
      <defs>
       <path d="M 45.40625 27.984375 
Q 45.40625 37.75 41.375 43.109375 
Q 37.359375 48.484375 30.078125 48.484375 
Q 22.859375 48.484375 18.828125 43.109375 
Q 14.796875 37.75 14.796875 27.984375 
Q 14.796875 18.265625 18.828125 12.890625 
Q 22.859375 7.515625 30.078125 7.515625 
Q 37.359375 7.515625 41.375 12.890625 
Q 45.40625 18.265625 45.40625 27.984375 
z
M 54.390625 6.78125 
Q 54.390625 -7.171875 48.1875 -13.984375 
Q 42 -20.796875 29.203125 -20.796875 
Q 24.46875 -20.796875 20.265625 -20.09375 
Q 16.0625 -19.390625 12.109375 -17.921875 
L 12.109375 -9.1875 
Q 16.0625 -11.328125 19.921875 -12.34375 
Q 23.78125 -13.375 27.78125 -13.375 
Q 36.625 -13.375 41.015625 -8.765625 
Q 45.40625 -4.15625 45.40625 5.171875 
L 45.40625 9.625 
Q 42.625 4.78125 38.28125 2.390625 
Q 33.9375 0 27.875 0 
Q 17.828125 0 11.671875 7.65625 
Q 5.515625 15.328125 5.515625 27.984375 
Q 5.515625 40.671875 11.671875 48.328125 
Q 17.828125 56 27.875 56 
Q 33.9375 56 38.28125 53.609375 
Q 42.625 51.21875 45.40625 46.390625 
L 45.40625 54.6875 
L 54.390625 54.6875 
z
" id="DejaVuSans-103"/>
      </defs>
      <use xlink:href="#DejaVuSans-103"/>
      <use x="63.476562" xlink:href="#DejaVuSans-119"/>
      <use x="145.263672" xlink:href="#DejaVuSans-97"/>
      <use x="206.542969" xlink:href="#DejaVuSans-115"/>
      <use x="258.642578" xlink:href="#DejaVuSans-95"/>
      <use x="308.642578" xlink:href="#DejaVuSans-115"/>
      <use x="360.742188" xlink:href="#DejaVuSans-105"/>
      <use x="388.525391" xlink:href="#DejaVuSans-103"/>
     </g>
    </g>
    <g id="line2d_19">
     <path d="M 66.6 293.004312 
L 86.6 293.004312 
" style="fill:none;stroke:#2ca02c;stroke-linecap:square;stroke-width:1.5;"/>
    </g>
    <g id="line2d_20"/>
    <g id="text_18">
     <!-- FINEMAPed -->
     <g transform="translate(94.6 296.504312)scale(0.1 -0.1)">
      <defs>
       <path d="M 9.8125 72.90625 
L 19.671875 72.90625 
L 19.671875 0 
L 9.8125 0 
z
" id="DejaVuSans-73"/>
       <path d="M 9.8125 72.90625 
L 23.09375 72.90625 
L 55.421875 11.921875 
L 55.421875 72.90625 
L 64.984375 72.90625 
L 64.984375 0 
L 51.703125 0 
L 19.390625 60.984375 
L 19.390625 0 
L 9.8125 0 
z
" id="DejaVuSans-78"/>
       <path d="M 9.8125 72.90625 
L 55.90625 72.90625 
L 55.90625 64.59375 
L 19.671875 64.59375 
L 19.671875 43.015625 
L 54.390625 43.015625 
L 54.390625 34.71875 
L 19.671875 34.71875 
L 19.671875 8.296875 
L 56.78125 8.296875 
L 56.78125 0 
L 9.8125 0 
z
" id="DejaVuSans-69"/>
       <path d="M 9.8125 72.90625 
L 24.515625 72.90625 
L 43.109375 23.296875 
L 61.8125 72.90625 
L 76.515625 72.90625 
L 76.515625 0 
L 66.890625 0 
L 66.890625 64.015625 
L 48.09375 14.015625 
L 38.1875 14.015625 
L 19.390625 64.015625 
L 19.390625 0 
L 9.8125 0 
z
" id="DejaVuSans-77"/>
       <path d="M 34.1875 63.1875 
L 20.796875 26.90625 
L 47.609375 26.90625 
z
M 28.609375 72.90625 
L 39.796875 72.90625 
L 67.578125 0 
L 57.328125 0 
L 50.6875 18.703125 
L 17.828125 18.703125 
L 11.1875 0 
L 0.78125 0 
z
" id="DejaVuSans-65"/>
       <path d="M 19.671875 64.796875 
L 19.671875 37.40625 
L 32.078125 37.40625 
Q 38.96875 37.40625 42.71875 40.96875 
Q 46.484375 44.53125 46.484375 51.125 
Q 46.484375 57.671875 42.71875 61.234375 
Q 38.96875 64.796875 32.078125 64.796875 
z
M 9.8125 72.90625 
L 32.078125 72.90625 
Q 44.34375 72.90625 50.609375 67.359375 
Q 56.890625 61.8125 56.890625 51.125 
Q 56.890625 40.328125 50.609375 34.8125 
Q 44.34375 29.296875 32.078125 29.296875 
L 19.671875 29.296875 
L 19.671875 0 
L 9.8125 0 
z
" id="DejaVuSans-80"/>
      </defs>
      <use xlink:href="#DejaVuSans-70"/>
      <use x="57.519531" xlink:href="#DejaVuSans-73"/>
      <use x="87.011719" xlink:href="#DejaVuSans-78"/>
      <use x="161.816406" xlink:href="#DejaVuSans-69"/>
      <use x="225" xlink:href="#DejaVuSans-77"/>
      <use x="311.279297" xlink:href="#DejaVuSans-65"/>
      <use x="379.6875" xlink:href="#DejaVuSans-80"/>
      <use x="436.365234" xlink:href="#DejaVuSans-101"/>
      <use x="497.888672" xlink:href="#DejaVuSans-100"/>
     </g>
    </g>
   </g>
  </g>
 </g>
 <defs>
  <clipPath id="p011a76e595">
   <rect height="266.112" width="357.12" x="57.6" y="41.472"/>
  </clipPath>
 </defs>
</svg>
