<?xml version="1.0" encoding="utf-8" standalone="no"?>
<!DOCTYPE svg PUBLIC "-//W3C//DTD SVG 1.1//EN"
  "http://www.w3.org/Graphics/SVG/1.1/DTD/svg11.dtd">
<!-- Created with matplotlib (https://matplotlib.org/) -->
<svg height="345.6pt" version="1.1" viewBox="0 0 460.8 345.6" width="460.8pt" xmlns="http://www.w3.org/2000/svg" xmlns:xlink="http://www.w3.org/1999/xlink">
 <metadata>
  <rdf:RDF xmlns:cc="http://creativecommons.org/ns#" xmlns:dc="http://purl.org/dc/elements/1.1/" xmlns:rdf="http://www.w3.org/1999/02/22-rdf-syntax-ns#">
   <cc:Work>
    <dc:type rdf:resource="http://purl.org/dc/dcmitype/StillImage"/>
    <dc:date>2021-11-03T00:02:07.703830</dc:date>
    <dc:format>image/svg+xml</dc:format>
    <dc:creator>
     <cc:Agent>
      <dc:title>Matplotlib v3.3.4, https://matplotlib.org/</dc:title>
     </cc:Agent>
    </dc:creator>
   </cc:Work>
  </rdf:RDF>
 </metadata>
 <defs>
  <style type="text/css">*{stroke-linecap:butt;stroke-linejoin:round;}</style>
 </defs>
 <g id="figure_1">
  <g id="patch_1">
   <path d="M 0 345.6 
L 460.8 345.6 
L 460.8 0 
L 0 0 
z
" style="fill:#ffffff;"/>
  </g>
  <g id="axes_1">
   <g id="patch_2">
    <path d="M 57.6 307.584 
L 414.72 307.584 
L 414.72 41.472 
L 57.6 41.472 
z
" style="fill:#ffffff;"/>
   </g>
   <g id="matplotlib.axis_1">
    <g id="xtick_1">
     <g id="line2d_1">
      <defs>
       <path d="M 0 0 
L 0 3.5 
" id="m79d68d3cd9" style="stroke:#000000;stroke-width:0.8;"/>
      </defs>
      <g>
       <use style="stroke:#000000;stroke-width:0.8;" x="57.6" xlink:href="#m79d68d3cd9" y="307.584"/>
      </g>
     </g>
     <g id="text_1">
      <!-- 0 -->
      <g transform="translate(54.41875 322.182437)scale(0.1 -0.1)">
       <defs>
        <path d="M 31.78125 66.40625 
Q 24.171875 66.40625 20.328125 58.90625 
Q 16.5 51.421875 16.5 36.375 
Q 16.5 21.390625 20.328125 13.890625 
Q 24.171875 6.390625 31.78125 6.390625 
Q 39.453125 6.390625 43.28125 13.890625 
Q 47.125 21.390625 47.125 36.375 
Q 47.125 51.421875 43.28125 58.90625 
Q 39.453125 66.40625 31.78125 66.40625 
z
M 31.78125 74.21875 
Q 44.046875 74.21875 50.515625 64.515625 
Q 56.984375 54.828125 56.984375 36.375 
Q 56.984375 17.96875 50.515625 8.265625 
Q 44.046875 -1.421875 31.78125 -1.421875 
Q 19.53125 -1.421875 13.0625 8.265625 
Q 6.59375 17.96875 6.59375 36.375 
Q 6.59375 54.828125 13.0625 64.515625 
Q 19.53125 74.21875 31.78125 74.21875 
z
" id="DejaVuSans-48"/>
       </defs>
       <use xlink:href="#DejaVuSans-48"/>
      </g>
     </g>
    </g>
    <g id="xtick_2">
     <g id="line2d_2">
      <g>
       <use style="stroke:#000000;stroke-width:0.8;" x="125.964681" xlink:href="#m79d68d3cd9" y="307.584"/>
      </g>
     </g>
     <g id="text_2">
      <!-- 1 -->
      <g transform="translate(122.783431 322.182437)scale(0.1 -0.1)">
       <defs>
        <path d="M 12.40625 8.296875 
L 28.515625 8.296875 
L 28.515625 63.921875 
L 10.984375 60.40625 
L 10.984375 69.390625 
L 28.421875 72.90625 
L 38.28125 72.90625 
L 38.28125 8.296875 
L 54.390625 8.296875 
L 54.390625 0 
L 12.40625 0 
z
" id="DejaVuSans-49"/>
       </defs>
       <use xlink:href="#DejaVuSans-49"/>
      </g>
     </g>
    </g>
    <g id="xtick_3">
     <g id="line2d_3">
      <g>
       <use style="stroke:#000000;stroke-width:0.8;" x="194.329361" xlink:href="#m79d68d3cd9" y="307.584"/>
      </g>
     </g>
     <g id="text_3">
      <!-- 2 -->
      <g transform="translate(191.148111 322.182437)scale(0.1 -0.1)">
       <defs>
        <path d="M 19.1875 8.296875 
L 53.609375 8.296875 
L 53.609375 0 
L 7.328125 0 
L 7.328125 8.296875 
Q 12.9375 14.109375 22.625 23.890625 
Q 32.328125 33.6875 34.8125 36.53125 
Q 39.546875 41.84375 41.421875 45.53125 
Q 43.3125 49.21875 43.3125 52.78125 
Q 43.3125 58.59375 39.234375 62.25 
Q 35.15625 65.921875 28.609375 65.921875 
Q 23.96875 65.921875 18.8125 64.3125 
Q 13.671875 62.703125 7.8125 59.421875 
L 7.8125 69.390625 
Q 13.765625 71.78125 18.9375 73 
Q 24.125 74.21875 28.421875 74.21875 
Q 39.75 74.21875 46.484375 68.546875 
Q 53.21875 62.890625 53.21875 53.421875 
Q 53.21875 48.921875 51.53125 44.890625 
Q 49.859375 40.875 45.40625 35.40625 
Q 44.1875 33.984375 37.640625 27.21875 
Q 31.109375 20.453125 19.1875 8.296875 
z
" id="DejaVuSans-50"/>
       </defs>
       <use xlink:href="#DejaVuSans-50"/>
      </g>
     </g>
    </g>
    <g id="xtick_4">
     <g id="line2d_4">
      <g>
       <use style="stroke:#000000;stroke-width:0.8;" x="262.694042" xlink:href="#m79d68d3cd9" y="307.584"/>
      </g>
     </g>
     <g id="text_4">
      <!-- 3 -->
      <g transform="translate(259.512792 322.182437)scale(0.1 -0.1)">
       <defs>
        <path d="M 40.578125 39.3125 
Q 47.65625 37.796875 51.625 33 
Q 55.609375 28.21875 55.609375 21.1875 
Q 55.609375 10.40625 48.1875 4.484375 
Q 40.765625 -1.421875 27.09375 -1.421875 
Q 22.515625 -1.421875 17.65625 -0.515625 
Q 12.796875 0.390625 7.625 2.203125 
L 7.625 11.71875 
Q 11.71875 9.328125 16.59375 8.109375 
Q 21.484375 6.890625 26.8125 6.890625 
Q 36.078125 6.890625 40.9375 10.546875 
Q 45.796875 14.203125 45.796875 21.1875 
Q 45.796875 27.640625 41.28125 31.265625 
Q 36.765625 34.90625 28.71875 34.90625 
L 20.21875 34.90625 
L 20.21875 43.015625 
L 29.109375 43.015625 
Q 36.375 43.015625 40.234375 45.921875 
Q 44.09375 48.828125 44.09375 54.296875 
Q 44.09375 59.90625 40.109375 62.90625 
Q 36.140625 65.921875 28.71875 65.921875 
Q 24.65625 65.921875 20.015625 65.03125 
Q 15.375 64.15625 9.8125 62.3125 
L 9.8125 71.09375 
Q 15.4375 72.65625 20.34375 73.4375 
Q 25.25 74.21875 29.59375 74.21875 
Q 40.828125 74.21875 47.359375 69.109375 
Q 53.90625 64.015625 53.90625 55.328125 
Q 53.90625 49.265625 50.4375 45.09375 
Q 46.96875 40.921875 40.578125 39.3125 
z
" id="DejaVuSans-51"/>
       </defs>
       <use xlink:href="#DejaVuSans-51"/>
      </g>
     </g>
    </g>
    <g id="xtick_5">
     <g id="line2d_5">
      <g>
       <use style="stroke:#000000;stroke-width:0.8;" x="331.058722" xlink:href="#m79d68d3cd9" y="307.584"/>
      </g>
     </g>
     <g id="text_5">
      <!-- 4 -->
      <g transform="translate(327.877472 322.182437)scale(0.1 -0.1)">
       <defs>
        <path d="M 37.796875 64.3125 
L 12.890625 25.390625 
L 37.796875 25.390625 
z
M 35.203125 72.90625 
L 47.609375 72.90625 
L 47.609375 25.390625 
L 58.015625 25.390625 
L 58.015625 17.1875 
L 47.609375 17.1875 
L 47.609375 0 
L 37.796875 0 
L 37.796875 17.1875 
L 4.890625 17.1875 
L 4.890625 26.703125 
z
" id="DejaVuSans-52"/>
       </defs>
       <use xlink:href="#DejaVuSans-52"/>
      </g>
     </g>
    </g>
    <g id="xtick_6">
     <g id="line2d_6">
      <g>
       <use style="stroke:#000000;stroke-width:0.8;" x="399.423403" xlink:href="#m79d68d3cd9" y="307.584"/>
      </g>
     </g>
     <g id="text_6">
      <!-- 5 -->
      <g transform="translate(396.242153 322.182437)scale(0.1 -0.1)">
       <defs>
        <path d="M 10.796875 72.90625 
L 49.515625 72.90625 
L 49.515625 64.59375 
L 19.828125 64.59375 
L 19.828125 46.734375 
Q 21.96875 47.46875 24.109375 47.828125 
Q 26.265625 48.1875 28.421875 48.1875 
Q 40.625 48.1875 47.75 41.5 
Q 54.890625 34.8125 54.890625 23.390625 
Q 54.890625 11.625 47.5625 5.09375 
Q 40.234375 -1.421875 26.90625 -1.421875 
Q 22.3125 -1.421875 17.546875 -0.640625 
Q 12.796875 0.140625 7.71875 1.703125 
L 7.71875 11.625 
Q 12.109375 9.234375 16.796875 8.0625 
Q 21.484375 6.890625 26.703125 6.890625 
Q 35.15625 6.890625 40.078125 11.328125 
Q 45.015625 15.765625 45.015625 23.390625 
Q 45.015625 31 40.078125 35.4375 
Q 35.15625 39.890625 26.703125 39.890625 
Q 22.75 39.890625 18.8125 39.015625 
Q 14.890625 38.140625 10.796875 36.28125 
z
" id="DejaVuSans-53"/>
       </defs>
       <use xlink:href="#DejaVuSans-53"/>
      </g>
     </g>
    </g>
    <g id="text_7">
     <!-- distance (bp) -->
     <g transform="translate(203.134219 335.860562)scale(0.1 -0.1)">
      <defs>
       <path d="M 45.40625 46.390625 
L 45.40625 75.984375 
L 54.390625 75.984375 
L 54.390625 0 
L 45.40625 0 
L 45.40625 8.203125 
Q 42.578125 3.328125 38.25 0.953125 
Q 33.9375 -1.421875 27.875 -1.421875 
Q 17.96875 -1.421875 11.734375 6.484375 
Q 5.515625 14.40625 5.515625 27.296875 
Q 5.515625 40.1875 11.734375 48.09375 
Q 17.96875 56 27.875 56 
Q 33.9375 56 38.25 53.625 
Q 42.578125 51.265625 45.40625 46.390625 
z
M 14.796875 27.296875 
Q 14.796875 17.390625 18.875 11.75 
Q 22.953125 6.109375 30.078125 6.109375 
Q 37.203125 6.109375 41.296875 11.75 
Q 45.40625 17.390625 45.40625 27.296875 
Q 45.40625 37.203125 41.296875 42.84375 
Q 37.203125 48.484375 30.078125 48.484375 
Q 22.953125 48.484375 18.875 42.84375 
Q 14.796875 37.203125 14.796875 27.296875 
z
" id="DejaVuSans-100"/>
       <path d="M 9.421875 54.6875 
L 18.40625 54.6875 
L 18.40625 0 
L 9.421875 0 
z
M 9.421875 75.984375 
L 18.40625 75.984375 
L 18.40625 64.59375 
L 9.421875 64.59375 
z
" id="DejaVuSans-105"/>
       <path d="M 44.28125 53.078125 
L 44.28125 44.578125 
Q 40.484375 46.53125 36.375 47.5 
Q 32.28125 48.484375 27.875 48.484375 
Q 21.1875 48.484375 17.84375 46.4375 
Q 14.5 44.390625 14.5 40.28125 
Q 14.5 37.15625 16.890625 35.375 
Q 19.28125 33.59375 26.515625 31.984375 
L 29.59375 31.296875 
Q 39.15625 29.25 43.1875 25.515625 
Q 47.21875 21.78125 47.21875 15.09375 
Q 47.21875 7.46875 41.1875 3.015625 
Q 35.15625 -1.421875 24.609375 -1.421875 
Q 20.21875 -1.421875 15.453125 -0.5625 
Q 10.6875 0.296875 5.421875 2 
L 5.421875 11.28125 
Q 10.40625 8.6875 15.234375 7.390625 
Q 20.0625 6.109375 24.8125 6.109375 
Q 31.15625 6.109375 34.5625 8.28125 
Q 37.984375 10.453125 37.984375 14.40625 
Q 37.984375 18.0625 35.515625 20.015625 
Q 33.0625 21.96875 24.703125 23.78125 
L 21.578125 24.515625 
Q 13.234375 26.265625 9.515625 29.90625 
Q 5.8125 33.546875 5.8125 39.890625 
Q 5.8125 47.609375 11.28125 51.796875 
Q 16.75 56 26.8125 56 
Q 31.78125 56 36.171875 55.265625 
Q 40.578125 54.546875 44.28125 53.078125 
z
" id="DejaVuSans-115"/>
       <path d="M 18.3125 70.21875 
L 18.3125 54.6875 
L 36.8125 54.6875 
L 36.8125 47.703125 
L 18.3125 47.703125 
L 18.3125 18.015625 
Q 18.3125 11.328125 20.140625 9.421875 
Q 21.96875 7.515625 27.59375 7.515625 
L 36.8125 7.515625 
L 36.8125 0 
L 27.59375 0 
Q 17.1875 0 13.234375 3.875 
Q 9.28125 7.765625 9.28125 18.015625 
L 9.28125 47.703125 
L 2.6875 47.703125 
L 2.6875 54.6875 
L 9.28125 54.6875 
L 9.28125 70.21875 
z
" id="DejaVuSans-116"/>
       <path d="M 34.28125 27.484375 
Q 23.390625 27.484375 19.1875 25 
Q 14.984375 22.515625 14.984375 16.5 
Q 14.984375 11.71875 18.140625 8.90625 
Q 21.296875 6.109375 26.703125 6.109375 
Q 34.1875 6.109375 38.703125 11.40625 
Q 43.21875 16.703125 43.21875 25.484375 
L 43.21875 27.484375 
z
M 52.203125 31.203125 
L 52.203125 0 
L 43.21875 0 
L 43.21875 8.296875 
Q 40.140625 3.328125 35.546875 0.953125 
Q 30.953125 -1.421875 24.3125 -1.421875 
Q 15.921875 -1.421875 10.953125 3.296875 
Q 6 8.015625 6 15.921875 
Q 6 25.140625 12.171875 29.828125 
Q 18.359375 34.515625 30.609375 34.515625 
L 43.21875 34.515625 
L 43.21875 35.40625 
Q 43.21875 41.609375 39.140625 45 
Q 35.0625 48.390625 27.6875 48.390625 
Q 23 48.390625 18.546875 47.265625 
Q 14.109375 46.140625 10.015625 43.890625 
L 10.015625 52.203125 
Q 14.9375 54.109375 19.578125 55.046875 
Q 24.21875 56 28.609375 56 
Q 40.484375 56 46.34375 49.84375 
Q 52.203125 43.703125 52.203125 31.203125 
z
" id="DejaVuSans-97"/>
       <path d="M 54.890625 33.015625 
L 54.890625 0 
L 45.90625 0 
L 45.90625 32.71875 
Q 45.90625 40.484375 42.875 44.328125 
Q 39.84375 48.1875 33.796875 48.1875 
Q 26.515625 48.1875 22.3125 43.546875 
Q 18.109375 38.921875 18.109375 30.90625 
L 18.109375 0 
L 9.078125 0 
L 9.078125 54.6875 
L 18.109375 54.6875 
L 18.109375 46.1875 
Q 21.34375 51.125 25.703125 53.5625 
Q 30.078125 56 35.796875 56 
Q 45.21875 56 50.046875 50.171875 
Q 54.890625 44.34375 54.890625 33.015625 
z
" id="DejaVuSans-110"/>
       <path d="M 48.78125 52.59375 
L 48.78125 44.1875 
Q 44.96875 46.296875 41.140625 47.34375 
Q 37.3125 48.390625 33.40625 48.390625 
Q 24.65625 48.390625 19.8125 42.84375 
Q 14.984375 37.3125 14.984375 27.296875 
Q 14.984375 17.28125 19.8125 11.734375 
Q 24.65625 6.203125 33.40625 6.203125 
Q 37.3125 6.203125 41.140625 7.25 
Q 44.96875 8.296875 48.78125 10.40625 
L 48.78125 2.09375 
Q 45.015625 0.34375 40.984375 -0.53125 
Q 36.96875 -1.421875 32.421875 -1.421875 
Q 20.0625 -1.421875 12.78125 6.34375 
Q 5.515625 14.109375 5.515625 27.296875 
Q 5.515625 40.671875 12.859375 48.328125 
Q 20.21875 56 33.015625 56 
Q 37.15625 56 41.109375 55.140625 
Q 45.0625 54.296875 48.78125 52.59375 
z
" id="DejaVuSans-99"/>
       <path d="M 56.203125 29.59375 
L 56.203125 25.203125 
L 14.890625 25.203125 
Q 15.484375 15.921875 20.484375 11.0625 
Q 25.484375 6.203125 34.421875 6.203125 
Q 39.59375 6.203125 44.453125 7.46875 
Q 49.3125 8.734375 54.109375 11.28125 
L 54.109375 2.78125 
Q 49.265625 0.734375 44.1875 -0.34375 
Q 39.109375 -1.421875 33.890625 -1.421875 
Q 20.796875 -1.421875 13.15625 6.1875 
Q 5.515625 13.8125 5.515625 26.8125 
Q 5.515625 40.234375 12.765625 48.109375 
Q 20.015625 56 32.328125 56 
Q 43.359375 56 49.78125 48.890625 
Q 56.203125 41.796875 56.203125 29.59375 
z
M 47.21875 32.234375 
Q 47.125 39.59375 43.09375 43.984375 
Q 39.0625 48.390625 32.421875 48.390625 
Q 24.90625 48.390625 20.390625 44.140625 
Q 15.875 39.890625 15.1875 32.171875 
z
" id="DejaVuSans-101"/>
       <path id="DejaVuSans-32"/>
       <path d="M 31 75.875 
Q 24.46875 64.65625 21.28125 53.65625 
Q 18.109375 42.671875 18.109375 31.390625 
Q 18.109375 20.125 21.3125 9.0625 
Q 24.515625 -2 31 -13.1875 
L 23.1875 -13.1875 
Q 15.875 -1.703125 12.234375 9.375 
Q 8.59375 20.453125 8.59375 31.390625 
Q 8.59375 42.28125 12.203125 53.3125 
Q 15.828125 64.359375 23.1875 75.875 
z
" id="DejaVuSans-40"/>
       <path d="M 48.6875 27.296875 
Q 48.6875 37.203125 44.609375 42.84375 
Q 40.53125 48.484375 33.40625 48.484375 
Q 26.265625 48.484375 22.1875 42.84375 
Q 18.109375 37.203125 18.109375 27.296875 
Q 18.109375 17.390625 22.1875 11.75 
Q 26.265625 6.109375 33.40625 6.109375 
Q 40.53125 6.109375 44.609375 11.75 
Q 48.6875 17.390625 48.6875 27.296875 
z
M 18.109375 46.390625 
Q 20.953125 51.265625 25.265625 53.625 
Q 29.59375 56 35.59375 56 
Q 45.5625 56 51.78125 48.09375 
Q 58.015625 40.1875 58.015625 27.296875 
Q 58.015625 14.40625 51.78125 6.484375 
Q 45.5625 -1.421875 35.59375 -1.421875 
Q 29.59375 -1.421875 25.265625 0.953125 
Q 20.953125 3.328125 18.109375 8.203125 
L 18.109375 0 
L 9.078125 0 
L 9.078125 75.984375 
L 18.109375 75.984375 
z
" id="DejaVuSans-98"/>
       <path d="M 18.109375 8.203125 
L 18.109375 -20.796875 
L 9.078125 -20.796875 
L 9.078125 54.6875 
L 18.109375 54.6875 
L 18.109375 46.390625 
Q 20.953125 51.265625 25.265625 53.625 
Q 29.59375 56 35.59375 56 
Q 45.5625 56 51.78125 48.09375 
Q 58.015625 40.1875 58.015625 27.296875 
Q 58.015625 14.40625 51.78125 6.484375 
Q 45.5625 -1.421875 35.59375 -1.421875 
Q 29.59375 -1.421875 25.265625 0.953125 
Q 20.953125 3.328125 18.109375 8.203125 
z
M 48.6875 27.296875 
Q 48.6875 37.203125 44.609375 42.84375 
Q 40.53125 48.484375 33.40625 48.484375 
Q 26.265625 48.484375 22.1875 42.84375 
Q 18.109375 37.203125 18.109375 27.296875 
Q 18.109375 17.390625 22.1875 11.75 
Q 26.265625 6.109375 33.40625 6.109375 
Q 40.53125 6.109375 44.609375 11.75 
Q 48.6875 17.390625 48.6875 27.296875 
z
" id="DejaVuSans-112"/>
       <path d="M 8.015625 75.875 
L 15.828125 75.875 
Q 23.140625 64.359375 26.78125 53.3125 
Q 30.421875 42.28125 30.421875 31.390625 
Q 30.421875 20.453125 26.78125 9.375 
Q 23.140625 -1.703125 15.828125 -13.1875 
L 8.015625 -13.1875 
Q 14.5 -2 17.703125 9.0625 
Q 20.90625 20.125 20.90625 31.390625 
Q 20.90625 42.671875 17.703125 53.65625 
Q 14.5 64.65625 8.015625 75.875 
z
" id="DejaVuSans-41"/>
      </defs>
      <use xlink:href="#DejaVuSans-100"/>
      <use x="63.476562" xlink:href="#DejaVuSans-105"/>
      <use x="91.259766" xlink:href="#DejaVuSans-115"/>
      <use x="143.359375" xlink:href="#DejaVuSans-116"/>
      <use x="182.568359" xlink:href="#DejaVuSans-97"/>
      <use x="243.847656" xlink:href="#DejaVuSans-110"/>
      <use x="307.226562" xlink:href="#DejaVuSans-99"/>
      <use x="362.207031" xlink:href="#DejaVuSans-101"/>
      <use x="423.730469" xlink:href="#DejaVuSans-32"/>
      <use x="455.517578" xlink:href="#DejaVuSans-40"/>
      <use x="494.53125" xlink:href="#DejaVuSans-98"/>
      <use x="558.007812" xlink:href="#DejaVuSans-112"/>
      <use x="621.484375" xlink:href="#DejaVuSans-41"/>
     </g>
    </g>
    <g id="text_8">
     <!-- 1e6 -->
     <g transform="translate(395.841875 334.860562)scale(0.1 -0.1)">
      <defs>
       <path d="M 33.015625 40.375 
Q 26.375 40.375 22.484375 35.828125 
Q 18.609375 31.296875 18.609375 23.390625 
Q 18.609375 15.53125 22.484375 10.953125 
Q 26.375 6.390625 33.015625 6.390625 
Q 39.65625 6.390625 43.53125 10.953125 
Q 47.40625 15.53125 47.40625 23.390625 
Q 47.40625 31.296875 43.53125 35.828125 
Q 39.65625 40.375 33.015625 40.375 
z
M 52.59375 71.296875 
L 52.59375 62.3125 
Q 48.875 64.0625 45.09375 64.984375 
Q 41.3125 65.921875 37.59375 65.921875 
Q 27.828125 65.921875 22.671875 59.328125 
Q 17.53125 52.734375 16.796875 39.40625 
Q 19.671875 43.65625 24.015625 45.921875 
Q 28.375 48.1875 33.59375 48.1875 
Q 44.578125 48.1875 50.953125 41.515625 
Q 57.328125 34.859375 57.328125 23.390625 
Q 57.328125 12.15625 50.6875 5.359375 
Q 44.046875 -1.421875 33.015625 -1.421875 
Q 20.359375 -1.421875 13.671875 8.265625 
Q 6.984375 17.96875 6.984375 36.375 
Q 6.984375 53.65625 15.1875 63.9375 
Q 23.390625 74.21875 37.203125 74.21875 
Q 40.921875 74.21875 44.703125 73.484375 
Q 48.484375 72.75 52.59375 71.296875 
z
" id="DejaVuSans-54"/>
      </defs>
      <use xlink:href="#DejaVuSans-49"/>
      <use x="63.623047" xlink:href="#DejaVuSans-101"/>
      <use x="125.146484" xlink:href="#DejaVuSans-54"/>
     </g>
    </g>
   </g>
   <g id="matplotlib.axis_2">
    <g id="ytick_1">
     <g id="line2d_7">
      <defs>
       <path d="M 0 0 
L -3.5 0 
" id="mcec6d71476" style="stroke:#000000;stroke-width:0.8;"/>
      </defs>
      <g>
       <use style="stroke:#000000;stroke-width:0.8;" x="57.6" xlink:href="#mcec6d71476" y="295.488"/>
      </g>
     </g>
     <g id="text_9">
      <!-- 0.0 -->
      <g transform="translate(34.696875 299.287219)scale(0.1 -0.1)">
       <defs>
        <path d="M 10.6875 12.40625 
L 21 12.40625 
L 21 0 
L 10.6875 0 
z
" id="DejaVuSans-46"/>
       </defs>
       <use xlink:href="#DejaVuSans-48"/>
       <use x="63.623047" xlink:href="#DejaVuSans-46"/>
       <use x="95.410156" xlink:href="#DejaVuSans-48"/>
      </g>
     </g>
    </g>
    <g id="ytick_2">
     <g id="line2d_8">
      <g>
       <use style="stroke:#000000;stroke-width:0.8;" x="57.6" xlink:href="#mcec6d71476" y="247.104"/>
      </g>
     </g>
     <g id="text_10">
      <!-- 0.2 -->
      <g transform="translate(34.696875 250.903219)scale(0.1 -0.1)">
       <use xlink:href="#DejaVuSans-48"/>
       <use x="63.623047" xlink:href="#DejaVuSans-46"/>
       <use x="95.410156" xlink:href="#DejaVuSans-50"/>
      </g>
     </g>
    </g>
    <g id="ytick_3">
     <g id="line2d_9">
      <g>
       <use style="stroke:#000000;stroke-width:0.8;" x="57.6" xlink:href="#mcec6d71476" y="198.72"/>
      </g>
     </g>
     <g id="text_11">
      <!-- 0.4 -->
      <g transform="translate(34.696875 202.519219)scale(0.1 -0.1)">
       <use xlink:href="#DejaVuSans-48"/>
       <use x="63.623047" xlink:href="#DejaVuSans-46"/>
       <use x="95.410156" xlink:href="#DejaVuSans-52"/>
      </g>
     </g>
    </g>
    <g id="ytick_4">
     <g id="line2d_10">
      <g>
       <use style="stroke:#000000;stroke-width:0.8;" x="57.6" xlink:href="#mcec6d71476" y="150.336"/>
      </g>
     </g>
     <g id="text_12">
      <!-- 0.6 -->
      <g transform="translate(34.696875 154.135219)scale(0.1 -0.1)">
       <use xlink:href="#DejaVuSans-48"/>
       <use x="63.623047" xlink:href="#DejaVuSans-46"/>
       <use x="95.410156" xlink:href="#DejaVuSans-54"/>
      </g>
     </g>
    </g>
    <g id="ytick_5">
     <g id="line2d_11">
      <g>
       <use style="stroke:#000000;stroke-width:0.8;" x="57.6" xlink:href="#mcec6d71476" y="101.952"/>
      </g>
     </g>
     <g id="text_13">
      <!-- 0.8 -->
      <g transform="translate(34.696875 105.751219)scale(0.1 -0.1)">
       <defs>
        <path d="M 31.78125 34.625 
Q 24.75 34.625 20.71875 30.859375 
Q 16.703125 27.09375 16.703125 20.515625 
Q 16.703125 13.921875 20.71875 10.15625 
Q 24.75 6.390625 31.78125 6.390625 
Q 38.8125 6.390625 42.859375 10.171875 
Q 46.921875 13.96875 46.921875 20.515625 
Q 46.921875 27.09375 42.890625 30.859375 
Q 38.875 34.625 31.78125 34.625 
z
M 21.921875 38.8125 
Q 15.578125 40.375 12.03125 44.71875 
Q 8.5 49.078125 8.5 55.328125 
Q 8.5 64.0625 14.71875 69.140625 
Q 20.953125 74.21875 31.78125 74.21875 
Q 42.671875 74.21875 48.875 69.140625 
Q 55.078125 64.0625 55.078125 55.328125 
Q 55.078125 49.078125 51.53125 44.71875 
Q 48 40.375 41.703125 38.8125 
Q 48.828125 37.15625 52.796875 32.3125 
Q 56.78125 27.484375 56.78125 20.515625 
Q 56.78125 9.90625 50.3125 4.234375 
Q 43.84375 -1.421875 31.78125 -1.421875 
Q 19.734375 -1.421875 13.25 4.234375 
Q 6.78125 9.90625 6.78125 20.515625 
Q 6.78125 27.484375 10.78125 32.3125 
Q 14.796875 37.15625 21.921875 38.8125 
z
M 18.3125 54.390625 
Q 18.3125 48.734375 21.84375 45.5625 
Q 25.390625 42.390625 31.78125 42.390625 
Q 38.140625 42.390625 41.71875 45.5625 
Q 45.3125 48.734375 45.3125 54.390625 
Q 45.3125 60.0625 41.71875 63.234375 
Q 38.140625 66.40625 31.78125 66.40625 
Q 25.390625 66.40625 21.84375 63.234375 
Q 18.3125 60.0625 18.3125 54.390625 
z
" id="DejaVuSans-56"/>
       </defs>
       <use xlink:href="#DejaVuSans-48"/>
       <use x="63.623047" xlink:href="#DejaVuSans-46"/>
       <use x="95.410156" xlink:href="#DejaVuSans-56"/>
      </g>
     </g>
    </g>
    <g id="ytick_6">
     <g id="line2d_12">
      <g>
       <use style="stroke:#000000;stroke-width:0.8;" x="57.6" xlink:href="#mcec6d71476" y="53.568"/>
      </g>
     </g>
     <g id="text_14">
      <!-- 1.0 -->
      <g transform="translate(34.696875 57.367219)scale(0.1 -0.1)">
       <use xlink:href="#DejaVuSans-49"/>
       <use x="63.623047" xlink:href="#DejaVuSans-46"/>
       <use x="95.410156" xlink:href="#DejaVuSans-48"/>
      </g>
     </g>
    </g>
    <g id="text_15">
     <!-- density -->
     <g transform="translate(28.617187 192.860812)rotate(-90)scale(0.1 -0.1)">
      <defs>
       <path d="M 32.171875 -5.078125 
Q 28.375 -14.84375 24.75 -17.8125 
Q 21.140625 -20.796875 15.09375 -20.796875 
L 7.90625 -20.796875 
L 7.90625 -13.28125 
L 13.1875 -13.28125 
Q 16.890625 -13.28125 18.9375 -11.515625 
Q 21 -9.765625 23.484375 -3.21875 
L 25.09375 0.875 
L 2.984375 54.6875 
L 12.5 54.6875 
L 29.59375 11.921875 
L 46.6875 54.6875 
L 56.203125 54.6875 
z
" id="DejaVuSans-121"/>
      </defs>
      <use xlink:href="#DejaVuSans-100"/>
      <use x="63.476562" xlink:href="#DejaVuSans-101"/>
      <use x="125" xlink:href="#DejaVuSans-110"/>
      <use x="188.378906" xlink:href="#DejaVuSans-115"/>
      <use x="240.478516" xlink:href="#DejaVuSans-105"/>
      <use x="268.261719" xlink:href="#DejaVuSans-116"/>
      <use x="307.470703" xlink:href="#DejaVuSans-121"/>
     </g>
    </g>
   </g>
   <g id="line2d_13">
    <path clip-path="url(#p15a9b92d03)" d="M 57.6 295.488 
L 57.603076 295.377398 
L 57.714169 291.164087 
L 57.717245 291.053485 
L 57.828338 286.478109 
L 57.831141 286.367507 
L 57.942234 282.106199 
L 57.944831 281.995597 
L 58.055924 277.974275 
L 58.058795 277.863673 
L 58.169888 274.077119 
L 58.173443 273.96756 
L 58.173443 273.966517 
L 58.284536 270.530551 
L 58.287749 270.420992 
L 58.287749 270.419949 
L 58.398841 267.076846 
L 58.40267 266.966244 
L 58.513762 263.838085 
L 58.517864 263.728527 
L 58.517864 263.727483 
L 58.628957 260.781922 
L 58.63217 260.67132 
L 58.743263 257.974091 
L 58.748185 257.863489 
L 58.859209 255.188173 
L 58.865977 255.077571 
L 58.97707 252.568157 
L 58.981924 252.458598 
L 58.981924 252.457555 
L 59.093016 249.971096 
L 59.098554 249.861538 
L 59.098554 249.860494 
L 59.209646 247.581676 
L 59.215184 247.471073 
L 59.326208 245.222514 
L 59.331609 245.111912 
L 59.442702 243.026125 
L 59.448718 242.917609 
L 59.448718 242.915522 
L 59.559742 240.885036 
L 59.566442 240.774434 
L 59.677534 238.785685 
L 59.683482 238.675083 
L 59.794575 236.725983 
L 59.801274 236.615381 
L 59.912367 234.745581 
L 59.91975 234.634979 
L 60.030843 232.981166 
L 60.037885 232.870564 
L 60.148977 231.201099 
L 60.156019 231.091541 
L 60.156019 231.090497 
L 60.267043 229.42938 
L 60.27593 229.318778 
L 60.386955 227.765133 
L 60.396731 227.654531 
L 60.507687 226.120711 
L 60.514591 226.011152 
L 60.514591 226.010109 
L 60.625684 224.552457 
L 60.63423 224.442899 
L 60.63423 224.441855 
L 60.745322 223.058287 
L 60.754415 222.947685 
L 60.865234 221.564116 
L 60.874873 221.453514 
L 60.985898 220.196199 
L 60.994853 220.085597 
L 61.105946 218.829325 
L 61.116748 218.718723 
L 61.22784 217.45619 
L 61.237069 217.345588 
L 61.348162 216.13627 
L 61.358006 216.025668 
L 61.469099 214.838261 
L 61.479969 214.727659 
L 61.591062 213.550687 
L 61.600838 213.440085 
L 61.71193 212.334065 
L 61.72492 212.224506 
L 61.72492 212.223463 
L 61.835944 211.143528 
L 61.846609 211.033969 
L 61.846609 211.032926 
L 61.957701 209.945687 
L 61.968708 209.835085 
L 62.079596 208.849058 
L 62.093132 208.738456 
L 62.204225 207.77747 
L 62.216393 207.668955 
L 62.216393 207.666868 
L 62.327281 206.720491 
L 62.339313 206.609889 
L 62.450201 205.626992 
L 62.465036 205.517433 
L 62.465036 205.51639 
L 62.575992 204.582533 
L 62.591032 204.471931 
L 62.702124 203.611113 
L 62.716344 203.500511 
L 62.8273 202.593783 
L 62.843298 202.483181 
L 62.954117 201.600452 
L 62.969294 201.48985 
L 63.080181 200.610251 
L 63.096725 200.499649 
L 63.20775 199.674308 
L 63.221559 199.564749 
L 63.221559 199.563706 
L 63.332515 198.751929 
L 63.34735 198.64237 
L 63.34735 198.641326 
L 63.458033 197.83894 
L 63.472116 197.728338 
L 63.58273 196.945777 
L 63.60112 196.835175 
L 63.712213 196.026528 
L 63.727184 195.915926 
L 63.83814 195.152146 
L 63.853044 195.041544 
L 63.964136 194.249592 
L 63.980544 194.13899 
L 64.091226 193.413816 
L 64.111804 193.303214 
L 64.222897 192.564476 
L 64.239783 192.453874 
L 64.350602 191.713049 
L 64.36783 191.602447 
L 64.478854 190.934661 
L 64.500184 190.825103 
L 64.500184 190.824059 
L 64.611277 190.136449 
L 64.628163 190.025847 
L 64.738845 189.394581 
L 64.758192 189.283979 
L 64.868875 188.617236 
L 64.888359 188.507678 
L 64.888359 188.506634 
L 64.999314 187.855543 
L 65.016474 187.745984 
L 65.016474 187.744941 
L 65.127088 187.079242 
L 65.146982 186.969683 
L 65.146982 186.96864 
L 65.258075 186.356155 
L 65.278311 186.245553 
L 65.389403 185.658111 
L 65.404512 185.547508 
L 65.515331 184.959022 
L 65.539054 184.84842 
L 65.649941 184.253674 
L 65.674552 184.143072 
L 65.785645 183.57441 
L 65.810051 183.464852 
L 65.810051 183.463808 
L 65.921075 182.878452 
L 65.94138 182.76785 
L 66.052404 182.160583 
L 66.070999 182.049981 
L 66.182092 181.455234 
L 66.205199 181.344632 
L 66.316018 180.771797 
L 66.34145 180.661195 
L 66.452474 180.102968 
L 66.472847 179.993409 
L 66.472847 179.992366 
L 66.583871 179.458137 
L 66.608346 179.347535 
L 66.71896 178.796612 
L 66.743229 178.687053 
L 66.743229 178.68601 
L 66.854322 178.154911 
L 66.874831 178.044309 
L 66.985855 177.519472 
L 67.010056 177.40887 
L 67.120876 176.915334 
L 67.147264 176.804732 
L 67.258015 176.265286 
L 67.280917 176.154684 
L 67.391805 175.629847 
L 67.416963 175.519244 
L 67.527645 175.050751 
L 67.554239 174.940149 
L 67.66458 174.468525 
L 67.693156 174.357923 
L 67.804044 173.911342 
L 67.829339 173.80074 
L 67.940363 173.286336 
L 67.964496 173.175734 
L 68.075315 172.679068 
L 68.101225 172.568466 
L 68.211156 172.093712 
L 68.241578 171.98311 
L 68.352602 171.51253 
L 68.381589 171.401928 
L 68.492476 170.906306 
L 68.518386 170.795704 
L 68.629479 170.310516 
L 68.65286 170.199914 
L 68.763474 169.770026 
L 68.791913 169.659424 
L 68.902596 169.222233 
L 68.928916 169.111631 
L 69.039872 168.677571 
L 69.073371 168.566969 
L 69.184395 168.11204 
L 69.21762 168.001438 
L 69.32844 167.571551 
L 69.356674 167.463035 
L 69.356674 167.460948 
L 69.467698 167.05506 
L 69.496617 166.944458 
L 69.607572 166.49892 
L 69.638952 166.388318 
L 69.749634 166.001211 
L 69.775408 165.890609 
L 69.886295 165.503501 
L 69.912479 165.393943 
L 69.912479 165.392899 
L 70.023572 165.013096 
L 70.054951 164.902494 
L 70.165907 164.511214 
L 70.189698 164.400612 
L 70.30079 164.013504 
L 70.33176 163.902902 
L 70.442784 163.468842 
L 70.467463 163.35824 
L 70.578556 162.962785 
L 70.603167 162.852183 
L 70.71426 162.440034 
L 70.74728 162.329432 
L 70.858304 161.928761 
L 70.886676 161.818159 
L 70.9977 161.40914 
L 71.025729 161.299581 
L 71.025729 161.298538 
L 71.13648 160.900997 
L 71.164715 160.790395 
L 71.275466 160.379289 
L 71.309033 160.268687 
L 71.419989 159.890971 
L 71.455401 159.780369 
L 71.566426 159.387001 
L 71.595412 159.276399 
L 71.706505 158.888249 
L 71.74226 158.777647 
L 71.853352 158.367585 
L 71.889996 158.256983 
L 72.00102 157.88031 
L 72.031306 157.769708 
L 72.142261 157.382601 
L 72.175145 157.271999 
L 72.286032 156.878631 
L 72.323496 156.769072 
L 72.323496 156.768029 
L 72.43452 156.39553 
L 72.471916 156.284928 
L 72.583008 155.893647 
L 72.618695 155.783045 
L 72.729446 155.38133 
L 72.764517 155.271772 
L 72.764517 155.270728 
L 72.875609 154.947269 
L 72.91068 154.837711 
L 72.91068 154.836667 
L 73.021089 154.477733 
L 73.056707 154.36713 
L 73.1678 154.017586 
L 73.204922 153.906984 
L 73.315673 153.566831 
L 73.350402 153.456229 
L 73.461221 153.097294 
L 73.499847 152.986692 
L 73.609709 152.647582 
L 73.65107 152.53698 
L 73.761957 152.188479 
L 73.79655 152.077877 
L 73.907301 151.791982 
L 73.941278 151.68138 
L 74.052371 151.379833 
L 74.085459 151.269231 
L 74.196552 150.9176 
L 74.226564 150.806998 
L 74.337451 150.480409 
L 74.374505 150.369807 
L 74.485529 150.047391 
L 74.520669 149.936789 
L 74.631214 149.631069 
L 74.671481 149.520467 
L 74.781753 149.209529 
L 74.830702 149.098927 
L 74.941795 148.784859 
L 74.9809 148.674257 
L 75.09124 148.371666 
L 75.13349 148.261064 
L 75.242668 147.967865 
L 75.2869 147.857263 
L 75.397993 147.531717 
L 75.43573 147.421115 
L 75.546549 147.120612 
L 75.589824 147.01001 
L 75.700506 146.706376 
L 75.746447 146.595774 
L 75.857472 146.318225 
L 75.901977 146.207623 
L 76.012796 145.944683 
L 76.053678 145.834081 
L 76.164156 145.552358 
L 76.203534 145.441756 
L 76.314489 145.15273 
L 76.356602 145.042128 
L 76.466327 144.72493 
L 76.510559 144.614328 
L 76.621652 144.333649 
L 76.667593 144.223047 
L 76.778549 143.946542 
L 76.814645 143.83594 
L 76.925601 143.555262 
L 76.972978 143.44466 
L 77.084071 143.176502 
L 77.132131 143.0659 
L 77.243224 142.798786 
L 77.292104 142.688184 
L 77.402172 142.405418 
L 77.44155 142.294816 
L 77.551822 141.996399 
L 77.599472 141.885797 
L 77.71036 141.610336 
L 77.760402 141.499734 
L 77.870948 141.249314 
L 77.922974 141.138712 
L 78.032972 140.862207 
L 78.081853 140.751605 
L 78.192809 140.480317 
L 78.241143 140.369715 
L 78.351825 140.097383 
L 78.400911 139.987825 
L 78.400911 139.986781 
L 78.5105 139.70819 
L 78.55897 139.597588 
L 78.668969 139.341951 
L 78.718192 139.231349 
L 78.828327 138.977799 
L 78.875294 138.867197 
L 78.986113 138.590692 
L 79.032396 138.48009 
L 79.143488 138.230714 
L 79.187652 138.120112 
L 79.298266 137.860301 
L 79.349129 137.749699 
L 79.460222 137.480498 
L 79.501104 137.369896 
L 79.611718 137.086087 
L 79.657591 136.975485 
L 79.768547 136.722979 
L 79.813599 136.61342 
L 79.813599 136.612377 
L 79.924555 136.360913 
L 79.975008 136.250311 
L 80.085417 136.016586 
L 80.130059 135.905984 
L 80.241152 135.669129 
L 80.28887 135.558527 
L 80.399826 135.333149 
L 80.446177 135.222547 
L 80.557133 134.974215 
L 80.608202 134.863613 
L 80.718884 134.61215 
L 80.782805 134.501547 
L 80.893556 134.285561 
L 80.940454 134.174959 
L 81.051273 133.920365 
L 81.098923 133.809763 
L 81.209606 133.576038 
L 81.263272 133.465436 
L 81.374365 133.22232 
L 81.420784 133.111718 
L 81.53133 132.887384 
L 81.583424 132.776782 
L 81.694311 132.50132 
L 81.741893 132.390718 
L 81.852644 132.151776 
L 81.900021 132.041174 
L 82.01084 131.797015 
L 82.063891 131.686413 
L 82.173411 131.449558 
L 82.227556 131.339999 
L 82.227556 131.338956 
L 82.33817 131.128186 
L 82.392862 131.017584 
L 82.503202 130.774468 
L 82.554954 130.663866 
L 82.665773 130.431185 
L 82.713765 130.320583 
L 82.824653 130.089988 
L 82.878114 129.980429 
L 82.878114 129.979386 
L 82.988933 129.758182 
L 83.042394 129.64758 
L 83.153214 129.419072 
L 83.207085 129.30847 
L 83.318109 129.079962 
L 83.379774 128.96936 
L 83.490867 128.733548 
L 83.545969 128.622946 
L 83.656925 128.396525 
L 83.707993 128.285923 
L 83.818197 128.04385 
L 83.868308 127.933248 
L 83.979264 127.696393 
L 84.031973 127.585791 
L 84.14245 127.382325 
L 84.202611 127.271723 
L 84.313636 127.024434 
L 84.37742 126.913832 
L 84.487897 126.660282 
L 84.55216 126.54968 
L 84.662911 126.314911 
L 84.731481 126.204309 
L 84.842573 125.99667 
L 84.898154 125.886068 
L 85.009178 125.69721 
L 85.063391 125.586608 
L 85.174279 125.378968 
L 85.227261 125.268366 
L 85.338354 125.055509 
L 85.401386 124.944907 
L 85.512342 124.749789 
L 85.569973 124.639187 
L 85.680451 124.415896 
L 85.734596 124.305294 
L 85.844321 124.104958 
L 85.909267 123.994356 
L 86.019608 123.795064 
L 86.069651 123.684462 
L 86.180538 123.467431 
L 86.241725 123.356829 
L 86.352817 123.151276 
L 86.414961 123.040674 
L 86.525643 122.800689 
L 86.594418 122.690087 
L 86.704417 122.491838 
L 86.778798 122.381236 
L 86.889343 122.155858 
L 86.960443 122.045256 
L 87.071399 121.83553 
L 87.141472 121.725971 
L 87.141472 121.724928 
L 87.251745 121.521462 
L 87.318195 121.41086 
L 87.429083 121.231392 
L 87.488628 121.12079 
L 87.599516 120.963235 
L 87.680528 120.852633 
L 87.79121 120.651253 
L 87.859165 120.540651 
L 87.96889 120.342403 
L 88.037255 120.2318 
L 88.1478 120.040856 
L 88.212405 119.930253 
L 88.323087 119.741395 
L 88.382838 119.630793 
L 88.492974 119.460717 
L 88.566329 119.350115 
L 88.677216 119.147692 
L 88.739839 119.03709 
L 88.84929 118.849275 
L 88.907264 118.738673 
L 89.017399 118.544598 
L 89.090208 118.433996 
L 89.200822 118.254529 
L 89.26693 118.143927 
L 89.376656 117.942547 
L 89.452335 117.831945 
L 89.563359 117.644131 
L 89.625708 117.533529 
L 89.736801 117.339453 
L 89.793543 117.228851 
L 89.904362 117.029559 
L 89.971018 116.918957 
L 90.081564 116.718621 
L 90.146989 116.608019 
L 90.257603 116.451507 
L 90.317217 116.340905 
L 90.426942 116.148917 
L 90.501255 116.038315 
L 90.61221 115.874498 
L 90.679139 115.763896 
L 90.790027 115.579212 
L 90.868578 115.46861 
L 90.978782 115.30375 
L 91.04489 115.193148 
L 91.155641 115.018898 
L 91.230227 114.908296 
L 91.341183 114.743436 
L 91.417615 114.632834 
L 91.528571 114.440846 
L 91.593244 114.330244 
L 91.702832 114.167471 
L 91.765864 114.056869 
L 91.875863 113.878445 
L 91.965284 113.767843 
L 92.073505 113.584202 
L 92.136743 113.4736 
L 92.247425 113.30248 
L 92.320097 113.191878 
L 92.430643 113.032235 
L 92.505023 112.921633 
L 92.614749 112.75886 
L 92.684412 112.648258 
L 92.795436 112.467748 
L 92.87221 112.357146 
L 92.982824 112.144289 
L 93.05864 112.033687 
L 93.169118 111.85735 
L 93.25348 111.746748 
L 93.362727 111.573541 
L 93.433757 111.462939 
L 93.544645 111.280341 
L 93.615402 111.169739 
L 93.726017 110.977751 
L 93.789664 110.867149 
L 93.900278 110.72107 
L 93.984572 110.610468 
L 94.095254 110.45813 
L 94.159654 110.347528 
L 94.270678 110.180581 
L 94.348477 110.069979 
L 94.458954 109.915554 
L 94.524379 109.804952 
L 94.634993 109.636962 
L 94.697068 109.52636 
L 94.806725 109.359414 
L 94.885823 109.248812 
L 94.995549 109.084995 
L 95.071502 108.974393 
L 95.181979 108.787622 
L 95.261145 108.67702 
L 95.368273 108.50277 
L 95.450379 108.392168 
L 95.560104 108.222091 
L 95.630725 108.111489 
L 95.741476 107.941412 
L 95.823103 107.83081 
L 95.934127 107.69934 
L 96.00885 107.589781 
L 96.00885 107.588738 
L 96.118302 107.428052 
L 96.198425 107.31745 
L 96.308629 107.173459 
L 96.399076 107.062857 
L 96.510031 106.905301 
L 96.592001 106.794699 
L 96.701999 106.637143 
L 96.783627 106.526541 
L 96.894241 106.381506 
L 96.978261 106.270904 
L 97.089285 106.136304 
L 97.168588 106.025702 
L 97.279271 105.863972 
L 97.365615 105.75337 
L 97.476435 105.607292 
L 97.565992 105.49669 
L 97.675991 105.339135 
L 97.768147 105.228533 
L 97.878419 105.085585 
L 97.964011 104.974983 
L 98.074489 104.844556 
L 98.166371 104.733954 
L 98.276165 104.575355 
L 98.364628 104.464753 
L 98.475584 104.322848 
L 98.565757 104.212246 
L 98.676782 104.077646 
L 98.759229 103.967044 
L 98.869023 103.818879 
L 98.948941 103.708277 
L 99.058667 103.559068 
L 99.154993 103.44951 
L 99.154993 103.448466 
L 99.264171 103.307605 
L 99.358241 103.197003 
L 99.467966 103.066576 
L 99.563608 102.955974 
L 99.673265 102.807809 
L 99.765763 102.697207 
L 99.875146 102.555303 
L 99.968942 102.444701 
L 100.080035 102.299666 
L 100.1605 102.190107 
L 100.1605 102.189064 
L 100.270499 102.031508 
L 100.356502 101.920906 
L 100.465133 101.780045 
L 100.538625 101.669443 
L 100.649513 101.556754 
L 100.730388 101.446152 
L 100.841139 101.317812 
L 100.933773 101.20721 
L 101.043909 101.059045 
L 101.12957 100.948443 
L 101.240525 100.808626 
L 101.334732 100.698024 
L 101.445209 100.563423 
L 101.53798 100.452821 
L 101.648321 100.326568 
L 101.747791 100.215966 
L 101.856696 100.06467 
L 101.951381 99.955112 
L 101.951381 99.954068 
L 102.062269 99.827815 
L 102.153536 99.717213 
L 102.263808 99.603481 
L 102.349811 99.492879 
L 102.459878 99.352018 
L 102.551555 99.241416 
L 102.662374 99.105772 
L 102.75952 98.99517 
L 102.870339 98.836571 
L 102.965777 98.725969 
L 103.074545 98.623714 
L 103.175383 98.513112 
L 103.284561 98.395206 
L 103.373914 98.285647 
L 103.373914 98.284604 
L 103.483639 98.143743 
L 103.577982 98.033141 
L 103.688733 97.921496 
L 103.783897 97.810894 
L 103.894921 97.688814 
L 103.989401 97.578212 
L 104.100494 97.450915 
L 104.208578 97.341357 
L 104.208578 97.340313 
L 104.319534 97.204669 
L 104.414971 97.094067 
L 104.525312 96.95425 
L 104.617467 96.843648 
L 104.728355 96.734089 
L 104.826663 96.623487 
L 104.936935 96.516015 
L 105.043789 96.405413 
L 105.154814 96.278117 
L 105.264676 96.167515 
L 105.375495 96.046478 
L 105.486109 95.935876 
L 105.597201 95.815884 
L 105.678829 95.705282 
L 105.789511 95.592593 
L 105.898895 95.481991 
L 106.007595 95.361998 
L 106.1219 95.251396 
L 106.232514 95.113665 
L 106.353862 95.003063 
L 106.460306 94.885157 
L 106.587327 94.774555 
L 106.69842 94.651432 
L 106.810811 94.54083 
L 106.92163 94.444836 
L 107.026297 94.334234 
L 107.136501 94.216328 
L 107.250533 94.105726 
L 107.361079 94.002428 
L 107.481811 93.891826 
L 107.591809 93.785398 
L 107.69586 93.674795 
L 107.806543 93.574628 
L 107.910594 93.464026 
L 108.021618 93.359684 
L 108.133805 93.249082 
L 108.243462 93.137437 
L 108.359476 93.026835 
L 108.469544 92.901625 
L 108.578175 92.791023 
L 108.687764 92.702332 
L 108.788875 92.59173 
L 108.897848 92.493649 
L 109.001284 92.383047 
L 109.111214 92.273489 
L 109.227639 92.162887 
L 109.338254 92.068979 
L 109.444082 91.958377 
L 109.554696 91.834211 
L 109.667908 91.723609 
L 109.778796 91.623441 
L 109.928514 91.512839 
L 110.038855 91.415801 
L 110.15152 91.305199 
L 110.262476 91.193554 
L 110.367415 91.082952 
L 110.475637 90.979654 
L 110.596711 90.869052 
L 110.707803 90.756363 
L 110.810145 90.645761 
L 110.919734 90.551854 
L 111.029391 90.441252 
L 111.137202 90.342127 
L 111.260258 90.231525 
L 111.370325 90.133444 
L 111.481213 90.022842 
L 111.591143 89.918501 
L 111.718917 89.807899 
L 111.829873 89.711904 
L 111.944657 89.601302 
L 112.055681 89.494874 
L 112.180037 89.384272 
L 112.289762 89.269496 
L 112.428816 89.158894 
L 112.537174 89.034728 
L 112.666178 88.924126 
L 112.775288 88.823958 
L 112.901899 88.713356 
L 113.012377 88.605884 
L 113.130169 88.495282 
L 113.241261 88.37842 
L 113.363839 88.267818 
L 113.474317 88.181214 
L 113.596279 88.070612 
L 113.704842 87.974618 
L 113.863517 87.864016 
L 113.974609 87.775326 
L 114.104434 87.664724 
L 114.215458 87.570816 
L 114.328944 87.460214 
L 114.438737 87.366307 
L 114.564938 87.256748 
L 114.564938 87.255705 
L 114.671724 87.151363 
L 114.78562 87.040761 
L 114.896302 86.955201 
L 115.026195 86.844599 
L 115.137151 86.729824 
L 115.28769 86.619222 
L 115.397278 86.535748 
L 115.544262 86.425146 
L 115.65433 86.345847 
L 115.788119 86.235245 
L 115.89805 86.151772 
L 116.043461 86.041169 
L 116.152503 85.945175 
L 116.282601 85.834573 
L 116.390275 85.759447 
L 116.515314 85.648845 
L 116.626134 85.551808 
L 116.751378 85.441206 
L 116.862128 85.361906 
L 116.994141 85.251304 
L 117.100106 85.173048 
L 117.247637 85.062446 
L 117.357909 84.982103 
L 117.471121 84.871501 
L 117.581325 84.786984 
L 117.716619 84.676382 
L 117.824019 84.584562 
L 117.960065 84.47396 
L 118.068286 84.386313 
L 118.213288 84.275711 
L 118.321099 84.164065 
L 118.469245 84.053463 
L 118.579654 83.968947 
L 118.74831 83.858345 
L 118.858172 83.770698 
L 119.001738 83.660096 
L 119.112489 83.586013 
L 119.274308 83.475411 
L 119.384922 83.386721 
L 119.539289 83.276119 
L 119.648263 83.202037 
L 119.812475 83.091435 
L 119.923567 83.011092 
L 120.072534 82.90049 
L 120.182191 82.813886 
L 120.341617 82.703284 
L 120.44936 82.609377 
L 120.590396 82.498775 
L 120.700874 82.405911 
L 120.885595 82.295309 
L 120.995252 82.211836 
L 121.137177 82.101234 
L 121.247176 82.032368 
L 121.378846 81.921766 
L 121.489529 81.853944 
L 121.665157 81.743342 
L 121.774609 81.654652 
L 121.909903 81.54405 
L 122.02038 81.453273 
L 122.186643 81.342671 
L 122.29254 81.260241 
L 122.477398 81.149639 
L 122.588286 81.068252 
L 122.739098 80.95765 
L 122.849644 80.871047 
L 123.014881 80.760445 
L 123.122898 80.70097 
L 123.315071 80.591412 
L 123.315071 80.590368 
L 123.425548 80.52359 
L 123.6048 80.412988 
L 123.715346 80.334731 
L 123.880515 80.224129 
L 123.984839 80.138569 
L 124.184738 80.027967 
L 124.293232 79.951798 
L 124.450676 79.841196 
L 124.560675 79.768157 
L 124.703831 79.657555 
L 124.814376 79.590776 
L 124.986519 79.480174 
L 125.096859 79.409222 
L 125.250338 79.29862 
L 125.361157 79.226624 
L 125.513063 79.116022 
L 125.615405 79.052374 
L 125.839915 78.941772 
L 125.944786 78.879167 
L 126.145984 78.768565 
L 126.256461 78.709091 
L 126.445558 78.598488 
L 126.555625 78.52858 
L 126.732826 78.417978 
L 126.841731 78.349112 
L 127.042518 78.23851 
L 127.151833 78.171732 
L 127.329034 78.06113 
L 127.439443 78.002698 
L 127.632437 77.892096 
L 127.742709 77.830535 
L 127.933515 77.719933 
L 128.042762 77.663588 
L 128.226184 77.552986 
L 128.335773 77.486208 
L 128.529108 77.375606 
L 128.640064 77.310914 
L 128.827246 77.200312 
L 128.936767 77.134577 
L 129.106926 77.023975 
L 129.216993 76.947806 
L 129.419421 76.837204 
L 129.526959 76.763121 
L 129.737385 76.652519 
L 129.846701 76.593044 
L 130.046531 76.482442 
L 130.156529 76.433402 
L 130.338106 76.3228 
L 130.444276 76.263325 
L 130.645063 76.152723 
L 130.74679 76.103683 
L 130.96207 75.993081 
L 131.068719 75.94091 
L 131.276548 75.830308 
L 131.381214 75.781267 
L 131.616047 75.670665 
L 131.725089 75.599713 
L 131.910152 75.489111 
L 132.020766 75.422332 
L 132.237892 75.31173 
L 132.348985 75.244952 
L 132.56324 75.13435 
L 132.671529 75.081136 
L 132.902602 74.970534 
L 133.013489 74.915233 
L 133.246408 74.804631 
L 133.357364 74.740982 
L 133.582489 74.63038 
L 133.692897 74.556298 
L 133.897923 74.446739 
L 133.897923 74.445696 
L 134.006623 74.395612 
L 134.215135 74.28501 
L 134.325339 74.223448 
L 134.544174 74.112846 
L 134.655267 74.055458 
L 134.897415 73.944856 
L 135.007277 73.883295 
L 135.262482 73.772693 
L 135.372618 73.719479 
L 135.641017 73.608877 
L 135.751358 73.549402 
L 135.996719 73.4388 
L 136.104872 73.388716 
L 136.381817 73.278114 
L 136.492226 73.225943 
L 136.722205 73.115341 
L 136.833229 73.067344 
L 137.122138 72.956742 
L 137.232274 72.915006 
L 137.468132 72.804404 
L 137.576968 72.739712 
L 137.838395 72.62911 
L 137.946069 72.585286 
L 138.201548 72.474684 
L 138.311205 72.432948 
L 138.589176 72.322346 
L 138.695825 72.279566 
L 138.973454 72.168964 
L 139.083384 72.119923 
L 139.43095 72.009321 
L 139.540881 71.967585 
L 139.850983 71.856983 
L 139.96023 71.813159 
L 140.241414 71.702557 
L 140.351412 71.656647 
L 140.647773 71.546045 
L 140.757567 71.516829 
L 141.086811 71.406227 
L 141.194622 71.35823 
L 141.467876 71.247628 
L 141.578627 71.206935 
L 141.933781 71.096333 
L 142.04043 71.063987 
L 142.367692 70.953385 
L 142.477144 70.904344 
L 142.821018 70.793742 
L 142.928692 70.749919 
L 143.195793 70.639317 
L 143.301827 70.605928 
L 143.612339 70.495326 
L 143.711468 70.46298 
L 144.066281 70.352378 
L 144.17457 70.313771 
L 144.516736 70.203169 
L 144.620103 70.156216 
L 144.986948 70.045614 
L 145.092229 70.014311 
L 145.432754 69.903709 
L 145.538856 69.874494 
L 145.860375 69.763892 
L 145.969964 69.716938 
L 146.287654 69.606336 
L 146.397926 69.564599 
L 146.677265 69.453997 
L 146.786375 69.414347 
L 147.128335 69.303745 
L 147.234505 69.266182 
L 147.560878 69.15558 
L 147.663015 69.118018 
L 148.023023 69.007415 
L 148.130629 68.968809 
L 148.379067 68.858207 
L 148.48763 68.823774 
L 148.799031 68.713172 
L 148.905201 68.669349 
L 149.297614 68.558747 
L 149.40399 68.532662 
L 149.7748 68.42206 
L 149.885482 68.383453 
L 150.202353 68.272851 
L 150.313172 68.243636 
L 150.656226 68.133034 
L 150.766566 68.101731 
L 151.099092 67.991129 
L 151.209091 67.951479 
L 151.553786 67.840877 
L 151.664673 67.814792 
L 151.982364 67.70419 
L 152.089901 67.660366 
L 152.40014 67.549764 
L 152.510959 67.517419 
L 152.899818 67.406816 
L 153.008996 67.37134 
L 153.416313 67.260738 
L 153.503204 67.234653 
L 153.902659 67.124051 
L 154.007804 67.086488 
L 154.449098 66.975886 
L 154.558618 66.949801 
L 154.982548 66.839199 
L 155.08865 66.813113 
L 155.463151 66.702511 
L 155.573902 66.663905 
L 156.063872 66.553303 
L 156.174144 66.519914 
L 156.526838 66.409312 
L 156.628769 66.370705 
L 157.050101 66.260103 
L 157.15839 66.228801 
L 157.569741 66.118199 
L 157.670647 66.09733 
L 158.082681 65.986728 
L 158.186664 65.9596 
L 158.608816 65.848998 
L 158.718678 65.817695 
L 159.123943 65.707093 
L 159.22861 65.675791 
L 159.71981 65.565189 
L 159.829125 65.531799 
L 160.254148 65.421197 
L 160.36278 65.383634 
L 160.789375 65.274076 
L 160.789375 65.273032 
L 160.898349 65.24799 
L 161.338754 65.137388 
L 161.444993 65.109216 
L 161.918008 64.998614 
L 162.021991 64.978789 
L 162.429991 64.868187 
L 162.53664 64.846275 
L 162.970209 64.735673 
L 163.078635 64.704371 
L 163.482055 64.593769 
L 163.592806 64.56351 
L 164.021452 64.452908 
L 164.129127 64.427866 
L 164.566045 64.317264 
L 164.676386 64.281788 
L 165.077618 64.171186 
L 165.185908 64.140927 
L 165.608812 64.030325 
L 165.718059 64.001109 
L 166.159148 63.890507 
L 166.269146 63.855031 
L 166.724113 63.744429 
L 166.830215 63.71104 
L 167.286139 63.600438 
L 167.38602 63.578526 
L 167.849806 63.467924 
L 167.958438 63.439752 
L 168.378128 63.32915 
L 168.482658 63.308281 
L 168.936258 63.197679 
L 169.046051 63.165333 
L 169.596182 63.054731 
L 169.703583 63.022386 
L 170.201004 62.911784 
L 170.301705 62.886742 
L 170.859014 62.77614 
L 170.964774 62.759445 
L 171.47457 62.648843 
L 171.585116 62.61754 
L 172.098192 62.506938 
L 172.197526 62.490244 
L 172.731523 62.379642 
L 172.839949 62.35773 
L 173.421049 62.247128 
L 173.529475 62.228347 
L 173.970769 62.117745 
L 174.070924 62.096876 
L 174.645119 61.986274 
L 174.755801 61.964363 
L 175.254863 61.853761 
L 175.362606 61.833936 
L 175.939467 61.723334 
L 176.049534 61.702465 
L 176.820278 61.591863 
L 176.92344 61.570995 
L 177.531339 61.460393 
L 177.640585 61.444742 
L 178.355407 61.33414 
L 178.465337 61.308054 
L 179.088481 61.197452 
L 179.195062 61.179714 
L 179.825179 61.069112 
L 179.935178 61.053461 
L 180.605425 60.942859 
L 180.714125 60.917817 
L 181.394764 60.807215 
L 181.502848 60.783216 
L 182.22936 60.672614 
L 182.333684 60.654876 
L 183.03326 60.544274 
L 183.14319 60.523406 
L 183.883306 60.412804 
L 183.983529 60.394023 
L 184.636685 60.283421 
L 184.742172 60.262552 
L 185.44291 60.15195 
L 185.553182 60.132125 
L 186.304031 60.021523 
L 186.410543 60.001698 
L 187.125296 59.891096 
L 187.222169 59.876489 
L 187.870676 59.765887 
L 187.97753 59.745018 
L 188.606896 59.634416 
L 188.707939 59.623982 
L 189.569539 59.51338 
L 189.680494 59.494599 
L 190.375216 59.383997 
L 190.48125 59.364172 
L 191.398636 59.25357 
L 191.504259 59.233745 
L 192.18982 59.123143 
L 192.300571 59.107492 
L 193.156223 58.99689 
L 193.265743 58.984369 
L 194.033205 58.873767 
L 194.126045 58.857072 
L 195.127382 58.74647 
L 195.212906 58.725602 
L 196.058167 58.615 
L 196.15169 58.601435 
L 197.116452 58.490833 
L 197.200131 58.477269 
L 198.098579 58.366667 
L 198.186565 58.355189 
L 199.203353 58.244587 
L 199.312121 58.232066 
L 200.25528 58.121464 
L 200.335472 58.108943 
L 201.447013 57.998341 
L 201.531033 57.98582 
L 202.641618 57.875218 
L 202.727347 57.859567 
L 203.713849 57.748965 
L 203.815576 57.737487 
L 205.104865 57.626885 
L 205.214932 57.614364 
L 206.729005 57.503762 
L 206.837295 57.490198 
L 207.939128 57.379596 
L 208.046119 57.370205 
L 209.605312 57.259603 
L 209.682906 57.253343 
L 210.915385 57.142741 
L 211.014513 57.13335 
L 212.499258 57.022748 
L 212.609735 57.00814 
L 213.958023 56.897538 
L 214.067748 56.885017 
L 215.596246 56.774415 
L 215.68218 56.768155 
L 217.073675 56.657553 
L 217.165489 56.646075 
L 218.712718 56.535473 
L 218.786757 56.528169 
L 220.46764 56.417567 
L 220.568477 56.407133 
L 222.38062 56.296531 
L 222.489252 56.28714 
L 224.475998 56.176538 
L 224.586953 56.169234 
L 226.443533 56.058632 
L 226.496105 56.049241 
L 228.766907 55.938639 
L 228.845936 55.932379 
L 230.571051 55.821777 
L 230.681733 55.810299 
L 232.432963 55.700741 
L 232.432963 55.699697 
L 232.493602 55.692393 
L 234.72359 55.581791 
L 234.81807 55.574488 
L 237.143699 55.463886 
L 237.226762 55.458668 
L 239.82004 55.348066 
L 239.82004 55.347023 
L 243.104142 55.236421 
L 243.151177 55.233291 
L 247.364082 55.122689 
L 247.435182 55.119558 
L 251.56851 55.008956 
L 251.656496 55.004783 
L 258.32212 54.894181 
L 258.413866 54.891051 
L 265.875529 54.780449 
L 265.91559 54.777318 
L 272.113327 54.666716 
L 272.212114 54.663586 
L 281.196396 54.552984 
L 281.272075 54.54881 
L 287.947613 54.438208 
L 287.947613 54.437165 
L 297.925711 54.326563 
L 297.925711 54.325519 
L 319.120813 54.214917 
L 319.120813 54.213874 
L 338.914644 54.103272 
L 338.914644 54.102229 
L 357.275688 53.991627 
L 357.327509 53.988496 
L 373.333937 53.877894 
L 373.380014 53.874764 
L 384.433353 53.764162 
L 384.53713 53.758945 
L 396.440925 53.648343 
L 396.545523 53.645213 
L 414.72 53.569043 
L 414.72 53.568 
" style="fill:none;stroke:#1f77b4;stroke-linecap:square;stroke-width:1.5;"/>
   </g>
   <g id="line2d_14">
    <path clip-path="url(#p15a9b92d03)" d="M 57.6 295.488 
L 57.600752 295.377822 
L 57.711776 283.006376 
L 57.71369 282.896198 
L 57.82451 270.68215 
L 57.825535 270.571971 
L 57.936423 260.325392 
L 57.937516 260.215214 
L 58.048609 249.575141 
L 58.049635 249.480703 
L 58.049635 249.464963 
L 58.16059 239.533179 
L 58.162915 239.423001 
L 58.273939 231.379987 
L 58.274828 231.285548 
L 58.274828 231.269809 
L 58.385852 224.061002 
L 58.38845 223.950824 
L 58.499542 216.411482 
L 58.501252 216.301304 
L 58.612139 209.56469 
L 58.61419 209.454511 
L 58.725009 203.583584 
L 58.726171 203.473405 
L 58.837264 198.027451 
L 58.839383 197.917273 
L 58.949792 192.707414 
L 58.952048 192.597236 
L 59.062799 187.639214 
L 59.065602 187.529036 
L 59.176626 182.917288 
L 59.180318 182.80711 
L 59.291137 178.510157 
L 59.296675 178.399979 
L 59.407767 174.51226 
L 59.408793 174.402082 
L 59.518245 170.923597 
L 59.523714 170.813418 
L 59.634738 167.051617 
L 59.638498 166.941439 
L 59.749317 163.321296 
L 59.753761 163.211118 
L 59.863691 159.795591 
L 59.869639 159.685413 
L 59.979228 157.072614 
L 59.98415 156.962436 
L 60.094422 154.12928 
L 60.099139 154.019102 
L 60.209958 151.532221 
L 60.214334 151.422043 
L 60.323102 149.265697 
L 60.332263 149.155519 
L 60.442603 146.747336 
L 60.45614 146.637158 
L 60.565318 144.638209 
L 60.576667 144.528031 
L 60.687281 142.403165 
L 60.694391 142.292986 
L 60.804731 140.482915 
L 60.820523 140.372736 
L 60.93018 138.814501 
L 60.938384 138.704323 
L 61.048451 136.847032 
L 61.057612 136.752593 
L 61.057612 136.736854 
L 61.167884 135.147139 
L 61.170892 135.03696 
L 61.28178 133.195409 
L 61.29388 133.085231 
L 61.404631 131.385338 
L 61.41304 131.275159 
L 61.523312 129.701184 
L 61.534387 129.591006 
L 61.644318 128.205908 
L 61.65259 128.095729 
L 61.76211 126.80507 
L 61.773869 126.694891 
L 61.883184 125.231094 
L 61.894327 125.120916 
L 62.004258 123.641379 
L 62.008975 123.531201 
L 62.11706 122.31924 
L 62.130732 122.224802 
L 62.130732 122.209062 
L 62.240868 121.138759 
L 62.2529 121.02858 
L 62.363924 120.036976 
L 62.378349 119.926798 
L 62.489442 118.935193 
L 62.49662 118.825015 
L 62.606277 117.833411 
L 62.623779 117.723232 
L 62.732273 116.747368 
L 62.751552 116.637189 
L 62.859295 115.97612 
L 62.88835 115.865941 
L 62.998485 115.157653 
L 63.00792 115.047474 
L 63.116756 114.118829 
L 63.137471 114.008651 
L 63.24535 113.237403 
L 63.25622 113.127224 
L 63.363484 112.450415 
L 63.379755 112.340237 
L 63.488523 111.663427 
L 63.517852 111.553249 
L 63.627167 110.907919 
L 63.657042 110.797741 
L 63.765264 110.042233 
L 63.786798 109.932055 
L 63.895498 109.286725 
L 63.915871 109.176547 
L 64.023614 108.34234 
L 64.046379 108.232161 
L 64.157198 107.508133 
L 64.168889 107.397954 
L 64.277999 106.831323 
L 64.295568 106.721145 
L 64.404132 106.075815 
L 64.424641 105.965637 
L 64.533204 105.493444 
L 64.556585 105.383266 
L 64.665421 104.737936 
L 64.692836 104.627758 
L 64.803313 103.903729 
L 64.824848 103.793551 
L 64.932454 103.116742 
L 64.955561 103.006563 
L 65.062005 102.502891 
L 65.080942 102.392713 
L 65.191146 101.668684 
L 65.217945 101.558506 
L 65.328149 100.913176 
L 65.362331 100.802998 
L 65.467886 100.252107 
L 65.505965 100.141928 
L 65.610973 99.512338 
L 65.643583 99.40216 
L 65.750027 98.945707 
L 65.797335 98.835529 
L 65.908223 98.284638 
L 65.948148 98.174459 
L 66.058078 97.702267 
L 66.084535 97.592088 
L 66.192962 97.198595 
L 66.222222 97.088416 
L 66.333246 96.490306 
L 66.372898 96.380128 
L 66.481597 96.049593 
L 66.52036 95.939414 
L 66.630701 95.56166 
L 66.682453 95.451482 
L 66.78876 94.94781 
L 66.815901 94.837632 
L 66.925079 94.475617 
L 66.976421 94.365439 
L 67.066457 93.956206 
L 67.128738 93.846027 
L 67.239762 93.279396 
L 67.289121 93.169218 
L 67.393035 92.681286 
L 67.42168 92.571107 
L 67.515477 92.272052 
L 67.564836 92.161874 
L 67.67586 91.78412 
L 67.738072 91.673941 
L 67.843559 91.248968 
L 67.939132 91.13879 
L 68.044004 90.682337 
L 68.073401 90.572159 
L 68.182579 90.210144 
L 68.214027 90.099966 
L 68.313976 89.800911 
L 68.384665 89.690733 
L 68.491929 89.375938 
L 68.530555 89.265759 
L 68.635769 88.950964 
L 68.67795 88.840786 
L 68.784325 88.494511 
L 68.83847 88.384333 
L 68.949221 87.9751 
L 68.971439 87.864921 
L 69.072004 87.581606 
L 69.115552 87.471427 
L 69.211741 87.172372 
L 69.265681 87.062194 
L 69.3765 86.778878 
L 69.431739 86.6687 
L 69.541532 86.353905 
L 69.619673 86.243727 
L 69.730492 86.03911 
L 69.770554 85.928932 
L 69.874331 85.708575 
L 69.919315 85.598397 
L 70.029998 85.39378 
L 70.125777 85.283602 
L 70.229691 85.031766 
L 70.30038 84.921588 
L 70.410721 84.701231 
L 70.47512 84.591053 
L 70.558183 84.433655 
L 70.634342 84.323477 
L 70.740102 84.166079 
L 70.805527 84.055901 
L 70.91156 83.882764 
L 70.96051 83.772586 
L 71.071055 83.599448 
L 71.14318 83.48927 
L 71.235951 83.316133 
L 71.336379 83.205954 
L 71.430448 82.891159 
L 71.51693 82.780981 
L 71.622758 82.513405 
L 71.679911 82.403227 
L 71.780681 82.24583 
L 71.834825 82.135651 
L 71.944141 81.978254 
L 71.997807 81.868075 
L 72.103772 81.58476 
L 72.158806 81.474582 
L 72.269556 81.238485 
L 72.352414 81.128307 
L 72.438075 80.95517 
L 72.553612 80.844992 
L 72.663952 80.608895 
L 72.770123 80.498717 
L 72.871986 80.372799 
L 72.949033 80.262621 
L 73.059852 80.073744 
L 73.187489 79.963565 
L 73.288122 79.774688 
L 73.381713 79.66451 
L 73.476535 79.475633 
L 73.564452 79.365455 
L 73.670691 79.208057 
L 73.769819 79.097879 
L 73.851447 78.877522 
L 73.955635 78.767344 
L 74.065291 78.625686 
L 74.108566 78.515508 
L 74.219112 78.358111 
L 74.287272 78.247932 
L 74.392553 78.074795 
L 74.434051 77.964617 
L 74.543366 77.838699 
L 74.661021 77.72852 
L 74.749964 77.555383 
L 74.820926 77.445205 
L 74.922311 77.335027 
L 75.000247 77.224848 
L 75.111271 77.020232 
L 75.177311 76.910053 
L 75.282935 76.768396 
L 75.460683 76.658217 
L 75.541969 76.563779 
L 75.685876 76.453601 
L 75.775502 76.343422 
L 75.938415 76.233244 
L 76.0331 76.107326 
L 76.144193 75.997148 
L 76.238126 75.85549 
L 76.334725 75.745312 
L 76.441921 75.587914 
L 76.533325 75.477736 
L 76.635325 75.336078 
L 76.793247 75.2259 
L 76.901537 75.084242 
L 77.032524 74.974064 
L 77.125363 74.879625 
L 77.328474 74.769447 
L 77.432252 74.659269 
L 77.563307 74.54909 
L 77.654027 74.470392 
L 77.851122 74.360213 
L 77.959891 74.187076 
L 78.161703 74.076898 
L 78.252902 73.96672 
L 78.407337 73.856541 
L 78.470917 73.777843 
L 78.611338 73.667664 
L 78.722225 73.573226 
L 78.920893 73.463047 
L 79.023918 73.400088 
L 79.214451 73.28991 
L 79.319527 73.211211 
L 79.437525 73.101033 
L 79.492353 72.990855 
L 79.705036 72.880677 
L 79.786732 72.786238 
L 80.001739 72.67606 
L 80.092185 72.597361 
L 80.305414 72.487183 
L 80.405364 72.408484 
L 80.524728 72.298306 
L 80.616405 72.172388 
L 80.792239 72.062209 
L 80.90217 71.952031 
L 81.026799 71.841853 
L 81.095984 71.637236 
L 81.290686 71.527058 
L 81.391387 71.432619 
L 81.608787 71.322441 
L 81.698003 71.196523 
L 81.868641 71.086345 
L 81.960387 70.928947 
L 82.042493 70.818769 
L 82.153517 70.724331 
L 82.2884 70.614152 
L 82.388144 70.488234 
L 82.49534 70.378056 
L 82.580181 70.315097 
L 82.722926 70.204919 
L 82.818432 70.016042 
L 83.00411 69.905863 
L 83.069467 69.811425 
L 83.252069 69.701247 
L 83.340123 69.606808 
L 83.563743 69.49663 
L 83.612146 69.433671 
L 83.875486 69.323493 
L 83.971949 69.134615 
L 84.09439 69.024437 
L 84.197211 68.961478 
L 84.390067 68.8513 
L 84.498904 68.725382 
L 84.718833 68.615204 
L 84.816458 68.473546 
L 85.083148 68.363368 
L 85.187268 68.253189 
L 85.26869 68.143011 
L 85.371101 68.080052 
L 85.688791 67.969874 
L 85.774042 67.875435 
L 85.962318 67.765257 
L 86.072796 67.57638 
L 86.189973 67.466202 
L 86.276864 67.371763 
L 86.377907 67.261585 
L 86.468695 67.182886 
L 86.687599 67.072708 
L 86.788437 66.96253 
L 86.976372 66.852351 
L 87.075295 66.726433 
L 87.461419 66.616255 
L 87.508317 66.569036 
L 87.773777 66.458858 
L 87.880358 66.411638 
L 88.084768 66.30146 
L 88.130367 66.222761 
L 88.457561 66.112583 
L 88.536454 66.033884 
L 88.78366 65.923706 
L 88.89277 65.876487 
L 89.081115 65.766308 
L 89.182363 65.67187 
L 89.506548 65.561692 
L 89.506548 65.545952 
L 89.906277 65.435774 
L 89.991117 65.372815 
L 90.339367 65.262636 
L 90.435351 65.199677 
L 90.881636 65.089499 
L 90.907067 65.04228 
L 91.216691 64.932101 
L 91.317597 64.884882 
L 91.613616 64.774704 
L 91.71295 64.696005 
L 91.997621 64.585827 
L 92.10844 64.522868 
L 92.629926 64.41269 
L 92.708545 64.333991 
L 93.047771 64.223813 
L 93.066708 64.192333 
L 93.509779 64.082155 
L 93.605968 63.971977 
L 93.837588 63.861798 
L 93.939724 63.75162 
L 94.464629 63.641442 
L 94.493547 63.609962 
L 94.84207 63.499784 
L 94.877825 63.452565 
L 95.2593 63.342386 
L 95.362188 63.247948 
L 95.766155 63.13777 
L 95.836297 63.10629 
L 96.195485 62.996112 
L 96.208201 62.964632 
L 96.835105 62.854454 
L 96.936764 62.822975 
L 97.349003 62.712796 
L 97.445534 62.665577 
L 98.0226 62.555399 
L 98.050971 62.523919 
L 98.342273 62.413741 
L 98.447486 62.335042 
L 98.696881 62.224864 
L 98.696881 62.209124 
L 99.227733 62.098946 
L 99.332946 62.051727 
L 99.850603 61.941548 
L 99.93435 61.910069 
L 100.374824 61.799891 
L 100.468073 61.752671 
L 101.079185 61.642493 
L 101.079185 61.626753 
L 101.713746 61.516575 
L 101.765429 61.485096 
L 102.292384 61.374917 
L 102.385497 61.327698 
L 102.792335 61.21752 
L 102.876082 61.091602 
L 103.104625 60.981424 
L 103.170597 60.902725 
L 103.407276 60.792547 
L 103.514266 60.713848 
L 104.045186 60.603669 
L 104.109313 60.57219 
L 104.573372 60.462012 
L 104.576312 60.430532 
L 104.993131 60.320354 
L 105.101489 60.241655 
L 105.283954 60.131477 
L 105.383357 60.099997 
L 105.643074 59.989819 
L 105.747125 59.91112 
L 106.246939 59.800942 
L 106.315167 59.769463 
L 106.830295 59.659284 
L 106.930723 59.612065 
L 107.461643 59.501887 
L 107.473949 59.470407 
L 107.852962 59.360229 
L 107.933223 59.31301 
L 108.131617 59.202831 
L 108.233617 59.139872 
L 108.486908 59.029694 
L 108.580089 58.966735 
L 108.978245 58.856557 
L 108.989457 58.825077 
L 109.702227 58.714899 
L 109.766353 58.66768 
L 110.066542 58.557502 
L 110.16656 58.494543 
L 110.512485 58.384364 
L 110.575176 58.352885 
L 111.293894 58.242707 
L 111.401978 58.211227 
L 112.043581 58.101049 
L 112.153238 58.02235 
L 112.804138 57.912172 
L 112.804138 57.896432 
L 113.243996 57.786254 
L 113.345859 57.723295 
L 114.058561 57.613116 
L 114.058561 57.597377 
L 115.005275 57.487198 
L 115.005275 57.471459 
L 116.396223 57.36128 
L 116.396223 57.345541 
L 117.651194 57.235362 
L 117.699049 57.188143 
L 118.728963 57.077965 
L 118.797669 57.030746 
L 120.647823 56.920567 
L 120.647823 56.904828 
L 121.68553 56.794649 
L 121.68553 56.77891 
L 123.886941 56.668731 
L 123.886941 56.652992 
L 126.088831 56.542813 
L 126.124927 56.511334 
L 130.195907 56.401155 
L 130.230158 56.369676 
L 132.099795 56.259498 
L 132.099795 56.243758 
L 133.003576 56.13358 
L 133.014857 56.1021 
L 135.428335 55.991922 
L 135.428335 55.976182 
L 137.273498 55.866004 
L 137.364423 55.818785 
L 138.719274 55.708606 
L 138.719274 55.692867 
L 140.511933 55.582688 
L 140.511933 55.566949 
L 144.559532 55.45677 
L 144.598636 55.425291 
L 146.497397 55.315113 
L 146.497397 55.299373 
L 148.259292 55.189195 
L 148.338458 55.141975 
L 150.612199 55.031797 
L 150.612199 55.016057 
L 151.478584 54.905879 
L 151.478584 54.890139 
L 152.706756 54.779961 
L 152.706756 54.764221 
L 154.963269 54.654043 
L 155.047016 54.622563 
L 157.03841 54.512385 
L 157.03841 54.496645 
L 159.576039 54.386467 
L 159.599762 54.354988 
L 168.709287 54.244809 
L 168.775874 54.21333 
L 209.751544 54.103152 
L 209.751544 54.087412 
L 213.23869 53.977234 
L 213.23869 53.961494 
L 217.416182 53.851316 
L 217.416182 53.835576 
L 222.765855 53.725398 
L 222.765855 53.709658 
L 232.746346 53.59948 
L 232.746346 53.58374 
L 414.72 53.568 
L 414.72 53.568 
" style="fill:none;stroke:#ff7f0e;stroke-linecap:square;stroke-width:1.5;"/>
   </g>
   <g id="line2d_15">
    <path clip-path="url(#p15a9b92d03)" d="M 57.6 295.488 
L 57.600137 295.488 
L 57.704119 278.45138 
L 57.721484 278.45138 
L 57.819724 259.711099 
L 57.835448 259.711099 
L 57.941482 239.267155 
L 57.969443 239.267155 
L 58.057155 232.452507 
L 58.081834 232.452507 
L 58.172554 223.934197 
L 58.236065 223.934197 
L 58.333895 215.415887 
L 58.355772 215.415887 
L 58.424683 210.304901 
L 58.475683 210.304901 
L 58.533451 205.193915 
L 58.626222 205.193915 
L 58.713524 200.08293 
L 58.743946 200.08293 
L 58.837264 193.268282 
L 58.903099 193.268282 
L 58.993751 186.453634 
L 59.074831 186.453634 
L 59.147571 176.231662 
L 59.229062 176.231662 
L 59.295854 171.120676 
L 59.388488 171.120676 
L 59.452546 164.306028 
L 59.661058 164.306028 
L 59.768801 157.49138 
L 59.776116 157.49138 
L 59.854325 152.380394 
L 59.90765 152.380394 
L 59.90765 150.676732 
L 60.071178 150.676732 
L 60.164496 143.862085 
L 60.509054 143.862085 
L 60.581384 140.454761 
L 60.796254 140.454761 
L 60.796254 138.751099 
L 60.964294 138.751099 
L 61.010509 135.343775 
L 61.096033 135.343775 
L 61.180669 131.936451 
L 61.396906 131.936451 
L 61.48202 128.529127 
L 61.530627 128.529127 
L 61.553188 125.121803 
L 61.698258 125.121803 
L 61.698258 123.418141 
L 62.761397 123.418141 
L 62.761397 121.714479 
L 63.00122 121.714479 
L 63.009697 118.307155 
L 63.145948 118.307155 
L 63.145948 116.603493 
L 63.415031 116.603493 
L 63.415031 114.899831 
L 63.604196 114.899831 
L 63.604196 113.196169 
L 63.837388 113.196169 
L 63.838687 109.788845 
L 64.146192 109.788845 
L 64.146192 108.085183 
L 64.747186 108.085183 
L 64.747186 106.381521 
L 65.68344 106.381521 
L 65.68344 104.677859 
L 65.873357 104.677859 
L 65.947054 101.270535 
L 66.512908 101.270535 
L 66.512908 99.566873 
L 67.008416 99.566873 
L 67.008416 97.863211 
L 67.4936 97.863211 
L 67.4936 96.159549 
L 67.684406 96.159549 
L 67.684406 94.455887 
L 67.828382 94.455887 
L 67.828382 92.752225 
L 68.017137 92.752225 
L 68.017137 91.048563 
L 68.377487 91.048563 
L 68.377487 89.344901 
L 68.768054 89.344901 
L 68.782958 85.937577 
L 71.071055 85.937577 
L 71.071055 84.233915 
L 71.426346 84.233915 
L 71.426346 82.530254 
L 74.00766 82.530254 
L 74.00766 80.826592 
L 76.536538 80.826592 
L 76.536538 79.12293 
L 83.956635 79.12293 
L 83.956635 77.419268 
L 84.790206 77.419268 
L 84.790206 75.715606 
L 86.468695 75.715606 
L 86.468695 74.011944 
L 87.762702 74.011944 
L 87.762702 72.308282 
L 94.43407 72.308282 
L 94.43407 70.60462 
L 94.68907 70.60462 
L 94.68907 68.900958 
L 101.613523 68.900958 
L 101.613523 67.197296 
L 102.677414 67.197296 
L 102.677414 65.493634 
L 103.514266 65.493634 
L 103.514266 63.789972 
L 114.685807 63.789972 
L 114.685807 62.08631 
L 209.751544 62.08631 
L 209.751544 60.382648 
L 210.755958 60.382648 
L 210.755958 58.678986 
L 214.355427 58.678986 
L 214.355427 56.975324 
L 215.151807 56.975324 
L 215.151807 55.271662 
L 215.610944 55.271662 
L 215.610944 53.568 
L 414.72 53.568 
L 414.72 53.568 
" style="fill:none;stroke:#2ca02c;stroke-linecap:square;stroke-width:1.5;"/>
   </g>
   <g id="patch_3">
    <path d="M 57.6 307.584 
L 57.6 41.472 
" style="fill:none;stroke:#000000;stroke-linecap:square;stroke-linejoin:miter;stroke-width:0.8;"/>
   </g>
   <g id="patch_4">
    <path d="M 414.72 307.584 
L 414.72 41.472 
" style="fill:none;stroke:#000000;stroke-linecap:square;stroke-linejoin:miter;stroke-width:0.8;"/>
   </g>
   <g id="patch_5">
    <path d="M 57.6 307.584 
L 414.72 307.584 
" style="fill:none;stroke:#000000;stroke-linecap:square;stroke-linejoin:miter;stroke-width:0.8;"/>
   </g>
   <g id="patch_6">
    <path d="M 57.6 41.472 
L 414.72 41.472 
" style="fill:none;stroke:#000000;stroke-linecap:square;stroke-linejoin:miter;stroke-width:0.8;"/>
   </g>
   <g id="text_16">
    <!-- CDF of upstream_gene_dist from within intergenic STRs -->
    <g transform="translate(69.021563 35.472)scale(0.12 -0.12)">
     <defs>
      <path d="M 64.40625 67.28125 
L 64.40625 56.890625 
Q 59.421875 61.53125 53.78125 63.8125 
Q 48.140625 66.109375 41.796875 66.109375 
Q 29.296875 66.109375 22.65625 58.46875 
Q 16.015625 50.828125 16.015625 36.375 
Q 16.015625 21.96875 22.65625 14.328125 
Q 29.296875 6.6875 41.796875 6.6875 
Q 48.140625 6.6875 53.78125 8.984375 
Q 59.421875 11.28125 64.40625 15.921875 
L 64.40625 5.609375 
Q 59.234375 2.09375 53.4375 0.328125 
Q 47.65625 -1.421875 41.21875 -1.421875 
Q 24.65625 -1.421875 15.125 8.703125 
Q 5.609375 18.84375 5.609375 36.375 
Q 5.609375 53.953125 15.125 64.078125 
Q 24.65625 74.21875 41.21875 74.21875 
Q 47.75 74.21875 53.53125 72.484375 
Q 59.328125 70.75 64.40625 67.28125 
z
" id="DejaVuSans-67"/>
      <path d="M 19.671875 64.796875 
L 19.671875 8.109375 
L 31.59375 8.109375 
Q 46.6875 8.109375 53.6875 14.9375 
Q 60.6875 21.78125 60.6875 36.53125 
Q 60.6875 51.171875 53.6875 57.984375 
Q 46.6875 64.796875 31.59375 64.796875 
z
M 9.8125 72.90625 
L 30.078125 72.90625 
Q 51.265625 72.90625 61.171875 64.09375 
Q 71.09375 55.28125 71.09375 36.53125 
Q 71.09375 17.671875 61.125 8.828125 
Q 51.171875 0 30.078125 0 
L 9.8125 0 
z
" id="DejaVuSans-68"/>
      <path d="M 9.8125 72.90625 
L 51.703125 72.90625 
L 51.703125 64.59375 
L 19.671875 64.59375 
L 19.671875 43.109375 
L 48.578125 43.109375 
L 48.578125 34.8125 
L 19.671875 34.8125 
L 19.671875 0 
L 9.8125 0 
z
" id="DejaVuSans-70"/>
      <path d="M 30.609375 48.390625 
Q 23.390625 48.390625 19.1875 42.75 
Q 14.984375 37.109375 14.984375 27.296875 
Q 14.984375 17.484375 19.15625 11.84375 
Q 23.34375 6.203125 30.609375 6.203125 
Q 37.796875 6.203125 41.984375 11.859375 
Q 46.1875 17.53125 46.1875 27.296875 
Q 46.1875 37.015625 41.984375 42.703125 
Q 37.796875 48.390625 30.609375 48.390625 
z
M 30.609375 56 
Q 42.328125 56 49.015625 48.375 
Q 55.71875 40.765625 55.71875 27.296875 
Q 55.71875 13.875 49.015625 6.21875 
Q 42.328125 -1.421875 30.609375 -1.421875 
Q 18.84375 -1.421875 12.171875 6.21875 
Q 5.515625 13.875 5.515625 27.296875 
Q 5.515625 40.765625 12.171875 48.375 
Q 18.84375 56 30.609375 56 
z
" id="DejaVuSans-111"/>
      <path d="M 37.109375 75.984375 
L 37.109375 68.5 
L 28.515625 68.5 
Q 23.6875 68.5 21.796875 66.546875 
Q 19.921875 64.59375 19.921875 59.515625 
L 19.921875 54.6875 
L 34.71875 54.6875 
L 34.71875 47.703125 
L 19.921875 47.703125 
L 19.921875 0 
L 10.890625 0 
L 10.890625 47.703125 
L 2.296875 47.703125 
L 2.296875 54.6875 
L 10.890625 54.6875 
L 10.890625 58.5 
Q 10.890625 67.625 15.140625 71.796875 
Q 19.390625 75.984375 28.609375 75.984375 
z
" id="DejaVuSans-102"/>
      <path d="M 8.5 21.578125 
L 8.5 54.6875 
L 17.484375 54.6875 
L 17.484375 21.921875 
Q 17.484375 14.15625 20.5 10.265625 
Q 23.53125 6.390625 29.59375 6.390625 
Q 36.859375 6.390625 41.078125 11.03125 
Q 45.3125 15.671875 45.3125 23.6875 
L 45.3125 54.6875 
L 54.296875 54.6875 
L 54.296875 0 
L 45.3125 0 
L 45.3125 8.40625 
Q 42.046875 3.421875 37.71875 1 
Q 33.40625 -1.421875 27.6875 -1.421875 
Q 18.265625 -1.421875 13.375 4.4375 
Q 8.5 10.296875 8.5 21.578125 
z
M 31.109375 56 
z
" id="DejaVuSans-117"/>
      <path d="M 41.109375 46.296875 
Q 39.59375 47.171875 37.8125 47.578125 
Q 36.03125 48 33.890625 48 
Q 26.265625 48 22.1875 43.046875 
Q 18.109375 38.09375 18.109375 28.8125 
L 18.109375 0 
L 9.078125 0 
L 9.078125 54.6875 
L 18.109375 54.6875 
L 18.109375 46.1875 
Q 20.953125 51.171875 25.484375 53.578125 
Q 30.03125 56 36.53125 56 
Q 37.453125 56 38.578125 55.875 
Q 39.703125 55.765625 41.0625 55.515625 
z
" id="DejaVuSans-114"/>
      <path d="M 52 44.1875 
Q 55.375 50.25 60.0625 53.125 
Q 64.75 56 71.09375 56 
Q 79.640625 56 84.28125 50.015625 
Q 88.921875 44.046875 88.921875 33.015625 
L 88.921875 0 
L 79.890625 0 
L 79.890625 32.71875 
Q 79.890625 40.578125 77.09375 44.375 
Q 74.3125 48.1875 68.609375 48.1875 
Q 61.625 48.1875 57.5625 43.546875 
Q 53.515625 38.921875 53.515625 30.90625 
L 53.515625 0 
L 44.484375 0 
L 44.484375 32.71875 
Q 44.484375 40.625 41.703125 44.40625 
Q 38.921875 48.1875 33.109375 48.1875 
Q 26.21875 48.1875 22.15625 43.53125 
Q 18.109375 38.875 18.109375 30.90625 
L 18.109375 0 
L 9.078125 0 
L 9.078125 54.6875 
L 18.109375 54.6875 
L 18.109375 46.1875 
Q 21.1875 51.21875 25.484375 53.609375 
Q 29.78125 56 35.6875 56 
Q 41.65625 56 45.828125 52.96875 
Q 50 49.953125 52 44.1875 
z
" id="DejaVuSans-109"/>
      <path d="M 50.984375 -16.609375 
L 50.984375 -23.578125 
L -0.984375 -23.578125 
L -0.984375 -16.609375 
z
" id="DejaVuSans-95"/>
      <path d="M 45.40625 27.984375 
Q 45.40625 37.75 41.375 43.109375 
Q 37.359375 48.484375 30.078125 48.484375 
Q 22.859375 48.484375 18.828125 43.109375 
Q 14.796875 37.75 14.796875 27.984375 
Q 14.796875 18.265625 18.828125 12.890625 
Q 22.859375 7.515625 30.078125 7.515625 
Q 37.359375 7.515625 41.375 12.890625 
Q 45.40625 18.265625 45.40625 27.984375 
z
M 54.390625 6.78125 
Q 54.390625 -7.171875 48.1875 -13.984375 
Q 42 -20.796875 29.203125 -20.796875 
Q 24.46875 -20.796875 20.265625 -20.09375 
Q 16.0625 -19.390625 12.109375 -17.921875 
L 12.109375 -9.1875 
Q 16.0625 -11.328125 19.921875 -12.34375 
Q 23.78125 -13.375 27.78125 -13.375 
Q 36.625 -13.375 41.015625 -8.765625 
Q 45.40625 -4.15625 45.40625 5.171875 
L 45.40625 9.625 
Q 42.625 4.78125 38.28125 2.390625 
Q 33.9375 0 27.875 0 
Q 17.828125 0 11.671875 7.65625 
Q 5.515625 15.328125 5.515625 27.984375 
Q 5.515625 40.671875 11.671875 48.328125 
Q 17.828125 56 27.875 56 
Q 33.9375 56 38.28125 53.609375 
Q 42.625 51.21875 45.40625 46.390625 
L 45.40625 54.6875 
L 54.390625 54.6875 
z
" id="DejaVuSans-103"/>
      <path d="M 4.203125 54.6875 
L 13.1875 54.6875 
L 24.421875 12.015625 
L 35.59375 54.6875 
L 46.1875 54.6875 
L 57.421875 12.015625 
L 68.609375 54.6875 
L 77.59375 54.6875 
L 63.28125 0 
L 52.6875 0 
L 40.921875 44.828125 
L 29.109375 0 
L 18.5 0 
z
" id="DejaVuSans-119"/>
      <path d="M 54.890625 33.015625 
L 54.890625 0 
L 45.90625 0 
L 45.90625 32.71875 
Q 45.90625 40.484375 42.875 44.328125 
Q 39.84375 48.1875 33.796875 48.1875 
Q 26.515625 48.1875 22.3125 43.546875 
Q 18.109375 38.921875 18.109375 30.90625 
L 18.109375 0 
L 9.078125 0 
L 9.078125 75.984375 
L 18.109375 75.984375 
L 18.109375 46.1875 
Q 21.34375 51.125 25.703125 53.5625 
Q 30.078125 56 35.796875 56 
Q 45.21875 56 50.046875 50.171875 
Q 54.890625 44.34375 54.890625 33.015625 
z
" id="DejaVuSans-104"/>
      <path d="M 53.515625 70.515625 
L 53.515625 60.890625 
Q 47.90625 63.578125 42.921875 64.890625 
Q 37.9375 66.21875 33.296875 66.21875 
Q 25.25 66.21875 20.875 63.09375 
Q 16.5 59.96875 16.5 54.203125 
Q 16.5 49.359375 19.40625 46.890625 
Q 22.3125 44.4375 30.421875 42.921875 
L 36.375 41.703125 
Q 47.40625 39.59375 52.65625 34.296875 
Q 57.90625 29 57.90625 20.125 
Q 57.90625 9.515625 50.796875 4.046875 
Q 43.703125 -1.421875 29.984375 -1.421875 
Q 24.8125 -1.421875 18.96875 -0.25 
Q 13.140625 0.921875 6.890625 3.21875 
L 6.890625 13.375 
Q 12.890625 10.015625 18.65625 8.296875 
Q 24.421875 6.59375 29.984375 6.59375 
Q 38.421875 6.59375 43.015625 9.90625 
Q 47.609375 13.234375 47.609375 19.390625 
Q 47.609375 24.75 44.3125 27.78125 
Q 41.015625 30.8125 33.5 32.328125 
L 27.484375 33.5 
Q 16.453125 35.6875 11.515625 40.375 
Q 6.59375 45.0625 6.59375 53.421875 
Q 6.59375 63.09375 13.40625 68.65625 
Q 20.21875 74.21875 32.171875 74.21875 
Q 37.3125 74.21875 42.625 73.28125 
Q 47.953125 72.359375 53.515625 70.515625 
z
" id="DejaVuSans-83"/>
      <path d="M -0.296875 72.90625 
L 61.375 72.90625 
L 61.375 64.59375 
L 35.5 64.59375 
L 35.5 0 
L 25.59375 0 
L 25.59375 64.59375 
L -0.296875 64.59375 
z
" id="DejaVuSans-84"/>
      <path d="M 44.390625 34.1875 
Q 47.5625 33.109375 50.5625 29.59375 
Q 53.5625 26.078125 56.59375 19.921875 
L 66.609375 0 
L 56 0 
L 46.6875 18.703125 
Q 43.0625 26.03125 39.671875 28.421875 
Q 36.28125 30.8125 30.421875 30.8125 
L 19.671875 30.8125 
L 19.671875 0 
L 9.8125 0 
L 9.8125 72.90625 
L 32.078125 72.90625 
Q 44.578125 72.90625 50.734375 67.671875 
Q 56.890625 62.453125 56.890625 51.90625 
Q 56.890625 45.015625 53.6875 40.46875 
Q 50.484375 35.9375 44.390625 34.1875 
z
M 19.671875 64.796875 
L 19.671875 38.921875 
L 32.078125 38.921875 
Q 39.203125 38.921875 42.84375 42.21875 
Q 46.484375 45.515625 46.484375 51.90625 
Q 46.484375 58.296875 42.84375 61.546875 
Q 39.203125 64.796875 32.078125 64.796875 
z
" id="DejaVuSans-82"/>
     </defs>
     <use xlink:href="#DejaVuSans-67"/>
     <use x="69.824219" xlink:href="#DejaVuSans-68"/>
     <use x="146.826172" xlink:href="#DejaVuSans-70"/>
     <use x="204.345703" xlink:href="#DejaVuSans-32"/>
     <use x="236.132812" xlink:href="#DejaVuSans-111"/>
     <use x="297.314453" xlink:href="#DejaVuSans-102"/>
     <use x="332.519531" xlink:href="#DejaVuSans-32"/>
     <use x="364.306641" xlink:href="#DejaVuSans-117"/>
     <use x="427.685547" xlink:href="#DejaVuSans-112"/>
     <use x="491.162109" xlink:href="#DejaVuSans-115"/>
     <use x="543.261719" xlink:href="#DejaVuSans-116"/>
     <use x="582.470703" xlink:href="#DejaVuSans-114"/>
     <use x="621.333984" xlink:href="#DejaVuSans-101"/>
     <use x="682.857422" xlink:href="#DejaVuSans-97"/>
     <use x="744.136719" xlink:href="#DejaVuSans-109"/>
     <use x="841.548828" xlink:href="#DejaVuSans-95"/>
     <use x="891.548828" xlink:href="#DejaVuSans-103"/>
     <use x="955.025391" xlink:href="#DejaVuSans-101"/>
     <use x="1016.548828" xlink:href="#DejaVuSans-110"/>
     <use x="1079.927734" xlink:href="#DejaVuSans-101"/>
     <use x="1141.451172" xlink:href="#DejaVuSans-95"/>
     <use x="1191.451172" xlink:href="#DejaVuSans-100"/>
     <use x="1254.927734" xlink:href="#DejaVuSans-105"/>
     <use x="1282.710938" xlink:href="#DejaVuSans-115"/>
     <use x="1334.810547" xlink:href="#DejaVuSans-116"/>
     <use x="1374.019531" xlink:href="#DejaVuSans-32"/>
     <use x="1405.806641" xlink:href="#DejaVuSans-102"/>
     <use x="1441.011719" xlink:href="#DejaVuSans-114"/>
     <use x="1479.875" xlink:href="#DejaVuSans-111"/>
     <use x="1541.056641" xlink:href="#DejaVuSans-109"/>
     <use x="1638.46875" xlink:href="#DejaVuSans-32"/>
     <use x="1670.255859" xlink:href="#DejaVuSans-119"/>
     <use x="1752.042969" xlink:href="#DejaVuSans-105"/>
     <use x="1779.826172" xlink:href="#DejaVuSans-116"/>
     <use x="1819.035156" xlink:href="#DejaVuSans-104"/>
     <use x="1882.414062" xlink:href="#DejaVuSans-105"/>
     <use x="1910.197266" xlink:href="#DejaVuSans-110"/>
     <use x="1973.576172" xlink:href="#DejaVuSans-32"/>
     <use x="2005.363281" xlink:href="#DejaVuSans-105"/>
     <use x="2033.146484" xlink:href="#DejaVuSans-110"/>
     <use x="2096.525391" xlink:href="#DejaVuSans-116"/>
     <use x="2135.734375" xlink:href="#DejaVuSans-101"/>
     <use x="2197.257812" xlink:href="#DejaVuSans-114"/>
     <use x="2236.621094" xlink:href="#DejaVuSans-103"/>
     <use x="2300.097656" xlink:href="#DejaVuSans-101"/>
     <use x="2361.621094" xlink:href="#DejaVuSans-110"/>
     <use x="2425" xlink:href="#DejaVuSans-105"/>
     <use x="2452.783203" xlink:href="#DejaVuSans-99"/>
     <use x="2507.763672" xlink:href="#DejaVuSans-32"/>
     <use x="2539.550781" xlink:href="#DejaVuSans-83"/>
     <use x="2603.027344" xlink:href="#DejaVuSans-84"/>
     <use x="2664.111328" xlink:href="#DejaVuSans-82"/>
     <use x="2733.59375" xlink:href="#DejaVuSans-115"/>
    </g>
   </g>
   <g id="legend_1">
    <g id="patch_7">
     <path d="M 64.6 302.584 
L 152.739062 302.584 
Q 154.739062 302.584 154.739062 300.584 
L 154.739062 256.993375 
Q 154.739062 254.993375 152.739062 254.993375 
L 64.6 254.993375 
Q 62.6 254.993375 62.6 256.993375 
L 62.6 300.584 
Q 62.6 302.584 64.6 302.584 
z
" style="fill:#ffffff;opacity:0.8;stroke:#cccccc;stroke-linejoin:miter;"/>
    </g>
    <g id="line2d_16">
     <path d="M 66.6 263.091812 
L 86.6 263.091812 
" style="fill:none;stroke:#1f77b4;stroke-linecap:square;stroke-width:1.5;"/>
    </g>
    <g id="line2d_17"/>
    <g id="text_17">
     <!-- all_STRs -->
     <g transform="translate(94.6 266.591812)scale(0.1 -0.1)">
      <defs>
       <path d="M 9.421875 75.984375 
L 18.40625 75.984375 
L 18.40625 0 
L 9.421875 0 
z
" id="DejaVuSans-108"/>
      </defs>
      <use xlink:href="#DejaVuSans-97"/>
      <use x="61.279297" xlink:href="#DejaVuSans-108"/>
      <use x="89.0625" xlink:href="#DejaVuSans-108"/>
      <use x="116.845703" xlink:href="#DejaVuSans-95"/>
      <use x="166.845703" xlink:href="#DejaVuSans-83"/>
      <use x="230.322266" xlink:href="#DejaVuSans-84"/>
      <use x="291.40625" xlink:href="#DejaVuSans-82"/>
      <use x="360.888672" xlink:href="#DejaVuSans-115"/>
     </g>
    </g>
    <g id="line2d_18">
     <path d="M 66.6 278.048062 
L 86.6 278.048062 
" style="fill:none;stroke:#ff7f0e;stroke-linecap:square;stroke-width:1.5;"/>
    </g>
    <g id="line2d_19"/>
    <g id="text_18">
     <!-- gwas_sig -->
     <g transform="translate(94.6 281.548062)scale(0.1 -0.1)">
      <use xlink:href="#DejaVuSans-103"/>
      <use x="63.476562" xlink:href="#DejaVuSans-119"/>
      <use x="145.263672" xlink:href="#DejaVuSans-97"/>
      <use x="206.542969" xlink:href="#DejaVuSans-115"/>
      <use x="258.642578" xlink:href="#DejaVuSans-95"/>
      <use x="308.642578" xlink:href="#DejaVuSans-115"/>
      <use x="360.742188" xlink:href="#DejaVuSans-105"/>
      <use x="388.525391" xlink:href="#DejaVuSans-103"/>
     </g>
    </g>
    <g id="line2d_20">
     <path d="M 66.6 293.004312 
L 86.6 293.004312 
" style="fill:none;stroke:#2ca02c;stroke-linecap:square;stroke-width:1.5;"/>
    </g>
    <g id="line2d_21"/>
    <g id="text_19">
     <!-- FINEMAPed -->
     <g transform="translate(94.6 296.504312)scale(0.1 -0.1)">
      <defs>
       <path d="M 9.8125 72.90625 
L 19.671875 72.90625 
L 19.671875 0 
L 9.8125 0 
z
" id="DejaVuSans-73"/>
       <path d="M 9.8125 72.90625 
L 23.09375 72.90625 
L 55.421875 11.921875 
L 55.421875 72.90625 
L 64.984375 72.90625 
L 64.984375 0 
L 51.703125 0 
L 19.390625 60.984375 
L 19.390625 0 
L 9.8125 0 
z
" id="DejaVuSans-78"/>
       <path d="M 9.8125 72.90625 
L 55.90625 72.90625 
L 55.90625 64.59375 
L 19.671875 64.59375 
L 19.671875 43.015625 
L 54.390625 43.015625 
L 54.390625 34.71875 
L 19.671875 34.71875 
L 19.671875 8.296875 
L 56.78125 8.296875 
L 56.78125 0 
L 9.8125 0 
z
" id="DejaVuSans-69"/>
       <path d="M 9.8125 72.90625 
L 24.515625 72.90625 
L 43.109375 23.296875 
L 61.8125 72.90625 
L 76.515625 72.90625 
L 76.515625 0 
L 66.890625 0 
L 66.890625 64.015625 
L 48.09375 14.015625 
L 38.1875 14.015625 
L 19.390625 64.015625 
L 19.390625 0 
L 9.8125 0 
z
" id="DejaVuSans-77"/>
       <path d="M 34.1875 63.1875 
L 20.796875 26.90625 
L 47.609375 26.90625 
z
M 28.609375 72.90625 
L 39.796875 72.90625 
L 67.578125 0 
L 57.328125 0 
L 50.6875 18.703125 
L 17.828125 18.703125 
L 11.1875 0 
L 0.78125 0 
z
" id="DejaVuSans-65"/>
       <path d="M 19.671875 64.796875 
L 19.671875 37.40625 
L 32.078125 37.40625 
Q 38.96875 37.40625 42.71875 40.96875 
Q 46.484375 44.53125 46.484375 51.125 
Q 46.484375 57.671875 42.71875 61.234375 
Q 38.96875 64.796875 32.078125 64.796875 
z
M 9.8125 72.90625 
L 32.078125 72.90625 
Q 44.34375 72.90625 50.609375 67.359375 
Q 56.890625 61.8125 56.890625 51.125 
Q 56.890625 40.328125 50.609375 34.8125 
Q 44.34375 29.296875 32.078125 29.296875 
L 19.671875 29.296875 
L 19.671875 0 
L 9.8125 0 
z
" id="DejaVuSans-80"/>
      </defs>
      <use xlink:href="#DejaVuSans-70"/>
      <use x="57.519531" xlink:href="#DejaVuSans-73"/>
      <use x="87.011719" xlink:href="#DejaVuSans-78"/>
      <use x="161.816406" xlink:href="#DejaVuSans-69"/>
      <use x="225" xlink:href="#DejaVuSans-77"/>
      <use x="311.279297" xlink:href="#DejaVuSans-65"/>
      <use x="379.6875" xlink:href="#DejaVuSans-80"/>
      <use x="436.365234" xlink:href="#DejaVuSans-101"/>
      <use x="497.888672" xlink:href="#DejaVuSans-100"/>
     </g>
    </g>
   </g>
  </g>
 </g>
 <defs>
  <clipPath id="p15a9b92d03">
   <rect height="266.112" width="357.12" x="57.6" y="41.472"/>
  </clipPath>
 </defs>
</svg>
