<svg version="1.1" xmlns="http://www.w3.org/2000/svg" width="800" height="900"><defs><clipPath id="nigaSlvNGIPT"><path fill="none" stroke="none" d="M 62.5 5.5 L 795.5 5.5 L 795.5 846.5 L 62.5 846.5 L 62.5 5.5"/></clipPath><clipPath id="tXlGePbtrFhZ"><path fill="none" stroke="none" d="M 62.5 5.5 L 795.5 5.5 L 795.5 846.5 L 62.5 846.5 L 62.5 5.5"/></clipPath><clipPath id="TLQZdzslkTdz"><path fill="none" stroke="none" d="M 62.5 5.5 L 795.5 5.5 L 795.5 846.5 L 62.5 846.5 L 62.5 5.5"/></clipPath><clipPath id="tJzoUtzwvIaz"><path fill="none" stroke="none" d="M 62.5 5.5 L 795.5 5.5 L 795.5 846.5 L 62.5 846.5 L 62.5 5.5"/></clipPath><clipPath id="VHKEitIsaapR"><path fill="none" stroke="none" d="M 62.5 5.5 L 795.5 5.5 L 795.5 846.5 L 62.5 846.5 L 62.5 5.5"/></clipPath><clipPath id="ptcPEyZAbxip"><path fill="none" stroke="none" d="M 62.5 5.5 L 795.5 5.5 L 795.5 846.5 L 62.5 846.5 L 62.5 5.5"/></clipPath><clipPath id="btsSSZUTUkNi"><path fill="none" stroke="none" d="M 62.5 5.5 L 795.5 5.5 L 795.5 846.5 L 62.5 846.5 L 62.5 5.5"/></clipPath><clipPath id="aHnGfpxwOpnu"><path fill="none" stroke="none" d="M 62.5 5.5 L 795.5 5.5 L 795.5 846.5 L 62.5 846.5 L 62.5 5.5"/></clipPath><clipPath id="ZTCaydsWFdPA"><path fill="none" stroke="none" d="M 62.5 5.5 L 795.5 5.5 L 795.5 846.5 L 62.5 846.5 L 62.5 5.5"/></clipPath><clipPath id="CEGgAGysJqpv"><path fill="none" stroke="none" d="M 62.5 5.5 L 795.5 5.5 L 795.5 846.5 L 62.5 846.5 L 62.5 5.5"/></clipPath><clipPath id="wAssZCKUQanI"><path fill="none" stroke="none" d="M 62.5 5.5 L 795.5 5.5 L 795.5 846.5 L 62.5 846.5 L 62.5 5.5"/></clipPath><clipPath id="PcScDiCpTMII"><path fill="none" stroke="none" d="M 62.5 5.5 L 795.5 5.5 L 795.5 846.5 L 62.5 846.5 L 62.5 5.5"/></clipPath><clipPath id="zaBWtEOUpIEz"><path fill="none" stroke="none" d="M 62.5 5.5 L 795.5 5.5 L 795.5 846.5 L 62.5 846.5 L 62.5 5.5"/></clipPath><clipPath id="mQoKPaGLqvbG"><path fill="none" stroke="none" d="M 62.5 5.5 L 795.5 5.5 L 795.5 846.5 L 62.5 846.5 L 62.5 5.5"/></clipPath><clipPath id="dHLhQUPgQZvM"><path fill="none" stroke="none" d="M 62.5 5.5 L 795.5 5.5 L 795.5 846.5 L 62.5 846.5 L 62.5 5.5"/></clipPath><clipPath id="VSuqabXNAPoZ"><path fill="none" stroke="none" d="M 62.5 5.5 L 795.5 5.5 L 795.5 846.5 L 62.5 846.5 L 62.5 5.5"/></clipPath><clipPath id="EkvXZqSviqPo"><path fill="none" stroke="none" d="M 62.5 5.5 L 795.5 5.5 L 795.5 846.5 L 62.5 846.5 L 62.5 5.5"/></clipPath><clipPath id="KFffToDkxiob"><path fill="none" stroke="none" d="M 62.5 5.5 L 795.5 5.5 L 795.5 846.5 L 62.5 846.5 L 62.5 5.5"/></clipPath><clipPath id="DfwkntBvUhOK"><path fill="none" stroke="none" d="M 62.5 5.5 L 795.5 5.5 L 795.5 846.5 L 62.5 846.5 L 62.5 5.5"/></clipPath><clipPath id="sdTZrCXTEfDE"><path fill="none" stroke="none" d="M 62.5 5.5 L 795.5 5.5 L 795.5 846.5 L 62.5 846.5 L 62.5 5.5"/></clipPath><clipPath id="OIGGnqHRRclT"><path fill="none" stroke="none" d="M 62.5 5.5 L 795.5 5.5 L 795.5 846.5 L 62.5 846.5 L 62.5 5.5"/></clipPath><clipPath id="QCWsAThkZuXT"><path fill="none" stroke="none" d="M 62.5 5.5 L 795.5 5.5 L 795.5 846.5 L 62.5 846.5 L 62.5 5.5"/></clipPath><clipPath id="yrBaiHVcTtgE"><path fill="none" stroke="none" d="M 62.5 5.5 L 795.5 5.5 L 795.5 846.5 L 62.5 846.5 L 62.5 5.5"/></clipPath><clipPath id="EWdEXsvNNrbI"><path fill="none" stroke="none" d="M 62.5 5.5 L 795.5 5.5 L 795.5 846.5 L 62.5 846.5 L 62.5 5.5"/></clipPath><clipPath id="oGTBTZfavMFa"><path fill="none" stroke="none" d="M 62.5 5.5 L 795.5 5.5 L 795.5 846.5 L 62.5 846.5 L 62.5 5.5"/></clipPath><clipPath id="RDefgkJtqQVa"><path fill="none" stroke="none" d="M 62.5 5.5 L 795.5 5.5 L 795.5 846.5 L 62.5 846.5 L 62.5 5.5"/></clipPath><clipPath id="iJGqhOTgWzlz"><path fill="none" stroke="none" d="M 62.5 5.5 L 795.5 5.5 L 795.5 846.5 L 62.5 846.5 L 62.5 5.5"/></clipPath><clipPath id="gqBlLQSahphr"><path fill="none" stroke="none" d="M 62.5 5.5 L 795.5 5.5 L 795.5 846.5 L 62.5 846.5 L 62.5 5.5"/></clipPath><clipPath id="cPhVmOJchuUD"><path fill="none" stroke="none" d="M 62.5 5.5 L 795.5 5.5 L 795.5 846.5 L 62.5 846.5 L 62.5 5.5"/></clipPath><clipPath id="HNKEpUleQAHU"><path fill="none" stroke="none" d="M 62.5 5.5 L 795.5 5.5 L 795.5 846.5 L 62.5 846.5 L 62.5 5.5"/></clipPath><clipPath id="ELQXUGWGCzXT"><path fill="none" stroke="none" d="M 62.5 5.5 L 795.5 5.5 L 795.5 846.5 L 62.5 846.5 L 62.5 5.5"/></clipPath><clipPath id="MaMTeXqNSnGU"><path fill="none" stroke="none" d="M 62.5 5.5 L 795.5 5.5 L 795.5 846.5 L 62.5 846.5 L 62.5 5.5"/></clipPath><clipPath id="izuiTJIXxNbZ"><path fill="none" stroke="none" d="M 62.5 5.5 L 795.5 5.5 L 795.5 846.5 L 62.5 846.5 L 62.5 5.5"/></clipPath><clipPath id="TpURZkJfMcEu"><path fill="none" stroke="none" d="M 62.5 5.5 L 795.5 5.5 L 795.5 846.5 L 62.5 846.5 L 62.5 5.5"/></clipPath><clipPath id="tJdmTDiIhudL"><path fill="none" stroke="none" d="M 62.5 5.5 L 795.5 5.5 L 795.5 846.5 L 62.5 846.5 L 62.5 5.5"/></clipPath><clipPath id="hwBnELJydVWf"><path fill="none" stroke="none" d="M 62.5 5.5 L 795.5 5.5 L 795.5 846.5 L 62.5 846.5 L 62.5 5.5"/></clipPath><clipPath id="xPOBLPcsnztP"><path fill="none" stroke="none" d="M 62.5 5.5 L 795.5 5.5 L 795.5 846.5 L 62.5 846.5 L 62.5 5.5"/></clipPath><clipPath id="DwOkbVXgKfDW"><path fill="none" stroke="none" d="M 62.5 5.5 L 795.5 5.5 L 795.5 846.5 L 62.5 846.5 L 62.5 5.5"/></clipPath><clipPath id="JeKOTLIlKwFr"><path fill="none" stroke="none" d="M 62.5 5.5 L 795.5 5.5 L 795.5 846.5 L 62.5 846.5 L 62.5 5.5"/></clipPath><clipPath id="twmvzqfwiorF"><path fill="none" stroke="none" d="M 62.5 5.5 L 795.5 5.5 L 795.5 846.5 L 62.5 846.5 L 62.5 5.5"/></clipPath><clipPath id="CFbqhqcxAOxI"><path fill="none" stroke="none" d="M 62.5 5.5 L 795.5 5.5 L 795.5 846.5 L 62.5 846.5 L 62.5 5.5"/></clipPath><clipPath id="owyIAkEMOGAA"><path fill="none" stroke="none" d="M 62.5 5.5 L 795.5 5.5 L 795.5 846.5 L 62.5 846.5 L 62.5 5.5"/></clipPath><clipPath id="mbaVRiydmdMB"><path fill="none" stroke="none" d="M 62.5 5.5 L 795.5 5.5 L 795.5 846.5 L 62.5 846.5 L 62.5 5.5"/></clipPath><clipPath id="VsankOkoXnHW"><path fill="none" stroke="none" d="M 62.5 5.5 L 795.5 5.5 L 795.5 846.5 L 62.5 846.5 L 62.5 5.5"/></clipPath><clipPath id="xzaFvLWpZxJX"><path fill="none" stroke="none" d="M 62.5 5.5 L 795.5 5.5 L 795.5 846.5 L 62.5 846.5 L 62.5 5.5"/></clipPath><clipPath id="KKMAUFKOPUkW"><path fill="none" stroke="none" d="M 62.5 5.5 L 795.5 5.5 L 795.5 846.5 L 62.5 846.5 L 62.5 5.5"/></clipPath><clipPath id="wtKQZmTHheqN"><path fill="none" stroke="none" d="M 62.5 5.5 L 795.5 5.5 L 795.5 846.5 L 62.5 846.5 L 62.5 5.5"/></clipPath><clipPath id="QALHBNKzSVyZ"><path fill="none" stroke="none" d="M 62.5 5.5 L 795.5 5.5 L 795.5 846.5 L 62.5 846.5 L 62.5 5.5"/></clipPath><clipPath id="leGiTsFdFJVm"><path fill="none" stroke="none" d="M 62.5 5.5 L 795.5 5.5 L 795.5 846.5 L 62.5 846.5 L 62.5 5.5"/></clipPath><clipPath id="QvXcThhDOTdm"><path fill="none" stroke="none" d="M 62.5 5.5 L 795.5 5.5 L 795.5 846.5 L 62.5 846.5 L 62.5 5.5"/></clipPath><clipPath id="SBavibReQZvf"><path fill="none" stroke="none" d="M 62.5 5.5 L 795.5 5.5 L 795.5 846.5 L 62.5 846.5 L 62.5 5.5"/></clipPath><clipPath id="KtORcvFGtyXS"><path fill="none" stroke="none" d="M 62.5 5.5 L 795.5 5.5 L 795.5 846.5 L 62.5 846.5 L 62.5 5.5"/></clipPath><clipPath id="nrKMNoBAxKCz"><path fill="none" stroke="none" d="M 62.5 5.5 L 795.5 5.5 L 795.5 846.5 L 62.5 846.5 L 62.5 5.5"/></clipPath><clipPath id="bpDfkbhcwDLg"><path fill="none" stroke="none" d="M 62.5 5.5 L 795.5 5.5 L 795.5 846.5 L 62.5 846.5 L 62.5 5.5"/></clipPath><clipPath id="tDmMKgLNeHns"><path fill="none" stroke="none" d="M 62.5 5.5 L 795.5 5.5 L 795.5 846.5 L 62.5 846.5 L 62.5 5.5"/></clipPath></defs><path fill="none" stroke="rgb(229,229,229)" paint-order="fill" d="M 62.5 5.5 L 795.5 5.5 L 795.5 846.5 L 62.5 846.5 L 62.5 5.5" stroke-opacity="1" stroke-linejoin="bevel" stroke-miterlimit="10" stroke-dasharray=""/><path fill="none" stroke="rgb(31,119,180)" paint-order="fill" d="M 167.2142791748047 619.7646484375 L 238.61038208007812 566.55810546875 L 262.4090881347656 490.2912902832031 L 286.2077941894531 561.8657836914062 L 310.0065002441406 558.8139038085938 L 333.8052062988281 517.038330078125 L 405.2012939453125 487.1191101074219 L 524.19482421875 605.5843505859375 L 547.9935302734375 530.954833984375 L 595.5908813476562 462.3719787597656" stroke-opacity="1" stroke-linejoin="bevel" stroke-miterlimit="10" stroke-width="2" stroke-dasharray="" clip-path="url(#TLQZdzslkTdz)"/><path fill="none" stroke="rgb(0,0,0)" paint-order="fill" d="M 167.2142791748047 619.7646484375 L 238.61038208007812 566.55810546875 L 262.4090881347656 490.2912902832031 L 286.2077941894531 561.8657836914062 L 310.0065002441406 558.8139038085938 L 333.8052062988281 517.038330078125 L 405.2012939453125 487.1191101074219 L 524.19482421875 605.5843505859375 L 547.9935302734375 530.954833984375 L 595.5908813476562 462.3719787597656" stroke-opacity="1" stroke-linejoin="bevel" stroke-miterlimit="10" stroke-dasharray="" clip-path="url(#tJzoUtzwvIaz)"/><path fill="rgb(31,119,180)" stroke="rgb(0,0,0)" paint-order="fill" d="M 170.7142791748047 619.7646484375 A 3.5 3.5 0 0 1 163.7142791748047 619.7646484375 A 3.5 3.5 0 0 1 170.7142791748047 619.7646484375" fill-opacity="1" clip-path="url(#VHKEitIsaapR)" stroke-opacity="1" stroke-linejoin="bevel" stroke-miterlimit="10" stroke-dasharray=""/><path fill="rgb(31,119,180)" stroke="rgb(0,0,0)" paint-order="fill" d="M 242.11038208007812 566.55810546875 A 3.5 3.5 0 0 1 235.11038208007812 566.55810546875 A 3.5 3.5 0 0 1 242.11038208007812 566.55810546875" fill-opacity="1" clip-path="url(#VHKEitIsaapR)" stroke-opacity="1" stroke-linejoin="bevel" stroke-miterlimit="10" stroke-dasharray=""/><path fill="rgb(31,119,180)" stroke="rgb(0,0,0)" paint-order="fill" d="M 265.9090881347656 490.2912902832031 A 3.5 3.5 0 0 1 258.9090881347656 490.2912902832031 A 3.5 3.5 0 0 1 265.9090881347656 490.2912902832031" fill-opacity="1" clip-path="url(#VHKEitIsaapR)" stroke-opacity="1" stroke-linejoin="bevel" stroke-miterlimit="10" stroke-dasharray=""/><path fill="rgb(31,119,180)" stroke="rgb(0,0,0)" paint-order="fill" d="M 289.7077941894531 561.8657836914062 A 3.5 3.5 0 0 1 282.7077941894531 561.8657836914062 A 3.5 3.5 0 0 1 289.7077941894531 561.8657836914062" fill-opacity="1" clip-path="url(#VHKEitIsaapR)" stroke-opacity="1" stroke-linejoin="bevel" stroke-miterlimit="10" stroke-dasharray=""/><path fill="rgb(31,119,180)" stroke="rgb(0,0,0)" paint-order="fill" d="M 313.5065002441406 558.8139038085938 A 3.5 3.5 0 0 1 306.5065002441406 558.8139038085938 A 3.5 3.5 0 0 1 313.5065002441406 558.8139038085938" fill-opacity="1" clip-path="url(#VHKEitIsaapR)" stroke-opacity="1" stroke-linejoin="bevel" stroke-miterlimit="10" stroke-dasharray=""/><path fill="rgb(31,119,180)" stroke="rgb(0,0,0)" paint-order="fill" d="M 337.3052062988281 517.038330078125 A 3.5 3.5 0 0 1 330.3052062988281 517.038330078125 A 3.5 3.5 0 0 1 337.3052062988281 517.038330078125" fill-opacity="1" clip-path="url(#VHKEitIsaapR)" stroke-opacity="1" stroke-linejoin="bevel" stroke-miterlimit="10" stroke-dasharray=""/><path fill="rgb(31,119,180)" stroke="rgb(0,0,0)" paint-order="fill" d="M 408.7012939453125 487.1191101074219 A 3.5 3.5 0 0 1 401.7012939453125 487.1191101074219 A 3.5 3.5 0 0 1 408.7012939453125 487.1191101074219" fill-opacity="1" clip-path="url(#VHKEitIsaapR)" stroke-opacity="1" stroke-linejoin="bevel" stroke-miterlimit="10" stroke-dasharray=""/><path fill="rgb(31,119,180)" stroke="rgb(0,0,0)" paint-order="fill" d="M 527.69482421875 605.5843505859375 A 3.5 3.5 0 0 1 520.69482421875 605.5843505859375 A 3.5 3.5 0 0 1 527.69482421875 605.5843505859375" fill-opacity="1" clip-path="url(#VHKEitIsaapR)" stroke-opacity="1" stroke-linejoin="bevel" stroke-miterlimit="10" stroke-dasharray=""/><path fill="rgb(31,119,180)" stroke="rgb(0,0,0)" paint-order="fill" d="M 551.4935302734375 530.954833984375 A 3.5 3.5 0 0 1 544.4935302734375 530.954833984375 A 3.5 3.5 0 0 1 551.4935302734375 530.954833984375" fill-opacity="1" clip-path="url(#VHKEitIsaapR)" stroke-opacity="1" stroke-linejoin="bevel" stroke-miterlimit="10" stroke-dasharray=""/><path fill="rgb(31,119,180)" stroke="rgb(0,0,0)" paint-order="fill" d="M 599.0908813476562 462.3719787597656 A 3.5 3.5 0 0 1 592.0908813476562 462.3719787597656 A 3.5 3.5 0 0 1 599.0908813476562 462.3719787597656" fill-opacity="1" clip-path="url(#VHKEitIsaapR)" stroke-opacity="1" stroke-linejoin="bevel" stroke-miterlimit="10" stroke-dasharray=""/><path fill="none" stroke="rgb(174,199,232)" paint-order="fill" d="M 95.81818389892578 512.6881103515625 L 167.2142791748047 597.2212524414062 L 214.8116912841797 520.7469482421875 L 238.61038208007812 561.6160278320312 L 262.4090881347656 522.2587280273438 L 286.2077941894531 516.6808471679688 L 310.0065002441406 525.0571899414062 L 333.8052062988281 508.83587646484375 L 357.6038818359375 502.94512939453125 L 381.402587890625 519.28125 L 405.2012939453125 522.0205688476562 L 429 508.8351745605469 L 452.7987060546875 511.42523193359375 L 476.597412109375 414.43389892578125 L 500.3961181640625 429.07855224609375 L 524.19482421875 405.7428283691406 L 547.9935302734375 378.5594482421875 L 571.792236328125 365.5252380371094 L 595.5908813476562 402.2107238769531 L 619.3895874023438 410.3044128417969 L 643.1882934570312 412.53204345703125 L 666.9869995117188 403.99151611328125 L 690.7857055664062 387.2998352050781 L 714.5844116210938 422.916259765625 L 738.3831176757812 320.6606750488281 L 762.1818237304688 392.01171875" stroke-opacity="1" stroke-linejoin="bevel" stroke-miterlimit="10" stroke-width="2" stroke-dasharray="" clip-path="url(#ptcPEyZAbxip)"/><path fill="none" stroke="rgb(0,0,0)" paint-order="fill" d="M 95.81818389892578 512.6881103515625 L 167.2142791748047 597.2212524414062 L 214.8116912841797 520.7469482421875 L 238.61038208007812 561.6160278320312 L 262.4090881347656 522.2587280273438 L 286.2077941894531 516.6808471679688 L 310.0065002441406 525.0571899414062 L 333.8052062988281 508.83587646484375 L 357.6038818359375 502.94512939453125 L 381.402587890625 519.28125 L 405.2012939453125 522.0205688476562 L 429 508.8351745605469 L 452.7987060546875 511.42523193359375 L 476.597412109375 414.43389892578125 L 500.3961181640625 429.07855224609375 L 524.19482421875 405.7428283691406 L 547.9935302734375 378.5594482421875 L 571.792236328125 365.5252380371094 L 595.5908813476562 402.2107238769531 L 619.3895874023438 410.3044128417969 L 643.1882934570312 412.53204345703125 L 666.9869995117188 403.99151611328125 L 690.7857055664062 387.2998352050781 L 714.5844116210938 422.916259765625 L 738.3831176757812 320.6606750488281 L 762.1818237304688 392.01171875" stroke-opacity="1" stroke-linejoin="bevel" stroke-miterlimit="10" stroke-dasharray="" clip-path="url(#btsSSZUTUkNi)"/><path fill="rgb(174,199,232)" stroke="rgb(0,0,0)" paint-order="fill" d="M 99.31818389892578 512.6881103515625 A 3.5 3.5 0 0 1 92.31818389892578 512.6881103515625 A 3.5 3.5 0 0 1 99.31818389892578 512.6881103515625" fill-opacity="1" clip-path="url(#aHnGfpxwOpnu)" stroke-opacity="1" stroke-linejoin="bevel" stroke-miterlimit="10" stroke-dasharray=""/><path fill="rgb(174,199,232)" stroke="rgb(0,0,0)" paint-order="fill" d="M 170.7142791748047 597.2212524414062 A 3.5 3.5 0 0 1 163.7142791748047 597.2212524414062 A 3.5 3.5 0 0 1 170.7142791748047 597.2212524414062" fill-opacity="1" clip-path="url(#aHnGfpxwOpnu)" stroke-opacity="1" stroke-linejoin="bevel" stroke-miterlimit="10" stroke-dasharray=""/><path fill="rgb(174,199,232)" stroke="rgb(0,0,0)" paint-order="fill" d="M 218.3116912841797 520.7469482421875 A 3.5 3.5 0 0 1 211.3116912841797 520.7469482421875 A 3.5 3.5 0 0 1 218.3116912841797 520.7469482421875" fill-opacity="1" clip-path="url(#aHnGfpxwOpnu)" stroke-opacity="1" stroke-linejoin="bevel" stroke-miterlimit="10" stroke-dasharray=""/><path fill="rgb(174,199,232)" stroke="rgb(0,0,0)" paint-order="fill" d="M 242.11038208007812 561.6160278320312 A 3.5 3.5 0 0 1 235.11038208007812 561.6160278320312 A 3.5 3.5 0 0 1 242.11038208007812 561.6160278320312" fill-opacity="1" clip-path="url(#aHnGfpxwOpnu)" stroke-opacity="1" stroke-linejoin="bevel" stroke-miterlimit="10" stroke-dasharray=""/><path fill="rgb(174,199,232)" stroke="rgb(0,0,0)" paint-order="fill" d="M 265.9090881347656 522.2587280273438 A 3.5 3.5 0 0 1 258.9090881347656 522.2587280273438 A 3.5 3.5 0 0 1 265.9090881347656 522.2587280273438" fill-opacity="1" clip-path="url(#aHnGfpxwOpnu)" stroke-opacity="1" stroke-linejoin="bevel" stroke-miterlimit="10" stroke-dasharray=""/><path fill="rgb(174,199,232)" stroke="rgb(0,0,0)" paint-order="fill" d="M 289.7077941894531 516.6808471679688 A 3.5 3.5 0 0 1 282.7077941894531 516.6808471679688 A 3.5 3.5 0 0 1 289.7077941894531 516.6808471679688" fill-opacity="1" clip-path="url(#aHnGfpxwOpnu)" stroke-opacity="1" stroke-linejoin="bevel" stroke-miterlimit="10" stroke-dasharray=""/><path fill="rgb(174,199,232)" stroke="rgb(0,0,0)" paint-order="fill" d="M 313.5065002441406 525.0571899414062 A 3.5 3.5 0 0 1 306.5065002441406 525.0571899414062 A 3.5 3.5 0 0 1 313.5065002441406 525.0571899414062" fill-opacity="1" clip-path="url(#aHnGfpxwOpnu)" stroke-opacity="1" stroke-linejoin="bevel" stroke-miterlimit="10" stroke-dasharray=""/><path fill="rgb(174,199,232)" stroke="rgb(0,0,0)" paint-order="fill" d="M 337.3052062988281 508.83587646484375 A 3.5 3.5 0 0 1 330.3052062988281 508.83587646484375 A 3.5 3.5 0 0 1 337.3052062988281 508.83587646484375" fill-opacity="1" clip-path="url(#aHnGfpxwOpnu)" stroke-opacity="1" stroke-linejoin="bevel" stroke-miterlimit="10" stroke-dasharray=""/><path fill="rgb(174,199,232)" stroke="rgb(0,0,0)" paint-order="fill" d="M 361.1038818359375 502.94512939453125 A 3.5 3.5 0 0 1 354.1038818359375 502.94512939453125 A 3.5 3.5 0 0 1 361.1038818359375 502.94512939453125" fill-opacity="1" clip-path="url(#aHnGfpxwOpnu)" stroke-opacity="1" stroke-linejoin="bevel" stroke-miterlimit="10" stroke-dasharray=""/><path fill="rgb(174,199,232)" stroke="rgb(0,0,0)" paint-order="fill" d="M 384.902587890625 519.28125 A 3.5 3.5 0 0 1 377.902587890625 519.28125 A 3.5 3.5 0 0 1 384.902587890625 519.28125" fill-opacity="1" clip-path="url(#aHnGfpxwOpnu)" stroke-opacity="1" stroke-linejoin="bevel" stroke-miterlimit="10" stroke-dasharray=""/><path fill="rgb(174,199,232)" stroke="rgb(0,0,0)" paint-order="fill" d="M 408.7012939453125 522.0205688476562 A 3.5 3.5 0 0 1 401.7012939453125 522.0205688476562 A 3.5 3.5 0 0 1 408.7012939453125 522.0205688476562" fill-opacity="1" clip-path="url(#aHnGfpxwOpnu)" stroke-opacity="1" stroke-linejoin="bevel" stroke-miterlimit="10" stroke-dasharray=""/><path fill="rgb(174,199,232)" stroke="rgb(0,0,0)" paint-order="fill" d="M 432.5 508.8351745605469 A 3.5 3.5 0 0 1 425.5 508.8351745605469 A 3.5 3.5 0 0 1 432.5 508.8351745605469" fill-opacity="1" clip-path="url(#aHnGfpxwOpnu)" stroke-opacity="1" stroke-linejoin="bevel" stroke-miterlimit="10" stroke-dasharray=""/><path fill="rgb(174,199,232)" stroke="rgb(0,0,0)" paint-order="fill" d="M 456.2987060546875 511.42523193359375 A 3.5 3.5 0 0 1 449.2987060546875 511.42523193359375 A 3.5 3.5 0 0 1 456.2987060546875 511.42523193359375" fill-opacity="1" clip-path="url(#aHnGfpxwOpnu)" stroke-opacity="1" stroke-linejoin="bevel" stroke-miterlimit="10" stroke-dasharray=""/><path fill="rgb(174,199,232)" stroke="rgb(0,0,0)" paint-order="fill" d="M 480.097412109375 414.43389892578125 A 3.5 3.5 0 0 1 473.097412109375 414.43389892578125 A 3.5 3.5 0 0 1 480.097412109375 414.43389892578125" fill-opacity="1" clip-path="url(#aHnGfpxwOpnu)" stroke-opacity="1" stroke-linejoin="bevel" stroke-miterlimit="10" stroke-dasharray=""/><path fill="rgb(174,199,232)" stroke="rgb(0,0,0)" paint-order="fill" d="M 503.8961181640625 429.07855224609375 A 3.5 3.5 0 0 1 496.8961181640625 429.07855224609375 A 3.5 3.5 0 0 1 503.8961181640625 429.07855224609375" fill-opacity="1" clip-path="url(#aHnGfpxwOpnu)" stroke-opacity="1" stroke-linejoin="bevel" stroke-miterlimit="10" stroke-dasharray=""/><path fill="rgb(174,199,232)" stroke="rgb(0,0,0)" paint-order="fill" d="M 527.69482421875 405.7428283691406 A 3.5 3.5 0 0 1 520.69482421875 405.7428283691406 A 3.5 3.5 0 0 1 527.69482421875 405.7428283691406" fill-opacity="1" clip-path="url(#aHnGfpxwOpnu)" stroke-opacity="1" stroke-linejoin="bevel" stroke-miterlimit="10" stroke-dasharray=""/><path fill="rgb(174,199,232)" stroke="rgb(0,0,0)" paint-order="fill" d="M 551.4935302734375 378.5594482421875 A 3.5 3.5 0 0 1 544.4935302734375 378.5594482421875 A 3.5 3.5 0 0 1 551.4935302734375 378.5594482421875" fill-opacity="1" clip-path="url(#aHnGfpxwOpnu)" stroke-opacity="1" stroke-linejoin="bevel" stroke-miterlimit="10" stroke-dasharray=""/><path fill="rgb(174,199,232)" stroke="rgb(0,0,0)" paint-order="fill" d="M 575.292236328125 365.5252380371094 A 3.5 3.5 0 0 1 568.292236328125 365.5252380371094 A 3.5 3.5 0 0 1 575.292236328125 365.5252380371094" fill-opacity="1" clip-path="url(#aHnGfpxwOpnu)" stroke-opacity="1" stroke-linejoin="bevel" stroke-miterlimit="10" stroke-dasharray=""/><path fill="rgb(174,199,232)" stroke="rgb(0,0,0)" paint-order="fill" d="M 599.0908813476562 402.2107238769531 A 3.5 3.5 0 0 1 592.0908813476562 402.2107238769531 A 3.5 3.5 0 0 1 599.0908813476562 402.2107238769531" fill-opacity="1" clip-path="url(#aHnGfpxwOpnu)" stroke-opacity="1" stroke-linejoin="bevel" stroke-miterlimit="10" stroke-dasharray=""/><path fill="rgb(174,199,232)" stroke="rgb(0,0,0)" paint-order="fill" d="M 622.8895874023438 410.3044128417969 A 3.5 3.5 0 0 1 615.8895874023438 410.3044128417969 A 3.5 3.5 0 0 1 622.8895874023438 410.3044128417969" fill-opacity="1" clip-path="url(#aHnGfpxwOpnu)" stroke-opacity="1" stroke-linejoin="bevel" stroke-miterlimit="10" stroke-dasharray=""/><path fill="rgb(174,199,232)" stroke="rgb(0,0,0)" paint-order="fill" d="M 646.6882934570312 412.53204345703125 A 3.5 3.5 0 0 1 639.6882934570312 412.53204345703125 A 3.5 3.5 0 0 1 646.6882934570312 412.53204345703125" fill-opacity="1" clip-path="url(#aHnGfpxwOpnu)" stroke-opacity="1" stroke-linejoin="bevel" stroke-miterlimit="10" stroke-dasharray=""/><path fill="rgb(174,199,232)" stroke="rgb(0,0,0)" paint-order="fill" d="M 670.4869995117188 403.99151611328125 A 3.5 3.5 0 0 1 663.4869995117188 403.99151611328125 A 3.5 3.5 0 0 1 670.4869995117188 403.99151611328125" fill-opacity="1" clip-path="url(#aHnGfpxwOpnu)" stroke-opacity="1" stroke-linejoin="bevel" stroke-miterlimit="10" stroke-dasharray=""/><path fill="rgb(174,199,232)" stroke="rgb(0,0,0)" paint-order="fill" d="M 694.2857055664062 387.2998352050781 A 3.5 3.5 0 0 1 687.2857055664062 387.2998352050781 A 3.5 3.5 0 0 1 694.2857055664062 387.2998352050781" fill-opacity="1" clip-path="url(#aHnGfpxwOpnu)" stroke-opacity="1" stroke-linejoin="bevel" stroke-miterlimit="10" stroke-dasharray=""/><path fill="rgb(174,199,232)" stroke="rgb(0,0,0)" paint-order="fill" d="M 718.0844116210938 422.916259765625 A 3.5 3.5 0 0 1 711.0844116210938 422.916259765625 A 3.5 3.5 0 0 1 718.0844116210938 422.916259765625" fill-opacity="1" clip-path="url(#aHnGfpxwOpnu)" stroke-opacity="1" stroke-linejoin="bevel" stroke-miterlimit="10" stroke-dasharray=""/><path fill="rgb(174,199,232)" stroke="rgb(0,0,0)" paint-order="fill" d="M 741.8831176757812 320.6606750488281 A 3.5 3.5 0 0 1 734.8831176757812 320.6606750488281 A 3.5 3.5 0 0 1 741.8831176757812 320.6606750488281" fill-opacity="1" clip-path="url(#aHnGfpxwOpnu)" stroke-opacity="1" stroke-linejoin="bevel" stroke-miterlimit="10" stroke-dasharray=""/><path fill="rgb(174,199,232)" stroke="rgb(0,0,0)" paint-order="fill" d="M 765.6818237304688 392.01171875 A 3.5 3.5 0 0 1 758.6818237304688 392.01171875 A 3.5 3.5 0 0 1 765.6818237304688 392.01171875" fill-opacity="1" clip-path="url(#aHnGfpxwOpnu)" stroke-opacity="1" stroke-linejoin="bevel" stroke-miterlimit="10" stroke-dasharray=""/><path fill="none" stroke="rgb(255,127,14)" paint-order="fill" d="M 262.4090881347656 479.2520751953125 L 310.0065002441406 503.46234130859375 L 333.8052062988281 507.3157043457031 L 357.6038818359375 486.3315734863281 L 381.402587890625 494.7626037597656 L 405.2012939453125 530.800537109375 L 429 493.0162048339844 L 500.3961181640625 325.7878112792969 L 571.792236328125 330.697265625 L 595.5908813476562 339.79107666015625 L 619.3895874023438 350.540283203125 L 643.1882934570312 352.0789489746094 L 666.9869995117188 327.81036376953125 L 690.7857055664062 309.3578186035156" stroke-opacity="1" stroke-linejoin="bevel" stroke-miterlimit="10" stroke-width="2" stroke-dasharray="" clip-path="url(#ZTCaydsWFdPA)"/><path fill="none" stroke="rgb(0,0,0)" paint-order="fill" d="M 262.4090881347656 479.2520751953125 L 310.0065002441406 503.46234130859375 L 333.8052062988281 507.3157043457031 L 357.6038818359375 486.3315734863281 L 381.402587890625 494.7626037597656 L 405.2012939453125 530.800537109375 L 429 493.0162048339844 L 500.3961181640625 325.7878112792969 L 571.792236328125 330.697265625 L 595.5908813476562 339.79107666015625 L 619.3895874023438 350.540283203125 L 643.1882934570312 352.0789489746094 L 666.9869995117188 327.81036376953125 L 690.7857055664062 309.3578186035156" stroke-opacity="1" stroke-linejoin="bevel" stroke-miterlimit="10" stroke-dasharray="" clip-path="url(#CEGgAGysJqpv)"/><path fill="rgb(255,127,14)" stroke="rgb(0,0,0)" paint-order="fill" d="M 265.9090881347656 479.2520751953125 A 3.5 3.5 0 0 1 258.9090881347656 479.2520751953125 A 3.5 3.5 0 0 1 265.9090881347656 479.2520751953125" fill-opacity="1" clip-path="url(#wAssZCKUQanI)" stroke-opacity="1" stroke-linejoin="bevel" stroke-miterlimit="10" stroke-dasharray=""/><path fill="rgb(255,127,14)" stroke="rgb(0,0,0)" paint-order="fill" d="M 313.5065002441406 503.46234130859375 A 3.5 3.5 0 0 1 306.5065002441406 503.46234130859375 A 3.5 3.5 0 0 1 313.5065002441406 503.46234130859375" fill-opacity="1" clip-path="url(#wAssZCKUQanI)" stroke-opacity="1" stroke-linejoin="bevel" stroke-miterlimit="10" stroke-dasharray=""/><path fill="rgb(255,127,14)" stroke="rgb(0,0,0)" paint-order="fill" d="M 337.3052062988281 507.3157043457031 A 3.5 3.5 0 0 1 330.3052062988281 507.3157043457031 A 3.5 3.5 0 0 1 337.3052062988281 507.3157043457031" fill-opacity="1" clip-path="url(#wAssZCKUQanI)" stroke-opacity="1" stroke-linejoin="bevel" stroke-miterlimit="10" stroke-dasharray=""/><path fill="rgb(255,127,14)" stroke="rgb(0,0,0)" paint-order="fill" d="M 361.1038818359375 486.3315734863281 A 3.5 3.5 0 0 1 354.1038818359375 486.3315734863281 A 3.5 3.5 0 0 1 361.1038818359375 486.3315734863281" fill-opacity="1" clip-path="url(#wAssZCKUQanI)" stroke-opacity="1" stroke-linejoin="bevel" stroke-miterlimit="10" stroke-dasharray=""/><path fill="rgb(255,127,14)" stroke="rgb(0,0,0)" paint-order="fill" d="M 384.902587890625 494.7626037597656 A 3.5 3.5 0 0 1 377.902587890625 494.7626037597656 A 3.5 3.5 0 0 1 384.902587890625 494.7626037597656" fill-opacity="1" clip-path="url(#wAssZCKUQanI)" stroke-opacity="1" stroke-linejoin="bevel" stroke-miterlimit="10" stroke-dasharray=""/><path fill="rgb(255,127,14)" stroke="rgb(0,0,0)" paint-order="fill" d="M 408.7012939453125 530.800537109375 A 3.5 3.5 0 0 1 401.7012939453125 530.800537109375 A 3.5 3.5 0 0 1 408.7012939453125 530.800537109375" fill-opacity="1" clip-path="url(#wAssZCKUQanI)" stroke-opacity="1" stroke-linejoin="bevel" stroke-miterlimit="10" stroke-dasharray=""/><path fill="rgb(255,127,14)" stroke="rgb(0,0,0)" paint-order="fill" d="M 432.5 493.0162048339844 A 3.5 3.5 0 0 1 425.5 493.0162048339844 A 3.5 3.5 0 0 1 432.5 493.0162048339844" fill-opacity="1" clip-path="url(#wAssZCKUQanI)" stroke-opacity="1" stroke-linejoin="bevel" stroke-miterlimit="10" stroke-dasharray=""/><path fill="rgb(255,127,14)" stroke="rgb(0,0,0)" paint-order="fill" d="M 503.8961181640625 325.7878112792969 A 3.5 3.5 0 0 1 496.8961181640625 325.7878112792969 A 3.5 3.5 0 0 1 503.8961181640625 325.7878112792969" fill-opacity="1" clip-path="url(#wAssZCKUQanI)" stroke-opacity="1" stroke-linejoin="bevel" stroke-miterlimit="10" stroke-dasharray=""/><path fill="rgb(255,127,14)" stroke="rgb(0,0,0)" paint-order="fill" d="M 575.292236328125 330.697265625 A 3.5 3.5 0 0 1 568.292236328125 330.697265625 A 3.5 3.5 0 0 1 575.292236328125 330.697265625" fill-opacity="1" clip-path="url(#wAssZCKUQanI)" stroke-opacity="1" stroke-linejoin="bevel" stroke-miterlimit="10" stroke-dasharray=""/><path fill="rgb(255,127,14)" stroke="rgb(0,0,0)" paint-order="fill" d="M 599.0908813476562 339.79107666015625 A 3.5 3.5 0 0 1 592.0908813476562 339.79107666015625 A 3.5 3.5 0 0 1 599.0908813476562 339.79107666015625" fill-opacity="1" clip-path="url(#wAssZCKUQanI)" stroke-opacity="1" stroke-linejoin="bevel" stroke-miterlimit="10" stroke-dasharray=""/><path fill="rgb(255,127,14)" stroke="rgb(0,0,0)" paint-order="fill" d="M 622.8895874023438 350.540283203125 A 3.5 3.5 0 0 1 615.8895874023438 350.540283203125 A 3.5 3.5 0 0 1 622.8895874023438 350.540283203125" fill-opacity="1" clip-path="url(#wAssZCKUQanI)" stroke-opacity="1" stroke-linejoin="bevel" stroke-miterlimit="10" stroke-dasharray=""/><path fill="rgb(255,127,14)" stroke="rgb(0,0,0)" paint-order="fill" d="M 646.6882934570312 352.0789489746094 A 3.5 3.5 0 0 1 639.6882934570312 352.0789489746094 A 3.5 3.5 0 0 1 646.6882934570312 352.0789489746094" fill-opacity="1" clip-path="url(#wAssZCKUQanI)" stroke-opacity="1" stroke-linejoin="bevel" stroke-miterlimit="10" stroke-dasharray=""/><path fill="rgb(255,127,14)" stroke="rgb(0,0,0)" paint-order="fill" d="M 670.4869995117188 327.81036376953125 A 3.5 3.5 0 0 1 663.4869995117188 327.81036376953125 A 3.5 3.5 0 0 1 670.4869995117188 327.81036376953125" fill-opacity="1" clip-path="url(#wAssZCKUQanI)" stroke-opacity="1" stroke-linejoin="bevel" stroke-miterlimit="10" stroke-dasharray=""/><path fill="rgb(255,127,14)" stroke="rgb(0,0,0)" paint-order="fill" d="M 694.2857055664062 309.3578186035156 A 3.5 3.5 0 0 1 687.2857055664062 309.3578186035156 A 3.5 3.5 0 0 1 694.2857055664062 309.3578186035156" fill-opacity="1" clip-path="url(#wAssZCKUQanI)" stroke-opacity="1" stroke-linejoin="bevel" stroke-miterlimit="10" stroke-dasharray=""/><path fill="none" stroke="rgb(255,187,120)" paint-order="fill" d="M 286.2077941894531 555.8494873046875 L 310.0065002441406 480.30645751953125 L 333.8052062988281 490.8714904785156 L 357.6038818359375 502.9374694824219 L 381.402587890625 467.4886779785156 L 405.2012939453125 517.3037719726562 L 429 516.2994384765625 L 452.7987060546875 355.1748962402344 L 524.19482421875 424.07183837890625 L 595.5908813476562 291.5474853515625 L 619.3895874023438 378.9189453125 L 643.1882934570312 432.6636962890625 L 666.9869995117188 450.812744140625 L 690.7857055664062 390.8968505859375 L 714.5844116210938 357.05133056640625" stroke-opacity="1" stroke-linejoin="bevel" stroke-miterlimit="10" stroke-width="2" stroke-dasharray="" clip-path="url(#PcScDiCpTMII)"/><path fill="none" stroke="rgb(0,0,0)" paint-order="fill" d="M 286.2077941894531 555.8494873046875 L 310.0065002441406 480.30645751953125 L 333.8052062988281 490.8714904785156 L 357.6038818359375 502.9374694824219 L 381.402587890625 467.4886779785156 L 405.2012939453125 517.3037719726562 L 429 516.2994384765625 L 452.7987060546875 355.1748962402344 L 524.19482421875 424.07183837890625 L 595.5908813476562 291.5474853515625 L 619.3895874023438 378.9189453125 L 643.1882934570312 432.6636962890625 L 666.9869995117188 450.812744140625 L 690.7857055664062 390.8968505859375 L 714.5844116210938 357.05133056640625" stroke-opacity="1" stroke-linejoin="bevel" stroke-miterlimit="10" stroke-dasharray="" clip-path="url(#zaBWtEOUpIEz)"/><path fill="rgb(255,187,120)" stroke="rgb(0,0,0)" paint-order="fill" d="M 289.7077941894531 555.8494873046875 A 3.5 3.5 0 0 1 282.7077941894531 555.8494873046875 A 3.5 3.5 0 0 1 289.7077941894531 555.8494873046875" fill-opacity="1" clip-path="url(#mQoKPaGLqvbG)" stroke-opacity="1" stroke-linejoin="bevel" stroke-miterlimit="10" stroke-dasharray=""/><path fill="rgb(255,187,120)" stroke="rgb(0,0,0)" paint-order="fill" d="M 313.5065002441406 480.30645751953125 A 3.5 3.5 0 0 1 306.5065002441406 480.30645751953125 A 3.5 3.5 0 0 1 313.5065002441406 480.30645751953125" fill-opacity="1" clip-path="url(#mQoKPaGLqvbG)" stroke-opacity="1" stroke-linejoin="bevel" stroke-miterlimit="10" stroke-dasharray=""/><path fill="rgb(255,187,120)" stroke="rgb(0,0,0)" paint-order="fill" d="M 337.3052062988281 490.8714904785156 A 3.5 3.5 0 0 1 330.3052062988281 490.8714904785156 A 3.5 3.5 0 0 1 337.3052062988281 490.8714904785156" fill-opacity="1" clip-path="url(#mQoKPaGLqvbG)" stroke-opacity="1" stroke-linejoin="bevel" stroke-miterlimit="10" stroke-dasharray=""/><path fill="rgb(255,187,120)" stroke="rgb(0,0,0)" paint-order="fill" d="M 361.1038818359375 502.9374694824219 A 3.5 3.5 0 0 1 354.1038818359375 502.9374694824219 A 3.5 3.5 0 0 1 361.1038818359375 502.9374694824219" fill-opacity="1" clip-path="url(#mQoKPaGLqvbG)" stroke-opacity="1" stroke-linejoin="bevel" stroke-miterlimit="10" stroke-dasharray=""/><path fill="rgb(255,187,120)" stroke="rgb(0,0,0)" paint-order="fill" d="M 384.902587890625 467.4886779785156 A 3.5 3.5 0 0 1 377.902587890625 467.4886779785156 A 3.5 3.5 0 0 1 384.902587890625 467.4886779785156" fill-opacity="1" clip-path="url(#mQoKPaGLqvbG)" stroke-opacity="1" stroke-linejoin="bevel" stroke-miterlimit="10" stroke-dasharray=""/><path fill="rgb(255,187,120)" stroke="rgb(0,0,0)" paint-order="fill" d="M 408.7012939453125 517.3037719726562 A 3.5 3.5 0 0 1 401.7012939453125 517.3037719726562 A 3.5 3.5 0 0 1 408.7012939453125 517.3037719726562" fill-opacity="1" clip-path="url(#mQoKPaGLqvbG)" stroke-opacity="1" stroke-linejoin="bevel" stroke-miterlimit="10" stroke-dasharray=""/><path fill="rgb(255,187,120)" stroke="rgb(0,0,0)" paint-order="fill" d="M 432.5 516.2994384765625 A 3.5 3.5 0 0 1 425.5 516.2994384765625 A 3.5 3.5 0 0 1 432.5 516.2994384765625" fill-opacity="1" clip-path="url(#mQoKPaGLqvbG)" stroke-opacity="1" stroke-linejoin="bevel" stroke-miterlimit="10" stroke-dasharray=""/><path fill="rgb(255,187,120)" stroke="rgb(0,0,0)" paint-order="fill" d="M 456.2987060546875 355.1748962402344 A 3.5 3.5 0 0 1 449.2987060546875 355.1748962402344 A 3.5 3.5 0 0 1 456.2987060546875 355.1748962402344" fill-opacity="1" clip-path="url(#mQoKPaGLqvbG)" stroke-opacity="1" stroke-linejoin="bevel" stroke-miterlimit="10" stroke-dasharray=""/><path fill="rgb(255,187,120)" stroke="rgb(0,0,0)" paint-order="fill" d="M 527.69482421875 424.07183837890625 A 3.5 3.5 0 0 1 520.69482421875 424.07183837890625 A 3.5 3.5 0 0 1 527.69482421875 424.07183837890625" fill-opacity="1" clip-path="url(#mQoKPaGLqvbG)" stroke-opacity="1" stroke-linejoin="bevel" stroke-miterlimit="10" stroke-dasharray=""/><path fill="rgb(255,187,120)" stroke="rgb(0,0,0)" paint-order="fill" d="M 599.0908813476562 291.5474853515625 A 3.5 3.5 0 0 1 592.0908813476562 291.5474853515625 A 3.5 3.5 0 0 1 599.0908813476562 291.5474853515625" fill-opacity="1" clip-path="url(#mQoKPaGLqvbG)" stroke-opacity="1" stroke-linejoin="bevel" stroke-miterlimit="10" stroke-dasharray=""/><path fill="rgb(255,187,120)" stroke="rgb(0,0,0)" paint-order="fill" d="M 622.8895874023438 378.9189453125 A 3.5 3.5 0 0 1 615.8895874023438 378.9189453125 A 3.5 3.5 0 0 1 622.8895874023438 378.9189453125" fill-opacity="1" clip-path="url(#mQoKPaGLqvbG)" stroke-opacity="1" stroke-linejoin="bevel" stroke-miterlimit="10" stroke-dasharray=""/><path fill="rgb(255,187,120)" stroke="rgb(0,0,0)" paint-order="fill" d="M 646.6882934570312 432.6636962890625 A 3.5 3.5 0 0 1 639.6882934570312 432.6636962890625 A 3.5 3.5 0 0 1 646.6882934570312 432.6636962890625" fill-opacity="1" clip-path="url(#mQoKPaGLqvbG)" stroke-opacity="1" stroke-linejoin="bevel" stroke-miterlimit="10" stroke-dasharray=""/><path fill="rgb(255,187,120)" stroke="rgb(0,0,0)" paint-order="fill" d="M 670.4869995117188 450.812744140625 A 3.5 3.5 0 0 1 663.4869995117188 450.812744140625 A 3.5 3.5 0 0 1 670.4869995117188 450.812744140625" fill-opacity="1" clip-path="url(#mQoKPaGLqvbG)" stroke-opacity="1" stroke-linejoin="bevel" stroke-miterlimit="10" stroke-dasharray=""/><path fill="rgb(255,187,120)" stroke="rgb(0,0,0)" paint-order="fill" d="M 694.2857055664062 390.8968505859375 A 3.5 3.5 0 0 1 687.2857055664062 390.8968505859375 A 3.5 3.5 0 0 1 694.2857055664062 390.8968505859375" fill-opacity="1" clip-path="url(#mQoKPaGLqvbG)" stroke-opacity="1" stroke-linejoin="bevel" stroke-miterlimit="10" stroke-dasharray=""/><path fill="rgb(255,187,120)" stroke="rgb(0,0,0)" paint-order="fill" d="M 718.0844116210938 357.05133056640625 A 3.5 3.5 0 0 1 711.0844116210938 357.05133056640625 A 3.5 3.5 0 0 1 718.0844116210938 357.05133056640625" fill-opacity="1" clip-path="url(#mQoKPaGLqvbG)" stroke-opacity="1" stroke-linejoin="bevel" stroke-miterlimit="10" stroke-dasharray=""/><path fill="none" stroke="rgb(44,160,44)" paint-order="fill" d="M 310.0065002441406 478.68585205078125 L 333.8052062988281 464.287841796875 L 381.402587890625 496.6999206542969 L 405.2012939453125 580.8556518554688" stroke-opacity="1" stroke-linejoin="bevel" stroke-miterlimit="10" stroke-width="2" stroke-dasharray="" clip-path="url(#dHLhQUPgQZvM)"/><path fill="none" stroke="rgb(0,0,0)" paint-order="fill" d="M 310.0065002441406 478.68585205078125 L 333.8052062988281 464.287841796875 L 381.402587890625 496.6999206542969 L 405.2012939453125 580.8556518554688" stroke-opacity="1" stroke-linejoin="bevel" stroke-miterlimit="10" stroke-dasharray="" clip-path="url(#VSuqabXNAPoZ)"/><path fill="rgb(44,160,44)" stroke="rgb(0,0,0)" paint-order="fill" d="M 313.5065002441406 478.68585205078125 A 3.5 3.5 0 0 1 306.5065002441406 478.68585205078125 A 3.5 3.5 0 0 1 313.5065002441406 478.68585205078125" fill-opacity="1" clip-path="url(#EkvXZqSviqPo)" stroke-opacity="1" stroke-linejoin="bevel" stroke-miterlimit="10" stroke-dasharray=""/><path fill="rgb(44,160,44)" stroke="rgb(0,0,0)" paint-order="fill" d="M 337.3052062988281 464.287841796875 A 3.5 3.5 0 0 1 330.3052062988281 464.287841796875 A 3.5 3.5 0 0 1 337.3052062988281 464.287841796875" fill-opacity="1" clip-path="url(#EkvXZqSviqPo)" stroke-opacity="1" stroke-linejoin="bevel" stroke-miterlimit="10" stroke-dasharray=""/><path fill="rgb(44,160,44)" stroke="rgb(0,0,0)" paint-order="fill" d="M 384.902587890625 496.6999206542969 A 3.5 3.5 0 0 1 377.902587890625 496.6999206542969 A 3.5 3.5 0 0 1 384.902587890625 496.6999206542969" fill-opacity="1" clip-path="url(#EkvXZqSviqPo)" stroke-opacity="1" stroke-linejoin="bevel" stroke-miterlimit="10" stroke-dasharray=""/><path fill="rgb(44,160,44)" stroke="rgb(0,0,0)" paint-order="fill" d="M 408.7012939453125 580.8556518554688 A 3.5 3.5 0 0 1 401.7012939453125 580.8556518554688 A 3.5 3.5 0 0 1 408.7012939453125 580.8556518554688" fill-opacity="1" clip-path="url(#EkvXZqSviqPo)" stroke-opacity="1" stroke-linejoin="bevel" stroke-miterlimit="10" stroke-dasharray=""/><path fill="none" stroke="rgb(152,223,138)" paint-order="fill" d="M 310.0065002441406 514.4922485351562 L 333.8052062988281 519.39111328125 L 405.2012939453125 508.2311096191406 L 429 528.5428466796875 L 452.7987060546875 351.72210693359375" stroke-opacity="1" stroke-linejoin="bevel" stroke-miterlimit="10" stroke-width="2" stroke-dasharray="" clip-path="url(#KFffToDkxiob)"/><path fill="none" stroke="rgb(0,0,0)" paint-order="fill" d="M 310.0065002441406 514.4922485351562 L 333.8052062988281 519.39111328125 L 405.2012939453125 508.2311096191406 L 429 528.5428466796875 L 452.7987060546875 351.72210693359375" stroke-opacity="1" stroke-linejoin="bevel" stroke-miterlimit="10" stroke-dasharray="" clip-path="url(#DfwkntBvUhOK)"/><path fill="rgb(152,223,138)" stroke="rgb(0,0,0)" paint-order="fill" d="M 313.5065002441406 514.4922485351562 A 3.5 3.5 0 0 1 306.5065002441406 514.4922485351562 A 3.5 3.5 0 0 1 313.5065002441406 514.4922485351562" fill-opacity="1" clip-path="url(#sdTZrCXTEfDE)" stroke-opacity="1" stroke-linejoin="bevel" stroke-miterlimit="10" stroke-dasharray=""/><path fill="rgb(152,223,138)" stroke="rgb(0,0,0)" paint-order="fill" d="M 337.3052062988281 519.39111328125 A 3.5 3.5 0 0 1 330.3052062988281 519.39111328125 A 3.5 3.5 0 0 1 337.3052062988281 519.39111328125" fill-opacity="1" clip-path="url(#sdTZrCXTEfDE)" stroke-opacity="1" stroke-linejoin="bevel" stroke-miterlimit="10" stroke-dasharray=""/><path fill="rgb(152,223,138)" stroke="rgb(0,0,0)" paint-order="fill" d="M 408.7012939453125 508.2311096191406 A 3.5 3.5 0 0 1 401.7012939453125 508.2311096191406 A 3.5 3.5 0 0 1 408.7012939453125 508.2311096191406" fill-opacity="1" clip-path="url(#sdTZrCXTEfDE)" stroke-opacity="1" stroke-linejoin="bevel" stroke-miterlimit="10" stroke-dasharray=""/><path fill="rgb(152,223,138)" stroke="rgb(0,0,0)" paint-order="fill" d="M 432.5 528.5428466796875 A 3.5 3.5 0 0 1 425.5 528.5428466796875 A 3.5 3.5 0 0 1 432.5 528.5428466796875" fill-opacity="1" clip-path="url(#sdTZrCXTEfDE)" stroke-opacity="1" stroke-linejoin="bevel" stroke-miterlimit="10" stroke-dasharray=""/><path fill="rgb(152,223,138)" stroke="rgb(0,0,0)" paint-order="fill" d="M 456.2987060546875 351.72210693359375 A 3.5 3.5 0 0 1 449.2987060546875 351.72210693359375 A 3.5 3.5 0 0 1 456.2987060546875 351.72210693359375" fill-opacity="1" clip-path="url(#sdTZrCXTEfDE)" stroke-opacity="1" stroke-linejoin="bevel" stroke-miterlimit="10" stroke-dasharray=""/><path fill="none" stroke="rgb(214,39,40)" paint-order="fill" d="M 381.402587890625 420.0350341796875 L 476.597412109375 407.0738830566406 L 500.3961181640625 416.2737121582031 L 524.19482421875 473.3028564453125 L 547.9935302734375 415.062255859375 L 595.5908813476562 400.3398742675781 L 619.3895874023438 424.9895324707031 L 643.1882934570312 402.1607666015625 L 666.9869995117188 453.2306213378906" stroke-opacity="1" stroke-linejoin="bevel" stroke-miterlimit="10" stroke-width="2" stroke-dasharray="" clip-path="url(#OIGGnqHRRclT)"/><path fill="none" stroke="rgb(0,0,0)" paint-order="fill" d="M 381.402587890625 420.0350341796875 L 476.597412109375 407.0738830566406 L 500.3961181640625 416.2737121582031 L 524.19482421875 473.3028564453125 L 547.9935302734375 415.062255859375 L 595.5908813476562 400.3398742675781 L 619.3895874023438 424.9895324707031 L 643.1882934570312 402.1607666015625 L 666.9869995117188 453.2306213378906" stroke-opacity="1" stroke-linejoin="bevel" stroke-miterlimit="10" stroke-dasharray="" clip-path="url(#QCWsAThkZuXT)"/><path fill="rgb(214,39,40)" stroke="rgb(0,0,0)" paint-order="fill" d="M 384.902587890625 420.0350341796875 A 3.5 3.5 0 0 1 377.902587890625 420.0350341796875 A 3.5 3.5 0 0 1 384.902587890625 420.0350341796875" fill-opacity="1" clip-path="url(#yrBaiHVcTtgE)" stroke-opacity="1" stroke-linejoin="bevel" stroke-miterlimit="10" stroke-dasharray=""/><path fill="rgb(214,39,40)" stroke="rgb(0,0,0)" paint-order="fill" d="M 480.097412109375 407.0738830566406 A 3.5 3.5 0 0 1 473.097412109375 407.0738830566406 A 3.5 3.5 0 0 1 480.097412109375 407.0738830566406" fill-opacity="1" clip-path="url(#yrBaiHVcTtgE)" stroke-opacity="1" stroke-linejoin="bevel" stroke-miterlimit="10" stroke-dasharray=""/><path fill="rgb(214,39,40)" stroke="rgb(0,0,0)" paint-order="fill" d="M 503.8961181640625 416.2737121582031 A 3.5 3.5 0 0 1 496.8961181640625 416.2737121582031 A 3.5 3.5 0 0 1 503.8961181640625 416.2737121582031" fill-opacity="1" clip-path="url(#yrBaiHVcTtgE)" stroke-opacity="1" stroke-linejoin="bevel" stroke-miterlimit="10" stroke-dasharray=""/><path fill="rgb(214,39,40)" stroke="rgb(0,0,0)" paint-order="fill" d="M 527.69482421875 473.3028564453125 A 3.5 3.5 0 0 1 520.69482421875 473.3028564453125 A 3.5 3.5 0 0 1 527.69482421875 473.3028564453125" fill-opacity="1" clip-path="url(#yrBaiHVcTtgE)" stroke-opacity="1" stroke-linejoin="bevel" stroke-miterlimit="10" stroke-dasharray=""/><path fill="rgb(214,39,40)" stroke="rgb(0,0,0)" paint-order="fill" d="M 551.4935302734375 415.062255859375 A 3.5 3.5 0 0 1 544.4935302734375 415.062255859375 A 3.5 3.5 0 0 1 551.4935302734375 415.062255859375" fill-opacity="1" clip-path="url(#yrBaiHVcTtgE)" stroke-opacity="1" stroke-linejoin="bevel" stroke-miterlimit="10" stroke-dasharray=""/><path fill="rgb(214,39,40)" stroke="rgb(0,0,0)" paint-order="fill" d="M 599.0908813476562 400.3398742675781 A 3.5 3.5 0 0 1 592.0908813476562 400.3398742675781 A 3.5 3.5 0 0 1 599.0908813476562 400.3398742675781" fill-opacity="1" clip-path="url(#yrBaiHVcTtgE)" stroke-opacity="1" stroke-linejoin="bevel" stroke-miterlimit="10" stroke-dasharray=""/><path fill="rgb(214,39,40)" stroke="rgb(0,0,0)" paint-order="fill" d="M 622.8895874023438 424.9895324707031 A 3.5 3.5 0 0 1 615.8895874023438 424.9895324707031 A 3.5 3.5 0 0 1 622.8895874023438 424.9895324707031" fill-opacity="1" clip-path="url(#yrBaiHVcTtgE)" stroke-opacity="1" stroke-linejoin="bevel" stroke-miterlimit="10" stroke-dasharray=""/><path fill="rgb(214,39,40)" stroke="rgb(0,0,0)" paint-order="fill" d="M 646.6882934570312 402.1607666015625 A 3.5 3.5 0 0 1 639.6882934570312 402.1607666015625 A 3.5 3.5 0 0 1 646.6882934570312 402.1607666015625" fill-opacity="1" clip-path="url(#yrBaiHVcTtgE)" stroke-opacity="1" stroke-linejoin="bevel" stroke-miterlimit="10" stroke-dasharray=""/><path fill="rgb(214,39,40)" stroke="rgb(0,0,0)" paint-order="fill" d="M 670.4869995117188 453.2306213378906 A 3.5 3.5 0 0 1 663.4869995117188 453.2306213378906 A 3.5 3.5 0 0 1 670.4869995117188 453.2306213378906" fill-opacity="1" clip-path="url(#yrBaiHVcTtgE)" stroke-opacity="1" stroke-linejoin="bevel" stroke-miterlimit="10" stroke-dasharray=""/><path fill="none" stroke="rgb(255,152,150)" paint-order="fill" d="M 500.3961181640625 411.04345703125" stroke-opacity="1" stroke-linejoin="bevel" stroke-miterlimit="10" stroke-width="2" stroke-dasharray="" clip-path="url(#EWdEXsvNNrbI)"/><path fill="none" stroke="rgb(0,0,0)" paint-order="fill" d="M 500.3961181640625 411.04345703125" stroke-opacity="1" stroke-linejoin="bevel" stroke-miterlimit="10" stroke-dasharray="" clip-path="url(#oGTBTZfavMFa)"/><path fill="rgb(255,152,150)" stroke="rgb(0,0,0)" paint-order="fill" d="M 503.8961181640625 411.04345703125 A 3.5 3.5 0 0 1 496.8961181640625 411.04345703125 A 3.5 3.5 0 0 1 503.8961181640625 411.04345703125" fill-opacity="1" clip-path="url(#RDefgkJtqQVa)" stroke-opacity="1" stroke-linejoin="bevel" stroke-miterlimit="10" stroke-dasharray=""/><path fill="none" stroke="rgb(148,103,189)" paint-order="fill" d="M 524.19482421875 266.434814453125" stroke-opacity="1" stroke-linejoin="bevel" stroke-miterlimit="10" stroke-width="2" stroke-dasharray="" clip-path="url(#iJGqhOTgWzlz)"/><path fill="none" stroke="rgb(0,0,0)" paint-order="fill" d="M 524.19482421875 266.434814453125" stroke-opacity="1" stroke-linejoin="bevel" stroke-miterlimit="10" stroke-dasharray="" clip-path="url(#gqBlLQSahphr)"/><path fill="rgb(148,103,189)" stroke="rgb(0,0,0)" paint-order="fill" d="M 527.69482421875 266.434814453125 A 3.5 3.5 0 0 1 520.69482421875 266.434814453125 A 3.5 3.5 0 0 1 527.69482421875 266.434814453125" fill-opacity="1" clip-path="url(#cPhVmOJchuUD)" stroke-opacity="1" stroke-linejoin="bevel" stroke-miterlimit="10" stroke-dasharray=""/><path fill="none" stroke="rgb(197,176,213)" paint-order="fill" d="M 476.597412109375 327.56549072265625 L 547.9935302734375 298.5500793457031" stroke-opacity="1" stroke-linejoin="bevel" stroke-miterlimit="10" stroke-width="2" stroke-dasharray="" clip-path="url(#HNKEpUleQAHU)"/><path fill="none" stroke="rgb(0,0,0)" paint-order="fill" d="M 476.597412109375 327.56549072265625 L 547.9935302734375 298.5500793457031" stroke-opacity="1" stroke-linejoin="bevel" stroke-miterlimit="10" stroke-dasharray="" clip-path="url(#ELQXUGWGCzXT)"/><path fill="rgb(197,176,213)" stroke="rgb(0,0,0)" paint-order="fill" d="M 480.097412109375 327.56549072265625 A 3.5 3.5 0 0 1 473.097412109375 327.56549072265625 A 3.5 3.5 0 0 1 480.097412109375 327.56549072265625" fill-opacity="1" clip-path="url(#MaMTeXqNSnGU)" stroke-opacity="1" stroke-linejoin="bevel" stroke-miterlimit="10" stroke-dasharray=""/><path fill="rgb(197,176,213)" stroke="rgb(0,0,0)" paint-order="fill" d="M 551.4935302734375 298.5500793457031 A 3.5 3.5 0 0 1 544.4935302734375 298.5500793457031 A 3.5 3.5 0 0 1 551.4935302734375 298.5500793457031" fill-opacity="1" clip-path="url(#MaMTeXqNSnGU)" stroke-opacity="1" stroke-linejoin="bevel" stroke-miterlimit="10" stroke-dasharray=""/><path fill="none" stroke="rgb(140,86,75)" paint-order="fill" d="M 571.792236328125 366.2036437988281 L 595.5908813476562 389.05548095703125 L 619.3895874023438 395.6129455566406 L 643.1882934570312 379.7430114746094" stroke-opacity="1" stroke-linejoin="bevel" stroke-miterlimit="10" stroke-width="2" stroke-dasharray="" clip-path="url(#izuiTJIXxNbZ)"/><path fill="none" stroke="rgb(0,0,0)" paint-order="fill" d="M 571.792236328125 366.2036437988281 L 595.5908813476562 389.05548095703125 L 619.3895874023438 395.6129455566406 L 643.1882934570312 379.7430114746094" stroke-opacity="1" stroke-linejoin="bevel" stroke-miterlimit="10" stroke-dasharray="" clip-path="url(#TpURZkJfMcEu)"/><path fill="rgb(140,86,75)" stroke="rgb(0,0,0)" paint-order="fill" d="M 575.292236328125 366.2036437988281 A 3.5 3.5 0 0 1 568.292236328125 366.2036437988281 A 3.5 3.5 0 0 1 575.292236328125 366.2036437988281" fill-opacity="1" clip-path="url(#tJdmTDiIhudL)" stroke-opacity="1" stroke-linejoin="bevel" stroke-miterlimit="10" stroke-dasharray=""/><path fill="rgb(140,86,75)" stroke="rgb(0,0,0)" paint-order="fill" d="M 599.0908813476562 389.05548095703125 A 3.5 3.5 0 0 1 592.0908813476562 389.05548095703125 A 3.5 3.5 0 0 1 599.0908813476562 389.05548095703125" fill-opacity="1" clip-path="url(#tJdmTDiIhudL)" stroke-opacity="1" stroke-linejoin="bevel" stroke-miterlimit="10" stroke-dasharray=""/><path fill="rgb(140,86,75)" stroke="rgb(0,0,0)" paint-order="fill" d="M 622.8895874023438 395.6129455566406 A 3.5 3.5 0 0 1 615.8895874023438 395.6129455566406 A 3.5 3.5 0 0 1 622.8895874023438 395.6129455566406" fill-opacity="1" clip-path="url(#tJdmTDiIhudL)" stroke-opacity="1" stroke-linejoin="bevel" stroke-miterlimit="10" stroke-dasharray=""/><path fill="rgb(140,86,75)" stroke="rgb(0,0,0)" paint-order="fill" d="M 646.6882934570312 379.7430114746094 A 3.5 3.5 0 0 1 639.6882934570312 379.7430114746094 A 3.5 3.5 0 0 1 646.6882934570312 379.7430114746094" fill-opacity="1" clip-path="url(#tJdmTDiIhudL)" stroke-opacity="1" stroke-linejoin="bevel" stroke-miterlimit="10" stroke-dasharray=""/><path fill="none" stroke="rgb(196,156,148)" paint-order="fill" d="M 310.0065002441406 434.1258850097656 L 571.792236328125 421.37139892578125 L 595.5908813476562 383.6499328613281 L 619.3895874023438 428.4018249511719 L 643.1882934570312 427.4769592285156 L 666.9869995117188 434.9655456542969" stroke-opacity="1" stroke-linejoin="bevel" stroke-miterlimit="10" stroke-width="2" stroke-dasharray="" clip-path="url(#hwBnELJydVWf)"/><path fill="none" stroke="rgb(0,0,0)" paint-order="fill" d="M 310.0065002441406 434.1258850097656 L 571.792236328125 421.37139892578125 L 595.5908813476562 383.6499328613281 L 619.3895874023438 428.4018249511719 L 643.1882934570312 427.4769592285156 L 666.9869995117188 434.9655456542969" stroke-opacity="1" stroke-linejoin="bevel" stroke-miterlimit="10" stroke-dasharray="" clip-path="url(#xPOBLPcsnztP)"/><path fill="rgb(196,156,148)" stroke="rgb(0,0,0)" paint-order="fill" d="M 313.5065002441406 434.1258850097656 A 3.5 3.5 0 0 1 306.5065002441406 434.1258850097656 A 3.5 3.5 0 0 1 313.5065002441406 434.1258850097656" fill-opacity="1" clip-path="url(#DwOkbVXgKfDW)" stroke-opacity="1" stroke-linejoin="bevel" stroke-miterlimit="10" stroke-dasharray=""/><path fill="rgb(196,156,148)" stroke="rgb(0,0,0)" paint-order="fill" d="M 575.292236328125 421.37139892578125 A 3.5 3.5 0 0 1 568.292236328125 421.37139892578125 A 3.5 3.5 0 0 1 575.292236328125 421.37139892578125" fill-opacity="1" clip-path="url(#DwOkbVXgKfDW)" stroke-opacity="1" stroke-linejoin="bevel" stroke-miterlimit="10" stroke-dasharray=""/><path fill="rgb(196,156,148)" stroke="rgb(0,0,0)" paint-order="fill" d="M 599.0908813476562 383.6499328613281 A 3.5 3.5 0 0 1 592.0908813476562 383.6499328613281 A 3.5 3.5 0 0 1 599.0908813476562 383.6499328613281" fill-opacity="1" clip-path="url(#DwOkbVXgKfDW)" stroke-opacity="1" stroke-linejoin="bevel" stroke-miterlimit="10" stroke-dasharray=""/><path fill="rgb(196,156,148)" stroke="rgb(0,0,0)" paint-order="fill" d="M 622.8895874023438 428.4018249511719 A 3.5 3.5 0 0 1 615.8895874023438 428.4018249511719 A 3.5 3.5 0 0 1 622.8895874023438 428.4018249511719" fill-opacity="1" clip-path="url(#DwOkbVXgKfDW)" stroke-opacity="1" stroke-linejoin="bevel" stroke-miterlimit="10" stroke-dasharray=""/><path fill="rgb(196,156,148)" stroke="rgb(0,0,0)" paint-order="fill" d="M 646.6882934570312 427.4769592285156 A 3.5 3.5 0 0 1 639.6882934570312 427.4769592285156 A 3.5 3.5 0 0 1 646.6882934570312 427.4769592285156" fill-opacity="1" clip-path="url(#DwOkbVXgKfDW)" stroke-opacity="1" stroke-linejoin="bevel" stroke-miterlimit="10" stroke-dasharray=""/><path fill="rgb(196,156,148)" stroke="rgb(0,0,0)" paint-order="fill" d="M 670.4869995117188 434.9655456542969 A 3.5 3.5 0 0 1 663.4869995117188 434.9655456542969 A 3.5 3.5 0 0 1 670.4869995117188 434.9655456542969" fill-opacity="1" clip-path="url(#DwOkbVXgKfDW)" stroke-opacity="1" stroke-linejoin="bevel" stroke-miterlimit="10" stroke-dasharray=""/><path fill="none" stroke="rgb(227,119,194)" paint-order="fill" d="M 310.0065002441406 428.7135314941406 L 476.597412109375 439.1746520996094 L 500.3961181640625 399.38037109375 L 524.19482421875 421.6661071777344 L 547.9935302734375 435.4871520996094 L 571.792236328125 398.2678527832031 L 595.5908813476562 395.7139587402344 L 619.3895874023438 407.8626403808594 L 643.1882934570312 396.8898010253906 L 666.9869995117188 419.99383544921875 L 690.7857055664062 421.895263671875 L 714.5844116210938 392.5691833496094 L 762.1818237304688 385.3239440917969" stroke-opacity="1" stroke-linejoin="bevel" stroke-miterlimit="10" stroke-width="2" stroke-dasharray="" clip-path="url(#JeKOTLIlKwFr)"/><path fill="none" stroke="rgb(0,0,0)" paint-order="fill" d="M 310.0065002441406 428.7135314941406 L 476.597412109375 439.1746520996094 L 500.3961181640625 399.38037109375 L 524.19482421875 421.6661071777344 L 547.9935302734375 435.4871520996094 L 571.792236328125 398.2678527832031 L 595.5908813476562 395.7139587402344 L 619.3895874023438 407.8626403808594 L 643.1882934570312 396.8898010253906 L 666.9869995117188 419.99383544921875 L 690.7857055664062 421.895263671875 L 714.5844116210938 392.5691833496094 L 762.1818237304688 385.3239440917969" stroke-opacity="1" stroke-linejoin="bevel" stroke-miterlimit="10" stroke-dasharray="" clip-path="url(#twmvzqfwiorF)"/><path fill="rgb(227,119,194)" stroke="rgb(0,0,0)" paint-order="fill" d="M 313.5065002441406 428.7135314941406 A 3.5 3.5 0 0 1 306.5065002441406 428.7135314941406 A 3.5 3.5 0 0 1 313.5065002441406 428.7135314941406" fill-opacity="1" clip-path="url(#CFbqhqcxAOxI)" stroke-opacity="1" stroke-linejoin="bevel" stroke-miterlimit="10" stroke-dasharray=""/><path fill="rgb(227,119,194)" stroke="rgb(0,0,0)" paint-order="fill" d="M 480.097412109375 439.1746520996094 A 3.5 3.5 0 0 1 473.097412109375 439.1746520996094 A 3.5 3.5 0 0 1 480.097412109375 439.1746520996094" fill-opacity="1" clip-path="url(#CFbqhqcxAOxI)" stroke-opacity="1" stroke-linejoin="bevel" stroke-miterlimit="10" stroke-dasharray=""/><path fill="rgb(227,119,194)" stroke="rgb(0,0,0)" paint-order="fill" d="M 503.8961181640625 399.38037109375 A 3.5 3.5 0 0 1 496.8961181640625 399.38037109375 A 3.5 3.5 0 0 1 503.8961181640625 399.38037109375" fill-opacity="1" clip-path="url(#CFbqhqcxAOxI)" stroke-opacity="1" stroke-linejoin="bevel" stroke-miterlimit="10" stroke-dasharray=""/><path fill="rgb(227,119,194)" stroke="rgb(0,0,0)" paint-order="fill" d="M 527.69482421875 421.6661071777344 A 3.5 3.5 0 0 1 520.69482421875 421.6661071777344 A 3.5 3.5 0 0 1 527.69482421875 421.6661071777344" fill-opacity="1" clip-path="url(#CFbqhqcxAOxI)" stroke-opacity="1" stroke-linejoin="bevel" stroke-miterlimit="10" stroke-dasharray=""/><path fill="rgb(227,119,194)" stroke="rgb(0,0,0)" paint-order="fill" d="M 551.4935302734375 435.4871520996094 A 3.5 3.5 0 0 1 544.4935302734375 435.4871520996094 A 3.5 3.5 0 0 1 551.4935302734375 435.4871520996094" fill-opacity="1" clip-path="url(#CFbqhqcxAOxI)" stroke-opacity="1" stroke-linejoin="bevel" stroke-miterlimit="10" stroke-dasharray=""/><path fill="rgb(227,119,194)" stroke="rgb(0,0,0)" paint-order="fill" d="M 575.292236328125 398.2678527832031 A 3.5 3.5 0 0 1 568.292236328125 398.2678527832031 A 3.5 3.5 0 0 1 575.292236328125 398.2678527832031" fill-opacity="1" clip-path="url(#CFbqhqcxAOxI)" stroke-opacity="1" stroke-linejoin="bevel" stroke-miterlimit="10" stroke-dasharray=""/><path fill="rgb(227,119,194)" stroke="rgb(0,0,0)" paint-order="fill" d="M 599.0908813476562 395.7139587402344 A 3.5 3.5 0 0 1 592.0908813476562 395.7139587402344 A 3.5 3.5 0 0 1 599.0908813476562 395.7139587402344" fill-opacity="1" clip-path="url(#CFbqhqcxAOxI)" stroke-opacity="1" stroke-linejoin="bevel" stroke-miterlimit="10" stroke-dasharray=""/><path fill="rgb(227,119,194)" stroke="rgb(0,0,0)" paint-order="fill" d="M 622.8895874023438 407.8626403808594 A 3.5 3.5 0 0 1 615.8895874023438 407.8626403808594 A 3.5 3.5 0 0 1 622.8895874023438 407.8626403808594" fill-opacity="1" clip-path="url(#CFbqhqcxAOxI)" stroke-opacity="1" stroke-linejoin="bevel" stroke-miterlimit="10" stroke-dasharray=""/><path fill="rgb(227,119,194)" stroke="rgb(0,0,0)" paint-order="fill" d="M 646.6882934570312 396.8898010253906 A 3.5 3.5 0 0 1 639.6882934570312 396.8898010253906 A 3.5 3.5 0 0 1 646.6882934570312 396.8898010253906" fill-opacity="1" clip-path="url(#CFbqhqcxAOxI)" stroke-opacity="1" stroke-linejoin="bevel" stroke-miterlimit="10" stroke-dasharray=""/><path fill="rgb(227,119,194)" stroke="rgb(0,0,0)" paint-order="fill" d="M 670.4869995117188 419.99383544921875 A 3.5 3.5 0 0 1 663.4869995117188 419.99383544921875 A 3.5 3.5 0 0 1 670.4869995117188 419.99383544921875" fill-opacity="1" clip-path="url(#CFbqhqcxAOxI)" stroke-opacity="1" stroke-linejoin="bevel" stroke-miterlimit="10" stroke-dasharray=""/><path fill="rgb(227,119,194)" stroke="rgb(0,0,0)" paint-order="fill" d="M 694.2857055664062 421.895263671875 A 3.5 3.5 0 0 1 687.2857055664062 421.895263671875 A 3.5 3.5 0 0 1 694.2857055664062 421.895263671875" fill-opacity="1" clip-path="url(#CFbqhqcxAOxI)" stroke-opacity="1" stroke-linejoin="bevel" stroke-miterlimit="10" stroke-dasharray=""/><path fill="rgb(227,119,194)" stroke="rgb(0,0,0)" paint-order="fill" d="M 718.0844116210938 392.5691833496094 A 3.5 3.5 0 0 1 711.0844116210938 392.5691833496094 A 3.5 3.5 0 0 1 718.0844116210938 392.5691833496094" fill-opacity="1" clip-path="url(#CFbqhqcxAOxI)" stroke-opacity="1" stroke-linejoin="bevel" stroke-miterlimit="10" stroke-dasharray=""/><path fill="rgb(227,119,194)" stroke="rgb(0,0,0)" paint-order="fill" d="M 765.6818237304688 385.3239440917969 A 3.5 3.5 0 0 1 758.6818237304688 385.3239440917969 A 3.5 3.5 0 0 1 765.6818237304688 385.3239440917969" fill-opacity="1" clip-path="url(#CFbqhqcxAOxI)" stroke-opacity="1" stroke-linejoin="bevel" stroke-miterlimit="10" stroke-dasharray=""/><path fill="none" stroke="rgb(247,182,210)" paint-order="fill" d="M 595.5908813476562 498.44134521484375 L 619.3895874023438 396.9470520019531 L 643.1882934570312 425.72857666015625 L 666.9869995117188 365.95025634765625 L 690.7857055664062 377.02294921875" stroke-opacity="1" stroke-linejoin="bevel" stroke-miterlimit="10" stroke-width="2" stroke-dasharray="" clip-path="url(#owyIAkEMOGAA)"/><path fill="none" stroke="rgb(0,0,0)" paint-order="fill" d="M 595.5908813476562 498.44134521484375 L 619.3895874023438 396.9470520019531 L 643.1882934570312 425.72857666015625 L 666.9869995117188 365.95025634765625 L 690.7857055664062 377.02294921875" stroke-opacity="1" stroke-linejoin="bevel" stroke-miterlimit="10" stroke-dasharray="" clip-path="url(#mbaVRiydmdMB)"/><path fill="rgb(247,182,210)" stroke="rgb(0,0,0)" paint-order="fill" d="M 599.0908813476562 498.44134521484375 A 3.5 3.5 0 0 1 592.0908813476562 498.44134521484375 A 3.5 3.5 0 0 1 599.0908813476562 498.44134521484375" fill-opacity="1" clip-path="url(#VsankOkoXnHW)" stroke-opacity="1" stroke-linejoin="bevel" stroke-miterlimit="10" stroke-dasharray=""/><path fill="rgb(247,182,210)" stroke="rgb(0,0,0)" paint-order="fill" d="M 622.8895874023438 396.9470520019531 A 3.5 3.5 0 0 1 615.8895874023438 396.9470520019531 A 3.5 3.5 0 0 1 622.8895874023438 396.9470520019531" fill-opacity="1" clip-path="url(#VsankOkoXnHW)" stroke-opacity="1" stroke-linejoin="bevel" stroke-miterlimit="10" stroke-dasharray=""/><path fill="rgb(247,182,210)" stroke="rgb(0,0,0)" paint-order="fill" d="M 646.6882934570312 425.72857666015625 A 3.5 3.5 0 0 1 639.6882934570312 425.72857666015625 A 3.5 3.5 0 0 1 646.6882934570312 425.72857666015625" fill-opacity="1" clip-path="url(#VsankOkoXnHW)" stroke-opacity="1" stroke-linejoin="bevel" stroke-miterlimit="10" stroke-dasharray=""/><path fill="rgb(247,182,210)" stroke="rgb(0,0,0)" paint-order="fill" d="M 670.4869995117188 365.95025634765625 A 3.5 3.5 0 0 1 663.4869995117188 365.95025634765625 A 3.5 3.5 0 0 1 670.4869995117188 365.95025634765625" fill-opacity="1" clip-path="url(#VsankOkoXnHW)" stroke-opacity="1" stroke-linejoin="bevel" stroke-miterlimit="10" stroke-dasharray=""/><path fill="rgb(247,182,210)" stroke="rgb(0,0,0)" paint-order="fill" d="M 694.2857055664062 377.02294921875 A 3.5 3.5 0 0 1 687.2857055664062 377.02294921875 A 3.5 3.5 0 0 1 694.2857055664062 377.02294921875" fill-opacity="1" clip-path="url(#VsankOkoXnHW)" stroke-opacity="1" stroke-linejoin="bevel" stroke-miterlimit="10" stroke-dasharray=""/><path fill="none" stroke="rgb(127,127,127)" paint-order="fill" d="M 310.0065002441406 353.1092834472656 L 595.5908813476562 326.2038269042969 L 619.3895874023438 348.5948181152344 L 643.1882934570312 372.0382080078125 L 666.9869995117188 371.60595703125 L 690.7857055664062 276.14501953125 L 714.5844116210938 307.6224365234375" stroke-opacity="1" stroke-linejoin="bevel" stroke-miterlimit="10" stroke-width="2" stroke-dasharray="" clip-path="url(#xzaFvLWpZxJX)"/><path fill="none" stroke="rgb(0,0,0)" paint-order="fill" d="M 310.0065002441406 353.1092834472656 L 595.5908813476562 326.2038269042969 L 619.3895874023438 348.5948181152344 L 643.1882934570312 372.0382080078125 L 666.9869995117188 371.60595703125 L 690.7857055664062 276.14501953125 L 714.5844116210938 307.6224365234375" stroke-opacity="1" stroke-linejoin="bevel" stroke-miterlimit="10" stroke-dasharray="" clip-path="url(#KKMAUFKOPUkW)"/><path fill="rgb(127,127,127)" stroke="rgb(0,0,0)" paint-order="fill" d="M 313.5065002441406 353.1092834472656 A 3.5 3.5 0 0 1 306.5065002441406 353.1092834472656 A 3.5 3.5 0 0 1 313.5065002441406 353.1092834472656" fill-opacity="1" clip-path="url(#wtKQZmTHheqN)" stroke-opacity="1" stroke-linejoin="bevel" stroke-miterlimit="10" stroke-dasharray=""/><path fill="rgb(127,127,127)" stroke="rgb(0,0,0)" paint-order="fill" d="M 599.0908813476562 326.2038269042969 A 3.5 3.5 0 0 1 592.0908813476562 326.2038269042969 A 3.5 3.5 0 0 1 599.0908813476562 326.2038269042969" fill-opacity="1" clip-path="url(#wtKQZmTHheqN)" stroke-opacity="1" stroke-linejoin="bevel" stroke-miterlimit="10" stroke-dasharray=""/><path fill="rgb(127,127,127)" stroke="rgb(0,0,0)" paint-order="fill" d="M 622.8895874023438 348.5948181152344 A 3.5 3.5 0 0 1 615.8895874023438 348.5948181152344 A 3.5 3.5 0 0 1 622.8895874023438 348.5948181152344" fill-opacity="1" clip-path="url(#wtKQZmTHheqN)" stroke-opacity="1" stroke-linejoin="bevel" stroke-miterlimit="10" stroke-dasharray=""/><path fill="rgb(127,127,127)" stroke="rgb(0,0,0)" paint-order="fill" d="M 646.6882934570312 372.0382080078125 A 3.5 3.5 0 0 1 639.6882934570312 372.0382080078125 A 3.5 3.5 0 0 1 646.6882934570312 372.0382080078125" fill-opacity="1" clip-path="url(#wtKQZmTHheqN)" stroke-opacity="1" stroke-linejoin="bevel" stroke-miterlimit="10" stroke-dasharray=""/><path fill="rgb(127,127,127)" stroke="rgb(0,0,0)" paint-order="fill" d="M 670.4869995117188 371.60595703125 A 3.5 3.5 0 0 1 663.4869995117188 371.60595703125 A 3.5 3.5 0 0 1 670.4869995117188 371.60595703125" fill-opacity="1" clip-path="url(#wtKQZmTHheqN)" stroke-opacity="1" stroke-linejoin="bevel" stroke-miterlimit="10" stroke-dasharray=""/><path fill="rgb(127,127,127)" stroke="rgb(0,0,0)" paint-order="fill" d="M 694.2857055664062 276.14501953125 A 3.5 3.5 0 0 1 687.2857055664062 276.14501953125 A 3.5 3.5 0 0 1 694.2857055664062 276.14501953125" fill-opacity="1" clip-path="url(#wtKQZmTHheqN)" stroke-opacity="1" stroke-linejoin="bevel" stroke-miterlimit="10" stroke-dasharray=""/><path fill="rgb(127,127,127)" stroke="rgb(0,0,0)" paint-order="fill" d="M 718.0844116210938 307.6224365234375 A 3.5 3.5 0 0 1 711.0844116210938 307.6224365234375 A 3.5 3.5 0 0 1 718.0844116210938 307.6224365234375" fill-opacity="1" clip-path="url(#wtKQZmTHheqN)" stroke-opacity="1" stroke-linejoin="bevel" stroke-miterlimit="10" stroke-dasharray=""/><path fill="none" stroke="rgb(199,199,199)" paint-order="fill" d="M 738.3831176757812 326.5220642089844" stroke-opacity="1" stroke-linejoin="bevel" stroke-miterlimit="10" stroke-width="2" stroke-dasharray="" clip-path="url(#QALHBNKzSVyZ)"/><path fill="none" stroke="rgb(0,0,0)" paint-order="fill" d="M 738.3831176757812 326.5220642089844" stroke-opacity="1" stroke-linejoin="bevel" stroke-miterlimit="10" stroke-dasharray="" clip-path="url(#leGiTsFdFJVm)"/><path fill="rgb(199,199,199)" stroke="rgb(0,0,0)" paint-order="fill" d="M 741.8831176757812 326.5220642089844 A 3.5 3.5 0 0 1 734.8831176757812 326.5220642089844 A 3.5 3.5 0 0 1 741.8831176757812 326.5220642089844" fill-opacity="1" clip-path="url(#QvXcThhDOTdm)" stroke-opacity="1" stroke-linejoin="bevel" stroke-miterlimit="10" stroke-dasharray=""/><path fill="none" stroke="rgb(188,189,34)" paint-order="fill" d="M 762.1818237304688 326.7669982910156" stroke-opacity="1" stroke-linejoin="bevel" stroke-miterlimit="10" stroke-width="2" stroke-dasharray="" clip-path="url(#SBavibReQZvf)"/><path fill="none" stroke="rgb(0,0,0)" paint-order="fill" d="M 762.1818237304688 326.7669982910156" stroke-opacity="1" stroke-linejoin="bevel" stroke-miterlimit="10" stroke-dasharray="" clip-path="url(#KtORcvFGtyXS)"/><path fill="rgb(188,189,34)" stroke="rgb(0,0,0)" paint-order="fill" d="M 765.6818237304688 326.7669982910156 A 3.5 3.5 0 0 1 758.6818237304688 326.7669982910156 A 3.5 3.5 0 0 1 765.6818237304688 326.7669982910156" fill-opacity="1" clip-path="url(#nrKMNoBAxKCz)" stroke-opacity="1" stroke-linejoin="bevel" stroke-miterlimit="10" stroke-dasharray=""/><path fill="none" stroke="rgb(0,0,0)" paint-order="fill" d="M 62.5 846.5 L 795.5 846.5" stroke-opacity="1" stroke-linejoin="bevel" stroke-miterlimit="10" stroke-dasharray=""/><path fill="none" stroke="rgb(0,0,0)" paint-order="fill" d="M 80.5 852.5 L 80.5 844.5 M 199.5 852.5 L 199.5 844.5 M 318.5 852.5 L 318.5 844.5 M 437.5 852.5 L 437.5 844.5 M 556.5 852.5 L 556.5 844.5 M 675.5 852.5 L 675.5 844.5 M 794.5 852.5 L 794.5 844.5" stroke-opacity="1" stroke-linejoin="bevel" stroke-miterlimit="10" stroke-dasharray=""/><path fill="none" stroke="rgb(0,0,0)" paint-order="fill" d="M 80.5 850.5 L 80.5 846.5 M 103.5 850.5 L 103.5 846.5 M 127.5 850.5 L 127.5 846.5 M 151.5 850.5 L 151.5 846.5 M 175.5 850.5 L 175.5 846.5 M 199.5 850.5 L 199.5 846.5 M 222.5 850.5 L 222.5 846.5 M 246.5 850.5 L 246.5 846.5 M 270.5 850.5 L 270.5 846.5 M 294.5 850.5 L 294.5 846.5 M 318.5 850.5 L 318.5 846.5 M 341.5 850.5 L 341.5 846.5 M 365.5 850.5 L 365.5 846.5 M 389.5 850.5 L 389.5 846.5 M 413.5 850.5 L 413.5 846.5 M 437.5 850.5 L 437.5 846.5 M 460.5 850.5 L 460.5 846.5 M 484.5 850.5 L 484.5 846.5 M 508.5 850.5 L 508.5 846.5 M 532.5 850.5 L 532.5 846.5 M 556.5 850.5 L 556.5 846.5 M 579.5 850.5 L 579.5 846.5 M 603.5 850.5 L 603.5 846.5 M 627.5 850.5 L 627.5 846.5 M 651.5 850.5 L 651.5 846.5 M 675.5 850.5 L 675.5 846.5 M 698.5 850.5 L 698.5 846.5 M 722.5 850.5 L 722.5 846.5 M 746.5 850.5 L 746.5 846.5 M 770.5 850.5 L 770.5 846.5 M 794.5 850.5 L 794.5 846.5" stroke-opacity="1" stroke-linejoin="bevel" stroke-miterlimit="10" stroke-dasharray=""/><text fill="rgb(68,68,68)" stroke="none" font-family="helvetica" font-size="14px" font-style="normal" font-weight="normal" text-decoration="normal" x="71.82770490646362" y="868" text-anchor="start" dominant-baseline="alphabetic" transform="matrix(1, 0, 0, 1, 0.5, 0.5)" fill-opacity="1">25</text><text fill="rgb(68,68,68)" stroke="none" font-family="helvetica" font-size="14px" font-style="normal" font-weight="normal" text-decoration="normal" x="190.821204662323" y="868" text-anchor="start" dominant-baseline="alphabetic" transform="matrix(1, 0, 0, 1, 0.5, 0.5)" fill-opacity="1">30</text><text fill="rgb(68,68,68)" stroke="none" font-family="helvetica" font-size="14px" font-style="normal" font-weight="normal" text-decoration="normal" x="309.81471967697144" y="868" text-anchor="start" dominant-baseline="alphabetic" transform="matrix(1, 0, 0, 1, 0.5, 0.5)" fill-opacity="1">35</text><text fill="rgb(68,68,68)" stroke="none" font-family="helvetica" font-size="14px" font-style="normal" font-weight="normal" text-decoration="normal" x="428.8082194328308" y="868" text-anchor="start" dominant-baseline="alphabetic" transform="matrix(1, 0, 0, 1, 0.5, 0.5)" fill-opacity="1">40</text><text fill="rgb(68,68,68)" stroke="none" font-family="helvetica" font-size="14px" font-style="normal" font-weight="normal" text-decoration="normal" x="547.8017497062683" y="868" text-anchor="start" dominant-baseline="alphabetic" transform="matrix(1, 0, 0, 1, 0.5, 0.5)" fill-opacity="1">45</text><text fill="rgb(68,68,68)" stroke="none" font-family="helvetica" font-size="14px" font-style="normal" font-weight="normal" text-decoration="normal" x="666.7952189445496" y="868" text-anchor="start" dominant-baseline="alphabetic" transform="matrix(1, 0, 0, 1, 0.5, 0.5)" fill-opacity="1">50</text><text fill="rgb(68,68,68)" stroke="none" font-family="helvetica" font-size="14px" font-style="normal" font-weight="normal" text-decoration="normal" x="784.4333333969116" y="868" text-anchor="start" dominant-baseline="alphabetic" transform="matrix(1, 0, 0, 1, 0.5, 0.5)" fill-opacity="1">55</text><text fill="rgb(68,68,68)" stroke="none" font-family="helvetica" font-size="18px" font-style="italic" font-weight="normal" text-decoration="normal" x="282.8249969482422" y="893" text-anchor="start" dominant-baseline="alphabetic" transform="matrix(1, 0, 0, 1, 0.5, 0.5)" fill-opacity="1">Sum of allele lengths (repeat copies)</text><path fill="none" stroke="rgb(0,0,0)" paint-order="fill" d="M 62.5 846.5 L 62.5 5.5" stroke-opacity="1" stroke-linejoin="bevel" stroke-miterlimit="10" stroke-dasharray=""/><path fill="none" stroke="rgb(0,0,0)" paint-order="fill" d="M 56.5 658.5 L 64.5 658.5 M 56.5 458.5 L 64.5 458.5 M 56.5 259.5 L 64.5 259.5 M 56.5 60.5 L 64.5 60.5" stroke-opacity="1" stroke-linejoin="bevel" stroke-miterlimit="10" stroke-dasharray=""/><path fill="none" stroke="rgb(0,0,0)" paint-order="fill" d="M 58.5 698.5 L 62.5 698.5 M 58.5 737.5 L 62.5 737.5 M 58.5 777.5 L 62.5 777.5 M 58.5 817.5 L 62.5 817.5 M 58.5 658.5 L 62.5 658.5 M 58.5 618.5 L 62.5 618.5 M 58.5 578.5 L 62.5 578.5 M 58.5 538.5 L 62.5 538.5 M 58.5 498.5 L 62.5 498.5 M 58.5 458.5 L 62.5 458.5 M 58.5 418.5 L 62.5 418.5 M 58.5 379.5 L 62.5 379.5 M 58.5 339.5 L 62.5 339.5 M 58.5 299.5 L 62.5 299.5 M 58.5 259.5 L 62.5 259.5 M 58.5 219.5 L 62.5 219.5 M 58.5 179.5 L 62.5 179.5 M 58.5 139.5 L 62.5 139.5 M 58.5 99.5 L 62.5 99.5 M 58.5 60.5 L 62.5 60.5 M 58.5 20.5 L 62.5 20.5" stroke-opacity="1" stroke-linejoin="bevel" stroke-miterlimit="10" stroke-dasharray=""/><text fill="rgb(68,68,68)" stroke="none" font-family="helvetica" font-size="14px" font-style="normal" font-weight="normal" text-decoration="normal" x="31.53333282470703" y="663.1802978515625" text-anchor="start" dominant-baseline="alphabetic" transform="matrix(1, 0, 0, 1, 0.5, 0.5)" fill-opacity="1">2.4</text><text fill="rgb(68,68,68)" stroke="none" font-family="helvetica" font-size="14px" font-style="normal" font-weight="normal" text-decoration="normal" x="31.53333282470703" y="463.8013610839844" text-anchor="start" dominant-baseline="alphabetic" transform="matrix(1, 0, 0, 1, 0.5, 0.5)" fill-opacity="1">2.6</text><text fill="rgb(68,68,68)" stroke="none" font-family="helvetica" font-size="14px" font-style="normal" font-weight="normal" text-decoration="normal" x="31.53333282470703" y="264.42242431640625" text-anchor="start" dominant-baseline="alphabetic" transform="matrix(1, 0, 0, 1, 0.5, 0.5)" fill-opacity="1">2.8</text><text fill="rgb(68,68,68)" stroke="none" font-family="helvetica" font-size="14px" font-style="normal" font-weight="normal" text-decoration="normal" x="43.21666669845581" y="65.04349136352539" text-anchor="start" dominant-baseline="alphabetic" transform="matrix(1, 0, 0, 1, 0.5, 0.5)" fill-opacity="1">3</text><text fill="rgb(68,68,68)" stroke="none" font-family="helvetica" font-size="18px" font-style="italic" font-weight="normal" text-decoration="normal" x="-90.83333587646484" y="421.5" text-anchor="start" dominant-baseline="alphabetic" transform="matrix(6.123233995736766e-17, -1, 1, 6.123233995736766e-17, -401.46666717529297, 449.53333282470703)" fill-opacity="1">Mean eosinophil percent (%)</text><path fill="rgb(255,255,255)" stroke="rgb(229,229,229)" paint-order="fill" d="M 710.4500007629395 15.5 L 785.5 15.5 L 785.5 423.5 L 710.4500007629395 423.5 L 710.4500007629395 15.5" fill-opacity="0.9490196078431372" clip-path="url(#bpDfkbhcwDLg)" stroke-opacity="0.5019607843137255" stroke-linejoin="bevel" stroke-miterlimit="10" stroke-dasharray=""/><g clip-path="url(#bpDfkbhcwDLg)"><text fill="rgb(68,68,68)" stroke="none" font-family="helvetica" font-size="10px" font-style="normal" font-weight="normal" text-decoration="normal" x="744.9500007629395" y="35" text-anchor="start" dominant-baseline="central" transform="matrix(1, 0, 0, 1, 0.5, 0.5)" fill-opacity="1">len_14</text></g><path fill="rgb(31,119,180)" stroke="rgb(0,0,0)" paint-order="fill" d="M 734.4500007629395 35.5 A 4 4 0 0 1 726.4500007629395 35.5 A 4 4 0 0 1 734.4500007629395 35.5" fill-opacity="1" clip-path="url(#bpDfkbhcwDLg)" stroke-opacity="1" stroke-linejoin="bevel" stroke-miterlimit="10" stroke-dasharray=""/><g clip-path="url(#bpDfkbhcwDLg)"><text fill="rgb(68,68,68)" stroke="none" font-family="helvetica" font-size="10px" font-style="normal" font-weight="normal" text-decoration="normal" x="744.9500007629395" y="58" text-anchor="start" dominant-baseline="central" transform="matrix(1, 0, 0, 1, 0.5, 0.5)" fill-opacity="1">len_17</text></g><path fill="rgb(174,199,232)" stroke="rgb(0,0,0)" paint-order="fill" d="M 734.4500007629395 58.5 A 4 4 0 0 1 726.4500007629395 58.5 A 4 4 0 0 1 734.4500007629395 58.5" fill-opacity="1" clip-path="url(#bpDfkbhcwDLg)" stroke-opacity="1" stroke-linejoin="bevel" stroke-miterlimit="10" stroke-dasharray=""/><g clip-path="url(#bpDfkbhcwDLg)"><text fill="rgb(68,68,68)" stroke="none" font-family="helvetica" font-size="10px" font-style="normal" font-weight="normal" text-decoration="normal" x="744.9500007629395" y="81" text-anchor="start" dominant-baseline="central" transform="matrix(1, 0, 0, 1, 0.5, 0.5)" fill-opacity="1">len_18</text></g><path fill="rgb(255,127,14)" stroke="rgb(0,0,0)" paint-order="fill" d="M 734.4500007629395 81.5 A 4 4 0 0 1 726.4500007629395 81.5 A 4 4 0 0 1 734.4500007629395 81.5" fill-opacity="1" clip-path="url(#bpDfkbhcwDLg)" stroke-opacity="1" stroke-linejoin="bevel" stroke-miterlimit="10" stroke-dasharray=""/><g clip-path="url(#bpDfkbhcwDLg)"><text fill="rgb(68,68,68)" stroke="none" font-family="helvetica" font-size="10px" font-style="normal" font-weight="normal" text-decoration="normal" x="744.9500007629395" y="104" text-anchor="start" dominant-baseline="central" transform="matrix(1, 0, 0, 1, 0.5, 0.5)" fill-opacity="1">len_19</text></g><path fill="rgb(255,187,120)" stroke="rgb(0,0,0)" paint-order="fill" d="M 734.4500007629395 104.5 A 4 4 0 0 1 726.4500007629395 104.5 A 4 4 0 0 1 734.4500007629395 104.5" fill-opacity="1" clip-path="url(#bpDfkbhcwDLg)" stroke-opacity="1" stroke-linejoin="bevel" stroke-miterlimit="10" stroke-dasharray=""/><g clip-path="url(#bpDfkbhcwDLg)"><text fill="rgb(68,68,68)" stroke="none" font-family="helvetica" font-size="10px" font-style="normal" font-weight="normal" text-decoration="normal" x="744.9500007629395" y="127" text-anchor="start" dominant-baseline="central" transform="matrix(1, 0, 0, 1, 0.5, 0.5)" fill-opacity="1">len_20</text></g><path fill="rgb(44,160,44)" stroke="rgb(0,0,0)" paint-order="fill" d="M 734.4500007629395 127.5 A 4 4 0 0 1 726.4500007629395 127.5 A 4 4 0 0 1 734.4500007629395 127.5" fill-opacity="1" clip-path="url(#bpDfkbhcwDLg)" stroke-opacity="1" stroke-linejoin="bevel" stroke-miterlimit="10" stroke-dasharray=""/><g clip-path="url(#bpDfkbhcwDLg)"><text fill="rgb(68,68,68)" stroke="none" font-family="helvetica" font-size="10px" font-style="normal" font-weight="normal" text-decoration="normal" x="744.9500007629395" y="150" text-anchor="start" dominant-baseline="central" transform="matrix(1, 0, 0, 1, 0.5, 0.5)" fill-opacity="1">len_21</text></g><path fill="rgb(152,223,138)" stroke="rgb(0,0,0)" paint-order="fill" d="M 734.4500007629395 150.5 A 4 4 0 0 1 726.4500007629395 150.5 A 4 4 0 0 1 734.4500007629395 150.5" fill-opacity="1" clip-path="url(#bpDfkbhcwDLg)" stroke-opacity="1" stroke-linejoin="bevel" stroke-miterlimit="10" stroke-dasharray=""/><g clip-path="url(#bpDfkbhcwDLg)"><text fill="rgb(68,68,68)" stroke="none" font-family="helvetica" font-size="10px" font-style="normal" font-weight="normal" text-decoration="normal" x="744.9500007629395" y="173" text-anchor="start" dominant-baseline="central" transform="matrix(1, 0, 0, 1, 0.5, 0.5)" fill-opacity="1">len_24</text></g><path fill="rgb(214,39,40)" stroke="rgb(0,0,0)" paint-order="fill" d="M 734.4500007629395 173.5 A 4 4 0 0 1 726.4500007629395 173.5 A 4 4 0 0 1 734.4500007629395 173.5" fill-opacity="1" clip-path="url(#bpDfkbhcwDLg)" stroke-opacity="1" stroke-linejoin="bevel" stroke-miterlimit="10" stroke-dasharray=""/><g clip-path="url(#bpDfkbhcwDLg)"><text fill="rgb(68,68,68)" stroke="none" font-family="helvetica" font-size="10px" font-style="normal" font-weight="normal" text-decoration="normal" x="744.9500007629395" y="196" text-anchor="start" dominant-baseline="central" transform="matrix(1, 0, 0, 1, 0.5, 0.5)" fill-opacity="1">len_25</text></g><path fill="rgb(255,152,150)" stroke="rgb(0,0,0)" paint-order="fill" d="M 734.4500007629395 196.5 A 4 4 0 0 1 726.4500007629395 196.5 A 4 4 0 0 1 734.4500007629395 196.5" fill-opacity="1" clip-path="url(#bpDfkbhcwDLg)" stroke-opacity="1" stroke-linejoin="bevel" stroke-miterlimit="10" stroke-dasharray=""/><g clip-path="url(#bpDfkbhcwDLg)"><text fill="rgb(68,68,68)" stroke="none" font-family="helvetica" font-size="10px" font-style="normal" font-weight="normal" text-decoration="normal" x="744.9500007629395" y="219" text-anchor="start" dominant-baseline="central" transform="matrix(1, 0, 0, 1, 0.5, 0.5)" fill-opacity="1">len_26</text></g><path fill="rgb(148,103,189)" stroke="rgb(0,0,0)" paint-order="fill" d="M 734.4500007629395 219.5 A 4 4 0 0 1 726.4500007629395 219.5 A 4 4 0 0 1 734.4500007629395 219.5" fill-opacity="1" clip-path="url(#bpDfkbhcwDLg)" stroke-opacity="1" stroke-linejoin="bevel" stroke-miterlimit="10" stroke-dasharray=""/><g clip-path="url(#bpDfkbhcwDLg)"><text fill="rgb(68,68,68)" stroke="none" font-family="helvetica" font-size="10px" font-style="normal" font-weight="normal" text-decoration="normal" x="744.9500007629395" y="242" text-anchor="start" dominant-baseline="central" transform="matrix(1, 0, 0, 1, 0.5, 0.5)" fill-opacity="1">len_27</text></g><path fill="rgb(197,176,213)" stroke="rgb(0,0,0)" paint-order="fill" d="M 734.4500007629395 242.5 A 4 4 0 0 1 726.4500007629395 242.5 A 4 4 0 0 1 734.4500007629395 242.5" fill-opacity="1" clip-path="url(#bpDfkbhcwDLg)" stroke-opacity="1" stroke-linejoin="bevel" stroke-miterlimit="10" stroke-dasharray=""/><g clip-path="url(#bpDfkbhcwDLg)"><text fill="rgb(68,68,68)" stroke="none" font-family="helvetica" font-size="10px" font-style="normal" font-weight="normal" text-decoration="normal" x="744.9500007629395" y="265" text-anchor="start" dominant-baseline="central" transform="matrix(1, 0, 0, 1, 0.5, 0.5)" fill-opacity="1">len_28</text></g><path fill="rgb(140,86,75)" stroke="rgb(0,0,0)" paint-order="fill" d="M 734.4500007629395 265.5 A 4 4 0 0 1 726.4500007629395 265.5 A 4 4 0 0 1 734.4500007629395 265.5" fill-opacity="1" clip-path="url(#bpDfkbhcwDLg)" stroke-opacity="1" stroke-linejoin="bevel" stroke-miterlimit="10" stroke-dasharray=""/><g clip-path="url(#bpDfkbhcwDLg)"><text fill="rgb(68,68,68)" stroke="none" font-family="helvetica" font-size="10px" font-style="normal" font-weight="normal" text-decoration="normal" x="744.9500007629395" y="288" text-anchor="start" dominant-baseline="central" transform="matrix(1, 0, 0, 1, 0.5, 0.5)" fill-opacity="1">len_29</text></g><path fill="rgb(196,156,148)" stroke="rgb(0,0,0)" paint-order="fill" d="M 734.4500007629395 288.5 A 4 4 0 0 1 726.4500007629395 288.5 A 4 4 0 0 1 734.4500007629395 288.5" fill-opacity="1" clip-path="url(#bpDfkbhcwDLg)" stroke-opacity="1" stroke-linejoin="bevel" stroke-miterlimit="10" stroke-dasharray=""/><g clip-path="url(#bpDfkbhcwDLg)"><text fill="rgb(68,68,68)" stroke="none" font-family="helvetica" font-size="10px" font-style="normal" font-weight="normal" text-decoration="normal" x="744.9500007629395" y="311" text-anchor="start" dominant-baseline="central" transform="matrix(1, 0, 0, 1, 0.5, 0.5)" fill-opacity="1">len_30</text></g><path fill="rgb(227,119,194)" stroke="rgb(0,0,0)" paint-order="fill" d="M 734.4500007629395 311.5 A 4 4 0 0 1 726.4500007629395 311.5 A 4 4 0 0 1 734.4500007629395 311.5" fill-opacity="1" clip-path="url(#bpDfkbhcwDLg)" stroke-opacity="1" stroke-linejoin="bevel" stroke-miterlimit="10" stroke-dasharray=""/><g clip-path="url(#bpDfkbhcwDLg)"><text fill="rgb(68,68,68)" stroke="none" font-family="helvetica" font-size="10px" font-style="normal" font-weight="normal" text-decoration="normal" x="744.9500007629395" y="334" text-anchor="start" dominant-baseline="central" transform="matrix(1, 0, 0, 1, 0.5, 0.5)" fill-opacity="1">len_31</text></g><path fill="rgb(247,182,210)" stroke="rgb(0,0,0)" paint-order="fill" d="M 734.4500007629395 334.5 A 4 4 0 0 1 726.4500007629395 334.5 A 4 4 0 0 1 734.4500007629395 334.5" fill-opacity="1" clip-path="url(#bpDfkbhcwDLg)" stroke-opacity="1" stroke-linejoin="bevel" stroke-miterlimit="10" stroke-dasharray=""/><g clip-path="url(#bpDfkbhcwDLg)"><text fill="rgb(68,68,68)" stroke="none" font-family="helvetica" font-size="10px" font-style="normal" font-weight="normal" text-decoration="normal" x="744.9500007629395" y="357" text-anchor="start" dominant-baseline="central" transform="matrix(1, 0, 0, 1, 0.5, 0.5)" fill-opacity="1">len_32</text></g><path fill="rgb(127,127,127)" stroke="rgb(0,0,0)" paint-order="fill" d="M 734.4500007629395 357.5 A 4 4 0 0 1 726.4500007629395 357.5 A 4 4 0 0 1 734.4500007629395 357.5" fill-opacity="1" clip-path="url(#bpDfkbhcwDLg)" stroke-opacity="1" stroke-linejoin="bevel" stroke-miterlimit="10" stroke-dasharray=""/><g clip-path="url(#bpDfkbhcwDLg)"><text fill="rgb(68,68,68)" stroke="none" font-family="helvetica" font-size="10px" font-style="normal" font-weight="normal" text-decoration="normal" x="744.9500007629395" y="380" text-anchor="start" dominant-baseline="central" transform="matrix(1, 0, 0, 1, 0.5, 0.5)" fill-opacity="1">len_35</text></g><path fill="rgb(199,199,199)" stroke="rgb(0,0,0)" paint-order="fill" d="M 734.4500007629395 380.5 A 4 4 0 0 1 726.4500007629395 380.5 A 4 4 0 0 1 734.4500007629395 380.5" fill-opacity="1" clip-path="url(#bpDfkbhcwDLg)" stroke-opacity="1" stroke-linejoin="bevel" stroke-miterlimit="10" stroke-dasharray=""/><g clip-path="url(#bpDfkbhcwDLg)"><text fill="rgb(68,68,68)" stroke="none" font-family="helvetica" font-size="10px" font-style="normal" font-weight="normal" text-decoration="normal" x="744.9500007629395" y="403" text-anchor="start" dominant-baseline="central" transform="matrix(1, 0, 0, 1, 0.5, 0.5)" fill-opacity="1">len_36</text></g><path fill="rgb(188,189,34)" stroke="rgb(0,0,0)" paint-order="fill" d="M 734.4500007629395 403.5 A 4 4 0 0 1 726.4500007629395 403.5 A 4 4 0 0 1 734.4500007629395 403.5" fill-opacity="1" clip-path="url(#bpDfkbhcwDLg)" stroke-opacity="1" stroke-linejoin="bevel" stroke-miterlimit="10" stroke-dasharray=""/></svg>